<?xml version="1.0" standalone="no"?>
 <!DOCTYPE svg PUBLIC "-//W3C//DTD SVG 1.1//EN" 
 "http://www.w3.org/Graphics/SVG/1.1/DTD/svg11.dtd"> 
<svg xmlns="http://www.w3.org/2000/svg" version="1.1" 
    width="10.1575cm" height="5.78612cm" viewBox="0 0 39990 22780 ">
<title>SVG Picture created as PowerBox-brd.svg date 2015/07/24 10:55:32 </title>
  <desc>Picture generated by PCBNEW </desc>
<g style="fill:#000000; fill-opacity:1;stroke:#000000; stroke-opacity:1;
stroke-linecap:round; stroke-linejoin:round; "
 transform="translate(0 0) scale(1 1)">
</g>
<g style="fill:#000084; fill-opacity:0.0; 
stroke:#000084; stroke-width:150; stroke-opacity:1; 
stroke-linecap:round; stroke-linejoin:round;">
<circle cx="5384.8" cy="19419.7" r="1181" /> 
<circle cx="5384.8" cy="3019.69" r="1181" /> 
<circle cx="35384.8" cy="3019.69" r="1181" /> 
<circle cx="35384.8" cy="19419.7" r="1181" /> 
</g>
<g style="fill:#C2C200; fill-opacity:0.0; 
stroke:#C2C200; stroke-width:39.3701; stroke-opacity:1; 
stroke-linecap:round; stroke-linejoin:round;">
<path d="M38384 5019
L38384 17419
" />
<path d="M2384 5019
L2384 17419
" />
<path d="M7384 22419
L33384 22419
" />
<path d="M7384 19
L33384 19
" />
<path d="M38384.8 5019.69 A5000 5000 0.0 0 0 33384.8 19.6854 " />
<path d="M7384.8 19.6854 A5000 5000 0.0 0 0 2384.8 5019.69 " />
<path d="M33384.8 22419.7 A5000 5000 0.0 0 0 38384.8 17419.7 " />
<path d="M2384.8 17419.7 A5000 5000 0.0 0 0 7384.8 22419.7 " />
</g> 
</svg>
