<?xml version="1.0" standalone="no"?>
 <!DOCTYPE svg PUBLIC "-//W3C//DTD SVG 1.1//EN" 
 "http://www.w3.org/Graphics/SVG/1.1/DTD/svg11.dtd"> 
<svg xmlns="http://www.w3.org/2000/svg" version="1.1" 
    width="10.1575cm" height="5.78612cm" viewBox="0 0 39990 22780 ">
<title>SVG Picture created as PowerBox-B_SilkS.svg date 2015/07/24 10:55:24 </title>
  <desc>Picture generated by PCBNEW </desc>
<g style="fill:#000000; fill-opacity:1;stroke:#000000; stroke-opacity:1;
stroke-linecap:round; stroke-linejoin:round; "
 transform="translate(0 0) scale(1 1)">
</g>
<g style="fill:#C2C200; fill-opacity:0.0; 
stroke:#C2C200; stroke-width:39.3701; stroke-opacity:1; 
stroke-linecap:round; stroke-linejoin:round;">
<path d="M38384 5019
L38384 17419
" />
<path d="M2384 5019
L2384 17419
" />
<path d="M7384 22419
L33384 22419
" />
<path d="M7384 19
L33384 19
" />
<path d="M38384.8 5019.69 A5000 5000 0.0 0 0 33384.8 19.6854 " />
<path d="M7384.8 19.6854 A5000 5000 0.0 0 0 2384.8 5019.69 " />
<path d="M33384.8 22419.7 A5000 5000 0.0 0 0 38384.8 17419.7 " />
<path d="M2384.8 17419.7 A5000 5000 0.0 0 0 7384.8 22419.7 " />
</g>
<g style="fill:#840084; fill-opacity:0.0; 
stroke:#840084; stroke-width:35; stroke-opacity:1; 
stroke-linecap:round; stroke-linejoin:round;">
<path d="M7808 13850
L7780 13860
L7732 13860
L7713 13850
L7703 13841
L7694 13822
L7694 13803
L7703 13783
L7713 13774
L7732 13764
L7770 13755
L7789 13745
L7799 13736
L7808 13717
L7808 13698
L7799 13679
L7789 13669
L7770 13660
L7722 13660
L7694 13669
" />
<path d="M7608 13860
L7608 13660
L7560 13660
L7532 13669
L7513 13688
L7503 13707
L7494 13745
L7494 13774
L7503 13812
L7513 13831
L7532 13850
L7560 13860
L7608 13860
" />
<path d="M7408 13860
L7408 13660
L7341 13803
L7275 13660
L7275 13860
" />
<path d="M7094 13726
L7094 13860
" />
<path d="M7141 13650
L7189 13793
L7065 13793
" />
<path d="M6951 13660
L6932 13660
L6913 13669
L6903 13679
L6894 13698
L6884 13736
L6884 13783
L6894 13822
L6903 13841
L6913 13850
L6932 13860
L6951 13860
L6970 13850
L6980 13841
L6989 13822
L6999 13783
L6999 13736
L6989 13698
L6980 13679
L6970 13669
L6951 13660
" />
<path d="M6799 13755
L6732 13755
" />
<path d="M6703 13860
L6799 13860
L6799 13660
L6703 13660
" />
<path d="M6627 13679
L6618 13669
L6599 13660
L6551 13660
L6532 13669
L6522 13679
L6513 13698
L6513 13717
L6522 13745
L6637 13860
L6513 13860
" />
<path d="M6389 13660
L6370 13660
L6351 13669
L6341 13679
L6332 13698
L6322 13736
L6322 13783
L6332 13822
L6341 13841
L6351 13850
L6370 13860
L6389 13860
L6408 13850
L6418 13841
L6427 13822
L6437 13783
L6437 13736
L6427 13698
L6418 13679
L6408 13669
L6389 13660
" />
<path d="M6141 13860
L6237 13860
L6237 13660
" />
<path d="M5960 13841
L5970 13850
L5999 13860
L6018 13860
L6046 13850
L6065 13831
L6075 13812
L6084 13774
L6084 13745
L6075 13707
L6065 13688
L6046 13669
L6018 13660
L5999 13660
L5970 13669
L5960 13679
" />
<path d="M8908 19400
L8880 19410
L8832 19410
L8813 19400
L8803 19391
L8794 19372
L8794 19353
L8803 19333
L8813 19324
L8832 19314
L8870 19305
L8889 19295
L8899 19286
L8908 19267
L8908 19248
L8899 19229
L8889 19219
L8870 19210
L8822 19210
L8794 19219
" />
<path d="M8708 19410
L8708 19210
L8660 19210
L8632 19219
L8613 19238
L8603 19257
L8594 19295
L8594 19324
L8603 19362
L8613 19381
L8632 19400
L8660 19410
L8708 19410
" />
<path d="M8508 19410
L8508 19210
L8441 19353
L8375 19210
L8375 19410
" />
<path d="M8194 19276
L8194 19410
" />
<path d="M8241 19200
L8289 19343
L8165 19343
" />
<path d="M8051 19210
L8032 19210
L8013 19219
L8003 19229
L7994 19248
L7984 19286
L7984 19333
L7994 19372
L8003 19391
L8013 19400
L8032 19410
L8051 19410
L8070 19400
L8080 19391
L8089 19372
L8099 19333
L8099 19286
L8089 19248
L8080 19229
L8070 19219
L8051 19210
" />
<path d="M7899 19305
L7832 19305
" />
<path d="M7803 19410
L7899 19410
L7899 19210
L7803 19210
" />
<path d="M7727 19229
L7718 19219
L7699 19210
L7651 19210
L7632 19219
L7622 19229
L7613 19248
L7613 19267
L7622 19295
L7737 19410
L7613 19410
" />
<path d="M7489 19210
L7470 19210
L7451 19219
L7441 19229
L7432 19248
L7422 19286
L7422 19333
L7432 19372
L7441 19391
L7451 19400
L7470 19410
L7489 19410
L7508 19400
L7518 19391
L7527 19372
L7537 19333
L7537 19286
L7527 19248
L7518 19229
L7508 19219
L7489 19210
" />
<path d="M7241 19410
L7337 19410
L7337 19210
" />
<path d="M7060 19391
L7070 19400
L7099 19410
L7118 19410
L7146 19400
L7165 19381
L7175 19362
L7184 19324
L7184 19295
L7175 19257
L7165 19238
L7146 19219
L7118 19210
L7099 19210
L7070 19219
L7060 19229
" />
<path d="M3226 13308
L3238 13320
L3274 13332
L3297 13332
L3333 13320
L3357 13297
L3369 13273
L3381 13225
L3381 13189
L3369 13142
L3357 13118
L3333 13094
L3297 13082
L3274 13082
L3238 13094
L3226 13106
" />
<path d="M2988 13332
L3131 13332
" />
<path d="M3059 13332
L3059 13082
L3083 13118
L3107 13142
L3131 13154
" />
</g>
<g style="fill:#008484; fill-opacity:0.0; 
stroke:#008484; stroke-width:35; stroke-opacity:1; 
stroke-linecap:round; stroke-linejoin:round;">
<path d="M13874 13078
L13885 13066
L13897 13030
L13897 13006
L13885 12970
L13862 12947
L13838 12935
L13790 12923
L13755 12923
L13707 12935
L13683 12947
L13659 12970
L13647 13006
L13647 13030
L13659 13066
L13671 13078
" />
<path d="M13671 13173
L13659 13185
L13647 13208
L13647 13268
L13659 13292
L13671 13304
L13695 13316
L13719 13316
L13755 13304
L13897 13161
L13897 13316
" />
</g>
<g style="fill:#840084; fill-opacity:0.0; 
stroke:#840084; stroke-width:35; stroke-opacity:1; 
stroke-linecap:round; stroke-linejoin:round;">
<path d="M13874 11478
L13885 11466
L13897 11430
L13897 11406
L13885 11370
L13862 11347
L13838 11335
L13790 11323
L13755 11323
L13707 11335
L13683 11347
L13659 11370
L13647 11406
L13647 11430
L13659 11466
L13671 11478
" />
<path d="M13647 11561
L13647 11716
L13743 11632
L13743 11668
L13755 11692
L13766 11704
L13790 11716
L13850 11716
L13874 11704
L13885 11692
L13897 11668
L13897 11597
L13885 11573
L13874 11561
" />
<path d="M36926 17708
L36938 17720
L36974 17732
L36997 17732
L37033 17720
L37057 17697
L37069 17673
L37081 17625
L37081 17589
L37069 17542
L37057 17518
L37033 17494
L36997 17482
L36974 17482
L36938 17494
L36926 17506
" />
<path d="M36712 17566
L36712 17732
" />
<path d="M36771 17470
L36831 17649
L36676 17649
" />
<path d="M30826 10208
L30838 10220
L30874 10232
L30897 10232
L30933 10220
L30957 10197
L30969 10173
L30981 10125
L30981 10089
L30969 10042
L30957 10018
L30933 9994
L30897 9982
L30874 9982
L30838 9994
L30826 10006
" />
<path d="M30600 9982
L30719 9982
L30731 10101
L30719 10089
L30695 10078
L30635 10078
L30612 10089
L30600 10101
L30588 10125
L30588 10185
L30600 10208
L30612 10220
L30635 10232
L30695 10232
L30719 10220
L30731 10208
" />
</g>
<g style="fill:#008484; fill-opacity:0.0; 
stroke:#008484; stroke-width:35; stroke-opacity:1; 
stroke-linecap:round; stroke-linejoin:round;">
<path d="M26074 16078
L26085 16066
L26097 16030
L26097 16006
L26085 15970
L26062 15947
L26038 15935
L25990 15923
L25955 15923
L25907 15935
L25883 15947
L25859 15970
L25847 16006
L25847 16030
L25859 16066
L25871 16078
" />
<path d="M25847 16292
L25847 16244
L25859 16220
L25871 16208
L25907 16185
L25955 16173
L26050 16173
L26074 16185
L26085 16197
L26097 16220
L26097 16268
L26085 16292
L26074 16304
L26050 16316
L25990 16316
L25966 16304
L25955 16292
L25943 16268
L25943 16220
L25955 16197
L25966 16185
L25990 16173
" />
</g>
<g style="fill:#840084; fill-opacity:0.0; 
stroke:#840084; stroke-width:35; stroke-opacity:1; 
stroke-linecap:round; stroke-linejoin:round;">
<path d="M26326 10208
L26338 10220
L26374 10232
L26397 10232
L26433 10220
L26457 10197
L26469 10173
L26481 10125
L26481 10089
L26469 10042
L26457 10018
L26433 9994
L26397 9982
L26374 9982
L26338 9994
L26326 10006
" />
<path d="M26243 9982
L26076 9982
L26183 10232
" />
<path d="M13826 16608
L13838 16620
L13874 16632
L13897 16632
L13933 16620
L13957 16597
L13969 16573
L13981 16525
L13981 16489
L13969 16442
L13957 16418
L13933 16394
L13897 16382
L13874 16382
L13838 16394
L13826 16406
" />
<path d="M13683 16489
L13707 16478
L13719 16466
L13731 16442
L13731 16430
L13719 16406
L13707 16394
L13683 16382
L13635 16382
L13612 16394
L13600 16406
L13588 16430
L13588 16442
L13600 16466
L13612 16478
L13635 16489
L13683 16489
L13707 16501
L13719 16513
L13731 16537
L13731 16585
L13719 16608
L13707 16620
L13683 16632
L13635 16632
L13612 16620
L13600 16608
L13588 16585
L13588 16537
L13600 16513
L13612 16501
L13635 16489
" />
</g>
<g style="fill:#008484; fill-opacity:0.0; 
stroke:#008484; stroke-width:35; stroke-opacity:1; 
stroke-linecap:round; stroke-linejoin:round;">
<path d="M18526 14908
L18538 14920
L18574 14932
L18597 14932
L18633 14920
L18657 14897
L18669 14873
L18681 14825
L18681 14789
L18669 14742
L18657 14718
L18633 14694
L18597 14682
L18574 14682
L18538 14694
L18526 14706
" />
<path d="M18407 14932
L18359 14932
L18335 14920
L18324 14908
L18300 14873
L18288 14825
L18288 14730
L18300 14706
L18312 14694
L18335 14682
L18383 14682
L18407 14694
L18419 14706
L18431 14730
L18431 14789
L18419 14813
L18407 14825
L18383 14837
L18335 14837
L18312 14825
L18300 14813
L18288 14789
" />
<path d="M13845 15808
L13857 15820
L13893 15832
L13916 15832
L13952 15820
L13976 15797
L13988 15773
L14000 15725
L14000 15689
L13988 15642
L13976 15618
L13952 15594
L13916 15582
L13893 15582
L13857 15594
L13845 15606
" />
<path d="M13607 15832
L13750 15832
" />
<path d="M13678 15832
L13678 15582
L13702 15618
L13726 15642
L13750 15654
" />
<path d="M13452 15582
L13428 15582
L13405 15594
L13393 15606
L13381 15630
L13369 15678
L13369 15737
L13381 15785
L13393 15808
L13405 15820
L13428 15832
L13452 15832
L13476 15820
L13488 15808
L13500 15785
L13512 15737
L13512 15678
L13500 15630
L13488 15606
L13476 15594
L13452 15582
" />
</g>
<g style="fill:#840084; fill-opacity:0.0; 
stroke:#840084; stroke-width:35; stroke-opacity:1; 
stroke-linecap:round; stroke-linejoin:round;">
<path d="M32674 12458
L32685 12447
L32697 12411
L32697 12387
L32685 12351
L32662 12328
L32638 12316
L32590 12304
L32555 12304
L32507 12316
L32483 12328
L32459 12351
L32447 12387
L32447 12411
L32459 12447
L32471 12458
" />
<path d="M32697 12697
L32697 12554
" />
<path d="M32697 12625
L32447 12625
L32483 12601
L32507 12578
L32519 12554
" />
<path d="M32697 12935
L32697 12792
" />
<path d="M32697 12863
L32447 12863
L32483 12839
L32507 12816
L32519 12792
" />
</g>
<g style="fill:#008484; fill-opacity:0.0; 
stroke:#008484; stroke-width:35; stroke-opacity:1; 
stroke-linecap:round; stroke-linejoin:round;">
<path d="M18645 17108
L18657 17120
L18693 17132
L18716 17132
L18752 17120
L18776 17097
L18788 17073
L18800 17025
L18800 16989
L18788 16942
L18776 16918
L18752 16894
L18716 16882
L18693 16882
L18657 16894
L18645 16906
" />
<path d="M18407 17132
L18550 17132
" />
<path d="M18478 17132
L18478 16882
L18502 16918
L18526 16942
L18550 16954
" />
<path d="M18312 16906
L18300 16894
L18276 16882
L18216 16882
L18193 16894
L18181 16906
L18169 16930
L18169 16954
L18181 16989
L18324 17132
L18169 17132
" />
</g>
<g style="fill:#840084; fill-opacity:0.0; 
stroke:#840084; stroke-width:35; stroke-opacity:1; 
stroke-linecap:round; stroke-linejoin:round;">
<path d="M29145 17008
L29157 17020
L29193 17032
L29216 17032
L29252 17020
L29276 16997
L29288 16973
L29300 16925
L29300 16889
L29288 16842
L29276 16818
L29252 16794
L29216 16782
L29193 16782
L29157 16794
L29145 16806
" />
<path d="M28907 17032
L29050 17032
" />
<path d="M28978 17032
L28978 16782
L29002 16818
L29026 16842
L29050 16854
" />
<path d="M28693 16782
L28740 16782
L28764 16794
L28776 16806
L28800 16842
L28812 16889
L28812 16985
L28800 17008
L28788 17020
L28764 17032
L28716 17032
L28693 17020
L28681 17008
L28669 16985
L28669 16925
L28681 16901
L28693 16889
L28716 16878
L28764 16878
L28788 16889
L28800 16901
L28812 16925
" />
</g>
<g style="fill:#008484; fill-opacity:0.0; 
stroke:#008484; stroke-width:35; stroke-opacity:1; 
stroke-linecap:round; stroke-linejoin:round;">
<path d="M30874 15258
L30885 15247
L30897 15211
L30897 15187
L30885 15151
L30862 15128
L30838 15116
L30790 15104
L30755 15104
L30707 15116
L30683 15128
L30659 15151
L30647 15187
L30647 15211
L30659 15247
L30671 15258
" />
<path d="M30897 15497
L30897 15354
" />
<path d="M30897 15425
L30647 15425
L30683 15401
L30707 15378
L30719 15354
" />
<path d="M30755 15639
L30743 15616
L30731 15604
L30707 15592
L30695 15592
L30671 15604
L30659 15616
L30647 15639
L30647 15687
L30659 15711
L30671 15723
L30695 15735
L30707 15735
L30731 15723
L30743 15711
L30755 15687
L30755 15639
L30766 15616
L30778 15604
L30802 15592
L30850 15592
L30874 15604
L30885 15616
L30897 15639
L30897 15687
L30885 15711
L30874 15723
L30850 15735
L30802 15735
L30778 15723
L30766 15711
L30755 15687
" />
</g>
<g style="fill:#840084; fill-opacity:0.0; 
stroke:#840084; stroke-width:35; stroke-opacity:1; 
stroke-linecap:round; stroke-linejoin:round;">
<path d="M4960 15010
L5056 15010
L5065 15105
L5056 15095
L5037 15086
L4989 15086
L4970 15095
L4960 15105
L4951 15124
L4951 15172
L4960 15191
L4970 15200
L4989 15210
L5037 15210
L5056 15200
L5065 15191
" />
<path d="M4865 15191
L4856 15200
L4865 15210
L4875 15200
L4865 15191
L4865 15210
" />
<path d="M4789 15010
L4665 15010
L4732 15086
L4703 15086
L4684 15095
L4675 15105
L4665 15124
L4665 15172
L4675 15191
L4684 15200
L4703 15210
L4760 15210
L4780 15200
L4789 15191
" />
<path d="M4608 15010
L4541 15210
L4475 15010
" />
<path d="M4275 15010
L4141 15010
L4275 15210
L4141 15210
" />
<path d="M3989 15200
L4008 15210
L4046 15210
L4065 15200
L4075 15181
L4075 15105
L4065 15086
L4046 15076
L4008 15076
L3989 15086
L3980 15105
L3980 15124
L4075 15143
" />
<path d="M3894 15076
L3894 15210
" />
<path d="M3894 15095
L3884 15086
L3865 15076
L3837 15076
L3818 15086
L3808 15105
L3808 15210
" />
<path d="M3637 15200
L3656 15210
L3694 15210
L3713 15200
L3722 15181
L3722 15105
L3713 15086
L3694 15076
L3656 15076
L3637 15086
L3627 15105
L3627 15124
L3722 15143
" />
<path d="M3541 15210
L3541 15076
" />
<path d="M3541 15114
L3532 15095
L3522 15086
L3503 15076
L3484 15076
" />
<path d="M37560 16210
L37656 16210
L37665 16305
L37656 16295
L37637 16286
L37589 16286
L37570 16295
L37560 16305
L37551 16324
L37551 16372
L37560 16391
L37570 16400
L37589 16410
L37637 16410
L37656 16400
L37665 16391
" />
<path d="M37465 16391
L37456 16400
L37465 16410
L37475 16400
L37465 16391
L37465 16410
" />
<path d="M37389 16210
L37265 16210
L37332 16286
L37303 16286
L37284 16295
L37275 16305
L37265 16324
L37265 16372
L37275 16391
L37284 16400
L37303 16410
L37360 16410
L37380 16400
L37389 16391
" />
<path d="M37208 16210
L37141 16410
L37075 16210
" />
<path d="M36875 16210
L36741 16210
L36875 16410
L36741 16410
" />
<path d="M36589 16400
L36608 16410
L36646 16410
L36665 16400
L36675 16381
L36675 16305
L36665 16286
L36646 16276
L36608 16276
L36589 16286
L36580 16305
L36580 16324
L36675 16343
" />
<path d="M36494 16276
L36494 16410
" />
<path d="M36494 16295
L36484 16286
L36465 16276
L36437 16276
L36418 16286
L36408 16305
L36408 16410
" />
<path d="M36237 16400
L36256 16410
L36294 16410
L36313 16400
L36322 16381
L36322 16305
L36313 16286
L36294 16276
L36256 16276
L36237 16286
L36227 16305
L36227 16324
L36322 16343
" />
<path d="M36141 16410
L36141 16276
" />
<path d="M36141 16314
L36132 16295
L36122 16286
L36103 16276
L36084 16276
" />
<path d="M15560 13710
L15656 13710
L15665 13805
L15656 13795
L15637 13786
L15589 13786
L15570 13795
L15560 13805
L15551 13824
L15551 13872
L15560 13891
L15570 13900
L15589 13910
L15637 13910
L15656 13900
L15665 13891
" />
<path d="M15465 13891
L15456 13900
L15465 13910
L15475 13900
L15465 13891
L15465 13910
" />
<path d="M15389 13710
L15265 13710
L15332 13786
L15303 13786
L15284 13795
L15275 13805
L15265 13824
L15265 13872
L15275 13891
L15284 13900
L15303 13910
L15360 13910
L15380 13900
L15389 13891
" />
<path d="M15208 13710
L15141 13910
L15075 13710
" />
<path d="M14875 13710
L14741 13710
L14875 13910
L14741 13910
" />
<path d="M14589 13900
L14608 13910
L14646 13910
L14665 13900
L14675 13881
L14675 13805
L14665 13786
L14646 13776
L14608 13776
L14589 13786
L14580 13805
L14580 13824
L14675 13843
" />
<path d="M14494 13776
L14494 13910
" />
<path d="M14494 13795
L14484 13786
L14465 13776
L14437 13776
L14418 13786
L14408 13805
L14408 13910
" />
<path d="M14237 13900
L14256 13910
L14294 13910
L14313 13900
L14322 13881
L14322 13805
L14313 13786
L14294 13776
L14256 13776
L14237 13786
L14227 13805
L14227 13824
L14322 13843
" />
<path d="M14141 13910
L14141 13776
" />
<path d="M14141 13814
L14132 13795
L14122 13786
L14103 13776
L14084 13776
" />
<path d="M14866 18136
L14866 18053
" />
<path d="M14997 18053
L14747 18053
L14747 18172
" />
<path d="M14997 18398
L14997 18255
" />
<path d="M14997 18326
L14747 18326
L14783 18303
L14807 18279
L14819 18255
" />
<path d="M8407 8732
L8526 8732
L8526 8482
" />
<path d="M8324 8732
L8324 8482
L8240 8661
L8157 8482
L8157 8732
" />
<path d="M8062 8482
L7907 8482
L7990 8578
L7955 8578
L7931 8589
L7919 8601
L7907 8625
L7907 8685
L7919 8708
L7931 8720
L7955 8732
L8026 8732
L8050 8720
L8062 8708
" />
<path d="M7681 8482
L7800 8482
L7812 8601
L7800 8589
L7776 8578
L7716 8578
L7693 8589
L7681 8601
L7669 8625
L7669 8685
L7681 8708
L7693 8720
L7716 8732
L7776 8732
L7800 8720
L7812 8708
" />
<path d="M7526 8589
L7550 8578
L7562 8566
L7574 8542
L7574 8530
L7562 8506
L7550 8494
L7526 8482
L7478 8482
L7455 8494
L7443 8506
L7431 8530
L7431 8542
L7443 8566
L7455 8578
L7478 8589
L7526 8589
L7550 8601
L7562 8613
L7574 8637
L7574 8685
L7562 8708
L7550 8720
L7526 8732
L7478 8732
L7455 8720
L7443 8708
L7431 8685
L7431 8637
L7443 8613
L7455 8601
L7478 8589
" />
</g>
<g style="fill:#008484; fill-opacity:0.0; 
stroke:#008484; stroke-width:35; stroke-opacity:1; 
stroke-linecap:round; stroke-linejoin:round;">
<path d="M32097 15378
L32097 15258
L31847 15258
" />
<path d="M32097 15592
L32097 15449
" />
<path d="M32097 15520
L31847 15520
L31883 15497
L31907 15473
L31919 15449
" />
</g>
<g style="fill:#840084; fill-opacity:0.0; 
stroke:#840084; stroke-width:35; stroke-opacity:1; 
stroke-linecap:round; stroke-linejoin:round;">
<path d="M15937 13210
L15937 13010
L15889 13010
L15860 13019
L15841 13038
L15832 13057
L15822 13095
L15822 13124
L15832 13162
L15841 13181
L15860 13200
L15889 13210
L15937 13210
" />
<path d="M15737 13210
L15737 13010
L15670 13153
L15603 13010
L15603 13210
" />
<path d="M15403 13019
L15422 13010
L15451 13010
L15480 13019
L15499 13038
L15508 13057
L15518 13095
L15518 13124
L15508 13162
L15499 13181
L15480 13200
L15451 13210
L15432 13210
L15403 13200
L15394 13191
L15394 13124
L15432 13124
" />
<path d="M15327 13010
L15203 13010
L15270 13086
L15241 13086
L15222 13095
L15213 13105
L15203 13124
L15203 13172
L15213 13191
L15222 13200
L15241 13210
L15299 13210
L15318 13200
L15327 13191
" />
<path d="M15032 13076
L15032 13210
" />
<path d="M15080 13000
L15127 13143
L15003 13143
" />
<path d="M14822 13210
L14937 13210
" />
<path d="M14880 13210
L14880 13010
L14899 13038
L14918 13057
L14937 13067
" />
<path d="M14641 13010
L14737 13010
L14746 13105
L14737 13095
L14718 13086
L14670 13086
L14651 13095
L14641 13105
L14632 13124
L14632 13172
L14641 13191
L14651 13200
L14670 13210
L14718 13210
L14737 13200
L14746 13191
" />
<path d="M14546 13010
L14546 13172
L14537 13191
L14527 13200
L14508 13210
L14470 13210
L14451 13200
L14441 13191
L14432 13172
L14432 13010
" />
<path d="M9597 6678
L9478 6594
" />
<path d="M9597 6535
L9347 6535
L9347 6630
L9359 6654
L9371 6666
L9395 6678
L9431 6678
L9455 6666
L9466 6654
L9478 6630
L9478 6535
" />
<path d="M9597 6916
L9597 6773
" />
<path d="M9597 6844
L9347 6844
L9383 6820
L9407 6797
L9419 6773
" />
<path d="M9597 10278
L9478 10194
" />
<path d="M9597 10135
L9347 10135
L9347 10230
L9359 10254
L9371 10266
L9395 10278
L9431 10278
L9455 10266
L9466 10254
L9478 10230
L9478 10135
" />
<path d="M9371 10373
L9359 10385
L9347 10408
L9347 10468
L9359 10492
L9371 10504
L9395 10516
L9419 10516
L9455 10504
L9597 10361
L9597 10516
" />
<path d="M8626 2432
L8709 2313
" />
<path d="M8769 2432
L8769 2182
L8674 2182
L8650 2194
L8638 2206
L8626 2230
L8626 2266
L8638 2289
L8650 2301
L8674 2313
L8769 2313
" />
<path d="M8543 2182
L8388 2182
L8471 2278
L8435 2278
L8412 2289
L8400 2301
L8388 2325
L8388 2385
L8400 2408
L8412 2420
L8435 2432
L8507 2432
L8531 2420
L8543 2408
" />
<path d="M4426 8732
L4509 8613
" />
<path d="M4569 8732
L4569 8482
L4474 8482
L4450 8494
L4438 8506
L4426 8530
L4426 8566
L4438 8589
L4450 8601
L4474 8613
L4569 8613
" />
<path d="M4212 8566
L4212 8732
" />
<path d="M4271 8470
L4331 8649
L4176 8649
" />
<path d="M4426 7232
L4509 7113
" />
<path d="M4569 7232
L4569 6982
L4474 6982
L4450 6994
L4438 7006
L4426 7030
L4426 7066
L4438 7089
L4450 7101
L4474 7113
L4569 7113
" />
<path d="M4200 6982
L4319 6982
L4331 7101
L4319 7089
L4295 7078
L4235 7078
L4212 7089
L4200 7101
L4188 7125
L4188 7185
L4200 7208
L4212 7220
L4235 7232
L4295 7232
L4319 7220
L4331 7208
" />
<path d="M16997 12278
L16878 12194
" />
<path d="M16997 12135
L16747 12135
L16747 12230
L16759 12254
L16771 12266
L16795 12278
L16831 12278
L16855 12266
L16866 12254
L16878 12230
L16878 12135
" />
<path d="M16747 12492
L16747 12444
L16759 12420
L16771 12408
L16807 12385
L16855 12373
L16950 12373
L16974 12385
L16985 12397
L16997 12420
L16997 12468
L16985 12492
L16974 12504
L16950 12516
L16890 12516
L16866 12504
L16855 12492
L16843 12468
L16843 12420
L16855 12397
L16866 12385
L16890 12373
" />
<path d="M8426 3332
L8509 3213
" />
<path d="M8569 3332
L8569 3082
L8474 3082
L8450 3094
L8438 3106
L8426 3130
L8426 3166
L8438 3189
L8450 3201
L8474 3213
L8569 3213
" />
<path d="M8343 3082
L8176 3082
L8283 3332
" />
<path d="M11426 3332
L11509 3213
" />
<path d="M11569 3332
L11569 3082
L11474 3082
L11450 3094
L11438 3106
L11426 3130
L11426 3166
L11438 3189
L11450 3201
L11474 3213
L11569 3213
" />
<path d="M11283 3189
L11307 3178
L11319 3166
L11331 3142
L11331 3130
L11319 3106
L11307 3094
L11283 3082
L11235 3082
L11212 3094
L11200 3106
L11188 3130
L11188 3142
L11200 3166
L11212 3178
L11235 3189
L11283 3189
L11307 3201
L11319 3213
L11331 3237
L11331 3285
L11319 3308
L11307 3320
L11283 3332
L11235 3332
L11212 3320
L11200 3308
L11188 3285
L11188 3237
L11200 3213
L11212 3201
L11235 3189
" />
<path d="M14426 3332
L14509 3213
" />
<path d="M14569 3332
L14569 3082
L14474 3082
L14450 3094
L14438 3106
L14426 3130
L14426 3166
L14438 3189
L14450 3201
L14474 3213
L14569 3213
" />
<path d="M14307 3332
L14259 3332
L14235 3320
L14224 3308
L14200 3273
L14188 3225
L14188 3130
L14200 3106
L14212 3094
L14235 3082
L14283 3082
L14307 3094
L14319 3106
L14331 3130
L14331 3189
L14319 3213
L14307 3225
L14283 3237
L14235 3237
L14212 3225
L14200 3213
L14188 3189
" />
<path d="M17545 3332
L17628 3213
" />
<path d="M17688 3332
L17688 3082
L17593 3082
L17569 3094
L17557 3106
L17545 3130
L17545 3166
L17557 3189
L17569 3201
L17593 3213
L17688 3213
" />
<path d="M17307 3332
L17450 3332
" />
<path d="M17378 3332
L17378 3082
L17402 3118
L17426 3142
L17450 3154
" />
<path d="M17152 3082
L17128 3082
L17105 3094
L17093 3106
L17081 3130
L17069 3178
L17069 3237
L17081 3285
L17093 3308
L17105 3320
L17128 3332
L17152 3332
L17176 3320
L17188 3308
L17200 3285
L17212 3237
L17212 3178
L17200 3130
L17188 3106
L17176 3094
L17152 3082
" />
</g>
<g style="fill:#008484; fill-opacity:0.0; 
stroke:#008484; stroke-width:35; stroke-opacity:1; 
stroke-linecap:round; stroke-linejoin:round;">
<path d="M37045 11332
L37128 11213
" />
<path d="M37188 11332
L37188 11082
L37093 11082
L37069 11094
L37057 11106
L37045 11130
L37045 11166
L37057 11189
L37069 11201
L37093 11213
L37188 11213
" />
<path d="M36807 11332
L36950 11332
" />
<path d="M36878 11332
L36878 11082
L36902 11118
L36926 11142
L36950 11154
" />
<path d="M36569 11332
L36712 11332
" />
<path d="M36640 11332
L36640 11082
L36664 11118
L36688 11142
L36712 11154
" />
<path d="M37045 9032
L37128 8913
" />
<path d="M37188 9032
L37188 8782
L37093 8782
L37069 8794
L37057 8806
L37045 8830
L37045 8866
L37057 8889
L37069 8901
L37093 8913
L37188 8913
" />
<path d="M36807 9032
L36950 9032
" />
<path d="M36878 9032
L36878 8782
L36902 8818
L36926 8842
L36950 8854
" />
<path d="M36712 8806
L36700 8794
L36676 8782
L36616 8782
L36593 8794
L36581 8806
L36569 8830
L36569 8854
L36581 8889
L36724 9032
L36569 9032
" />
<path d="M37045 12532
L37128 12413
" />
<path d="M37188 12532
L37188 12282
L37093 12282
L37069 12294
L37057 12306
L37045 12330
L37045 12366
L37057 12389
L37069 12401
L37093 12413
L37188 12413
" />
<path d="M36807 12532
L36950 12532
" />
<path d="M36878 12532
L36878 12282
L36902 12318
L36926 12342
L36950 12354
" />
<path d="M36724 12282
L36569 12282
L36652 12378
L36616 12378
L36593 12389
L36581 12401
L36569 12425
L36569 12485
L36581 12508
L36593 12520
L36616 12532
L36688 12532
L36712 12520
L36724 12508
" />
<path d="M37045 10132
L37128 10013
" />
<path d="M37188 10132
L37188 9882
L37093 9882
L37069 9894
L37057 9906
L37045 9930
L37045 9966
L37057 9989
L37069 10001
L37093 10013
L37188 10013
" />
<path d="M36807 10132
L36950 10132
" />
<path d="M36878 10132
L36878 9882
L36902 9918
L36926 9942
L36950 9954
" />
<path d="M36593 9966
L36593 10132
" />
<path d="M36652 9870
L36712 10049
L36557 10049
" />
<path d="M37045 13632
L37128 13513
" />
<path d="M37188 13632
L37188 13382
L37093 13382
L37069 13394
L37057 13406
L37045 13430
L37045 13466
L37057 13489
L37069 13501
L37093 13513
L37188 13513
" />
<path d="M36807 13632
L36950 13632
" />
<path d="M36878 13632
L36878 13382
L36902 13418
L36926 13442
L36950 13454
" />
<path d="M36581 13382
L36700 13382
L36712 13501
L36700 13489
L36676 13478
L36616 13478
L36593 13489
L36581 13501
L36569 13525
L36569 13585
L36581 13608
L36593 13620
L36616 13632
L36676 13632
L36700 13620
L36712 13608
" />
</g>
<g style="fill:#840084; fill-opacity:0.0; 
stroke:#840084; stroke-width:35; stroke-opacity:1; 
stroke-linecap:round; stroke-linejoin:round;">
<path d="M10897 6458
L10778 6375
" />
<path d="M10897 6316
L10647 6316
L10647 6411
L10659 6435
L10671 6447
L10695 6458
L10731 6458
L10755 6447
L10766 6435
L10778 6411
L10778 6316
" />
<path d="M10897 6697
L10897 6554
" />
<path d="M10897 6625
L10647 6625
L10683 6601
L10707 6578
L10719 6554
" />
<path d="M10647 6911
L10647 6863
L10659 6839
L10671 6828
L10707 6804
L10755 6792
L10850 6792
L10874 6804
L10885 6816
L10897 6839
L10897 6887
L10885 6911
L10874 6923
L10850 6935
L10790 6935
L10766 6923
L10755 6911
L10743 6887
L10743 6839
L10755 6816
L10766 6804
L10790 6792
" />
<path d="M16845 6132
L16928 6013
" />
<path d="M16988 6132
L16988 5882
L16893 5882
L16869 5894
L16857 5906
L16845 5930
L16845 5966
L16857 5989
L16869 6001
L16893 6013
L16988 6013
" />
<path d="M16607 6132
L16750 6132
" />
<path d="M16678 6132
L16678 5882
L16702 5918
L16726 5942
L16750 5954
" />
<path d="M16524 5882
L16357 5882
L16464 6132
" />
<path d="M13945 10932
L14028 10813
" />
<path d="M14088 10932
L14088 10682
L13993 10682
L13969 10694
L13957 10706
L13945 10730
L13945 10766
L13957 10789
L13969 10801
L13993 10813
L14088 10813
" />
<path d="M13707 10932
L13850 10932
" />
<path d="M13778 10932
L13778 10682
L13802 10718
L13826 10742
L13850 10754
" />
<path d="M13564 10789
L13588 10778
L13600 10766
L13612 10742
L13612 10730
L13600 10706
L13588 10694
L13564 10682
L13516 10682
L13493 10694
L13481 10706
L13469 10730
L13469 10742
L13481 10766
L13493 10778
L13516 10789
L13564 10789
L13588 10801
L13600 10813
L13612 10837
L13612 10885
L13600 10908
L13588 10920
L13564 10932
L13516 10932
L13493 10920
L13481 10908
L13469 10885
L13469 10837
L13481 10813
L13493 10801
L13516 10789
" />
<path d="M11945 10932
L12028 10813
" />
<path d="M12088 10932
L12088 10682
L11993 10682
L11969 10694
L11957 10706
L11945 10730
L11945 10766
L11957 10789
L11969 10801
L11993 10813
L12088 10813
" />
<path d="M11707 10932
L11850 10932
" />
<path d="M11778 10932
L11778 10682
L11802 10718
L11826 10742
L11850 10754
" />
<path d="M11588 10932
L11540 10932
L11516 10920
L11505 10908
L11481 10873
L11469 10825
L11469 10730
L11481 10706
L11493 10694
L11516 10682
L11564 10682
L11588 10694
L11600 10706
L11612 10730
L11612 10789
L11600 10813
L11588 10825
L11564 10837
L11516 10837
L11493 10825
L11481 10813
L11469 10789
" />
<path d="M10945 7932
L11028 7813
" />
<path d="M11088 7932
L11088 7682
L10993 7682
L10969 7694
L10957 7706
L10945 7730
L10945 7766
L10957 7789
L10969 7801
L10993 7813
L11088 7813
" />
<path d="M10850 7706
L10838 7694
L10814 7682
L10755 7682
L10731 7694
L10719 7706
L10707 7730
L10707 7754
L10719 7789
L10862 7932
L10707 7932
" />
<path d="M10552 7682
L10528 7682
L10505 7694
L10493 7706
L10481 7730
L10469 7778
L10469 7837
L10481 7885
L10493 7908
L10505 7920
L10528 7932
L10552 7932
L10576 7920
L10588 7908
L10600 7885
L10612 7837
L10612 7778
L10600 7730
L10588 7706
L10576 7694
L10552 7682
" />
<path d="M12945 6932
L13028 6813
" />
<path d="M13088 6932
L13088 6682
L12993 6682
L12969 6694
L12957 6706
L12945 6730
L12945 6766
L12957 6789
L12969 6801
L12993 6813
L13088 6813
" />
<path d="M12850 6706
L12838 6694
L12814 6682
L12755 6682
L12731 6694
L12719 6706
L12707 6730
L12707 6754
L12719 6789
L12862 6932
L12707 6932
" />
<path d="M12469 6932
L12612 6932
" />
<path d="M12540 6932
L12540 6682
L12564 6718
L12588 6742
L12612 6754
" />
<path d="M14945 7932
L15028 7813
" />
<path d="M15088 7932
L15088 7682
L14993 7682
L14969 7694
L14957 7706
L14945 7730
L14945 7766
L14957 7789
L14969 7801
L14993 7813
L15088 7813
" />
<path d="M14850 7706
L14838 7694
L14814 7682
L14755 7682
L14731 7694
L14719 7706
L14707 7730
L14707 7754
L14719 7789
L14862 7932
L14707 7932
" />
<path d="M14612 7706
L14600 7694
L14576 7682
L14516 7682
L14493 7694
L14481 7706
L14469 7730
L14469 7754
L14481 7789
L14624 7932
L14469 7932
" />
<path d="M12945 7932
L13028 7813
" />
<path d="M13088 7932
L13088 7682
L12993 7682
L12969 7694
L12957 7706
L12945 7730
L12945 7766
L12957 7789
L12969 7801
L12993 7813
L13088 7813
" />
<path d="M12850 7706
L12838 7694
L12814 7682
L12755 7682
L12731 7694
L12719 7706
L12707 7730
L12707 7754
L12719 7789
L12862 7932
L12707 7932
" />
<path d="M12624 7682
L12469 7682
L12552 7778
L12516 7778
L12493 7789
L12481 7801
L12469 7825
L12469 7885
L12481 7908
L12493 7920
L12516 7932
L12588 7932
L12612 7920
L12624 7908
" />
<path d="M23497 16858
L23378 16775
" />
<path d="M23497 16716
L23247 16716
L23247 16811
L23259 16835
L23271 16847
L23295 16858
L23331 16858
L23355 16847
L23366 16835
L23378 16811
L23378 16716
" />
<path d="M23271 16954
L23259 16966
L23247 16989
L23247 17049
L23259 17073
L23271 17085
L23295 17097
L23319 17097
L23355 17085
L23497 16942
L23497 17097
" />
<path d="M23331 17311
L23497 17311
" />
<path d="M23235 17251
L23414 17192
L23414 17347
" />
<path d="M20197 16858
L20078 16775
" />
<path d="M20197 16716
L19947 16716
L19947 16811
L19959 16835
L19971 16847
L19995 16858
L20031 16858
L20055 16847
L20066 16835
L20078 16811
L20078 16716
" />
<path d="M19971 16954
L19959 16966
L19947 16989
L19947 17049
L19959 17073
L19971 17085
L19995 17097
L20019 17097
L20055 17085
L20197 16942
L20197 17097
" />
<path d="M19947 17323
L19947 17204
L20066 17192
L20055 17204
L20043 17228
L20043 17287
L20055 17311
L20066 17323
L20090 17335
L20150 17335
L20174 17323
L20185 17311
L20197 17287
L20197 17228
L20185 17204
L20174 17192
" />
<path d="M28745 10132
L28828 10013
" />
<path d="M28888 10132
L28888 9882
L28793 9882
L28769 9894
L28757 9906
L28745 9930
L28745 9966
L28757 9989
L28769 10001
L28793 10013
L28888 10013
" />
<path d="M28650 9906
L28638 9894
L28614 9882
L28555 9882
L28531 9894
L28519 9906
L28507 9930
L28507 9954
L28519 9989
L28662 10132
L28507 10132
" />
<path d="M28293 9882
L28340 9882
L28364 9894
L28376 9906
L28400 9942
L28412 9989
L28412 10085
L28400 10108
L28388 10120
L28364 10132
L28316 10132
L28293 10120
L28281 10108
L28269 10085
L28269 10025
L28281 10001
L28293 9989
L28316 9978
L28364 9978
L28388 9989
L28400 10001
L28412 10025
" />
<path d="M30097 4958
L29978 4875
" />
<path d="M30097 4816
L29847 4816
L29847 4911
L29859 4935
L29871 4947
L29895 4958
L29931 4958
L29955 4947
L29966 4935
L29978 4911
L29978 4816
" />
<path d="M29871 5054
L29859 5066
L29847 5089
L29847 5149
L29859 5173
L29871 5185
L29895 5197
L29919 5197
L29955 5185
L30097 5042
L30097 5197
" />
<path d="M29847 5280
L29847 5447
L30097 5339
" />
<path d="M22195 18832
L22278 18713
" />
<path d="M22338 18832
L22338 18582
L22243 18582
L22219 18594
L22207 18606
L22195 18630
L22195 18666
L22207 18689
L22219 18701
L22243 18713
L22338 18713
" />
<path d="M22100 18606
L22088 18594
L22064 18582
L22005 18582
L21981 18594
L21969 18606
L21957 18630
L21957 18654
L21969 18689
L22112 18832
L21957 18832
" />
<path d="M21814 18689
L21838 18678
L21850 18666
L21862 18642
L21862 18630
L21850 18606
L21838 18594
L21814 18582
L21766 18582
L21743 18594
L21731 18606
L21719 18630
L21719 18642
L21731 18666
L21743 18678
L21766 18689
L21814 18689
L21838 18701
L21850 18713
L21862 18737
L21862 18785
L21850 18808
L21838 18820
L21814 18832
L21766 18832
L21743 18820
L21731 18808
L21719 18785
L21719 18737
L21731 18713
L21743 18701
L21766 18689
" />
</g>
<g style="fill:#008484; fill-opacity:0.0; 
stroke:#008484; stroke-width:35; stroke-opacity:1; 
stroke-linecap:round; stroke-linejoin:round;">
<path d="M30897 16758
L30778 16675
" />
<path d="M30897 16616
L30647 16616
L30647 16711
L30659 16735
L30671 16747
L30695 16758
L30731 16758
L30755 16747
L30766 16735
L30778 16711
L30778 16616
" />
<path d="M30671 16854
L30659 16866
L30647 16889
L30647 16949
L30659 16973
L30671 16985
L30695 16997
L30719 16997
L30755 16985
L30897 16842
L30897 16997
" />
<path d="M30897 17116
L30897 17163
L30885 17187
L30874 17199
L30838 17223
L30790 17235
L30695 17235
L30671 17223
L30659 17211
L30647 17187
L30647 17139
L30659 17116
L30671 17104
L30695 17092
L30755 17092
L30778 17104
L30790 17116
L30802 17139
L30802 17187
L30790 17211
L30778 17223
L30755 17235
" />
<path d="M32897 16758
L32778 16675
" />
<path d="M32897 16616
L32647 16616
L32647 16711
L32659 16735
L32671 16747
L32695 16758
L32731 16758
L32755 16747
L32766 16735
L32778 16711
L32778 16616
" />
<path d="M32647 16842
L32647 16997
L32743 16913
L32743 16949
L32755 16973
L32766 16985
L32790 16997
L32850 16997
L32874 16985
L32885 16973
L32897 16949
L32897 16878
L32885 16854
L32874 16842
" />
<path d="M32647 17151
L32647 17175
L32659 17199
L32671 17211
L32695 17223
L32743 17235
L32802 17235
L32850 17223
L32874 17211
L32885 17199
L32897 17175
L32897 17151
L32885 17128
L32874 17116
L32850 17104
L32802 17092
L32743 17092
L32695 17104
L32671 17116
L32659 17128
L32647 17151
" />
</g>
<g style="fill:#840084; fill-opacity:0.0; 
stroke:#840084; stroke-width:35; stroke-opacity:1; 
stroke-linecap:round; stroke-linejoin:round;">
<path d="M34745 16232
L34828 16113
" />
<path d="M34888 16232
L34888 15982
L34793 15982
L34769 15994
L34757 16006
L34745 16030
L34745 16066
L34757 16089
L34769 16101
L34793 16113
L34888 16113
" />
<path d="M34662 15982
L34507 15982
L34590 16078
L34555 16078
L34531 16089
L34519 16101
L34507 16125
L34507 16185
L34519 16208
L34531 16220
L34555 16232
L34626 16232
L34650 16220
L34662 16208
" />
<path d="M34269 16232
L34412 16232
" />
<path d="M34340 16232
L34340 15982
L34364 16018
L34388 16042
L34412 16054
" />
<path d="M34745 17732
L34828 17613
" />
<path d="M34888 17732
L34888 17482
L34793 17482
L34769 17494
L34757 17506
L34745 17530
L34745 17566
L34757 17589
L34769 17601
L34793 17613
L34888 17613
" />
<path d="M34662 17482
L34507 17482
L34590 17578
L34555 17578
L34531 17589
L34519 17601
L34507 17625
L34507 17685
L34519 17708
L34531 17720
L34555 17732
L34626 17732
L34650 17720
L34662 17708
" />
<path d="M34412 17506
L34400 17494
L34376 17482
L34316 17482
L34293 17494
L34281 17506
L34269 17530
L34269 17554
L34281 17589
L34424 17732
L34269 17732
" />
<path d="M4345 5732
L4428 5613
" />
<path d="M4488 5732
L4488 5482
L4393 5482
L4369 5494
L4357 5506
L4345 5530
L4345 5566
L4357 5589
L4369 5601
L4393 5613
L4488 5613
" />
<path d="M4262 5482
L4107 5482
L4190 5578
L4155 5578
L4131 5589
L4119 5601
L4107 5625
L4107 5685
L4119 5708
L4131 5720
L4155 5732
L4226 5732
L4250 5720
L4262 5708
" />
<path d="M4024 5482
L3869 5482
L3952 5578
L3916 5578
L3893 5589
L3881 5601
L3869 5625
L3869 5685
L3881 5708
L3893 5720
L3916 5732
L3988 5732
L4012 5720
L4024 5708
" />
<path d="M20297 4158
L20178 4075
" />
<path d="M20297 4016
L20047 4016
L20047 4111
L20059 4135
L20071 4147
L20095 4158
L20131 4158
L20155 4147
L20166 4135
L20178 4111
L20178 4016
" />
<path d="M20047 4242
L20047 4397
L20143 4313
L20143 4349
L20155 4373
L20166 4385
L20190 4397
L20250 4397
L20274 4385
L20285 4373
L20297 4349
L20297 4278
L20285 4254
L20274 4242
" />
<path d="M20131 4611
L20297 4611
" />
<path d="M20035 4551
L20214 4492
L20214 4647
" />
</g>
<g style="fill:#008484; fill-opacity:0.0; 
stroke:#008484; stroke-width:35; stroke-opacity:1; 
stroke-linecap:round; stroke-linejoin:round;">
<path d="M24897 15958
L24778 15875
" />
<path d="M24897 15816
L24647 15816
L24647 15911
L24659 15935
L24671 15947
L24695 15958
L24731 15958
L24755 15947
L24766 15935
L24778 15911
L24778 15816
" />
<path d="M24647 16042
L24647 16197
L24743 16113
L24743 16149
L24755 16173
L24766 16185
L24790 16197
L24850 16197
L24874 16185
L24885 16173
L24897 16149
L24897 16078
L24885 16054
L24874 16042
" />
<path d="M24647 16423
L24647 16304
L24766 16292
L24755 16304
L24743 16328
L24743 16387
L24755 16411
L24766 16423
L24790 16435
L24850 16435
L24874 16423
L24885 16411
L24897 16387
L24897 16328
L24885 16304
L24874 16292
" />
</g>
<g style="fill:#840084; fill-opacity:0.0; 
stroke:#840084; stroke-width:35; stroke-opacity:1; 
stroke-linecap:round; stroke-linejoin:round;">
<path d="M26197 4958
L26078 4875
" />
<path d="M26197 4816
L25947 4816
L25947 4911
L25959 4935
L25971 4947
L25995 4958
L26031 4958
L26055 4947
L26066 4935
L26078 4911
L26078 4816
" />
<path d="M25947 5042
L25947 5197
L26043 5113
L26043 5149
L26055 5173
L26066 5185
L26090 5197
L26150 5197
L26174 5185
L26185 5173
L26197 5149
L26197 5078
L26185 5054
L26174 5042
" />
<path d="M25947 5411
L25947 5363
L25959 5339
L25971 5328
L26007 5304
L26055 5292
L26150 5292
L26174 5304
L26185 5316
L26197 5339
L26197 5387
L26185 5411
L26174 5423
L26150 5435
L26090 5435
L26066 5423
L26055 5411
L26043 5387
L26043 5339
L26055 5316
L26066 5304
L26090 5292
" />
<path d="M32647 18411
L32897 18494
L32647 18578
" />
<path d="M32897 18804
L32778 18720
" />
<path d="M32897 18661
L32647 18661
L32647 18756
L32659 18780
L32671 18792
L32695 18804
L32731 18804
L32755 18792
L32766 18780
L32778 18756
L32778 18661
" />
<path d="M31393 18582
L31309 18832
L31226 18582
" />
<path d="M31000 18832
L31083 18713
" />
<path d="M31143 18832
L31143 18582
L31047 18582
L31024 18594
L31012 18606
L31000 18630
L31000 18666
L31012 18689
L31024 18701
L31047 18713
L31143 18713
" />
</g>
<g style="fill:#008484; fill-opacity:0.0; 
stroke:#008484; stroke-width:35; stroke-opacity:1; 
stroke-linecap:round; stroke-linejoin:round;">
<path d="M26097 19758
L25978 19675
" />
<path d="M26097 19616
L25847 19616
L25847 19711
L25859 19735
L25871 19747
L25895 19758
L25931 19758
L25955 19747
L25966 19735
L25978 19711
L25978 19616
" />
<path d="M25847 19842
L25847 19997
L25943 19913
L25943 19949
L25955 19973
L25966 19985
L25990 19997
L26050 19997
L26074 19985
L26085 19973
L26097 19949
L26097 19878
L26085 19854
L26074 19842
" />
<path d="M25847 20080
L25847 20247
L26097 20139
" />
</g>
<g style="fill:#840084; fill-opacity:0.0; 
stroke:#840084; stroke-width:59.0551; stroke-opacity:1; 
stroke-linecap:round; stroke-linejoin:round;">
<path d="M21269 13019
L21587 13019
L21625 13038
L21644 13057
L21662 13094
L21662 13169
L21644 13207
L21625 13225
L21587 13244
L21269 13244
" />
<path d="M21662 13638
L21662 13413
" />
<path d="M21662 13525
L21269 13525
L21325 13488
L21362 13450
L21381 13413
" />
<path d="M22619 11885
L22619 12147
L23012 11979
" />
<path d="M22750 12466
L23012 12466
" />
<path d="M22600 12372
L22881 12279
L22881 12522
" />
<path d="M23012 12672
L22619 12672
" />
<path d="M22806 12672
L22806 12897
" />
<path d="M23012 12897
L22619 12897
" />
<path d="M22975 13310
L22994 13291
L23012 13235
L23012 13197
L22994 13141
L22956 13104
L22919 13085
L22844 13066
L22787 13066
L22712 13085
L22675 13104
L22637 13141
L22619 13197
L22619 13235
L22637 13291
L22656 13310
" />
<path d="M22619 13666
L22619 13479
L22806 13460
L22787 13479
L22769 13516
L22769 13610
L22787 13647
L22806 13666
L22844 13685
L22937 13685
L22975 13666
L22994 13647
L23012 13610
L23012 13516
L22994 13479
L22975 13460
" />
<path d="M23012 13872
L23012 13947
L22994 13985
L22975 14003
L22919 14041
L22844 14060
L22694 14060
L22656 14041
L22637 14022
L22619 13985
L22619 13910
L22637 13872
L22656 13853
L22694 13835
L22787 13835
L22825 13853
L22844 13872
L22862 13910
L22862 13985
L22844 14022
L22825 14041
L22787 14060
" />
<path d="M22619 14416
L22619 14228
L22806 14210
L22787 14228
L22769 14266
L22769 14360
L22787 14397
L22806 14416
L22844 14435
L22937 14435
L22975 14416
L22994 14397
L23012 14360
L23012 14266
L22994 14228
L22975 14210
" />
<path d="M21269 7519
L21587 7519
L21625 7538
L21644 7557
L21662 7594
L21662 7669
L21644 7707
L21625 7725
L21587 7744
L21269 7744
" />
<path d="M21269 7894
L21269 8138
L21419 8007
L21419 8063
L21437 8100
L21456 8119
L21494 8138
L21587 8138
L21625 8119
L21644 8100
L21662 8063
L21662 7950
L21644 7913
L21625 7894
" />
<path d="M22619 6385
L22619 6647
L23012 6479
" />
<path d="M22750 6966
L23012 6966
" />
<path d="M22600 6872
L22881 6779
L22881 7022
" />
<path d="M23012 7172
L22619 7172
" />
<path d="M22806 7172
L22806 7397
" />
<path d="M23012 7397
L22619 7397
" />
<path d="M22975 7810
L22994 7791
L23012 7735
L23012 7697
L22994 7641
L22956 7604
L22919 7585
L22844 7566
L22787 7566
L22712 7585
L22675 7604
L22637 7641
L22619 7697
L22619 7735
L22637 7791
L22656 7810
" />
<path d="M22619 8166
L22619 7979
L22806 7960
L22787 7979
L22769 8016
L22769 8110
L22787 8147
L22806 8166
L22844 8185
L22937 8185
L22975 8166
L22994 8147
L23012 8110
L23012 8016
L22994 7979
L22975 7960
" />
<path d="M23012 8372
L23012 8447
L22994 8485
L22975 8503
L22919 8541
L22844 8560
L22694 8560
L22656 8541
L22637 8522
L22619 8485
L22619 8410
L22637 8372
L22656 8353
L22694 8335
L22787 8335
L22825 8353
L22844 8372
L22862 8410
L22862 8485
L22844 8522
L22825 8541
L22787 8560
" />
<path d="M22619 8916
L22619 8728
L22806 8710
L22787 8728
L22769 8766
L22769 8860
L22787 8897
L22806 8916
L22844 8935
L22937 8935
L22975 8916
L22994 8897
L23012 8860
L23012 8766
L22994 8728
L22975 8710
" />
</g>
<g style="fill:#840084; fill-opacity:0.0; 
stroke:#840084; stroke-width:35.0394; stroke-opacity:1; 
stroke-linecap:round; stroke-linejoin:round;">
<path d="M22180 17132
L22180 16882
" />
<path d="M22060 17132
L22060 16882
L21918 17132
L21918 16882
" />
<path d="M21810 17061
L21691 17061
" />
<path d="M21834 17132
L21751 16882
L21668 17132
" />
<path d="M21596 16906
L21584 16894
L21560 16882
L21501 16882
L21477 16894
L21465 16906
L21453 16930
L21453 16954
L21465 16989
L21608 17132
L21453 17132
" />
<path d="M21215 17132
L21358 17132
" />
<path d="M21287 17132
L21287 16882
L21310 16918
L21334 16942
L21358 16954
" />
<path d="M21096 17132
L21049 17132
L21025 17120
L21013 17108
L20989 17073
L20977 17025
L20977 16930
L20989 16906
L21001 16894
L21025 16882
L21072 16882
L21096 16894
L21108 16906
L21120 16930
L21120 16989
L21108 17013
L21096 17025
L21072 17037
L21025 17037
L21001 17025
L20989 17013
L20977 16989
" />
</g>
<g style="fill:#840084; fill-opacity:0.0; 
stroke:#840084; stroke-width:31; stroke-opacity:1; 
stroke-linecap:round; stroke-linejoin:round;">
<circle cx="6646.8" cy="14982.7" r="62.626" /> 
<path d="M6984 14019
L6584 14019
" />
<path d="M6984 15044
L6584 15044
" />
<path d="M6584 14019
L6584 15044
" />
<path d="M6984 15044
L6984 14019
" />
<circle cx="7846.8" cy="18982.7" r="62.626" /> 
<path d="M8184 18019
L7784 18019
" />
<path d="M8184 19044
L7784 19044
" />
<path d="M7784 18019
L7784 19044
" />
<path d="M8184 19044
L8184 18019
" />
</g>
<g style="fill:#840084; fill-opacity:0.0; 
stroke:#840084; stroke-width:26; stroke-opacity:1; 
stroke-linecap:round; stroke-linejoin:round;">
<path d="M4124 13494
L3869 13494
" />
<path d="M3869 13494
L3869 12943
" />
<path d="M4124 12943
L3869 12943
" />
<path d="M4124 13494
L4124 12943
" />
<path d="M4704 13494
L4448 13494
" />
<path d="M4448 13494
L4448 12943
" />
<path d="M4704 12943
L4448 12943
" />
<path d="M4704 13494
L4704 12943
" />
<path d="M4362 13415
L4206 13415
" />
<path d="M4206 13415
L4206 13023
" />
<path d="M4362 13023
L4206 13023
" />
<path d="M4362 13415
L4362 13023
" />
</g>
<g style="fill:#840084; fill-opacity:0.0; 
stroke:#840084; stroke-width:60; stroke-opacity:1; 
stroke-linecap:round; stroke-linejoin:round;">
<path d="M4445 12969
L4123 12969
" />
<path d="M4445 13469
L4123 13469
" />
</g>
<g style="fill:#840084; fill-opacity:0.0; 
stroke:#840084; stroke-width:20; stroke-opacity:1; 
stroke-linecap:round; stroke-linejoin:round;">
<path d="M5060 12832
L3508 12832
" />
<path d="M3508 12832
L3508 13606
" />
<path d="M3508 13606
L5060 13606
" />
<path d="M5060 13606
L5060 12832
" />
</g>
<g style="fill:#840084; fill-opacity:0.0; 
stroke:#840084; stroke-width:26; stroke-opacity:1; 
stroke-linecap:round; stroke-linejoin:round;">
<path d="M37044 16744
L37299 16744
" />
<path d="M37299 16744
L37299 17295
" />
<path d="M37044 17295
L37299 17295
" />
<path d="M37044 16744
L37044 17295
" />
<path d="M36464 16744
L36720 16744
" />
<path d="M36720 16744
L36720 17295
" />
<path d="M36464 17295
L36720 17295
" />
<path d="M36464 16744
L36464 17295
" />
<path d="M36806 16823
L36962 16823
" />
<path d="M36962 16823
L36962 17215
" />
<path d="M36806 17215
L36962 17215
" />
<path d="M36806 16823
L36806 17215
" />
</g>
<g style="fill:#840084; fill-opacity:0.0; 
stroke:#840084; stroke-width:60; stroke-opacity:1; 
stroke-linecap:round; stroke-linejoin:round;">
<path d="M36723 17269
L37045 17269
" />
<path d="M36723 16769
L37045 16769
" />
</g>
<g style="fill:#840084; fill-opacity:0.0; 
stroke:#840084; stroke-width:20; stroke-opacity:1; 
stroke-linecap:round; stroke-linejoin:round;">
<path d="M36108 17406
L37660 17406
" />
<path d="M37660 17406
L37660 16632
" />
<path d="M37660 16632
L36108 16632
" />
<path d="M36108 16632
L36108 17406
" />
</g>
<g style="fill:#840084; fill-opacity:0.0; 
stroke:#840084; stroke-width:26; stroke-opacity:1; 
stroke-linecap:round; stroke-linejoin:round;">
<path d="M30944 9244
L31199 9244
" />
<path d="M31199 9244
L31199 9795
" />
<path d="M30944 9795
L31199 9795
" />
<path d="M30944 9244
L30944 9795
" />
<path d="M30364 9244
L30620 9244
" />
<path d="M30620 9244
L30620 9795
" />
<path d="M30364 9795
L30620 9795
" />
<path d="M30364 9244
L30364 9795
" />
<path d="M30706 9323
L30862 9323
" />
<path d="M30862 9323
L30862 9715
" />
<path d="M30706 9715
L30862 9715
" />
<path d="M30706 9323
L30706 9715
" />
</g>
<g style="fill:#840084; fill-opacity:0.0; 
stroke:#840084; stroke-width:60; stroke-opacity:1; 
stroke-linecap:round; stroke-linejoin:round;">
<path d="M30623 9769
L30945 9769
" />
<path d="M30623 9269
L30945 9269
" />
</g>
<g style="fill:#840084; fill-opacity:0.0; 
stroke:#840084; stroke-width:20; stroke-opacity:1; 
stroke-linecap:round; stroke-linejoin:round;">
<path d="M30008 9906
L31560 9906
" />
<path d="M31560 9906
L31560 9132
" />
<path d="M31560 9132
L30008 9132
" />
<path d="M30008 9132
L30008 9906
" />
</g>
<g style="fill:#840084; fill-opacity:0.0; 
stroke:#840084; stroke-width:26; stroke-opacity:1; 
stroke-linecap:round; stroke-linejoin:round;">
<path d="M26124 9794
L25869 9794
" />
<path d="M25869 9794
L25869 9243
" />
<path d="M26124 9243
L25869 9243
" />
<path d="M26124 9794
L26124 9243
" />
<path d="M26704 9794
L26448 9794
" />
<path d="M26448 9794
L26448 9243
" />
<path d="M26704 9243
L26448 9243
" />
<path d="M26704 9794
L26704 9243
" />
<path d="M26362 9715
L26206 9715
" />
<path d="M26206 9715
L26206 9323
" />
<path d="M26362 9323
L26206 9323
" />
<path d="M26362 9715
L26362 9323
" />
</g>
<g style="fill:#840084; fill-opacity:0.0; 
stroke:#840084; stroke-width:60; stroke-opacity:1; 
stroke-linecap:round; stroke-linejoin:round;">
<path d="M26445 9269
L26123 9269
" />
<path d="M26445 9769
L26123 9769
" />
</g>
<g style="fill:#840084; fill-opacity:0.0; 
stroke:#840084; stroke-width:20; stroke-opacity:1; 
stroke-linecap:round; stroke-linejoin:round;">
<path d="M27060 9132
L25508 9132
" />
<path d="M25508 9132
L25508 9906
" />
<path d="M25508 9906
L27060 9906
" />
<path d="M27060 9906
L27060 9132
" />
</g>
<g style="fill:#840084; fill-opacity:0.0; 
stroke:#840084; stroke-width:26; stroke-opacity:1; 
stroke-linecap:round; stroke-linejoin:round;">
<path d="M14724 16794
L14469 16794
" />
<path d="M14469 16794
L14469 16243
" />
<path d="M14724 16243
L14469 16243
" />
<path d="M14724 16794
L14724 16243
" />
<path d="M15304 16794
L15048 16794
" />
<path d="M15048 16794
L15048 16243
" />
<path d="M15304 16243
L15048 16243
" />
<path d="M15304 16794
L15304 16243
" />
<path d="M14962 16715
L14806 16715
" />
<path d="M14806 16715
L14806 16323
" />
<path d="M14962 16323
L14806 16323
" />
<path d="M14962 16715
L14962 16323
" />
</g>
<g style="fill:#840084; fill-opacity:0.0; 
stroke:#840084; stroke-width:60; stroke-opacity:1; 
stroke-linecap:round; stroke-linejoin:round;">
<path d="M15045 16269
L14723 16269
" />
<path d="M15045 16769
L14723 16769
" />
</g>
<g style="fill:#840084; fill-opacity:0.0; 
stroke:#840084; stroke-width:20; stroke-opacity:1; 
stroke-linecap:round; stroke-linejoin:round;">
<path d="M15660 16132
L14108 16132
" />
<path d="M14108 16132
L14108 16906
" />
<path d="M14108 16906
L15660 16906
" />
<path d="M15660 16906
L15660 16132
" />
</g>
<g style="fill:#840084; fill-opacity:0.0; 
stroke:#840084; stroke-width:26; stroke-opacity:1; 
stroke-linecap:round; stroke-linejoin:round;">
<path d="M14724 15994
L14469 15994
" />
<path d="M14469 15994
L14469 15443
" />
<path d="M14724 15443
L14469 15443
" />
<path d="M14724 15994
L14724 15443
" />
<path d="M15304 15994
L15048 15994
" />
<path d="M15048 15994
L15048 15443
" />
<path d="M15304 15443
L15048 15443
" />
<path d="M15304 15994
L15304 15443
" />
<path d="M14962 15915
L14806 15915
" />
<path d="M14806 15915
L14806 15523
" />
<path d="M14962 15523
L14806 15523
" />
<path d="M14962 15915
L14962 15523
" />
</g>
<g style="fill:#840084; fill-opacity:0.0; 
stroke:#840084; stroke-width:60; stroke-opacity:1; 
stroke-linecap:round; stroke-linejoin:round;">
<path d="M15045 15469
L14723 15469
" />
<path d="M15045 15969
L14723 15969
" />
</g>
<g style="fill:#840084; fill-opacity:0.0; 
stroke:#840084; stroke-width:20; stroke-opacity:1; 
stroke-linecap:round; stroke-linejoin:round;">
<path d="M15660 15332
L14108 15332
" />
<path d="M14108 15332
L14108 16106
" />
<path d="M14108 16106
L15660 16106
" />
<path d="M15660 16106
L15660 15332
" />
</g>
<g style="fill:#840084; fill-opacity:0.0; 
stroke:#840084; stroke-width:26; stroke-opacity:1; 
stroke-linecap:round; stroke-linejoin:round;">
<path d="M31709 12459
L31709 12204
" />
<path d="M31709 12204
L32260 12204
" />
<path d="M32260 12459
L32260 12204
" />
<path d="M31709 12459
L32260 12459
" />
<path d="M31709 13039
L31709 12783
" />
<path d="M31709 12783
L32260 12783
" />
<path d="M32260 13039
L32260 12783
" />
<path d="M31709 13039
L32260 13039
" />
<path d="M31788 12697
L31788 12541
" />
<path d="M31788 12541
L32180 12541
" />
<path d="M32180 12697
L32180 12541
" />
<path d="M31788 12697
L32180 12697
" />
</g>
<g style="fill:#840084; fill-opacity:0.0; 
stroke:#840084; stroke-width:60; stroke-opacity:1; 
stroke-linecap:round; stroke-linejoin:round;">
<path d="M32234 12780
L32234 12458
" />
<path d="M31734 12780
L31734 12458
" />
</g>
<g style="fill:#840084; fill-opacity:0.0; 
stroke:#840084; stroke-width:20; stroke-opacity:1; 
stroke-linecap:round; stroke-linejoin:round;">
<path d="M32371 13395
L32371 11843
" />
<path d="M32371 11843
L31597 11843
" />
<path d="M31597 11843
L31597 13395
" />
<path d="M31597 13395
L32371 13395
" />
</g>
<g style="fill:#840084; fill-opacity:0.0; 
stroke:#840084; stroke-width:26; stroke-opacity:1; 
stroke-linecap:round; stroke-linejoin:round;">
<path d="M28824 17194
L28569 17194
" />
<path d="M28569 17194
L28569 16643
" />
<path d="M28824 16643
L28569 16643
" />
<path d="M28824 17194
L28824 16643
" />
<path d="M29404 17194
L29148 17194
" />
<path d="M29148 17194
L29148 16643
" />
<path d="M29404 16643
L29148 16643
" />
<path d="M29404 17194
L29404 16643
" />
<path d="M29062 17115
L28906 17115
" />
<path d="M28906 17115
L28906 16723
" />
<path d="M29062 16723
L28906 16723
" />
<path d="M29062 17115
L29062 16723
" />
</g>
<g style="fill:#840084; fill-opacity:0.0; 
stroke:#840084; stroke-width:60; stroke-opacity:1; 
stroke-linecap:round; stroke-linejoin:round;">
<path d="M29145 16669
L28823 16669
" />
<path d="M29145 17169
L28823 17169
" />
</g>
<g style="fill:#840084; fill-opacity:0.0; 
stroke:#840084; stroke-width:20; stroke-opacity:1; 
stroke-linecap:round; stroke-linejoin:round;">
<path d="M29760 16532
L28208 16532
" />
<path d="M28208 16532
L28208 17306
" />
<path d="M28208 17306
L29760 17306
" />
<path d="M29760 17306
L29760 16532
" />
</g>
<g style="fill:#840084; fill-opacity:0.0; 
stroke:#840084; stroke-width:59.0551; stroke-opacity:1; 
stroke-linecap:round; stroke-linejoin:round;">
<path d="M34184 8269
L33234 8269
" />
<path d="M33234 8269
L33234 14169
" />
<path d="M33234 14169
L34184 14169
" />
</g>
<g style="fill:#840084; fill-opacity:0.0; 
stroke:#840084; stroke-width:31; stroke-opacity:1; 
stroke-linecap:round; stroke-linejoin:round;">
<circle cx="4146.8" cy="14782.7" r="62.626" /> 
<path d="M4484 13819
L4084 13819
" />
<path d="M4484 14844
L4084 14844
" />
<path d="M4084 13819
L4084 14844
" />
<path d="M4484 14844
L4484 13819
" />
<circle cx="37022.8" cy="15056.7" r="62.626" /> 
<path d="M36684 16019
L37084 16019
" />
<path d="M36684 14994
L37084 14994
" />
<path d="M37084 16019
L37084 14994
" />
<path d="M36684 14994
L36684 16019
" />
<circle cx="14746.8" cy="15082.7" r="62.626" /> 
<path d="M15084 14119
L14684 14119
" />
<path d="M15084 15144
L14684 15144
" />
<path d="M14684 14119
L14684 15144
" />
<path d="M15084 15144
L15084 14119
" />
</g>
<g style="fill:#840084; fill-opacity:0.0; 
stroke:#840084; stroke-width:50; stroke-opacity:1; 
stroke-linecap:round; stroke-linejoin:round;">
<path d="M14234 18869
L15534 18869
" />
<path d="M14234 17569
L15534 17569
" />
<path d="M14234 17319
L15534 17319
" />
<path d="M15534 17319
L15534 19119
" />
<path d="M15534 19119
L14234 19119
" />
<path d="M14234 19119
L14234 17319
" />
</g>
<g style="fill:#840084; fill-opacity:0.0; 
stroke:#840084; stroke-width:26; stroke-opacity:1; 
stroke-linecap:round; stroke-linejoin:round;">
<path d="M8804 9649
L8664 9649
" />
<path d="M8664 9649
L8664 9249
" />
<path d="M8804 9249
L8664 9249
" />
<path d="M8804 9649
L8804 9249
" />
<path d="M8304 9649
L8164 9649
" />
<path d="M8164 9649
L8164 9249
" />
<path d="M8304 9249
L8164 9249
" />
<path d="M8304 9649
L8304 9249
" />
<path d="M7804 9649
L7664 9649
" />
<path d="M7664 9649
L7664 9249
" />
<path d="M7804 9249
L7664 9249
" />
<path d="M7804 9649
L7804 9249
" />
<path d="M7304 9649
L7164 9649
" />
<path d="M7164 9649
L7164 9249
" />
<path d="M7304 9249
L7164 9249
" />
<path d="M7304 9649
L7304 9249
" />
<path d="M8804 7789
L8664 7789
" />
<path d="M8664 7789
L8664 7389
" />
<path d="M8804 7389
L8664 7389
" />
<path d="M8804 7789
L8804 7389
" />
<path d="M8304 7789
L8164 7789
" />
<path d="M8164 7789
L8164 7389
" />
<path d="M8304 7389
L8164 7389
" />
<path d="M8304 7789
L8304 7389
" />
<path d="M7804 7789
L7664 7789
" />
<path d="M7664 7789
L7664 7389
" />
<path d="M7804 7389
L7664 7389
" />
<path d="M7804 7789
L7804 7389
" />
<path d="M7304 7789
L7164 7789
" />
<path d="M7164 7789
L7164 7389
" />
<path d="M7304 7389
L7164 7389
" />
<path d="M7304 7789
L7304 7389
" />
</g>
<g style="fill:#840084; fill-opacity:0.0; 
stroke:#840084; stroke-width:60; stroke-opacity:1; 
stroke-linecap:round; stroke-linejoin:round;">
<path d="M8913 9228
L7055 9228
" />
<path d="M7055 9228
L7055 7810
" />
<path d="M7055 7810
L8913 7810
" />
<path d="M8913 7810
L8913 9228
" />
</g>
<g style="fill:#840084; fill-opacity:0.0; 
stroke:#840084; stroke-width:40; stroke-opacity:1; 
stroke-linecap:round; stroke-linejoin:round;">
<circle cx="8693.8" cy="8909.69" r="39.598" /> 
</g>
<g style="fill:#840084; fill-opacity:0.0; 
stroke:#840084; stroke-width:59.0551; stroke-opacity:1; 
stroke-linecap:round; stroke-linejoin:round;">
<path d="M13884 18369
L6884 18369
" />
<path d="M13884 4069
L6884 4069
" />
<path d="M6884.8 4069.69 A1000 1000 0.0 0 0 5884.8 5069.69 " />
<path d="M14884.8 5069.69 A1000 1000 0.0 0 0 13884.8 4069.69 " />
<path d="M5884.8 17369.7 A1000 1000 0.0 0 0 6884.8 18369.7 " />
<path d="M13884.8 18369.7 A1000 1000 0.0 0 0 14884.8 17369.7 " />
<path d="M5884 5069
L5884 17319
" />
<path d="M14884 5069
L14884 17369
" />
</g>
<g style="fill:#840084; fill-opacity:0.0; 
stroke:#840084; stroke-width:31; stroke-opacity:1; 
stroke-linecap:round; stroke-linejoin:round;">
<circle cx="15322.8" cy="11856.7" r="62.626" /> 
<path d="M14984 12819
L15384 12819
" />
<path d="M14984 11794
L15384 11794
" />
<path d="M15384 12819
L15384 11794
" />
<path d="M14984 11794
L14984 12819
" />
</g>
<g style="fill:#840084; fill-opacity:0.0; 
stroke:#840084; stroke-width:26; stroke-opacity:1; 
stroke-linecap:round; stroke-linejoin:round;">
<path d="M9209 7559
L9209 7304
" />
<path d="M9209 7304
L9760 7304
" />
<path d="M9760 7559
L9760 7304
" />
<path d="M9209 7559
L9760 7559
" />
<path d="M9209 8139
L9209 7883
" />
<path d="M9209 7883
L9760 7883
" />
<path d="M9760 8139
L9760 7883
" />
<path d="M9209 8139
L9760 8139
" />
<path d="M9288 7797
L9288 7641
" />
<path d="M9288 7641
L9680 7641
" />
<path d="M9680 7797
L9680 7641
" />
<path d="M9288 7797
L9680 7797
" />
</g>
<g style="fill:#840084; fill-opacity:0.0; 
stroke:#840084; stroke-width:60; stroke-opacity:1; 
stroke-linecap:round; stroke-linejoin:round;">
<path d="M9734 7880
L9734 7558
" />
<path d="M9234 7880
L9234 7558
" />
</g>
<g style="fill:#840084; fill-opacity:0.0; 
stroke:#840084; stroke-width:20; stroke-opacity:1; 
stroke-linecap:round; stroke-linejoin:round;">
<path d="M9871 8495
L9871 6943
" />
<path d="M9871 6943
L9097 6943
" />
<path d="M9097 6943
L9097 8495
" />
<path d="M9097 8495
L9871 8495
" />
</g>
<g style="fill:#840084; fill-opacity:0.0; 
stroke:#840084; stroke-width:26; stroke-opacity:1; 
stroke-linecap:round; stroke-linejoin:round;">
<path d="M9209 9159
L9209 8904
" />
<path d="M9209 8904
L9760 8904
" />
<path d="M9760 9159
L9760 8904
" />
<path d="M9209 9159
L9760 9159
" />
<path d="M9209 9739
L9209 9483
" />
<path d="M9209 9483
L9760 9483
" />
<path d="M9760 9739
L9760 9483
" />
<path d="M9209 9739
L9760 9739
" />
<path d="M9288 9397
L9288 9241
" />
<path d="M9288 9241
L9680 9241
" />
<path d="M9680 9397
L9680 9241
" />
<path d="M9288 9397
L9680 9397
" />
</g>
<g style="fill:#840084; fill-opacity:0.0; 
stroke:#840084; stroke-width:60; stroke-opacity:1; 
stroke-linecap:round; stroke-linejoin:round;">
<path d="M9734 9480
L9734 9158
" />
<path d="M9234 9480
L9234 9158
" />
</g>
<g style="fill:#840084; fill-opacity:0.0; 
stroke:#840084; stroke-width:20; stroke-opacity:1; 
stroke-linecap:round; stroke-linejoin:round;">
<path d="M9871 10095
L9871 8543
" />
<path d="M9871 8543
L9097 8543
" />
<path d="M9097 8543
L9097 10095
" />
<path d="M9097 10095
L9871 10095
" />
</g>
<g style="fill:#840084; fill-opacity:0.0; 
stroke:#840084; stroke-width:26; stroke-opacity:1; 
stroke-linecap:round; stroke-linejoin:round;">
<path d="M8744 1444
L8999 1444
" />
<path d="M8999 1444
L8999 1995
" />
<path d="M8744 1995
L8999 1995
" />
<path d="M8744 1444
L8744 1995
" />
<path d="M8164 1444
L8420 1444
" />
<path d="M8420 1444
L8420 1995
" />
<path d="M8164 1995
L8420 1995
" />
<path d="M8164 1444
L8164 1995
" />
<path d="M8506 1523
L8662 1523
" />
<path d="M8662 1523
L8662 1915
" />
<path d="M8506 1915
L8662 1915
" />
<path d="M8506 1523
L8506 1915
" />
</g>
<g style="fill:#840084; fill-opacity:0.0; 
stroke:#840084; stroke-width:60; stroke-opacity:1; 
stroke-linecap:round; stroke-linejoin:round;">
<path d="M8423 1969
L8745 1969
" />
<path d="M8423 1469
L8745 1469
" />
</g>
<g style="fill:#840084; fill-opacity:0.0; 
stroke:#840084; stroke-width:20; stroke-opacity:1; 
stroke-linecap:round; stroke-linejoin:round;">
<path d="M7808 2106
L9360 2106
" />
<path d="M9360 2106
L9360 1332
" />
<path d="M9360 1332
L7808 1332
" />
<path d="M7808 1332
L7808 2106
" />
</g>
<g style="fill:#840084; fill-opacity:0.0; 
stroke:#840084; stroke-width:26; stroke-opacity:1; 
stroke-linecap:round; stroke-linejoin:round;">
<path d="M4544 7744
L4799 7744
" />
<path d="M4799 7744
L4799 8295
" />
<path d="M4544 8295
L4799 8295
" />
<path d="M4544 7744
L4544 8295
" />
<path d="M3964 7744
L4220 7744
" />
<path d="M4220 7744
L4220 8295
" />
<path d="M3964 8295
L4220 8295
" />
<path d="M3964 7744
L3964 8295
" />
<path d="M4306 7823
L4462 7823
" />
<path d="M4462 7823
L4462 8215
" />
<path d="M4306 8215
L4462 8215
" />
<path d="M4306 7823
L4306 8215
" />
</g>
<g style="fill:#840084; fill-opacity:0.0; 
stroke:#840084; stroke-width:60; stroke-opacity:1; 
stroke-linecap:round; stroke-linejoin:round;">
<path d="M4223 8269
L4545 8269
" />
<path d="M4223 7769
L4545 7769
" />
</g>
<g style="fill:#840084; fill-opacity:0.0; 
stroke:#840084; stroke-width:20; stroke-opacity:1; 
stroke-linecap:round; stroke-linejoin:round;">
<path d="M3608 8406
L5160 8406
" />
<path d="M5160 8406
L5160 7632
" />
<path d="M5160 7632
L3608 7632
" />
<path d="M3608 7632
L3608 8406
" />
</g>
<g style="fill:#840084; fill-opacity:0.0; 
stroke:#840084; stroke-width:26; stroke-opacity:1; 
stroke-linecap:round; stroke-linejoin:round;">
<path d="M4544 6244
L4799 6244
" />
<path d="M4799 6244
L4799 6795
" />
<path d="M4544 6795
L4799 6795
" />
<path d="M4544 6244
L4544 6795
" />
<path d="M3964 6244
L4220 6244
" />
<path d="M4220 6244
L4220 6795
" />
<path d="M3964 6795
L4220 6795
" />
<path d="M3964 6244
L3964 6795
" />
<path d="M4306 6323
L4462 6323
" />
<path d="M4462 6323
L4462 6715
" />
<path d="M4306 6715
L4462 6715
" />
<path d="M4306 6323
L4306 6715
" />
</g>
<g style="fill:#840084; fill-opacity:0.0; 
stroke:#840084; stroke-width:60; stroke-opacity:1; 
stroke-linecap:round; stroke-linejoin:round;">
<path d="M4223 6769
L4545 6769
" />
<path d="M4223 6269
L4545 6269
" />
</g>
<g style="fill:#840084; fill-opacity:0.0; 
stroke:#840084; stroke-width:20; stroke-opacity:1; 
stroke-linecap:round; stroke-linejoin:round;">
<path d="M3608 6906
L5160 6906
" />
<path d="M5160 6906
L5160 6132
" />
<path d="M5160 6132
L3608 6132
" />
<path d="M3608 6132
L3608 6906
" />
</g>
<g style="fill:#840084; fill-opacity:0.0; 
stroke:#840084; stroke-width:26; stroke-opacity:1; 
stroke-linecap:round; stroke-linejoin:round;">
<path d="M8224 4044
L7969 4044
" />
<path d="M7969 4044
L7969 3493
" />
<path d="M8224 3493
L7969 3493
" />
<path d="M8224 4044
L8224 3493
" />
<path d="M8804 4044
L8548 4044
" />
<path d="M8548 4044
L8548 3493
" />
<path d="M8804 3493
L8548 3493
" />
<path d="M8804 4044
L8804 3493
" />
<path d="M8462 3965
L8306 3965
" />
<path d="M8306 3965
L8306 3573
" />
<path d="M8462 3573
L8306 3573
" />
<path d="M8462 3965
L8462 3573
" />
</g>
<g style="fill:#840084; fill-opacity:0.0; 
stroke:#840084; stroke-width:60; stroke-opacity:1; 
stroke-linecap:round; stroke-linejoin:round;">
<path d="M8545 3519
L8223 3519
" />
<path d="M8545 4019
L8223 4019
" />
</g>
<g style="fill:#840084; fill-opacity:0.0; 
stroke:#840084; stroke-width:20; stroke-opacity:1; 
stroke-linecap:round; stroke-linejoin:round;">
<path d="M9160 3382
L7608 3382
" />
<path d="M7608 3382
L7608 4156
" />
<path d="M7608 4156
L9160 4156
" />
<path d="M9160 4156
L9160 3382
" />
</g>
<g style="fill:#840084; fill-opacity:0.0; 
stroke:#840084; stroke-width:26; stroke-opacity:1; 
stroke-linecap:round; stroke-linejoin:round;">
<path d="M11224 4044
L10969 4044
" />
<path d="M10969 4044
L10969 3493
" />
<path d="M11224 3493
L10969 3493
" />
<path d="M11224 4044
L11224 3493
" />
<path d="M11804 4044
L11548 4044
" />
<path d="M11548 4044
L11548 3493
" />
<path d="M11804 3493
L11548 3493
" />
<path d="M11804 4044
L11804 3493
" />
<path d="M11462 3965
L11306 3965
" />
<path d="M11306 3965
L11306 3573
" />
<path d="M11462 3573
L11306 3573
" />
<path d="M11462 3965
L11462 3573
" />
</g>
<g style="fill:#840084; fill-opacity:0.0; 
stroke:#840084; stroke-width:60; stroke-opacity:1; 
stroke-linecap:round; stroke-linejoin:round;">
<path d="M11545 3519
L11223 3519
" />
<path d="M11545 4019
L11223 4019
" />
</g>
<g style="fill:#840084; fill-opacity:0.0; 
stroke:#840084; stroke-width:20; stroke-opacity:1; 
stroke-linecap:round; stroke-linejoin:round;">
<path d="M12160 3382
L10608 3382
" />
<path d="M10608 3382
L10608 4156
" />
<path d="M10608 4156
L12160 4156
" />
<path d="M12160 4156
L12160 3382
" />
</g>
<g style="fill:#840084; fill-opacity:0.0; 
stroke:#840084; stroke-width:26; stroke-opacity:1; 
stroke-linecap:round; stroke-linejoin:round;">
<path d="M14224 4044
L13969 4044
" />
<path d="M13969 4044
L13969 3493
" />
<path d="M14224 3493
L13969 3493
" />
<path d="M14224 4044
L14224 3493
" />
<path d="M14804 4044
L14548 4044
" />
<path d="M14548 4044
L14548 3493
" />
<path d="M14804 3493
L14548 3493
" />
<path d="M14804 4044
L14804 3493
" />
<path d="M14462 3965
L14306 3965
" />
<path d="M14306 3965
L14306 3573
" />
<path d="M14462 3573
L14306 3573
" />
<path d="M14462 3965
L14462 3573
" />
</g>
<g style="fill:#840084; fill-opacity:0.0; 
stroke:#840084; stroke-width:60; stroke-opacity:1; 
stroke-linecap:round; stroke-linejoin:round;">
<path d="M14545 3519
L14223 3519
" />
<path d="M14545 4019
L14223 4019
" />
</g>
<g style="fill:#840084; fill-opacity:0.0; 
stroke:#840084; stroke-width:20; stroke-opacity:1; 
stroke-linecap:round; stroke-linejoin:round;">
<path d="M15160 3382
L13608 3382
" />
<path d="M13608 3382
L13608 4156
" />
<path d="M13608 4156
L15160 4156
" />
<path d="M15160 4156
L15160 3382
" />
</g>
<g style="fill:#840084; fill-opacity:0.0; 
stroke:#840084; stroke-width:26; stroke-opacity:1; 
stroke-linecap:round; stroke-linejoin:round;">
<path d="M17224 4044
L16969 4044
" />
<path d="M16969 4044
L16969 3493
" />
<path d="M17224 3493
L16969 3493
" />
<path d="M17224 4044
L17224 3493
" />
<path d="M17804 4044
L17548 4044
" />
<path d="M17548 4044
L17548 3493
" />
<path d="M17804 3493
L17548 3493
" />
<path d="M17804 4044
L17804 3493
" />
<path d="M17462 3965
L17306 3965
" />
<path d="M17306 3965
L17306 3573
" />
<path d="M17462 3573
L17306 3573
" />
<path d="M17462 3965
L17462 3573
" />
</g>
<g style="fill:#840084; fill-opacity:0.0; 
stroke:#840084; stroke-width:60; stroke-opacity:1; 
stroke-linecap:round; stroke-linejoin:round;">
<path d="M17545 3519
L17223 3519
" />
<path d="M17545 4019
L17223 4019
" />
</g>
<g style="fill:#840084; fill-opacity:0.0; 
stroke:#840084; stroke-width:20; stroke-opacity:1; 
stroke-linecap:round; stroke-linejoin:round;">
<path d="M18160 3382
L16608 3382
" />
<path d="M16608 3382
L16608 4156
" />
<path d="M16608 4156
L18160 4156
" />
<path d="M18160 4156
L18160 3382
" />
</g>
<g style="fill:#840084; fill-opacity:0.0; 
stroke:#840084; stroke-width:26; stroke-opacity:1; 
stroke-linecap:round; stroke-linejoin:round;">
<path d="M11659 6779
L11659 7034
" />
<path d="M11659 7034
L11108 7034
" />
<path d="M11108 6779
L11108 7034
" />
<path d="M11659 6779
L11108 6779
" />
<path d="M11659 6199
L11659 6455
" />
<path d="M11659 6455
L11108 6455
" />
<path d="M11108 6199
L11108 6455
" />
<path d="M11659 6199
L11108 6199
" />
<path d="M11580 6541
L11580 6697
" />
<path d="M11580 6697
L11188 6697
" />
<path d="M11188 6541
L11188 6697
" />
<path d="M11580 6541
L11188 6541
" />
</g>
<g style="fill:#840084; fill-opacity:0.0; 
stroke:#840084; stroke-width:60; stroke-opacity:1; 
stroke-linecap:round; stroke-linejoin:round;">
<path d="M11134 6458
L11134 6780
" />
<path d="M11634 6458
L11634 6780
" />
</g>
<g style="fill:#840084; fill-opacity:0.0; 
stroke:#840084; stroke-width:20; stroke-opacity:1; 
stroke-linecap:round; stroke-linejoin:round;">
<path d="M10997 5843
L10997 7395
" />
<path d="M10997 7395
L11771 7395
" />
<path d="M11771 7395
L11771 5843
" />
<path d="M11771 5843
L10997 5843
" />
</g>
<g style="fill:#840084; fill-opacity:0.0; 
stroke:#840084; stroke-width:26; stroke-opacity:1; 
stroke-linecap:round; stroke-linejoin:round;">
<path d="M16844 5144
L17099 5144
" />
<path d="M17099 5144
L17099 5695
" />
<path d="M16844 5695
L17099 5695
" />
<path d="M16844 5144
L16844 5695
" />
<path d="M16264 5144
L16520 5144
" />
<path d="M16520 5144
L16520 5695
" />
<path d="M16264 5695
L16520 5695
" />
<path d="M16264 5144
L16264 5695
" />
<path d="M16606 5223
L16762 5223
" />
<path d="M16762 5223
L16762 5615
" />
<path d="M16606 5615
L16762 5615
" />
<path d="M16606 5223
L16606 5615
" />
</g>
<g style="fill:#840084; fill-opacity:0.0; 
stroke:#840084; stroke-width:60; stroke-opacity:1; 
stroke-linecap:round; stroke-linejoin:round;">
<path d="M16523 5669
L16845 5669
" />
<path d="M16523 5169
L16845 5169
" />
</g>
<g style="fill:#840084; fill-opacity:0.0; 
stroke:#840084; stroke-width:20; stroke-opacity:1; 
stroke-linecap:round; stroke-linejoin:round;">
<path d="M15908 5806
L17460 5806
" />
<path d="M17460 5806
L17460 5032
" />
<path d="M17460 5032
L15908 5032
" />
<path d="M15908 5032
L15908 5806
" />
</g>
<g style="fill:#840084; fill-opacity:0.0; 
stroke:#840084; stroke-width:26; stroke-opacity:1; 
stroke-linecap:round; stroke-linejoin:round;">
<path d="M13944 9944
L14199 9944
" />
<path d="M14199 9944
L14199 10495
" />
<path d="M13944 10495
L14199 10495
" />
<path d="M13944 9944
L13944 10495
" />
<path d="M13364 9944
L13620 9944
" />
<path d="M13620 9944
L13620 10495
" />
<path d="M13364 10495
L13620 10495
" />
<path d="M13364 9944
L13364 10495
" />
<path d="M13706 10023
L13862 10023
" />
<path d="M13862 10023
L13862 10415
" />
<path d="M13706 10415
L13862 10415
" />
<path d="M13706 10023
L13706 10415
" />
</g>
<g style="fill:#840084; fill-opacity:0.0; 
stroke:#840084; stroke-width:60; stroke-opacity:1; 
stroke-linecap:round; stroke-linejoin:round;">
<path d="M13623 10469
L13945 10469
" />
<path d="M13623 9969
L13945 9969
" />
</g>
<g style="fill:#840084; fill-opacity:0.0; 
stroke:#840084; stroke-width:20; stroke-opacity:1; 
stroke-linecap:round; stroke-linejoin:round;">
<path d="M13008 10606
L14560 10606
" />
<path d="M14560 10606
L14560 9832
" />
<path d="M14560 9832
L13008 9832
" />
<path d="M13008 9832
L13008 10606
" />
</g>
<g style="fill:#840084; fill-opacity:0.0; 
stroke:#840084; stroke-width:26; stroke-opacity:1; 
stroke-linecap:round; stroke-linejoin:round;">
<path d="M11944 9944
L12199 9944
" />
<path d="M12199 9944
L12199 10495
" />
<path d="M11944 10495
L12199 10495
" />
<path d="M11944 9944
L11944 10495
" />
<path d="M11364 9944
L11620 9944
" />
<path d="M11620 9944
L11620 10495
" />
<path d="M11364 10495
L11620 10495
" />
<path d="M11364 9944
L11364 10495
" />
<path d="M11706 10023
L11862 10023
" />
<path d="M11862 10023
L11862 10415
" />
<path d="M11706 10415
L11862 10415
" />
<path d="M11706 10023
L11706 10415
" />
</g>
<g style="fill:#840084; fill-opacity:0.0; 
stroke:#840084; stroke-width:60; stroke-opacity:1; 
stroke-linecap:round; stroke-linejoin:round;">
<path d="M11623 10469
L11945 10469
" />
<path d="M11623 9969
L11945 9969
" />
</g>
<g style="fill:#840084; fill-opacity:0.0; 
stroke:#840084; stroke-width:20; stroke-opacity:1; 
stroke-linecap:round; stroke-linejoin:round;">
<path d="M11008 10606
L12560 10606
" />
<path d="M12560 10606
L12560 9832
" />
<path d="M12560 9832
L11008 9832
" />
<path d="M11008 9832
L11008 10606
" />
</g>
<g style="fill:#840084; fill-opacity:0.0; 
stroke:#840084; stroke-width:26; stroke-opacity:1; 
stroke-linecap:round; stroke-linejoin:round;">
<path d="M10944 8144
L11199 8144
" />
<path d="M11199 8144
L11199 8695
" />
<path d="M10944 8695
L11199 8695
" />
<path d="M10944 8144
L10944 8695
" />
<path d="M10364 8144
L10620 8144
" />
<path d="M10620 8144
L10620 8695
" />
<path d="M10364 8695
L10620 8695
" />
<path d="M10364 8144
L10364 8695
" />
<path d="M10706 8223
L10862 8223
" />
<path d="M10862 8223
L10862 8615
" />
<path d="M10706 8615
L10862 8615
" />
<path d="M10706 8223
L10706 8615
" />
</g>
<g style="fill:#840084; fill-opacity:0.0; 
stroke:#840084; stroke-width:60; stroke-opacity:1; 
stroke-linecap:round; stroke-linejoin:round;">
<path d="M10623 8669
L10945 8669
" />
<path d="M10623 8169
L10945 8169
" />
</g>
<g style="fill:#840084; fill-opacity:0.0; 
stroke:#840084; stroke-width:20; stroke-opacity:1; 
stroke-linecap:round; stroke-linejoin:round;">
<path d="M10008 8806
L11560 8806
" />
<path d="M11560 8806
L11560 8032
" />
<path d="M11560 8032
L10008 8032
" />
<path d="M10008 8032
L10008 8806
" />
</g>
<g style="fill:#840084; fill-opacity:0.0; 
stroke:#840084; stroke-width:26; stroke-opacity:1; 
stroke-linecap:round; stroke-linejoin:round;">
<path d="M12944 5944
L13199 5944
" />
<path d="M13199 5944
L13199 6495
" />
<path d="M12944 6495
L13199 6495
" />
<path d="M12944 5944
L12944 6495
" />
<path d="M12364 5944
L12620 5944
" />
<path d="M12620 5944
L12620 6495
" />
<path d="M12364 6495
L12620 6495
" />
<path d="M12364 5944
L12364 6495
" />
<path d="M12706 6023
L12862 6023
" />
<path d="M12862 6023
L12862 6415
" />
<path d="M12706 6415
L12862 6415
" />
<path d="M12706 6023
L12706 6415
" />
</g>
<g style="fill:#840084; fill-opacity:0.0; 
stroke:#840084; stroke-width:60; stroke-opacity:1; 
stroke-linecap:round; stroke-linejoin:round;">
<path d="M12623 6469
L12945 6469
" />
<path d="M12623 5969
L12945 5969
" />
</g>
<g style="fill:#840084; fill-opacity:0.0; 
stroke:#840084; stroke-width:20; stroke-opacity:1; 
stroke-linecap:round; stroke-linejoin:round;">
<path d="M12008 6606
L13560 6606
" />
<path d="M13560 6606
L13560 5832
" />
<path d="M13560 5832
L12008 5832
" />
<path d="M12008 5832
L12008 6606
" />
</g>
<g style="fill:#840084; fill-opacity:0.0; 
stroke:#840084; stroke-width:26; stroke-opacity:1; 
stroke-linecap:round; stroke-linejoin:round;">
<path d="M14944 8144
L15199 8144
" />
<path d="M15199 8144
L15199 8695
" />
<path d="M14944 8695
L15199 8695
" />
<path d="M14944 8144
L14944 8695
" />
<path d="M14364 8144
L14620 8144
" />
<path d="M14620 8144
L14620 8695
" />
<path d="M14364 8695
L14620 8695
" />
<path d="M14364 8144
L14364 8695
" />
<path d="M14706 8223
L14862 8223
" />
<path d="M14862 8223
L14862 8615
" />
<path d="M14706 8615
L14862 8615
" />
<path d="M14706 8223
L14706 8615
" />
</g>
<g style="fill:#840084; fill-opacity:0.0; 
stroke:#840084; stroke-width:60; stroke-opacity:1; 
stroke-linecap:round; stroke-linejoin:round;">
<path d="M14623 8669
L14945 8669
" />
<path d="M14623 8169
L14945 8169
" />
</g>
<g style="fill:#840084; fill-opacity:0.0; 
stroke:#840084; stroke-width:20; stroke-opacity:1; 
stroke-linecap:round; stroke-linejoin:round;">
<path d="M14008 8806
L15560 8806
" />
<path d="M15560 8806
L15560 8032
" />
<path d="M15560 8032
L14008 8032
" />
<path d="M14008 8032
L14008 8806
" />
</g>
<g style="fill:#840084; fill-opacity:0.0; 
stroke:#840084; stroke-width:26; stroke-opacity:1; 
stroke-linecap:round; stroke-linejoin:round;">
<path d="M12944 8144
L13199 8144
" />
<path d="M13199 8144
L13199 8695
" />
<path d="M12944 8695
L13199 8695
" />
<path d="M12944 8144
L12944 8695
" />
<path d="M12364 8144
L12620 8144
" />
<path d="M12620 8144
L12620 8695
" />
<path d="M12364 8695
L12620 8695
" />
<path d="M12364 8144
L12364 8695
" />
<path d="M12706 8223
L12862 8223
" />
<path d="M12862 8223
L12862 8615
" />
<path d="M12706 8615
L12862 8615
" />
<path d="M12706 8223
L12706 8615
" />
</g>
<g style="fill:#840084; fill-opacity:0.0; 
stroke:#840084; stroke-width:60; stroke-opacity:1; 
stroke-linecap:round; stroke-linejoin:round;">
<path d="M12623 8669
L12945 8669
" />
<path d="M12623 8169
L12945 8169
" />
</g>
<g style="fill:#840084; fill-opacity:0.0; 
stroke:#840084; stroke-width:20; stroke-opacity:1; 
stroke-linecap:round; stroke-linejoin:round;">
<path d="M12008 8806
L13560 8806
" />
<path d="M13560 8806
L13560 8032
" />
<path d="M13560 8032
L12008 8032
" />
<path d="M12008 8032
L12008 8806
" />
</g>
<g style="fill:#840084; fill-opacity:0.0; 
stroke:#840084; stroke-width:26; stroke-opacity:1; 
stroke-linecap:round; stroke-linejoin:round;">
<path d="M28694 9244
L28949 9244
" />
<path d="M28949 9244
L28949 9795
" />
<path d="M28694 9795
L28949 9795
" />
<path d="M28694 9244
L28694 9795
" />
<path d="M28114 9244
L28370 9244
" />
<path d="M28370 9244
L28370 9795
" />
<path d="M28114 9795
L28370 9795
" />
<path d="M28114 9244
L28114 9795
" />
<path d="M28456 9323
L28612 9323
" />
<path d="M28612 9323
L28612 9715
" />
<path d="M28456 9715
L28612 9715
" />
<path d="M28456 9323
L28456 9715
" />
</g>
<g style="fill:#840084; fill-opacity:0.0; 
stroke:#840084; stroke-width:60; stroke-opacity:1; 
stroke-linecap:round; stroke-linejoin:round;">
<path d="M28373 9769
L28695 9769
" />
<path d="M28373 9269
L28695 9269
" />
</g>
<g style="fill:#840084; fill-opacity:0.0; 
stroke:#840084; stroke-width:20; stroke-opacity:1; 
stroke-linecap:round; stroke-linejoin:round;">
<path d="M27758 9906
L29310 9906
" />
<path d="M29310 9906
L29310 9132
" />
<path d="M29310 9132
L27758 9132
" />
<path d="M27758 9132
L27758 9906
" />
</g>
<g style="fill:#840084; fill-opacity:0.0; 
stroke:#840084; stroke-width:26; stroke-opacity:1; 
stroke-linecap:round; stroke-linejoin:round;">
<path d="M30309 4959
L30309 4704
" />
<path d="M30309 4704
L30860 4704
" />
<path d="M30860 4959
L30860 4704
" />
<path d="M30309 4959
L30860 4959
" />
<path d="M30309 5539
L30309 5283
" />
<path d="M30309 5283
L30860 5283
" />
<path d="M30860 5539
L30860 5283
" />
<path d="M30309 5539
L30860 5539
" />
<path d="M30388 5197
L30388 5041
" />
<path d="M30388 5041
L30780 5041
" />
<path d="M30780 5197
L30780 5041
" />
<path d="M30388 5197
L30780 5197
" />
</g>
<g style="fill:#840084; fill-opacity:0.0; 
stroke:#840084; stroke-width:60; stroke-opacity:1; 
stroke-linecap:round; stroke-linejoin:round;">
<path d="M30834 5280
L30834 4958
" />
<path d="M30334 5280
L30334 4958
" />
</g>
<g style="fill:#840084; fill-opacity:0.0; 
stroke:#840084; stroke-width:20; stroke-opacity:1; 
stroke-linecap:round; stroke-linejoin:round;">
<path d="M30971 5895
L30971 4343
" />
<path d="M30971 4343
L30197 4343
" />
<path d="M30197 4343
L30197 5895
" />
<path d="M30197 5895
L30971 5895
" />
</g>
<g style="fill:#840084; fill-opacity:0.0; 
stroke:#840084; stroke-width:26; stroke-opacity:1; 
stroke-linecap:round; stroke-linejoin:round;">
<path d="M31109 16759
L31109 16504
" />
<path d="M31109 16504
L31660 16504
" />
<path d="M31660 16759
L31660 16504
" />
<path d="M31109 16759
L31660 16759
" />
<path d="M31109 17339
L31109 17083
" />
<path d="M31109 17083
L31660 17083
" />
<path d="M31660 17339
L31660 17083
" />
<path d="M31109 17339
L31660 17339
" />
<path d="M31188 16997
L31188 16841
" />
<path d="M31188 16841
L31580 16841
" />
<path d="M31580 16997
L31580 16841
" />
<path d="M31188 16997
L31580 16997
" />
</g>
<g style="fill:#840084; fill-opacity:0.0; 
stroke:#840084; stroke-width:60; stroke-opacity:1; 
stroke-linecap:round; stroke-linejoin:round;">
<path d="M31634 17080
L31634 16758
" />
<path d="M31134 17080
L31134 16758
" />
</g>
<g style="fill:#840084; fill-opacity:0.0; 
stroke:#840084; stroke-width:20; stroke-opacity:1; 
stroke-linecap:round; stroke-linejoin:round;">
<path d="M31771 17695
L31771 16143
" />
<path d="M31771 16143
L30997 16143
" />
<path d="M30997 16143
L30997 17695
" />
<path d="M30997 17695
L31771 17695
" />
</g>
<g style="fill:#840084; fill-opacity:0.0; 
stroke:#840084; stroke-width:26; stroke-opacity:1; 
stroke-linecap:round; stroke-linejoin:round;">
<path d="M32459 17079
L32459 17334
" />
<path d="M32459 17334
L31908 17334
" />
<path d="M31908 17079
L31908 17334
" />
<path d="M32459 17079
L31908 17079
" />
<path d="M32459 16499
L32459 16755
" />
<path d="M32459 16755
L31908 16755
" />
<path d="M31908 16499
L31908 16755
" />
<path d="M32459 16499
L31908 16499
" />
<path d="M32380 16841
L32380 16997
" />
<path d="M32380 16997
L31988 16997
" />
<path d="M31988 16841
L31988 16997
" />
<path d="M32380 16841
L31988 16841
" />
</g>
<g style="fill:#840084; fill-opacity:0.0; 
stroke:#840084; stroke-width:60; stroke-opacity:1; 
stroke-linecap:round; stroke-linejoin:round;">
<path d="M31934 16758
L31934 17080
" />
<path d="M32434 16758
L32434 17080
" />
</g>
<g style="fill:#840084; fill-opacity:0.0; 
stroke:#840084; stroke-width:20; stroke-opacity:1; 
stroke-linecap:round; stroke-linejoin:round;">
<path d="M31797 16143
L31797 17695
" />
<path d="M31797 17695
L32571 17695
" />
<path d="M32571 17695
L32571 16143
" />
<path d="M32571 16143
L31797 16143
" />
</g>
<g style="fill:#840084; fill-opacity:0.0; 
stroke:#840084; stroke-width:26; stroke-opacity:1; 
stroke-linecap:round; stroke-linejoin:round;">
<path d="M34424 15794
L34169 15794
" />
<path d="M34169 15794
L34169 15243
" />
<path d="M34424 15243
L34169 15243
" />
<path d="M34424 15794
L34424 15243
" />
<path d="M35004 15794
L34748 15794
" />
<path d="M34748 15794
L34748 15243
" />
<path d="M35004 15243
L34748 15243
" />
<path d="M35004 15794
L35004 15243
" />
<path d="M34662 15715
L34506 15715
" />
<path d="M34506 15715
L34506 15323
" />
<path d="M34662 15323
L34506 15323
" />
<path d="M34662 15715
L34662 15323
" />
</g>
<g style="fill:#840084; fill-opacity:0.0; 
stroke:#840084; stroke-width:60; stroke-opacity:1; 
stroke-linecap:round; stroke-linejoin:round;">
<path d="M34745 15269
L34423 15269
" />
<path d="M34745 15769
L34423 15769
" />
</g>
<g style="fill:#840084; fill-opacity:0.0; 
stroke:#840084; stroke-width:20; stroke-opacity:1; 
stroke-linecap:round; stroke-linejoin:round;">
<path d="M35360 15132
L33808 15132
" />
<path d="M33808 15132
L33808 15906
" />
<path d="M33808 15906
L35360 15906
" />
<path d="M35360 15906
L35360 15132
" />
</g>
<g style="fill:#840084; fill-opacity:0.0; 
stroke:#840084; stroke-width:26; stroke-opacity:1; 
stroke-linecap:round; stroke-linejoin:round;">
<path d="M34424 17294
L34169 17294
" />
<path d="M34169 17294
L34169 16743
" />
<path d="M34424 16743
L34169 16743
" />
<path d="M34424 17294
L34424 16743
" />
<path d="M35004 17294
L34748 17294
" />
<path d="M34748 17294
L34748 16743
" />
<path d="M35004 16743
L34748 16743
" />
<path d="M35004 17294
L35004 16743
" />
<path d="M34662 17215
L34506 17215
" />
<path d="M34506 17215
L34506 16823
" />
<path d="M34662 16823
L34506 16823
" />
<path d="M34662 17215
L34662 16823
" />
</g>
<g style="fill:#840084; fill-opacity:0.0; 
stroke:#840084; stroke-width:60; stroke-opacity:1; 
stroke-linecap:round; stroke-linejoin:round;">
<path d="M34745 16769
L34423 16769
" />
<path d="M34745 17269
L34423 17269
" />
</g>
<g style="fill:#840084; fill-opacity:0.0; 
stroke:#840084; stroke-width:20; stroke-opacity:1; 
stroke-linecap:round; stroke-linejoin:round;">
<path d="M35360 16632
L33808 16632
" />
<path d="M33808 16632
L33808 17406
" />
<path d="M33808 17406
L35360 17406
" />
<path d="M35360 17406
L35360 16632
" />
</g>
<g style="fill:#840084; fill-opacity:0.0; 
stroke:#840084; stroke-width:26; stroke-opacity:1; 
stroke-linecap:round; stroke-linejoin:round;">
<path d="M4544 4744
L4799 4744
" />
<path d="M4799 4744
L4799 5295
" />
<path d="M4544 5295
L4799 5295
" />
<path d="M4544 4744
L4544 5295
" />
<path d="M3964 4744
L4220 4744
" />
<path d="M4220 4744
L4220 5295
" />
<path d="M3964 5295
L4220 5295
" />
<path d="M3964 4744
L3964 5295
" />
<path d="M4306 4823
L4462 4823
" />
<path d="M4462 4823
L4462 5215
" />
<path d="M4306 5215
L4462 5215
" />
<path d="M4306 4823
L4306 5215
" />
</g>
<g style="fill:#840084; fill-opacity:0.0; 
stroke:#840084; stroke-width:60; stroke-opacity:1; 
stroke-linecap:round; stroke-linejoin:round;">
<path d="M4223 5269
L4545 5269
" />
<path d="M4223 4769
L4545 4769
" />
</g>
<g style="fill:#840084; fill-opacity:0.0; 
stroke:#840084; stroke-width:20; stroke-opacity:1; 
stroke-linecap:round; stroke-linejoin:round;">
<path d="M3608 5406
L5160 5406
" />
<path d="M5160 5406
L5160 4632
" />
<path d="M5160 4632
L3608 4632
" />
<path d="M3608 4632
L3608 5406
" />
</g>
<g style="fill:#840084; fill-opacity:0.0; 
stroke:#840084; stroke-width:26; stroke-opacity:1; 
stroke-linecap:round; stroke-linejoin:round;">
<path d="M20509 3959
L20509 3704
" />
<path d="M20509 3704
L21060 3704
" />
<path d="M21060 3959
L21060 3704
" />
<path d="M20509 3959
L21060 3959
" />
<path d="M20509 4539
L20509 4283
" />
<path d="M20509 4283
L21060 4283
" />
<path d="M21060 4539
L21060 4283
" />
<path d="M20509 4539
L21060 4539
" />
<path d="M20588 4197
L20588 4041
" />
<path d="M20588 4041
L20980 4041
" />
<path d="M20980 4197
L20980 4041
" />
<path d="M20588 4197
L20980 4197
" />
</g>
<g style="fill:#840084; fill-opacity:0.0; 
stroke:#840084; stroke-width:60; stroke-opacity:1; 
stroke-linecap:round; stroke-linejoin:round;">
<path d="M21034 4280
L21034 3958
" />
<path d="M20534 4280
L20534 3958
" />
</g>
<g style="fill:#840084; fill-opacity:0.0; 
stroke:#840084; stroke-width:20; stroke-opacity:1; 
stroke-linecap:round; stroke-linejoin:round;">
<path d="M21171 4895
L21171 3343
" />
<path d="M21171 3343
L20397 3343
" />
<path d="M20397 3343
L20397 4895
" />
<path d="M20397 4895
L21171 4895
" />
</g>
<g style="fill:#840084; fill-opacity:0.0; 
stroke:#840084; stroke-width:26; stroke-opacity:1; 
stroke-linecap:round; stroke-linejoin:round;">
<path d="M26409 4959
L26409 4704
" />
<path d="M26409 4704
L26960 4704
" />
<path d="M26960 4959
L26960 4704
" />
<path d="M26409 4959
L26960 4959
" />
<path d="M26409 5539
L26409 5283
" />
<path d="M26409 5283
L26960 5283
" />
<path d="M26960 5539
L26960 5283
" />
<path d="M26409 5539
L26960 5539
" />
<path d="M26488 5197
L26488 5041
" />
<path d="M26488 5041
L26880 5041
" />
<path d="M26880 5197
L26880 5041
" />
<path d="M26488 5197
L26880 5197
" />
</g>
<g style="fill:#840084; fill-opacity:0.0; 
stroke:#840084; stroke-width:60; stroke-opacity:1; 
stroke-linecap:round; stroke-linejoin:round;">
<path d="M26934 5280
L26934 4958
" />
<path d="M26434 5280
L26434 4958
" />
</g>
<g style="fill:#840084; fill-opacity:0.0; 
stroke:#840084; stroke-width:20; stroke-opacity:1; 
stroke-linecap:round; stroke-linejoin:round;">
<path d="M27071 5895
L27071 4343
" />
<path d="M27071 4343
L26297 4343
" />
<path d="M26297 4343
L26297 5895
" />
<path d="M26297 5895
L27071 5895
" />
</g>
<g style="fill:#840084; fill-opacity:0.0; 
stroke:#840084; stroke-width:26; stroke-opacity:1; 
stroke-linecap:round; stroke-linejoin:round;">
<path d="M32459 18779
L32459 19034
" />
<path d="M32459 19034
L31908 19034
" />
<path d="M31908 18779
L31908 19034
" />
<path d="M32459 18779
L31908 18779
" />
<path d="M32459 18199
L32459 18455
" />
<path d="M32459 18455
L31908 18455
" />
<path d="M31908 18199
L31908 18455
" />
<path d="M32459 18199
L31908 18199
" />
<path d="M32380 18541
L32380 18697
" />
<path d="M32380 18697
L31988 18697
" />
<path d="M31988 18541
L31988 18697
" />
<path d="M32380 18541
L31988 18541
" />
</g>
<g style="fill:#840084; fill-opacity:0.0; 
stroke:#840084; stroke-width:60; stroke-opacity:1; 
stroke-linecap:round; stroke-linejoin:round;">
<path d="M31934 18458
L31934 18780
" />
<path d="M32434 18458
L32434 18780
" />
</g>
<g style="fill:#840084; fill-opacity:0.0; 
stroke:#840084; stroke-width:20; stroke-opacity:1; 
stroke-linecap:round; stroke-linejoin:round;">
<path d="M31797 17843
L31797 19395
" />
<path d="M31797 19395
L32571 19395
" />
<path d="M32571 19395
L32571 17843
" />
<path d="M32571 17843
L31797 17843
" />
</g>
<g style="fill:#840084; fill-opacity:0.0; 
stroke:#840084; stroke-width:26; stroke-opacity:1; 
stroke-linecap:round; stroke-linejoin:round;">
<path d="M30824 18394
L30569 18394
" />
<path d="M30569 18394
L30569 17843
" />
<path d="M30824 17843
L30569 17843
" />
<path d="M30824 18394
L30824 17843
" />
<path d="M31404 18394
L31148 18394
" />
<path d="M31148 18394
L31148 17843
" />
<path d="M31404 17843
L31148 17843
" />
<path d="M31404 18394
L31404 17843
" />
<path d="M31062 18315
L30906 18315
" />
<path d="M30906 18315
L30906 17923
" />
<path d="M31062 17923
L30906 17923
" />
<path d="M31062 18315
L31062 17923
" />
</g>
<g style="fill:#840084; fill-opacity:0.0; 
stroke:#840084; stroke-width:60; stroke-opacity:1; 
stroke-linecap:round; stroke-linejoin:round;">
<path d="M31145 17869
L30823 17869
" />
<path d="M31145 18369
L30823 18369
" />
</g>
<g style="fill:#840084; fill-opacity:0.0; 
stroke:#840084; stroke-width:20; stroke-opacity:1; 
stroke-linecap:round; stroke-linejoin:round;">
<path d="M31760 17732
L30208 17732
" />
<path d="M30208 17732
L30208 18506
" />
<path d="M30208 18506
L31760 18506
" />
<path d="M31760 18506
L31760 17732
" />
</g>
<g style="fill:#840084; fill-opacity:0.0; 
stroke:#840084; stroke-width:150; stroke-opacity:1; 
stroke-linecap:round; stroke-linejoin:round;">
<path d="M32584 6242
L32584 6183
" />
<path d="M32584 6576
L32584 6655
" />
<path d="M32584 6242
L32289 6242
" />
<path d="M32584 6242
L32860 6242
" />
<path d="M32584 6242
L32860 6576
" />
<path d="M32860 6576
L32308 6576
" />
<path d="M32308 6576
L32584 6242
" />
</g>
<g style="fill:#840084; fill-opacity:0.0; 
stroke:#840084; stroke-width:50; stroke-opacity:1; 
stroke-linecap:round; stroke-linejoin:round;">
<path d="M3415 15338
L3415 16323
" />
<path d="M3415 16323
L3218 16323
" />
<path d="M3218 16323
L3218 16715
" />
<path d="M3218 16715
L3415 16715
" />
<path d="M3415 16715
L3415 17700
" />
<path d="M3415 17700
L5186 17700
" />
<path d="M5186 17700
L5186 15338
" />
<path d="M5186 15338
L3415 15338
" />
</g>
<g style="fill:#840084; fill-opacity:0.0; 
stroke:#840084; stroke-width:26; stroke-opacity:1; 
stroke-linecap:round; stroke-linejoin:round;">
<path d="M26259 21279
L26259 21534
" />
<path d="M26259 21534
L25708 21534
" />
<path d="M25708 21279
L25708 21534
" />
<path d="M26259 21279
L25708 21279
" />
<path d="M26259 20699
L26259 20955
" />
<path d="M26259 20955
L25708 20955
" />
<path d="M25708 20699
L25708 20955
" />
<path d="M26259 20699
L25708 20699
" />
<path d="M26180 21041
L26180 21197
" />
<path d="M26180 21197
L25788 21197
" />
<path d="M25788 21041
L25788 21197
" />
<path d="M26180 21041
L25788 21041
" />
</g>
<g style="fill:#840084; fill-opacity:0.0; 
stroke:#840084; stroke-width:60; stroke-opacity:1; 
stroke-linecap:round; stroke-linejoin:round;">
<path d="M25734 20958
L25734 21280
" />
<path d="M26234 20958
L26234 21280
" />
</g>
<g style="fill:#840084; fill-opacity:0.0; 
stroke:#840084; stroke-width:20; stroke-opacity:1; 
stroke-linecap:round; stroke-linejoin:round;">
<path d="M25597 20343
L25597 21895
" />
<path d="M25597 21895
L26371 21895
" />
<path d="M26371 21895
L26371 20343
" />
<path d="M26371 20343
L25597 20343
" />
</g>
<g style="fill:#840084; fill-opacity:0.0; 
stroke:#840084; stroke-width:59.0551; stroke-opacity:1; 
stroke-linecap:round; stroke-linejoin:round;">
<path d="M20434 11319
L20434 15319
" />
<path d="M20434 15319
L23734 15319
" />
<path d="M23734 15319
L23734 11319
" />
<path d="M23734 11319
L20434 11319
" />
<path d="M22334 15319
L22334 15019
" />
<path d="M22334 15019
L21834 15019
" />
<path d="M21834 15019
L21834 15319
" />
<path d="M20434 5819
L20434 9819
" />
<path d="M20434 9819
L23734 9819
" />
<path d="M23734 9819
L23734 5819
" />
<path d="M23734 5819
L20434 5819
" />
<path d="M22334 9819
L22334 9519
" />
<path d="M22334 9519
L21834 9519
" />
<path d="M21834 9519
L21834 9819
" />
</g>
<g style="fill:#840000; fill-opacity:0.0; 
stroke:#840000; stroke-width:511.811; stroke-opacity:1; 
stroke-linecap:round; stroke-linejoin:round;">
<path d="M4047 10264
L4047 10205
" />
<path d="M4047 12233
L4047 12174
" />
</g>
<g style="fill:#840000; fill-opacity:0.0; 
stroke:#840000; stroke-width:551.181; stroke-opacity:1; 
stroke-linecap:round; stroke-linejoin:round;">
<path d="M2906 9841
L3063 9841
" />
<path d="M2906 12597
L3063 12597
" />
</g>
<g style="fill:#840000; fill-opacity:1.0; 
stroke:#840000; stroke-width:0; stroke-opacity:1; 
stroke-linecap:round; stroke-linejoin:round;">
<circle cx="34884.8" cy="8619.69" r="650" /> 
</g>
<g style="fill:#840000; fill-opacity:1.0; 
stroke:#840000; stroke-width:39.3701; stroke-opacity:1; 
stroke-linecap:round; stroke-linejoin:round;">
</g>
<g style="fill:#840000; fill-opacity:1.0; 
stroke:#840000; stroke-width:0; stroke-opacity:1; 
stroke-linecap:round; stroke-linejoin:round;">
<circle cx="34884.8" cy="13819.7" r="650" /> 
</g>
<g style="fill:#840000; fill-opacity:1.0; 
stroke:#840000; stroke-width:39.3701; stroke-opacity:1; 
stroke-linecap:round; stroke-linejoin:round;">
</g>
<g style="fill:#840000; fill-opacity:1.0; 
stroke:#840000; stroke-width:0; stroke-opacity:1; 
stroke-linecap:round; stroke-linejoin:round;">
<circle cx="34934.8" cy="10544.7" r="312.5" /> 
</g>
<g style="fill:#840000; fill-opacity:1.0; 
stroke:#840000; stroke-width:39.3701; stroke-opacity:1; 
stroke-linecap:round; stroke-linejoin:round;">
</g>
<g style="fill:#840000; fill-opacity:1.0; 
stroke:#840000; stroke-width:0; stroke-opacity:1; 
stroke-linecap:round; stroke-linejoin:round;">
<circle cx="34934.8" cy="11894.7" r="312.5" /> 
</g>
<g style="fill:#840000; fill-opacity:1.0; 
stroke:#840000; stroke-width:39.3701; stroke-opacity:1; 
stroke-linecap:round; stroke-linejoin:round;">
</g>
<g style="fill:#840000; fill-opacity:1.0; 
stroke:#840000; stroke-width:0; stroke-opacity:1; 
stroke-linecap:round; stroke-linejoin:round;">
<circle cx="33834.8" cy="10819.7" r="312.5" /> 
</g>
<g style="fill:#840000; fill-opacity:1.0; 
stroke:#840000; stroke-width:39.3701; stroke-opacity:1; 
stroke-linecap:round; stroke-linejoin:round;">
</g>
<g style="fill:#840000; fill-opacity:1.0; 
stroke:#840000; stroke-width:0; stroke-opacity:1; 
stroke-linecap:round; stroke-linejoin:round;">
<circle cx="33834.8" cy="9819.69" r="312.5" /> 
</g>
<g style="fill:#840000; fill-opacity:1.0; 
stroke:#840000; stroke-width:39.3701; stroke-opacity:1; 
stroke-linecap:round; stroke-linejoin:round;">
</g>
<g style="fill:#840000; fill-opacity:1.0; 
stroke:#840000; stroke-width:0; stroke-opacity:1; 
stroke-linecap:round; stroke-linejoin:round;">
<circle cx="33834.8" cy="11619.7" r="312.5" /> 
</g>
<g style="fill:#840000; fill-opacity:1.0; 
stroke:#840000; stroke-width:39.3701; stroke-opacity:1; 
stroke-linecap:round; stroke-linejoin:round;">
</g>
<g style="fill:#840000; fill-opacity:1.0; 
stroke:#840000; stroke-width:0; stroke-opacity:1; 
stroke-linecap:round; stroke-linejoin:round;">
<circle cx="33834.8" cy="12619.7" r="312.5" /> 
</g>
<g style="fill:#840000; fill-opacity:1.0; 
stroke:#840000; stroke-width:39.3701; stroke-opacity:1; 
stroke-linecap:round; stroke-linejoin:round;">
</g>
<g style="fill:#840000; fill-opacity:1.0; 
stroke:#840000; stroke-width:0; stroke-opacity:1; 
stroke-linecap:round; stroke-linejoin:round;">
<circle cx="6384.8" cy="13269.7" r="300" /> 
</g>
<g style="fill:#840000; fill-opacity:1.0; 
stroke:#840000; stroke-width:39.3701; stroke-opacity:1; 
stroke-linecap:round; stroke-linejoin:round;">
</g>
<g style="fill:#840000; fill-opacity:1.0; 
stroke:#840000; stroke-width:0; stroke-opacity:1; 
stroke-linecap:round; stroke-linejoin:round;">
<circle cx="6384.8" cy="12269.7" r="300" /> 
</g>
<g style="fill:#840000; fill-opacity:1.0; 
stroke:#840000; stroke-width:39.3701; stroke-opacity:1; 
stroke-linecap:round; stroke-linejoin:round;">
</g>
<g style="fill:#840000; fill-opacity:1.0; 
stroke:#840000; stroke-width:0; stroke-opacity:1; 
stroke-linecap:round; stroke-linejoin:round;">
<circle cx="6384.8" cy="11269.7" r="300" /> 
</g>
<g style="fill:#840000; fill-opacity:1.0; 
stroke:#840000; stroke-width:39.3701; stroke-opacity:1; 
stroke-linecap:round; stroke-linejoin:round;">
</g>
<g style="fill:#840000; fill-opacity:1.0; 
stroke:#840000; stroke-width:0; stroke-opacity:1; 
stroke-linecap:round; stroke-linejoin:round;">
<circle cx="6384.8" cy="10269.7" r="300" /> 
</g>
<g style="fill:#840000; fill-opacity:1.0; 
stroke:#840000; stroke-width:39.3701; stroke-opacity:1; 
stroke-linecap:round; stroke-linejoin:round;">
</g>
<g style="fill:#840000; fill-opacity:1.0; 
stroke:#840000; stroke-width:0; stroke-opacity:1; 
stroke-linecap:round; stroke-linejoin:round;">
<circle cx="6384.8" cy="9269.69" r="300" /> 
</g>
<g style="fill:#840000; fill-opacity:1.0; 
stroke:#840000; stroke-width:39.3701; stroke-opacity:1; 
stroke-linecap:round; stroke-linejoin:round;">
</g>
<g style="fill:#840000; fill-opacity:1.0; 
stroke:#840000; stroke-width:0; stroke-opacity:1; 
stroke-linecap:round; stroke-linejoin:round;">
<circle cx="6384.8" cy="8269.69" r="300" /> 
</g>
<g style="fill:#840000; fill-opacity:1.0; 
stroke:#840000; stroke-width:39.3701; stroke-opacity:1; 
stroke-linecap:round; stroke-linejoin:round;">
</g>
<g style="fill:#840000; fill-opacity:1.0; 
stroke:#840000; stroke-width:0; stroke-opacity:1; 
stroke-linecap:round; stroke-linejoin:round;">
<circle cx="6384.8" cy="7269.69" r="300" /> 
</g>
<g style="fill:#840000; fill-opacity:1.0; 
stroke:#840000; stroke-width:39.3701; stroke-opacity:1; 
stroke-linecap:round; stroke-linejoin:round;">
</g>
<g style="fill:#840000; fill-opacity:1.0; 
stroke:#840000; stroke-width:0; stroke-opacity:1; 
stroke-linecap:round; stroke-linejoin:round;">
<circle cx="6384.8" cy="6269.69" r="300" /> 
</g>
<g style="fill:#840000; fill-opacity:1.0; 
stroke:#840000; stroke-width:39.3701; stroke-opacity:1; 
stroke-linecap:round; stroke-linejoin:round;">
</g>
<g style="fill:#840000; fill-opacity:1.0; 
stroke:#840000; stroke-width:0; stroke-opacity:1; 
stroke-linecap:round; stroke-linejoin:round;">
<circle cx="4084.8" cy="16126.7" r="280" /> 
</g>
<g style="fill:#840000; fill-opacity:1.0; 
stroke:#840000; stroke-width:39.3701; stroke-opacity:1; 
stroke-linecap:round; stroke-linejoin:round;">
</g>
<g style="fill:#840000; fill-opacity:1.0; 
stroke:#840000; stroke-width:0; stroke-opacity:1; 
stroke-linecap:round; stroke-linejoin:round;">
<circle cx="4084.8" cy="16912.7" r="280" /> 
</g>
<g style="fill:#840000; fill-opacity:1.0; 
stroke:#840000; stroke-width:39.3701; stroke-opacity:1; 
stroke-linecap:round; stroke-linejoin:round;">
</g> 
</svg>
