<?xml version="1.0" standalone="no"?>
 <!DOCTYPE svg PUBLIC "-//W3C//DTD SVG 1.1//EN" 
 "http://www.w3.org/Graphics/SVG/1.1/DTD/svg11.dtd"> 
<svg xmlns="http://www.w3.org/2000/svg" version="1.1" 
    width="10.094cm" height="5.69722cm" viewBox="0 0 39740 22430 ">
<title>SVG Picture created as PowerBox-brd.svg date 2015/08/03 18:50:34 </title>
  <desc>Picture generated by PCBNEW </desc>
<g style="fill:#000000; fill-opacity:1;stroke:#000000; stroke-opacity:1;
stroke-linecap:round; stroke-linejoin:round; "
 transform="translate(0 0) scale(1 1)">
</g>
<g style="fill:#840084; fill-opacity:0.0; 
stroke:#840084; stroke-width:70; stroke-opacity:1; 
stroke-linecap:round; stroke-linejoin:round;">
<path d="M27627 2450
L27627 2050
L27475 2050
L27437 2069
L27418 2088
L27399 2126
L27399 2183
L27418 2222
L27437 2241
L27475 2260
L27627 2260
" />
<path d="M27056 2450
L27056 2241
L27075 2203
L27113 2183
L27189 2183
L27227 2203
" />
<path d="M27056 2431
L27094 2450
L27189 2450
L27227 2431
L27246 2393
L27246 2355
L27227 2317
L27189 2298
L27094 2298
L27056 2279
" />
<path d="M26884 2431
L26846 2450
L26770 2450
L26732 2431
L26713 2393
L26713 2374
L26732 2336
L26770 2317
L26827 2317
L26865 2298
L26884 2260
L26884 2241
L26865 2203
L26827 2183
L26770 2183
L26732 2203
" />
<path d="M26370 2431
L26408 2450
L26484 2450
L26522 2431
L26541 2412
L26560 2374
L26560 2260
L26541 2222
L26522 2203
L26484 2183
L26408 2183
L26370 2203
" />
<path d="M26027 2450
L26027 2241
L26046 2203
L26084 2183
L26160 2183
L26199 2203
" />
<path d="M26027 2431
L26065 2450
L26160 2450
L26199 2431
L26218 2393
L26218 2355
L26199 2317
L26160 2298
L26065 2298
L26027 2279
" />
<path d="M25780 2450
L25818 2431
L25837 2393
L25837 2050
" />
<path d="M25189 2241
L25322 2241
" />
<path d="M25322 2450
L25322 2050
L25132 2050
" />
<path d="M24980 2450
L24980 2183
" />
<path d="M24980 2260
L24960 2222
L24941 2203
L24903 2183
L24865 2183
" />
<path d="M24580 2431
L24618 2450
L24694 2450
L24732 2431
L24751 2393
L24751 2241
L24732 2203
L24694 2183
L24618 2183
L24580 2203
L24560 2241
L24560 2279
L24751 2317
" />
<path d="M24389 2450
L24389 2050
" />
<path d="M24218 2450
L24218 2241
L24237 2203
L24275 2183
L24332 2183
L24370 2203
L24389 2222
" />
<path d="M24027 2183
L24027 2450
" />
<path d="M24027 2222
L24008 2203
L23970 2183
L23913 2183
L23875 2203
L23856 2241
L23856 2450
" />
<path d="M23513 2431
L23551 2450
L23627 2450
L23665 2431
L23684 2393
L23684 2241
L23665 2203
L23627 2183
L23551 2183
L23513 2203
L23494 2241
L23494 2279
L23684 2317
" />
<path d="M23322 2450
L23322 2183
" />
<path d="M23322 2260
L23303 2222
L23284 2203
L23246 2183
L23208 2183
" />
<path d="M23056 2431
L23056 2450
L23075 2488
L23094 2507
" />
<path d="M22008 2050
L21760 2050
L21894 2203
L21837 2203
L21799 2222
L21780 2241
L21760 2279
L21760 2374
L21780 2412
L21799 2431
L21837 2450
L21951 2450
L21989 2431
L22008 2412
" />
<path d="M21380 2450
L21608 2450
" />
<path d="M21494 2450
L21494 2050
L21532 2107
L21570 2145
L21608 2164
" />
<path d="M21208 2412
L21189 2431
L21208 2450
L21227 2431
L21208 2412
L21208 2450
" />
<path d="M20941 2050
L20903 2050
L20865 2069
L20846 2088
L20827 2126
L20808 2203
L20808 2298
L20827 2374
L20846 2412
L20865 2431
L20903 2450
L20941 2450
L20980 2431
L20999 2412
L21018 2374
L21037 2298
L21037 2203
L21018 2126
L20999 2088
L20980 2069
L20941 2050
" />
<path d="M20675 2050
L20408 2050
L20580 2450
" />
<path d="M20256 2412
L20237 2431
L20256 2450
L20275 2431
L20256 2412
L20256 2450
" />
<path d="M19856 2450
L20084 2450
" />
<path d="M19970 2450
L19970 2050
L20008 2107
L20046 2145
L20084 2164
" />
<path d="M19494 2050
L19684 2050
L19703 2241
L19684 2222
L19646 2203
L19551 2203
L19513 2222
L19494 2241
L19475 2279
L19475 2374
L19494 2412
L19513 2431
L19551 2450
L19646 2450
L19684 2431
L19703 2412
" />
<path d="M19284 2431
L19284 2450
L19303 2488
L19322 2507
" />
<path d="M17894 2450
L17894 2050
L17741 2050
L17703 2069
L17684 2088
L17665 2126
L17665 2183
L17684 2222
L17703 2241
L17741 2260
L17894 2260
" />
<path d="M17437 2450
L17475 2431
L17494 2412
L17513 2374
L17513 2260
L17494 2222
L17475 2203
L17437 2183
L17380 2183
L17341 2203
L17322 2222
L17303 2260
L17303 2374
L17322 2412
L17341 2431
L17380 2450
L17437 2450
" />
<path d="M17170 2183
L17094 2450
L17018 2260
L16941 2450
L16865 2183
" />
<path d="M16560 2431
L16599 2450
L16675 2450
L16713 2431
L16732 2393
L16732 2241
L16713 2203
L16675 2183
L16599 2183
L16560 2203
L16541 2241
L16541 2279
L16732 2317
" />
<path d="M16370 2450
L16370 2183
" />
<path d="M16370 2260
L16351 2222
L16332 2203
L16294 2183
L16256 2183
" />
<path d="M15684 2241
L15627 2260
L15608 2279
L15589 2317
L15589 2374
L15608 2412
L15627 2431
L15665 2450
L15818 2450
L15818 2050
L15684 2050
L15646 2069
L15627 2088
L15608 2126
L15608 2164
L15627 2203
L15646 2222
L15684 2241
L15818 2241
" />
<path d="M15360 2450
L15399 2431
L15418 2412
L15437 2374
L15437 2260
L15418 2222
L15399 2203
L15360 2183
L15303 2183
L15265 2203
L15246 2222
L15227 2260
L15227 2374
L15246 2412
L15265 2431
L15303 2450
L15360 2450
" />
<path d="M15094 2450
L14884 2183
" />
<path d="M15094 2183
L14884 2450
" />
<path d="M14713 2431
L14713 2450
L14732 2488
L14751 2507
" />
<path d="M14008 2450
L14141 2260
" />
<path d="M14237 2450
L14237 2050
L14084 2050
L14046 2069
L14027 2088
L14008 2126
L14008 2183
L14027 2222
L14046 2241
L14084 2260
L14237 2260
" />
<path d="M13684 2431
L13722 2450
L13799 2450
L13837 2431
L13856 2393
L13856 2241
L13837 2203
L13799 2183
L13722 2183
L13684 2203
L13665 2241
L13665 2279
L13856 2317
" />
<path d="M13532 2183
L13437 2450
L13341 2183
" />
<path d="M13189 2412
L13170 2431
L13189 2450
L13208 2431
L13189 2412
L13189 2450
" />
<path d="M12713 2336
L12522 2336
" />
<path d="M12751 2450
L12618 2050
L12484 2450
" />
</g>
<g style="fill:#840084; fill-opacity:0.0; 
stroke:#840084; stroke-width:31; stroke-opacity:1; 
stroke-linecap:round; stroke-linejoin:round;">
<circle cx="6396.8" cy="14632.7" r="62.626" /> 
<path d="M6734 13669
L6334 13669
" />
<path d="M6734 14694
L6334 14694
" />
<path d="M6334 13669
L6334 14694
" />
<path d="M6734 14694
L6734 13669
" />
<circle cx="7596.8" cy="18632.7" r="62.626" /> 
<path d="M7934 17669
L7534 17669
" />
<path d="M7934 18694
L7534 18694
" />
<path d="M7534 17669
L7534 18694
" />
<path d="M7934 18694
L7934 17669
" />
</g>
<g style="fill:#840084; fill-opacity:0.0; 
stroke:#840084; stroke-width:26; stroke-opacity:1; 
stroke-linecap:round; stroke-linejoin:round;">
<path d="M4124 13144
L3869 13144
" />
<path d="M3869 13144
L3869 12593
" />
<path d="M4124 12593
L3869 12593
" />
<path d="M4124 13144
L4124 12593
" />
<path d="M4704 13144
L4448 13144
" />
<path d="M4448 13144
L4448 12593
" />
<path d="M4704 12593
L4448 12593
" />
<path d="M4704 13144
L4704 12593
" />
<path d="M4362 13065
L4206 13065
" />
<path d="M4206 13065
L4206 12673
" />
<path d="M4362 12673
L4206 12673
" />
<path d="M4362 13065
L4362 12673
" />
</g>
<g style="fill:#840084; fill-opacity:0.0; 
stroke:#840084; stroke-width:60; stroke-opacity:1; 
stroke-linecap:round; stroke-linejoin:round;">
<path d="M4445 12619
L4123 12619
" />
<path d="M4445 13119
L4123 13119
" />
</g>
<g style="fill:#840084; fill-opacity:0.0; 
stroke:#840084; stroke-width:20; stroke-opacity:1; 
stroke-linecap:round; stroke-linejoin:round;">
<path d="M5060 12482
L3508 12482
" />
<path d="M3508 12482
L3508 13256
" />
<path d="M3508 13256
L5060 13256
" />
<path d="M5060 13256
L5060 12482
" />
</g>
<g style="fill:#840084; fill-opacity:0.0; 
stroke:#840084; stroke-width:26; stroke-opacity:1; 
stroke-linecap:round; stroke-linejoin:round;">
<path d="M36794 16394
L37049 16394
" />
<path d="M37049 16394
L37049 16945
" />
<path d="M36794 16945
L37049 16945
" />
<path d="M36794 16394
L36794 16945
" />
<path d="M36214 16394
L36470 16394
" />
<path d="M36470 16394
L36470 16945
" />
<path d="M36214 16945
L36470 16945
" />
<path d="M36214 16394
L36214 16945
" />
<path d="M36556 16473
L36712 16473
" />
<path d="M36712 16473
L36712 16865
" />
<path d="M36556 16865
L36712 16865
" />
<path d="M36556 16473
L36556 16865
" />
</g>
<g style="fill:#840084; fill-opacity:0.0; 
stroke:#840084; stroke-width:60; stroke-opacity:1; 
stroke-linecap:round; stroke-linejoin:round;">
<path d="M36473 16919
L36795 16919
" />
<path d="M36473 16419
L36795 16419
" />
</g>
<g style="fill:#840084; fill-opacity:0.0; 
stroke:#840084; stroke-width:20; stroke-opacity:1; 
stroke-linecap:round; stroke-linejoin:round;">
<path d="M35858 17056
L37410 17056
" />
<path d="M37410 17056
L37410 16282
" />
<path d="M37410 16282
L35858 16282
" />
<path d="M35858 16282
L35858 17056
" />
</g>
<g style="fill:#840084; fill-opacity:0.0; 
stroke:#840084; stroke-width:26; stroke-opacity:1; 
stroke-linecap:round; stroke-linejoin:round;">
<path d="M30694 8894
L30949 8894
" />
<path d="M30949 8894
L30949 9445
" />
<path d="M30694 9445
L30949 9445
" />
<path d="M30694 8894
L30694 9445
" />
<path d="M30114 8894
L30370 8894
" />
<path d="M30370 8894
L30370 9445
" />
<path d="M30114 9445
L30370 9445
" />
<path d="M30114 8894
L30114 9445
" />
<path d="M30456 8973
L30612 8973
" />
<path d="M30612 8973
L30612 9365
" />
<path d="M30456 9365
L30612 9365
" />
<path d="M30456 8973
L30456 9365
" />
</g>
<g style="fill:#840084; fill-opacity:0.0; 
stroke:#840084; stroke-width:60; stroke-opacity:1; 
stroke-linecap:round; stroke-linejoin:round;">
<path d="M30373 9419
L30695 9419
" />
<path d="M30373 8919
L30695 8919
" />
</g>
<g style="fill:#840084; fill-opacity:0.0; 
stroke:#840084; stroke-width:20; stroke-opacity:1; 
stroke-linecap:round; stroke-linejoin:round;">
<path d="M29758 9556
L31310 9556
" />
<path d="M31310 9556
L31310 8782
" />
<path d="M31310 8782
L29758 8782
" />
<path d="M29758 8782
L29758 9556
" />
</g>
<g style="fill:#840084; fill-opacity:0.0; 
stroke:#840084; stroke-width:26; stroke-opacity:1; 
stroke-linecap:round; stroke-linejoin:round;">
<path d="M25874 9444
L25619 9444
" />
<path d="M25619 9444
L25619 8893
" />
<path d="M25874 8893
L25619 8893
" />
<path d="M25874 9444
L25874 8893
" />
<path d="M26454 9444
L26198 9444
" />
<path d="M26198 9444
L26198 8893
" />
<path d="M26454 8893
L26198 8893
" />
<path d="M26454 9444
L26454 8893
" />
<path d="M26112 9365
L25956 9365
" />
<path d="M25956 9365
L25956 8973
" />
<path d="M26112 8973
L25956 8973
" />
<path d="M26112 9365
L26112 8973
" />
</g>
<g style="fill:#840084; fill-opacity:0.0; 
stroke:#840084; stroke-width:60; stroke-opacity:1; 
stroke-linecap:round; stroke-linejoin:round;">
<path d="M26195 8919
L25873 8919
" />
<path d="M26195 9419
L25873 9419
" />
</g>
<g style="fill:#840084; fill-opacity:0.0; 
stroke:#840084; stroke-width:20; stroke-opacity:1; 
stroke-linecap:round; stroke-linejoin:round;">
<path d="M26810 8782
L25258 8782
" />
<path d="M25258 8782
L25258 9556
" />
<path d="M25258 9556
L26810 9556
" />
<path d="M26810 9556
L26810 8782
" />
</g>
<g style="fill:#840084; fill-opacity:0.0; 
stroke:#840084; stroke-width:26; stroke-opacity:1; 
stroke-linecap:round; stroke-linejoin:round;">
<path d="M14474 16444
L14219 16444
" />
<path d="M14219 16444
L14219 15893
" />
<path d="M14474 15893
L14219 15893
" />
<path d="M14474 16444
L14474 15893
" />
<path d="M15054 16444
L14798 16444
" />
<path d="M14798 16444
L14798 15893
" />
<path d="M15054 15893
L14798 15893
" />
<path d="M15054 16444
L15054 15893
" />
<path d="M14712 16365
L14556 16365
" />
<path d="M14556 16365
L14556 15973
" />
<path d="M14712 15973
L14556 15973
" />
<path d="M14712 16365
L14712 15973
" />
</g>
<g style="fill:#840084; fill-opacity:0.0; 
stroke:#840084; stroke-width:60; stroke-opacity:1; 
stroke-linecap:round; stroke-linejoin:round;">
<path d="M14795 15919
L14473 15919
" />
<path d="M14795 16419
L14473 16419
" />
</g>
<g style="fill:#840084; fill-opacity:0.0; 
stroke:#840084; stroke-width:20; stroke-opacity:1; 
stroke-linecap:round; stroke-linejoin:round;">
<path d="M15410 15782
L13858 15782
" />
<path d="M13858 15782
L13858 16556
" />
<path d="M13858 16556
L15410 16556
" />
<path d="M15410 16556
L15410 15782
" />
</g>
<g style="fill:#840084; fill-opacity:0.0; 
stroke:#840084; stroke-width:26; stroke-opacity:1; 
stroke-linecap:round; stroke-linejoin:round;">
<path d="M14474 15644
L14219 15644
" />
<path d="M14219 15644
L14219 15093
" />
<path d="M14474 15093
L14219 15093
" />
<path d="M14474 15644
L14474 15093
" />
<path d="M15054 15644
L14798 15644
" />
<path d="M14798 15644
L14798 15093
" />
<path d="M15054 15093
L14798 15093
" />
<path d="M15054 15644
L15054 15093
" />
<path d="M14712 15565
L14556 15565
" />
<path d="M14556 15565
L14556 15173
" />
<path d="M14712 15173
L14556 15173
" />
<path d="M14712 15565
L14712 15173
" />
</g>
<g style="fill:#840084; fill-opacity:0.0; 
stroke:#840084; stroke-width:60; stroke-opacity:1; 
stroke-linecap:round; stroke-linejoin:round;">
<path d="M14795 15119
L14473 15119
" />
<path d="M14795 15619
L14473 15619
" />
</g>
<g style="fill:#840084; fill-opacity:0.0; 
stroke:#840084; stroke-width:20; stroke-opacity:1; 
stroke-linecap:round; stroke-linejoin:round;">
<path d="M15410 14982
L13858 14982
" />
<path d="M13858 14982
L13858 15756
" />
<path d="M13858 15756
L15410 15756
" />
<path d="M15410 15756
L15410 14982
" />
</g>
<g style="fill:#840084; fill-opacity:0.0; 
stroke:#840084; stroke-width:26; stroke-opacity:1; 
stroke-linecap:round; stroke-linejoin:round;">
<path d="M31459 12109
L31459 11854
" />
<path d="M31459 11854
L32010 11854
" />
<path d="M32010 12109
L32010 11854
" />
<path d="M31459 12109
L32010 12109
" />
<path d="M31459 12689
L31459 12433
" />
<path d="M31459 12433
L32010 12433
" />
<path d="M32010 12689
L32010 12433
" />
<path d="M31459 12689
L32010 12689
" />
<path d="M31538 12347
L31538 12191
" />
<path d="M31538 12191
L31930 12191
" />
<path d="M31930 12347
L31930 12191
" />
<path d="M31538 12347
L31930 12347
" />
</g>
<g style="fill:#840084; fill-opacity:0.0; 
stroke:#840084; stroke-width:60; stroke-opacity:1; 
stroke-linecap:round; stroke-linejoin:round;">
<path d="M31984 12430
L31984 12108
" />
<path d="M31484 12430
L31484 12108
" />
</g>
<g style="fill:#840084; fill-opacity:0.0; 
stroke:#840084; stroke-width:20; stroke-opacity:1; 
stroke-linecap:round; stroke-linejoin:round;">
<path d="M32121 13045
L32121 11493
" />
<path d="M32121 11493
L31347 11493
" />
<path d="M31347 11493
L31347 13045
" />
<path d="M31347 13045
L32121 13045
" />
</g>
<g style="fill:#840084; fill-opacity:0.0; 
stroke:#840084; stroke-width:26; stroke-opacity:1; 
stroke-linecap:round; stroke-linejoin:round;">
<path d="M28574 16844
L28319 16844
" />
<path d="M28319 16844
L28319 16293
" />
<path d="M28574 16293
L28319 16293
" />
<path d="M28574 16844
L28574 16293
" />
<path d="M29154 16844
L28898 16844
" />
<path d="M28898 16844
L28898 16293
" />
<path d="M29154 16293
L28898 16293
" />
<path d="M29154 16844
L29154 16293
" />
<path d="M28812 16765
L28656 16765
" />
<path d="M28656 16765
L28656 16373
" />
<path d="M28812 16373
L28656 16373
" />
<path d="M28812 16765
L28812 16373
" />
</g>
<g style="fill:#840084; fill-opacity:0.0; 
stroke:#840084; stroke-width:60; stroke-opacity:1; 
stroke-linecap:round; stroke-linejoin:round;">
<path d="M28895 16319
L28573 16319
" />
<path d="M28895 16819
L28573 16819
" />
</g>
<g style="fill:#840084; fill-opacity:0.0; 
stroke:#840084; stroke-width:20; stroke-opacity:1; 
stroke-linecap:round; stroke-linejoin:round;">
<path d="M29510 16182
L27958 16182
" />
<path d="M27958 16182
L27958 16956
" />
<path d="M27958 16956
L29510 16956
" />
<path d="M29510 16956
L29510 16182
" />
</g>
<g style="fill:#840084; fill-opacity:0.0; 
stroke:#840084; stroke-width:59.0551; stroke-opacity:1; 
stroke-linecap:round; stroke-linejoin:round;">
<path d="M33934 7919
L32984 7919
" />
<path d="M32984 7919
L32984 13819
" />
<path d="M32984 13819
L33934 13819
" />
</g>
<g style="fill:#840084; fill-opacity:0.0; 
stroke:#840084; stroke-width:31; stroke-opacity:1; 
stroke-linecap:round; stroke-linejoin:round;">
<circle cx="4146.8" cy="14432.7" r="62.626" /> 
<path d="M4484 13469
L4084 13469
" />
<path d="M4484 14494
L4084 14494
" />
<path d="M4084 13469
L4084 14494
" />
<path d="M4484 14494
L4484 13469
" />
<circle cx="36772.8" cy="14706.7" r="62.626" /> 
<path d="M36434 15669
L36834 15669
" />
<path d="M36434 14644
L36834 14644
" />
<path d="M36834 15669
L36834 14644
" />
<path d="M36434 14644
L36434 15669
" />
<circle cx="14496.8" cy="14732.7" r="62.626" /> 
<path d="M14834 13769
L14434 13769
" />
<path d="M14834 14794
L14434 14794
" />
<path d="M14434 13769
L14434 14794
" />
<path d="M14834 14794
L14834 13769
" />
</g>
<g style="fill:#840084; fill-opacity:0.0; 
stroke:#840084; stroke-width:50; stroke-opacity:1; 
stroke-linecap:round; stroke-linejoin:round;">
<path d="M13984 18519
L15284 18519
" />
<path d="M13984 17219
L15284 17219
" />
<path d="M13984 16969
L15284 16969
" />
<path d="M15284 16969
L15284 18769
" />
<path d="M15284 18769
L13984 18769
" />
<path d="M13984 18769
L13984 16969
" />
</g>
<g style="fill:#840084; fill-opacity:0.0; 
stroke:#840084; stroke-width:26; stroke-opacity:1; 
stroke-linecap:round; stroke-linejoin:round;">
<path d="M8554 9299
L8414 9299
" />
<path d="M8414 9299
L8414 8899
" />
<path d="M8554 8899
L8414 8899
" />
<path d="M8554 9299
L8554 8899
" />
<path d="M8054 9299
L7914 9299
" />
<path d="M7914 9299
L7914 8899
" />
<path d="M8054 8899
L7914 8899
" />
<path d="M8054 9299
L8054 8899
" />
<path d="M7554 9299
L7414 9299
" />
<path d="M7414 9299
L7414 8899
" />
<path d="M7554 8899
L7414 8899
" />
<path d="M7554 9299
L7554 8899
" />
<path d="M7054 9299
L6914 9299
" />
<path d="M6914 9299
L6914 8899
" />
<path d="M7054 8899
L6914 8899
" />
<path d="M7054 9299
L7054 8899
" />
<path d="M8554 7439
L8414 7439
" />
<path d="M8414 7439
L8414 7039
" />
<path d="M8554 7039
L8414 7039
" />
<path d="M8554 7439
L8554 7039
" />
<path d="M8054 7439
L7914 7439
" />
<path d="M7914 7439
L7914 7039
" />
<path d="M8054 7039
L7914 7039
" />
<path d="M8054 7439
L8054 7039
" />
<path d="M7554 7439
L7414 7439
" />
<path d="M7414 7439
L7414 7039
" />
<path d="M7554 7039
L7414 7039
" />
<path d="M7554 7439
L7554 7039
" />
<path d="M7054 7439
L6914 7439
" />
<path d="M6914 7439
L6914 7039
" />
<path d="M7054 7039
L6914 7039
" />
<path d="M7054 7439
L7054 7039
" />
</g>
<g style="fill:#840084; fill-opacity:0.0; 
stroke:#840084; stroke-width:60; stroke-opacity:1; 
stroke-linecap:round; stroke-linejoin:round;">
<path d="M8663 8878
L6805 8878
" />
<path d="M6805 8878
L6805 7460
" />
<path d="M6805 7460
L8663 7460
" />
<path d="M8663 7460
L8663 8878
" />
</g>
<g style="fill:#840084; fill-opacity:0.0; 
stroke:#840084; stroke-width:40; stroke-opacity:1; 
stroke-linecap:round; stroke-linejoin:round;">
<circle cx="8443.8" cy="8559.69" r="39.598" /> 
</g>
<g style="fill:#840084; fill-opacity:0.0; 
stroke:#840084; stroke-width:59.0551; stroke-opacity:1; 
stroke-linecap:round; stroke-linejoin:round;">
<path d="M13634 18019
L6634 18019
" />
<path d="M13634 3719
L6634 3719
" />
<path d="M6634.8 3719.69 A1000 1000 0.0 0 0 5634.8 4719.69 " />
<path d="M14634.8 4719.69 A1000 1000 0.0 0 0 13634.8 3719.69 " />
<path d="M5634.8 17019.7 A1000 1000 0.0 0 0 6634.8 18019.7 " />
<path d="M13634.8 18019.7 A1000 1000 0.0 0 0 14634.8 17019.7 " />
<path d="M5634 4719
L5634 16969
" />
<path d="M14634 4719
L14634 17019
" />
</g>
<g style="fill:#840084; fill-opacity:0.0; 
stroke:#840084; stroke-width:31; stroke-opacity:1; 
stroke-linecap:round; stroke-linejoin:round;">
<circle cx="15072.8" cy="11506.7" r="62.626" /> 
<path d="M14734 12469
L15134 12469
" />
<path d="M14734 11444
L15134 11444
" />
<path d="M15134 12469
L15134 11444
" />
<path d="M14734 11444
L14734 12469
" />
</g>
<g style="fill:#840084; fill-opacity:0.0; 
stroke:#840084; stroke-width:26; stroke-opacity:1; 
stroke-linecap:round; stroke-linejoin:round;">
<path d="M8959 7209
L8959 6954
" />
<path d="M8959 6954
L9510 6954
" />
<path d="M9510 7209
L9510 6954
" />
<path d="M8959 7209
L9510 7209
" />
<path d="M8959 7789
L8959 7533
" />
<path d="M8959 7533
L9510 7533
" />
<path d="M9510 7789
L9510 7533
" />
<path d="M8959 7789
L9510 7789
" />
<path d="M9038 7447
L9038 7291
" />
<path d="M9038 7291
L9430 7291
" />
<path d="M9430 7447
L9430 7291
" />
<path d="M9038 7447
L9430 7447
" />
</g>
<g style="fill:#840084; fill-opacity:0.0; 
stroke:#840084; stroke-width:60; stroke-opacity:1; 
stroke-linecap:round; stroke-linejoin:round;">
<path d="M9484 7530
L9484 7208
" />
<path d="M8984 7530
L8984 7208
" />
</g>
<g style="fill:#840084; fill-opacity:0.0; 
stroke:#840084; stroke-width:20; stroke-opacity:1; 
stroke-linecap:round; stroke-linejoin:round;">
<path d="M9621 8145
L9621 6593
" />
<path d="M9621 6593
L8847 6593
" />
<path d="M8847 6593
L8847 8145
" />
<path d="M8847 8145
L9621 8145
" />
</g>
<g style="fill:#840084; fill-opacity:0.0; 
stroke:#840084; stroke-width:26; stroke-opacity:1; 
stroke-linecap:round; stroke-linejoin:round;">
<path d="M8959 8809
L8959 8554
" />
<path d="M8959 8554
L9510 8554
" />
<path d="M9510 8809
L9510 8554
" />
<path d="M8959 8809
L9510 8809
" />
<path d="M8959 9389
L8959 9133
" />
<path d="M8959 9133
L9510 9133
" />
<path d="M9510 9389
L9510 9133
" />
<path d="M8959 9389
L9510 9389
" />
<path d="M9038 9047
L9038 8891
" />
<path d="M9038 8891
L9430 8891
" />
<path d="M9430 9047
L9430 8891
" />
<path d="M9038 9047
L9430 9047
" />
</g>
<g style="fill:#840084; fill-opacity:0.0; 
stroke:#840084; stroke-width:60; stroke-opacity:1; 
stroke-linecap:round; stroke-linejoin:round;">
<path d="M9484 9130
L9484 8808
" />
<path d="M8984 9130
L8984 8808
" />
</g>
<g style="fill:#840084; fill-opacity:0.0; 
stroke:#840084; stroke-width:20; stroke-opacity:1; 
stroke-linecap:round; stroke-linejoin:round;">
<path d="M9621 9745
L9621 8193
" />
<path d="M9621 8193
L8847 8193
" />
<path d="M8847 8193
L8847 9745
" />
<path d="M8847 9745
L9621 9745
" />
</g>
<g style="fill:#840084; fill-opacity:0.0; 
stroke:#840084; stroke-width:26; stroke-opacity:1; 
stroke-linecap:round; stroke-linejoin:round;">
<path d="M8494 1094
L8749 1094
" />
<path d="M8749 1094
L8749 1645
" />
<path d="M8494 1645
L8749 1645
" />
<path d="M8494 1094
L8494 1645
" />
<path d="M7914 1094
L8170 1094
" />
<path d="M8170 1094
L8170 1645
" />
<path d="M7914 1645
L8170 1645
" />
<path d="M7914 1094
L7914 1645
" />
<path d="M8256 1173
L8412 1173
" />
<path d="M8412 1173
L8412 1565
" />
<path d="M8256 1565
L8412 1565
" />
<path d="M8256 1173
L8256 1565
" />
</g>
<g style="fill:#840084; fill-opacity:0.0; 
stroke:#840084; stroke-width:60; stroke-opacity:1; 
stroke-linecap:round; stroke-linejoin:round;">
<path d="M8173 1619
L8495 1619
" />
<path d="M8173 1119
L8495 1119
" />
</g>
<g style="fill:#840084; fill-opacity:0.0; 
stroke:#840084; stroke-width:20; stroke-opacity:1; 
stroke-linecap:round; stroke-linejoin:round;">
<path d="M7558 1756
L9110 1756
" />
<path d="M9110 1756
L9110 982
" />
<path d="M9110 982
L7558 982
" />
<path d="M7558 982
L7558 1756
" />
</g>
<g style="fill:#840084; fill-opacity:0.0; 
stroke:#840084; stroke-width:26; stroke-opacity:1; 
stroke-linecap:round; stroke-linejoin:round;">
<path d="M4294 7394
L4549 7394
" />
<path d="M4549 7394
L4549 7945
" />
<path d="M4294 7945
L4549 7945
" />
<path d="M4294 7394
L4294 7945
" />
<path d="M3714 7394
L3970 7394
" />
<path d="M3970 7394
L3970 7945
" />
<path d="M3714 7945
L3970 7945
" />
<path d="M3714 7394
L3714 7945
" />
<path d="M4056 7473
L4212 7473
" />
<path d="M4212 7473
L4212 7865
" />
<path d="M4056 7865
L4212 7865
" />
<path d="M4056 7473
L4056 7865
" />
</g>
<g style="fill:#840084; fill-opacity:0.0; 
stroke:#840084; stroke-width:60; stroke-opacity:1; 
stroke-linecap:round; stroke-linejoin:round;">
<path d="M3973 7919
L4295 7919
" />
<path d="M3973 7419
L4295 7419
" />
</g>
<g style="fill:#840084; fill-opacity:0.0; 
stroke:#840084; stroke-width:20; stroke-opacity:1; 
stroke-linecap:round; stroke-linejoin:round;">
<path d="M3358 8056
L4910 8056
" />
<path d="M4910 8056
L4910 7282
" />
<path d="M4910 7282
L3358 7282
" />
<path d="M3358 7282
L3358 8056
" />
</g>
<g style="fill:#840084; fill-opacity:0.0; 
stroke:#840084; stroke-width:26; stroke-opacity:1; 
stroke-linecap:round; stroke-linejoin:round;">
<path d="M4294 5894
L4549 5894
" />
<path d="M4549 5894
L4549 6445
" />
<path d="M4294 6445
L4549 6445
" />
<path d="M4294 5894
L4294 6445
" />
<path d="M3714 5894
L3970 5894
" />
<path d="M3970 5894
L3970 6445
" />
<path d="M3714 6445
L3970 6445
" />
<path d="M3714 5894
L3714 6445
" />
<path d="M4056 5973
L4212 5973
" />
<path d="M4212 5973
L4212 6365
" />
<path d="M4056 6365
L4212 6365
" />
<path d="M4056 5973
L4056 6365
" />
</g>
<g style="fill:#840084; fill-opacity:0.0; 
stroke:#840084; stroke-width:60; stroke-opacity:1; 
stroke-linecap:round; stroke-linejoin:round;">
<path d="M3973 6419
L4295 6419
" />
<path d="M3973 5919
L4295 5919
" />
</g>
<g style="fill:#840084; fill-opacity:0.0; 
stroke:#840084; stroke-width:20; stroke-opacity:1; 
stroke-linecap:round; stroke-linejoin:round;">
<path d="M3358 6556
L4910 6556
" />
<path d="M4910 6556
L4910 5782
" />
<path d="M4910 5782
L3358 5782
" />
<path d="M3358 5782
L3358 6556
" />
</g>
<g style="fill:#840084; fill-opacity:0.0; 
stroke:#840084; stroke-width:26; stroke-opacity:1; 
stroke-linecap:round; stroke-linejoin:round;">
<path d="M7974 3694
L7719 3694
" />
<path d="M7719 3694
L7719 3143
" />
<path d="M7974 3143
L7719 3143
" />
<path d="M7974 3694
L7974 3143
" />
<path d="M8554 3694
L8298 3694
" />
<path d="M8298 3694
L8298 3143
" />
<path d="M8554 3143
L8298 3143
" />
<path d="M8554 3694
L8554 3143
" />
<path d="M8212 3615
L8056 3615
" />
<path d="M8056 3615
L8056 3223
" />
<path d="M8212 3223
L8056 3223
" />
<path d="M8212 3615
L8212 3223
" />
</g>
<g style="fill:#840084; fill-opacity:0.0; 
stroke:#840084; stroke-width:60; stroke-opacity:1; 
stroke-linecap:round; stroke-linejoin:round;">
<path d="M8295 3169
L7973 3169
" />
<path d="M8295 3669
L7973 3669
" />
</g>
<g style="fill:#840084; fill-opacity:0.0; 
stroke:#840084; stroke-width:20; stroke-opacity:1; 
stroke-linecap:round; stroke-linejoin:round;">
<path d="M8910 3032
L7358 3032
" />
<path d="M7358 3032
L7358 3806
" />
<path d="M7358 3806
L8910 3806
" />
<path d="M8910 3806
L8910 3032
" />
</g>
<g style="fill:#840084; fill-opacity:0.0; 
stroke:#840084; stroke-width:26; stroke-opacity:1; 
stroke-linecap:round; stroke-linejoin:round;">
<path d="M10974 3694
L10719 3694
" />
<path d="M10719 3694
L10719 3143
" />
<path d="M10974 3143
L10719 3143
" />
<path d="M10974 3694
L10974 3143
" />
<path d="M11554 3694
L11298 3694
" />
<path d="M11298 3694
L11298 3143
" />
<path d="M11554 3143
L11298 3143
" />
<path d="M11554 3694
L11554 3143
" />
<path d="M11212 3615
L11056 3615
" />
<path d="M11056 3615
L11056 3223
" />
<path d="M11212 3223
L11056 3223
" />
<path d="M11212 3615
L11212 3223
" />
</g>
<g style="fill:#840084; fill-opacity:0.0; 
stroke:#840084; stroke-width:60; stroke-opacity:1; 
stroke-linecap:round; stroke-linejoin:round;">
<path d="M11295 3169
L10973 3169
" />
<path d="M11295 3669
L10973 3669
" />
</g>
<g style="fill:#840084; fill-opacity:0.0; 
stroke:#840084; stroke-width:20; stroke-opacity:1; 
stroke-linecap:round; stroke-linejoin:round;">
<path d="M11910 3032
L10358 3032
" />
<path d="M10358 3032
L10358 3806
" />
<path d="M10358 3806
L11910 3806
" />
<path d="M11910 3806
L11910 3032
" />
</g>
<g style="fill:#840084; fill-opacity:0.0; 
stroke:#840084; stroke-width:26; stroke-opacity:1; 
stroke-linecap:round; stroke-linejoin:round;">
<path d="M13974 3694
L13719 3694
" />
<path d="M13719 3694
L13719 3143
" />
<path d="M13974 3143
L13719 3143
" />
<path d="M13974 3694
L13974 3143
" />
<path d="M14554 3694
L14298 3694
" />
<path d="M14298 3694
L14298 3143
" />
<path d="M14554 3143
L14298 3143
" />
<path d="M14554 3694
L14554 3143
" />
<path d="M14212 3615
L14056 3615
" />
<path d="M14056 3615
L14056 3223
" />
<path d="M14212 3223
L14056 3223
" />
<path d="M14212 3615
L14212 3223
" />
</g>
<g style="fill:#840084; fill-opacity:0.0; 
stroke:#840084; stroke-width:60; stroke-opacity:1; 
stroke-linecap:round; stroke-linejoin:round;">
<path d="M14295 3169
L13973 3169
" />
<path d="M14295 3669
L13973 3669
" />
</g>
<g style="fill:#840084; fill-opacity:0.0; 
stroke:#840084; stroke-width:20; stroke-opacity:1; 
stroke-linecap:round; stroke-linejoin:round;">
<path d="M14910 3032
L13358 3032
" />
<path d="M13358 3032
L13358 3806
" />
<path d="M13358 3806
L14910 3806
" />
<path d="M14910 3806
L14910 3032
" />
</g>
<g style="fill:#840084; fill-opacity:0.0; 
stroke:#840084; stroke-width:26; stroke-opacity:1; 
stroke-linecap:round; stroke-linejoin:round;">
<path d="M16974 3694
L16719 3694
" />
<path d="M16719 3694
L16719 3143
" />
<path d="M16974 3143
L16719 3143
" />
<path d="M16974 3694
L16974 3143
" />
<path d="M17554 3694
L17298 3694
" />
<path d="M17298 3694
L17298 3143
" />
<path d="M17554 3143
L17298 3143
" />
<path d="M17554 3694
L17554 3143
" />
<path d="M17212 3615
L17056 3615
" />
<path d="M17056 3615
L17056 3223
" />
<path d="M17212 3223
L17056 3223
" />
<path d="M17212 3615
L17212 3223
" />
</g>
<g style="fill:#840084; fill-opacity:0.0; 
stroke:#840084; stroke-width:60; stroke-opacity:1; 
stroke-linecap:round; stroke-linejoin:round;">
<path d="M17295 3169
L16973 3169
" />
<path d="M17295 3669
L16973 3669
" />
</g>
<g style="fill:#840084; fill-opacity:0.0; 
stroke:#840084; stroke-width:20; stroke-opacity:1; 
stroke-linecap:round; stroke-linejoin:round;">
<path d="M17910 3032
L16358 3032
" />
<path d="M16358 3032
L16358 3806
" />
<path d="M16358 3806
L17910 3806
" />
<path d="M17910 3806
L17910 3032
" />
</g>
<g style="fill:#840084; fill-opacity:0.0; 
stroke:#840084; stroke-width:26; stroke-opacity:1; 
stroke-linecap:round; stroke-linejoin:round;">
<path d="M11409 6429
L11409 6684
" />
<path d="M11409 6684
L10858 6684
" />
<path d="M10858 6429
L10858 6684
" />
<path d="M11409 6429
L10858 6429
" />
<path d="M11409 5849
L11409 6105
" />
<path d="M11409 6105
L10858 6105
" />
<path d="M10858 5849
L10858 6105
" />
<path d="M11409 5849
L10858 5849
" />
<path d="M11330 6191
L11330 6347
" />
<path d="M11330 6347
L10938 6347
" />
<path d="M10938 6191
L10938 6347
" />
<path d="M11330 6191
L10938 6191
" />
</g>
<g style="fill:#840084; fill-opacity:0.0; 
stroke:#840084; stroke-width:60; stroke-opacity:1; 
stroke-linecap:round; stroke-linejoin:round;">
<path d="M10884 6108
L10884 6430
" />
<path d="M11384 6108
L11384 6430
" />
</g>
<g style="fill:#840084; fill-opacity:0.0; 
stroke:#840084; stroke-width:20; stroke-opacity:1; 
stroke-linecap:round; stroke-linejoin:round;">
<path d="M10747 5493
L10747 7045
" />
<path d="M10747 7045
L11521 7045
" />
<path d="M11521 7045
L11521 5493
" />
<path d="M11521 5493
L10747 5493
" />
</g>
<g style="fill:#840084; fill-opacity:0.0; 
stroke:#840084; stroke-width:26; stroke-opacity:1; 
stroke-linecap:round; stroke-linejoin:round;">
<path d="M16594 4794
L16849 4794
" />
<path d="M16849 4794
L16849 5345
" />
<path d="M16594 5345
L16849 5345
" />
<path d="M16594 4794
L16594 5345
" />
<path d="M16014 4794
L16270 4794
" />
<path d="M16270 4794
L16270 5345
" />
<path d="M16014 5345
L16270 5345
" />
<path d="M16014 4794
L16014 5345
" />
<path d="M16356 4873
L16512 4873
" />
<path d="M16512 4873
L16512 5265
" />
<path d="M16356 5265
L16512 5265
" />
<path d="M16356 4873
L16356 5265
" />
</g>
<g style="fill:#840084; fill-opacity:0.0; 
stroke:#840084; stroke-width:60; stroke-opacity:1; 
stroke-linecap:round; stroke-linejoin:round;">
<path d="M16273 5319
L16595 5319
" />
<path d="M16273 4819
L16595 4819
" />
</g>
<g style="fill:#840084; fill-opacity:0.0; 
stroke:#840084; stroke-width:20; stroke-opacity:1; 
stroke-linecap:round; stroke-linejoin:round;">
<path d="M15658 5456
L17210 5456
" />
<path d="M17210 5456
L17210 4682
" />
<path d="M17210 4682
L15658 4682
" />
<path d="M15658 4682
L15658 5456
" />
</g>
<g style="fill:#840084; fill-opacity:0.0; 
stroke:#840084; stroke-width:26; stroke-opacity:1; 
stroke-linecap:round; stroke-linejoin:round;">
<path d="M13694 9594
L13949 9594
" />
<path d="M13949 9594
L13949 10145
" />
<path d="M13694 10145
L13949 10145
" />
<path d="M13694 9594
L13694 10145
" />
<path d="M13114 9594
L13370 9594
" />
<path d="M13370 9594
L13370 10145
" />
<path d="M13114 10145
L13370 10145
" />
<path d="M13114 9594
L13114 10145
" />
<path d="M13456 9673
L13612 9673
" />
<path d="M13612 9673
L13612 10065
" />
<path d="M13456 10065
L13612 10065
" />
<path d="M13456 9673
L13456 10065
" />
</g>
<g style="fill:#840084; fill-opacity:0.0; 
stroke:#840084; stroke-width:60; stroke-opacity:1; 
stroke-linecap:round; stroke-linejoin:round;">
<path d="M13373 10119
L13695 10119
" />
<path d="M13373 9619
L13695 9619
" />
</g>
<g style="fill:#840084; fill-opacity:0.0; 
stroke:#840084; stroke-width:20; stroke-opacity:1; 
stroke-linecap:round; stroke-linejoin:round;">
<path d="M12758 10256
L14310 10256
" />
<path d="M14310 10256
L14310 9482
" />
<path d="M14310 9482
L12758 9482
" />
<path d="M12758 9482
L12758 10256
" />
</g>
<g style="fill:#840084; fill-opacity:0.0; 
stroke:#840084; stroke-width:26; stroke-opacity:1; 
stroke-linecap:round; stroke-linejoin:round;">
<path d="M11694 9594
L11949 9594
" />
<path d="M11949 9594
L11949 10145
" />
<path d="M11694 10145
L11949 10145
" />
<path d="M11694 9594
L11694 10145
" />
<path d="M11114 9594
L11370 9594
" />
<path d="M11370 9594
L11370 10145
" />
<path d="M11114 10145
L11370 10145
" />
<path d="M11114 9594
L11114 10145
" />
<path d="M11456 9673
L11612 9673
" />
<path d="M11612 9673
L11612 10065
" />
<path d="M11456 10065
L11612 10065
" />
<path d="M11456 9673
L11456 10065
" />
</g>
<g style="fill:#840084; fill-opacity:0.0; 
stroke:#840084; stroke-width:60; stroke-opacity:1; 
stroke-linecap:round; stroke-linejoin:round;">
<path d="M11373 10119
L11695 10119
" />
<path d="M11373 9619
L11695 9619
" />
</g>
<g style="fill:#840084; fill-opacity:0.0; 
stroke:#840084; stroke-width:20; stroke-opacity:1; 
stroke-linecap:round; stroke-linejoin:round;">
<path d="M10758 10256
L12310 10256
" />
<path d="M12310 10256
L12310 9482
" />
<path d="M12310 9482
L10758 9482
" />
<path d="M10758 9482
L10758 10256
" />
</g>
<g style="fill:#840084; fill-opacity:0.0; 
stroke:#840084; stroke-width:26; stroke-opacity:1; 
stroke-linecap:round; stroke-linejoin:round;">
<path d="M10694 7794
L10949 7794
" />
<path d="M10949 7794
L10949 8345
" />
<path d="M10694 8345
L10949 8345
" />
<path d="M10694 7794
L10694 8345
" />
<path d="M10114 7794
L10370 7794
" />
<path d="M10370 7794
L10370 8345
" />
<path d="M10114 8345
L10370 8345
" />
<path d="M10114 7794
L10114 8345
" />
<path d="M10456 7873
L10612 7873
" />
<path d="M10612 7873
L10612 8265
" />
<path d="M10456 8265
L10612 8265
" />
<path d="M10456 7873
L10456 8265
" />
</g>
<g style="fill:#840084; fill-opacity:0.0; 
stroke:#840084; stroke-width:60; stroke-opacity:1; 
stroke-linecap:round; stroke-linejoin:round;">
<path d="M10373 8319
L10695 8319
" />
<path d="M10373 7819
L10695 7819
" />
</g>
<g style="fill:#840084; fill-opacity:0.0; 
stroke:#840084; stroke-width:20; stroke-opacity:1; 
stroke-linecap:round; stroke-linejoin:round;">
<path d="M9758 8456
L11310 8456
" />
<path d="M11310 8456
L11310 7682
" />
<path d="M11310 7682
L9758 7682
" />
<path d="M9758 7682
L9758 8456
" />
</g>
<g style="fill:#840084; fill-opacity:0.0; 
stroke:#840084; stroke-width:26; stroke-opacity:1; 
stroke-linecap:round; stroke-linejoin:round;">
<path d="M12694 5594
L12949 5594
" />
<path d="M12949 5594
L12949 6145
" />
<path d="M12694 6145
L12949 6145
" />
<path d="M12694 5594
L12694 6145
" />
<path d="M12114 5594
L12370 5594
" />
<path d="M12370 5594
L12370 6145
" />
<path d="M12114 6145
L12370 6145
" />
<path d="M12114 5594
L12114 6145
" />
<path d="M12456 5673
L12612 5673
" />
<path d="M12612 5673
L12612 6065
" />
<path d="M12456 6065
L12612 6065
" />
<path d="M12456 5673
L12456 6065
" />
</g>
<g style="fill:#840084; fill-opacity:0.0; 
stroke:#840084; stroke-width:60; stroke-opacity:1; 
stroke-linecap:round; stroke-linejoin:round;">
<path d="M12373 6119
L12695 6119
" />
<path d="M12373 5619
L12695 5619
" />
</g>
<g style="fill:#840084; fill-opacity:0.0; 
stroke:#840084; stroke-width:20; stroke-opacity:1; 
stroke-linecap:round; stroke-linejoin:round;">
<path d="M11758 6256
L13310 6256
" />
<path d="M13310 6256
L13310 5482
" />
<path d="M13310 5482
L11758 5482
" />
<path d="M11758 5482
L11758 6256
" />
</g>
<g style="fill:#840084; fill-opacity:0.0; 
stroke:#840084; stroke-width:26; stroke-opacity:1; 
stroke-linecap:round; stroke-linejoin:round;">
<path d="M14694 7794
L14949 7794
" />
<path d="M14949 7794
L14949 8345
" />
<path d="M14694 8345
L14949 8345
" />
<path d="M14694 7794
L14694 8345
" />
<path d="M14114 7794
L14370 7794
" />
<path d="M14370 7794
L14370 8345
" />
<path d="M14114 8345
L14370 8345
" />
<path d="M14114 7794
L14114 8345
" />
<path d="M14456 7873
L14612 7873
" />
<path d="M14612 7873
L14612 8265
" />
<path d="M14456 8265
L14612 8265
" />
<path d="M14456 7873
L14456 8265
" />
</g>
<g style="fill:#840084; fill-opacity:0.0; 
stroke:#840084; stroke-width:60; stroke-opacity:1; 
stroke-linecap:round; stroke-linejoin:round;">
<path d="M14373 8319
L14695 8319
" />
<path d="M14373 7819
L14695 7819
" />
</g>
<g style="fill:#840084; fill-opacity:0.0; 
stroke:#840084; stroke-width:20; stroke-opacity:1; 
stroke-linecap:round; stroke-linejoin:round;">
<path d="M13758 8456
L15310 8456
" />
<path d="M15310 8456
L15310 7682
" />
<path d="M15310 7682
L13758 7682
" />
<path d="M13758 7682
L13758 8456
" />
</g>
<g style="fill:#840084; fill-opacity:0.0; 
stroke:#840084; stroke-width:26; stroke-opacity:1; 
stroke-linecap:round; stroke-linejoin:round;">
<path d="M12694 7794
L12949 7794
" />
<path d="M12949 7794
L12949 8345
" />
<path d="M12694 8345
L12949 8345
" />
<path d="M12694 7794
L12694 8345
" />
<path d="M12114 7794
L12370 7794
" />
<path d="M12370 7794
L12370 8345
" />
<path d="M12114 8345
L12370 8345
" />
<path d="M12114 7794
L12114 8345
" />
<path d="M12456 7873
L12612 7873
" />
<path d="M12612 7873
L12612 8265
" />
<path d="M12456 8265
L12612 8265
" />
<path d="M12456 7873
L12456 8265
" />
</g>
<g style="fill:#840084; fill-opacity:0.0; 
stroke:#840084; stroke-width:60; stroke-opacity:1; 
stroke-linecap:round; stroke-linejoin:round;">
<path d="M12373 8319
L12695 8319
" />
<path d="M12373 7819
L12695 7819
" />
</g>
<g style="fill:#840084; fill-opacity:0.0; 
stroke:#840084; stroke-width:20; stroke-opacity:1; 
stroke-linecap:round; stroke-linejoin:round;">
<path d="M11758 8456
L13310 8456
" />
<path d="M13310 8456
L13310 7682
" />
<path d="M13310 7682
L11758 7682
" />
<path d="M11758 7682
L11758 8456
" />
</g>
<g style="fill:#840084; fill-opacity:0.0; 
stroke:#840084; stroke-width:26; stroke-opacity:1; 
stroke-linecap:round; stroke-linejoin:round;">
<path d="M28444 8894
L28699 8894
" />
<path d="M28699 8894
L28699 9445
" />
<path d="M28444 9445
L28699 9445
" />
<path d="M28444 8894
L28444 9445
" />
<path d="M27864 8894
L28120 8894
" />
<path d="M28120 8894
L28120 9445
" />
<path d="M27864 9445
L28120 9445
" />
<path d="M27864 8894
L27864 9445
" />
<path d="M28206 8973
L28362 8973
" />
<path d="M28362 8973
L28362 9365
" />
<path d="M28206 9365
L28362 9365
" />
<path d="M28206 8973
L28206 9365
" />
</g>
<g style="fill:#840084; fill-opacity:0.0; 
stroke:#840084; stroke-width:60; stroke-opacity:1; 
stroke-linecap:round; stroke-linejoin:round;">
<path d="M28123 9419
L28445 9419
" />
<path d="M28123 8919
L28445 8919
" />
</g>
<g style="fill:#840084; fill-opacity:0.0; 
stroke:#840084; stroke-width:20; stroke-opacity:1; 
stroke-linecap:round; stroke-linejoin:round;">
<path d="M27508 9556
L29060 9556
" />
<path d="M29060 9556
L29060 8782
" />
<path d="M29060 8782
L27508 8782
" />
<path d="M27508 8782
L27508 9556
" />
</g>
<g style="fill:#840084; fill-opacity:0.0; 
stroke:#840084; stroke-width:26; stroke-opacity:1; 
stroke-linecap:round; stroke-linejoin:round;">
<path d="M30059 4609
L30059 4354
" />
<path d="M30059 4354
L30610 4354
" />
<path d="M30610 4609
L30610 4354
" />
<path d="M30059 4609
L30610 4609
" />
<path d="M30059 5189
L30059 4933
" />
<path d="M30059 4933
L30610 4933
" />
<path d="M30610 5189
L30610 4933
" />
<path d="M30059 5189
L30610 5189
" />
<path d="M30138 4847
L30138 4691
" />
<path d="M30138 4691
L30530 4691
" />
<path d="M30530 4847
L30530 4691
" />
<path d="M30138 4847
L30530 4847
" />
</g>
<g style="fill:#840084; fill-opacity:0.0; 
stroke:#840084; stroke-width:60; stroke-opacity:1; 
stroke-linecap:round; stroke-linejoin:round;">
<path d="M30584 4930
L30584 4608
" />
<path d="M30084 4930
L30084 4608
" />
</g>
<g style="fill:#840084; fill-opacity:0.0; 
stroke:#840084; stroke-width:20; stroke-opacity:1; 
stroke-linecap:round; stroke-linejoin:round;">
<path d="M30721 5545
L30721 3993
" />
<path d="M30721 3993
L29947 3993
" />
<path d="M29947 3993
L29947 5545
" />
<path d="M29947 5545
L30721 5545
" />
</g>
<g style="fill:#840084; fill-opacity:0.0; 
stroke:#840084; stroke-width:26; stroke-opacity:1; 
stroke-linecap:round; stroke-linejoin:round;">
<path d="M30859 16409
L30859 16154
" />
<path d="M30859 16154
L31410 16154
" />
<path d="M31410 16409
L31410 16154
" />
<path d="M30859 16409
L31410 16409
" />
<path d="M30859 16989
L30859 16733
" />
<path d="M30859 16733
L31410 16733
" />
<path d="M31410 16989
L31410 16733
" />
<path d="M30859 16989
L31410 16989
" />
<path d="M30938 16647
L30938 16491
" />
<path d="M30938 16491
L31330 16491
" />
<path d="M31330 16647
L31330 16491
" />
<path d="M30938 16647
L31330 16647
" />
</g>
<g style="fill:#840084; fill-opacity:0.0; 
stroke:#840084; stroke-width:60; stroke-opacity:1; 
stroke-linecap:round; stroke-linejoin:round;">
<path d="M31384 16730
L31384 16408
" />
<path d="M30884 16730
L30884 16408
" />
</g>
<g style="fill:#840084; fill-opacity:0.0; 
stroke:#840084; stroke-width:20; stroke-opacity:1; 
stroke-linecap:round; stroke-linejoin:round;">
<path d="M31521 17345
L31521 15793
" />
<path d="M31521 15793
L30747 15793
" />
<path d="M30747 15793
L30747 17345
" />
<path d="M30747 17345
L31521 17345
" />
</g>
<g style="fill:#840084; fill-opacity:0.0; 
stroke:#840084; stroke-width:26; stroke-opacity:1; 
stroke-linecap:round; stroke-linejoin:round;">
<path d="M32209 16729
L32209 16984
" />
<path d="M32209 16984
L31658 16984
" />
<path d="M31658 16729
L31658 16984
" />
<path d="M32209 16729
L31658 16729
" />
<path d="M32209 16149
L32209 16405
" />
<path d="M32209 16405
L31658 16405
" />
<path d="M31658 16149
L31658 16405
" />
<path d="M32209 16149
L31658 16149
" />
<path d="M32130 16491
L32130 16647
" />
<path d="M32130 16647
L31738 16647
" />
<path d="M31738 16491
L31738 16647
" />
<path d="M32130 16491
L31738 16491
" />
</g>
<g style="fill:#840084; fill-opacity:0.0; 
stroke:#840084; stroke-width:60; stroke-opacity:1; 
stroke-linecap:round; stroke-linejoin:round;">
<path d="M31684 16408
L31684 16730
" />
<path d="M32184 16408
L32184 16730
" />
</g>
<g style="fill:#840084; fill-opacity:0.0; 
stroke:#840084; stroke-width:20; stroke-opacity:1; 
stroke-linecap:round; stroke-linejoin:round;">
<path d="M31547 15793
L31547 17345
" />
<path d="M31547 17345
L32321 17345
" />
<path d="M32321 17345
L32321 15793
" />
<path d="M32321 15793
L31547 15793
" />
</g>
<g style="fill:#840084; fill-opacity:0.0; 
stroke:#840084; stroke-width:26; stroke-opacity:1; 
stroke-linecap:round; stroke-linejoin:round;">
<path d="M34174 15444
L33919 15444
" />
<path d="M33919 15444
L33919 14893
" />
<path d="M34174 14893
L33919 14893
" />
<path d="M34174 15444
L34174 14893
" />
<path d="M34754 15444
L34498 15444
" />
<path d="M34498 15444
L34498 14893
" />
<path d="M34754 14893
L34498 14893
" />
<path d="M34754 15444
L34754 14893
" />
<path d="M34412 15365
L34256 15365
" />
<path d="M34256 15365
L34256 14973
" />
<path d="M34412 14973
L34256 14973
" />
<path d="M34412 15365
L34412 14973
" />
</g>
<g style="fill:#840084; fill-opacity:0.0; 
stroke:#840084; stroke-width:60; stroke-opacity:1; 
stroke-linecap:round; stroke-linejoin:round;">
<path d="M34495 14919
L34173 14919
" />
<path d="M34495 15419
L34173 15419
" />
</g>
<g style="fill:#840084; fill-opacity:0.0; 
stroke:#840084; stroke-width:20; stroke-opacity:1; 
stroke-linecap:round; stroke-linejoin:round;">
<path d="M35110 14782
L33558 14782
" />
<path d="M33558 14782
L33558 15556
" />
<path d="M33558 15556
L35110 15556
" />
<path d="M35110 15556
L35110 14782
" />
</g>
<g style="fill:#840084; fill-opacity:0.0; 
stroke:#840084; stroke-width:26; stroke-opacity:1; 
stroke-linecap:round; stroke-linejoin:round;">
<path d="M34174 16944
L33919 16944
" />
<path d="M33919 16944
L33919 16393
" />
<path d="M34174 16393
L33919 16393
" />
<path d="M34174 16944
L34174 16393
" />
<path d="M34754 16944
L34498 16944
" />
<path d="M34498 16944
L34498 16393
" />
<path d="M34754 16393
L34498 16393
" />
<path d="M34754 16944
L34754 16393
" />
<path d="M34412 16865
L34256 16865
" />
<path d="M34256 16865
L34256 16473
" />
<path d="M34412 16473
L34256 16473
" />
<path d="M34412 16865
L34412 16473
" />
</g>
<g style="fill:#840084; fill-opacity:0.0; 
stroke:#840084; stroke-width:60; stroke-opacity:1; 
stroke-linecap:round; stroke-linejoin:round;">
<path d="M34495 16419
L34173 16419
" />
<path d="M34495 16919
L34173 16919
" />
</g>
<g style="fill:#840084; fill-opacity:0.0; 
stroke:#840084; stroke-width:20; stroke-opacity:1; 
stroke-linecap:round; stroke-linejoin:round;">
<path d="M35110 16282
L33558 16282
" />
<path d="M33558 16282
L33558 17056
" />
<path d="M33558 17056
L35110 17056
" />
<path d="M35110 17056
L35110 16282
" />
</g>
<g style="fill:#840084; fill-opacity:0.0; 
stroke:#840084; stroke-width:26; stroke-opacity:1; 
stroke-linecap:round; stroke-linejoin:round;">
<path d="M4294 4394
L4549 4394
" />
<path d="M4549 4394
L4549 4945
" />
<path d="M4294 4945
L4549 4945
" />
<path d="M4294 4394
L4294 4945
" />
<path d="M3714 4394
L3970 4394
" />
<path d="M3970 4394
L3970 4945
" />
<path d="M3714 4945
L3970 4945
" />
<path d="M3714 4394
L3714 4945
" />
<path d="M4056 4473
L4212 4473
" />
<path d="M4212 4473
L4212 4865
" />
<path d="M4056 4865
L4212 4865
" />
<path d="M4056 4473
L4056 4865
" />
</g>
<g style="fill:#840084; fill-opacity:0.0; 
stroke:#840084; stroke-width:60; stroke-opacity:1; 
stroke-linecap:round; stroke-linejoin:round;">
<path d="M3973 4919
L4295 4919
" />
<path d="M3973 4419
L4295 4419
" />
</g>
<g style="fill:#840084; fill-opacity:0.0; 
stroke:#840084; stroke-width:20; stroke-opacity:1; 
stroke-linecap:round; stroke-linejoin:round;">
<path d="M3358 5056
L4910 5056
" />
<path d="M4910 5056
L4910 4282
" />
<path d="M4910 4282
L3358 4282
" />
<path d="M3358 4282
L3358 5056
" />
</g>
<g style="fill:#840084; fill-opacity:0.0; 
stroke:#840084; stroke-width:26; stroke-opacity:1; 
stroke-linecap:round; stroke-linejoin:round;">
<path d="M20259 3609
L20259 3354
" />
<path d="M20259 3354
L20810 3354
" />
<path d="M20810 3609
L20810 3354
" />
<path d="M20259 3609
L20810 3609
" />
<path d="M20259 4189
L20259 3933
" />
<path d="M20259 3933
L20810 3933
" />
<path d="M20810 4189
L20810 3933
" />
<path d="M20259 4189
L20810 4189
" />
<path d="M20338 3847
L20338 3691
" />
<path d="M20338 3691
L20730 3691
" />
<path d="M20730 3847
L20730 3691
" />
<path d="M20338 3847
L20730 3847
" />
</g>
<g style="fill:#840084; fill-opacity:0.0; 
stroke:#840084; stroke-width:60; stroke-opacity:1; 
stroke-linecap:round; stroke-linejoin:round;">
<path d="M20784 3930
L20784 3608
" />
<path d="M20284 3930
L20284 3608
" />
</g>
<g style="fill:#840084; fill-opacity:0.0; 
stroke:#840084; stroke-width:20; stroke-opacity:1; 
stroke-linecap:round; stroke-linejoin:round;">
<path d="M20921 4545
L20921 2993
" />
<path d="M20921 2993
L20147 2993
" />
<path d="M20147 2993
L20147 4545
" />
<path d="M20147 4545
L20921 4545
" />
</g>
<g style="fill:#840084; fill-opacity:0.0; 
stroke:#840084; stroke-width:26; stroke-opacity:1; 
stroke-linecap:round; stroke-linejoin:round;">
<path d="M26159 4609
L26159 4354
" />
<path d="M26159 4354
L26710 4354
" />
<path d="M26710 4609
L26710 4354
" />
<path d="M26159 4609
L26710 4609
" />
<path d="M26159 5189
L26159 4933
" />
<path d="M26159 4933
L26710 4933
" />
<path d="M26710 5189
L26710 4933
" />
<path d="M26159 5189
L26710 5189
" />
<path d="M26238 4847
L26238 4691
" />
<path d="M26238 4691
L26630 4691
" />
<path d="M26630 4847
L26630 4691
" />
<path d="M26238 4847
L26630 4847
" />
</g>
<g style="fill:#840084; fill-opacity:0.0; 
stroke:#840084; stroke-width:60; stroke-opacity:1; 
stroke-linecap:round; stroke-linejoin:round;">
<path d="M26684 4930
L26684 4608
" />
<path d="M26184 4930
L26184 4608
" />
</g>
<g style="fill:#840084; fill-opacity:0.0; 
stroke:#840084; stroke-width:20; stroke-opacity:1; 
stroke-linecap:round; stroke-linejoin:round;">
<path d="M26821 5545
L26821 3993
" />
<path d="M26821 3993
L26047 3993
" />
<path d="M26047 3993
L26047 5545
" />
<path d="M26047 5545
L26821 5545
" />
</g>
<g style="fill:#840084; fill-opacity:0.0; 
stroke:#840084; stroke-width:26; stroke-opacity:1; 
stroke-linecap:round; stroke-linejoin:round;">
<path d="M32209 18429
L32209 18684
" />
<path d="M32209 18684
L31658 18684
" />
<path d="M31658 18429
L31658 18684
" />
<path d="M32209 18429
L31658 18429
" />
<path d="M32209 17849
L32209 18105
" />
<path d="M32209 18105
L31658 18105
" />
<path d="M31658 17849
L31658 18105
" />
<path d="M32209 17849
L31658 17849
" />
<path d="M32130 18191
L32130 18347
" />
<path d="M32130 18347
L31738 18347
" />
<path d="M31738 18191
L31738 18347
" />
<path d="M32130 18191
L31738 18191
" />
</g>
<g style="fill:#840084; fill-opacity:0.0; 
stroke:#840084; stroke-width:60; stroke-opacity:1; 
stroke-linecap:round; stroke-linejoin:round;">
<path d="M31684 18108
L31684 18430
" />
<path d="M32184 18108
L32184 18430
" />
</g>
<g style="fill:#840084; fill-opacity:0.0; 
stroke:#840084; stroke-width:20; stroke-opacity:1; 
stroke-linecap:round; stroke-linejoin:round;">
<path d="M31547 17493
L31547 19045
" />
<path d="M31547 19045
L32321 19045
" />
<path d="M32321 19045
L32321 17493
" />
<path d="M32321 17493
L31547 17493
" />
</g>
<g style="fill:#840084; fill-opacity:0.0; 
stroke:#840084; stroke-width:26; stroke-opacity:1; 
stroke-linecap:round; stroke-linejoin:round;">
<path d="M30574 18044
L30319 18044
" />
<path d="M30319 18044
L30319 17493
" />
<path d="M30574 17493
L30319 17493
" />
<path d="M30574 18044
L30574 17493
" />
<path d="M31154 18044
L30898 18044
" />
<path d="M30898 18044
L30898 17493
" />
<path d="M31154 17493
L30898 17493
" />
<path d="M31154 18044
L31154 17493
" />
<path d="M30812 17965
L30656 17965
" />
<path d="M30656 17965
L30656 17573
" />
<path d="M30812 17573
L30656 17573
" />
<path d="M30812 17965
L30812 17573
" />
</g>
<g style="fill:#840084; fill-opacity:0.0; 
stroke:#840084; stroke-width:60; stroke-opacity:1; 
stroke-linecap:round; stroke-linejoin:round;">
<path d="M30895 17519
L30573 17519
" />
<path d="M30895 18019
L30573 18019
" />
</g>
<g style="fill:#840084; fill-opacity:0.0; 
stroke:#840084; stroke-width:20; stroke-opacity:1; 
stroke-linecap:round; stroke-linejoin:round;">
<path d="M31510 17382
L29958 17382
" />
<path d="M29958 17382
L29958 18156
" />
<path d="M29958 18156
L31510 18156
" />
<path d="M31510 18156
L31510 17382
" />
</g>
<g style="fill:#840084; fill-opacity:0.0; 
stroke:#840084; stroke-width:150; stroke-opacity:1; 
stroke-linecap:round; stroke-linejoin:round;">
<path d="M32334 5692
L32334 5633
" />
<path d="M32334 6026
L32334 6105
" />
<path d="M32334 5692
L32039 5692
" />
<path d="M32334 5692
L32610 5692
" />
<path d="M32334 5692
L32610 6026
" />
<path d="M32610 6026
L32058 6026
" />
<path d="M32058 6026
L32334 5692
" />
</g>
<g style="fill:#840084; fill-opacity:0.0; 
stroke:#840084; stroke-width:50; stroke-opacity:1; 
stroke-linecap:round; stroke-linejoin:round;">
<path d="M3165 14988
L3165 15973
" />
<path d="M3165 15973
L2968 15973
" />
<path d="M2968 15973
L2968 16365
" />
<path d="M2968 16365
L3165 16365
" />
<path d="M3165 16365
L3165 17350
" />
<path d="M3165 17350
L4936 17350
" />
<path d="M4936 17350
L4936 14988
" />
<path d="M4936 14988
L3165 14988
" />
</g>
<g style="fill:#840084; fill-opacity:0.0; 
stroke:#840084; stroke-width:26; stroke-opacity:1; 
stroke-linecap:round; stroke-linejoin:round;">
<path d="M26009 20929
L26009 21184
" />
<path d="M26009 21184
L25458 21184
" />
<path d="M25458 20929
L25458 21184
" />
<path d="M26009 20929
L25458 20929
" />
<path d="M26009 20349
L26009 20605
" />
<path d="M26009 20605
L25458 20605
" />
<path d="M25458 20349
L25458 20605
" />
<path d="M26009 20349
L25458 20349
" />
<path d="M25930 20691
L25930 20847
" />
<path d="M25930 20847
L25538 20847
" />
<path d="M25538 20691
L25538 20847
" />
<path d="M25930 20691
L25538 20691
" />
</g>
<g style="fill:#840084; fill-opacity:0.0; 
stroke:#840084; stroke-width:60; stroke-opacity:1; 
stroke-linecap:round; stroke-linejoin:round;">
<path d="M25484 20608
L25484 20930
" />
<path d="M25984 20608
L25984 20930
" />
</g>
<g style="fill:#840084; fill-opacity:0.0; 
stroke:#840084; stroke-width:20; stroke-opacity:1; 
stroke-linecap:round; stroke-linejoin:round;">
<path d="M25347 19993
L25347 21545
" />
<path d="M25347 21545
L26121 21545
" />
<path d="M26121 21545
L26121 19993
" />
<path d="M26121 19993
L25347 19993
" />
</g>
<g style="fill:#840084; fill-opacity:0.0; 
stroke:#840084; stroke-width:59.0551; stroke-opacity:1; 
stroke-linecap:round; stroke-linejoin:round;">
<path d="M20184 10969
L20184 14969
" />
<path d="M20184 14969
L23484 14969
" />
<path d="M23484 14969
L23484 10969
" />
<path d="M23484 10969
L20184 10969
" />
<path d="M22084 14969
L22084 14669
" />
<path d="M22084 14669
L21584 14669
" />
<path d="M21584 14669
L21584 14969
" />
<path d="M20184 5469
L20184 9469
" />
<path d="M20184 9469
L23484 9469
" />
<path d="M23484 9469
L23484 5469
" />
<path d="M23484 5469
L20184 5469
" />
<path d="M22084 9469
L22084 9169
" />
<path d="M22084 9169
L21584 9169
" />
<path d="M21584 9169
L21584 9469
" />
</g>
<g style="fill:#840084; fill-opacity:0.0; 
stroke:#840084; stroke-width:35; stroke-opacity:1; 
stroke-linecap:round; stroke-linejoin:round;">
<path d="M7558 13500
L7530 13510
L7482 13510
L7463 13500
L7453 13491
L7444 13472
L7444 13453
L7453 13433
L7463 13424
L7482 13414
L7520 13405
L7539 13395
L7549 13386
L7558 13367
L7558 13348
L7549 13329
L7539 13319
L7520 13310
L7472 13310
L7444 13319
" />
<path d="M7358 13510
L7358 13310
L7310 13310
L7282 13319
L7263 13338
L7253 13357
L7244 13395
L7244 13424
L7253 13462
L7263 13481
L7282 13500
L7310 13510
L7358 13510
" />
<path d="M7158 13510
L7158 13310
L7091 13453
L7025 13310
L7025 13510
" />
<path d="M6844 13376
L6844 13510
" />
<path d="M6891 13300
L6939 13443
L6815 13443
" />
<path d="M6701 13310
L6682 13310
L6663 13319
L6653 13329
L6644 13348
L6634 13386
L6634 13433
L6644 13472
L6653 13491
L6663 13500
L6682 13510
L6701 13510
L6720 13500
L6730 13491
L6739 13472
L6749 13433
L6749 13386
L6739 13348
L6730 13329
L6720 13319
L6701 13310
" />
<path d="M6549 13405
L6482 13405
" />
<path d="M6453 13510
L6549 13510
L6549 13310
L6453 13310
" />
<path d="M6377 13329
L6368 13319
L6349 13310
L6301 13310
L6282 13319
L6272 13329
L6263 13348
L6263 13367
L6272 13395
L6387 13510
L6263 13510
" />
<path d="M6139 13310
L6120 13310
L6101 13319
L6091 13329
L6082 13348
L6072 13386
L6072 13433
L6082 13472
L6091 13491
L6101 13500
L6120 13510
L6139 13510
L6158 13500
L6168 13491
L6177 13472
L6187 13433
L6187 13386
L6177 13348
L6168 13329
L6158 13319
L6139 13310
" />
<path d="M5891 13510
L5987 13510
L5987 13310
" />
<path d="M5710 13491
L5720 13500
L5749 13510
L5768 13510
L5796 13500
L5815 13481
L5825 13462
L5834 13424
L5834 13395
L5825 13357
L5815 13338
L5796 13319
L5768 13310
L5749 13310
L5720 13319
L5710 13329
" />
<path d="M8658 19050
L8630 19060
L8582 19060
L8563 19050
L8553 19041
L8544 19022
L8544 19003
L8553 18983
L8563 18974
L8582 18964
L8620 18955
L8639 18945
L8649 18936
L8658 18917
L8658 18898
L8649 18879
L8639 18869
L8620 18860
L8572 18860
L8544 18869
" />
<path d="M8458 19060
L8458 18860
L8410 18860
L8382 18869
L8363 18888
L8353 18907
L8344 18945
L8344 18974
L8353 19012
L8363 19031
L8382 19050
L8410 19060
L8458 19060
" />
<path d="M8258 19060
L8258 18860
L8191 19003
L8125 18860
L8125 19060
" />
<path d="M7944 18926
L7944 19060
" />
<path d="M7991 18850
L8039 18993
L7915 18993
" />
<path d="M7801 18860
L7782 18860
L7763 18869
L7753 18879
L7744 18898
L7734 18936
L7734 18983
L7744 19022
L7753 19041
L7763 19050
L7782 19060
L7801 19060
L7820 19050
L7830 19041
L7839 19022
L7849 18983
L7849 18936
L7839 18898
L7830 18879
L7820 18869
L7801 18860
" />
<path d="M7649 18955
L7582 18955
" />
<path d="M7553 19060
L7649 19060
L7649 18860
L7553 18860
" />
<path d="M7477 18879
L7468 18869
L7449 18860
L7401 18860
L7382 18869
L7372 18879
L7363 18898
L7363 18917
L7372 18945
L7487 19060
L7363 19060
" />
<path d="M7239 18860
L7220 18860
L7201 18869
L7191 18879
L7182 18898
L7172 18936
L7172 18983
L7182 19022
L7191 19041
L7201 19050
L7220 19060
L7239 19060
L7258 19050
L7268 19041
L7277 19022
L7287 18983
L7287 18936
L7277 18898
L7268 18879
L7258 18869
L7239 18860
" />
<path d="M6991 19060
L7087 19060
L7087 18860
" />
<path d="M6810 19041
L6820 19050
L6849 19060
L6868 19060
L6896 19050
L6915 19031
L6925 19012
L6934 18974
L6934 18945
L6925 18907
L6915 18888
L6896 18869
L6868 18860
L6849 18860
L6820 18869
L6810 18879
" />
<path d="M3226 12958
L3238 12970
L3274 12982
L3297 12982
L3333 12970
L3357 12947
L3369 12923
L3381 12875
L3381 12839
L3369 12792
L3357 12768
L3333 12744
L3297 12732
L3274 12732
L3238 12744
L3226 12756
" />
<path d="M2988 12982
L3131 12982
" />
<path d="M3059 12982
L3059 12732
L3083 12768
L3107 12792
L3131 12804
" />
</g>
<g style="fill:#008484; fill-opacity:0.0; 
stroke:#008484; stroke-width:35; stroke-opacity:1; 
stroke-linecap:round; stroke-linejoin:round;">
<path d="M13624 12728
L13635 12716
L13647 12680
L13647 12656
L13635 12620
L13612 12597
L13588 12585
L13540 12573
L13505 12573
L13457 12585
L13433 12597
L13409 12620
L13397 12656
L13397 12680
L13409 12716
L13421 12728
" />
<path d="M13421 12823
L13409 12835
L13397 12858
L13397 12918
L13409 12942
L13421 12954
L13445 12966
L13469 12966
L13505 12954
L13647 12811
L13647 12966
" />
</g>
<g style="fill:#840084; fill-opacity:0.0; 
stroke:#840084; stroke-width:35; stroke-opacity:1; 
stroke-linecap:round; stroke-linejoin:round;">
<path d="M13624 11128
L13635 11116
L13647 11080
L13647 11056
L13635 11020
L13612 10997
L13588 10985
L13540 10973
L13505 10973
L13457 10985
L13433 10997
L13409 11020
L13397 11056
L13397 11080
L13409 11116
L13421 11128
" />
<path d="M13397 11211
L13397 11366
L13493 11282
L13493 11318
L13505 11342
L13516 11354
L13540 11366
L13600 11366
L13624 11354
L13635 11342
L13647 11318
L13647 11247
L13635 11223
L13624 11211
" />
<path d="M36676 17358
L36688 17370
L36724 17382
L36747 17382
L36783 17370
L36807 17347
L36819 17323
L36831 17275
L36831 17239
L36819 17192
L36807 17168
L36783 17144
L36747 17132
L36724 17132
L36688 17144
L36676 17156
" />
<path d="M36462 17216
L36462 17382
" />
<path d="M36521 17120
L36581 17299
L36426 17299
" />
<path d="M30576 9858
L30588 9870
L30624 9882
L30647 9882
L30683 9870
L30707 9847
L30719 9823
L30731 9775
L30731 9739
L30719 9692
L30707 9668
L30683 9644
L30647 9632
L30624 9632
L30588 9644
L30576 9656
" />
<path d="M30350 9632
L30469 9632
L30481 9751
L30469 9739
L30445 9728
L30385 9728
L30362 9739
L30350 9751
L30338 9775
L30338 9835
L30350 9858
L30362 9870
L30385 9882
L30445 9882
L30469 9870
L30481 9858
" />
</g>
<g style="fill:#008484; fill-opacity:0.0; 
stroke:#008484; stroke-width:35; stroke-opacity:1; 
stroke-linecap:round; stroke-linejoin:round;">
<path d="M25824 15728
L25835 15716
L25847 15680
L25847 15656
L25835 15620
L25812 15597
L25788 15585
L25740 15573
L25705 15573
L25657 15585
L25633 15597
L25609 15620
L25597 15656
L25597 15680
L25609 15716
L25621 15728
" />
<path d="M25597 15942
L25597 15894
L25609 15870
L25621 15858
L25657 15835
L25705 15823
L25800 15823
L25824 15835
L25835 15847
L25847 15870
L25847 15918
L25835 15942
L25824 15954
L25800 15966
L25740 15966
L25716 15954
L25705 15942
L25693 15918
L25693 15870
L25705 15847
L25716 15835
L25740 15823
" />
</g>
<g style="fill:#840084; fill-opacity:0.0; 
stroke:#840084; stroke-width:35; stroke-opacity:1; 
stroke-linecap:round; stroke-linejoin:round;">
<path d="M26076 9858
L26088 9870
L26124 9882
L26147 9882
L26183 9870
L26207 9847
L26219 9823
L26231 9775
L26231 9739
L26219 9692
L26207 9668
L26183 9644
L26147 9632
L26124 9632
L26088 9644
L26076 9656
" />
<path d="M25993 9632
L25826 9632
L25933 9882
" />
<path d="M13576 16258
L13588 16270
L13624 16282
L13647 16282
L13683 16270
L13707 16247
L13719 16223
L13731 16175
L13731 16139
L13719 16092
L13707 16068
L13683 16044
L13647 16032
L13624 16032
L13588 16044
L13576 16056
" />
<path d="M13433 16139
L13457 16128
L13469 16116
L13481 16092
L13481 16080
L13469 16056
L13457 16044
L13433 16032
L13385 16032
L13362 16044
L13350 16056
L13338 16080
L13338 16092
L13350 16116
L13362 16128
L13385 16139
L13433 16139
L13457 16151
L13469 16163
L13481 16187
L13481 16235
L13469 16258
L13457 16270
L13433 16282
L13385 16282
L13362 16270
L13350 16258
L13338 16235
L13338 16187
L13350 16163
L13362 16151
L13385 16139
" />
</g>
<g style="fill:#008484; fill-opacity:0.0; 
stroke:#008484; stroke-width:35; stroke-opacity:1; 
stroke-linecap:round; stroke-linejoin:round;">
<path d="M18276 14558
L18288 14570
L18324 14582
L18347 14582
L18383 14570
L18407 14547
L18419 14523
L18431 14475
L18431 14439
L18419 14392
L18407 14368
L18383 14344
L18347 14332
L18324 14332
L18288 14344
L18276 14356
" />
<path d="M18157 14582
L18109 14582
L18085 14570
L18074 14558
L18050 14523
L18038 14475
L18038 14380
L18050 14356
L18062 14344
L18085 14332
L18133 14332
L18157 14344
L18169 14356
L18181 14380
L18181 14439
L18169 14463
L18157 14475
L18133 14487
L18085 14487
L18062 14475
L18050 14463
L18038 14439
" />
<path d="M13595 15458
L13607 15470
L13643 15482
L13666 15482
L13702 15470
L13726 15447
L13738 15423
L13750 15375
L13750 15339
L13738 15292
L13726 15268
L13702 15244
L13666 15232
L13643 15232
L13607 15244
L13595 15256
" />
<path d="M13357 15482
L13500 15482
" />
<path d="M13428 15482
L13428 15232
L13452 15268
L13476 15292
L13500 15304
" />
<path d="M13202 15232
L13178 15232
L13155 15244
L13143 15256
L13131 15280
L13119 15328
L13119 15387
L13131 15435
L13143 15458
L13155 15470
L13178 15482
L13202 15482
L13226 15470
L13238 15458
L13250 15435
L13262 15387
L13262 15328
L13250 15280
L13238 15256
L13226 15244
L13202 15232
" />
</g>
<g style="fill:#840084; fill-opacity:0.0; 
stroke:#840084; stroke-width:35; stroke-opacity:1; 
stroke-linecap:round; stroke-linejoin:round;">
<path d="M32424 12108
L32435 12097
L32447 12061
L32447 12037
L32435 12001
L32412 11978
L32388 11966
L32340 11954
L32305 11954
L32257 11966
L32233 11978
L32209 12001
L32197 12037
L32197 12061
L32209 12097
L32221 12108
" />
<path d="M32447 12347
L32447 12204
" />
<path d="M32447 12275
L32197 12275
L32233 12251
L32257 12228
L32269 12204
" />
<path d="M32447 12585
L32447 12442
" />
<path d="M32447 12513
L32197 12513
L32233 12489
L32257 12466
L32269 12442
" />
</g>
<g style="fill:#008484; fill-opacity:0.0; 
stroke:#008484; stroke-width:35; stroke-opacity:1; 
stroke-linecap:round; stroke-linejoin:round;">
<path d="M18395 16758
L18407 16770
L18443 16782
L18466 16782
L18502 16770
L18526 16747
L18538 16723
L18550 16675
L18550 16639
L18538 16592
L18526 16568
L18502 16544
L18466 16532
L18443 16532
L18407 16544
L18395 16556
" />
<path d="M18157 16782
L18300 16782
" />
<path d="M18228 16782
L18228 16532
L18252 16568
L18276 16592
L18300 16604
" />
<path d="M18062 16556
L18050 16544
L18026 16532
L17966 16532
L17943 16544
L17931 16556
L17919 16580
L17919 16604
L17931 16639
L18074 16782
L17919 16782
" />
</g>
<g style="fill:#840084; fill-opacity:0.0; 
stroke:#840084; stroke-width:35; stroke-opacity:1; 
stroke-linecap:round; stroke-linejoin:round;">
<path d="M28895 16658
L28907 16670
L28943 16682
L28966 16682
L29002 16670
L29026 16647
L29038 16623
L29050 16575
L29050 16539
L29038 16492
L29026 16468
L29002 16444
L28966 16432
L28943 16432
L28907 16444
L28895 16456
" />
<path d="M28657 16682
L28800 16682
" />
<path d="M28728 16682
L28728 16432
L28752 16468
L28776 16492
L28800 16504
" />
<path d="M28443 16432
L28490 16432
L28514 16444
L28526 16456
L28550 16492
L28562 16539
L28562 16635
L28550 16658
L28538 16670
L28514 16682
L28466 16682
L28443 16670
L28431 16658
L28419 16635
L28419 16575
L28431 16551
L28443 16539
L28466 16528
L28514 16528
L28538 16539
L28550 16551
L28562 16575
" />
</g>
<g style="fill:#008484; fill-opacity:0.0; 
stroke:#008484; stroke-width:35; stroke-opacity:1; 
stroke-linecap:round; stroke-linejoin:round;">
<path d="M30624 14908
L30635 14897
L30647 14861
L30647 14837
L30635 14801
L30612 14778
L30588 14766
L30540 14754
L30505 14754
L30457 14766
L30433 14778
L30409 14801
L30397 14837
L30397 14861
L30409 14897
L30421 14908
" />
<path d="M30647 15147
L30647 15004
" />
<path d="M30647 15075
L30397 15075
L30433 15051
L30457 15028
L30469 15004
" />
<path d="M30505 15289
L30493 15266
L30481 15254
L30457 15242
L30445 15242
L30421 15254
L30409 15266
L30397 15289
L30397 15337
L30409 15361
L30421 15373
L30445 15385
L30457 15385
L30481 15373
L30493 15361
L30505 15337
L30505 15289
L30516 15266
L30528 15254
L30552 15242
L30600 15242
L30624 15254
L30635 15266
L30647 15289
L30647 15337
L30635 15361
L30624 15373
L30600 15385
L30552 15385
L30528 15373
L30516 15361
L30505 15337
" />
</g>
<g style="fill:#840084; fill-opacity:0.0; 
stroke:#840084; stroke-width:35; stroke-opacity:1; 
stroke-linecap:round; stroke-linejoin:round;">
<path d="M4960 14660
L5056 14660
L5065 14755
L5056 14745
L5037 14736
L4989 14736
L4970 14745
L4960 14755
L4951 14774
L4951 14822
L4960 14841
L4970 14850
L4989 14860
L5037 14860
L5056 14850
L5065 14841
" />
<path d="M4865 14841
L4856 14850
L4865 14860
L4875 14850
L4865 14841
L4865 14860
" />
<path d="M4789 14660
L4665 14660
L4732 14736
L4703 14736
L4684 14745
L4675 14755
L4665 14774
L4665 14822
L4675 14841
L4684 14850
L4703 14860
L4760 14860
L4780 14850
L4789 14841
" />
<path d="M4608 14660
L4541 14860
L4475 14660
" />
<path d="M4275 14660
L4141 14660
L4275 14860
L4141 14860
" />
<path d="M3989 14850
L4008 14860
L4046 14860
L4065 14850
L4075 14831
L4075 14755
L4065 14736
L4046 14726
L4008 14726
L3989 14736
L3980 14755
L3980 14774
L4075 14793
" />
<path d="M3894 14726
L3894 14860
" />
<path d="M3894 14745
L3884 14736
L3865 14726
L3837 14726
L3818 14736
L3808 14755
L3808 14860
" />
<path d="M3637 14850
L3656 14860
L3694 14860
L3713 14850
L3722 14831
L3722 14755
L3713 14736
L3694 14726
L3656 14726
L3637 14736
L3627 14755
L3627 14774
L3722 14793
" />
<path d="M3541 14860
L3541 14726
" />
<path d="M3541 14764
L3532 14745
L3522 14736
L3503 14726
L3484 14726
" />
<path d="M37310 15860
L37406 15860
L37415 15955
L37406 15945
L37387 15936
L37339 15936
L37320 15945
L37310 15955
L37301 15974
L37301 16022
L37310 16041
L37320 16050
L37339 16060
L37387 16060
L37406 16050
L37415 16041
" />
<path d="M37215 16041
L37206 16050
L37215 16060
L37225 16050
L37215 16041
L37215 16060
" />
<path d="M37139 15860
L37015 15860
L37082 15936
L37053 15936
L37034 15945
L37025 15955
L37015 15974
L37015 16022
L37025 16041
L37034 16050
L37053 16060
L37110 16060
L37130 16050
L37139 16041
" />
<path d="M36958 15860
L36891 16060
L36825 15860
" />
<path d="M36625 15860
L36491 15860
L36625 16060
L36491 16060
" />
<path d="M36339 16050
L36358 16060
L36396 16060
L36415 16050
L36425 16031
L36425 15955
L36415 15936
L36396 15926
L36358 15926
L36339 15936
L36330 15955
L36330 15974
L36425 15993
" />
<path d="M36244 15926
L36244 16060
" />
<path d="M36244 15945
L36234 15936
L36215 15926
L36187 15926
L36168 15936
L36158 15955
L36158 16060
" />
<path d="M35987 16050
L36006 16060
L36044 16060
L36063 16050
L36072 16031
L36072 15955
L36063 15936
L36044 15926
L36006 15926
L35987 15936
L35977 15955
L35977 15974
L36072 15993
" />
<path d="M35891 16060
L35891 15926
" />
<path d="M35891 15964
L35882 15945
L35872 15936
L35853 15926
L35834 15926
" />
<path d="M15310 13360
L15406 13360
L15415 13455
L15406 13445
L15387 13436
L15339 13436
L15320 13445
L15310 13455
L15301 13474
L15301 13522
L15310 13541
L15320 13550
L15339 13560
L15387 13560
L15406 13550
L15415 13541
" />
<path d="M15215 13541
L15206 13550
L15215 13560
L15225 13550
L15215 13541
L15215 13560
" />
<path d="M15139 13360
L15015 13360
L15082 13436
L15053 13436
L15034 13445
L15025 13455
L15015 13474
L15015 13522
L15025 13541
L15034 13550
L15053 13560
L15110 13560
L15130 13550
L15139 13541
" />
<path d="M14958 13360
L14891 13560
L14825 13360
" />
<path d="M14625 13360
L14491 13360
L14625 13560
L14491 13560
" />
<path d="M14339 13550
L14358 13560
L14396 13560
L14415 13550
L14425 13531
L14425 13455
L14415 13436
L14396 13426
L14358 13426
L14339 13436
L14330 13455
L14330 13474
L14425 13493
" />
<path d="M14244 13426
L14244 13560
" />
<path d="M14244 13445
L14234 13436
L14215 13426
L14187 13426
L14168 13436
L14158 13455
L14158 13560
" />
<path d="M13987 13550
L14006 13560
L14044 13560
L14063 13550
L14072 13531
L14072 13455
L14063 13436
L14044 13426
L14006 13426
L13987 13436
L13977 13455
L13977 13474
L14072 13493
" />
<path d="M13891 13560
L13891 13426
" />
<path d="M13891 13464
L13882 13445
L13872 13436
L13853 13426
L13834 13426
" />
<path d="M14616 17786
L14616 17703
" />
<path d="M14747 17703
L14497 17703
L14497 17822
" />
<path d="M14747 18048
L14747 17905
" />
<path d="M14747 17976
L14497 17976
L14533 17953
L14557 17929
L14569 17905
" />
<path d="M8157 8382
L8276 8382
L8276 8132
" />
<path d="M8074 8382
L8074 8132
L7990 8311
L7907 8132
L7907 8382
" />
<path d="M7812 8132
L7657 8132
L7740 8228
L7705 8228
L7681 8239
L7669 8251
L7657 8275
L7657 8335
L7669 8358
L7681 8370
L7705 8382
L7776 8382
L7800 8370
L7812 8358
" />
<path d="M7431 8132
L7550 8132
L7562 8251
L7550 8239
L7526 8228
L7466 8228
L7443 8239
L7431 8251
L7419 8275
L7419 8335
L7431 8358
L7443 8370
L7466 8382
L7526 8382
L7550 8370
L7562 8358
" />
<path d="M7276 8239
L7300 8228
L7312 8216
L7324 8192
L7324 8180
L7312 8156
L7300 8144
L7276 8132
L7228 8132
L7205 8144
L7193 8156
L7181 8180
L7181 8192
L7193 8216
L7205 8228
L7228 8239
L7276 8239
L7300 8251
L7312 8263
L7324 8287
L7324 8335
L7312 8358
L7300 8370
L7276 8382
L7228 8382
L7205 8370
L7193 8358
L7181 8335
L7181 8287
L7193 8263
L7205 8251
L7228 8239
" />
</g>
<g style="fill:#008484; fill-opacity:0.0; 
stroke:#008484; stroke-width:35; stroke-opacity:1; 
stroke-linecap:round; stroke-linejoin:round;">
<path d="M31847 15028
L31847 14908
L31597 14908
" />
<path d="M31847 15242
L31847 15099
" />
<path d="M31847 15170
L31597 15170
L31633 15147
L31657 15123
L31669 15099
" />
</g>
<g style="fill:#840084; fill-opacity:0.0; 
stroke:#840084; stroke-width:35; stroke-opacity:1; 
stroke-linecap:round; stroke-linejoin:round;">
<path d="M15687 12860
L15687 12660
L15639 12660
L15610 12669
L15591 12688
L15582 12707
L15572 12745
L15572 12774
L15582 12812
L15591 12831
L15610 12850
L15639 12860
L15687 12860
" />
<path d="M15487 12860
L15487 12660
L15420 12803
L15353 12660
L15353 12860
" />
<path d="M15153 12669
L15172 12660
L15201 12660
L15230 12669
L15249 12688
L15258 12707
L15268 12745
L15268 12774
L15258 12812
L15249 12831
L15230 12850
L15201 12860
L15182 12860
L15153 12850
L15144 12841
L15144 12774
L15182 12774
" />
<path d="M15077 12660
L14953 12660
L15020 12736
L14991 12736
L14972 12745
L14963 12755
L14953 12774
L14953 12822
L14963 12841
L14972 12850
L14991 12860
L15049 12860
L15068 12850
L15077 12841
" />
<path d="M14782 12726
L14782 12860
" />
<path d="M14830 12650
L14877 12793
L14753 12793
" />
<path d="M14572 12860
L14687 12860
" />
<path d="M14630 12860
L14630 12660
L14649 12688
L14668 12707
L14687 12717
" />
<path d="M14391 12660
L14487 12660
L14496 12755
L14487 12745
L14468 12736
L14420 12736
L14401 12745
L14391 12755
L14382 12774
L14382 12822
L14391 12841
L14401 12850
L14420 12860
L14468 12860
L14487 12850
L14496 12841
" />
<path d="M14296 12660
L14296 12822
L14287 12841
L14277 12850
L14258 12860
L14220 12860
L14201 12850
L14191 12841
L14182 12822
L14182 12660
" />
<path d="M9347 6328
L9228 6244
" />
<path d="M9347 6185
L9097 6185
L9097 6280
L9109 6304
L9121 6316
L9145 6328
L9181 6328
L9205 6316
L9216 6304
L9228 6280
L9228 6185
" />
<path d="M9347 6566
L9347 6423
" />
<path d="M9347 6494
L9097 6494
L9133 6470
L9157 6447
L9169 6423
" />
<path d="M9347 9928
L9228 9844
" />
<path d="M9347 9785
L9097 9785
L9097 9880
L9109 9904
L9121 9916
L9145 9928
L9181 9928
L9205 9916
L9216 9904
L9228 9880
L9228 9785
" />
<path d="M9121 10023
L9109 10035
L9097 10058
L9097 10118
L9109 10142
L9121 10154
L9145 10166
L9169 10166
L9205 10154
L9347 10011
L9347 10166
" />
<path d="M8376 2082
L8459 1963
" />
<path d="M8519 2082
L8519 1832
L8424 1832
L8400 1844
L8388 1856
L8376 1880
L8376 1916
L8388 1939
L8400 1951
L8424 1963
L8519 1963
" />
<path d="M8293 1832
L8138 1832
L8221 1928
L8185 1928
L8162 1939
L8150 1951
L8138 1975
L8138 2035
L8150 2058
L8162 2070
L8185 2082
L8257 2082
L8281 2070
L8293 2058
" />
<path d="M4176 8382
L4259 8263
" />
<path d="M4319 8382
L4319 8132
L4224 8132
L4200 8144
L4188 8156
L4176 8180
L4176 8216
L4188 8239
L4200 8251
L4224 8263
L4319 8263
" />
<path d="M3962 8216
L3962 8382
" />
<path d="M4021 8120
L4081 8299
L3926 8299
" />
<path d="M4176 6882
L4259 6763
" />
<path d="M4319 6882
L4319 6632
L4224 6632
L4200 6644
L4188 6656
L4176 6680
L4176 6716
L4188 6739
L4200 6751
L4224 6763
L4319 6763
" />
<path d="M3950 6632
L4069 6632
L4081 6751
L4069 6739
L4045 6728
L3985 6728
L3962 6739
L3950 6751
L3938 6775
L3938 6835
L3950 6858
L3962 6870
L3985 6882
L4045 6882
L4069 6870
L4081 6858
" />
<path d="M16747 11928
L16628 11844
" />
<path d="M16747 11785
L16497 11785
L16497 11880
L16509 11904
L16521 11916
L16545 11928
L16581 11928
L16605 11916
L16616 11904
L16628 11880
L16628 11785
" />
<path d="M16497 12142
L16497 12094
L16509 12070
L16521 12058
L16557 12035
L16605 12023
L16700 12023
L16724 12035
L16735 12047
L16747 12070
L16747 12118
L16735 12142
L16724 12154
L16700 12166
L16640 12166
L16616 12154
L16605 12142
L16593 12118
L16593 12070
L16605 12047
L16616 12035
L16640 12023
" />
<path d="M8176 2982
L8259 2863
" />
<path d="M8319 2982
L8319 2732
L8224 2732
L8200 2744
L8188 2756
L8176 2780
L8176 2816
L8188 2839
L8200 2851
L8224 2863
L8319 2863
" />
<path d="M8093 2732
L7926 2732
L8033 2982
" />
<path d="M11176 2982
L11259 2863
" />
<path d="M11319 2982
L11319 2732
L11224 2732
L11200 2744
L11188 2756
L11176 2780
L11176 2816
L11188 2839
L11200 2851
L11224 2863
L11319 2863
" />
<path d="M11033 2839
L11057 2828
L11069 2816
L11081 2792
L11081 2780
L11069 2756
L11057 2744
L11033 2732
L10985 2732
L10962 2744
L10950 2756
L10938 2780
L10938 2792
L10950 2816
L10962 2828
L10985 2839
L11033 2839
L11057 2851
L11069 2863
L11081 2887
L11081 2935
L11069 2958
L11057 2970
L11033 2982
L10985 2982
L10962 2970
L10950 2958
L10938 2935
L10938 2887
L10950 2863
L10962 2851
L10985 2839
" />
<path d="M14176 2982
L14259 2863
" />
<path d="M14319 2982
L14319 2732
L14224 2732
L14200 2744
L14188 2756
L14176 2780
L14176 2816
L14188 2839
L14200 2851
L14224 2863
L14319 2863
" />
<path d="M14057 2982
L14009 2982
L13985 2970
L13974 2958
L13950 2923
L13938 2875
L13938 2780
L13950 2756
L13962 2744
L13985 2732
L14033 2732
L14057 2744
L14069 2756
L14081 2780
L14081 2839
L14069 2863
L14057 2875
L14033 2887
L13985 2887
L13962 2875
L13950 2863
L13938 2839
" />
<path d="M17295 2982
L17378 2863
" />
<path d="M17438 2982
L17438 2732
L17343 2732
L17319 2744
L17307 2756
L17295 2780
L17295 2816
L17307 2839
L17319 2851
L17343 2863
L17438 2863
" />
<path d="M17057 2982
L17200 2982
" />
<path d="M17128 2982
L17128 2732
L17152 2768
L17176 2792
L17200 2804
" />
<path d="M16902 2732
L16878 2732
L16855 2744
L16843 2756
L16831 2780
L16819 2828
L16819 2887
L16831 2935
L16843 2958
L16855 2970
L16878 2982
L16902 2982
L16926 2970
L16938 2958
L16950 2935
L16962 2887
L16962 2828
L16950 2780
L16938 2756
L16926 2744
L16902 2732
" />
</g>
<g style="fill:#008484; fill-opacity:0.0; 
stroke:#008484; stroke-width:35; stroke-opacity:1; 
stroke-linecap:round; stroke-linejoin:round;">
<path d="M36795 10982
L36878 10863
" />
<path d="M36938 10982
L36938 10732
L36843 10732
L36819 10744
L36807 10756
L36795 10780
L36795 10816
L36807 10839
L36819 10851
L36843 10863
L36938 10863
" />
<path d="M36557 10982
L36700 10982
" />
<path d="M36628 10982
L36628 10732
L36652 10768
L36676 10792
L36700 10804
" />
<path d="M36319 10982
L36462 10982
" />
<path d="M36390 10982
L36390 10732
L36414 10768
L36438 10792
L36462 10804
" />
<path d="M36795 8682
L36878 8563
" />
<path d="M36938 8682
L36938 8432
L36843 8432
L36819 8444
L36807 8456
L36795 8480
L36795 8516
L36807 8539
L36819 8551
L36843 8563
L36938 8563
" />
<path d="M36557 8682
L36700 8682
" />
<path d="M36628 8682
L36628 8432
L36652 8468
L36676 8492
L36700 8504
" />
<path d="M36462 8456
L36450 8444
L36426 8432
L36366 8432
L36343 8444
L36331 8456
L36319 8480
L36319 8504
L36331 8539
L36474 8682
L36319 8682
" />
<path d="M36795 12182
L36878 12063
" />
<path d="M36938 12182
L36938 11932
L36843 11932
L36819 11944
L36807 11956
L36795 11980
L36795 12016
L36807 12039
L36819 12051
L36843 12063
L36938 12063
" />
<path d="M36557 12182
L36700 12182
" />
<path d="M36628 12182
L36628 11932
L36652 11968
L36676 11992
L36700 12004
" />
<path d="M36474 11932
L36319 11932
L36402 12028
L36366 12028
L36343 12039
L36331 12051
L36319 12075
L36319 12135
L36331 12158
L36343 12170
L36366 12182
L36438 12182
L36462 12170
L36474 12158
" />
<path d="M36795 9782
L36878 9663
" />
<path d="M36938 9782
L36938 9532
L36843 9532
L36819 9544
L36807 9556
L36795 9580
L36795 9616
L36807 9639
L36819 9651
L36843 9663
L36938 9663
" />
<path d="M36557 9782
L36700 9782
" />
<path d="M36628 9782
L36628 9532
L36652 9568
L36676 9592
L36700 9604
" />
<path d="M36343 9616
L36343 9782
" />
<path d="M36402 9520
L36462 9699
L36307 9699
" />
<path d="M36795 13282
L36878 13163
" />
<path d="M36938 13282
L36938 13032
L36843 13032
L36819 13044
L36807 13056
L36795 13080
L36795 13116
L36807 13139
L36819 13151
L36843 13163
L36938 13163
" />
<path d="M36557 13282
L36700 13282
" />
<path d="M36628 13282
L36628 13032
L36652 13068
L36676 13092
L36700 13104
" />
<path d="M36331 13032
L36450 13032
L36462 13151
L36450 13139
L36426 13128
L36366 13128
L36343 13139
L36331 13151
L36319 13175
L36319 13235
L36331 13258
L36343 13270
L36366 13282
L36426 13282
L36450 13270
L36462 13258
" />
</g>
<g style="fill:#840084; fill-opacity:0.0; 
stroke:#840084; stroke-width:35; stroke-opacity:1; 
stroke-linecap:round; stroke-linejoin:round;">
<path d="M10647 6108
L10528 6025
" />
<path d="M10647 5966
L10397 5966
L10397 6061
L10409 6085
L10421 6097
L10445 6108
L10481 6108
L10505 6097
L10516 6085
L10528 6061
L10528 5966
" />
<path d="M10647 6347
L10647 6204
" />
<path d="M10647 6275
L10397 6275
L10433 6251
L10457 6228
L10469 6204
" />
<path d="M10397 6561
L10397 6513
L10409 6489
L10421 6478
L10457 6454
L10505 6442
L10600 6442
L10624 6454
L10635 6466
L10647 6489
L10647 6537
L10635 6561
L10624 6573
L10600 6585
L10540 6585
L10516 6573
L10505 6561
L10493 6537
L10493 6489
L10505 6466
L10516 6454
L10540 6442
" />
<path d="M16595 5782
L16678 5663
" />
<path d="M16738 5782
L16738 5532
L16643 5532
L16619 5544
L16607 5556
L16595 5580
L16595 5616
L16607 5639
L16619 5651
L16643 5663
L16738 5663
" />
<path d="M16357 5782
L16500 5782
" />
<path d="M16428 5782
L16428 5532
L16452 5568
L16476 5592
L16500 5604
" />
<path d="M16274 5532
L16107 5532
L16214 5782
" />
<path d="M13695 10582
L13778 10463
" />
<path d="M13838 10582
L13838 10332
L13743 10332
L13719 10344
L13707 10356
L13695 10380
L13695 10416
L13707 10439
L13719 10451
L13743 10463
L13838 10463
" />
<path d="M13457 10582
L13600 10582
" />
<path d="M13528 10582
L13528 10332
L13552 10368
L13576 10392
L13600 10404
" />
<path d="M13314 10439
L13338 10428
L13350 10416
L13362 10392
L13362 10380
L13350 10356
L13338 10344
L13314 10332
L13266 10332
L13243 10344
L13231 10356
L13219 10380
L13219 10392
L13231 10416
L13243 10428
L13266 10439
L13314 10439
L13338 10451
L13350 10463
L13362 10487
L13362 10535
L13350 10558
L13338 10570
L13314 10582
L13266 10582
L13243 10570
L13231 10558
L13219 10535
L13219 10487
L13231 10463
L13243 10451
L13266 10439
" />
<path d="M11695 10582
L11778 10463
" />
<path d="M11838 10582
L11838 10332
L11743 10332
L11719 10344
L11707 10356
L11695 10380
L11695 10416
L11707 10439
L11719 10451
L11743 10463
L11838 10463
" />
<path d="M11457 10582
L11600 10582
" />
<path d="M11528 10582
L11528 10332
L11552 10368
L11576 10392
L11600 10404
" />
<path d="M11338 10582
L11290 10582
L11266 10570
L11255 10558
L11231 10523
L11219 10475
L11219 10380
L11231 10356
L11243 10344
L11266 10332
L11314 10332
L11338 10344
L11350 10356
L11362 10380
L11362 10439
L11350 10463
L11338 10475
L11314 10487
L11266 10487
L11243 10475
L11231 10463
L11219 10439
" />
<path d="M10695 7582
L10778 7463
" />
<path d="M10838 7582
L10838 7332
L10743 7332
L10719 7344
L10707 7356
L10695 7380
L10695 7416
L10707 7439
L10719 7451
L10743 7463
L10838 7463
" />
<path d="M10600 7356
L10588 7344
L10564 7332
L10505 7332
L10481 7344
L10469 7356
L10457 7380
L10457 7404
L10469 7439
L10612 7582
L10457 7582
" />
<path d="M10302 7332
L10278 7332
L10255 7344
L10243 7356
L10231 7380
L10219 7428
L10219 7487
L10231 7535
L10243 7558
L10255 7570
L10278 7582
L10302 7582
L10326 7570
L10338 7558
L10350 7535
L10362 7487
L10362 7428
L10350 7380
L10338 7356
L10326 7344
L10302 7332
" />
<path d="M12695 6582
L12778 6463
" />
<path d="M12838 6582
L12838 6332
L12743 6332
L12719 6344
L12707 6356
L12695 6380
L12695 6416
L12707 6439
L12719 6451
L12743 6463
L12838 6463
" />
<path d="M12600 6356
L12588 6344
L12564 6332
L12505 6332
L12481 6344
L12469 6356
L12457 6380
L12457 6404
L12469 6439
L12612 6582
L12457 6582
" />
<path d="M12219 6582
L12362 6582
" />
<path d="M12290 6582
L12290 6332
L12314 6368
L12338 6392
L12362 6404
" />
<path d="M14695 7582
L14778 7463
" />
<path d="M14838 7582
L14838 7332
L14743 7332
L14719 7344
L14707 7356
L14695 7380
L14695 7416
L14707 7439
L14719 7451
L14743 7463
L14838 7463
" />
<path d="M14600 7356
L14588 7344
L14564 7332
L14505 7332
L14481 7344
L14469 7356
L14457 7380
L14457 7404
L14469 7439
L14612 7582
L14457 7582
" />
<path d="M14362 7356
L14350 7344
L14326 7332
L14266 7332
L14243 7344
L14231 7356
L14219 7380
L14219 7404
L14231 7439
L14374 7582
L14219 7582
" />
<path d="M12695 7582
L12778 7463
" />
<path d="M12838 7582
L12838 7332
L12743 7332
L12719 7344
L12707 7356
L12695 7380
L12695 7416
L12707 7439
L12719 7451
L12743 7463
L12838 7463
" />
<path d="M12600 7356
L12588 7344
L12564 7332
L12505 7332
L12481 7344
L12469 7356
L12457 7380
L12457 7404
L12469 7439
L12612 7582
L12457 7582
" />
<path d="M12374 7332
L12219 7332
L12302 7428
L12266 7428
L12243 7439
L12231 7451
L12219 7475
L12219 7535
L12231 7558
L12243 7570
L12266 7582
L12338 7582
L12362 7570
L12374 7558
" />
<path d="M23247 16508
L23128 16425
" />
<path d="M23247 16366
L22997 16366
L22997 16461
L23009 16485
L23021 16497
L23045 16508
L23081 16508
L23105 16497
L23116 16485
L23128 16461
L23128 16366
" />
<path d="M23021 16604
L23009 16616
L22997 16639
L22997 16699
L23009 16723
L23021 16735
L23045 16747
L23069 16747
L23105 16735
L23247 16592
L23247 16747
" />
<path d="M23081 16961
L23247 16961
" />
<path d="M22985 16901
L23164 16842
L23164 16997
" />
<path d="M19947 16508
L19828 16425
" />
<path d="M19947 16366
L19697 16366
L19697 16461
L19709 16485
L19721 16497
L19745 16508
L19781 16508
L19805 16497
L19816 16485
L19828 16461
L19828 16366
" />
<path d="M19721 16604
L19709 16616
L19697 16639
L19697 16699
L19709 16723
L19721 16735
L19745 16747
L19769 16747
L19805 16735
L19947 16592
L19947 16747
" />
<path d="M19697 16973
L19697 16854
L19816 16842
L19805 16854
L19793 16878
L19793 16937
L19805 16961
L19816 16973
L19840 16985
L19900 16985
L19924 16973
L19935 16961
L19947 16937
L19947 16878
L19935 16854
L19924 16842
" />
<path d="M28495 9782
L28578 9663
" />
<path d="M28638 9782
L28638 9532
L28543 9532
L28519 9544
L28507 9556
L28495 9580
L28495 9616
L28507 9639
L28519 9651
L28543 9663
L28638 9663
" />
<path d="M28400 9556
L28388 9544
L28364 9532
L28305 9532
L28281 9544
L28269 9556
L28257 9580
L28257 9604
L28269 9639
L28412 9782
L28257 9782
" />
<path d="M28043 9532
L28090 9532
L28114 9544
L28126 9556
L28150 9592
L28162 9639
L28162 9735
L28150 9758
L28138 9770
L28114 9782
L28066 9782
L28043 9770
L28031 9758
L28019 9735
L28019 9675
L28031 9651
L28043 9639
L28066 9628
L28114 9628
L28138 9639
L28150 9651
L28162 9675
" />
<path d="M29847 4608
L29728 4525
" />
<path d="M29847 4466
L29597 4466
L29597 4561
L29609 4585
L29621 4597
L29645 4608
L29681 4608
L29705 4597
L29716 4585
L29728 4561
L29728 4466
" />
<path d="M29621 4704
L29609 4716
L29597 4739
L29597 4799
L29609 4823
L29621 4835
L29645 4847
L29669 4847
L29705 4835
L29847 4692
L29847 4847
" />
<path d="M29597 4930
L29597 5097
L29847 4989
" />
<path d="M21945 18482
L22028 18363
" />
<path d="M22088 18482
L22088 18232
L21993 18232
L21969 18244
L21957 18256
L21945 18280
L21945 18316
L21957 18339
L21969 18351
L21993 18363
L22088 18363
" />
<path d="M21850 18256
L21838 18244
L21814 18232
L21755 18232
L21731 18244
L21719 18256
L21707 18280
L21707 18304
L21719 18339
L21862 18482
L21707 18482
" />
<path d="M21564 18339
L21588 18328
L21600 18316
L21612 18292
L21612 18280
L21600 18256
L21588 18244
L21564 18232
L21516 18232
L21493 18244
L21481 18256
L21469 18280
L21469 18292
L21481 18316
L21493 18328
L21516 18339
L21564 18339
L21588 18351
L21600 18363
L21612 18387
L21612 18435
L21600 18458
L21588 18470
L21564 18482
L21516 18482
L21493 18470
L21481 18458
L21469 18435
L21469 18387
L21481 18363
L21493 18351
L21516 18339
" />
</g>
<g style="fill:#008484; fill-opacity:0.0; 
stroke:#008484; stroke-width:35; stroke-opacity:1; 
stroke-linecap:round; stroke-linejoin:round;">
<path d="M30647 16408
L30528 16325
" />
<path d="M30647 16266
L30397 16266
L30397 16361
L30409 16385
L30421 16397
L30445 16408
L30481 16408
L30505 16397
L30516 16385
L30528 16361
L30528 16266
" />
<path d="M30421 16504
L30409 16516
L30397 16539
L30397 16599
L30409 16623
L30421 16635
L30445 16647
L30469 16647
L30505 16635
L30647 16492
L30647 16647
" />
<path d="M30647 16766
L30647 16813
L30635 16837
L30624 16849
L30588 16873
L30540 16885
L30445 16885
L30421 16873
L30409 16861
L30397 16837
L30397 16789
L30409 16766
L30421 16754
L30445 16742
L30505 16742
L30528 16754
L30540 16766
L30552 16789
L30552 16837
L30540 16861
L30528 16873
L30505 16885
" />
<path d="M32647 16408
L32528 16325
" />
<path d="M32647 16266
L32397 16266
L32397 16361
L32409 16385
L32421 16397
L32445 16408
L32481 16408
L32505 16397
L32516 16385
L32528 16361
L32528 16266
" />
<path d="M32397 16492
L32397 16647
L32493 16563
L32493 16599
L32505 16623
L32516 16635
L32540 16647
L32600 16647
L32624 16635
L32635 16623
L32647 16599
L32647 16528
L32635 16504
L32624 16492
" />
<path d="M32397 16801
L32397 16825
L32409 16849
L32421 16861
L32445 16873
L32493 16885
L32552 16885
L32600 16873
L32624 16861
L32635 16849
L32647 16825
L32647 16801
L32635 16778
L32624 16766
L32600 16754
L32552 16742
L32493 16742
L32445 16754
L32421 16766
L32409 16778
L32397 16801
" />
</g>
<g style="fill:#840084; fill-opacity:0.0; 
stroke:#840084; stroke-width:35; stroke-opacity:1; 
stroke-linecap:round; stroke-linejoin:round;">
<path d="M34495 15882
L34578 15763
" />
<path d="M34638 15882
L34638 15632
L34543 15632
L34519 15644
L34507 15656
L34495 15680
L34495 15716
L34507 15739
L34519 15751
L34543 15763
L34638 15763
" />
<path d="M34412 15632
L34257 15632
L34340 15728
L34305 15728
L34281 15739
L34269 15751
L34257 15775
L34257 15835
L34269 15858
L34281 15870
L34305 15882
L34376 15882
L34400 15870
L34412 15858
" />
<path d="M34019 15882
L34162 15882
" />
<path d="M34090 15882
L34090 15632
L34114 15668
L34138 15692
L34162 15704
" />
<path d="M34495 17382
L34578 17263
" />
<path d="M34638 17382
L34638 17132
L34543 17132
L34519 17144
L34507 17156
L34495 17180
L34495 17216
L34507 17239
L34519 17251
L34543 17263
L34638 17263
" />
<path d="M34412 17132
L34257 17132
L34340 17228
L34305 17228
L34281 17239
L34269 17251
L34257 17275
L34257 17335
L34269 17358
L34281 17370
L34305 17382
L34376 17382
L34400 17370
L34412 17358
" />
<path d="M34162 17156
L34150 17144
L34126 17132
L34066 17132
L34043 17144
L34031 17156
L34019 17180
L34019 17204
L34031 17239
L34174 17382
L34019 17382
" />
<path d="M4095 5382
L4178 5263
" />
<path d="M4238 5382
L4238 5132
L4143 5132
L4119 5144
L4107 5156
L4095 5180
L4095 5216
L4107 5239
L4119 5251
L4143 5263
L4238 5263
" />
<path d="M4012 5132
L3857 5132
L3940 5228
L3905 5228
L3881 5239
L3869 5251
L3857 5275
L3857 5335
L3869 5358
L3881 5370
L3905 5382
L3976 5382
L4000 5370
L4012 5358
" />
<path d="M3774 5132
L3619 5132
L3702 5228
L3666 5228
L3643 5239
L3631 5251
L3619 5275
L3619 5335
L3631 5358
L3643 5370
L3666 5382
L3738 5382
L3762 5370
L3774 5358
" />
<path d="M20047 3808
L19928 3725
" />
<path d="M20047 3666
L19797 3666
L19797 3761
L19809 3785
L19821 3797
L19845 3808
L19881 3808
L19905 3797
L19916 3785
L19928 3761
L19928 3666
" />
<path d="M19797 3892
L19797 4047
L19893 3963
L19893 3999
L19905 4023
L19916 4035
L19940 4047
L20000 4047
L20024 4035
L20035 4023
L20047 3999
L20047 3928
L20035 3904
L20024 3892
" />
<path d="M19881 4261
L20047 4261
" />
<path d="M19785 4201
L19964 4142
L19964 4297
" />
</g>
<g style="fill:#008484; fill-opacity:0.0; 
stroke:#008484; stroke-width:35; stroke-opacity:1; 
stroke-linecap:round; stroke-linejoin:round;">
<path d="M24647 15608
L24528 15525
" />
<path d="M24647 15466
L24397 15466
L24397 15561
L24409 15585
L24421 15597
L24445 15608
L24481 15608
L24505 15597
L24516 15585
L24528 15561
L24528 15466
" />
<path d="M24397 15692
L24397 15847
L24493 15763
L24493 15799
L24505 15823
L24516 15835
L24540 15847
L24600 15847
L24624 15835
L24635 15823
L24647 15799
L24647 15728
L24635 15704
L24624 15692
" />
<path d="M24397 16073
L24397 15954
L24516 15942
L24505 15954
L24493 15978
L24493 16037
L24505 16061
L24516 16073
L24540 16085
L24600 16085
L24624 16073
L24635 16061
L24647 16037
L24647 15978
L24635 15954
L24624 15942
" />
</g>
<g style="fill:#840084; fill-opacity:0.0; 
stroke:#840084; stroke-width:35; stroke-opacity:1; 
stroke-linecap:round; stroke-linejoin:round;">
<path d="M25947 4608
L25828 4525
" />
<path d="M25947 4466
L25697 4466
L25697 4561
L25709 4585
L25721 4597
L25745 4608
L25781 4608
L25805 4597
L25816 4585
L25828 4561
L25828 4466
" />
<path d="M25697 4692
L25697 4847
L25793 4763
L25793 4799
L25805 4823
L25816 4835
L25840 4847
L25900 4847
L25924 4835
L25935 4823
L25947 4799
L25947 4728
L25935 4704
L25924 4692
" />
<path d="M25697 5061
L25697 5013
L25709 4989
L25721 4978
L25757 4954
L25805 4942
L25900 4942
L25924 4954
L25935 4966
L25947 4989
L25947 5037
L25935 5061
L25924 5073
L25900 5085
L25840 5085
L25816 5073
L25805 5061
L25793 5037
L25793 4989
L25805 4966
L25816 4954
L25840 4942
" />
<path d="M32397 18061
L32647 18144
L32397 18228
" />
<path d="M32647 18454
L32528 18370
" />
<path d="M32647 18311
L32397 18311
L32397 18406
L32409 18430
L32421 18442
L32445 18454
L32481 18454
L32505 18442
L32516 18430
L32528 18406
L32528 18311
" />
<path d="M31143 18232
L31059 18482
L30976 18232
" />
<path d="M30750 18482
L30833 18363
" />
<path d="M30893 18482
L30893 18232
L30797 18232
L30774 18244
L30762 18256
L30750 18280
L30750 18316
L30762 18339
L30774 18351
L30797 18363
L30893 18363
" />
</g>
<g style="fill:#008484; fill-opacity:0.0; 
stroke:#008484; stroke-width:35; stroke-opacity:1; 
stroke-linecap:round; stroke-linejoin:round;">
<path d="M25847 19408
L25728 19325
" />
<path d="M25847 19266
L25597 19266
L25597 19361
L25609 19385
L25621 19397
L25645 19408
L25681 19408
L25705 19397
L25716 19385
L25728 19361
L25728 19266
" />
<path d="M25597 19492
L25597 19647
L25693 19563
L25693 19599
L25705 19623
L25716 19635
L25740 19647
L25800 19647
L25824 19635
L25835 19623
L25847 19599
L25847 19528
L25835 19504
L25824 19492
" />
<path d="M25597 19730
L25597 19897
L25847 19789
" />
</g>
<g style="fill:#840084; fill-opacity:0.0; 
stroke:#840084; stroke-width:59.0551; stroke-opacity:1; 
stroke-linecap:round; stroke-linejoin:round;">
<path d="M21019 12669
L21337 12669
L21375 12688
L21394 12707
L21412 12744
L21412 12819
L21394 12857
L21375 12875
L21337 12894
L21019 12894
" />
<path d="M21412 13288
L21412 13063
" />
<path d="M21412 13175
L21019 13175
L21075 13138
L21112 13100
L21131 13063
" />
<path d="M22369 11535
L22369 11797
L22762 11629
" />
<path d="M22500 12116
L22762 12116
" />
<path d="M22350 12022
L22631 11929
L22631 12172
" />
<path d="M22762 12322
L22369 12322
" />
<path d="M22556 12322
L22556 12547
" />
<path d="M22762 12547
L22369 12547
" />
<path d="M22725 12960
L22744 12941
L22762 12885
L22762 12847
L22744 12791
L22706 12754
L22669 12735
L22594 12716
L22537 12716
L22462 12735
L22425 12754
L22387 12791
L22369 12847
L22369 12885
L22387 12941
L22406 12960
" />
<path d="M22369 13316
L22369 13129
L22556 13110
L22537 13129
L22519 13166
L22519 13260
L22537 13297
L22556 13316
L22594 13335
L22687 13335
L22725 13316
L22744 13297
L22762 13260
L22762 13166
L22744 13129
L22725 13110
" />
<path d="M22762 13522
L22762 13597
L22744 13635
L22725 13653
L22669 13691
L22594 13710
L22444 13710
L22406 13691
L22387 13672
L22369 13635
L22369 13560
L22387 13522
L22406 13503
L22444 13485
L22537 13485
L22575 13503
L22594 13522
L22612 13560
L22612 13635
L22594 13672
L22575 13691
L22537 13710
" />
<path d="M22369 14066
L22369 13878
L22556 13860
L22537 13878
L22519 13916
L22519 14010
L22537 14047
L22556 14066
L22594 14085
L22687 14085
L22725 14066
L22744 14047
L22762 14010
L22762 13916
L22744 13878
L22725 13860
" />
<path d="M21019 7169
L21337 7169
L21375 7188
L21394 7207
L21412 7244
L21412 7319
L21394 7357
L21375 7375
L21337 7394
L21019 7394
" />
<path d="M21019 7544
L21019 7788
L21169 7657
L21169 7713
L21187 7750
L21206 7769
L21244 7788
L21337 7788
L21375 7769
L21394 7750
L21412 7713
L21412 7600
L21394 7563
L21375 7544
" />
<path d="M22369 6035
L22369 6297
L22762 6129
" />
<path d="M22500 6616
L22762 6616
" />
<path d="M22350 6522
L22631 6429
L22631 6672
" />
<path d="M22762 6822
L22369 6822
" />
<path d="M22556 6822
L22556 7047
" />
<path d="M22762 7047
L22369 7047
" />
<path d="M22725 7460
L22744 7441
L22762 7385
L22762 7347
L22744 7291
L22706 7254
L22669 7235
L22594 7216
L22537 7216
L22462 7235
L22425 7254
L22387 7291
L22369 7347
L22369 7385
L22387 7441
L22406 7460
" />
<path d="M22369 7816
L22369 7629
L22556 7610
L22537 7629
L22519 7666
L22519 7760
L22537 7797
L22556 7816
L22594 7835
L22687 7835
L22725 7816
L22744 7797
L22762 7760
L22762 7666
L22744 7629
L22725 7610
" />
<path d="M22762 8022
L22762 8097
L22744 8135
L22725 8153
L22669 8191
L22594 8210
L22444 8210
L22406 8191
L22387 8172
L22369 8135
L22369 8060
L22387 8022
L22406 8003
L22444 7985
L22537 7985
L22575 8003
L22594 8022
L22612 8060
L22612 8135
L22594 8172
L22575 8191
L22537 8210
" />
<path d="M22369 8566
L22369 8378
L22556 8360
L22537 8378
L22519 8416
L22519 8510
L22537 8547
L22556 8566
L22594 8585
L22687 8585
L22725 8566
L22744 8547
L22762 8510
L22762 8416
L22744 8378
L22725 8360
" />
</g>
<g style="fill:#840084; fill-opacity:0.0; 
stroke:#840084; stroke-width:35.0394; stroke-opacity:1; 
stroke-linecap:round; stroke-linejoin:round;">
<path d="M21930 16782
L21930 16532
" />
<path d="M21810 16782
L21810 16532
L21668 16782
L21668 16532
" />
<path d="M21560 16711
L21441 16711
" />
<path d="M21584 16782
L21501 16532
L21418 16782
" />
<path d="M21346 16556
L21334 16544
L21310 16532
L21251 16532
L21227 16544
L21215 16556
L21203 16580
L21203 16604
L21215 16639
L21358 16782
L21203 16782
" />
<path d="M20965 16782
L21108 16782
" />
<path d="M21037 16782
L21037 16532
L21060 16568
L21084 16592
L21108 16604
" />
<path d="M20846 16782
L20799 16782
L20775 16770
L20763 16758
L20739 16723
L20727 16675
L20727 16580
L20739 16556
L20751 16544
L20775 16532
L20822 16532
L20846 16544
L20858 16556
L20870 16580
L20870 16639
L20858 16663
L20846 16675
L20822 16687
L20775 16687
L20751 16675
L20739 16663
L20727 16639
" />
</g>
<g style="fill:#000084; fill-opacity:0.0; 
stroke:#000084; stroke-width:150; stroke-opacity:1; 
stroke-linecap:round; stroke-linejoin:round;">
<circle cx="5134.8" cy="19069.7" r="1181" /> 
<circle cx="5134.8" cy="2669.69" r="1181" /> 
<circle cx="35134.8" cy="2669.69" r="1181" /> 
<circle cx="35134.8" cy="19069.7" r="1181" /> 
</g>
<g style="fill:#C2C200; fill-opacity:0.0; 
stroke:#C2C200; stroke-width:39.3701; stroke-opacity:1; 
stroke-linecap:round; stroke-linejoin:round;">
<path d="M7384.8 19.6854 A5000 5000 0.0 0 0 2384.8 5019.69 " />
<path d="M7384 21669
L32834 21669
" />
<path d="M7384 19
L32834 19
" />
<path d="M37834 5019
L37834 16669
" />
<path d="M2384 5019
L2384 16669
" />
<path d="M37834.8 5019.69 A5000 5000 0.0 0 0 32834.8 19.6854 " />
<path d="M32834.8 21669.7 A5000 5000 0.0 0 0 37834.8 16669.7 " />
<path d="M2384.8 16669.7 A5000 5000 0.0 0 0 7384.8 21669.7 " />
</g> 
</svg>
