<?xml version="1.0" standalone="no"?>
 <!DOCTYPE svg PUBLIC "-//W3C//DTD SVG 1.1//EN" 
 "http://www.w3.org/Graphics/SVG/1.1/DTD/svg11.dtd"> 
<svg xmlns="http://www.w3.org/2000/svg" version="1.1" 
    width="29.7002cm" height="21.0007cm" viewBox="0 0 116930 82680 ">
<title>SVG Picture created as PowerBox-B_SilkS.svg date 2015/07/31 23:47:18 </title>
  <desc>Picture generated by PCBNEW </desc>
<g style="fill:#000000; fill-opacity:1;stroke:#000000; stroke-opacity:1;
stroke-linecap:round; stroke-linejoin:round; "
 transform="translate(0 0) scale(1 1)">
</g>
<g style="fill:#000000; fill-opacity:0.0; 
stroke:#000000; stroke-width:70; stroke-opacity:1; 
stroke-linecap:round; stroke-linejoin:round;">
<path d="M63492 29280
L63492 28880
L63340 28880
L63302 28900
L63283 28919
L63264 28957
L63264 29014
L63283 29052
L63302 29071
L63340 29090
L63492 29090
" />
<path d="M62921 29280
L62921 29071
L62940 29033
L62978 29014
L63054 29014
L63092 29033
" />
<path d="M62921 29261
L62959 29280
L63054 29280
L63092 29261
L63111 29223
L63111 29185
L63092 29147
L63054 29128
L62959 29128
L62921 29109
" />
<path d="M62749 29261
L62711 29280
L62635 29280
L62597 29261
L62578 29223
L62578 29204
L62597 29166
L62635 29147
L62692 29147
L62730 29128
L62749 29090
L62749 29071
L62730 29033
L62692 29014
L62635 29014
L62597 29033
" />
<path d="M62235 29261
L62273 29280
L62349 29280
L62388 29261
L62407 29242
L62426 29204
L62426 29090
L62407 29052
L62388 29033
L62349 29014
L62273 29014
L62235 29033
" />
<path d="M61892 29280
L61892 29071
L61911 29033
L61949 29014
L62026 29014
L62064 29033
" />
<path d="M61892 29261
L61930 29280
L62026 29280
L62064 29261
L62083 29223
L62083 29185
L62064 29147
L62026 29128
L61930 29128
L61892 29109
" />
<path d="M61645 29280
L61683 29261
L61702 29223
L61702 28880
" />
<path d="M61054 29071
L61188 29071
" />
<path d="M61188 29280
L61188 28880
L60997 28880
" />
<path d="M60845 29280
L60845 29014
" />
<path d="M60845 29090
L60826 29052
L60807 29033
L60769 29014
L60730 29014
" />
<path d="M60445 29261
L60483 29280
L60559 29280
L60597 29261
L60616 29223
L60616 29071
L60597 29033
L60559 29014
L60483 29014
L60445 29033
L60426 29071
L60426 29109
L60616 29147
" />
<path d="M60254 29280
L60254 28880
" />
<path d="M60083 29280
L60083 29071
L60102 29033
L60140 29014
L60197 29014
L60235 29033
L60254 29052
" />
<path d="M59892 29014
L59892 29280
" />
<path d="M59892 29052
L59873 29033
L59835 29014
L59778 29014
L59740 29033
L59721 29071
L59721 29280
" />
<path d="M59378 29261
L59416 29280
L59492 29280
L59530 29261
L59550 29223
L59550 29071
L59530 29033
L59492 29014
L59416 29014
L59378 29033
L59359 29071
L59359 29109
L59550 29147
" />
<path d="M59188 29280
L59188 29014
" />
<path d="M59188 29090
L59169 29052
L59150 29033
L59111 29014
L59073 29014
" />
<path d="M58921 29261
L58921 29280
L58940 29319
L58959 29338
" />
<path d="M57873 28880
L57626 28880
L57759 29033
L57702 29033
L57664 29052
L57645 29071
L57626 29109
L57626 29204
L57645 29242
L57664 29261
L57702 29280
L57816 29280
L57854 29261
L57873 29242
" />
<path d="M57245 29280
L57473 29280
" />
<path d="M57359 29280
L57359 28880
L57397 28938
L57435 28976
L57473 28995
" />
<path d="M57073 29242
L57054 29261
L57073 29280
L57092 29261
L57073 29242
L57073 29280
" />
<path d="M56807 28880
L56769 28880
L56730 28900
L56711 28919
L56692 28957
L56673 29033
L56673 29128
L56692 29204
L56711 29242
L56730 29261
L56769 29280
L56807 29280
L56845 29261
L56864 29242
L56883 29204
L56902 29128
L56902 29033
L56883 28957
L56864 28919
L56845 28900
L56807 28880
" />
<path d="M56540 28880
L56273 28880
L56445 29280
" />
<path d="M56121 29242
L56102 29261
L56121 29280
L56140 29261
L56121 29242
L56121 29280
" />
<path d="M55721 29280
L55950 29280
" />
<path d="M55835 29280
L55835 28880
L55873 28938
L55911 28976
L55950 28995
" />
<path d="M55359 28880
L55550 28880
L55569 29071
L55550 29052
L55511 29033
L55416 29033
L55378 29052
L55359 29071
L55340 29109
L55340 29204
L55359 29242
L55378 29261
L55416 29280
L55511 29280
L55550 29261
L55569 29242
" />
<path d="M55150 29261
L55150 29280
L55169 29319
L55188 29338
" />
<path d="M53759 29280
L53759 28880
L53607 28880
L53569 28900
L53550 28919
L53530 28957
L53530 29014
L53550 29052
L53569 29071
L53607 29090
L53759 29090
" />
<path d="M53302 29280
L53340 29261
L53359 29242
L53378 29204
L53378 29090
L53359 29052
L53340 29033
L53302 29014
L53245 29014
L53207 29033
L53188 29052
L53169 29090
L53169 29204
L53188 29242
L53207 29261
L53245 29280
L53302 29280
" />
<path d="M53035 29014
L52959 29280
L52883 29090
L52807 29280
L52730 29014
" />
<path d="M52426 29261
L52464 29280
L52540 29280
L52578 29261
L52597 29223
L52597 29071
L52578 29033
L52540 29014
L52464 29014
L52426 29033
L52407 29071
L52407 29109
L52597 29147
" />
<path d="M52235 29280
L52235 29014
" />
<path d="M52235 29090
L52216 29052
L52197 29033
L52159 29014
L52121 29014
" />
<path d="M51550 29071
L51492 29090
L51473 29109
L51454 29147
L51454 29204
L51473 29242
L51492 29261
L51530 29280
L51683 29280
L51683 28880
L51550 28880
L51511 28900
L51492 28919
L51473 28957
L51473 28995
L51492 29033
L51511 29052
L51550 29071
L51683 29071
" />
<path d="M51226 29280
L51264 29261
L51283 29242
L51302 29204
L51302 29090
L51283 29052
L51264 29033
L51226 29014
L51169 29014
L51130 29033
L51111 29052
L51092 29090
L51092 29204
L51111 29242
L51130 29261
L51169 29280
L51226 29280
" />
<path d="M50959 29280
L50750 29014
" />
<path d="M50959 29014
L50750 29280
" />
<path d="M50578 29261
L50578 29280
L50597 29319
L50616 29338
" />
<path d="M49873 29280
L50007 29090
" />
<path d="M50102 29280
L50102 28880
L49950 28880
L49911 28900
L49892 28919
L49873 28957
L49873 29014
L49892 29052
L49911 29071
L49950 29090
L50102 29090
" />
<path d="M49550 29261
L49588 29280
L49664 29280
L49702 29261
L49721 29223
L49721 29071
L49702 29033
L49664 29014
L49588 29014
L49550 29033
L49530 29071
L49530 29109
L49721 29147
" />
<path d="M49397 29014
L49302 29280
L49207 29014
" />
<path d="M49054 29242
L49035 29261
L49054 29280
L49073 29261
L49054 29242
L49054 29280
" />
<path d="M48578 29166
L48388 29166
" />
<path d="M48616 29280
L48483 28880
L48350 29280
" />
</g>
<g style="fill:#000000; fill-opacity:0.0; 
stroke:#000000; stroke-width:39.3701; stroke-opacity:1; 
stroke-linecap:round; stroke-linejoin:round;">
<path d="M43250 26850 A5000 5000 0.0 0 0 38250 31850 " />
<path d="M43250 48500
L68700 48500
" />
<path d="M43250 26850
L68700 26850
" />
<path d="M73700 31850
L73700 43500
" />
<path d="M38250 31850
L38250 43500
" />
<path d="M73700 31850 A5000 5000 0.0 0 0 68700 26850 " />
<path d="M68700 48500 A5000 5000 0.0 0 0 73700 43500 " />
<path d="M38250 43500 A5000 5000 0.0 0 0 43250 48500 " />
</g>
<g style="fill:#000000; fill-opacity:0.0; 
stroke:#000000; stroke-width:31; stroke-opacity:1; 
stroke-linecap:round; stroke-linejoin:round;">
<circle cx="42262" cy="41463" r="62.626" /> 
<path d="M42600 40500
L42200 40500
" />
<path d="M42600 41525
L42200 41525
" />
<path d="M42200 40500
L42200 41525
" />
<path d="M42600 41525
L42600 40500
" />
<circle cx="43462" cy="45463" r="62.626" /> 
<path d="M43800 44500
L43400 44500
" />
<path d="M43800 45525
L43400 45525
" />
<path d="M43400 44500
L43400 45525
" />
<path d="M43800 45525
L43800 44500
" />
</g>
<g style="fill:#000000; fill-opacity:0.0; 
stroke:#000000; stroke-width:26; stroke-opacity:1; 
stroke-linecap:round; stroke-linejoin:round;">
<path d="M39990 39975
L39735 39975
" />
<path d="M39735 39975
L39735 39424
" />
<path d="M39990 39424
L39735 39424
" />
<path d="M39990 39975
L39990 39424
" />
<path d="M40570 39975
L40314 39975
" />
<path d="M40314 39975
L40314 39424
" />
<path d="M40570 39424
L40314 39424
" />
<path d="M40570 39975
L40570 39424
" />
<path d="M40228 39896
L40072 39896
" />
<path d="M40072 39896
L40072 39504
" />
<path d="M40228 39504
L40072 39504
" />
<path d="M40228 39896
L40228 39504
" />
</g>
<g style="fill:#000000; fill-opacity:0.0; 
stroke:#000000; stroke-width:60; stroke-opacity:1; 
stroke-linecap:round; stroke-linejoin:round;">
<path d="M40311 39450
L39989 39450
" />
<path d="M40311 39950
L39989 39950
" />
</g>
<g style="fill:#000000; fill-opacity:0.0; 
stroke:#000000; stroke-width:20; stroke-opacity:1; 
stroke-linecap:round; stroke-linejoin:round;">
<path d="M40926 39313
L39374 39313
" />
<path d="M39374 39313
L39374 40087
" />
<path d="M39374 40087
L40926 40087
" />
<path d="M40926 40087
L40926 39313
" />
</g>
<g style="fill:#000000; fill-opacity:0.0; 
stroke:#000000; stroke-width:26; stroke-opacity:1; 
stroke-linecap:round; stroke-linejoin:round;">
<path d="M72660 43225
L72915 43225
" />
<path d="M72915 43225
L72915 43776
" />
<path d="M72660 43776
L72915 43776
" />
<path d="M72660 43225
L72660 43776
" />
<path d="M72080 43225
L72336 43225
" />
<path d="M72336 43225
L72336 43776
" />
<path d="M72080 43776
L72336 43776
" />
<path d="M72080 43225
L72080 43776
" />
<path d="M72422 43304
L72578 43304
" />
<path d="M72578 43304
L72578 43696
" />
<path d="M72422 43696
L72578 43696
" />
<path d="M72422 43304
L72422 43696
" />
</g>
<g style="fill:#000000; fill-opacity:0.0; 
stroke:#000000; stroke-width:60; stroke-opacity:1; 
stroke-linecap:round; stroke-linejoin:round;">
<path d="M72339 43750
L72661 43750
" />
<path d="M72339 43250
L72661 43250
" />
</g>
<g style="fill:#000000; fill-opacity:0.0; 
stroke:#000000; stroke-width:20; stroke-opacity:1; 
stroke-linecap:round; stroke-linejoin:round;">
<path d="M71724 43887
L73276 43887
" />
<path d="M73276 43887
L73276 43113
" />
<path d="M73276 43113
L71724 43113
" />
<path d="M71724 43113
L71724 43887
" />
</g>
<g style="fill:#000000; fill-opacity:0.0; 
stroke:#000000; stroke-width:26; stroke-opacity:1; 
stroke-linecap:round; stroke-linejoin:round;">
<path d="M66560 35725
L66815 35725
" />
<path d="M66815 35725
L66815 36276
" />
<path d="M66560 36276
L66815 36276
" />
<path d="M66560 35725
L66560 36276
" />
<path d="M65980 35725
L66236 35725
" />
<path d="M66236 35725
L66236 36276
" />
<path d="M65980 36276
L66236 36276
" />
<path d="M65980 35725
L65980 36276
" />
<path d="M66322 35804
L66478 35804
" />
<path d="M66478 35804
L66478 36196
" />
<path d="M66322 36196
L66478 36196
" />
<path d="M66322 35804
L66322 36196
" />
</g>
<g style="fill:#000000; fill-opacity:0.0; 
stroke:#000000; stroke-width:60; stroke-opacity:1; 
stroke-linecap:round; stroke-linejoin:round;">
<path d="M66239 36250
L66561 36250
" />
<path d="M66239 35750
L66561 35750
" />
</g>
<g style="fill:#000000; fill-opacity:0.0; 
stroke:#000000; stroke-width:20; stroke-opacity:1; 
stroke-linecap:round; stroke-linejoin:round;">
<path d="M65624 36387
L67176 36387
" />
<path d="M67176 36387
L67176 35613
" />
<path d="M67176 35613
L65624 35613
" />
<path d="M65624 35613
L65624 36387
" />
</g>
<g style="fill:#000000; fill-opacity:0.0; 
stroke:#000000; stroke-width:26; stroke-opacity:1; 
stroke-linecap:round; stroke-linejoin:round;">
<path d="M61740 36275
L61485 36275
" />
<path d="M61485 36275
L61485 35724
" />
<path d="M61740 35724
L61485 35724
" />
<path d="M61740 36275
L61740 35724
" />
<path d="M62320 36275
L62064 36275
" />
<path d="M62064 36275
L62064 35724
" />
<path d="M62320 35724
L62064 35724
" />
<path d="M62320 36275
L62320 35724
" />
<path d="M61978 36196
L61822 36196
" />
<path d="M61822 36196
L61822 35804
" />
<path d="M61978 35804
L61822 35804
" />
<path d="M61978 36196
L61978 35804
" />
</g>
<g style="fill:#000000; fill-opacity:0.0; 
stroke:#000000; stroke-width:60; stroke-opacity:1; 
stroke-linecap:round; stroke-linejoin:round;">
<path d="M62061 35750
L61739 35750
" />
<path d="M62061 36250
L61739 36250
" />
</g>
<g style="fill:#000000; fill-opacity:0.0; 
stroke:#000000; stroke-width:20; stroke-opacity:1; 
stroke-linecap:round; stroke-linejoin:round;">
<path d="M62676 35613
L61124 35613
" />
<path d="M61124 35613
L61124 36387
" />
<path d="M61124 36387
L62676 36387
" />
<path d="M62676 36387
L62676 35613
" />
</g>
<g style="fill:#000000; fill-opacity:0.0; 
stroke:#000000; stroke-width:26; stroke-opacity:1; 
stroke-linecap:round; stroke-linejoin:round;">
<path d="M50340 43275
L50085 43275
" />
<path d="M50085 43275
L50085 42724
" />
<path d="M50340 42724
L50085 42724
" />
<path d="M50340 43275
L50340 42724
" />
<path d="M50920 43275
L50664 43275
" />
<path d="M50664 43275
L50664 42724
" />
<path d="M50920 42724
L50664 42724
" />
<path d="M50920 43275
L50920 42724
" />
<path d="M50578 43196
L50422 43196
" />
<path d="M50422 43196
L50422 42804
" />
<path d="M50578 42804
L50422 42804
" />
<path d="M50578 43196
L50578 42804
" />
</g>
<g style="fill:#000000; fill-opacity:0.0; 
stroke:#000000; stroke-width:60; stroke-opacity:1; 
stroke-linecap:round; stroke-linejoin:round;">
<path d="M50661 42750
L50339 42750
" />
<path d="M50661 43250
L50339 43250
" />
</g>
<g style="fill:#000000; fill-opacity:0.0; 
stroke:#000000; stroke-width:20; stroke-opacity:1; 
stroke-linecap:round; stroke-linejoin:round;">
<path d="M51276 42613
L49724 42613
" />
<path d="M49724 42613
L49724 43387
" />
<path d="M49724 43387
L51276 43387
" />
<path d="M51276 43387
L51276 42613
" />
</g>
<g style="fill:#000000; fill-opacity:0.0; 
stroke:#000000; stroke-width:26; stroke-opacity:1; 
stroke-linecap:round; stroke-linejoin:round;">
<path d="M50340 42475
L50085 42475
" />
<path d="M50085 42475
L50085 41924
" />
<path d="M50340 41924
L50085 41924
" />
<path d="M50340 42475
L50340 41924
" />
<path d="M50920 42475
L50664 42475
" />
<path d="M50664 42475
L50664 41924
" />
<path d="M50920 41924
L50664 41924
" />
<path d="M50920 42475
L50920 41924
" />
<path d="M50578 42396
L50422 42396
" />
<path d="M50422 42396
L50422 42004
" />
<path d="M50578 42004
L50422 42004
" />
<path d="M50578 42396
L50578 42004
" />
</g>
<g style="fill:#000000; fill-opacity:0.0; 
stroke:#000000; stroke-width:60; stroke-opacity:1; 
stroke-linecap:round; stroke-linejoin:round;">
<path d="M50661 41950
L50339 41950
" />
<path d="M50661 42450
L50339 42450
" />
</g>
<g style="fill:#000000; fill-opacity:0.0; 
stroke:#000000; stroke-width:20; stroke-opacity:1; 
stroke-linecap:round; stroke-linejoin:round;">
<path d="M51276 41813
L49724 41813
" />
<path d="M49724 41813
L49724 42587
" />
<path d="M49724 42587
L51276 42587
" />
<path d="M51276 42587
L51276 41813
" />
</g>
<g style="fill:#000000; fill-opacity:0.0; 
stroke:#000000; stroke-width:26; stroke-opacity:1; 
stroke-linecap:round; stroke-linejoin:round;">
<path d="M67325 38940
L67325 38685
" />
<path d="M67325 38685
L67876 38685
" />
<path d="M67876 38940
L67876 38685
" />
<path d="M67325 38940
L67876 38940
" />
<path d="M67325 39520
L67325 39264
" />
<path d="M67325 39264
L67876 39264
" />
<path d="M67876 39520
L67876 39264
" />
<path d="M67325 39520
L67876 39520
" />
<path d="M67404 39178
L67404 39022
" />
<path d="M67404 39022
L67796 39022
" />
<path d="M67796 39178
L67796 39022
" />
<path d="M67404 39178
L67796 39178
" />
</g>
<g style="fill:#000000; fill-opacity:0.0; 
stroke:#000000; stroke-width:60; stroke-opacity:1; 
stroke-linecap:round; stroke-linejoin:round;">
<path d="M67850 39261
L67850 38939
" />
<path d="M67350 39261
L67350 38939
" />
</g>
<g style="fill:#000000; fill-opacity:0.0; 
stroke:#000000; stroke-width:20; stroke-opacity:1; 
stroke-linecap:round; stroke-linejoin:round;">
<path d="M67987 39876
L67987 38324
" />
<path d="M67987 38324
L67213 38324
" />
<path d="M67213 38324
L67213 39876
" />
<path d="M67213 39876
L67987 39876
" />
</g>
<g style="fill:#000000; fill-opacity:0.0; 
stroke:#000000; stroke-width:26; stroke-opacity:1; 
stroke-linecap:round; stroke-linejoin:round;">
<path d="M64440 43675
L64185 43675
" />
<path d="M64185 43675
L64185 43124
" />
<path d="M64440 43124
L64185 43124
" />
<path d="M64440 43675
L64440 43124
" />
<path d="M65020 43675
L64764 43675
" />
<path d="M64764 43675
L64764 43124
" />
<path d="M65020 43124
L64764 43124
" />
<path d="M65020 43675
L65020 43124
" />
<path d="M64678 43596
L64522 43596
" />
<path d="M64522 43596
L64522 43204
" />
<path d="M64678 43204
L64522 43204
" />
<path d="M64678 43596
L64678 43204
" />
</g>
<g style="fill:#000000; fill-opacity:0.0; 
stroke:#000000; stroke-width:60; stroke-opacity:1; 
stroke-linecap:round; stroke-linejoin:round;">
<path d="M64761 43150
L64439 43150
" />
<path d="M64761 43650
L64439 43650
" />
</g>
<g style="fill:#000000; fill-opacity:0.0; 
stroke:#000000; stroke-width:20; stroke-opacity:1; 
stroke-linecap:round; stroke-linejoin:round;">
<path d="M65376 43013
L63824 43013
" />
<path d="M63824 43013
L63824 43787
" />
<path d="M63824 43787
L65376 43787
" />
<path d="M65376 43787
L65376 43013
" />
</g>
<g style="fill:#000000; fill-opacity:0.0; 
stroke:#000000; stroke-width:59.0551; stroke-opacity:1; 
stroke-linecap:round; stroke-linejoin:round;">
<path d="M69800 34750
L68850 34750
" />
<path d="M68850 34750
L68850 40650
" />
<path d="M68850 40650
L69800 40650
" />
</g>
<g style="fill:#000000; fill-opacity:0.0; 
stroke:#000000; stroke-width:31; stroke-opacity:1; 
stroke-linecap:round; stroke-linejoin:round;">
<circle cx="40012" cy="41263" r="62.626" /> 
<path d="M40350 40300
L39950 40300
" />
<path d="M40350 41325
L39950 41325
" />
<path d="M39950 40300
L39950 41325
" />
<path d="M40350 41325
L40350 40300
" />
<circle cx="72638" cy="41537" r="62.626" /> 
<path d="M72300 42500
L72700 42500
" />
<path d="M72300 41475
L72700 41475
" />
<path d="M72700 42500
L72700 41475
" />
<path d="M72300 41475
L72300 42500
" />
<circle cx="50362" cy="41563" r="62.626" /> 
<path d="M50700 40600
L50300 40600
" />
<path d="M50700 41625
L50300 41625
" />
<path d="M50300 40600
L50300 41625
" />
<path d="M50700 41625
L50700 40600
" />
</g>
<g style="fill:#000000; fill-opacity:0.0; 
stroke:#000000; stroke-width:50; stroke-opacity:1; 
stroke-linecap:round; stroke-linejoin:round;">
<path d="M49850 45350
L51150 45350
" />
<path d="M49850 44050
L51150 44050
" />
<path d="M49850 43800
L51150 43800
" />
<path d="M51150 43800
L51150 45600
" />
<path d="M51150 45600
L49850 45600
" />
<path d="M49850 45600
L49850 43800
" />
</g>
<g style="fill:#000000; fill-opacity:0.0; 
stroke:#000000; stroke-width:26; stroke-opacity:1; 
stroke-linecap:round; stroke-linejoin:round;">
<path d="M44420 36130
L44280 36130
" />
<path d="M44280 36130
L44280 35730
" />
<path d="M44420 35730
L44280 35730
" />
<path d="M44420 36130
L44420 35730
" />
<path d="M43920 36130
L43780 36130
" />
<path d="M43780 36130
L43780 35730
" />
<path d="M43920 35730
L43780 35730
" />
<path d="M43920 36130
L43920 35730
" />
<path d="M43420 36130
L43280 36130
" />
<path d="M43280 36130
L43280 35730
" />
<path d="M43420 35730
L43280 35730
" />
<path d="M43420 36130
L43420 35730
" />
<path d="M42920 36130
L42780 36130
" />
<path d="M42780 36130
L42780 35730
" />
<path d="M42920 35730
L42780 35730
" />
<path d="M42920 36130
L42920 35730
" />
<path d="M44420 34270
L44280 34270
" />
<path d="M44280 34270
L44280 33870
" />
<path d="M44420 33870
L44280 33870
" />
<path d="M44420 34270
L44420 33870
" />
<path d="M43920 34270
L43780 34270
" />
<path d="M43780 34270
L43780 33870
" />
<path d="M43920 33870
L43780 33870
" />
<path d="M43920 34270
L43920 33870
" />
<path d="M43420 34270
L43280 34270
" />
<path d="M43280 34270
L43280 33870
" />
<path d="M43420 33870
L43280 33870
" />
<path d="M43420 34270
L43420 33870
" />
<path d="M42920 34270
L42780 34270
" />
<path d="M42780 34270
L42780 33870
" />
<path d="M42920 33870
L42780 33870
" />
<path d="M42920 34270
L42920 33870
" />
</g>
<g style="fill:#000000; fill-opacity:0.0; 
stroke:#000000; stroke-width:60; stroke-opacity:1; 
stroke-linecap:round; stroke-linejoin:round;">
<path d="M44529 35709
L42671 35709
" />
<path d="M42671 35709
L42671 34291
" />
<path d="M42671 34291
L44529 34291
" />
<path d="M44529 34291
L44529 35709
" />
</g>
<g style="fill:#000000; fill-opacity:0.0; 
stroke:#000000; stroke-width:40; stroke-opacity:1; 
stroke-linecap:round; stroke-linejoin:round;">
<circle cx="44309" cy="35390" r="39.598" /> 
</g>
<g style="fill:#000000; fill-opacity:0.0; 
stroke:#000000; stroke-width:59.0551; stroke-opacity:1; 
stroke-linecap:round; stroke-linejoin:round;">
<path d="M49500 44850
L42500 44850
" />
<path d="M49500 30550
L42500 30550
" />
<path d="M42500 30550 A1000 1000 0.0 0 0 41500 31550 " />
<path d="M50500 31550 A1000 1000 0.0 0 0 49500 30550 " />
<path d="M41500 43850 A1000 1000 0.0 0 0 42500 44850 " />
<path d="M49500 44850 A1000 1000 0.0 0 0 50500 43850 " />
<path d="M41500 31550
L41500 43800
" />
<path d="M50500 31550
L50500 43850
" />
</g>
<g style="fill:#000000; fill-opacity:0.0; 
stroke:#000000; stroke-width:31; stroke-opacity:1; 
stroke-linecap:round; stroke-linejoin:round;">
<circle cx="50938" cy="38337" r="62.626" /> 
<path d="M50600 39300
L51000 39300
" />
<path d="M50600 38275
L51000 38275
" />
<path d="M51000 39300
L51000 38275
" />
<path d="M50600 38275
L50600 39300
" />
</g>
<g style="fill:#000000; fill-opacity:0.0; 
stroke:#000000; stroke-width:26; stroke-opacity:1; 
stroke-linecap:round; stroke-linejoin:round;">
<path d="M44825 34040
L44825 33785
" />
<path d="M44825 33785
L45376 33785
" />
<path d="M45376 34040
L45376 33785
" />
<path d="M44825 34040
L45376 34040
" />
<path d="M44825 34620
L44825 34364
" />
<path d="M44825 34364
L45376 34364
" />
<path d="M45376 34620
L45376 34364
" />
<path d="M44825 34620
L45376 34620
" />
<path d="M44904 34278
L44904 34122
" />
<path d="M44904 34122
L45296 34122
" />
<path d="M45296 34278
L45296 34122
" />
<path d="M44904 34278
L45296 34278
" />
</g>
<g style="fill:#000000; fill-opacity:0.0; 
stroke:#000000; stroke-width:60; stroke-opacity:1; 
stroke-linecap:round; stroke-linejoin:round;">
<path d="M45350 34361
L45350 34039
" />
<path d="M44850 34361
L44850 34039
" />
</g>
<g style="fill:#000000; fill-opacity:0.0; 
stroke:#000000; stroke-width:20; stroke-opacity:1; 
stroke-linecap:round; stroke-linejoin:round;">
<path d="M45487 34976
L45487 33424
" />
<path d="M45487 33424
L44713 33424
" />
<path d="M44713 33424
L44713 34976
" />
<path d="M44713 34976
L45487 34976
" />
</g>
<g style="fill:#000000; fill-opacity:0.0; 
stroke:#000000; stroke-width:26; stroke-opacity:1; 
stroke-linecap:round; stroke-linejoin:round;">
<path d="M44825 35640
L44825 35385
" />
<path d="M44825 35385
L45376 35385
" />
<path d="M45376 35640
L45376 35385
" />
<path d="M44825 35640
L45376 35640
" />
<path d="M44825 36220
L44825 35964
" />
<path d="M44825 35964
L45376 35964
" />
<path d="M45376 36220
L45376 35964
" />
<path d="M44825 36220
L45376 36220
" />
<path d="M44904 35878
L44904 35722
" />
<path d="M44904 35722
L45296 35722
" />
<path d="M45296 35878
L45296 35722
" />
<path d="M44904 35878
L45296 35878
" />
</g>
<g style="fill:#000000; fill-opacity:0.0; 
stroke:#000000; stroke-width:60; stroke-opacity:1; 
stroke-linecap:round; stroke-linejoin:round;">
<path d="M45350 35961
L45350 35639
" />
<path d="M44850 35961
L44850 35639
" />
</g>
<g style="fill:#000000; fill-opacity:0.0; 
stroke:#000000; stroke-width:20; stroke-opacity:1; 
stroke-linecap:round; stroke-linejoin:round;">
<path d="M45487 36576
L45487 35024
" />
<path d="M45487 35024
L44713 35024
" />
<path d="M44713 35024
L44713 36576
" />
<path d="M44713 36576
L45487 36576
" />
</g>
<g style="fill:#000000; fill-opacity:0.0; 
stroke:#000000; stroke-width:26; stroke-opacity:1; 
stroke-linecap:round; stroke-linejoin:round;">
<path d="M44360 27925
L44615 27925
" />
<path d="M44615 27925
L44615 28476
" />
<path d="M44360 28476
L44615 28476
" />
<path d="M44360 27925
L44360 28476
" />
<path d="M43780 27925
L44036 27925
" />
<path d="M44036 27925
L44036 28476
" />
<path d="M43780 28476
L44036 28476
" />
<path d="M43780 27925
L43780 28476
" />
<path d="M44122 28004
L44278 28004
" />
<path d="M44278 28004
L44278 28396
" />
<path d="M44122 28396
L44278 28396
" />
<path d="M44122 28004
L44122 28396
" />
</g>
<g style="fill:#000000; fill-opacity:0.0; 
stroke:#000000; stroke-width:60; stroke-opacity:1; 
stroke-linecap:round; stroke-linejoin:round;">
<path d="M44039 28450
L44361 28450
" />
<path d="M44039 27950
L44361 27950
" />
</g>
<g style="fill:#000000; fill-opacity:0.0; 
stroke:#000000; stroke-width:20; stroke-opacity:1; 
stroke-linecap:round; stroke-linejoin:round;">
<path d="M43424 28587
L44976 28587
" />
<path d="M44976 28587
L44976 27813
" />
<path d="M44976 27813
L43424 27813
" />
<path d="M43424 27813
L43424 28587
" />
</g>
<g style="fill:#000000; fill-opacity:0.0; 
stroke:#000000; stroke-width:26; stroke-opacity:1; 
stroke-linecap:round; stroke-linejoin:round;">
<path d="M40160 34225
L40415 34225
" />
<path d="M40415 34225
L40415 34776
" />
<path d="M40160 34776
L40415 34776
" />
<path d="M40160 34225
L40160 34776
" />
<path d="M39580 34225
L39836 34225
" />
<path d="M39836 34225
L39836 34776
" />
<path d="M39580 34776
L39836 34776
" />
<path d="M39580 34225
L39580 34776
" />
<path d="M39922 34304
L40078 34304
" />
<path d="M40078 34304
L40078 34696
" />
<path d="M39922 34696
L40078 34696
" />
<path d="M39922 34304
L39922 34696
" />
</g>
<g style="fill:#000000; fill-opacity:0.0; 
stroke:#000000; stroke-width:60; stroke-opacity:1; 
stroke-linecap:round; stroke-linejoin:round;">
<path d="M39839 34750
L40161 34750
" />
<path d="M39839 34250
L40161 34250
" />
</g>
<g style="fill:#000000; fill-opacity:0.0; 
stroke:#000000; stroke-width:20; stroke-opacity:1; 
stroke-linecap:round; stroke-linejoin:round;">
<path d="M39224 34887
L40776 34887
" />
<path d="M40776 34887
L40776 34113
" />
<path d="M40776 34113
L39224 34113
" />
<path d="M39224 34113
L39224 34887
" />
</g>
<g style="fill:#000000; fill-opacity:0.0; 
stroke:#000000; stroke-width:26; stroke-opacity:1; 
stroke-linecap:round; stroke-linejoin:round;">
<path d="M40160 32725
L40415 32725
" />
<path d="M40415 32725
L40415 33276
" />
<path d="M40160 33276
L40415 33276
" />
<path d="M40160 32725
L40160 33276
" />
<path d="M39580 32725
L39836 32725
" />
<path d="M39836 32725
L39836 33276
" />
<path d="M39580 33276
L39836 33276
" />
<path d="M39580 32725
L39580 33276
" />
<path d="M39922 32804
L40078 32804
" />
<path d="M40078 32804
L40078 33196
" />
<path d="M39922 33196
L40078 33196
" />
<path d="M39922 32804
L39922 33196
" />
</g>
<g style="fill:#000000; fill-opacity:0.0; 
stroke:#000000; stroke-width:60; stroke-opacity:1; 
stroke-linecap:round; stroke-linejoin:round;">
<path d="M39839 33250
L40161 33250
" />
<path d="M39839 32750
L40161 32750
" />
</g>
<g style="fill:#000000; fill-opacity:0.0; 
stroke:#000000; stroke-width:20; stroke-opacity:1; 
stroke-linecap:round; stroke-linejoin:round;">
<path d="M39224 33387
L40776 33387
" />
<path d="M40776 33387
L40776 32613
" />
<path d="M40776 32613
L39224 32613
" />
<path d="M39224 32613
L39224 33387
" />
</g>
<g style="fill:#000000; fill-opacity:0.0; 
stroke:#000000; stroke-width:26; stroke-opacity:1; 
stroke-linecap:round; stroke-linejoin:round;">
<path d="M43840 30525
L43585 30525
" />
<path d="M43585 30525
L43585 29974
" />
<path d="M43840 29974
L43585 29974
" />
<path d="M43840 30525
L43840 29974
" />
<path d="M44420 30525
L44164 30525
" />
<path d="M44164 30525
L44164 29974
" />
<path d="M44420 29974
L44164 29974
" />
<path d="M44420 30525
L44420 29974
" />
<path d="M44078 30446
L43922 30446
" />
<path d="M43922 30446
L43922 30054
" />
<path d="M44078 30054
L43922 30054
" />
<path d="M44078 30446
L44078 30054
" />
</g>
<g style="fill:#000000; fill-opacity:0.0; 
stroke:#000000; stroke-width:60; stroke-opacity:1; 
stroke-linecap:round; stroke-linejoin:round;">
<path d="M44161 30000
L43839 30000
" />
<path d="M44161 30500
L43839 30500
" />
</g>
<g style="fill:#000000; fill-opacity:0.0; 
stroke:#000000; stroke-width:20; stroke-opacity:1; 
stroke-linecap:round; stroke-linejoin:round;">
<path d="M44776 29863
L43224 29863
" />
<path d="M43224 29863
L43224 30637
" />
<path d="M43224 30637
L44776 30637
" />
<path d="M44776 30637
L44776 29863
" />
</g>
<g style="fill:#000000; fill-opacity:0.0; 
stroke:#000000; stroke-width:26; stroke-opacity:1; 
stroke-linecap:round; stroke-linejoin:round;">
<path d="M46840 30525
L46585 30525
" />
<path d="M46585 30525
L46585 29974
" />
<path d="M46840 29974
L46585 29974
" />
<path d="M46840 30525
L46840 29974
" />
<path d="M47420 30525
L47164 30525
" />
<path d="M47164 30525
L47164 29974
" />
<path d="M47420 29974
L47164 29974
" />
<path d="M47420 30525
L47420 29974
" />
<path d="M47078 30446
L46922 30446
" />
<path d="M46922 30446
L46922 30054
" />
<path d="M47078 30054
L46922 30054
" />
<path d="M47078 30446
L47078 30054
" />
</g>
<g style="fill:#000000; fill-opacity:0.0; 
stroke:#000000; stroke-width:60; stroke-opacity:1; 
stroke-linecap:round; stroke-linejoin:round;">
<path d="M47161 30000
L46839 30000
" />
<path d="M47161 30500
L46839 30500
" />
</g>
<g style="fill:#000000; fill-opacity:0.0; 
stroke:#000000; stroke-width:20; stroke-opacity:1; 
stroke-linecap:round; stroke-linejoin:round;">
<path d="M47776 29863
L46224 29863
" />
<path d="M46224 29863
L46224 30637
" />
<path d="M46224 30637
L47776 30637
" />
<path d="M47776 30637
L47776 29863
" />
</g>
<g style="fill:#000000; fill-opacity:0.0; 
stroke:#000000; stroke-width:26; stroke-opacity:1; 
stroke-linecap:round; stroke-linejoin:round;">
<path d="M49840 30525
L49585 30525
" />
<path d="M49585 30525
L49585 29974
" />
<path d="M49840 29974
L49585 29974
" />
<path d="M49840 30525
L49840 29974
" />
<path d="M50420 30525
L50164 30525
" />
<path d="M50164 30525
L50164 29974
" />
<path d="M50420 29974
L50164 29974
" />
<path d="M50420 30525
L50420 29974
" />
<path d="M50078 30446
L49922 30446
" />
<path d="M49922 30446
L49922 30054
" />
<path d="M50078 30054
L49922 30054
" />
<path d="M50078 30446
L50078 30054
" />
</g>
<g style="fill:#000000; fill-opacity:0.0; 
stroke:#000000; stroke-width:60; stroke-opacity:1; 
stroke-linecap:round; stroke-linejoin:round;">
<path d="M50161 30000
L49839 30000
" />
<path d="M50161 30500
L49839 30500
" />
</g>
<g style="fill:#000000; fill-opacity:0.0; 
stroke:#000000; stroke-width:20; stroke-opacity:1; 
stroke-linecap:round; stroke-linejoin:round;">
<path d="M50776 29863
L49224 29863
" />
<path d="M49224 29863
L49224 30637
" />
<path d="M49224 30637
L50776 30637
" />
<path d="M50776 30637
L50776 29863
" />
</g>
<g style="fill:#000000; fill-opacity:0.0; 
stroke:#000000; stroke-width:26; stroke-opacity:1; 
stroke-linecap:round; stroke-linejoin:round;">
<path d="M52840 30525
L52585 30525
" />
<path d="M52585 30525
L52585 29974
" />
<path d="M52840 29974
L52585 29974
" />
<path d="M52840 30525
L52840 29974
" />
<path d="M53420 30525
L53164 30525
" />
<path d="M53164 30525
L53164 29974
" />
<path d="M53420 29974
L53164 29974
" />
<path d="M53420 30525
L53420 29974
" />
<path d="M53078 30446
L52922 30446
" />
<path d="M52922 30446
L52922 30054
" />
<path d="M53078 30054
L52922 30054
" />
<path d="M53078 30446
L53078 30054
" />
</g>
<g style="fill:#000000; fill-opacity:0.0; 
stroke:#000000; stroke-width:60; stroke-opacity:1; 
stroke-linecap:round; stroke-linejoin:round;">
<path d="M53161 30000
L52839 30000
" />
<path d="M53161 30500
L52839 30500
" />
</g>
<g style="fill:#000000; fill-opacity:0.0; 
stroke:#000000; stroke-width:20; stroke-opacity:1; 
stroke-linecap:round; stroke-linejoin:round;">
<path d="M53776 29863
L52224 29863
" />
<path d="M52224 29863
L52224 30637
" />
<path d="M52224 30637
L53776 30637
" />
<path d="M53776 30637
L53776 29863
" />
</g>
<g style="fill:#000000; fill-opacity:0.0; 
stroke:#000000; stroke-width:26; stroke-opacity:1; 
stroke-linecap:round; stroke-linejoin:round;">
<path d="M47275 33260
L47275 33515
" />
<path d="M47275 33515
L46724 33515
" />
<path d="M46724 33260
L46724 33515
" />
<path d="M47275 33260
L46724 33260
" />
<path d="M47275 32680
L47275 32936
" />
<path d="M47275 32936
L46724 32936
" />
<path d="M46724 32680
L46724 32936
" />
<path d="M47275 32680
L46724 32680
" />
<path d="M47196 33022
L47196 33178
" />
<path d="M47196 33178
L46804 33178
" />
<path d="M46804 33022
L46804 33178
" />
<path d="M47196 33022
L46804 33022
" />
</g>
<g style="fill:#000000; fill-opacity:0.0; 
stroke:#000000; stroke-width:60; stroke-opacity:1; 
stroke-linecap:round; stroke-linejoin:round;">
<path d="M46750 32939
L46750 33261
" />
<path d="M47250 32939
L47250 33261
" />
</g>
<g style="fill:#000000; fill-opacity:0.0; 
stroke:#000000; stroke-width:20; stroke-opacity:1; 
stroke-linecap:round; stroke-linejoin:round;">
<path d="M46613 32324
L46613 33876
" />
<path d="M46613 33876
L47387 33876
" />
<path d="M47387 33876
L47387 32324
" />
<path d="M47387 32324
L46613 32324
" />
</g>
<g style="fill:#000000; fill-opacity:0.0; 
stroke:#000000; stroke-width:26; stroke-opacity:1; 
stroke-linecap:round; stroke-linejoin:round;">
<path d="M52460 31625
L52715 31625
" />
<path d="M52715 31625
L52715 32176
" />
<path d="M52460 32176
L52715 32176
" />
<path d="M52460 31625
L52460 32176
" />
<path d="M51880 31625
L52136 31625
" />
<path d="M52136 31625
L52136 32176
" />
<path d="M51880 32176
L52136 32176
" />
<path d="M51880 31625
L51880 32176
" />
<path d="M52222 31704
L52378 31704
" />
<path d="M52378 31704
L52378 32096
" />
<path d="M52222 32096
L52378 32096
" />
<path d="M52222 31704
L52222 32096
" />
</g>
<g style="fill:#000000; fill-opacity:0.0; 
stroke:#000000; stroke-width:60; stroke-opacity:1; 
stroke-linecap:round; stroke-linejoin:round;">
<path d="M52139 32150
L52461 32150
" />
<path d="M52139 31650
L52461 31650
" />
</g>
<g style="fill:#000000; fill-opacity:0.0; 
stroke:#000000; stroke-width:20; stroke-opacity:1; 
stroke-linecap:round; stroke-linejoin:round;">
<path d="M51524 32287
L53076 32287
" />
<path d="M53076 32287
L53076 31513
" />
<path d="M53076 31513
L51524 31513
" />
<path d="M51524 31513
L51524 32287
" />
</g>
<g style="fill:#000000; fill-opacity:0.0; 
stroke:#000000; stroke-width:26; stroke-opacity:1; 
stroke-linecap:round; stroke-linejoin:round;">
<path d="M49560 36425
L49815 36425
" />
<path d="M49815 36425
L49815 36976
" />
<path d="M49560 36976
L49815 36976
" />
<path d="M49560 36425
L49560 36976
" />
<path d="M48980 36425
L49236 36425
" />
<path d="M49236 36425
L49236 36976
" />
<path d="M48980 36976
L49236 36976
" />
<path d="M48980 36425
L48980 36976
" />
<path d="M49322 36504
L49478 36504
" />
<path d="M49478 36504
L49478 36896
" />
<path d="M49322 36896
L49478 36896
" />
<path d="M49322 36504
L49322 36896
" />
</g>
<g style="fill:#000000; fill-opacity:0.0; 
stroke:#000000; stroke-width:60; stroke-opacity:1; 
stroke-linecap:round; stroke-linejoin:round;">
<path d="M49239 36950
L49561 36950
" />
<path d="M49239 36450
L49561 36450
" />
</g>
<g style="fill:#000000; fill-opacity:0.0; 
stroke:#000000; stroke-width:20; stroke-opacity:1; 
stroke-linecap:round; stroke-linejoin:round;">
<path d="M48624 37087
L50176 37087
" />
<path d="M50176 37087
L50176 36313
" />
<path d="M50176 36313
L48624 36313
" />
<path d="M48624 36313
L48624 37087
" />
</g>
<g style="fill:#000000; fill-opacity:0.0; 
stroke:#000000; stroke-width:26; stroke-opacity:1; 
stroke-linecap:round; stroke-linejoin:round;">
<path d="M47560 36425
L47815 36425
" />
<path d="M47815 36425
L47815 36976
" />
<path d="M47560 36976
L47815 36976
" />
<path d="M47560 36425
L47560 36976
" />
<path d="M46980 36425
L47236 36425
" />
<path d="M47236 36425
L47236 36976
" />
<path d="M46980 36976
L47236 36976
" />
<path d="M46980 36425
L46980 36976
" />
<path d="M47322 36504
L47478 36504
" />
<path d="M47478 36504
L47478 36896
" />
<path d="M47322 36896
L47478 36896
" />
<path d="M47322 36504
L47322 36896
" />
</g>
<g style="fill:#000000; fill-opacity:0.0; 
stroke:#000000; stroke-width:60; stroke-opacity:1; 
stroke-linecap:round; stroke-linejoin:round;">
<path d="M47239 36950
L47561 36950
" />
<path d="M47239 36450
L47561 36450
" />
</g>
<g style="fill:#000000; fill-opacity:0.0; 
stroke:#000000; stroke-width:20; stroke-opacity:1; 
stroke-linecap:round; stroke-linejoin:round;">
<path d="M46624 37087
L48176 37087
" />
<path d="M48176 37087
L48176 36313
" />
<path d="M48176 36313
L46624 36313
" />
<path d="M46624 36313
L46624 37087
" />
</g>
<g style="fill:#000000; fill-opacity:0.0; 
stroke:#000000; stroke-width:26; stroke-opacity:1; 
stroke-linecap:round; stroke-linejoin:round;">
<path d="M46560 34625
L46815 34625
" />
<path d="M46815 34625
L46815 35176
" />
<path d="M46560 35176
L46815 35176
" />
<path d="M46560 34625
L46560 35176
" />
<path d="M45980 34625
L46236 34625
" />
<path d="M46236 34625
L46236 35176
" />
<path d="M45980 35176
L46236 35176
" />
<path d="M45980 34625
L45980 35176
" />
<path d="M46322 34704
L46478 34704
" />
<path d="M46478 34704
L46478 35096
" />
<path d="M46322 35096
L46478 35096
" />
<path d="M46322 34704
L46322 35096
" />
</g>
<g style="fill:#000000; fill-opacity:0.0; 
stroke:#000000; stroke-width:60; stroke-opacity:1; 
stroke-linecap:round; stroke-linejoin:round;">
<path d="M46239 35150
L46561 35150
" />
<path d="M46239 34650
L46561 34650
" />
</g>
<g style="fill:#000000; fill-opacity:0.0; 
stroke:#000000; stroke-width:20; stroke-opacity:1; 
stroke-linecap:round; stroke-linejoin:round;">
<path d="M45624 35287
L47176 35287
" />
<path d="M47176 35287
L47176 34513
" />
<path d="M47176 34513
L45624 34513
" />
<path d="M45624 34513
L45624 35287
" />
</g>
<g style="fill:#000000; fill-opacity:0.0; 
stroke:#000000; stroke-width:26; stroke-opacity:1; 
stroke-linecap:round; stroke-linejoin:round;">
<path d="M48560 32425
L48815 32425
" />
<path d="M48815 32425
L48815 32976
" />
<path d="M48560 32976
L48815 32976
" />
<path d="M48560 32425
L48560 32976
" />
<path d="M47980 32425
L48236 32425
" />
<path d="M48236 32425
L48236 32976
" />
<path d="M47980 32976
L48236 32976
" />
<path d="M47980 32425
L47980 32976
" />
<path d="M48322 32504
L48478 32504
" />
<path d="M48478 32504
L48478 32896
" />
<path d="M48322 32896
L48478 32896
" />
<path d="M48322 32504
L48322 32896
" />
</g>
<g style="fill:#000000; fill-opacity:0.0; 
stroke:#000000; stroke-width:60; stroke-opacity:1; 
stroke-linecap:round; stroke-linejoin:round;">
<path d="M48239 32950
L48561 32950
" />
<path d="M48239 32450
L48561 32450
" />
</g>
<g style="fill:#000000; fill-opacity:0.0; 
stroke:#000000; stroke-width:20; stroke-opacity:1; 
stroke-linecap:round; stroke-linejoin:round;">
<path d="M47624 33087
L49176 33087
" />
<path d="M49176 33087
L49176 32313
" />
<path d="M49176 32313
L47624 32313
" />
<path d="M47624 32313
L47624 33087
" />
</g>
<g style="fill:#000000; fill-opacity:0.0; 
stroke:#000000; stroke-width:26; stroke-opacity:1; 
stroke-linecap:round; stroke-linejoin:round;">
<path d="M50560 34625
L50815 34625
" />
<path d="M50815 34625
L50815 35176
" />
<path d="M50560 35176
L50815 35176
" />
<path d="M50560 34625
L50560 35176
" />
<path d="M49980 34625
L50236 34625
" />
<path d="M50236 34625
L50236 35176
" />
<path d="M49980 35176
L50236 35176
" />
<path d="M49980 34625
L49980 35176
" />
<path d="M50322 34704
L50478 34704
" />
<path d="M50478 34704
L50478 35096
" />
<path d="M50322 35096
L50478 35096
" />
<path d="M50322 34704
L50322 35096
" />
</g>
<g style="fill:#000000; fill-opacity:0.0; 
stroke:#000000; stroke-width:60; stroke-opacity:1; 
stroke-linecap:round; stroke-linejoin:round;">
<path d="M50239 35150
L50561 35150
" />
<path d="M50239 34650
L50561 34650
" />
</g>
<g style="fill:#000000; fill-opacity:0.0; 
stroke:#000000; stroke-width:20; stroke-opacity:1; 
stroke-linecap:round; stroke-linejoin:round;">
<path d="M49624 35287
L51176 35287
" />
<path d="M51176 35287
L51176 34513
" />
<path d="M51176 34513
L49624 34513
" />
<path d="M49624 34513
L49624 35287
" />
</g>
<g style="fill:#000000; fill-opacity:0.0; 
stroke:#000000; stroke-width:26; stroke-opacity:1; 
stroke-linecap:round; stroke-linejoin:round;">
<path d="M48560 34625
L48815 34625
" />
<path d="M48815 34625
L48815 35176
" />
<path d="M48560 35176
L48815 35176
" />
<path d="M48560 34625
L48560 35176
" />
<path d="M47980 34625
L48236 34625
" />
<path d="M48236 34625
L48236 35176
" />
<path d="M47980 35176
L48236 35176
" />
<path d="M47980 34625
L47980 35176
" />
<path d="M48322 34704
L48478 34704
" />
<path d="M48478 34704
L48478 35096
" />
<path d="M48322 35096
L48478 35096
" />
<path d="M48322 34704
L48322 35096
" />
</g>
<g style="fill:#000000; fill-opacity:0.0; 
stroke:#000000; stroke-width:60; stroke-opacity:1; 
stroke-linecap:round; stroke-linejoin:round;">
<path d="M48239 35150
L48561 35150
" />
<path d="M48239 34650
L48561 34650
" />
</g>
<g style="fill:#000000; fill-opacity:0.0; 
stroke:#000000; stroke-width:20; stroke-opacity:1; 
stroke-linecap:round; stroke-linejoin:round;">
<path d="M47624 35287
L49176 35287
" />
<path d="M49176 35287
L49176 34513
" />
<path d="M49176 34513
L47624 34513
" />
<path d="M47624 34513
L47624 35287
" />
</g>
<g style="fill:#000000; fill-opacity:0.0; 
stroke:#000000; stroke-width:26; stroke-opacity:1; 
stroke-linecap:round; stroke-linejoin:round;">
<path d="M64310 35725
L64565 35725
" />
<path d="M64565 35725
L64565 36276
" />
<path d="M64310 36276
L64565 36276
" />
<path d="M64310 35725
L64310 36276
" />
<path d="M63730 35725
L63986 35725
" />
<path d="M63986 35725
L63986 36276
" />
<path d="M63730 36276
L63986 36276
" />
<path d="M63730 35725
L63730 36276
" />
<path d="M64072 35804
L64228 35804
" />
<path d="M64228 35804
L64228 36196
" />
<path d="M64072 36196
L64228 36196
" />
<path d="M64072 35804
L64072 36196
" />
</g>
<g style="fill:#000000; fill-opacity:0.0; 
stroke:#000000; stroke-width:60; stroke-opacity:1; 
stroke-linecap:round; stroke-linejoin:round;">
<path d="M63989 36250
L64311 36250
" />
<path d="M63989 35750
L64311 35750
" />
</g>
<g style="fill:#000000; fill-opacity:0.0; 
stroke:#000000; stroke-width:20; stroke-opacity:1; 
stroke-linecap:round; stroke-linejoin:round;">
<path d="M63374 36387
L64926 36387
" />
<path d="M64926 36387
L64926 35613
" />
<path d="M64926 35613
L63374 35613
" />
<path d="M63374 35613
L63374 36387
" />
</g>
<g style="fill:#000000; fill-opacity:0.0; 
stroke:#000000; stroke-width:26; stroke-opacity:1; 
stroke-linecap:round; stroke-linejoin:round;">
<path d="M65925 31440
L65925 31185
" />
<path d="M65925 31185
L66476 31185
" />
<path d="M66476 31440
L66476 31185
" />
<path d="M65925 31440
L66476 31440
" />
<path d="M65925 32020
L65925 31764
" />
<path d="M65925 31764
L66476 31764
" />
<path d="M66476 32020
L66476 31764
" />
<path d="M65925 32020
L66476 32020
" />
<path d="M66004 31678
L66004 31522
" />
<path d="M66004 31522
L66396 31522
" />
<path d="M66396 31678
L66396 31522
" />
<path d="M66004 31678
L66396 31678
" />
</g>
<g style="fill:#000000; fill-opacity:0.0; 
stroke:#000000; stroke-width:60; stroke-opacity:1; 
stroke-linecap:round; stroke-linejoin:round;">
<path d="M66450 31761
L66450 31439
" />
<path d="M65950 31761
L65950 31439
" />
</g>
<g style="fill:#000000; fill-opacity:0.0; 
stroke:#000000; stroke-width:20; stroke-opacity:1; 
stroke-linecap:round; stroke-linejoin:round;">
<path d="M66587 32376
L66587 30824
" />
<path d="M66587 30824
L65813 30824
" />
<path d="M65813 30824
L65813 32376
" />
<path d="M65813 32376
L66587 32376
" />
</g>
<g style="fill:#000000; fill-opacity:0.0; 
stroke:#000000; stroke-width:26; stroke-opacity:1; 
stroke-linecap:round; stroke-linejoin:round;">
<path d="M66725 43240
L66725 42985
" />
<path d="M66725 42985
L67276 42985
" />
<path d="M67276 43240
L67276 42985
" />
<path d="M66725 43240
L67276 43240
" />
<path d="M66725 43820
L66725 43564
" />
<path d="M66725 43564
L67276 43564
" />
<path d="M67276 43820
L67276 43564
" />
<path d="M66725 43820
L67276 43820
" />
<path d="M66804 43478
L66804 43322
" />
<path d="M66804 43322
L67196 43322
" />
<path d="M67196 43478
L67196 43322
" />
<path d="M66804 43478
L67196 43478
" />
</g>
<g style="fill:#000000; fill-opacity:0.0; 
stroke:#000000; stroke-width:60; stroke-opacity:1; 
stroke-linecap:round; stroke-linejoin:round;">
<path d="M67250 43561
L67250 43239
" />
<path d="M66750 43561
L66750 43239
" />
</g>
<g style="fill:#000000; fill-opacity:0.0; 
stroke:#000000; stroke-width:20; stroke-opacity:1; 
stroke-linecap:round; stroke-linejoin:round;">
<path d="M67387 44176
L67387 42624
" />
<path d="M67387 42624
L66613 42624
" />
<path d="M66613 42624
L66613 44176
" />
<path d="M66613 44176
L67387 44176
" />
</g>
<g style="fill:#000000; fill-opacity:0.0; 
stroke:#000000; stroke-width:26; stroke-opacity:1; 
stroke-linecap:round; stroke-linejoin:round;">
<path d="M68075 43560
L68075 43815
" />
<path d="M68075 43815
L67524 43815
" />
<path d="M67524 43560
L67524 43815
" />
<path d="M68075 43560
L67524 43560
" />
<path d="M68075 42980
L68075 43236
" />
<path d="M68075 43236
L67524 43236
" />
<path d="M67524 42980
L67524 43236
" />
<path d="M68075 42980
L67524 42980
" />
<path d="M67996 43322
L67996 43478
" />
<path d="M67996 43478
L67604 43478
" />
<path d="M67604 43322
L67604 43478
" />
<path d="M67996 43322
L67604 43322
" />
</g>
<g style="fill:#000000; fill-opacity:0.0; 
stroke:#000000; stroke-width:60; stroke-opacity:1; 
stroke-linecap:round; stroke-linejoin:round;">
<path d="M67550 43239
L67550 43561
" />
<path d="M68050 43239
L68050 43561
" />
</g>
<g style="fill:#000000; fill-opacity:0.0; 
stroke:#000000; stroke-width:20; stroke-opacity:1; 
stroke-linecap:round; stroke-linejoin:round;">
<path d="M67413 42624
L67413 44176
" />
<path d="M67413 44176
L68187 44176
" />
<path d="M68187 44176
L68187 42624
" />
<path d="M68187 42624
L67413 42624
" />
</g>
<g style="fill:#000000; fill-opacity:0.0; 
stroke:#000000; stroke-width:26; stroke-opacity:1; 
stroke-linecap:round; stroke-linejoin:round;">
<path d="M70040 42275
L69785 42275
" />
<path d="M69785 42275
L69785 41724
" />
<path d="M70040 41724
L69785 41724
" />
<path d="M70040 42275
L70040 41724
" />
<path d="M70620 42275
L70364 42275
" />
<path d="M70364 42275
L70364 41724
" />
<path d="M70620 41724
L70364 41724
" />
<path d="M70620 42275
L70620 41724
" />
<path d="M70278 42196
L70122 42196
" />
<path d="M70122 42196
L70122 41804
" />
<path d="M70278 41804
L70122 41804
" />
<path d="M70278 42196
L70278 41804
" />
</g>
<g style="fill:#000000; fill-opacity:0.0; 
stroke:#000000; stroke-width:60; stroke-opacity:1; 
stroke-linecap:round; stroke-linejoin:round;">
<path d="M70361 41750
L70039 41750
" />
<path d="M70361 42250
L70039 42250
" />
</g>
<g style="fill:#000000; fill-opacity:0.0; 
stroke:#000000; stroke-width:20; stroke-opacity:1; 
stroke-linecap:round; stroke-linejoin:round;">
<path d="M70976 41613
L69424 41613
" />
<path d="M69424 41613
L69424 42387
" />
<path d="M69424 42387
L70976 42387
" />
<path d="M70976 42387
L70976 41613
" />
</g>
<g style="fill:#000000; fill-opacity:0.0; 
stroke:#000000; stroke-width:26; stroke-opacity:1; 
stroke-linecap:round; stroke-linejoin:round;">
<path d="M70040 43775
L69785 43775
" />
<path d="M69785 43775
L69785 43224
" />
<path d="M70040 43224
L69785 43224
" />
<path d="M70040 43775
L70040 43224
" />
<path d="M70620 43775
L70364 43775
" />
<path d="M70364 43775
L70364 43224
" />
<path d="M70620 43224
L70364 43224
" />
<path d="M70620 43775
L70620 43224
" />
<path d="M70278 43696
L70122 43696
" />
<path d="M70122 43696
L70122 43304
" />
<path d="M70278 43304
L70122 43304
" />
<path d="M70278 43696
L70278 43304
" />
</g>
<g style="fill:#000000; fill-opacity:0.0; 
stroke:#000000; stroke-width:60; stroke-opacity:1; 
stroke-linecap:round; stroke-linejoin:round;">
<path d="M70361 43250
L70039 43250
" />
<path d="M70361 43750
L70039 43750
" />
</g>
<g style="fill:#000000; fill-opacity:0.0; 
stroke:#000000; stroke-width:20; stroke-opacity:1; 
stroke-linecap:round; stroke-linejoin:round;">
<path d="M70976 43113
L69424 43113
" />
<path d="M69424 43113
L69424 43887
" />
<path d="M69424 43887
L70976 43887
" />
<path d="M70976 43887
L70976 43113
" />
</g>
<g style="fill:#000000; fill-opacity:0.0; 
stroke:#000000; stroke-width:26; stroke-opacity:1; 
stroke-linecap:round; stroke-linejoin:round;">
<path d="M40160 31225
L40415 31225
" />
<path d="M40415 31225
L40415 31776
" />
<path d="M40160 31776
L40415 31776
" />
<path d="M40160 31225
L40160 31776
" />
<path d="M39580 31225
L39836 31225
" />
<path d="M39836 31225
L39836 31776
" />
<path d="M39580 31776
L39836 31776
" />
<path d="M39580 31225
L39580 31776
" />
<path d="M39922 31304
L40078 31304
" />
<path d="M40078 31304
L40078 31696
" />
<path d="M39922 31696
L40078 31696
" />
<path d="M39922 31304
L39922 31696
" />
</g>
<g style="fill:#000000; fill-opacity:0.0; 
stroke:#000000; stroke-width:60; stroke-opacity:1; 
stroke-linecap:round; stroke-linejoin:round;">
<path d="M39839 31750
L40161 31750
" />
<path d="M39839 31250
L40161 31250
" />
</g>
<g style="fill:#000000; fill-opacity:0.0; 
stroke:#000000; stroke-width:20; stroke-opacity:1; 
stroke-linecap:round; stroke-linejoin:round;">
<path d="M39224 31887
L40776 31887
" />
<path d="M40776 31887
L40776 31113
" />
<path d="M40776 31113
L39224 31113
" />
<path d="M39224 31113
L39224 31887
" />
</g>
<g style="fill:#000000; fill-opacity:0.0; 
stroke:#000000; stroke-width:26; stroke-opacity:1; 
stroke-linecap:round; stroke-linejoin:round;">
<path d="M56125 30440
L56125 30185
" />
<path d="M56125 30185
L56676 30185
" />
<path d="M56676 30440
L56676 30185
" />
<path d="M56125 30440
L56676 30440
" />
<path d="M56125 31020
L56125 30764
" />
<path d="M56125 30764
L56676 30764
" />
<path d="M56676 31020
L56676 30764
" />
<path d="M56125 31020
L56676 31020
" />
<path d="M56204 30678
L56204 30522
" />
<path d="M56204 30522
L56596 30522
" />
<path d="M56596 30678
L56596 30522
" />
<path d="M56204 30678
L56596 30678
" />
</g>
<g style="fill:#000000; fill-opacity:0.0; 
stroke:#000000; stroke-width:60; stroke-opacity:1; 
stroke-linecap:round; stroke-linejoin:round;">
<path d="M56650 30761
L56650 30439
" />
<path d="M56150 30761
L56150 30439
" />
</g>
<g style="fill:#000000; fill-opacity:0.0; 
stroke:#000000; stroke-width:20; stroke-opacity:1; 
stroke-linecap:round; stroke-linejoin:round;">
<path d="M56787 31376
L56787 29824
" />
<path d="M56787 29824
L56013 29824
" />
<path d="M56013 29824
L56013 31376
" />
<path d="M56013 31376
L56787 31376
" />
</g>
<g style="fill:#000000; fill-opacity:0.0; 
stroke:#000000; stroke-width:26; stroke-opacity:1; 
stroke-linecap:round; stroke-linejoin:round;">
<path d="M62025 31440
L62025 31185
" />
<path d="M62025 31185
L62576 31185
" />
<path d="M62576 31440
L62576 31185
" />
<path d="M62025 31440
L62576 31440
" />
<path d="M62025 32020
L62025 31764
" />
<path d="M62025 31764
L62576 31764
" />
<path d="M62576 32020
L62576 31764
" />
<path d="M62025 32020
L62576 32020
" />
<path d="M62104 31678
L62104 31522
" />
<path d="M62104 31522
L62496 31522
" />
<path d="M62496 31678
L62496 31522
" />
<path d="M62104 31678
L62496 31678
" />
</g>
<g style="fill:#000000; fill-opacity:0.0; 
stroke:#000000; stroke-width:60; stroke-opacity:1; 
stroke-linecap:round; stroke-linejoin:round;">
<path d="M62550 31761
L62550 31439
" />
<path d="M62050 31761
L62050 31439
" />
</g>
<g style="fill:#000000; fill-opacity:0.0; 
stroke:#000000; stroke-width:20; stroke-opacity:1; 
stroke-linecap:round; stroke-linejoin:round;">
<path d="M62687 32376
L62687 30824
" />
<path d="M62687 30824
L61913 30824
" />
<path d="M61913 30824
L61913 32376
" />
<path d="M61913 32376
L62687 32376
" />
</g>
<g style="fill:#000000; fill-opacity:0.0; 
stroke:#000000; stroke-width:26; stroke-opacity:1; 
stroke-linecap:round; stroke-linejoin:round;">
<path d="M68075 45260
L68075 45515
" />
<path d="M68075 45515
L67524 45515
" />
<path d="M67524 45260
L67524 45515
" />
<path d="M68075 45260
L67524 45260
" />
<path d="M68075 44680
L68075 44936
" />
<path d="M68075 44936
L67524 44936
" />
<path d="M67524 44680
L67524 44936
" />
<path d="M68075 44680
L67524 44680
" />
<path d="M67996 45022
L67996 45178
" />
<path d="M67996 45178
L67604 45178
" />
<path d="M67604 45022
L67604 45178
" />
<path d="M67996 45022
L67604 45022
" />
</g>
<g style="fill:#000000; fill-opacity:0.0; 
stroke:#000000; stroke-width:60; stroke-opacity:1; 
stroke-linecap:round; stroke-linejoin:round;">
<path d="M67550 44939
L67550 45261
" />
<path d="M68050 44939
L68050 45261
" />
</g>
<g style="fill:#000000; fill-opacity:0.0; 
stroke:#000000; stroke-width:20; stroke-opacity:1; 
stroke-linecap:round; stroke-linejoin:round;">
<path d="M67413 44324
L67413 45876
" />
<path d="M67413 45876
L68187 45876
" />
<path d="M68187 45876
L68187 44324
" />
<path d="M68187 44324
L67413 44324
" />
</g>
<g style="fill:#000000; fill-opacity:0.0; 
stroke:#000000; stroke-width:26; stroke-opacity:1; 
stroke-linecap:round; stroke-linejoin:round;">
<path d="M66440 44875
L66185 44875
" />
<path d="M66185 44875
L66185 44324
" />
<path d="M66440 44324
L66185 44324
" />
<path d="M66440 44875
L66440 44324
" />
<path d="M67020 44875
L66764 44875
" />
<path d="M66764 44875
L66764 44324
" />
<path d="M67020 44324
L66764 44324
" />
<path d="M67020 44875
L67020 44324
" />
<path d="M66678 44796
L66522 44796
" />
<path d="M66522 44796
L66522 44404
" />
<path d="M66678 44404
L66522 44404
" />
<path d="M66678 44796
L66678 44404
" />
</g>
<g style="fill:#000000; fill-opacity:0.0; 
stroke:#000000; stroke-width:60; stroke-opacity:1; 
stroke-linecap:round; stroke-linejoin:round;">
<path d="M66761 44350
L66439 44350
" />
<path d="M66761 44850
L66439 44850
" />
</g>
<g style="fill:#000000; fill-opacity:0.0; 
stroke:#000000; stroke-width:20; stroke-opacity:1; 
stroke-linecap:round; stroke-linejoin:round;">
<path d="M67376 44213
L65824 44213
" />
<path d="M65824 44213
L65824 44987
" />
<path d="M65824 44987
L67376 44987
" />
<path d="M67376 44987
L67376 44213
" />
</g>
<g style="fill:#000000; fill-opacity:0.0; 
stroke:#000000; stroke-width:150; stroke-opacity:1; 
stroke-linecap:round; stroke-linejoin:round;">
<path d="M68200 32523
L68200 32464
" />
<path d="M68200 32857
L68200 32936
" />
<path d="M68200 32523
L67905 32523
" />
<path d="M68200 32523
L68476 32523
" />
<path d="M68200 32523
L68476 32857
" />
<path d="M68476 32857
L67924 32857
" />
<path d="M67924 32857
L68200 32523
" />
</g>
<g style="fill:#000000; fill-opacity:0.0; 
stroke:#000000; stroke-width:50; stroke-opacity:1; 
stroke-linecap:round; stroke-linejoin:round;">
<path d="M39031 41819
L39031 42804
" />
<path d="M39031 42804
L38834 42804
" />
<path d="M38834 42804
L38834 43196
" />
<path d="M38834 43196
L39031 43196
" />
<path d="M39031 43196
L39031 44181
" />
<path d="M39031 44181
L40802 44181
" />
<path d="M40802 44181
L40802 41819
" />
<path d="M40802 41819
L39031 41819
" />
</g>
<g style="fill:#000000; fill-opacity:0.0; 
stroke:#000000; stroke-width:26; stroke-opacity:1; 
stroke-linecap:round; stroke-linejoin:round;">
<path d="M61875 47760
L61875 48015
" />
<path d="M61875 48015
L61324 48015
" />
<path d="M61324 47760
L61324 48015
" />
<path d="M61875 47760
L61324 47760
" />
<path d="M61875 47180
L61875 47436
" />
<path d="M61875 47436
L61324 47436
" />
<path d="M61324 47180
L61324 47436
" />
<path d="M61875 47180
L61324 47180
" />
<path d="M61796 47522
L61796 47678
" />
<path d="M61796 47678
L61404 47678
" />
<path d="M61404 47522
L61404 47678
" />
<path d="M61796 47522
L61404 47522
" />
</g>
<g style="fill:#000000; fill-opacity:0.0; 
stroke:#000000; stroke-width:60; stroke-opacity:1; 
stroke-linecap:round; stroke-linejoin:round;">
<path d="M61350 47439
L61350 47761
" />
<path d="M61850 47439
L61850 47761
" />
</g>
<g style="fill:#000000; fill-opacity:0.0; 
stroke:#000000; stroke-width:20; stroke-opacity:1; 
stroke-linecap:round; stroke-linejoin:round;">
<path d="M61213 46824
L61213 48376
" />
<path d="M61213 48376
L61987 48376
" />
<path d="M61987 48376
L61987 46824
" />
<path d="M61987 46824
L61213 46824
" />
</g>
<g style="fill:#000000; fill-opacity:0.0; 
stroke:#000000; stroke-width:59.0551; stroke-opacity:1; 
stroke-linecap:round; stroke-linejoin:round;">
<path d="M56050 37800
L56050 41800
" />
<path d="M56050 41800
L59350 41800
" />
<path d="M59350 41800
L59350 37800
" />
<path d="M59350 37800
L56050 37800
" />
<path d="M57950 41800
L57950 41500
" />
<path d="M57950 41500
L57450 41500
" />
<path d="M57450 41500
L57450 41800
" />
<path d="M56050 32300
L56050 36300
" />
<path d="M56050 36300
L59350 36300
" />
<path d="M59350 36300
L59350 32300
" />
<path d="M59350 32300
L56050 32300
" />
<path d="M57950 36300
L57950 36000
" />
<path d="M57950 36000
L57450 36000
" />
<path d="M57450 36000
L57450 36300
" />
</g>
<g style="fill:#000000; fill-opacity:0.0; 
stroke:#000000; stroke-width:35; stroke-opacity:1; 
stroke-linecap:round; stroke-linejoin:round;">
<path d="M43423 40330
L43395 40340
L43347 40340
L43328 40330
L43319 40321
L43309 40302
L43309 40283
L43319 40264
L43328 40254
L43347 40245
L43385 40235
L43404 40226
L43414 40216
L43423 40197
L43423 40178
L43414 40159
L43404 40150
L43385 40140
L43338 40140
L43309 40150
" />
<path d="M43223 40340
L43223 40140
L43176 40140
L43147 40150
L43128 40169
L43119 40188
L43109 40226
L43109 40254
L43119 40292
L43128 40311
L43147 40330
L43176 40340
L43223 40340
" />
<path d="M43023 40340
L43023 40140
L42957 40283
L42890 40140
L42890 40340
" />
<path d="M42709 40207
L42709 40340
" />
<path d="M42757 40130
L42804 40273
L42680 40273
" />
<path d="M42566 40140
L42547 40140
L42528 40150
L42519 40159
L42509 40178
L42500 40216
L42500 40264
L42509 40302
L42519 40321
L42528 40330
L42547 40340
L42566 40340
L42585 40330
L42595 40321
L42604 40302
L42614 40264
L42614 40216
L42604 40178
L42595 40159
L42585 40150
L42566 40140
" />
<path d="M42414 40235
L42347 40235
" />
<path d="M42319 40340
L42414 40340
L42414 40140
L42319 40140
" />
<path d="M42242 40159
L42233 40150
L42214 40140
L42166 40140
L42147 40150
L42138 40159
L42128 40178
L42128 40197
L42138 40226
L42252 40340
L42128 40340
" />
<path d="M42004 40140
L41985 40140
L41966 40150
L41957 40159
L41947 40178
L41938 40216
L41938 40264
L41947 40302
L41957 40321
L41966 40330
L41985 40340
L42004 40340
L42023 40330
L42033 40321
L42042 40302
L42052 40264
L42052 40216
L42042 40178
L42033 40159
L42023 40150
L42004 40140
" />
<path d="M41757 40340
L41852 40340
L41852 40140
" />
<path d="M41576 40321
L41585 40330
L41614 40340
L41633 40340
L41661 40330
L41680 40311
L41690 40292
L41699 40254
L41699 40226
L41690 40188
L41680 40169
L41661 40150
L41633 40140
L41614 40140
L41585 40150
L41576 40159
" />
<path d="M44523 45880
L44495 45890
L44447 45890
L44428 45880
L44419 45871
L44409 45852
L44409 45833
L44419 45814
L44428 45804
L44447 45795
L44485 45785
L44504 45776
L44514 45766
L44523 45747
L44523 45728
L44514 45709
L44504 45700
L44485 45690
L44438 45690
L44409 45700
" />
<path d="M44323 45890
L44323 45690
L44276 45690
L44247 45700
L44228 45719
L44219 45738
L44209 45776
L44209 45804
L44219 45842
L44228 45861
L44247 45880
L44276 45890
L44323 45890
" />
<path d="M44123 45890
L44123 45690
L44057 45833
L43990 45690
L43990 45890
" />
<path d="M43809 45757
L43809 45890
" />
<path d="M43857 45680
L43904 45823
L43780 45823
" />
<path d="M43666 45690
L43647 45690
L43628 45700
L43619 45709
L43609 45728
L43600 45766
L43600 45814
L43609 45852
L43619 45871
L43628 45880
L43647 45890
L43666 45890
L43685 45880
L43695 45871
L43704 45852
L43714 45814
L43714 45766
L43704 45728
L43695 45709
L43685 45700
L43666 45690
" />
<path d="M43514 45785
L43447 45785
" />
<path d="M43419 45890
L43514 45890
L43514 45690
L43419 45690
" />
<path d="M43342 45709
L43333 45700
L43314 45690
L43266 45690
L43247 45700
L43238 45709
L43228 45728
L43228 45747
L43238 45776
L43352 45890
L43228 45890
" />
<path d="M43104 45690
L43085 45690
L43066 45700
L43057 45709
L43047 45728
L43038 45766
L43038 45814
L43047 45852
L43057 45871
L43066 45880
L43085 45890
L43104 45890
L43123 45880
L43133 45871
L43142 45852
L43152 45814
L43152 45766
L43142 45728
L43133 45709
L43123 45700
L43104 45690
" />
<path d="M42857 45890
L42952 45890
L42952 45690
" />
<path d="M42676 45871
L42685 45880
L42714 45890
L42733 45890
L42761 45880
L42780 45861
L42790 45842
L42799 45804
L42799 45776
L42790 45738
L42780 45719
L42761 45700
L42733 45690
L42714 45690
L42685 45700
L42676 45709
" />
<path d="M39091 39789
L39103 39801
L39139 39813
L39163 39813
L39198 39801
L39222 39777
L39234 39753
L39246 39705
L39246 39670
L39234 39622
L39222 39598
L39198 39575
L39163 39563
L39139 39563
L39103 39575
L39091 39586
" />
<path d="M38853 39813
L38996 39813
" />
<path d="M38925 39813
L38925 39563
L38948 39598
L38972 39622
L38996 39634
" />
<path d="M49489 39558
L49501 39546
L49513 39510
L49513 39486
L49501 39451
L49477 39427
L49453 39415
L49405 39403
L49370 39403
L49322 39415
L49298 39427
L49275 39451
L49263 39486
L49263 39510
L49275 39546
L49286 39558
" />
<path d="M49286 39653
L49275 39665
L49263 39689
L49263 39748
L49275 39772
L49286 39784
L49310 39796
L49334 39796
L49370 39784
L49513 39641
L49513 39796
" />
<path d="M49489 37958
L49501 37946
L49513 37910
L49513 37886
L49501 37851
L49477 37827
L49453 37815
L49405 37803
L49370 37803
L49322 37815
L49298 37827
L49275 37851
L49263 37886
L49263 37910
L49275 37946
L49286 37958
" />
<path d="M49263 38041
L49263 38196
L49358 38113
L49358 38148
L49370 38172
L49382 38184
L49405 38196
L49465 38196
L49489 38184
L49501 38172
L49513 38148
L49513 38077
L49501 38053
L49489 38041
" />
<path d="M72541 44189
L72553 44201
L72589 44213
L72613 44213
L72648 44201
L72672 44177
L72684 44153
L72696 44105
L72696 44070
L72684 44022
L72672 43998
L72648 43975
L72613 43963
L72589 43963
L72553 43975
L72541 43986
" />
<path d="M72327 44046
L72327 44213
" />
<path d="M72386 43951
L72446 44129
L72291 44129
" />
<path d="M66441 36689
L66453 36701
L66489 36713
L66513 36713
L66548 36701
L66572 36677
L66584 36653
L66596 36605
L66596 36570
L66584 36522
L66572 36498
L66548 36475
L66513 36463
L66489 36463
L66453 36475
L66441 36486
" />
<path d="M66215 36463
L66334 36463
L66346 36582
L66334 36570
L66310 36558
L66251 36558
L66227 36570
L66215 36582
L66203 36605
L66203 36665
L66215 36689
L66227 36701
L66251 36713
L66310 36713
L66334 36701
L66346 36689
" />
<path d="M61689 42558
L61701 42546
L61713 42510
L61713 42486
L61701 42451
L61677 42427
L61653 42415
L61605 42403
L61570 42403
L61522 42415
L61498 42427
L61475 42451
L61463 42486
L61463 42510
L61475 42546
L61486 42558
" />
<path d="M61463 42772
L61463 42725
L61475 42701
L61486 42689
L61522 42665
L61570 42653
L61665 42653
L61689 42665
L61701 42677
L61713 42701
L61713 42748
L61701 42772
L61689 42784
L61665 42796
L61605 42796
L61582 42784
L61570 42772
L61558 42748
L61558 42701
L61570 42677
L61582 42665
L61605 42653
" />
<path d="M61941 36689
L61953 36701
L61989 36713
L62013 36713
L62048 36701
L62072 36677
L62084 36653
L62096 36605
L62096 36570
L62084 36522
L62072 36498
L62048 36475
L62013 36463
L61989 36463
L61953 36475
L61941 36486
" />
<path d="M61858 36463
L61691 36463
L61798 36713
" />
<path d="M49441 43089
L49453 43101
L49489 43113
L49513 43113
L49548 43101
L49572 43077
L49584 43053
L49596 43005
L49596 42970
L49584 42922
L49572 42898
L49548 42875
L49513 42863
L49489 42863
L49453 42875
L49441 42886
" />
<path d="M49298 42970
L49322 42958
L49334 42946
L49346 42922
L49346 42910
L49334 42886
L49322 42875
L49298 42863
L49251 42863
L49227 42875
L49215 42886
L49203 42910
L49203 42922
L49215 42946
L49227 42958
L49251 42970
L49298 42970
L49322 42982
L49334 42994
L49346 43017
L49346 43065
L49334 43089
L49322 43101
L49298 43113
L49251 43113
L49227 43101
L49215 43089
L49203 43065
L49203 43017
L49215 42994
L49227 42982
L49251 42970
" />
<path d="M54141 41389
L54153 41401
L54189 41413
L54213 41413
L54248 41401
L54272 41377
L54284 41353
L54296 41305
L54296 41270
L54284 41222
L54272 41198
L54248 41175
L54213 41163
L54189 41163
L54153 41175
L54141 41186
" />
<path d="M54022 41413
L53975 41413
L53951 41401
L53939 41389
L53915 41353
L53903 41305
L53903 41210
L53915 41186
L53927 41175
L53951 41163
L53998 41163
L54022 41175
L54034 41186
L54046 41210
L54046 41270
L54034 41294
L54022 41305
L53998 41317
L53951 41317
L53927 41305
L53915 41294
L53903 41270
" />
<path d="M49460 42289
L49472 42301
L49508 42313
L49532 42313
L49567 42301
L49591 42277
L49603 42253
L49615 42205
L49615 42170
L49603 42122
L49591 42098
L49567 42075
L49532 42063
L49508 42063
L49472 42075
L49460 42086
" />
<path d="M49222 42313
L49365 42313
" />
<path d="M49294 42313
L49294 42063
L49317 42098
L49341 42122
L49365 42134
" />
<path d="M49067 42063
L49044 42063
L49020 42075
L49008 42086
L48996 42110
L48984 42158
L48984 42217
L48996 42265
L49008 42289
L49020 42301
L49044 42313
L49067 42313
L49091 42301
L49103 42289
L49115 42265
L49127 42217
L49127 42158
L49115 42110
L49103 42086
L49091 42075
L49067 42063
" />
<path d="M68289 38939
L68301 38927
L68313 38891
L68313 38867
L68301 38832
L68277 38808
L68253 38796
L68205 38784
L68170 38784
L68122 38796
L68098 38808
L68075 38832
L68063 38867
L68063 38891
L68075 38927
L68086 38939
" />
<path d="M68313 39177
L68313 39034
" />
<path d="M68313 39105
L68063 39105
L68098 39082
L68122 39058
L68134 39034
" />
<path d="M68313 39415
L68313 39272
" />
<path d="M68313 39344
L68063 39344
L68098 39320
L68122 39296
L68134 39272
" />
<path d="M54260 43589
L54272 43601
L54308 43613
L54332 43613
L54367 43601
L54391 43577
L54403 43553
L54415 43505
L54415 43470
L54403 43422
L54391 43398
L54367 43375
L54332 43363
L54308 43363
L54272 43375
L54260 43386
" />
<path d="M54022 43613
L54165 43613
" />
<path d="M54094 43613
L54094 43363
L54117 43398
L54141 43422
L54165 43434
" />
<path d="M53927 43386
L53915 43375
L53891 43363
L53832 43363
L53808 43375
L53796 43386
L53784 43410
L53784 43434
L53796 43470
L53939 43613
L53784 43613
" />
<path d="M64760 43489
L64772 43501
L64808 43513
L64832 43513
L64867 43501
L64891 43477
L64903 43453
L64915 43405
L64915 43370
L64903 43322
L64891 43298
L64867 43275
L64832 43263
L64808 43263
L64772 43275
L64760 43286
" />
<path d="M64522 43513
L64665 43513
" />
<path d="M64594 43513
L64594 43263
L64617 43298
L64641 43322
L64665 43334
" />
<path d="M64308 43263
L64355 43263
L64379 43275
L64391 43286
L64415 43322
L64427 43370
L64427 43465
L64415 43489
L64403 43501
L64379 43513
L64332 43513
L64308 43501
L64296 43489
L64284 43465
L64284 43405
L64296 43382
L64308 43370
L64332 43358
L64379 43358
L64403 43370
L64415 43382
L64427 43405
" />
<path d="M66489 41739
L66501 41727
L66513 41691
L66513 41667
L66501 41632
L66477 41608
L66453 41596
L66405 41584
L66370 41584
L66322 41596
L66298 41608
L66275 41632
L66263 41667
L66263 41691
L66275 41727
L66286 41739
" />
<path d="M66513 41977
L66513 41834
" />
<path d="M66513 41905
L66263 41905
L66298 41882
L66322 41858
L66334 41834
" />
<path d="M66370 42120
L66358 42096
L66346 42084
L66322 42072
L66310 42072
L66286 42084
L66275 42096
L66263 42120
L66263 42167
L66275 42191
L66286 42203
L66310 42215
L66322 42215
L66346 42203
L66358 42191
L66370 42167
L66370 42120
L66382 42096
L66394 42084
L66417 42072
L66465 42072
L66489 42084
L66501 42096
L66513 42120
L66513 42167
L66501 42191
L66489 42203
L66465 42215
L66417 42215
L66394 42203
L66382 42191
L66370 42167
" />
<path d="M40826 41490
L40921 41490
L40930 41585
L40921 41576
L40902 41566
L40854 41566
L40835 41576
L40826 41585
L40816 41604
L40816 41652
L40826 41671
L40835 41680
L40854 41690
L40902 41690
L40921 41680
L40930 41671
" />
<path d="M40730 41671
L40721 41680
L40730 41690
L40740 41680
L40730 41671
L40730 41690
" />
<path d="M40654 41490
L40530 41490
L40597 41566
L40569 41566
L40550 41576
L40540 41585
L40530 41604
L40530 41652
L40540 41671
L40550 41680
L40569 41690
L40626 41690
L40645 41680
L40654 41671
" />
<path d="M40473 41490
L40407 41690
L40340 41490
" />
<path d="M40140 41490
L40007 41490
L40140 41690
L40007 41690
" />
<path d="M39854 41680
L39873 41690
L39911 41690
L39930 41680
L39940 41661
L39940 41585
L39930 41566
L39911 41557
L39873 41557
L39854 41566
L39845 41585
L39845 41604
L39940 41623
" />
<path d="M39759 41557
L39759 41690
" />
<path d="M39759 41576
L39749 41566
L39730 41557
L39702 41557
L39683 41566
L39673 41585
L39673 41690
" />
<path d="M39502 41680
L39521 41690
L39559 41690
L39578 41680
L39588 41661
L39588 41585
L39578 41566
L39559 41557
L39521 41557
L39502 41566
L39492 41585
L39492 41604
L39588 41623
" />
<path d="M39407 41690
L39407 41557
" />
<path d="M39407 41595
L39397 41576
L39388 41566
L39369 41557
L39349 41557
" />
<path d="M73176 42690
L73271 42690
L73280 42785
L73271 42776
L73252 42766
L73204 42766
L73185 42776
L73176 42785
L73166 42804
L73166 42852
L73176 42871
L73185 42880
L73204 42890
L73252 42890
L73271 42880
L73280 42871
" />
<path d="M73080 42871
L73071 42880
L73080 42890
L73090 42880
L73080 42871
L73080 42890
" />
<path d="M73004 42690
L72880 42690
L72947 42766
L72919 42766
L72900 42776
L72890 42785
L72880 42804
L72880 42852
L72890 42871
L72900 42880
L72919 42890
L72976 42890
L72995 42880
L73004 42871
" />
<path d="M72823 42690
L72757 42890
L72690 42690
" />
<path d="M72490 42690
L72357 42690
L72490 42890
L72357 42890
" />
<path d="M72204 42880
L72223 42890
L72261 42890
L72280 42880
L72290 42861
L72290 42785
L72280 42766
L72261 42757
L72223 42757
L72204 42766
L72195 42785
L72195 42804
L72290 42823
" />
<path d="M72109 42757
L72109 42890
" />
<path d="M72109 42776
L72099 42766
L72080 42757
L72052 42757
L72033 42766
L72023 42785
L72023 42890
" />
<path d="M71852 42880
L71871 42890
L71909 42890
L71928 42880
L71938 42861
L71938 42785
L71928 42766
L71909 42757
L71871 42757
L71852 42766
L71842 42785
L71842 42804
L71938 42823
" />
<path d="M71757 42890
L71757 42757
" />
<path d="M71757 42795
L71747 42776
L71738 42766
L71719 42757
L71699 42757
" />
<path d="M51176 40190
L51271 40190
L51280 40285
L51271 40276
L51252 40266
L51204 40266
L51185 40276
L51176 40285
L51166 40304
L51166 40352
L51176 40371
L51185 40380
L51204 40390
L51252 40390
L51271 40380
L51280 40371
" />
<path d="M51080 40371
L51071 40380
L51080 40390
L51090 40380
L51080 40371
L51080 40390
" />
<path d="M51004 40190
L50880 40190
L50947 40266
L50919 40266
L50900 40276
L50890 40285
L50880 40304
L50880 40352
L50890 40371
L50900 40380
L50919 40390
L50976 40390
L50995 40380
L51004 40371
" />
<path d="M50823 40190
L50757 40390
L50690 40190
" />
<path d="M50490 40190
L50357 40190
L50490 40390
L50357 40390
" />
<path d="M50204 40380
L50223 40390
L50261 40390
L50280 40380
L50290 40361
L50290 40285
L50280 40266
L50261 40257
L50223 40257
L50204 40266
L50195 40285
L50195 40304
L50290 40323
" />
<path d="M50109 40257
L50109 40390
" />
<path d="M50109 40276
L50099 40266
L50080 40257
L50052 40257
L50033 40266
L50023 40285
L50023 40390
" />
<path d="M49852 40380
L49871 40390
L49909 40390
L49928 40380
L49938 40361
L49938 40285
L49928 40266
L49909 40257
L49871 40257
L49852 40266
L49842 40285
L49842 40304
L49938 40323
" />
<path d="M49757 40390
L49757 40257
" />
<path d="M49757 40295
L49747 40276
L49738 40266
L49719 40257
L49699 40257
" />
<path d="M50482 44616
L50482 44533
" />
<path d="M50613 44533
L50363 44533
L50363 44652
" />
<path d="M50613 44878
L50613 44735
" />
<path d="M50613 44807
L50363 44807
L50398 44783
L50422 44759
L50434 44735
" />
<path d="M44022 35213
L44141 35213
L44141 34963
" />
<path d="M43939 35213
L43939 34963
L43855 35141
L43772 34963
L43772 35213
" />
<path d="M43677 34963
L43522 34963
L43605 35058
L43570 35058
L43546 35070
L43534 35082
L43522 35105
L43522 35165
L43534 35189
L43546 35201
L43570 35213
L43641 35213
L43665 35201
L43677 35189
" />
<path d="M43296 34963
L43415 34963
L43427 35082
L43415 35070
L43391 35058
L43332 35058
L43308 35070
L43296 35082
L43284 35105
L43284 35165
L43296 35189
L43308 35201
L43332 35213
L43391 35213
L43415 35201
L43427 35189
" />
<path d="M43141 35070
L43165 35058
L43177 35046
L43189 35022
L43189 35010
L43177 34986
L43165 34975
L43141 34963
L43094 34963
L43070 34975
L43058 34986
L43046 35010
L43046 35022
L43058 35046
L43070 35058
L43094 35070
L43141 35070
L43165 35082
L43177 35094
L43189 35117
L43189 35165
L43177 35189
L43165 35201
L43141 35213
L43094 35213
L43070 35201
L43058 35189
L43046 35165
L43046 35117
L43058 35094
L43070 35082
L43094 35070
" />
<path d="M67713 41858
L67713 41739
L67463 41739
" />
<path d="M67713 42072
L67713 41929
" />
<path d="M67713 42001
L67463 42001
L67498 41977
L67522 41953
L67534 41929
" />
<path d="M51552 39690
L51552 39490
L51504 39490
L51476 39500
L51457 39519
L51447 39538
L51438 39576
L51438 39604
L51447 39642
L51457 39661
L51476 39680
L51504 39690
L51552 39690
" />
<path d="M51352 39690
L51352 39490
L51285 39633
L51219 39490
L51219 39690
" />
<path d="M51019 39500
L51038 39490
L51066 39490
L51095 39500
L51114 39519
L51123 39538
L51133 39576
L51133 39604
L51123 39642
L51114 39661
L51095 39680
L51066 39690
L51047 39690
L51019 39680
L51009 39671
L51009 39604
L51047 39604
" />
<path d="M50942 39490
L50819 39490
L50885 39566
L50857 39566
L50838 39576
L50828 39585
L50819 39604
L50819 39652
L50828 39671
L50838 39680
L50857 39690
L50914 39690
L50933 39680
L50942 39671
" />
<path d="M50647 39557
L50647 39690
" />
<path d="M50695 39480
L50742 39623
L50619 39623
" />
<path d="M50438 39690
L50552 39690
" />
<path d="M50495 39690
L50495 39490
L50514 39519
L50533 39538
L50552 39547
" />
<path d="M50257 39490
L50352 39490
L50361 39585
L50352 39576
L50333 39566
L50285 39566
L50266 39576
L50257 39585
L50247 39604
L50247 39652
L50257 39671
L50266 39680
L50285 39690
L50333 39690
L50352 39680
L50361 39671
" />
<path d="M50161 39490
L50161 39652
L50152 39671
L50142 39680
L50123 39690
L50085 39690
L50066 39680
L50057 39671
L50047 39652
L50047 39490
" />
<path d="M45213 33158
L45094 33075
" />
<path d="M45213 33015
L44963 33015
L44963 33110
L44975 33134
L44986 33146
L45010 33158
L45046 33158
L45070 33146
L45082 33134
L45094 33110
L45094 33015
" />
<path d="M45213 33396
L45213 33253
" />
<path d="M45213 33325
L44963 33325
L44998 33301
L45022 33277
L45034 33253
" />
<path d="M45213 36758
L45094 36675
" />
<path d="M45213 36615
L44963 36615
L44963 36710
L44975 36734
L44986 36746
L45010 36758
L45046 36758
L45070 36746
L45082 36734
L45094 36710
L45094 36615
" />
<path d="M44986 36853
L44975 36865
L44963 36889
L44963 36948
L44975 36972
L44986 36984
L45010 36996
L45034 36996
L45070 36984
L45213 36841
L45213 36996
" />
<path d="M44241 28913
L44325 28794
" />
<path d="M44384 28913
L44384 28663
L44289 28663
L44265 28675
L44253 28686
L44241 28710
L44241 28746
L44253 28770
L44265 28782
L44289 28794
L44384 28794
" />
<path d="M44158 28663
L44003 28663
L44086 28758
L44051 28758
L44027 28770
L44015 28782
L44003 28805
L44003 28865
L44015 28889
L44027 28901
L44051 28913
L44122 28913
L44146 28901
L44158 28889
" />
<path d="M40041 35213
L40125 35094
" />
<path d="M40184 35213
L40184 34963
L40089 34963
L40065 34975
L40053 34986
L40041 35010
L40041 35046
L40053 35070
L40065 35082
L40089 35094
L40184 35094
" />
<path d="M39827 35046
L39827 35213
" />
<path d="M39886 34951
L39946 35129
L39791 35129
" />
<path d="M40041 33713
L40125 33594
" />
<path d="M40184 33713
L40184 33463
L40089 33463
L40065 33475
L40053 33486
L40041 33510
L40041 33546
L40053 33570
L40065 33582
L40089 33594
L40184 33594
" />
<path d="M39815 33463
L39934 33463
L39946 33582
L39934 33570
L39910 33558
L39851 33558
L39827 33570
L39815 33582
L39803 33605
L39803 33665
L39815 33689
L39827 33701
L39851 33713
L39910 33713
L39934 33701
L39946 33689
" />
<path d="M52613 38758
L52494 38675
" />
<path d="M52613 38615
L52363 38615
L52363 38710
L52375 38734
L52386 38746
L52410 38758
L52446 38758
L52470 38746
L52482 38734
L52494 38710
L52494 38615
" />
<path d="M52363 38972
L52363 38925
L52375 38901
L52386 38889
L52422 38865
L52470 38853
L52565 38853
L52589 38865
L52601 38877
L52613 38901
L52613 38948
L52601 38972
L52589 38984
L52565 38996
L52505 38996
L52482 38984
L52470 38972
L52458 38948
L52458 38901
L52470 38877
L52482 38865
L52505 38853
" />
<path d="M44041 29813
L44125 29694
" />
<path d="M44184 29813
L44184 29563
L44089 29563
L44065 29575
L44053 29586
L44041 29610
L44041 29646
L44053 29670
L44065 29682
L44089 29694
L44184 29694
" />
<path d="M43958 29563
L43791 29563
L43898 29813
" />
<path d="M47041 29813
L47125 29694
" />
<path d="M47184 29813
L47184 29563
L47089 29563
L47065 29575
L47053 29586
L47041 29610
L47041 29646
L47053 29670
L47065 29682
L47089 29694
L47184 29694
" />
<path d="M46898 29670
L46922 29658
L46934 29646
L46946 29622
L46946 29610
L46934 29586
L46922 29575
L46898 29563
L46851 29563
L46827 29575
L46815 29586
L46803 29610
L46803 29622
L46815 29646
L46827 29658
L46851 29670
L46898 29670
L46922 29682
L46934 29694
L46946 29717
L46946 29765
L46934 29789
L46922 29801
L46898 29813
L46851 29813
L46827 29801
L46815 29789
L46803 29765
L46803 29717
L46815 29694
L46827 29682
L46851 29670
" />
<path d="M50041 29813
L50125 29694
" />
<path d="M50184 29813
L50184 29563
L50089 29563
L50065 29575
L50053 29586
L50041 29610
L50041 29646
L50053 29670
L50065 29682
L50089 29694
L50184 29694
" />
<path d="M49922 29813
L49875 29813
L49851 29801
L49839 29789
L49815 29753
L49803 29705
L49803 29610
L49815 29586
L49827 29575
L49851 29563
L49898 29563
L49922 29575
L49934 29586
L49946 29610
L49946 29670
L49934 29694
L49922 29705
L49898 29717
L49851 29717
L49827 29705
L49815 29694
L49803 29670
" />
<path d="M53160 29813
L53244 29694
" />
<path d="M53303 29813
L53303 29563
L53208 29563
L53184 29575
L53172 29586
L53160 29610
L53160 29646
L53172 29670
L53184 29682
L53208 29694
L53303 29694
" />
<path d="M52922 29813
L53065 29813
" />
<path d="M52994 29813
L52994 29563
L53017 29598
L53041 29622
L53065 29634
" />
<path d="M52767 29563
L52744 29563
L52720 29575
L52708 29586
L52696 29610
L52684 29658
L52684 29717
L52696 29765
L52708 29789
L52720 29801
L52744 29813
L52767 29813
L52791 29801
L52803 29789
L52815 29765
L52827 29717
L52827 29658
L52815 29610
L52803 29586
L52791 29575
L52767 29563
" />
<path d="M72660 37813
L72744 37694
" />
<path d="M72803 37813
L72803 37563
L72708 37563
L72684 37575
L72672 37586
L72660 37610
L72660 37646
L72672 37670
L72684 37682
L72708 37694
L72803 37694
" />
<path d="M72422 37813
L72565 37813
" />
<path d="M72494 37813
L72494 37563
L72517 37598
L72541 37622
L72565 37634
" />
<path d="M72184 37813
L72327 37813
" />
<path d="M72255 37813
L72255 37563
L72279 37598
L72303 37622
L72327 37634
" />
<path d="M72660 35513
L72744 35394
" />
<path d="M72803 35513
L72803 35263
L72708 35263
L72684 35275
L72672 35286
L72660 35310
L72660 35346
L72672 35370
L72684 35382
L72708 35394
L72803 35394
" />
<path d="M72422 35513
L72565 35513
" />
<path d="M72494 35513
L72494 35263
L72517 35298
L72541 35322
L72565 35334
" />
<path d="M72327 35286
L72315 35275
L72291 35263
L72232 35263
L72208 35275
L72196 35286
L72184 35310
L72184 35334
L72196 35370
L72339 35513
L72184 35513
" />
<path d="M72660 39013
L72744 38894
" />
<path d="M72803 39013
L72803 38763
L72708 38763
L72684 38775
L72672 38786
L72660 38810
L72660 38846
L72672 38870
L72684 38882
L72708 38894
L72803 38894
" />
<path d="M72422 39013
L72565 39013
" />
<path d="M72494 39013
L72494 38763
L72517 38798
L72541 38822
L72565 38834
" />
<path d="M72339 38763
L72184 38763
L72267 38858
L72232 38858
L72208 38870
L72196 38882
L72184 38905
L72184 38965
L72196 38989
L72208 39001
L72232 39013
L72303 39013
L72327 39001
L72339 38989
" />
<path d="M72660 36613
L72744 36494
" />
<path d="M72803 36613
L72803 36363
L72708 36363
L72684 36375
L72672 36386
L72660 36410
L72660 36446
L72672 36470
L72684 36482
L72708 36494
L72803 36494
" />
<path d="M72422 36613
L72565 36613
" />
<path d="M72494 36613
L72494 36363
L72517 36398
L72541 36422
L72565 36434
" />
<path d="M72208 36446
L72208 36613
" />
<path d="M72267 36351
L72327 36529
L72172 36529
" />
<path d="M72660 40113
L72744 39994
" />
<path d="M72803 40113
L72803 39863
L72708 39863
L72684 39875
L72672 39886
L72660 39910
L72660 39946
L72672 39970
L72684 39982
L72708 39994
L72803 39994
" />
<path d="M72422 40113
L72565 40113
" />
<path d="M72494 40113
L72494 39863
L72517 39898
L72541 39922
L72565 39934
" />
<path d="M72196 39863
L72315 39863
L72327 39982
L72315 39970
L72291 39958
L72232 39958
L72208 39970
L72196 39982
L72184 40005
L72184 40065
L72196 40089
L72208 40101
L72232 40113
L72291 40113
L72315 40101
L72327 40089
" />
<path d="M46513 32939
L46394 32855
" />
<path d="M46513 32796
L46263 32796
L46263 32891
L46275 32915
L46286 32927
L46310 32939
L46346 32939
L46370 32927
L46382 32915
L46394 32891
L46394 32796
" />
<path d="M46513 33177
L46513 33034
" />
<path d="M46513 33105
L46263 33105
L46298 33082
L46322 33058
L46334 33034
" />
<path d="M46263 33391
L46263 33344
L46275 33320
L46286 33308
L46322 33284
L46370 33272
L46465 33272
L46489 33284
L46501 33296
L46513 33320
L46513 33367
L46501 33391
L46489 33403
L46465 33415
L46405 33415
L46382 33403
L46370 33391
L46358 33367
L46358 33320
L46370 33296
L46382 33284
L46405 33272
" />
<path d="M52460 32613
L52544 32494
" />
<path d="M52603 32613
L52603 32363
L52508 32363
L52484 32375
L52472 32386
L52460 32410
L52460 32446
L52472 32470
L52484 32482
L52508 32494
L52603 32494
" />
<path d="M52222 32613
L52365 32613
" />
<path d="M52294 32613
L52294 32363
L52317 32398
L52341 32422
L52365 32434
" />
<path d="M52139 32363
L51972 32363
L52079 32613
" />
<path d="M49560 37413
L49644 37294
" />
<path d="M49703 37413
L49703 37163
L49608 37163
L49584 37175
L49572 37186
L49560 37210
L49560 37246
L49572 37270
L49584 37282
L49608 37294
L49703 37294
" />
<path d="M49322 37413
L49465 37413
" />
<path d="M49394 37413
L49394 37163
L49417 37198
L49441 37222
L49465 37234
" />
<path d="M49179 37270
L49203 37258
L49215 37246
L49227 37222
L49227 37210
L49215 37186
L49203 37175
L49179 37163
L49132 37163
L49108 37175
L49096 37186
L49084 37210
L49084 37222
L49096 37246
L49108 37258
L49132 37270
L49179 37270
L49203 37282
L49215 37294
L49227 37317
L49227 37365
L49215 37389
L49203 37401
L49179 37413
L49132 37413
L49108 37401
L49096 37389
L49084 37365
L49084 37317
L49096 37294
L49108 37282
L49132 37270
" />
<path d="M47560 37413
L47644 37294
" />
<path d="M47703 37413
L47703 37163
L47608 37163
L47584 37175
L47572 37186
L47560 37210
L47560 37246
L47572 37270
L47584 37282
L47608 37294
L47703 37294
" />
<path d="M47322 37413
L47465 37413
" />
<path d="M47394 37413
L47394 37163
L47417 37198
L47441 37222
L47465 37234
" />
<path d="M47203 37413
L47155 37413
L47132 37401
L47120 37389
L47096 37353
L47084 37305
L47084 37210
L47096 37186
L47108 37175
L47132 37163
L47179 37163
L47203 37175
L47215 37186
L47227 37210
L47227 37270
L47215 37294
L47203 37305
L47179 37317
L47132 37317
L47108 37305
L47096 37294
L47084 37270
" />
<path d="M46560 34413
L46644 34294
" />
<path d="M46703 34413
L46703 34163
L46608 34163
L46584 34175
L46572 34186
L46560 34210
L46560 34246
L46572 34270
L46584 34282
L46608 34294
L46703 34294
" />
<path d="M46465 34186
L46453 34175
L46429 34163
L46370 34163
L46346 34175
L46334 34186
L46322 34210
L46322 34234
L46334 34270
L46477 34413
L46322 34413
" />
<path d="M46167 34163
L46144 34163
L46120 34175
L46108 34186
L46096 34210
L46084 34258
L46084 34317
L46096 34365
L46108 34389
L46120 34401
L46144 34413
L46167 34413
L46191 34401
L46203 34389
L46215 34365
L46227 34317
L46227 34258
L46215 34210
L46203 34186
L46191 34175
L46167 34163
" />
<path d="M48560 33413
L48644 33294
" />
<path d="M48703 33413
L48703 33163
L48608 33163
L48584 33175
L48572 33186
L48560 33210
L48560 33246
L48572 33270
L48584 33282
L48608 33294
L48703 33294
" />
<path d="M48465 33186
L48453 33175
L48429 33163
L48370 33163
L48346 33175
L48334 33186
L48322 33210
L48322 33234
L48334 33270
L48477 33413
L48322 33413
" />
<path d="M48084 33413
L48227 33413
" />
<path d="M48155 33413
L48155 33163
L48179 33198
L48203 33222
L48227 33234
" />
<path d="M50560 34413
L50644 34294
" />
<path d="M50703 34413
L50703 34163
L50608 34163
L50584 34175
L50572 34186
L50560 34210
L50560 34246
L50572 34270
L50584 34282
L50608 34294
L50703 34294
" />
<path d="M50465 34186
L50453 34175
L50429 34163
L50370 34163
L50346 34175
L50334 34186
L50322 34210
L50322 34234
L50334 34270
L50477 34413
L50322 34413
" />
<path d="M50227 34186
L50215 34175
L50191 34163
L50132 34163
L50108 34175
L50096 34186
L50084 34210
L50084 34234
L50096 34270
L50239 34413
L50084 34413
" />
<path d="M48560 34413
L48644 34294
" />
<path d="M48703 34413
L48703 34163
L48608 34163
L48584 34175
L48572 34186
L48560 34210
L48560 34246
L48572 34270
L48584 34282
L48608 34294
L48703 34294
" />
<path d="M48465 34186
L48453 34175
L48429 34163
L48370 34163
L48346 34175
L48334 34186
L48322 34210
L48322 34234
L48334 34270
L48477 34413
L48322 34413
" />
<path d="M48239 34163
L48084 34163
L48167 34258
L48132 34258
L48108 34270
L48096 34282
L48084 34305
L48084 34365
L48096 34389
L48108 34401
L48132 34413
L48203 34413
L48227 34401
L48239 34389
" />
<path d="M59113 43339
L58994 43255
" />
<path d="M59113 43196
L58863 43196
L58863 43291
L58875 43315
L58886 43327
L58910 43339
L58946 43339
L58970 43327
L58982 43315
L58994 43291
L58994 43196
" />
<path d="M58886 43434
L58875 43446
L58863 43470
L58863 43529
L58875 43553
L58886 43565
L58910 43577
L58934 43577
L58970 43565
L59113 43422
L59113 43577
" />
<path d="M58946 43791
L59113 43791
" />
<path d="M58851 43732
L59029 43672
L59029 43827
" />
<path d="M55813 43339
L55694 43255
" />
<path d="M55813 43196
L55563 43196
L55563 43291
L55575 43315
L55586 43327
L55610 43339
L55646 43339
L55670 43327
L55682 43315
L55694 43291
L55694 43196
" />
<path d="M55586 43434
L55575 43446
L55563 43470
L55563 43529
L55575 43553
L55586 43565
L55610 43577
L55634 43577
L55670 43565
L55813 43422
L55813 43577
" />
<path d="M55563 43803
L55563 43684
L55682 43672
L55670 43684
L55658 43708
L55658 43767
L55670 43791
L55682 43803
L55705 43815
L55765 43815
L55789 43803
L55801 43791
L55813 43767
L55813 43708
L55801 43684
L55789 43672
" />
<path d="M64360 36613
L64444 36494
" />
<path d="M64503 36613
L64503 36363
L64408 36363
L64384 36375
L64372 36386
L64360 36410
L64360 36446
L64372 36470
L64384 36482
L64408 36494
L64503 36494
" />
<path d="M64265 36386
L64253 36375
L64229 36363
L64170 36363
L64146 36375
L64134 36386
L64122 36410
L64122 36434
L64134 36470
L64277 36613
L64122 36613
" />
<path d="M63908 36363
L63955 36363
L63979 36375
L63991 36386
L64015 36422
L64027 36470
L64027 36565
L64015 36589
L64003 36601
L63979 36613
L63932 36613
L63908 36601
L63896 36589
L63884 36565
L63884 36505
L63896 36482
L63908 36470
L63932 36458
L63979 36458
L64003 36470
L64015 36482
L64027 36505
" />
<path d="M65713 31439
L65594 31355
" />
<path d="M65713 31296
L65463 31296
L65463 31391
L65475 31415
L65486 31427
L65510 31439
L65546 31439
L65570 31427
L65582 31415
L65594 31391
L65594 31296
" />
<path d="M65486 31534
L65475 31546
L65463 31570
L65463 31629
L65475 31653
L65486 31665
L65510 31677
L65534 31677
L65570 31665
L65713 31522
L65713 31677
" />
<path d="M65463 31760
L65463 31927
L65713 31820
" />
<path d="M57810 45313
L57894 45194
" />
<path d="M57953 45313
L57953 45063
L57858 45063
L57834 45075
L57822 45086
L57810 45110
L57810 45146
L57822 45170
L57834 45182
L57858 45194
L57953 45194
" />
<path d="M57715 45086
L57703 45075
L57679 45063
L57620 45063
L57596 45075
L57584 45086
L57572 45110
L57572 45134
L57584 45170
L57727 45313
L57572 45313
" />
<path d="M57429 45170
L57453 45158
L57465 45146
L57477 45122
L57477 45110
L57465 45086
L57453 45075
L57429 45063
L57382 45063
L57358 45075
L57346 45086
L57334 45110
L57334 45122
L57346 45146
L57358 45158
L57382 45170
L57429 45170
L57453 45182
L57465 45194
L57477 45217
L57477 45265
L57465 45289
L57453 45301
L57429 45313
L57382 45313
L57358 45301
L57346 45289
L57334 45265
L57334 45217
L57346 45194
L57358 45182
L57382 45170
" />
<path d="M66513 43239
L66394 43155
" />
<path d="M66513 43096
L66263 43096
L66263 43191
L66275 43215
L66286 43227
L66310 43239
L66346 43239
L66370 43227
L66382 43215
L66394 43191
L66394 43096
" />
<path d="M66286 43334
L66275 43346
L66263 43370
L66263 43429
L66275 43453
L66286 43465
L66310 43477
L66334 43477
L66370 43465
L66513 43322
L66513 43477
" />
<path d="M66513 43596
L66513 43644
L66501 43667
L66489 43679
L66453 43703
L66405 43715
L66310 43715
L66286 43703
L66275 43691
L66263 43667
L66263 43620
L66275 43596
L66286 43584
L66310 43572
L66370 43572
L66394 43584
L66405 43596
L66417 43620
L66417 43667
L66405 43691
L66394 43703
L66370 43715
" />
<path d="M68513 43239
L68394 43155
" />
<path d="M68513 43096
L68263 43096
L68263 43191
L68275 43215
L68286 43227
L68310 43239
L68346 43239
L68370 43227
L68382 43215
L68394 43191
L68394 43096
" />
<path d="M68263 43322
L68263 43477
L68358 43394
L68358 43429
L68370 43453
L68382 43465
L68405 43477
L68465 43477
L68489 43465
L68501 43453
L68513 43429
L68513 43358
L68501 43334
L68489 43322
" />
<path d="M68263 43632
L68263 43655
L68275 43679
L68286 43691
L68310 43703
L68358 43715
L68417 43715
L68465 43703
L68489 43691
L68501 43679
L68513 43655
L68513 43632
L68501 43608
L68489 43596
L68465 43584
L68417 43572
L68358 43572
L68310 43584
L68286 43596
L68275 43608
L68263 43632
" />
<path d="M70360 42713
L70444 42594
" />
<path d="M70503 42713
L70503 42463
L70408 42463
L70384 42475
L70372 42486
L70360 42510
L70360 42546
L70372 42570
L70384 42582
L70408 42594
L70503 42594
" />
<path d="M70277 42463
L70122 42463
L70205 42558
L70170 42558
L70146 42570
L70134 42582
L70122 42605
L70122 42665
L70134 42689
L70146 42701
L70170 42713
L70241 42713
L70265 42701
L70277 42689
" />
<path d="M69884 42713
L70027 42713
" />
<path d="M69955 42713
L69955 42463
L69979 42498
L70003 42522
L70027 42534
" />
<path d="M70360 44213
L70444 44094
" />
<path d="M70503 44213
L70503 43963
L70408 43963
L70384 43975
L70372 43986
L70360 44010
L70360 44046
L70372 44070
L70384 44082
L70408 44094
L70503 44094
" />
<path d="M70277 43963
L70122 43963
L70205 44058
L70170 44058
L70146 44070
L70134 44082
L70122 44105
L70122 44165
L70134 44189
L70146 44201
L70170 44213
L70241 44213
L70265 44201
L70277 44189
" />
<path d="M70027 43986
L70015 43975
L69991 43963
L69932 43963
L69908 43975
L69896 43986
L69884 44010
L69884 44034
L69896 44070
L70039 44213
L69884 44213
" />
<path d="M39960 32213
L40044 32094
" />
<path d="M40103 32213
L40103 31963
L40008 31963
L39984 31975
L39972 31986
L39960 32010
L39960 32046
L39972 32070
L39984 32082
L40008 32094
L40103 32094
" />
<path d="M39877 31963
L39722 31963
L39805 32058
L39770 32058
L39746 32070
L39734 32082
L39722 32105
L39722 32165
L39734 32189
L39746 32201
L39770 32213
L39841 32213
L39865 32201
L39877 32189
" />
<path d="M39639 31963
L39484 31963
L39567 32058
L39532 32058
L39508 32070
L39496 32082
L39484 32105
L39484 32165
L39496 32189
L39508 32201
L39532 32213
L39603 32213
L39627 32201
L39639 32189
" />
<path d="M55913 30639
L55794 30555
" />
<path d="M55913 30496
L55663 30496
L55663 30591
L55675 30615
L55686 30627
L55710 30639
L55746 30639
L55770 30627
L55782 30615
L55794 30591
L55794 30496
" />
<path d="M55663 30722
L55663 30877
L55758 30794
L55758 30829
L55770 30853
L55782 30865
L55805 30877
L55865 30877
L55889 30865
L55901 30853
L55913 30829
L55913 30758
L55901 30734
L55889 30722
" />
<path d="M55746 31091
L55913 31091
" />
<path d="M55651 31032
L55829 30972
L55829 31127
" />
<path d="M60513 42439
L60394 42355
" />
<path d="M60513 42296
L60263 42296
L60263 42391
L60275 42415
L60286 42427
L60310 42439
L60346 42439
L60370 42427
L60382 42415
L60394 42391
L60394 42296
" />
<path d="M60263 42522
L60263 42677
L60358 42594
L60358 42629
L60370 42653
L60382 42665
L60405 42677
L60465 42677
L60489 42665
L60501 42653
L60513 42629
L60513 42558
L60501 42534
L60489 42522
" />
<path d="M60263 42903
L60263 42784
L60382 42772
L60370 42784
L60358 42808
L60358 42867
L60370 42891
L60382 42903
L60405 42915
L60465 42915
L60489 42903
L60501 42891
L60513 42867
L60513 42808
L60501 42784
L60489 42772
" />
<path d="M61813 31439
L61694 31355
" />
<path d="M61813 31296
L61563 31296
L61563 31391
L61575 31415
L61586 31427
L61610 31439
L61646 31439
L61670 31427
L61682 31415
L61694 31391
L61694 31296
" />
<path d="M61563 31522
L61563 31677
L61658 31594
L61658 31629
L61670 31653
L61682 31665
L61705 31677
L61765 31677
L61789 31665
L61801 31653
L61813 31629
L61813 31558
L61801 31534
L61789 31522
" />
<path d="M61563 31891
L61563 31844
L61575 31820
L61586 31808
L61622 31784
L61670 31772
L61765 31772
L61789 31784
L61801 31796
L61813 31820
L61813 31867
L61801 31891
L61789 31903
L61765 31915
L61705 31915
L61682 31903
L61670 31891
L61658 31867
L61658 31820
L61670 31796
L61682 31784
L61705 31772
" />
<path d="M68263 44891
L68513 44975
L68263 45058
" />
<path d="M68513 45284
L68394 45201
" />
<path d="M68513 45141
L68263 45141
L68263 45236
L68275 45260
L68286 45272
L68310 45284
L68346 45284
L68370 45272
L68382 45260
L68394 45236
L68394 45141
" />
<path d="M67008 45063
L66925 45313
L66841 45063
" />
<path d="M66615 45313
L66698 45194
" />
<path d="M66758 45313
L66758 45063
L66663 45063
L66639 45075
L66627 45086
L66615 45110
L66615 45146
L66627 45170
L66639 45182
L66663 45194
L66758 45194
" />
<path d="M61713 46239
L61594 46155
" />
<path d="M61713 46096
L61463 46096
L61463 46191
L61475 46215
L61486 46227
L61510 46239
L61546 46239
L61570 46227
L61582 46215
L61594 46191
L61594 46096
" />
<path d="M61463 46322
L61463 46477
L61558 46394
L61558 46429
L61570 46453
L61582 46465
L61605 46477
L61665 46477
L61689 46465
L61701 46453
L61713 46429
L61713 46358
L61701 46334
L61689 46322
" />
<path d="M61463 46560
L61463 46727
L61713 46620
" />
</g>
<g style="fill:#000000; fill-opacity:0.0; 
stroke:#000000; stroke-width:59.0551; stroke-opacity:1; 
stroke-linecap:round; stroke-linejoin:round;">
<path d="M56884 39500
L57203 39500
L57240 39518
L57259 39537
L57278 39575
L57278 39650
L57259 39687
L57240 39706
L57203 39725
L56884 39725
" />
<path d="M57278 40118
L57278 39893
" />
<path d="M57278 40006
L56884 40006
L56940 39968
L56978 39931
L56996 39893
" />
<path d="M58234 38365
L58234 38628
L58628 38459
" />
<path d="M58365 38946
L58628 38946
" />
<path d="M58215 38853
L58496 38759
L58496 39003
" />
<path d="M58628 39153
L58234 39153
" />
<path d="M58421 39153
L58421 39378
" />
<path d="M58628 39378
L58234 39378
" />
<path d="M58590 39790
L58609 39771
L58628 39715
L58628 39678
L58609 39621
L58571 39584
L58534 39565
L58459 39546
L58403 39546
L58328 39565
L58290 39584
L58253 39621
L58234 39678
L58234 39715
L58253 39771
L58271 39790
" />
<path d="M58234 40146
L58234 39959
L58421 39940
L58403 39959
L58384 39996
L58384 40090
L58403 40128
L58421 40146
L58459 40165
L58553 40165
L58590 40146
L58609 40128
L58628 40090
L58628 39996
L58609 39959
L58590 39940
" />
<path d="M58628 40353
L58628 40428
L58609 40465
L58590 40484
L58534 40521
L58459 40540
L58309 40540
L58271 40521
L58253 40503
L58234 40465
L58234 40390
L58253 40353
L58271 40334
L58309 40315
L58403 40315
L58440 40334
L58459 40353
L58478 40390
L58478 40465
L58459 40503
L58440 40521
L58403 40540
" />
<path d="M58234 40896
L58234 40709
L58421 40690
L58403 40709
L58384 40746
L58384 40840
L58403 40877
L58421 40896
L58459 40915
L58553 40915
L58590 40896
L58609 40877
L58628 40840
L58628 40746
L58609 40709
L58590 40690
" />
<path d="M56884 34000
L57203 34000
L57240 34018
L57259 34037
L57278 34075
L57278 34150
L57259 34187
L57240 34206
L57203 34225
L56884 34225
" />
<path d="M56884 34374
L56884 34618
L57034 34487
L57034 34543
L57053 34581
L57071 34599
L57109 34618
L57203 34618
L57240 34599
L57259 34581
L57278 34543
L57278 34431
L57259 34393
L57240 34374
" />
<path d="M58234 32865
L58234 33128
L58628 32959
" />
<path d="M58365 33446
L58628 33446
" />
<path d="M58215 33353
L58496 33259
L58496 33503
" />
<path d="M58628 33653
L58234 33653
" />
<path d="M58421 33653
L58421 33878
" />
<path d="M58628 33878
L58234 33878
" />
<path d="M58590 34290
L58609 34271
L58628 34215
L58628 34178
L58609 34121
L58571 34084
L58534 34065
L58459 34046
L58403 34046
L58328 34065
L58290 34084
L58253 34121
L58234 34178
L58234 34215
L58253 34271
L58271 34290
" />
<path d="M58234 34646
L58234 34459
L58421 34440
L58403 34459
L58384 34496
L58384 34590
L58403 34628
L58421 34646
L58459 34665
L58553 34665
L58590 34646
L58609 34628
L58628 34590
L58628 34496
L58609 34459
L58590 34440
" />
<path d="M58628 34853
L58628 34928
L58609 34965
L58590 34984
L58534 35021
L58459 35040
L58309 35040
L58271 35021
L58253 35003
L58234 34965
L58234 34890
L58253 34853
L58271 34834
L58309 34815
L58403 34815
L58440 34834
L58459 34853
L58478 34890
L58478 34965
L58459 35003
L58440 35021
L58403 35040
" />
<path d="M58234 35396
L58234 35209
L58421 35190
L58403 35209
L58384 35246
L58384 35340
L58403 35377
L58421 35396
L58459 35415
L58553 35415
L58590 35396
L58609 35377
L58628 35340
L58628 35246
L58609 35209
L58590 35190
" />
</g>
<g style="fill:#000000; fill-opacity:0.0; 
stroke:#000000; stroke-width:35.0394; stroke-opacity:1; 
stroke-linecap:round; stroke-linejoin:round;">
<path d="M57795 43613
L57795 43363
" />
<path d="M57676 43613
L57676 43363
L57533 43613
L57533 43363
" />
<path d="M57426 43541
L57307 43541
" />
<path d="M57450 43613
L57366 43363
L57283 43613
" />
<path d="M57211 43386
L57200 43375
L57176 43363
L57116 43363
L57092 43375
L57080 43386
L57069 43410
L57069 43434
L57080 43470
L57223 43613
L57069 43613
" />
<path d="M56830 43613
L56973 43613
" />
<path d="M56902 43613
L56902 43363
L56926 43398
L56949 43422
L56973 43434
" />
<path d="M56711 43613
L56664 43613
L56640 43601
L56628 43589
L56604 43553
L56592 43505
L56592 43410
L56604 43386
L56616 43375
L56640 43363
L56688 43363
L56711 43375
L56723 43386
L56735 43410
L56735 43470
L56723 43494
L56711 43505
L56688 43517
L56640 43517
L56616 43505
L56604 43494
L56592 43470
" />
</g> 
</svg>
