<?xml version="1.0" encoding="UTF-8" standalone="no"?>
<svg
   xmlns:dc="http://purl.org/dc/elements/1.1/"
   xmlns:cc="http://creativecommons.org/ns#"
   xmlns:rdf="http://www.w3.org/1999/02/22-rdf-syntax-ns#"
   xmlns:svg="http://www.w3.org/2000/svg"
   xmlns="http://www.w3.org/2000/svg"
   viewBox="0 0 728 970"
   height="970"
   width="728"
   version="1.1"
   id="svg4195">
  <metadata
     id="metadata4201">
    <rdf:RDF>
      <cc:Work
         rdf:about="">
        <dc:format>image/svg+xml</dc:format>
        <dc:type
           rdf:resource="http://purl.org/dc/dcmitype/StillImage" />
        <dc:title></dc:title>
      </cc:Work>
    </rdf:RDF>
  </metadata>
  <defs
     id="defs4199" />
  <path
     style="fill:#070707"
     d="m 147.01962,892.18125 c -5.43156,-0.38643 -7.21751,-1.70139 -6.82018,-5.02156 0.27227,-2.27514 3.02296,-4.67542 7.80056,-6.80686 C 152.93858,878.14957 159.33574,876 160.95411,876 c 1.03405,0 3.94239,-0.88401 6.46298,-1.96446 L 172,872.07107 171.9847,847.28554 c -0.008,-13.63205 -0.41556,-25.41774 -0.90475,-26.19043 -1.08287,-1.71044 -6.65164,-1.69546 -8.72282,0.0235 -0.82733,0.68662 -4.73363,1.37985 -8.68068,1.5405 -8.58345,0.34937 -20.88166,-3.02441 -27.77459,-7.61944 -7.50772,-5.00486 -17.40441,-15.97747 -19.42757,-21.53964 -1.00027,-2.75 -2.30368,-5.63162 -2.89648,-6.4036 -1.78226,-2.32099 -1.36426,-22.96206 0.55947,-27.62651 0.90049,-2.18344 2.41369,-5.84325 3.36265,-8.13291 0.94896,-2.28966 3.24969,-5.64044 5.11273,-7.44617 1.86304,-1.80573 3.38735,-3.81477 3.38735,-4.46453 0,-0.64977 0.69548,-1.75859 1.54551,-2.46405 0.85003,-0.70546 1.33118,-1.8412 1.06921,-2.52386 -0.85366,-2.22461 1.29338,-26.62271 2.46728,-28.03718 1.00666,-1.21295 1.89797,-5.08409 4.81238,-20.90119 0.40537,-2.2 1.26996,-4.98292 1.92132,-6.18426 0.65137,-1.20134 1.1843,-3.11384 1.1843,-4.25 0,-1.13616 0.9,-2.96574 2,-4.06574 1.1,-1.1 2,-3.26 2,-4.8 0,-1.54 0.40195,-3.2275 0.89322,-3.75 0.49127,-0.5225 1.37694,-3.26784 1.96816,-6.10075 0.59122,-2.83292 2.16675,-7.55792 3.50119,-10.5 1.33444,-2.94209 3.13174,-7.45231 3.99399,-10.02271 0.86226,-2.57041 2.93477,-6.89518 4.60559,-9.6106 1.67082,-2.71543 3.03785,-5.61977 3.03785,-6.45409 0,-0.83433 0.675,-2.07716 1.5,-2.76185 0.825,-0.68469 1.5,-1.89481 1.5,-2.68917 0,-0.79435 1.07553,-2.87675 2.39007,-4.62755 1.31455,-1.7508 3.40143,-5.43194 4.63753,-8.18031 1.2361,-2.74837 3.25917,-6.34837 4.49571,-8 1.23654,-1.65163 3.16631,-4.83219 4.28838,-7.0679 1.12207,-2.23571 3.31097,-5.44293 4.86422,-7.12715 1.55325,-1.68423 3.70997,-4.74361 4.79272,-6.79864 l 1.96863,-3.73641 -2.96863,-2.45483 c -5.62334,-4.65006 -15.81891,-13.82706 -19.88927,-17.90225 -4.75228,-4.75792 -21.38747,-24.66369 -24.1724,-28.92485 -1.04883,-1.60478 -2.86227,-3.95074 -4.02987,-5.21325 -3.39106,-3.66671 -11.23258,-15.7361 -13.96271,-21.49094 -1.37944,-2.90771 -4.07824,-7.76175 -5.99734,-10.78675 -1.91909,-3.025 -3.75845,-6.625 -4.08746,-8 -0.32901,-1.375 -1.1887,-3.18385 -1.91043,-4.01967 -0.72173,-0.83582 -2.70315,-4.88582 -4.40314,-9 -1.699997,-4.11418 -3.749051,-8.67476 -4.553456,-10.13462 -0.804414,-1.45989 -1.462563,-3.35713 -1.462563,-4.21611 0,-0.85897 -0.637858,-3.03954 -1.417462,-4.8457 C 91.802935,439.97777 90.418558,435.8 89.506147,432.5 c -0.912412,-3.3 -2.071411,-6.9 -2.575553,-8 -2.652955,-5.78855 -4.184974,-11.90621 -5.008509,-20 -0.503657,-4.95 -1.342904,-12.6 -1.864994,-17 -0.522089,-4.4 -0.973517,-12.05425 -1.003172,-17.00945 -0.04724,-7.89308 -0.301741,-9.16422 -2.053918,-10.25848 -1.918489,-1.19811 -1.999028,-2.3185 -1.976143,-27.49054 0.014,-15.39934 0.465966,-27.89421 1.093902,-30.24153 0.588526,-2.2 1.465052,-7.80224 1.947836,-12.44942 0.482785,-4.64718 1.340529,-9.77683 1.906098,-11.39922 0.565569,-1.62239 1.031079,-5.02016 1.034468,-7.55058 0.0034,-2.53043 0.678388,-5.88972 1.5,-7.46509 0.821611,-1.57537 1.493839,-4.58631 1.493839,-6.69098 0,-2.10467 0.45,-4.10479 1,-4.44471 0.55,-0.33992 1,-1.758 1,-3.15129 0,-1.39329 0.862684,-3.62998 1.917076,-4.97042 1.054391,-1.34044 2.199867,-4.33642 2.545502,-6.65773 0.791671,-5.31691 7.932888,-22.62076 12.059191,-29.22056 1.71934,-2.75 4.21781,-7.16805 5.55215,-9.81789 1.33435,-2.64985 3.66358,-6.2184 5.17608,-7.93011 1.5125,-1.71172 2.75,-3.66576 2.75,-4.34231 0,-0.67655 1.78201,-3.48451 3.96003,-6.2399 2.17801,-2.7554 5.36661,-7.29581 7.08577,-10.0898 C 128.76496,167.286 130.71093,165 131.37017,165 c 0.65924,0 2.03154,-1.4625 3.04957,-3.25 1.84414,-3.23804 3.73917,-5.43561 13.45987,-15.60867 2.81622,-2.94727 5.12039,-5.68175 5.12039,-6.07664 0,-0.39488 3.4875,-3.78754 7.75,-7.53923 4.2625,-3.7517 8.05661,-7.61041 8.43135,-8.5749 0.37474,-0.96449 1.87453,-2.58544 3.33286,-3.60209 1.45833,-1.01666 4.87924,-3.76097 7.60203,-6.09847 2.72278,-2.3375 5.32413,-4.25 5.78078,-4.25 0.45664,0 1.90412,-1.01564 3.21662,-2.25698 1.3125,-1.24134 5.08636,-4.05175 8.38636,-6.24537 3.3,-2.193606 6.45,-4.504521 7,-5.135357 0.55,-0.630836 5.05,-3.261137 10,-5.845114 14.66801,-7.656927 17.8336,-9.481953 20.0364,-11.551374 C 235.68728,77.884612 237.36084,77 238.25543,77 c 0.8946,0 1.88436,-0.41717 2.19948,-0.927045 0.31512,-0.509874 2.25418,-1.476471 4.30902,-2.147992 2.05484,-0.671521 6.84795,-2.729351 10.65136,-4.572955 C 259.2187,67.508404 263.29519,66 264.47416,66 c 1.17897,0 3.01709,-0.660688 4.08471,-1.468197 1.06762,-0.807508 3.58049,-1.482508 5.58414,-1.5 2.23044,-0.01947 3.85799,-0.592033 4.19744,-1.47663 0.30494,-0.794655 2.26559,-1.728697 4.35699,-2.07565 2.09141,-0.346952 5.02136,-1.093628 6.51101,-1.659281 1.48964,-0.565652 5.31464,-1.393635 8.5,-1.839963 3.18535,-0.446327 7.59155,-1.288743 9.79155,-1.872035 2.2,-0.583292 7.29208,-1.071266 11.31574,-1.084387 4.02366,-0.01312 8.26771,-0.533335 9.43123,-1.156031 2.06171,-1.103396 31.75922,-3.209894 42.75303,-3.03255 16.00647,0.258204 39.68977,1.78949 41,2.650927 1.5169,0.997312 14.81341,2.646717 20.69407,2.567059 1.75674,-0.0238 3.4708,0.404484 3.80902,0.951736 C 436.84131,55.552249 438.03454,56 439.15472,56 c 1.12018,0 3.23113,0.647996 4.69099,1.43999 1.45986,0.791995 4.36544,1.716823 6.45685,2.055173 2.0914,0.33835 4.05205,1.265355 4.35699,2.06001 C 454.96448,62.349828 456.38829,63 457.82356,63 c 1.43526,0 4.42462,0.618051 6.64301,1.373447 2.21839,0.755396 5.83343,1.910485 8.03343,2.566866 5.24086,1.563635 18.46177,7.078277 20.97251,8.747946 C 494.55738,76.409717 496.22252,77 497.17282,77 c 0.95029,0 2.08825,0.644088 2.5288,1.431308 0.44055,0.787219 4.17541,3.086922 8.29969,5.11045 4.12428,2.023529 8.17369,4.259692 8.99869,4.969251 0.825,0.70956 3.75,2.5103 6.5,4.001645 2.75,1.491345 5.45395,3.223594 6.00877,3.849442 C 530.77565,97.791161 539.84649,104 540.66741,104 c 0.33491,0 2.55621,1.6875 4.93621,3.75 2.38001,2.0625 6.62143,5.55 9.42537,7.75 4.34077,3.40581 7.66649,6.41163 11.64024,10.52057 3.31302,3.42573 16.05831,16.29594 19.78551,19.97943 2.50437,2.475 4.55157,4.85552 4.54933,5.29006 -0.002,0.43453 1.68343,2.49153 3.74593,4.57111 5.67775,5.72478 9.78609,10.49015 11.83195,13.7242 1.01409,1.60304 4.11051,5.92882 6.88092,9.61282 7.54311,10.03056 15.53713,23.5847 15.53713,26.34376 0,0.68424 0.65626,1.4959 1.45836,1.8037 0.8021,0.30779 2.85985,3.61844 4.5728,7.35699 1.71294,3.73855 4.20702,9.04736 5.54239,11.79736 2.74953,5.6622 6.36491,16.18194 6.40186,18.62756 0.0135,0.89515 0.69959,2.18775 1.52459,2.87244 0.825,0.68469 1.50277,2.20229 1.50616,3.37244 0.003,1.17016 0.66141,3.38376 1.46226,4.91912 1.30312,2.49829 2.50182,7.10507 4.21746,16.20844 0.31096,1.65 0.99418,3.53867 1.51826,4.19705 0.52408,0.65838 0.81052,2.28332 0.63654,3.61098 -0.17398,1.32766 0.19922,3.03898 0.82933,3.80294 0.63011,0.76397 1.35178,4.31403 1.60371,7.88903 0.25193,3.575 0.95767,8.3 1.56831,10.5 1.41739,5.10652 1.52064,49.64384 0.13958,60.20915 -0.56011,4.28497 -1.49366,11.61585 -2.07454,16.29085 -0.58087,4.675 -1.54141,10.525 -2.13451,13 -0.59311,2.475 -1.39376,6.75 -1.77924,9.5 -1.23495,8.81028 -6.14946,26.84349 -8.62659,31.65429 -0.7517,1.45986 -1.36673,3.22275 -1.36673,3.91753 0,1.63977 -9.45204,26.8872 -12.58667,33.62036 -1.32947,2.85571 -2.83172,5.44837 -3.33834,5.76147 -0.50661,0.31311 -1.23496,2.02662 -1.61854,3.80782 -0.38358,1.78119 -3.1182,6.92742 -6.07693,11.43607 -2.95874,4.50865 -5.37952,8.49389 -5.37952,8.8561 0,0.3622 -1.35,2.36307 -3,4.44636 -1.65,2.08329 -3,4.05788 -3,4.38796 0,0.52288 -4.9485,7.09303 -19.1404,25.41279 -3.6925,4.76651 -19.27903,20.20641 -30.52732,30.24015 -6.77368,6.04228 -6.78595,6.14924 -1.38442,12.06316 1.57829,1.728 3.69182,4.774 4.69673,6.76888 1.00491,1.99488 3.07526,5.0029 4.60078,6.68449 2.92076,3.21956 4.97093,6.72405 11.81296,20.19257 2.30505,4.5375 4.5606,8.25 5.01232,8.25 0.75004,0 7.92935,14.326 7.92935,15.82268 0,0.35442 1.28545,3.35181 2.85655,6.66086 4.25241,8.95643 5.14345,11.37156 5.14345,13.94107 0,1.28177 0.675,2.8907 1.5,3.57539 0.825,0.68469 1.5,1.98966 1.5,2.89994 0,0.91028 0.6596,2.59675 1.46577,3.74773 0.80617,1.15097 1.90298,4.5136 2.43735,7.4725 1.85306,10.26067 3.34717,15.38385 4.71856,16.17952 0.79177,0.45938 1.37832,2.42866 1.37832,4.62756 0,2.18259 0.64472,4.36293 1.5,5.07275 0.86927,0.72143 1.5,2.90298 1.5,5.18819 0,2.16881 0.45473,4.79297 1.01051,5.83146 0.55579,1.03849 1.29257,4.7214 1.63731,8.18425 0.34473,3.46286 1.00965,6.78577 1.47761,7.38426 0.46795,0.59849 1.34045,4.64849 1.93887,9 1.41608,10.29711 2.81901,14.99626 5.09099,17.05238 1.01459,0.91819 1.84748,2.16219 1.85087,2.76445 0.003,0.60225 0.69067,2.40761 1.52728,4.0119 3.82381,7.3325 3.94238,24.28976 0.22435,32.08311 -4.4519,9.3316 -8.21943,14.51575 -14.35279,19.74955 -6.58063,5.61547 -8.70373,6.80752 -17.45357,9.7996 -8.86914,3.03288 -18.24667,3.40378 -25.07424,0.99174 -5.29616,-1.87103 -5.4083,-1.87058 -7.44164,0.0297 C 567.3001,822.13178 565.6126,823 564.68555,823 563.15001,823 563,825.21286 563,847.86414 l 0,24.86414 4.25,1.55959 c 2.3375,0.85777 5.825,1.87087 7.75,2.25133 1.925,0.38046 3.95,1.02773 4.5,1.43839 0.55,0.41065 2.35,1.06108 4,1.44539 5.05191,1.17668 10.5,5.3114 10.5,7.96876 0,1.29986 -0.61433,2.87322 -1.36518,3.49637 -1.00589,0.83481 -59.23535,1.19602 -221.25,1.37244 -120.93665,0.1317 -221.90099,0.096 -224.3652,-0.0793 z M 475.45,887.00651 c 61.7004,-0.004 110.5283,-0.38694 110,-0.86354 -0.5225,-0.47137 -4.325,-1.87321 -8.45,-3.11521 -4.125,-1.242 -10.2,-3.30008 -13.5,-4.57352 -7.86388,-3.0346 -32.4143,-7.97073 -50,-10.05304 -20.29905,-2.40359 -54.65152,-1.11921 -85,3.17802 -13.33488,1.88816 -49.41269,9.50975 -58.79464,12.4206 l -6.79465,2.10812 -3.29595,-2.03701 C 354.58933,880.96504 333.65675,874.39592 323,872.58039 c -21.16501,-3.60577 -40.87661,-4.91731 -75,-4.99022 -27.56515,-0.0589 -35.53734,0.24675 -45,1.72533 -13.57124,2.12055 -26.05614,5.1573 -26.91476,6.54657 -0.70526,1.14114 -10.16461,4.68397 -14.58524,5.46265 -1.65,0.29064 -5.25,1.52541 -8,2.74394 -4.41266,1.95525 -4.72877,2.28691 -2.69105,2.82342 1.26992,0.33436 49.86992,0.49835 108,0.36443 58.13008,-0.13392 155.61855,-0.24642 216.64105,-0.25 z m -85.76502,-12.91166 c 36.78305,-8.46431 61.47826,-11.38627 97.31502,-11.5144 23.3485,-0.0835 37.816,1.31217 55.5,5.35396 4.4,1.00566 9.6875,2.1272 11.75,2.49234 l 3.75,0.66388 0,-23.15231 c 0,-19.98611 -0.20155,-23.07496 -1.47381,-22.58674 -5.00221,1.91952 -40.97897,7.09283 -70.02619,10.06947 -87.4199,8.95842 -127.01249,10.31785 -176.09944,6.04647 -24.9703,-2.17284 -77.7248,-9.76558 -114.36244,-16.45973 C 186.98408,823.35351 178.99658,822 178.28812,822 177.27384,822 177,826.99577 177,845.5 c 0,12.925 0.23786,23.5 0.52857,23.5 0.29071,0 6.02821,-1.09782 12.75,-2.43959 6.72179,-1.34178 17.98344,-2.91678 25.0259,-3.5 31.78513,-2.6323 84.5209,-0.0577 113.19553,5.52623 8.56672,1.66824 27.04702,7.52801 31.37212,9.94753 3.16293,1.76938 2.22491,1.90906 29.81286,-4.43932 z M 360.99863,808.25 c -7.5e-4,-16.9125 -0.2989,-48.6375 -0.66255,-70.5 L 359.6749,698 l -11.58745,0.0566 c -6.3731,0.0311 -19.23745,0.64658 -28.58745,1.36769 -9.35,0.72111 -17.12042,1.21272 -17.2676,1.09248 -0.14719,-0.12024 0.41531,-3.46512 1.25,-7.43306 3.88676,-18.47703 0.42308,-24.96971 -14.44567,-27.07848 -12.46464,-1.76781 -32.83643,1.8361 -44.95287,7.95246 l -5.81778,2.9368 -0.59801,-5.04925 c -0.71033,-5.99763 0.80282,-23.33547 2.95381,-33.84522 0.84425,-4.125 3.28555,-11.97666 5.4251,-17.44813 2.13955,-5.47148 3.79175,-10.02371 3.67155,-10.11608 -0.12019,-0.0924 -5.61853,-2.82184 -12.21853,-6.06548 -16.72272,-8.21858 -32.24759,-17.65966 -42.29725,-25.72209 l -8.54061,-6.85177 -1.80883,2.35177 c -0.99486,1.29348 -1.81884,2.82634 -1.83107,3.40636 -0.0122,0.58002 -1.64173,2.82265 -3.6211,4.98363 -1.97938,2.16097 -4.51314,5.73641 -5.63059,7.94542 -1.11744,2.209 -2.89209,5.2377 -3.94365,6.73045 -1.05156,1.49274 -3.38033,5.54274 -5.17504,9 -4.20107,8.09275 -12.94945,24.70074 -14.37307,27.28592 -3.64231,6.61416 -10.02328,25.3209 -12.24586,35.90051 -0.45068,2.14527 -1.54246,4.30514 -2.42618,4.79969 -0.88371,0.49455 -1.60675,1.8064 -1.60675,2.91523 0,1.10883 -0.53293,2.99897 -1.1843,4.20031 -0.65136,1.20134 -1.51595,3.98426 -1.92132,6.18426 -2.81186,15.26053 -3.74182,19.34642 -4.89279,21.49704 -1.24823,2.33233 -2.8172,21.00296 -1.76497,21.00296 0.28003,0 2.70385,-1.0125 5.38626,-2.25 4.41405,-2.03637 6.39627,-2.25 20.87712,-2.25 15.43666,0 16.19748,0.097 21.60879,2.75446 3.08484,1.51496 6.82052,3.87746 8.30152,5.25 1.60517,1.48762 3.88359,2.49554 5.64121,2.49554 2.44583,0 2.94848,-0.40925 2.94848,-2.40063 0,-3.32483 3.46485,-23.54663 6.65935,-38.86573 2.49403,-11.96003 2.79413,-12.72591 4.75141,-12.12578 1.14908,0.35233 2.21759,0.75055 2.37447,0.88493 0.15688,0.13439 -1.51223,9.2463 -3.70913,20.24869 -2.1969,11.00239 -4.293,22.91924 -4.658,26.48188 l -0.66365,6.47753 3.28174,0.65635 c 4.57,0.914 13.40931,9.92844 14.84857,15.14276 1.40254,5.08126 1.41396,12.88397 0.0262,17.88208 -1.25115,4.50606 -8.62975,12.84459 -12.94909,14.63372 -1.62902,0.67476 -2.96186,1.83037 -2.96186,2.56801 0,0.73764 -0.91869,3.79658 -2.04153,6.79764 -2.17106,5.80267 -11.61964,16.28526 -17.45847,19.36904 l -3,1.58446 2.87851,0.78041 c 13.34415,3.61782 97.81897,16.69245 128.62149,19.90745 10.20083,1.06471 35.56641,2.52034 49.25,2.82628 L 361,839 360.999,808.25 Z m -27.12583,1.06629 c -11.30389,-7.01544 -5.25757,-24.54498 7.89443,-22.88758 9.07097,1.14311 11.23277,3.84171 11.23277,14.02198 0,4.33565 -1.83941,6.9291 -6.68426,9.42435 -3.14193,1.61819 -9.38712,1.33775 -12.44294,-0.55875 z m 11.90469,-4.87299 C 347.4027,803.30496 348,801.87819 348,799.13443 c 0,-4.87261 -1.68472,-7.04673 -6.00359,-7.74759 -7.3412,-1.19131 -11.55237,6.09406 -6.92383,11.9783 2.41418,3.06913 7.17747,3.54887 10.70491,1.07816 z m -6.38715,-55.40149 c -9.17634,-2.1595 -13.20575,-10.53639 -8.7434,-18.177 2.74691,-4.70335 5.78886,-6.05818 12.27592,-5.46745 7.22875,0.65826 10.16922,3.5055 10.84104,10.49734 0.53106,5.52684 -0.95337,8.91838 -5.02783,11.48725 -3.22439,2.03292 -5.80951,2.49205 -9.34573,1.65986 z m 7.85966,-6.8488 c 2.40339,-2.06415 2.26572,-7.67729 -0.25,-10.19301 -2.74991,-2.74991 -8.3126,-2.65422 -10.96104,0.18856 -3.94209,4.23133 -1.77366,10.32364 4.23332,11.89371 2.63827,0.68958 4.59051,0.161 6.97772,-1.88926 z m 50.25,95.84306 c 86.27389,-5.82245 160.63783,-15.18395 166.81619,-21.00011 0.4489,-0.42259 -1.1261,-1.90819 -3.5,-3.30135 -7.09082,-4.16134 -16.18266,-14.40742 -18.65395,-21.02212 C 540.97301,789.52936 540,786.35348 540,785.65499 c 0,-0.69849 -2.04936,-2.71451 -4.55414,-4.48004 -12.41415,-8.7503 -12.64384,-30.22382 -0.41801,-39.08017 2.2963,-1.66343 5.07386,-3.30967 6.17236,-3.65832 1.75177,-0.556 1.91799,-1.20563 1.35233,-5.28519 -1.60799,-11.59678 -7.66486,-43.21818 -9.00656,-47.02096 -1.44258,-4.08869 -1.42038,-4.24164 0.7332,-5.05162 2.66946,-1.00401 3.16508,-0.3099 5.10972,7.15609 1.42116,5.45619 6.89849,34.96244 8.17067,44.01522 0.63112,4.49099 0.83503,4.75 3.73952,4.75 1.68961,0 4.00101,-0.86633 5.13646,-1.92519 2.91059,-2.71424 11.19594,-6.70583 16.89098,-8.13747 3.05017,-0.76676 8.76399,-1.02669 15.52492,-0.70623 11.60197,0.54991 16.33397,2.22198 26.24362,9.27329 l 4.59507,3.26966 -0.67695,-3.63703 c -0.37233,-2.00037 -1.17164,-5.21203 -1.77625,-7.13703 -1.04136,-3.31553 -2.63268,-11.66143 -3.90874,-20.5 -0.31762,-2.2 -1.19641,-4.88763 -1.95285,-5.97251 C 610.61891,700.44262 610,698.11762 610,696.36083 c 0,-1.75679 -0.48569,-3.35606 -1.07931,-3.55393 -1.07285,-0.35762 -3.31033,-8.06287 -4.9252,-16.96096 -0.46455,-2.55974 -2.22858,-7.44342 -3.92006,-10.85263 C 598.38394,661.58411 597,657.97824 597,656.98028 c 0,-1.69736 -1.61613,-5.91528 -5.93139,-15.48028 -6.45113,-14.29927 -8.54325,-18.5 -9.2137,-18.5 -0.41729,0 -2.59199,-3.7125 -4.83267,-8.25 -5.43844,-11.01312 -9.10542,-17.16858 -12.21034,-20.4965 -1.41295,-1.51443 -3.29779,-4.3285 -4.18855,-6.2535 -0.89075,-1.925 -3.19541,-5.26924 -5.12145,-7.43165 -1.92605,-2.16241 -3.50879,-4.18741 -3.51721,-4.5 -0.008,-0.31259 -0.39594,-1.1688 -0.86114,-1.90268 -0.63882,-1.00778 -3.17287,0.4847 -10.35418,6.09831 -5.22959,4.08796 -12.15458,9.00507 -15.38886,10.92691 -13.86511,8.23878 -31.28339,17.74626 -36.38051,19.8577 -3.025,1.25308 -5.81894,2.54622 -6.20876,2.87363 -0.38981,0.32741 1.10631,6.21635 3.32472,13.08654 4.63605,14.35738 6.46435,28.55987 5.37857,41.78168 l -0.68081,8.29044 -4.18977,-2.45538 c -10.02096,-5.87266 -31.34301,-10.34363 -44.75304,-9.38415 -5.67991,0.40639 -7.37057,0.98633 -10.80476,3.70626 -2.23918,1.77346 -4.4046,4.42326 -4.81204,5.88843 -0.99705,3.58547 -0.95089,15.66665 0.0798,20.89051 l 0.83393,4.22654 -16.33393,-0.48738 c -8.98367,-0.26806 -22.8193,-0.69742 -30.74586,-0.95413 l -14.41192,-0.46675 0.66192,37.64125 C 366.70214,756.38876 367,788.10367 367,806.16366 L 367,839 l 8.75,-0.0433 c 4.8125,-0.0238 14.6,-0.4381 21.75,-0.92064 z M 161,815.73183 c 12.4435,-4.69018 25.11481,-14.97568 28.53561,-23.1628 2.13395,-5.10728 1.9035,-5.56845 -2.78561,-5.57461 -2.3375,-0.003 -6.05,-0.50241 -8.25,-1.10966 -5.37785,-1.4844 -13.90036,-10.00691 -15.38476,-15.38476 -1.39656,-5.05962 -1.41548,-12.8786 -0.0431,-17.82078 1.15626,-4.16393 6.7504,-10.97402 11.2934,-13.74815 l 2.86553,-1.74979 -3.86553,-2.55201 c -5.57943,-3.68352 -12.80931,-4.89865 -26.20759,-4.40472 -14.2844,0.52659 -19.66422,2.51675 -23.88519,8.8359 -1.52501,2.28305 -4.48687,6.09515 -6.58192,8.47132 -6.24437,7.08225 -10.40842,20.49128 -9.30977,29.97923 1.05707,9.12888 4.95977,17.08976 11.82614,24.12338 8.25576,8.45685 12.05236,10.97606 20.61219,13.67707 7.79371,2.45927 15.37219,2.60968 21.18062,0.42038 z m 438.5,-0.91035 c 10.98725,-3.58331 19.31475,-10.78861 26.01736,-22.5113 4.54744,-7.95336 4.68242,-8.42975 4.67519,-16.5 -0.007,-8.32717 -2.39632,-17.09177 -5.67198,-20.81018 -0.72677,-0.825 -1.98274,-3.1025 -2.79104,-5.06112 -1.77927,-4.3114 -9.09731,-10.75803 -17.22953,-15.17788 -5.8646,-3.18741 -6.28207,-3.261 -18.5,-3.261 -11.66959,0 -12.9152,0.19176 -18.75,2.88656 -3.4375,1.58761 -6.22557,3.16261 -6.1957,3.5 0.0299,0.33739 2.16736,1.96344 4.75,3.61344 9.59321,6.12893 13.03327,19.86393 7.79354,31.11703 C 569.65401,781.08698 561.3922,786 551.09282,786 l -5.97142,0 1.56755,4.60051 c 2.00838,5.89429 11.43674,16.0615 18.41769,19.86102 13.57288,7.38728 21.88137,8.44052 34.39336,4.35995 z m -403.54347,-36.299 c 6.83895,-3.53656 11.92387,-13.16703 10.48411,-19.85616 -2.20356,-10.23776 -12.76062,-18.04705 -21.77432,-16.10696 -7.43345,1.59997 -13.79293,7.48341 -15.68532,14.51119 -4.05794,15.07006 13.03337,28.6617 26.97553,21.45193 z m 364.63313,-2.02216 c 3.48181,-2.04047 5.16988,-3.93492 6.99053,-7.84519 1.32015,-2.83532 2.40027,-6.05513 2.40027,-7.15513 0,-1.1 -1.08012,-4.31981 -2.40027,-7.15513 C 564.55008,747.83701 557.91943,743.5 551,743.5 c -7.08669,0 -13.57871,4.3381 -16.70223,11.16077 -2.83206,6.18604 -2.63261,9.42707 0.97163,15.78878 1.55823,2.75036 3.90651,4.82597 7.73412,6.83605 6.56647,3.44842 10.67493,3.26496 17.58614,-0.78528 z m -219.37761,-83.17122 17.71205,-0.62694 -1.91477,-2.60108 c -1.05312,-1.43059 -5.42355,-7.38787 -9.71205,-13.23838 -13.88337,-18.94015 -29.44903,-39.28183 -32.60767,-42.6127 -1.69507,-1.7875 -3.79984,-3.25 -4.67728,-3.25 -3.83391,0 -27.41206,-7.51198 -40.59863,-12.93469 -7.91317,-3.25413 -14.5837,-5.59926 -14.8234,-5.21142 -0.23971,0.38785 -1.84468,4.25175 -3.5666,8.58645 -4.63451,11.66671 -6.99733,22.64056 -7.69831,35.75395 l -0.62512,11.69429 5.89987,-2.37361 c 13.01412,-5.23579 36.26358,-7.49295 46.7984,-4.54338 2.87346,0.80452 6.50831,2.93962 9.23968,5.42734 4.42528,4.03055 4.51172,4.23004 5.02627,11.60107 0.28795,4.125 0.065,9.47489 -0.49533,11.88866 l -1.01887,4.38865 7.67485,-0.66063 c 4.22117,-0.36335 15.64528,-0.94276 25.38691,-1.28758 z m 79.31465,-8.5798 c 0.02,-7.687 0.45,-11.03482 1.7199,-13.39143 2.05381,-3.81134 8.02965,-8.62968 12.65262,-10.20186 7.50688,-2.55294 27.61948,-0.6847 41.7933,3.88214 5.05588,1.62902 9.50455,2.96185 9.88593,2.96185 1.71881,0 -0.79054,-23.86874 -3.57446,-34 -4.02662,-14.65375 -5.67812,-18.35148 -7.80408,-17.47352 -14.63602,6.04427 -43.08966,14.26689 -55.45653,16.026 -6.90407,0.98205 -10.3373,4.22675 -25.07431,23.69731 -7.18106,9.48761 -16.30282,21.52521 -20.2706,26.75021 -3.96778,5.225 -7.0032,9.71492 -6.74538,9.97759 0.25782,0.26268 11.80384,0.74493 25.65783,1.07167 13.854,0.32674 25.63908,0.67401 26.18908,0.77171 0.61177,0.10867 1.01037,-3.80142 1.0267,-10.07167 z M 370.23967,680.25 c 3.59041,-4.8125 12.64998,-16.81781 20.13237,-26.67848 7.48238,-9.86066 13.4291,-18.10372 13.21491,-18.3179 -0.21418,-0.21419 -5.94637,0.15098 -12.73819,0.81147 -18.97206,1.84502 -54.04489,0.48918 -67.6925,-2.61684 -2.16737,-0.49327 -2.03722,-0.0975 1.7297,5.25917 2.24039,3.18592 8.47008,11.48578 13.84374,18.44413 5.37367,6.95836 12.88297,16.97086 16.68734,22.25 3.80438,5.27915 7.227,9.59845 7.60583,9.59845 0.37882,0 3.62639,-3.9375 7.2168,-8.75 z M 396.5,630.50506 c 23.08075,-2.39945 34.80353,-4.75813 55.5,-11.16687 19.47422,-6.03027 38.77882,-14.24393 55.5,-23.61396 17.56188,-9.84114 21.65178,-12.55265 35,-23.20416 4.95,-3.94997 9.83245,-7.63842 10.84988,-8.19656 3.19649,-1.75353 30.73122,-28.52689 34.75611,-33.79506 2.11296,-2.76565 6.55779,-8.54607 9.87741,-12.84539 3.31962,-4.29931 8.56953,-11.72431 11.66647,-16.5 3.09693,-4.77568 7.13029,-10.93306 8.96301,-13.68306 1.83271,-2.75 3.98146,-6.86109 4.77499,-9.13575 0.79354,-2.27466 2.52869,-5.87466 3.8559,-8 2.76727,-4.43139 12.46301,-30.1814 18.21077,-48.36425 3.13643,-9.92198 4.6676,-16.29183 5.56476,-23.15004 0.40651,-3.10753 1.02718,-6.11615 1.37927,-6.68584 0.69247,-1.12045 2.04807,-10.38016 3.61075,-24.66412 0.54153,-4.95 1.24834,-10.24485 1.57068,-11.76633 0.51212,-2.4172 0.16543,-2.94471 -2.74696,-4.17968 -4.16362,-1.76556 -12.24489,-10.1819 -17.28035,-17.99683 C 623.29902,311.43574 611.33811,288.60903 608.44143,278 606.60488,271.27371 598.38666,255.75666 582.48977,229 577.42482,220.475 572.2051,211.61044 570.89039,209.30098 565.80437,200.36675 546.9807,177.29214 538.97233,170.17487 521.95442,155.05058 521.17293,154.83082 487,155.55994 c -33.15994,0.7075 -35.4563,1.12289 -47.61786,8.61365 -12.60931,7.76655 -32.90394,17.8808 -42.46853,21.16509 -13.0734,4.48913 -23.49135,5.75573 -39.41361,4.79185 -17.77868,-1.07627 -26.39199,-3.84416 -49.39407,-15.87281 -26.18182,-13.69146 -27.15966,-14.13857 -35.60593,-16.28084 -4.4,-1.11599 -13.58336,-2.74656 -20.40746,-3.62348 -13.99012,-1.79777 -22.22362,-1.13236 -40.37659,3.26315 -16.70472,4.04484 -26.14085,12.2408 -42.03283,36.50853 -15.00318,22.91051 -24.00985,39.21735 -31.71193,57.41541 -12.42766,29.36343 -33.67762,71.46232 -44.658751,88.47471 l -10.014727,15.51519 0.837944,16.48481 c 0.460869,9.06664 1.293884,18.64445 1.851145,21.28402 0.55726,2.63957 1.024817,7.13957 1.039017,10 0.01472,2.96534 1.10469,8.20958 2.535828,12.20078 2.416611,6.73952 4.644155,13.67899 6.419925,20 1.093043,3.89078 3.082728,9.5796 4.044249,11.56314 0.41675,0.85972 2.18736,5.13346 3.93469,9.4972 1.74732,4.36374 3.8426,8.66961 4.65617,9.56859 0.81357,0.89899 1.92234,3.23936 2.46393,5.20083 0.54159,1.96148 2.60072,5.9522 4.57585,8.86828 1.97513,2.91608 4.44166,7.26627 5.48116,9.6671 2.05002,4.73469 9.82158,16.71684 13.23947,20.41255 1.1676,1.26251 2.98104,3.60847 4.02987,5.21325 2.92234,4.47139 19.57323,24.33023 24.25241,28.92485 7.8488,7.70697 12.84657,12.22694 17.30798,15.6533 2.45705,1.887 8.4029,6.66534 13.21301,10.61853 20.15724,16.56623 39.94236,27.38524 78.31964,42.82721 25.06647,10.08606 42.20924,14.21968 74,17.84353 8.25258,0.94072 38.63238,0.43242 51,-0.8533 z m -30,-51.40291 c -7.68403,-1.966 -12.60571,-5.97212 -16.63619,-13.54141 -3.06165,-5.74983 -2.09939,-11.851 3.0696,-19.46269 2.2175,-3.2654 5.42831,-6.93149 7.13514,-8.14686 2.73871,-1.95014 3.87231,-2.13099 9.64825,-1.53922 8.06279,0.82605 11.9223,2.38098 15.97893,6.43761 6.64456,6.64456 6.95346,24.35564 0.54824,31.43333 -3.50114,3.86872 -13.715,6.36179 -19.74397,4.81924 z M 262,465.06953 c -9.31365,-2.51385 -15.89521,-5.93742 -23.68235,-12.31898 -19.79356,-16.22081 -29.31698,-36.37861 -29.31748,-62.05498 -3.3e-4,-16.97313 7.62851,-41.55926 16.50607,-53.19557 7.47284,-9.79506 18.89108,-21.62853 25.52639,-26.45464 14.62881,-10.6401 25.6908,-14.3827 47.54191,-16.08485 16.66558,-1.29821 24.05851,-0.19373 34.71686,5.18659 17.01744,8.59037 28.84956,22.33188 35.17289,40.84882 l 2.21828,6.49593 1.30771,-3.99593 c 5.22167,-15.95561 16.42586,-31.00912 29.1207,-39.12542 10.95064,-7.00117 17.96398,-9.32016 30.38902,-10.04825 20.55917,-1.20475 39.68156,3.53259 55.43383,13.73306 9.64913,6.24835 14.21038,10.51314 23.47016,21.94469 15.11291,18.65746 22.04608,42.47715 20.3955,70.07104 -0.9441,15.78306 -2.1807,21.53745 -6.60251,30.72399 -2.65776,5.52163 -5.6873,9.59475 -11.64468,15.65589 -8.54533,8.69418 -15.96742,13.61411 -26.5523,17.60087 -5.97965,2.25222 -7.86093,2.44597 -23.5,2.42024 -15.02507,-0.0247 -17.87129,-0.30189 -24.5,-2.38588 -19.15876,-6.02329 -40.10833,-22.24539 -51.12239,-39.58615 -4.81437,-7.57984 -11.47543,-21.30627 -13.46631,-27.75 -0.9771,-3.1625 -2.03701,-5.75 -2.35536,-5.75 -0.31834,0 -1.60472,3.57879 -2.85862,7.95287 -1.2539,4.37408 -4.34137,11.67988 -6.86104,16.23513 -14.93489,27.00028 -36.51686,44.55933 -61.33628,49.90307 -11.18833,2.40891 -29.03284,2.39879 -38,-0.0215 z m 35.27773,-4.55818 c 24.0498,-4.60203 45.85627,-22.03005 59.66785,-47.68733 4.0007,-7.43196 7.46224,-17.45461 10.55694,-30.56688 3.24228,-13.73761 -0.33413,-34.29356 -8.83095,-50.75714 -8.15319,-15.79775 -22.54258,-27.17971 -39.26393,-31.05765 -5.58791,-1.29592 -8.7984,-1.36309 -20.75893,-0.43427 -30.81945,2.39334 -46.13197,11.28997 -68.3947,39.73757 -5.54615,7.08695 -9.75581,16.31774 -13.02292,28.55619 -2.31035,8.65444 -2.71906,12.166 -2.70003,23.19816 0.0258,14.97534 1.51348,21.8602 7.23854,33.5 5.47865,11.13881 19.34722,25.38128 30.23317,31.04825 10.90946,5.67922 29.39613,7.50159 45.27496,4.4631 z M 315.5,397.09254 c -4.25309,-1.85822 -7,-6.03897 -7,-10.65387 0,-3.63631 0.56755,-4.96776 3.26923,-7.66944 2.7153,-2.7153 4.02519,-3.26923 7.73077,-3.26923 3.70558,0 5.01547,0.55393 7.73077,3.26923 2.7153,2.7153 3.26923,4.02519 3.26923,7.73077 0,3.64005 -0.56151,5.02305 -3.04958,7.51112 -3.24435,3.24435 -8.48477,4.59559 -11.95042,3.08142 z M 479,460.93389 c 2.475,-0.55947 8.325,-2.89127 13,-5.18176 15.36047,-7.52581 28.69212,-23.70463 31.93249,-38.75213 1.9108,-8.87335 2.49902,-28.87455 1.15271,-39.19585 C 522.90905,361.12097 516.59597,345.622 507.24279,334 c -16.95158,-21.06353 -34.22141,-31.20996 -58.17482,-34.17907 -9.85138,-1.22112 -24.48632,-0.48635 -31.12958,1.56289 -5.22064,1.61041 -17.07689,8.55847 -21.28053,12.47092 -4.80222,4.46957 -12.25428,14.36126 -15.15982,20.12278 -5.72317,11.34873 -6.71359,15.61261 -7.24238,31.17948 -0.46591,13.71603 -0.32595,15.25681 2.18021,24 2.84721,9.93297 9.17207,24.10274 14.43424,32.33739 4.87935,7.63561 16.34512,19.77544 23.34648,24.719 11.97913,8.45831 20.22889,12.18825 32.78341,14.82228 5.32232,1.11667 26.91361,1.04799 32,-0.10178 z m -68.8794,-64.59527 c -4.59116,-2.32828 -6.71801,-7.40129 -5.21132,-12.43017 2.84338,-9.49035 16.98471,-10.19309 20.81154,-1.0342 3.94708,9.4467 -6.21963,18.22148 -15.60022,13.46437 z M 90.009303,336 c 10.360007,-16.12383 28.883457,-52.97206 42.470347,-84.48519 8.76799,-20.33626 12.49318,-27.46152 24.58006,-47.01481 22.85674,-36.97599 33.36152,-47.04229 54.23947,-51.97544 20.02684,-4.73205 27.17481,-5.16561 44.42559,-2.69464 16.95853,2.42911 28.85042,5.79226 36.56504,10.34096 10.22727,6.03021 36.88637,18.90291 44.46733,21.47163 11.91627,4.03769 31.94644,5.06713 45.36927,2.33173 15.50578,-3.15988 35.41841,-11.93196 54.36106,-23.94761 12.60137,-7.99327 16.63595,-8.76255 49.73271,-9.48262 36.82978,-0.80129 37.4376,-0.622 57.48321,16.95599 6.09579,5.34539 25.70157,29.50396 30.70028,37.8294 24.78469,41.27928 36.40903,62.53489 38.67893,70.7261 3.11435,11.23853 17.4412,38.09991 30.86148,57.86215 3.88855,5.72615 11.23151,13.08235 13.0588,13.08235 1.39396,0 1.25687,-37.38725 -0.15583,-42.5 -0.60788,-2.2 -1.31631,-6.67074 -1.57429,-9.93497 -0.25798,-3.26424 -1.04817,-6.86424 -1.75599,-8 -0.70781,-1.13577 -1.58513,-4.54003 -1.9496,-7.56503 -0.36446,-3.025 -1.04153,-6.85 -1.50459,-8.5 -1.93221,-6.88491 -5.32395,-17.2034 -6.57409,-20 -0.73759,-1.65 -2.11307,-5.7 -3.05662,-9 -2.45935,-8.60142 -11.34376,-27.8334 -13.85881,-30 -0.63846,-0.55 -2.83075,-4.375 -4.87176,-8.5 -4.59723,-9.29125 -6.8148,-12.876 -12.68155,-20.5 -2.53938,-3.3 -5.44158,-7.31159 -6.44933,-8.91463 -2.04942,-3.26007 -2.97531,-4.3242 -20.52129,-23.58537 -2.2546,-2.475 -7.35049,-7.78959 -11.3242,-11.8102 -3.97371,-4.02061 -7.59878,-7.69676 -8.0557,-8.16923 -3.9614,-4.09617 -7.29752,-7.11473 -11.62735,-10.52057 -2.79686,-2.2 -6.76295,-5.36741 -8.81354,-7.03869 -2.05059,-1.67128 -6.40573,-4.82128 -9.67809,-7 -3.27236,-2.17872 -6.64736,-4.5622 -7.5,-5.29662 -2.59755,-2.237413 -12.14308,-7.877575 -19.81288,-11.70683 -3.99444,-1.994284 -7.81944,-4.160014 -8.5,-4.812734 C 494.99989,81.978709 476.42047,73.630013 471,72.079989 468.525,71.372244 464.68496,70.164715 462.46657,69.39659 460.24818,68.628466 457.27953,68 455.86958,68 454.45962,68 452.26831,67.1 451,66 c -1.26831,-1.1 -3.48704,-2 -4.9305,-2 -1.44347,0 -3.51317,-0.622455 -4.59933,-1.383234 -2.20742,-1.546138 -12.37452,-3.535049 -22.97017,-4.493475 -3.85,-0.348251 -7.675,-1.080957 -8.5,-1.628237 -1.21793,-0.807937 -21.54323,-2.168828 -39,-2.611264 -8.86633,-0.224715 -38.86125,1.971586 -40.75303,2.984036 -1.16352,0.622696 -5.40757,1.142909 -9.43123,1.156031 -4.02366,0.01312 -9.11574,0.500127 -11.31574,1.082235 -2.2,0.582109 -6.80867,1.453492 -10.24149,1.936407 -3.43282,0.482915 -7.11574,1.345909 -8.18426,1.917764 C 290.00573,63.532118 288.04575,64 286.71875,64 c -1.327,0 -3.45044,0.9 -4.71875,2 -1.26831,1.1 -3.69967,2.015946 -5.40301,2.035435 C 274.89365,68.054925 272.375,68.713979 271,69.5 c -1.375,0.786021 -3.28688,1.445075 -4.24863,1.464565 -0.96175,0.01949 -5.91175,1.869057 -11,4.11015 -13.10091,5.770222 -15.85553,7.14099 -19.25137,9.579934 -1.65,1.185056 -8.4,4.95699 -15,8.382075 -6.6,3.425085 -12.45,6.73258 -13,7.349986 -0.55,0.61741 -3.7,2.91733 -7,5.11094 -3.3,2.19362 -7.07386,5.00403 -8.38636,6.24537 -1.3125,1.24134 -2.75998,2.25698 -3.21662,2.25698 -0.91536,0 -9.95814,7.42516 -13.89702,11.41104 -1.375,1.39141 -4.9681,4.90564 -7.98466,7.8094 -6.54517,6.30042 -9.89367,9.75795 -16.37986,16.91324 -2.67548,2.95147 -6.32708,6.94132 -8.11465,8.86632 -1.78758,1.925 -4.08341,4.96308 -5.10185,6.75128 -1.01844,1.78821 -2.55698,3.47513 -3.41898,3.74872 -0.862,0.27359 -2.39974,1.96051 -3.41721,3.74872 -1.01747,1.7882 -3.75185,5.72628 -6.07639,8.75128 -2.32454,3.025 -4.52883,6.46233 -4.89842,7.63851 -0.36959,1.17618 -1.79406,3.34925 -3.16549,4.82904 -1.37142,1.47979 -3.88255,5.46747 -5.58029,8.86149 -1.69773,3.39403 -3.71575,6.88637 -4.48449,7.76075 -2.41352,2.7452 -11.067307,23.20265 -11.780397,27.84871 -0.374678,2.44118 -1.500926,6.04118 -2.502774,8 -2.496393,4.88098 -4.087642,10.13348 -4.129973,13.6325 -0.01949,1.61095 -0.678544,4.054 -1.464565,5.429 -0.786021,1.375 -1.445075,4.57035 -1.464565,7.10078 -0.01949,2.53042 -0.498173,5.92819 -1.063742,7.55058 -0.565569,1.62239 -1.423313,6.75204 -1.906098,11.39922 C 82.582812,296.69776 81.706286,302.3 81.11776,304.5 80.175996,308.02046 79.44505,352.001 80.346326,350.91667 80.536805,350.6875 84.885145,343.975 90.009303,336 Z"
     id="path4207" />
</svg>
