<?xml version="1.0" encoding="UTF-8" standalone="no"?>
<svg
   xmlns:dc="http://purl.org/dc/elements/1.1/"
   xmlns:cc="http://creativecommons.org/ns#"
   xmlns:rdf="http://www.w3.org/1999/02/22-rdf-syntax-ns#"
   xmlns:svg="http://www.w3.org/2000/svg"
   xmlns="http://www.w3.org/2000/svg"
   xmlns:sodipodi="http://sodipodi.sourceforge.net/DTD/sodipodi-0.dtd"
   xmlns:inkscape="http://www.inkscape.org/namespaces/inkscape"
   version="1.1"
   width="10.094cm"
   height="5.69722cm"
   viewBox="0 0 39740 22430 "
   id="svg19908"
   inkscape:version="0.91+devel+osxmenu r12922"
   sodipodi:docname="PowerBoxBottom2.svg">
  <metadata
     id="metadata22530">
    <rdf:RDF>
      <cc:Work
         rdf:about="">
        <dc:format>image/svg+xml</dc:format>
        <dc:type
           rdf:resource="http://purl.org/dc/dcmitype/StillImage" />
        <dc:title>SVG Picture created as PowerBox-brd.svg date 2015/08/03 18:50:34 </dc:title>
      </cc:Work>
    </rdf:RDF>
  </metadata>
  <defs
     id="defs22528" />
  <sodipodi:namedview
     pagecolor="#ffffff"
     bordercolor="#666666"
     borderopacity="1"
     objecttolerance="10"
     gridtolerance="10"
     guidetolerance="10"
     inkscape:pageopacity="0"
     inkscape:pageshadow="2"
     inkscape:window-width="1255"
     inkscape:window-height="793"
     id="namedview22526"
     showgrid="false"
     inkscape:zoom="2.0455571"
     inkscape:cx="191.24327"
     inkscape:cy="110.75966"
     inkscape:window-x="0"
     inkscape:window-y="23"
     inkscape:window-maximized="0"
     inkscape:current-layer="svg19908" />
  <title
     id="title19910">SVG Picture created as PowerBox-brd.svg date 2015/08/03 18:50:34 </title>
  <desc
     id="desc19912">Picture generated by PCBNEW </desc>
  <g
     style="fill:#000000; fill-opacity:1;stroke:#000000; stroke-opacity:1; stroke-linecap:round; stroke-linejoin:round; "
     transform="translate(0 0) scale(1 1)"
     id="g19914" />
  <g
     style="fill:#840084; fill-opacity:0.0;  stroke:#840084; stroke-width:59.0551; stroke-opacity:1;  stroke-linecap:round; stroke-linejoin:round;"
     id="g20376">
    <path
       d="M33934 7919 L32984 7919 "
       id="path20378" />
    <path
       d="M32984 7919 L32984 13819 "
       id="path20380" />
    <path
       d="M32984 13819 L33934 13819 "
       id="path20382" />
  </g>
  <g
     style="fill:#840084; fill-opacity:0.0;  stroke:#840084; stroke-width:59.0551; stroke-opacity:1;  stroke-linecap:round; stroke-linejoin:round;"
     id="g20510">
    <path
       d="M13634 18019 L6634 18019 "
       id="path20512" />
    <path
       d="M13634 3719 L6634 3719 "
       id="path20514" />
    <path
       d="M6634.8 3719.69 A1000 1000 0.0 0 0 5634.8 4719.69 "
       id="path20516" />
    <path
       d="M14634.8 4719.69 A1000 1000 0.0 0 0 13634.8 3719.69 "
       id="path20518" />
    <path
       d="M5634.8 17019.7 A1000 1000 0.0 0 0 6634.8 18019.7 "
       id="path20520" />
    <path
       d="M13634.8 18019.7 A1000 1000 0.0 0 0 14634.8 17019.7 "
       id="path20522" />
    <path
       d="M5634 4719 L5634 16969 "
       id="path20524" />
    <path
       d="M14634 4719 L14634 17019 "
       id="path20526" />
  </g>
  <g
     style="fill:#840084; fill-opacity:0.0;  stroke:#840084; stroke-width:50; stroke-opacity:1;  stroke-linecap:round; stroke-linejoin:round;"
     id="g21732">
    <path
       d="M3165 14988 L3165 15973 "
       id="path21734" />
    <path
       d="M3165 15973 L2968 15973 "
       id="path21736" />
    <path
       d="M2968 15973 L2968 16365 "
       id="path21738" />
    <path
       d="M2968 16365 L3165 16365 "
       id="path21740" />
    <path
       d="M3165 16365 L3165 17350 "
       id="path21742" />
    <path
       d="M3165 17350 L4936 17350 "
       id="path21744" />
    <path
       d="M4936 17350 L4936 14988 "
       id="path21746" />
    <path
       d="M4936 14988 L3165 14988 "
       id="path21748" />
  </g>
  <g
     style="fill:#000084; fill-opacity:0.0;  stroke:#000084; stroke-width:150; stroke-opacity:1;  stroke-linecap:round; stroke-linejoin:round;"
     id="g22498">
    <circle
       cx="5134.8"
       cy="19069.7"
       r="1181"
       id="circle22500" />
    <circle
       cx="5134.8"
       cy="2669.69"
       r="1181"
       id="circle22502" />
    <circle
       cx="35134.8"
       cy="2669.69"
       r="1181"
       id="circle22504" />
    <circle
       cx="35134.8"
       cy="19069.7"
       r="1181"
       id="circle22506" />
  </g>
  <g
     style="fill:#C2C200; fill-opacity:0.0;  stroke:#C2C200; stroke-width:39.3701; stroke-opacity:1;  stroke-linecap:round; stroke-linejoin:round;"
     id="g22508">
    <path
       d="M7384.8 19.6854 A5000 5000 0.0 0 0 2384.8 5019.69 "
       id="path22510" />
    <path
       d="M7384 21669 L32834 21669 "
       id="path22512" />
    <path
       d="M7384 19 L32834 19 "
       id="path22514" />
    <path
       d="M37834 5019 L37834 16669 "
       id="path22516" />
    <path
       d="M2384 5019 L2384 16669 "
       id="path22518" />
    <path
       d="M37834.8 5019.69 A5000 5000 0.0 0 0 32834.8 19.6854 "
       id="path22520" />
    <path
       d="M32834.8 21669.7 A5000 5000 0.0 0 0 37834.8 16669.7 "
       id="path22522" />
    <path
       d="M2384.8 16669.7 A5000 5000 0.0 0 0 7384.8 21669.7 "
       id="path22524" />
  </g>
</svg>
