<?xml version="1.0" encoding="UTF-8" standalone="no"?>
<svg
   xmlns:dc="http://purl.org/dc/elements/1.1/"
   xmlns:cc="http://creativecommons.org/ns#"
   xmlns:rdf="http://www.w3.org/1999/02/22-rdf-syntax-ns#"
   xmlns:svg="http://www.w3.org/2000/svg"
   xmlns="http://www.w3.org/2000/svg"
   xmlns:sodipodi="http://sodipodi.sourceforge.net/DTD/sodipodi-0.dtd"
   xmlns:inkscape="http://www.inkscape.org/namespaces/inkscape"
   version="1.1"
   width="10.094cm"
   height="5.69722cm"
   viewBox="0 0 39740 22430 "
   id="svg19908"
   inkscape:version="0.91+devel+osxmenu r12922"
   sodipodi:docname="PowerBoxBottom2.svg">
  <metadata
     id="metadata22530">
    <rdf:RDF>
      <cc:Work
         rdf:about="">
        <dc:format>image/svg+xml</dc:format>
        <dc:type
           rdf:resource="http://purl.org/dc/dcmitype/StillImage" />
        <dc:title>SVG Picture created as PowerBox-brd.svg date 2015/08/03 18:50:34 </dc:title>
      </cc:Work>
    </rdf:RDF>
  </metadata>
  <defs
     id="defs22528" />
  <sodipodi:namedview
     pagecolor="#ffffff"
     bordercolor="#666666"
     borderopacity="1"
     objecttolerance="10"
     gridtolerance="10"
     guidetolerance="10"
     inkscape:pageopacity="0"
     inkscape:pageshadow="2"
     inkscape:window-width="1418"
     inkscape:window-height="793"
     id="namedview22526"
     showgrid="false"
     inkscape:zoom="2.3721807"
     inkscape:cx="190.75275"
     inkscape:cy="107.664"
     inkscape:window-x="0"
     inkscape:window-y="23"
     inkscape:window-maximized="0"
     inkscape:current-layer="svg19908" />
  <title
     id="title19910">SVG Picture created as PowerBox-brd.svg date 2015/08/03 18:50:34 </title>
  <desc
     id="desc19912">Picture generated by PCBNEW </desc>
  <g
     style="fill:#000000; fill-opacity:1;stroke:#000000; stroke-opacity:1; stroke-linecap:round; stroke-linejoin:round; "
     transform="translate(0 0) scale(1 1)"
     id="g19914" />
  <g
     style="fill:#840084; fill-opacity:0.0;  stroke:#840084; stroke-width:59.0551; stroke-opacity:1;  stroke-linecap:round; stroke-linejoin:round;"
     id="g20510">
    <path
       d="M13634 18019 L6634 18019 "
       id="path20512" />
    <path
       d="M13634 3719 L6634 3719 "
       id="path20514" />
    <path
       d="M6634.8 3719.69 A1000 1000 0.0 0 0 5634.8 4719.69 "
       id="path20516" />
    <path
       d="M14634.8 4719.69 A1000 1000 0.0 0 0 13634.8 3719.69 "
       id="path20518" />
    <path
       d="M5634.8 17019.7 A1000 1000 0.0 0 0 6634.8 18019.7 "
       id="path20520" />
    <path
       d="M13634.8 18019.7 A1000 1000 0.0 0 0 14634.8 17019.7 "
       id="path20522" />
    <path
       d="M5634 4719 L5634 16969 "
       id="path20524" />
    <path
       d="M14634 4719 L14634 17019 "
       id="path20526" />
  </g>
  <g
     style="fill:#C2C200; fill-opacity:0.0;  stroke:#C2C200; stroke-width:39.3701; stroke-opacity:1;  stroke-linecap:round; stroke-linejoin:round;"
     id="g22508">
    <path
       d="M7384.8 19.6854 A5000 5000 0.0 0 0 2384.8 5019.69 "
       id="path22510" />
    <path
       d="M7384 21669 L32834 21669 "
       id="path22512" />
    <path
       d="M7384 19 L32834 19 "
       id="path22514" />
    <path
       d="M37834 5019 L37834 16669 "
       id="path22516" />
    <path
       d="M2384 5019 L2384 16669 "
       id="path22518" />
    <path
       d="M37834.8 5019.69 A5000 5000 0.0 0 0 32834.8 19.6854 "
       id="path22520" />
    <path
       d="M32834.8 21669.7 A5000 5000 0.0 0 0 37834.8 16669.7 "
       id="path22522" />
    <path
       d="M2384.8 16669.7 A5000 5000 0.0 0 0 7384.8 21669.7 "
       id="path22524" />
  </g>
  <path
     sodipodi:type="star"
     style="fill:none;stroke:#000000;stroke-width:54.04990387;stroke-miterlimit:4;stroke-dasharray:none;stroke-opacity:1"
     id="path23407"
     sodipodi:sides="6"
     sodipodi:cx="35134.801"
     sodipodi:cy="19069.699"
     sodipodi:r1="1196.2295"
     sodipodi:r2="1035.9648"
     sodipodi:arg1="0"
     sodipodi:arg2="0"
     inkscape:flatsided="true"
     inkscape:rounded="0"
     inkscape:randomized="0"
     d="m 36331.03,19069.699 -598.114,1035.965 -1196.23,0 -598.115,-1035.965 598.115,-1035.965 1196.23,0 z"
     transform="rotate(30,35134.801,19069.699)" />
  <path
     sodipodi:type="star"
     style="fill:none;stroke:#000000;stroke-width:54.04990768;stroke-miterlimit:4;stroke-dasharray:none;stroke-opacity:1"
     id="path23407-2"
     sodipodi:sides="6"
     sodipodi:cx="5134.7998"
     sodipodi:cy="2669.6899"
     sodipodi:r1="1196.2296"
     sodipodi:r2="1035.965"
     sodipodi:arg1="0"
     sodipodi:arg2="0"
     inkscape:flatsided="true"
     inkscape:rounded="0"
     inkscape:randomized="0"
     d="m 6331.0294,2669.6899 -598.1148,1035.9653 -1196.2296,0 -598.1148,-1035.9653 598.1148,-1035.9652 1196.2296,0 z"
     transform="rotate(30,5134.7998,2669.6899)" />
  <path
     sodipodi:type="star"
     style="fill:none;stroke:#000000;stroke-width:54.04990768;stroke-miterlimit:4;stroke-dasharray:none;stroke-opacity:1"
     id="path23407-29"
     sodipodi:sides="6"
     sodipodi:cx="35134.801"
     sodipodi:cy="2669.6899"
     sodipodi:r1="1196.2296"
     sodipodi:r2="1035.965"
     sodipodi:arg1="0"
     sodipodi:arg2="0"
     inkscape:flatsided="true"
     inkscape:rounded="0"
     inkscape:randomized="0"
     d="m 36331.03,2669.6899 -598.114,1035.9653 -1196.23,0 -598.115,-1035.9653 598.115,-1035.9652 1196.23,0 z"
     transform="rotate(30,35134.801,2669.6899)" />
  <path
     sodipodi:type="star"
     style="fill:none;stroke:#000000;stroke-width:54.04990768;stroke-miterlimit:4;stroke-dasharray:none;stroke-opacity:1"
     id="path23407-5"
     sodipodi:sides="6"
     sodipodi:cx="5134.7998"
     sodipodi:cy="19069.699"
     sodipodi:r1="1196.2296"
     sodipodi:r2="1035.965"
     sodipodi:arg1="0"
     sodipodi:arg2="0"
     inkscape:flatsided="true"
     inkscape:rounded="0"
     inkscape:randomized="0"
     d="m 6331.0294,19069.699 -598.1148,1035.965 -1196.2296,0 -598.1148,-1035.965 598.1148,-1035.965 1196.2296,0 z"
     transform="rotate(30,5134.7998,19069.699)" />
  <rect
     style="fill:none;stroke:#000000;stroke-width:59.1929512;stroke-miterlimit:4;stroke-dasharray:none;stroke-opacity:1"
     id="rect23405-5"
     width="24604.334"
     height="1169.5564"
     x="7792.5923"
     y="19.6854" />
  <rect
     style="fill:none;stroke:#000000;stroke-width:55.8449173;stroke-miterlimit:4;stroke-dasharray:none;stroke-opacity:1"
     id="rect23405-5-6"
     width="24604.338"
     height="1040.9946"
     x="7800"
     y="20627.408" />
  <rect
     style="fill:none;stroke:#000000;stroke-width:49.62712097;stroke-miterlimit:4;stroke-dasharray:none;stroke-opacity:1"
     id="rect23405-5-6-3"
     width="19430.432"
     height="1040.9948"
     x="1189.2418"
     y="-33437.922"
     transform="rotate(90)" />
  <rect
     style="fill:none;stroke:#000000;stroke-width:49.6271286;stroke-miterlimit:4;stroke-dasharray:none;stroke-opacity:1"
     id="rect23405-5-6-3-3"
     width="19430.436"
     height="1040.9949"
     x="1189.2418"
     y="-7792.5923"
     transform="rotate(90)" />
</svg>
