M48
INCH,TZ
T1C0.024
T2C0.025
T3C0.031
T4C0.040
T5C0.079
T6C0.118
%
G90
G05
T1
X54120Y-52104
X54435Y-51396
X54750Y-52104
X55065Y-51396
X55380Y-52104
T2
X30550Y-34650
X31900Y-34800
X32000Y-35300
X32400Y-45600
X32600Y-26200
X32800Y-34100
X33000Y-39700
X33200Y-36150
X33400Y-33900
X33500Y-38400
X33600Y-34900
X33700Y-37900
X33950Y-38900
X34000Y-31100
X34300Y-26600
X34500Y-35200
X34600Y-51400
X35200Y-50600
X35350Y-29500
X35800Y-51400
X36300Y-25600
X37300Y-28500
X38500Y-27600
X38600Y-51400
X39200Y-50600
X39400Y-29900
X39500Y-25400
X39800Y-51400
X41300Y-28300
X42400Y-52500
X42900Y-32000
X43400Y-52500
X44400Y-52500
X45300Y-31600
X45300Y-32100
X45400Y-52500
X46400Y-27100
X46400Y-52500
X46800Y-29000
X46900Y-33300
X47400Y-26800
X47400Y-52500
X47500Y-29900
X47500Y-30700
X48000Y-29500
X48000Y-30300
X48000Y-31100
X48100Y-33200
X48300Y-31700
X48400Y-52500
X48500Y-25800
X48600Y-33200
X48900Y-28700
X49100Y-27400
X49300Y-30900
X49400Y-52500
X49500Y-24800
X49800Y-30700
X49900Y-27400
X49900Y-28700
X49900Y-31900
X50000Y-22800
X50300Y-28000
X51200Y-28700
X51300Y-31300
X51500Y-33100
X51700Y-25400
X51700Y-25900
X51700Y-31700
X52100Y-31000
X52400Y-24500
X52600Y-31000
X52900Y-25400
X52900Y-25900
X53300Y-27600
X53300Y-33200
X55100Y-30000
X55800Y-28300
X55800Y-30500
X55800Y-32600
X56900Y-34300
X57000Y-22800
X58900Y-50200
X59300Y-32100
X59300Y-33700
X59700Y-33200
X60100Y-30000
X60500Y-34300
X61100Y-26100
X61400Y-30700
X61400Y-47900
X61400Y-48500
X61400Y-49000
X61400Y-49800
X62200Y-27800
X63000Y-48800
X63600Y-33700
X63600Y-49200
X63700Y-29400
X63700Y-36300
X63900Y-33200
X64300Y-48300
X64300Y-50300
X64400Y-33700
X64900Y-30700
X65800Y-30700
X65800Y-32700
X65800Y-49700
X65800Y-50600
X66200Y-28700
X66200Y-36300
X66300Y-50300
X67900Y-47100
T3
X36649Y-35227
X37649Y-35227
X38649Y-35227
X39649Y-35227
X40649Y-35227
X41649Y-35227
X42649Y-35227
X43649Y-35227
X44649Y-35227
X45649Y-35227
X46649Y-35227
X47649Y-35227
X48649Y-35227
X49649Y-35227
X50649Y-35227
X51649Y-35227
T4
X30050Y-27150
X30050Y-28150
X30050Y-29150
X30050Y-30150
X30050Y-31150
X30050Y-32150
X30050Y-33150
X30050Y-34150
X30050Y-35150
X30050Y-36150
X30050Y-37150
X30050Y-38150
X30050Y-39150
X30050Y-40150
X30050Y-41150
X30050Y-42150
X30050Y-43150
X30050Y-44150
X30050Y-45150
X30050Y-46150
X31050Y-27150
X31050Y-28150
X31050Y-29150
X31050Y-30150
X31050Y-31150
X31050Y-32150
X31050Y-33150
X31050Y-34150
X31050Y-35150
X31050Y-36150
X31050Y-37150
X31050Y-38150
X31050Y-39150
X31050Y-40150
X31050Y-41150
X31050Y-42150
X31050Y-43150
X31050Y-44150
X31050Y-45150
X31050Y-46150
X31100Y-48500
X32100Y-48500
X33000Y-27150
X33000Y-28150
X33000Y-29150
X33000Y-30150
X33000Y-43150
X33000Y-44150
X33000Y-45150
X33000Y-46150
X33800Y-22800
X33800Y-23800
X33800Y-24800
X33920Y-50610
X33920Y-52390
X34800Y-22800
X34800Y-23800
X34800Y-24800
X35200Y-48500
X35200Y-49500
X36480Y-50610
X36480Y-52390
X37920Y-50610
X37920Y-52390
X38500Y-22300
X38500Y-23300
X39200Y-48500
X39200Y-49500
X39500Y-22300
X39500Y-23300
X40020Y-26710
X40020Y-28490
X40480Y-50610
X40480Y-52390
X40500Y-22300
X40500Y-23300
X41500Y-22300
X41500Y-23300
X42400Y-48500
X42400Y-49500
X42500Y-22300
X42500Y-23300
X42580Y-26710
X42580Y-28490
X43400Y-48500
X43400Y-49500
X43500Y-22300
X43500Y-23300
X44400Y-48500
X44400Y-49500
X44500Y-22300
X44500Y-23300
X45400Y-48500
X45400Y-49500
X45500Y-22300
X45500Y-23300
X46400Y-48500
X46400Y-49500
X46500Y-22300
X46500Y-23300
X47400Y-48500
X47400Y-49500
X47500Y-22300
X47500Y-23300
X48400Y-48500
X48400Y-49500
X48500Y-22300
X48500Y-23300
X49400Y-48500
X49400Y-49500
X49500Y-22300
X49500Y-23300
X50500Y-22300
X50500Y-23300
X51500Y-22300
X51500Y-23300
X52500Y-22300
X52500Y-23300
X53250Y-50000
X53500Y-22300
X53500Y-23300
X53800Y-48500
X54250Y-50000
X54500Y-22300
X54500Y-23300
X54800Y-48500
X55250Y-50000
X55500Y-22300
X55500Y-23300
X55800Y-48500
X56250Y-50000
X56500Y-22300
X56500Y-23300
X57500Y-22300
X57500Y-23300
X57500Y-26900
X58500Y-22300
X58500Y-23300
X58500Y-26900
X59500Y-22300
X59500Y-23300
X60500Y-22300
X60500Y-23300
X63000Y-22800
X63000Y-23800
X63000Y-24800
X64000Y-22800
X64000Y-23800
X64000Y-24800
X67100Y-27150
X67100Y-28150
X67100Y-29150
X67100Y-30150
X67100Y-31150
X67100Y-32150
X67100Y-33150
X67100Y-34150
X67100Y-35150
X67100Y-36150
X67100Y-37150
X67100Y-38150
X67100Y-39150
X67100Y-40150
X67100Y-41150
X67100Y-42150
X67100Y-43150
X67100Y-44150
X67100Y-45150
X67100Y-46150
X68100Y-27150
X68100Y-28150
X68100Y-29150
X68100Y-30150
X68100Y-31150
X68100Y-32150
X68100Y-33150
X68100Y-34150
X68100Y-35150
X68100Y-36150
X68100Y-37150
X68100Y-38150
X68100Y-39150
X68100Y-40150
X68100Y-41150
X68100Y-42150
X68100Y-43150
X68100Y-44150
X68100Y-45150
X68100Y-46150
T5
X53096Y-51750
X56404Y-51750
T6
X30650Y-23000
X30650Y-52000
X67500Y-23000
X67500Y-52000
T4
X37500Y-22300G85X37500Y-22300
G05
X37500Y-23300G85X37500Y-23300
G05
T0
M30
