%FSLAX34Y34*%
G04 Gerber Fmt 3.4, Leading zero omitted, Abs format*
G04 (created by PCBNEW (2014-02-26 BZR 4721)-product) date Donnerstag, 25. Dezember 2014 16:09:47*
%MOIN*%
G01*
G70*
G90*
G04 APERTURE LIST*
%ADD10C,0.005906*%
%ADD11R,0.055100X0.043300*%
%ADD12C,0.051181*%
%ADD13C,0.125984*%
%ADD14R,0.047200X0.047200*%
%ADD15R,0.063000X0.086600*%
%ADD16R,0.086600X0.063000*%
%ADD17R,0.145700X0.070900*%
%ADD18R,0.024000X0.086900*%
%ADD19C,0.080000*%
%ADD20O,0.080000X0.080000*%
%ADD21C,0.068000*%
%ADD22O,0.068000X0.068000*%
%ADD23R,0.031500X0.039400*%
%ADD24R,0.039400X0.031500*%
%ADD25R,0.043300X0.055100*%
%ADD26C,0.074000*%
%ADD27R,0.080000X0.026000*%
%ADD28R,0.060000X0.016000*%
%ADD29R,0.016000X0.060000*%
%ADD30R,0.076000X0.210000*%
%ADD31R,0.065000X0.016000*%
%ADD32O,0.051400X0.102900*%
G04 APERTURE END LIST*
G54D10*
G54D11*
X53300Y-31807D03*
X53300Y-32593D03*
X40100Y-29907D03*
X40100Y-30693D03*
X53300Y-28993D03*
X53300Y-28207D03*
X41300Y-29907D03*
X41300Y-30693D03*
X42600Y-30693D03*
X42600Y-29907D03*
X63000Y-28293D03*
X63000Y-27507D03*
X64000Y-28293D03*
X64000Y-27507D03*
G54D12*
X54120Y-52104D03*
X54435Y-51395D03*
X54750Y-52104D03*
X55064Y-51395D03*
X55379Y-52104D03*
G54D13*
X56403Y-51750D03*
X53096Y-51750D03*
G54D14*
X42400Y-51187D03*
X42400Y-52013D03*
X43400Y-51187D03*
X43400Y-52013D03*
X44400Y-51187D03*
X44400Y-52013D03*
X45400Y-51187D03*
X45400Y-52013D03*
X46400Y-51187D03*
X46400Y-52013D03*
X47400Y-51187D03*
X47400Y-52013D03*
X48400Y-51187D03*
X48400Y-52013D03*
X49400Y-51187D03*
X49400Y-52013D03*
G54D15*
X38048Y-28500D03*
X36552Y-28500D03*
G54D16*
X61100Y-29952D03*
X61100Y-31448D03*
X61100Y-26852D03*
X61100Y-28348D03*
G54D14*
X57613Y-30900D03*
X56787Y-30900D03*
X57613Y-30000D03*
X56787Y-30000D03*
X47500Y-25287D03*
X47500Y-26113D03*
X57613Y-28300D03*
X56787Y-28300D03*
G54D17*
X67600Y-49407D03*
X67600Y-47793D03*
G54D18*
X64350Y-31730D03*
X64850Y-31730D03*
X65350Y-31730D03*
X65850Y-31730D03*
X65850Y-29670D03*
X65350Y-29670D03*
X64850Y-29670D03*
X64350Y-29670D03*
G54D19*
X33800Y-23800D03*
G54D20*
X34800Y-23800D03*
G54D19*
X34800Y-22800D03*
G54D20*
X33800Y-22800D03*
G54D19*
X35200Y-49500D03*
G54D20*
X35200Y-48500D03*
G54D19*
X39200Y-49500D03*
G54D20*
X39200Y-48500D03*
G54D19*
X42400Y-48500D03*
G54D20*
X42400Y-49500D03*
G54D19*
X43400Y-48500D03*
G54D20*
X43400Y-49500D03*
G54D19*
X44400Y-48500D03*
G54D20*
X44400Y-49500D03*
G54D19*
X45400Y-48500D03*
G54D20*
X45400Y-49500D03*
G54D19*
X46400Y-48500D03*
G54D20*
X46400Y-49500D03*
G54D19*
X47400Y-48500D03*
G54D20*
X47400Y-49500D03*
G54D19*
X48400Y-48500D03*
G54D20*
X48400Y-49500D03*
G54D19*
X49400Y-48500D03*
G54D20*
X49400Y-49500D03*
G54D21*
X53800Y-48500D03*
X54800Y-48500D03*
X55800Y-48500D03*
G54D19*
X57500Y-26900D03*
G54D20*
X58500Y-26900D03*
G54D19*
X31100Y-48500D03*
G54D20*
X32100Y-48500D03*
G54D21*
X30050Y-27150D03*
G54D22*
X31050Y-27150D03*
X30050Y-28150D03*
X31050Y-28150D03*
X30050Y-29150D03*
X31050Y-29150D03*
X30050Y-30150D03*
X31050Y-30150D03*
X30050Y-31150D03*
X31050Y-31150D03*
X30050Y-32150D03*
X31050Y-32150D03*
X30050Y-33150D03*
X31050Y-33150D03*
X30050Y-34150D03*
X31050Y-34150D03*
X30050Y-35150D03*
X31050Y-35150D03*
X30050Y-36150D03*
X31050Y-36150D03*
X30050Y-37150D03*
X31050Y-37150D03*
X30050Y-38150D03*
X31050Y-38150D03*
X30050Y-39150D03*
X31050Y-39150D03*
X30050Y-40150D03*
X31050Y-40150D03*
X30050Y-41150D03*
X31050Y-41150D03*
X30050Y-42150D03*
X31050Y-42150D03*
X30050Y-43150D03*
X31050Y-43150D03*
X30050Y-44150D03*
X31050Y-44150D03*
X30050Y-45150D03*
X31050Y-45150D03*
X30050Y-46150D03*
X31050Y-46150D03*
G54D21*
X67100Y-27150D03*
G54D22*
X68100Y-27150D03*
X67100Y-28150D03*
X68100Y-28150D03*
X67100Y-29150D03*
X68100Y-29150D03*
X67100Y-30150D03*
X68100Y-30150D03*
X67100Y-31150D03*
X68100Y-31150D03*
X67100Y-32150D03*
X68100Y-32150D03*
X67100Y-33150D03*
X68100Y-33150D03*
X67100Y-34150D03*
X68100Y-34150D03*
X67100Y-35150D03*
X68100Y-35150D03*
X67100Y-36150D03*
X68100Y-36150D03*
X67100Y-37150D03*
X68100Y-37150D03*
X67100Y-38150D03*
X68100Y-38150D03*
X67100Y-39150D03*
X68100Y-39150D03*
X67100Y-40150D03*
X68100Y-40150D03*
X67100Y-41150D03*
X68100Y-41150D03*
X67100Y-42150D03*
X68100Y-42150D03*
X67100Y-43150D03*
X68100Y-43150D03*
X67100Y-44150D03*
X68100Y-44150D03*
X67100Y-45150D03*
X68100Y-45150D03*
X67100Y-46150D03*
X68100Y-46150D03*
G54D21*
X56250Y-50000D03*
X55250Y-50000D03*
X54250Y-50000D03*
X53250Y-50000D03*
X37500Y-22300D03*
X38500Y-22300D03*
X39500Y-22300D03*
X40500Y-22300D03*
X41500Y-22300D03*
X42500Y-22300D03*
X43500Y-22300D03*
X44500Y-22300D03*
X45500Y-22300D03*
X46500Y-22300D03*
X47500Y-22300D03*
X48500Y-22300D03*
X49500Y-22300D03*
X50500Y-22300D03*
X51500Y-22300D03*
X52500Y-22300D03*
X53500Y-22300D03*
X54500Y-22300D03*
X55500Y-22300D03*
X56500Y-22300D03*
X57500Y-22300D03*
X58500Y-22300D03*
X59500Y-22300D03*
X60500Y-22300D03*
X37500Y-23300D03*
X38500Y-23300D03*
X39500Y-23300D03*
X40500Y-23300D03*
X41500Y-23300D03*
X42500Y-23300D03*
X43500Y-23300D03*
X44500Y-23300D03*
X45500Y-23300D03*
X46500Y-23300D03*
X47500Y-23300D03*
X48500Y-23300D03*
X49500Y-23300D03*
X50500Y-23300D03*
X51500Y-23300D03*
X52500Y-23300D03*
X53500Y-23300D03*
X54500Y-23300D03*
X55500Y-23300D03*
X56500Y-23300D03*
X57500Y-23300D03*
X58500Y-23300D03*
X59500Y-23300D03*
X60500Y-23300D03*
X63000Y-22800D03*
G54D22*
X64000Y-22800D03*
X63000Y-23800D03*
X64000Y-23800D03*
X63000Y-24800D03*
X64000Y-24800D03*
G54D21*
X33000Y-30150D03*
X33000Y-29150D03*
X33000Y-28150D03*
X33000Y-27150D03*
X33000Y-43150D03*
X33000Y-44150D03*
X33000Y-45150D03*
X33000Y-46150D03*
G54D23*
X62700Y-35333D03*
X62325Y-34467D03*
X63075Y-34467D03*
X58400Y-35333D03*
X58025Y-34467D03*
X58775Y-34467D03*
X63000Y-32033D03*
X62625Y-31167D03*
X63375Y-31167D03*
X63000Y-29367D03*
X63375Y-30233D03*
X62625Y-30233D03*
X35400Y-27933D03*
X35025Y-27067D03*
X35775Y-27067D03*
G54D24*
X34333Y-31900D03*
X33467Y-32275D03*
X33467Y-31525D03*
G54D11*
X64000Y-34507D03*
X64000Y-35293D03*
G54D25*
X63093Y-33700D03*
X62307Y-33700D03*
G54D11*
X59700Y-34507D03*
X59700Y-35293D03*
G54D25*
X58793Y-33700D03*
X58007Y-33700D03*
G54D11*
X53300Y-30793D03*
X53300Y-30007D03*
G54D25*
X54607Y-35300D03*
X55393Y-35300D03*
X54607Y-34300D03*
X55393Y-34300D03*
X58507Y-30900D03*
X59293Y-30900D03*
X58507Y-30000D03*
X59293Y-30000D03*
X59293Y-28300D03*
X58507Y-28300D03*
G54D11*
X34200Y-27107D03*
X34200Y-27893D03*
G54D25*
X32807Y-33200D03*
X33593Y-33200D03*
X35793Y-26300D03*
X35007Y-26300D03*
G54D11*
X32700Y-31507D03*
X32700Y-32293D03*
G54D26*
X36480Y-52390D03*
X33920Y-52390D03*
X36480Y-50610D03*
X33920Y-50610D03*
X40480Y-52390D03*
X37920Y-52390D03*
X40480Y-50610D03*
X37920Y-50610D03*
X42580Y-28490D03*
X40020Y-28490D03*
X42580Y-26710D03*
X40020Y-26710D03*
G54D27*
X60510Y-51150D03*
X60510Y-50650D03*
X60510Y-50150D03*
X60510Y-49650D03*
X60510Y-49150D03*
X60510Y-48650D03*
X60510Y-48150D03*
X60510Y-47650D03*
X58090Y-47650D03*
X58090Y-48150D03*
X58090Y-48650D03*
X58090Y-49150D03*
X58090Y-49650D03*
X58090Y-50150D03*
X58090Y-50650D03*
X58090Y-51150D03*
G54D28*
X46050Y-30300D03*
X46050Y-30615D03*
X46050Y-30930D03*
X46050Y-31245D03*
X46050Y-31560D03*
X46050Y-31875D03*
X46050Y-29985D03*
X46050Y-29670D03*
X46050Y-29355D03*
X46050Y-29040D03*
X46050Y-28725D03*
X50550Y-30300D03*
X50550Y-30615D03*
X50550Y-30930D03*
X50550Y-31245D03*
X50550Y-31560D03*
X50550Y-31875D03*
X50550Y-29985D03*
X50550Y-29670D03*
X50550Y-29355D03*
X50550Y-29040D03*
X50550Y-28725D03*
G54D29*
X48300Y-32550D03*
X48300Y-28050D03*
X48615Y-32550D03*
X48615Y-28050D03*
X48930Y-28050D03*
X48930Y-32550D03*
X49245Y-32550D03*
X49245Y-28050D03*
X49560Y-28050D03*
X49560Y-32550D03*
X49875Y-32550D03*
X49875Y-28050D03*
X47985Y-28050D03*
X47985Y-32550D03*
X47670Y-32550D03*
X47670Y-28050D03*
X47355Y-28050D03*
X47355Y-32550D03*
X47040Y-32550D03*
X47040Y-28050D03*
X46725Y-28050D03*
X46725Y-32550D03*
G54D23*
X65400Y-27467D03*
X65775Y-28333D03*
X65025Y-28333D03*
G54D30*
X55000Y-32300D03*
X55000Y-28500D03*
G54D31*
X62183Y-49272D03*
X62183Y-49528D03*
X62183Y-49784D03*
X62183Y-50040D03*
X65017Y-48504D03*
X62183Y-48504D03*
X62183Y-48760D03*
X62183Y-49016D03*
X65017Y-50296D03*
X65017Y-50040D03*
X65017Y-49784D03*
X65017Y-49528D03*
X65017Y-49272D03*
X65017Y-49016D03*
X62183Y-50296D03*
X65017Y-48760D03*
X65017Y-48248D03*
X65017Y-47993D03*
X65017Y-47737D03*
X62183Y-47737D03*
X62183Y-47993D03*
X62183Y-48248D03*
X62183Y-50552D03*
X62183Y-50807D03*
X62183Y-51063D03*
X65017Y-51063D03*
X65017Y-50807D03*
X65017Y-50552D03*
X38717Y-31628D03*
X38717Y-31372D03*
X38717Y-31116D03*
X38717Y-30860D03*
X35883Y-32396D03*
X38717Y-32396D03*
X38717Y-32140D03*
X38717Y-31884D03*
X35883Y-30604D03*
X35883Y-30860D03*
X35883Y-31116D03*
X35883Y-31372D03*
X35883Y-31628D03*
X35883Y-31884D03*
X38717Y-30604D03*
X35883Y-32140D03*
X35883Y-32652D03*
X35883Y-32907D03*
X35883Y-33163D03*
X38717Y-33163D03*
X38717Y-32907D03*
X38717Y-32652D03*
X38717Y-30348D03*
X38717Y-30093D03*
X38717Y-29837D03*
X35883Y-29837D03*
X35883Y-30093D03*
X35883Y-30348D03*
G54D32*
X36649Y-35227D03*
X37649Y-35227D03*
X38649Y-35227D03*
X39649Y-35227D03*
X40649Y-35227D03*
X41649Y-35227D03*
X42649Y-35227D03*
X43649Y-35227D03*
X44649Y-35227D03*
X45649Y-35227D03*
X46649Y-35227D03*
X47649Y-35227D03*
X48649Y-35227D03*
X49649Y-35227D03*
X50649Y-35227D03*
X51649Y-35227D03*
G54D25*
X36907Y-26300D03*
X37693Y-26300D03*
G54D19*
X33800Y-24800D03*
G54D20*
X34800Y-24800D03*
M02*
