%FSLAX34Y34*%
G04 Gerber Fmt 3.4, Leading zero omitted, Abs format*
G04 (created by PCBNEW (2014-02-26 BZR 4721)-product) date Donnerstag, 25. Dezember 2014 16:09:47*
%MOIN*%
G01*
G70*
G90*
G04 APERTURE LIST*
%ADD10C,0.005906*%
%ADD11R,0.043300X0.055100*%
%ADD12R,0.055100X0.043300*%
%ADD13C,0.051181*%
%ADD14C,0.125984*%
%ADD15C,0.080000*%
%ADD16O,0.080000X0.080000*%
%ADD17C,0.068000*%
%ADD18O,0.068000X0.068000*%
%ADD19C,0.074000*%
%ADD20O,0.051400X0.102900*%
%ADD21C,0.035000*%
%ADD22C,0.020000*%
%ADD23C,0.010000*%
G04 APERTURE END LIST*
G54D10*
G54D11*
X67993Y-49100D03*
X67207Y-49100D03*
X67993Y-48200D03*
X67207Y-48200D03*
G54D12*
X63600Y-50593D03*
X63600Y-49807D03*
G54D11*
X47693Y-31700D03*
X46907Y-31700D03*
G54D12*
X44600Y-31907D03*
X44600Y-32693D03*
X37300Y-29907D03*
X37300Y-30693D03*
G54D13*
X54120Y-52104D03*
X54435Y-51395D03*
X54750Y-52104D03*
X55064Y-51395D03*
X55379Y-52104D03*
G54D14*
X56403Y-51750D03*
X53096Y-51750D03*
G54D15*
X33800Y-23800D03*
G54D16*
X34800Y-23800D03*
G54D15*
X34800Y-22800D03*
G54D16*
X33800Y-22800D03*
G54D15*
X35200Y-49500D03*
G54D16*
X35200Y-48500D03*
G54D15*
X39200Y-49500D03*
G54D16*
X39200Y-48500D03*
G54D15*
X42400Y-48500D03*
G54D16*
X42400Y-49500D03*
G54D15*
X43400Y-48500D03*
G54D16*
X43400Y-49500D03*
G54D15*
X44400Y-48500D03*
G54D16*
X44400Y-49500D03*
G54D15*
X45400Y-48500D03*
G54D16*
X45400Y-49500D03*
G54D15*
X46400Y-48500D03*
G54D16*
X46400Y-49500D03*
G54D15*
X47400Y-48500D03*
G54D16*
X47400Y-49500D03*
G54D15*
X48400Y-48500D03*
G54D16*
X48400Y-49500D03*
G54D15*
X49400Y-48500D03*
G54D16*
X49400Y-49500D03*
G54D17*
X53800Y-48500D03*
X54800Y-48500D03*
X55800Y-48500D03*
G54D15*
X57500Y-26900D03*
G54D16*
X58500Y-26900D03*
G54D15*
X31100Y-48500D03*
G54D16*
X32100Y-48500D03*
G54D12*
X43700Y-31907D03*
X43700Y-32693D03*
G54D17*
X30050Y-27150D03*
G54D18*
X31050Y-27150D03*
X30050Y-28150D03*
X31050Y-28150D03*
X30050Y-29150D03*
X31050Y-29150D03*
X30050Y-30150D03*
X31050Y-30150D03*
X30050Y-31150D03*
X31050Y-31150D03*
X30050Y-32150D03*
X31050Y-32150D03*
X30050Y-33150D03*
X31050Y-33150D03*
X30050Y-34150D03*
X31050Y-34150D03*
X30050Y-35150D03*
X31050Y-35150D03*
X30050Y-36150D03*
X31050Y-36150D03*
X30050Y-37150D03*
X31050Y-37150D03*
X30050Y-38150D03*
X31050Y-38150D03*
X30050Y-39150D03*
X31050Y-39150D03*
X30050Y-40150D03*
X31050Y-40150D03*
X30050Y-41150D03*
X31050Y-41150D03*
X30050Y-42150D03*
X31050Y-42150D03*
X30050Y-43150D03*
X31050Y-43150D03*
X30050Y-44150D03*
X31050Y-44150D03*
X30050Y-45150D03*
X31050Y-45150D03*
X30050Y-46150D03*
X31050Y-46150D03*
G54D17*
X67100Y-27150D03*
G54D18*
X68100Y-27150D03*
X67100Y-28150D03*
X68100Y-28150D03*
X67100Y-29150D03*
X68100Y-29150D03*
X67100Y-30150D03*
X68100Y-30150D03*
X67100Y-31150D03*
X68100Y-31150D03*
X67100Y-32150D03*
X68100Y-32150D03*
X67100Y-33150D03*
X68100Y-33150D03*
X67100Y-34150D03*
X68100Y-34150D03*
X67100Y-35150D03*
X68100Y-35150D03*
X67100Y-36150D03*
X68100Y-36150D03*
X67100Y-37150D03*
X68100Y-37150D03*
X67100Y-38150D03*
X68100Y-38150D03*
X67100Y-39150D03*
X68100Y-39150D03*
X67100Y-40150D03*
X68100Y-40150D03*
X67100Y-41150D03*
X68100Y-41150D03*
X67100Y-42150D03*
X68100Y-42150D03*
X67100Y-43150D03*
X68100Y-43150D03*
X67100Y-44150D03*
X68100Y-44150D03*
X67100Y-45150D03*
X68100Y-45150D03*
X67100Y-46150D03*
X68100Y-46150D03*
G54D17*
X56250Y-50000D03*
X55250Y-50000D03*
X54250Y-50000D03*
X53250Y-50000D03*
X37500Y-22300D03*
X38500Y-22300D03*
X39500Y-22300D03*
X40500Y-22300D03*
X41500Y-22300D03*
X42500Y-22300D03*
X43500Y-22300D03*
X44500Y-22300D03*
X45500Y-22300D03*
X46500Y-22300D03*
X47500Y-22300D03*
X48500Y-22300D03*
X49500Y-22300D03*
X50500Y-22300D03*
X51500Y-22300D03*
X52500Y-22300D03*
X53500Y-22300D03*
X54500Y-22300D03*
X55500Y-22300D03*
X56500Y-22300D03*
X57500Y-22300D03*
X58500Y-22300D03*
X59500Y-22300D03*
X60500Y-22300D03*
X37500Y-23300D03*
X38500Y-23300D03*
X39500Y-23300D03*
X40500Y-23300D03*
X41500Y-23300D03*
X42500Y-23300D03*
X43500Y-23300D03*
X44500Y-23300D03*
X45500Y-23300D03*
X46500Y-23300D03*
X47500Y-23300D03*
X48500Y-23300D03*
X49500Y-23300D03*
X50500Y-23300D03*
X51500Y-23300D03*
X52500Y-23300D03*
X53500Y-23300D03*
X54500Y-23300D03*
X55500Y-23300D03*
X56500Y-23300D03*
X57500Y-23300D03*
X58500Y-23300D03*
X59500Y-23300D03*
X60500Y-23300D03*
X63000Y-22800D03*
G54D18*
X64000Y-22800D03*
X63000Y-23800D03*
X64000Y-23800D03*
X63000Y-24800D03*
X64000Y-24800D03*
G54D17*
X33000Y-30150D03*
X33000Y-29150D03*
X33000Y-28150D03*
X33000Y-27150D03*
X33000Y-43150D03*
X33000Y-44150D03*
X33000Y-45150D03*
X33000Y-46150D03*
G54D12*
X35200Y-51993D03*
X35200Y-51207D03*
X39200Y-51993D03*
X39200Y-51207D03*
X42400Y-51393D03*
X42400Y-50607D03*
X43400Y-51393D03*
X43400Y-50607D03*
X44400Y-51393D03*
X44400Y-50607D03*
X45400Y-51393D03*
X45400Y-50607D03*
X46400Y-51393D03*
X46400Y-50607D03*
X47400Y-51393D03*
X47400Y-50607D03*
X48400Y-51393D03*
X48400Y-50607D03*
X49400Y-51393D03*
X49400Y-50607D03*
X41300Y-27493D03*
X41300Y-26707D03*
X65900Y-29307D03*
X65900Y-30093D03*
G54D11*
X60707Y-24300D03*
X61493Y-24300D03*
X61493Y-25100D03*
X60707Y-25100D03*
G54D12*
X65400Y-25093D03*
X65400Y-24307D03*
X47800Y-26093D03*
X47800Y-25307D03*
X46400Y-26093D03*
X46400Y-25307D03*
G54D19*
X36480Y-52390D03*
X33920Y-52390D03*
X36480Y-50610D03*
X33920Y-50610D03*
X40480Y-52390D03*
X37920Y-52390D03*
X40480Y-50610D03*
X37920Y-50610D03*
X42580Y-28490D03*
X40020Y-28490D03*
X42580Y-26710D03*
X40020Y-26710D03*
G54D20*
X36649Y-35227D03*
X37649Y-35227D03*
X38649Y-35227D03*
X39649Y-35227D03*
X40649Y-35227D03*
X41649Y-35227D03*
X42649Y-35227D03*
X43649Y-35227D03*
X44649Y-35227D03*
X45649Y-35227D03*
X46649Y-35227D03*
X47649Y-35227D03*
X48649Y-35227D03*
X49649Y-35227D03*
X50649Y-35227D03*
X51649Y-35227D03*
G54D15*
X33800Y-24800D03*
G54D16*
X34800Y-24800D03*
G54D21*
X66200Y-28700D03*
X66300Y-50300D03*
X66200Y-36300D03*
X33600Y-34900D03*
X63700Y-36300D03*
X32800Y-34100D03*
X65800Y-30700D03*
X64900Y-30700D03*
X60500Y-34300D03*
X56900Y-34300D03*
X61400Y-49000D03*
X61400Y-47900D03*
X47500Y-29900D03*
X52900Y-25900D03*
X51700Y-25900D03*
X48000Y-29500D03*
X52900Y-25400D03*
X51700Y-25400D03*
X48000Y-30300D03*
X36300Y-25600D03*
X33400Y-33900D03*
X34300Y-26600D03*
X31900Y-34800D03*
X57000Y-22800D03*
X47500Y-30700D03*
X30550Y-34650D03*
X32600Y-26200D03*
X50000Y-22800D03*
X49900Y-27400D03*
X52400Y-24500D03*
X49900Y-28700D03*
X39500Y-25400D03*
X39800Y-51400D03*
X64300Y-48300D03*
X63600Y-49200D03*
X65800Y-32700D03*
X55800Y-28300D03*
X55800Y-32600D03*
X55800Y-30500D03*
X45300Y-31600D03*
X38600Y-51400D03*
X35800Y-51400D03*
X34600Y-51400D03*
X34500Y-35200D03*
X35350Y-29500D03*
X46800Y-29000D03*
X48100Y-33200D03*
X61400Y-48500D03*
X64300Y-50300D03*
X49800Y-30700D03*
X50300Y-28000D03*
X53300Y-33200D03*
X53300Y-27600D03*
X32400Y-45600D03*
X46400Y-27100D03*
X49500Y-24800D03*
X49900Y-31900D03*
X48500Y-25800D03*
X49100Y-27400D03*
X52100Y-31000D03*
X51500Y-33100D03*
X45300Y-32100D03*
X63000Y-48800D03*
X65800Y-50600D03*
X48300Y-31700D03*
X58900Y-50200D03*
X61400Y-49800D03*
X42400Y-52500D03*
X62200Y-27800D03*
X61400Y-30700D03*
X61100Y-26100D03*
X47400Y-26800D03*
X43400Y-52500D03*
X44400Y-52500D03*
X45400Y-52500D03*
X46400Y-52500D03*
X47400Y-52500D03*
X48400Y-52500D03*
X49400Y-52500D03*
X32000Y-35300D03*
X35200Y-50600D03*
X39200Y-50600D03*
X48000Y-31100D03*
X51700Y-31700D03*
X60100Y-30000D03*
X52600Y-31000D03*
X51200Y-28700D03*
X55100Y-30000D03*
X33200Y-36150D03*
X33950Y-38900D03*
X33700Y-37900D03*
X63900Y-33200D03*
X63700Y-29400D03*
X59700Y-33200D03*
X48600Y-33200D03*
X65800Y-49700D03*
X67900Y-47100D03*
X42900Y-32000D03*
X33500Y-38400D03*
X33000Y-39700D03*
X49300Y-30900D03*
X48900Y-28700D03*
X34000Y-31100D03*
X38500Y-27600D03*
X37300Y-28500D03*
X39400Y-29900D03*
X41300Y-28300D03*
X46900Y-33300D03*
X51300Y-31300D03*
X59300Y-32100D03*
X59300Y-33700D03*
X63600Y-33700D03*
X64400Y-33700D03*
G54D22*
X65993Y-29307D02*
X65900Y-29307D01*
X66200Y-29100D02*
X65993Y-29307D01*
X66200Y-28700D02*
X66200Y-29100D01*
X35200Y-51993D02*
X34593Y-51993D01*
X31100Y-49500D02*
X31100Y-48500D01*
X31100Y-50200D02*
X31100Y-49500D01*
X32600Y-51700D02*
X31100Y-50200D01*
X34300Y-51700D02*
X32600Y-51700D01*
X34593Y-51993D02*
X34300Y-51700D01*
X39200Y-51993D02*
X38593Y-51993D01*
X35807Y-51993D02*
X35200Y-51993D01*
X36100Y-51700D02*
X35807Y-51993D01*
X38300Y-51700D02*
X36100Y-51700D01*
X38593Y-51993D02*
X38300Y-51700D01*
X42000Y-52900D02*
X40900Y-51800D01*
X66300Y-50300D02*
X66300Y-51000D01*
X66300Y-51000D02*
X64400Y-52900D01*
X64400Y-52900D02*
X42000Y-52900D01*
X39807Y-51993D02*
X39200Y-51993D01*
X40100Y-51700D02*
X39807Y-51993D01*
X40800Y-51700D02*
X40100Y-51700D01*
X40900Y-51800D02*
X40800Y-51700D01*
X32800Y-34100D02*
X33600Y-34900D01*
X63700Y-36300D02*
X66200Y-36300D01*
X33000Y-27150D02*
X33250Y-27150D01*
X32800Y-31300D02*
X32800Y-34100D01*
X33700Y-30400D02*
X32800Y-31300D01*
X33700Y-27600D02*
X33700Y-30400D01*
X33250Y-27150D02*
X33700Y-27600D01*
X31050Y-27150D02*
X33000Y-27150D01*
X64900Y-30700D02*
X65800Y-30700D01*
G54D23*
X56900Y-34300D02*
X60500Y-34300D01*
X54250Y-50000D02*
X54800Y-50550D01*
X56600Y-49000D02*
X61400Y-49000D01*
X56500Y-49000D02*
X56600Y-49000D01*
X55750Y-49750D02*
X56500Y-49000D01*
X55750Y-50350D02*
X55750Y-49750D01*
X55550Y-50550D02*
X55750Y-50350D01*
X54800Y-50550D02*
X55550Y-50550D01*
X55250Y-50000D02*
X55250Y-49950D01*
X56100Y-49100D02*
X57300Y-47900D01*
X57300Y-47900D02*
X61400Y-47900D01*
X55250Y-49950D02*
X56100Y-49100D01*
X36300Y-24300D02*
X35800Y-23800D01*
X47500Y-29900D02*
X46100Y-29900D01*
X45000Y-25400D02*
X43900Y-24300D01*
X45000Y-28800D02*
X45000Y-25400D01*
X46100Y-29900D02*
X45000Y-28800D01*
X43900Y-24300D02*
X36300Y-24300D01*
X35800Y-23800D02*
X34800Y-23800D01*
X51700Y-25900D02*
X52900Y-25900D01*
X37200Y-24000D02*
X36500Y-24000D01*
X46100Y-29500D02*
X45300Y-28700D01*
X45300Y-28700D02*
X45300Y-25200D01*
X45300Y-25200D02*
X44100Y-24000D01*
X48000Y-29500D02*
X46100Y-29500D01*
X44100Y-24000D02*
X37200Y-24000D01*
X35300Y-22800D02*
X34800Y-22800D01*
X36500Y-24000D02*
X35300Y-22800D01*
X51700Y-25400D02*
X52900Y-25400D01*
X48000Y-30300D02*
X45900Y-30300D01*
X45900Y-30300D02*
X44700Y-29100D01*
X44700Y-26400D02*
X44700Y-29100D01*
X44100Y-25800D02*
X44700Y-26400D01*
X39100Y-25800D02*
X44100Y-25800D01*
X38900Y-25600D02*
X39100Y-25800D01*
X36300Y-25600D02*
X38900Y-25600D01*
X31050Y-42150D02*
X31600Y-41600D01*
X33400Y-31200D02*
X33400Y-33900D01*
X34200Y-30400D02*
X33400Y-31200D01*
X34200Y-26700D02*
X34200Y-30400D01*
X34300Y-26600D02*
X34200Y-26700D01*
X31600Y-35100D02*
X31600Y-41600D01*
X31900Y-34800D02*
X31600Y-35100D01*
X57000Y-22800D02*
X57900Y-22800D01*
X57900Y-22800D02*
X58400Y-23300D01*
X58400Y-23300D02*
X58500Y-23300D01*
X44300Y-29200D02*
X44300Y-26700D01*
X45800Y-30700D02*
X44300Y-29200D01*
X47500Y-30700D02*
X45800Y-30700D01*
X32700Y-26100D02*
X32600Y-26200D01*
X43700Y-26100D02*
X32700Y-26100D01*
X44300Y-26700D02*
X43700Y-26100D01*
X30550Y-41650D02*
X30550Y-34650D01*
X30050Y-42150D02*
X30550Y-41650D01*
X55500Y-23200D02*
X55500Y-23300D01*
X55100Y-22800D02*
X55500Y-23200D01*
X50000Y-22800D02*
X55100Y-22800D01*
X53500Y-23400D02*
X53500Y-23300D01*
X52400Y-24500D02*
X53500Y-23400D01*
X49900Y-28700D02*
X49900Y-27500D01*
X49900Y-27500D02*
X49900Y-27400D01*
G54D22*
X65900Y-30093D02*
X65900Y-30100D01*
X65800Y-31400D02*
X65800Y-32700D01*
X66200Y-31000D02*
X65800Y-31400D01*
X66200Y-30400D02*
X66200Y-31000D01*
X65900Y-30100D02*
X66200Y-30400D01*
G54D23*
X55800Y-28300D02*
X55800Y-30500D01*
X68100Y-46150D02*
X68150Y-46150D01*
X68500Y-49700D02*
X68100Y-50100D01*
X68500Y-46500D02*
X68500Y-49700D01*
X68150Y-46150D02*
X68500Y-46500D01*
X67207Y-48200D02*
X67207Y-49100D01*
X67207Y-48200D02*
X67207Y-47043D01*
X67207Y-47043D02*
X68100Y-46150D01*
X30050Y-27150D02*
X30550Y-27650D01*
X32300Y-29450D02*
X33000Y-30150D01*
X32300Y-28150D02*
X32300Y-29450D01*
X31800Y-27650D02*
X32300Y-28150D01*
X30550Y-27650D02*
X31800Y-27650D01*
X30050Y-41150D02*
X30050Y-41250D01*
X29500Y-45600D02*
X30050Y-46150D01*
X29500Y-41800D02*
X29500Y-45600D01*
X30050Y-41250D02*
X29500Y-41800D01*
X30050Y-35150D02*
X29500Y-35700D01*
X30050Y-40950D02*
X30050Y-41150D01*
X29500Y-40400D02*
X30050Y-40950D01*
X29500Y-35700D02*
X29500Y-40400D01*
X30050Y-27150D02*
X29950Y-27150D01*
X29500Y-34600D02*
X30050Y-35150D01*
X29500Y-27600D02*
X29500Y-34600D01*
X29950Y-27150D02*
X29500Y-27600D01*
X32800Y-34600D02*
X32400Y-34200D01*
X39200Y-48000D02*
X39100Y-47900D01*
X39100Y-47900D02*
X34500Y-47900D01*
X34500Y-47900D02*
X33800Y-47200D01*
X33800Y-47200D02*
X33800Y-39532D01*
X33800Y-39532D02*
X32800Y-38532D01*
X32800Y-38532D02*
X32800Y-34600D01*
X39200Y-48500D02*
X39200Y-48000D01*
X32150Y-30150D02*
X31050Y-30150D01*
X32400Y-30400D02*
X32150Y-30150D01*
X32400Y-34200D02*
X32400Y-30400D01*
X32100Y-31400D02*
X32100Y-31000D01*
X34700Y-48500D02*
X33500Y-47300D01*
X33500Y-47300D02*
X33500Y-39600D01*
X33500Y-39600D02*
X32599Y-38699D01*
X32599Y-38699D02*
X32599Y-34699D01*
X32599Y-34699D02*
X32100Y-34200D01*
X32100Y-34200D02*
X32100Y-31400D01*
X35200Y-48500D02*
X34700Y-48500D01*
X30550Y-30650D02*
X30050Y-30150D01*
X31750Y-30650D02*
X30550Y-30650D01*
X32100Y-31000D02*
X31750Y-30650D01*
X31500Y-31650D02*
X31650Y-31650D01*
X30300Y-31400D02*
X30050Y-31150D01*
X30550Y-31650D02*
X31500Y-31650D01*
X30300Y-31400D02*
X30550Y-31650D01*
X32399Y-45599D02*
X32400Y-45600D01*
X32399Y-34799D02*
X32399Y-45599D01*
X31800Y-34200D02*
X32399Y-34799D01*
X31800Y-31800D02*
X31800Y-34200D01*
X31650Y-31650D02*
X31800Y-31800D01*
X46400Y-27100D02*
X46400Y-26093D01*
X50700Y-26000D02*
X49500Y-24800D01*
X50700Y-30400D02*
X50700Y-26000D01*
X49700Y-31400D02*
X50700Y-30400D01*
X49700Y-31700D02*
X49700Y-31400D01*
X49900Y-31900D02*
X49700Y-31700D01*
X49100Y-27400D02*
X49100Y-27100D01*
X48500Y-26500D02*
X48500Y-25800D01*
X49100Y-27100D02*
X48500Y-26500D01*
X55400Y-24300D02*
X60707Y-24300D01*
X52100Y-27600D02*
X55400Y-24300D01*
X52100Y-31000D02*
X52100Y-27600D01*
X56196Y-33849D02*
X56396Y-33849D01*
X51700Y-33100D02*
X52449Y-33849D01*
X52449Y-33849D02*
X56196Y-33849D01*
X63100Y-32300D02*
X63100Y-31800D01*
X63100Y-27393D02*
X65400Y-25093D01*
X63100Y-31800D02*
X63100Y-27393D01*
X51500Y-33100D02*
X51700Y-33100D01*
X63100Y-32500D02*
X63100Y-32300D01*
X62800Y-32800D02*
X63100Y-32500D01*
X57446Y-32800D02*
X62800Y-32800D01*
X56396Y-33849D02*
X57446Y-32800D01*
X44907Y-31907D02*
X44600Y-31907D01*
X45100Y-32100D02*
X44907Y-31907D01*
X45300Y-32100D02*
X45100Y-32100D01*
X44607Y-31900D02*
X44600Y-31907D01*
X44600Y-31907D02*
X43700Y-31907D01*
X44607Y-31900D02*
X44600Y-31907D01*
X43714Y-31893D02*
X43700Y-31907D01*
X63193Y-50593D02*
X63600Y-50593D01*
X63000Y-50400D02*
X63193Y-50593D01*
X63000Y-48800D02*
X63000Y-50400D01*
X63707Y-50700D02*
X63600Y-50593D01*
X65700Y-50700D02*
X63707Y-50700D01*
X65800Y-50600D02*
X65700Y-50700D01*
X48300Y-31700D02*
X47693Y-31700D01*
X56500Y-50800D02*
X56350Y-50950D01*
X56500Y-50800D02*
X57100Y-50200D01*
X57100Y-50200D02*
X58900Y-50200D01*
X54880Y-50950D02*
X54435Y-51395D01*
X56350Y-50950D02*
X54880Y-50950D01*
X54750Y-52104D02*
X54750Y-52250D01*
X61400Y-51400D02*
X61400Y-49800D01*
X60200Y-52600D02*
X61400Y-51400D01*
X56900Y-52600D02*
X60200Y-52600D01*
X55100Y-52600D02*
X56900Y-52600D01*
X54750Y-52250D02*
X55100Y-52600D01*
X42400Y-52500D02*
X42400Y-51393D01*
X62200Y-27800D02*
X62200Y-29900D01*
X62200Y-29900D02*
X62200Y-30200D01*
X62200Y-30200D02*
X61700Y-30700D01*
X61700Y-30700D02*
X61400Y-30700D01*
X62900Y-25800D02*
X62600Y-26100D01*
X62900Y-25800D02*
X63500Y-25200D01*
X63500Y-25200D02*
X63500Y-23300D01*
X64000Y-22800D02*
X63500Y-23300D01*
X62600Y-26100D02*
X61100Y-26100D01*
X47800Y-26400D02*
X47800Y-26093D01*
X47400Y-26800D02*
X47800Y-26400D01*
X43400Y-52500D02*
X43400Y-51393D01*
X44400Y-52500D02*
X44400Y-51393D01*
X45400Y-52500D02*
X45400Y-51393D01*
X46400Y-52500D02*
X46400Y-51393D01*
X47400Y-52500D02*
X47400Y-51393D01*
X48400Y-52500D02*
X48400Y-51393D01*
X49400Y-52500D02*
X49400Y-51393D01*
X32000Y-35300D02*
X32000Y-48400D01*
X32100Y-48500D02*
X32000Y-48400D01*
X35200Y-51207D02*
X35200Y-50600D01*
X36477Y-50607D02*
X36480Y-50610D01*
X33923Y-50607D02*
X33920Y-50610D01*
X39200Y-51207D02*
X39200Y-50600D01*
X40477Y-50607D02*
X40480Y-50610D01*
X37923Y-50607D02*
X37920Y-50610D01*
X61493Y-24300D02*
X61500Y-24300D01*
X61500Y-24300D02*
X63000Y-22800D01*
X61493Y-25100D02*
X61700Y-25100D01*
X61700Y-25100D02*
X63000Y-23800D01*
X65400Y-24307D02*
X65400Y-24000D01*
X65200Y-23800D02*
X64000Y-23800D01*
X65400Y-24000D02*
X65200Y-23800D01*
X48000Y-31100D02*
X45700Y-31100D01*
X43510Y-26710D02*
X42580Y-26710D01*
X44000Y-27200D02*
X43510Y-26710D01*
X44000Y-29400D02*
X44000Y-27200D01*
X45700Y-31100D02*
X44000Y-29400D01*
X41300Y-26707D02*
X40023Y-26707D01*
X40023Y-26707D02*
X40020Y-26710D01*
X42580Y-26710D02*
X41303Y-26710D01*
X41303Y-26710D02*
X41300Y-26707D01*
X51700Y-31700D02*
X58400Y-31700D01*
X58400Y-31700D02*
X60100Y-30000D01*
X55200Y-25100D02*
X60707Y-25100D01*
X54800Y-25500D02*
X55200Y-25100D01*
X52600Y-27700D02*
X54800Y-25500D01*
X52600Y-31000D02*
X52600Y-27700D01*
X51200Y-28700D02*
X51400Y-28900D01*
X53700Y-31400D02*
X55100Y-30000D01*
X52000Y-31400D02*
X53700Y-31400D01*
X51400Y-30800D02*
X52000Y-31400D01*
X51400Y-28900D02*
X51400Y-30800D01*
X33250Y-38700D02*
X33025Y-38475D01*
X34050Y-39500D02*
X33250Y-38700D01*
X41900Y-47600D02*
X34600Y-47600D01*
X43400Y-47900D02*
X43100Y-47600D01*
X43100Y-47600D02*
X41900Y-47600D01*
X43400Y-48500D02*
X43400Y-47900D01*
X34050Y-47050D02*
X34050Y-39750D01*
X34600Y-47600D02*
X34050Y-47050D01*
X34050Y-39750D02*
X34050Y-39500D01*
X33400Y-36350D02*
X33200Y-36150D01*
X33400Y-36500D02*
X33400Y-36350D01*
X33025Y-36875D02*
X33400Y-36500D01*
X33025Y-38475D02*
X33025Y-36875D01*
X41950Y-47300D02*
X34700Y-47300D01*
X34300Y-46900D02*
X34300Y-39250D01*
X34700Y-47300D02*
X34300Y-46900D01*
X34300Y-39250D02*
X33950Y-38900D01*
X41900Y-47300D02*
X41950Y-47300D01*
X41950Y-47300D02*
X43400Y-47300D01*
X44400Y-47700D02*
X44000Y-47300D01*
X44000Y-47300D02*
X43400Y-47300D01*
X44400Y-47700D02*
X44400Y-48500D01*
X34200Y-37900D02*
X33700Y-37900D01*
X34550Y-38250D02*
X34200Y-37900D01*
X41950Y-47000D02*
X34700Y-47000D01*
X34550Y-46850D02*
X34550Y-38800D01*
X34700Y-47000D02*
X34550Y-46850D01*
X34550Y-38800D02*
X34550Y-38250D01*
X41900Y-47000D02*
X41950Y-47000D01*
X41950Y-47000D02*
X43400Y-47000D01*
X45400Y-47600D02*
X44800Y-47000D01*
X44800Y-47000D02*
X43400Y-47000D01*
X45400Y-47600D02*
X45400Y-48500D01*
G54D22*
X55800Y-48500D02*
X56300Y-48000D01*
X65000Y-49700D02*
X65800Y-49700D01*
X62800Y-47500D02*
X65000Y-49700D01*
X56800Y-47500D02*
X62800Y-47500D01*
X56700Y-47600D02*
X56800Y-47500D01*
X56600Y-47700D02*
X56700Y-47600D01*
X56300Y-48000D02*
X56600Y-47700D01*
X63900Y-33200D02*
X63900Y-33000D01*
X63900Y-29600D02*
X63700Y-29400D01*
X63900Y-33000D02*
X63900Y-29600D01*
X56500Y-34100D02*
X57400Y-33200D01*
X57400Y-33200D02*
X59700Y-33200D01*
X49500Y-34100D02*
X48600Y-33200D01*
X56300Y-34100D02*
X49500Y-34100D01*
X56300Y-34100D02*
X56500Y-34100D01*
X67993Y-49100D02*
X67993Y-49207D01*
X67993Y-49207D02*
X67500Y-49700D01*
X67500Y-49700D02*
X65800Y-49700D01*
X67993Y-48200D02*
X67993Y-47193D01*
X67993Y-47193D02*
X67900Y-47100D01*
X67993Y-49100D02*
X67993Y-48200D01*
X43593Y-32693D02*
X42900Y-32000D01*
X43593Y-32693D02*
X43700Y-32693D01*
X33300Y-37100D02*
X34900Y-35500D01*
X33300Y-38200D02*
X33300Y-37100D01*
X33000Y-43150D02*
X33000Y-39700D01*
X33500Y-38400D02*
X33300Y-38200D01*
X34900Y-32000D02*
X34000Y-31100D01*
X34900Y-35500D02*
X34900Y-32000D01*
X48900Y-30500D02*
X49300Y-30900D01*
X48900Y-30200D02*
X48900Y-30500D01*
X48900Y-28700D02*
X48900Y-30200D01*
X34000Y-31100D02*
X35100Y-30000D01*
X37293Y-29900D02*
X37300Y-29907D01*
X35200Y-29900D02*
X37293Y-29900D01*
X35100Y-30000D02*
X35200Y-29900D01*
X39400Y-29900D02*
X39400Y-28500D01*
X39400Y-28500D02*
X38500Y-27600D01*
X37300Y-29907D02*
X37300Y-28500D01*
X51500Y-32100D02*
X51000Y-32600D01*
X47600Y-32600D02*
X46900Y-33300D01*
X51000Y-32600D02*
X47600Y-32600D01*
X39393Y-29907D02*
X37300Y-29907D01*
X39400Y-29900D02*
X39393Y-29907D01*
X41300Y-27493D02*
X41300Y-28300D01*
X43700Y-32800D02*
X43700Y-32693D01*
X44200Y-33300D02*
X43700Y-32800D01*
X46900Y-33300D02*
X44200Y-33300D01*
X51300Y-31300D02*
X51300Y-31900D01*
X51500Y-32100D02*
X59300Y-32100D01*
X51300Y-31900D02*
X51500Y-32100D01*
X63600Y-33700D02*
X59300Y-33700D01*
X64400Y-33700D02*
X63600Y-33700D01*
G54D10*
G36*
X30107Y-35200D02*
X30100Y-35200D01*
X30100Y-35207D01*
X30000Y-35207D01*
X30000Y-35200D01*
X29992Y-35200D01*
X29992Y-35100D01*
X30000Y-35100D01*
X30000Y-35092D01*
X30100Y-35092D01*
X30100Y-35100D01*
X30107Y-35100D01*
X30107Y-35200D01*
X30107Y-35200D01*
G37*
G54D23*
X30107Y-35200D02*
X30100Y-35200D01*
X30100Y-35207D01*
X30000Y-35207D01*
X30000Y-35200D01*
X29992Y-35200D01*
X29992Y-35100D01*
X30000Y-35100D01*
X30000Y-35092D01*
X30100Y-35092D01*
X30100Y-35100D01*
X30107Y-35100D01*
X30107Y-35200D01*
G54D10*
G36*
X30107Y-41200D02*
X30100Y-41200D01*
X30100Y-41207D01*
X30000Y-41207D01*
X30000Y-41200D01*
X29992Y-41200D01*
X29992Y-41100D01*
X30000Y-41100D01*
X30000Y-41092D01*
X30100Y-41092D01*
X30100Y-41100D01*
X30107Y-41100D01*
X30107Y-41200D01*
X30107Y-41200D01*
G37*
G54D23*
X30107Y-41200D02*
X30100Y-41200D01*
X30100Y-41207D01*
X30000Y-41207D01*
X30000Y-41200D01*
X29992Y-41200D01*
X29992Y-41100D01*
X30000Y-41100D01*
X30000Y-41092D01*
X30100Y-41092D01*
X30100Y-41100D01*
X30107Y-41100D01*
X30107Y-41200D01*
G54D10*
G36*
X33076Y-30155D02*
X33005Y-30226D01*
X33000Y-30220D01*
X32994Y-30226D01*
X32923Y-30155D01*
X32929Y-30150D01*
X32585Y-29805D01*
X32485Y-29838D01*
X32426Y-30001D01*
X32362Y-29937D01*
X32264Y-29872D01*
X32150Y-29850D01*
X31553Y-29850D01*
X31467Y-29721D01*
X31360Y-29650D01*
X31467Y-29578D01*
X31595Y-29387D01*
X31640Y-29161D01*
X31640Y-29138D01*
X31595Y-28912D01*
X31467Y-28721D01*
X31360Y-28650D01*
X31467Y-28578D01*
X31595Y-28387D01*
X31640Y-28161D01*
X31640Y-28138D01*
X31595Y-27912D01*
X31467Y-27721D01*
X31360Y-27650D01*
X31467Y-27578D01*
X31519Y-27500D01*
X32515Y-27500D01*
X32665Y-27649D01*
X32665Y-27650D01*
X32500Y-27815D01*
X32410Y-28032D01*
X32409Y-28266D01*
X32499Y-28483D01*
X32665Y-28649D01*
X32665Y-28650D01*
X32500Y-28815D01*
X32410Y-29032D01*
X32409Y-29266D01*
X32499Y-29483D01*
X32665Y-29649D01*
X32681Y-29656D01*
X32655Y-29735D01*
X33000Y-30079D01*
X33005Y-30073D01*
X33076Y-30144D01*
X33070Y-30150D01*
X33076Y-30155D01*
X33076Y-30155D01*
G37*
G54D23*
X33076Y-30155D02*
X33005Y-30226D01*
X33000Y-30220D01*
X32994Y-30226D01*
X32923Y-30155D01*
X32929Y-30150D01*
X32585Y-29805D01*
X32485Y-29838D01*
X32426Y-30001D01*
X32362Y-29937D01*
X32264Y-29872D01*
X32150Y-29850D01*
X31553Y-29850D01*
X31467Y-29721D01*
X31360Y-29650D01*
X31467Y-29578D01*
X31595Y-29387D01*
X31640Y-29161D01*
X31640Y-29138D01*
X31595Y-28912D01*
X31467Y-28721D01*
X31360Y-28650D01*
X31467Y-28578D01*
X31595Y-28387D01*
X31640Y-28161D01*
X31640Y-28138D01*
X31595Y-27912D01*
X31467Y-27721D01*
X31360Y-27650D01*
X31467Y-27578D01*
X31519Y-27500D01*
X32515Y-27500D01*
X32665Y-27649D01*
X32665Y-27650D01*
X32500Y-27815D01*
X32410Y-28032D01*
X32409Y-28266D01*
X32499Y-28483D01*
X32665Y-28649D01*
X32665Y-28650D01*
X32500Y-28815D01*
X32410Y-29032D01*
X32409Y-29266D01*
X32499Y-29483D01*
X32665Y-29649D01*
X32681Y-29656D01*
X32655Y-29735D01*
X33000Y-30079D01*
X33005Y-30073D01*
X33076Y-30144D01*
X33070Y-30150D01*
X33076Y-30155D01*
G54D10*
G36*
X34550Y-35355D02*
X33674Y-36230D01*
X33624Y-36157D01*
X33624Y-36157D01*
X33625Y-36065D01*
X33560Y-35909D01*
X33441Y-35789D01*
X33284Y-35725D01*
X33115Y-35724D01*
X33100Y-35731D01*
X33100Y-34894D01*
X33174Y-34969D01*
X33174Y-34984D01*
X33239Y-35140D01*
X33358Y-35260D01*
X33515Y-35324D01*
X33684Y-35325D01*
X33840Y-35260D01*
X33960Y-35141D01*
X34024Y-34984D01*
X34025Y-34815D01*
X33960Y-34659D01*
X33841Y-34539D01*
X33684Y-34475D01*
X33670Y-34475D01*
X33509Y-34314D01*
X33640Y-34260D01*
X33760Y-34141D01*
X33824Y-33984D01*
X33825Y-33815D01*
X33760Y-33659D01*
X33700Y-33598D01*
X33700Y-31401D01*
X33758Y-31460D01*
X33915Y-31524D01*
X33929Y-31524D01*
X34550Y-32144D01*
X34550Y-35355D01*
X34550Y-35355D01*
G37*
G54D23*
X34550Y-35355D02*
X33674Y-36230D01*
X33624Y-36157D01*
X33624Y-36157D01*
X33625Y-36065D01*
X33560Y-35909D01*
X33441Y-35789D01*
X33284Y-35725D01*
X33115Y-35724D01*
X33100Y-35731D01*
X33100Y-34894D01*
X33174Y-34969D01*
X33174Y-34984D01*
X33239Y-35140D01*
X33358Y-35260D01*
X33515Y-35324D01*
X33684Y-35325D01*
X33840Y-35260D01*
X33960Y-35141D01*
X34024Y-34984D01*
X34025Y-34815D01*
X33960Y-34659D01*
X33841Y-34539D01*
X33684Y-34475D01*
X33670Y-34475D01*
X33509Y-34314D01*
X33640Y-34260D01*
X33760Y-34141D01*
X33824Y-33984D01*
X33825Y-33815D01*
X33760Y-33659D01*
X33700Y-33598D01*
X33700Y-31401D01*
X33758Y-31460D01*
X33915Y-31524D01*
X33929Y-31524D01*
X34550Y-32144D01*
X34550Y-35355D01*
G54D10*
G36*
X40165Y-22800D02*
X40000Y-22965D01*
X39993Y-22981D01*
X39914Y-22955D01*
X39844Y-23026D01*
X39844Y-22885D01*
X39816Y-22800D01*
X39844Y-22714D01*
X39500Y-22370D01*
X39155Y-22714D01*
X39183Y-22800D01*
X39155Y-22885D01*
X39500Y-23229D01*
X39844Y-22885D01*
X39844Y-23026D01*
X39570Y-23300D01*
X39576Y-23305D01*
X39505Y-23376D01*
X39500Y-23370D01*
X39494Y-23376D01*
X39423Y-23305D01*
X39429Y-23300D01*
X39085Y-22955D01*
X39006Y-22981D01*
X39000Y-22966D01*
X38834Y-22800D01*
X38834Y-22799D01*
X38999Y-22634D01*
X39006Y-22618D01*
X39085Y-22644D01*
X39429Y-22300D01*
X39423Y-22294D01*
X39494Y-22223D01*
X39500Y-22229D01*
X39505Y-22223D01*
X39576Y-22294D01*
X39570Y-22300D01*
X39914Y-22644D01*
X39993Y-22618D01*
X39999Y-22633D01*
X40165Y-22799D01*
X40165Y-22800D01*
X40165Y-22800D01*
G37*
G54D23*
X40165Y-22800D02*
X40000Y-22965D01*
X39993Y-22981D01*
X39914Y-22955D01*
X39844Y-23026D01*
X39844Y-22885D01*
X39816Y-22800D01*
X39844Y-22714D01*
X39500Y-22370D01*
X39155Y-22714D01*
X39183Y-22800D01*
X39155Y-22885D01*
X39500Y-23229D01*
X39844Y-22885D01*
X39844Y-23026D01*
X39570Y-23300D01*
X39576Y-23305D01*
X39505Y-23376D01*
X39500Y-23370D01*
X39494Y-23376D01*
X39423Y-23305D01*
X39429Y-23300D01*
X39085Y-22955D01*
X39006Y-22981D01*
X39000Y-22966D01*
X38834Y-22800D01*
X38834Y-22799D01*
X38999Y-22634D01*
X39006Y-22618D01*
X39085Y-22644D01*
X39429Y-22300D01*
X39423Y-22294D01*
X39494Y-22223D01*
X39500Y-22229D01*
X39505Y-22223D01*
X39576Y-22294D01*
X39570Y-22300D01*
X39914Y-22644D01*
X39993Y-22618D01*
X39999Y-22633D01*
X40165Y-22799D01*
X40165Y-22800D01*
G54D10*
G36*
X41584Y-52979D02*
X40687Y-52979D01*
X40809Y-52929D01*
X40845Y-52826D01*
X40480Y-52460D01*
X40114Y-52826D01*
X40150Y-52929D01*
X40287Y-52979D01*
X38127Y-52979D01*
X38249Y-52929D01*
X38285Y-52826D01*
X37920Y-52460D01*
X37554Y-52826D01*
X37590Y-52929D01*
X37727Y-52979D01*
X36687Y-52979D01*
X36809Y-52929D01*
X36845Y-52826D01*
X36480Y-52460D01*
X36114Y-52826D01*
X36150Y-52929D01*
X36287Y-52979D01*
X34127Y-52979D01*
X34249Y-52929D01*
X34285Y-52826D01*
X33920Y-52460D01*
X33554Y-52826D01*
X33590Y-52929D01*
X33727Y-52979D01*
X31490Y-52979D01*
X31490Y-51833D01*
X31362Y-51524D01*
X31126Y-51287D01*
X30817Y-51159D01*
X30483Y-51159D01*
X30174Y-51287D01*
X29937Y-51523D01*
X29809Y-51832D01*
X29809Y-52166D01*
X29937Y-52475D01*
X30173Y-52712D01*
X30482Y-52840D01*
X30816Y-52840D01*
X31125Y-52712D01*
X31362Y-52476D01*
X31490Y-52167D01*
X31490Y-51833D01*
X31490Y-52979D01*
X29653Y-52979D01*
X29653Y-46571D01*
X29744Y-46654D01*
X29908Y-46722D01*
X30000Y-46675D01*
X30000Y-46200D01*
X29992Y-46200D01*
X29992Y-46100D01*
X30000Y-46100D01*
X30000Y-46092D01*
X30100Y-46092D01*
X30100Y-46100D01*
X30107Y-46100D01*
X30107Y-46200D01*
X30100Y-46200D01*
X30100Y-46675D01*
X30191Y-46722D01*
X30355Y-46654D01*
X30525Y-46499D01*
X30547Y-46451D01*
X30632Y-46578D01*
X30824Y-46706D01*
X31050Y-46751D01*
X31275Y-46706D01*
X31467Y-46578D01*
X31595Y-46387D01*
X31640Y-46161D01*
X31640Y-46138D01*
X31595Y-45912D01*
X31467Y-45721D01*
X31360Y-45650D01*
X31467Y-45578D01*
X31595Y-45387D01*
X31640Y-45161D01*
X31640Y-45138D01*
X31595Y-44912D01*
X31467Y-44721D01*
X31360Y-44650D01*
X31467Y-44578D01*
X31595Y-44387D01*
X31640Y-44161D01*
X31640Y-44138D01*
X31595Y-43912D01*
X31467Y-43721D01*
X31360Y-43650D01*
X31467Y-43578D01*
X31595Y-43387D01*
X31640Y-43161D01*
X31640Y-43138D01*
X31595Y-42912D01*
X31467Y-42721D01*
X31360Y-42650D01*
X31467Y-42578D01*
X31595Y-42387D01*
X31640Y-42161D01*
X31640Y-42138D01*
X31614Y-42009D01*
X31700Y-41924D01*
X31700Y-47992D01*
X31627Y-48040D01*
X31600Y-48081D01*
X31468Y-47949D01*
X31229Y-47850D01*
X30971Y-47849D01*
X30732Y-47948D01*
X30549Y-48131D01*
X30450Y-48370D01*
X30449Y-48628D01*
X30548Y-48867D01*
X30731Y-49050D01*
X30750Y-49058D01*
X30750Y-49500D01*
X30750Y-50200D01*
X30776Y-50333D01*
X30852Y-50447D01*
X32352Y-51947D01*
X32466Y-52023D01*
X32466Y-52023D01*
X32600Y-52050D01*
X33409Y-52050D01*
X33380Y-52060D01*
X33295Y-52291D01*
X33305Y-52537D01*
X33380Y-52719D01*
X33483Y-52755D01*
X33849Y-52390D01*
X33843Y-52384D01*
X33914Y-52313D01*
X33920Y-52319D01*
X33925Y-52313D01*
X33996Y-52384D01*
X33990Y-52390D01*
X34356Y-52755D01*
X34459Y-52719D01*
X34544Y-52488D01*
X34538Y-52332D01*
X34593Y-52343D01*
X34709Y-52343D01*
X34712Y-52351D01*
X34782Y-52421D01*
X34874Y-52459D01*
X34974Y-52459D01*
X35525Y-52459D01*
X35617Y-52421D01*
X35687Y-52351D01*
X35690Y-52343D01*
X35807Y-52343D01*
X35857Y-52333D01*
X35865Y-52537D01*
X35940Y-52719D01*
X36043Y-52755D01*
X36409Y-52390D01*
X36403Y-52384D01*
X36474Y-52313D01*
X36480Y-52319D01*
X36485Y-52313D01*
X36556Y-52384D01*
X36550Y-52390D01*
X36916Y-52755D01*
X37019Y-52719D01*
X37104Y-52488D01*
X37094Y-52242D01*
X37019Y-52060D01*
X36990Y-52050D01*
X37409Y-52050D01*
X37380Y-52060D01*
X37295Y-52291D01*
X37305Y-52537D01*
X37380Y-52719D01*
X37483Y-52755D01*
X37849Y-52390D01*
X37843Y-52384D01*
X37914Y-52313D01*
X37920Y-52319D01*
X37925Y-52313D01*
X37996Y-52384D01*
X37990Y-52390D01*
X38356Y-52755D01*
X38459Y-52719D01*
X38544Y-52488D01*
X38538Y-52332D01*
X38593Y-52343D01*
X38709Y-52343D01*
X38712Y-52351D01*
X38782Y-52421D01*
X38874Y-52459D01*
X38974Y-52459D01*
X39525Y-52459D01*
X39617Y-52421D01*
X39687Y-52351D01*
X39690Y-52343D01*
X39807Y-52343D01*
X39857Y-52333D01*
X39865Y-52537D01*
X39940Y-52719D01*
X40043Y-52755D01*
X40409Y-52390D01*
X40403Y-52384D01*
X40474Y-52313D01*
X40480Y-52319D01*
X40485Y-52313D01*
X40556Y-52384D01*
X40550Y-52390D01*
X40916Y-52755D01*
X41019Y-52719D01*
X41101Y-52496D01*
X41584Y-52979D01*
X41584Y-52979D01*
G37*
G54D23*
X41584Y-52979D02*
X40687Y-52979D01*
X40809Y-52929D01*
X40845Y-52826D01*
X40480Y-52460D01*
X40114Y-52826D01*
X40150Y-52929D01*
X40287Y-52979D01*
X38127Y-52979D01*
X38249Y-52929D01*
X38285Y-52826D01*
X37920Y-52460D01*
X37554Y-52826D01*
X37590Y-52929D01*
X37727Y-52979D01*
X36687Y-52979D01*
X36809Y-52929D01*
X36845Y-52826D01*
X36480Y-52460D01*
X36114Y-52826D01*
X36150Y-52929D01*
X36287Y-52979D01*
X34127Y-52979D01*
X34249Y-52929D01*
X34285Y-52826D01*
X33920Y-52460D01*
X33554Y-52826D01*
X33590Y-52929D01*
X33727Y-52979D01*
X31490Y-52979D01*
X31490Y-51833D01*
X31362Y-51524D01*
X31126Y-51287D01*
X30817Y-51159D01*
X30483Y-51159D01*
X30174Y-51287D01*
X29937Y-51523D01*
X29809Y-51832D01*
X29809Y-52166D01*
X29937Y-52475D01*
X30173Y-52712D01*
X30482Y-52840D01*
X30816Y-52840D01*
X31125Y-52712D01*
X31362Y-52476D01*
X31490Y-52167D01*
X31490Y-51833D01*
X31490Y-52979D01*
X29653Y-52979D01*
X29653Y-46571D01*
X29744Y-46654D01*
X29908Y-46722D01*
X30000Y-46675D01*
X30000Y-46200D01*
X29992Y-46200D01*
X29992Y-46100D01*
X30000Y-46100D01*
X30000Y-46092D01*
X30100Y-46092D01*
X30100Y-46100D01*
X30107Y-46100D01*
X30107Y-46200D01*
X30100Y-46200D01*
X30100Y-46675D01*
X30191Y-46722D01*
X30355Y-46654D01*
X30525Y-46499D01*
X30547Y-46451D01*
X30632Y-46578D01*
X30824Y-46706D01*
X31050Y-46751D01*
X31275Y-46706D01*
X31467Y-46578D01*
X31595Y-46387D01*
X31640Y-46161D01*
X31640Y-46138D01*
X31595Y-45912D01*
X31467Y-45721D01*
X31360Y-45650D01*
X31467Y-45578D01*
X31595Y-45387D01*
X31640Y-45161D01*
X31640Y-45138D01*
X31595Y-44912D01*
X31467Y-44721D01*
X31360Y-44650D01*
X31467Y-44578D01*
X31595Y-44387D01*
X31640Y-44161D01*
X31640Y-44138D01*
X31595Y-43912D01*
X31467Y-43721D01*
X31360Y-43650D01*
X31467Y-43578D01*
X31595Y-43387D01*
X31640Y-43161D01*
X31640Y-43138D01*
X31595Y-42912D01*
X31467Y-42721D01*
X31360Y-42650D01*
X31467Y-42578D01*
X31595Y-42387D01*
X31640Y-42161D01*
X31640Y-42138D01*
X31614Y-42009D01*
X31700Y-41924D01*
X31700Y-47992D01*
X31627Y-48040D01*
X31600Y-48081D01*
X31468Y-47949D01*
X31229Y-47850D01*
X30971Y-47849D01*
X30732Y-47948D01*
X30549Y-48131D01*
X30450Y-48370D01*
X30449Y-48628D01*
X30548Y-48867D01*
X30731Y-49050D01*
X30750Y-49058D01*
X30750Y-49500D01*
X30750Y-50200D01*
X30776Y-50333D01*
X30852Y-50447D01*
X32352Y-51947D01*
X32466Y-52023D01*
X32466Y-52023D01*
X32600Y-52050D01*
X33409Y-52050D01*
X33380Y-52060D01*
X33295Y-52291D01*
X33305Y-52537D01*
X33380Y-52719D01*
X33483Y-52755D01*
X33849Y-52390D01*
X33843Y-52384D01*
X33914Y-52313D01*
X33920Y-52319D01*
X33925Y-52313D01*
X33996Y-52384D01*
X33990Y-52390D01*
X34356Y-52755D01*
X34459Y-52719D01*
X34544Y-52488D01*
X34538Y-52332D01*
X34593Y-52343D01*
X34709Y-52343D01*
X34712Y-52351D01*
X34782Y-52421D01*
X34874Y-52459D01*
X34974Y-52459D01*
X35525Y-52459D01*
X35617Y-52421D01*
X35687Y-52351D01*
X35690Y-52343D01*
X35807Y-52343D01*
X35857Y-52333D01*
X35865Y-52537D01*
X35940Y-52719D01*
X36043Y-52755D01*
X36409Y-52390D01*
X36403Y-52384D01*
X36474Y-52313D01*
X36480Y-52319D01*
X36485Y-52313D01*
X36556Y-52384D01*
X36550Y-52390D01*
X36916Y-52755D01*
X37019Y-52719D01*
X37104Y-52488D01*
X37094Y-52242D01*
X37019Y-52060D01*
X36990Y-52050D01*
X37409Y-52050D01*
X37380Y-52060D01*
X37295Y-52291D01*
X37305Y-52537D01*
X37380Y-52719D01*
X37483Y-52755D01*
X37849Y-52390D01*
X37843Y-52384D01*
X37914Y-52313D01*
X37920Y-52319D01*
X37925Y-52313D01*
X37996Y-52384D01*
X37990Y-52390D01*
X38356Y-52755D01*
X38459Y-52719D01*
X38544Y-52488D01*
X38538Y-52332D01*
X38593Y-52343D01*
X38709Y-52343D01*
X38712Y-52351D01*
X38782Y-52421D01*
X38874Y-52459D01*
X38974Y-52459D01*
X39525Y-52459D01*
X39617Y-52421D01*
X39687Y-52351D01*
X39690Y-52343D01*
X39807Y-52343D01*
X39857Y-52333D01*
X39865Y-52537D01*
X39940Y-52719D01*
X40043Y-52755D01*
X40409Y-52390D01*
X40403Y-52384D01*
X40474Y-52313D01*
X40480Y-52319D01*
X40485Y-52313D01*
X40556Y-52384D01*
X40550Y-52390D01*
X40916Y-52755D01*
X41019Y-52719D01*
X41101Y-52496D01*
X41584Y-52979D01*
G54D10*
G36*
X44700Y-25975D02*
X44312Y-25587D01*
X44214Y-25522D01*
X44100Y-25500D01*
X39224Y-25500D01*
X39112Y-25387D01*
X39014Y-25322D01*
X38900Y-25300D01*
X36601Y-25300D01*
X36541Y-25239D01*
X36384Y-25175D01*
X36215Y-25174D01*
X36059Y-25239D01*
X35939Y-25358D01*
X35875Y-25515D01*
X35874Y-25684D01*
X35922Y-25800D01*
X32744Y-25800D01*
X32684Y-25775D01*
X32515Y-25774D01*
X32359Y-25839D01*
X32239Y-25958D01*
X32175Y-26115D01*
X32174Y-26284D01*
X32239Y-26440D01*
X32358Y-26560D01*
X32515Y-26624D01*
X32684Y-26625D01*
X32840Y-26560D01*
X32960Y-26441D01*
X32977Y-26400D01*
X33922Y-26400D01*
X33875Y-26515D01*
X33874Y-26684D01*
X33900Y-26744D01*
X33900Y-27305D01*
X33563Y-26968D01*
X33500Y-26816D01*
X33334Y-26650D01*
X33117Y-26560D01*
X32883Y-26559D01*
X32666Y-26649D01*
X32515Y-26800D01*
X31519Y-26800D01*
X31490Y-26756D01*
X31490Y-22833D01*
X31362Y-22524D01*
X31126Y-22287D01*
X30817Y-22159D01*
X30483Y-22159D01*
X30174Y-22287D01*
X29937Y-22523D01*
X29809Y-22832D01*
X29809Y-23166D01*
X29937Y-23475D01*
X30173Y-23712D01*
X30482Y-23840D01*
X30816Y-23840D01*
X31125Y-23712D01*
X31362Y-23476D01*
X31490Y-23167D01*
X31490Y-22833D01*
X31490Y-26756D01*
X31467Y-26721D01*
X31275Y-26593D01*
X31050Y-26548D01*
X30824Y-26593D01*
X30632Y-26721D01*
X30556Y-26835D01*
X30464Y-26805D01*
X30394Y-26876D01*
X30120Y-27150D01*
X30464Y-27494D01*
X30556Y-27464D01*
X30632Y-27578D01*
X30739Y-27650D01*
X30632Y-27721D01*
X30550Y-27845D01*
X30467Y-27721D01*
X30365Y-27653D01*
X30394Y-27564D01*
X30050Y-27220D01*
X30044Y-27226D01*
X29973Y-27155D01*
X29979Y-27150D01*
X29973Y-27144D01*
X30044Y-27073D01*
X30050Y-27079D01*
X30394Y-26735D01*
X30361Y-26635D01*
X30141Y-26555D01*
X29906Y-26565D01*
X29738Y-26635D01*
X29705Y-26735D01*
X29660Y-26689D01*
X29653Y-26697D01*
X29653Y-22023D01*
X36976Y-22023D01*
X36910Y-22182D01*
X36909Y-22416D01*
X36999Y-22633D01*
X37165Y-22799D01*
X37165Y-22800D01*
X37000Y-22965D01*
X36910Y-23182D01*
X36909Y-23416D01*
X36999Y-23633D01*
X37065Y-23700D01*
X36624Y-23700D01*
X35512Y-22587D01*
X35414Y-22522D01*
X35386Y-22517D01*
X35351Y-22432D01*
X35168Y-22249D01*
X34929Y-22150D01*
X34671Y-22149D01*
X34432Y-22248D01*
X34299Y-22381D01*
X34272Y-22340D01*
X34061Y-22199D01*
X33812Y-22150D01*
X33787Y-22150D01*
X33538Y-22199D01*
X33327Y-22340D01*
X33186Y-22551D01*
X33137Y-22800D01*
X33186Y-23048D01*
X33327Y-23259D01*
X33383Y-23297D01*
X33249Y-23431D01*
X33150Y-23670D01*
X33149Y-23928D01*
X33248Y-24167D01*
X33380Y-24300D01*
X33249Y-24431D01*
X33150Y-24670D01*
X33149Y-24928D01*
X33248Y-25167D01*
X33431Y-25350D01*
X33670Y-25449D01*
X33928Y-25450D01*
X34167Y-25351D01*
X34300Y-25218D01*
X34327Y-25259D01*
X34538Y-25400D01*
X34787Y-25450D01*
X34812Y-25450D01*
X35061Y-25400D01*
X35272Y-25259D01*
X35413Y-25048D01*
X35462Y-24800D01*
X35413Y-24551D01*
X35272Y-24340D01*
X35211Y-24300D01*
X35272Y-24259D01*
X35379Y-24100D01*
X35675Y-24100D01*
X36087Y-24512D01*
X36087Y-24512D01*
X36185Y-24577D01*
X36300Y-24600D01*
X43775Y-24600D01*
X44700Y-25524D01*
X44700Y-25975D01*
X44700Y-25975D01*
G37*
G54D23*
X44700Y-25975D02*
X44312Y-25587D01*
X44214Y-25522D01*
X44100Y-25500D01*
X39224Y-25500D01*
X39112Y-25387D01*
X39014Y-25322D01*
X38900Y-25300D01*
X36601Y-25300D01*
X36541Y-25239D01*
X36384Y-25175D01*
X36215Y-25174D01*
X36059Y-25239D01*
X35939Y-25358D01*
X35875Y-25515D01*
X35874Y-25684D01*
X35922Y-25800D01*
X32744Y-25800D01*
X32684Y-25775D01*
X32515Y-25774D01*
X32359Y-25839D01*
X32239Y-25958D01*
X32175Y-26115D01*
X32174Y-26284D01*
X32239Y-26440D01*
X32358Y-26560D01*
X32515Y-26624D01*
X32684Y-26625D01*
X32840Y-26560D01*
X32960Y-26441D01*
X32977Y-26400D01*
X33922Y-26400D01*
X33875Y-26515D01*
X33874Y-26684D01*
X33900Y-26744D01*
X33900Y-27305D01*
X33563Y-26968D01*
X33500Y-26816D01*
X33334Y-26650D01*
X33117Y-26560D01*
X32883Y-26559D01*
X32666Y-26649D01*
X32515Y-26800D01*
X31519Y-26800D01*
X31490Y-26756D01*
X31490Y-22833D01*
X31362Y-22524D01*
X31126Y-22287D01*
X30817Y-22159D01*
X30483Y-22159D01*
X30174Y-22287D01*
X29937Y-22523D01*
X29809Y-22832D01*
X29809Y-23166D01*
X29937Y-23475D01*
X30173Y-23712D01*
X30482Y-23840D01*
X30816Y-23840D01*
X31125Y-23712D01*
X31362Y-23476D01*
X31490Y-23167D01*
X31490Y-22833D01*
X31490Y-26756D01*
X31467Y-26721D01*
X31275Y-26593D01*
X31050Y-26548D01*
X30824Y-26593D01*
X30632Y-26721D01*
X30556Y-26835D01*
X30464Y-26805D01*
X30394Y-26876D01*
X30120Y-27150D01*
X30464Y-27494D01*
X30556Y-27464D01*
X30632Y-27578D01*
X30739Y-27650D01*
X30632Y-27721D01*
X30550Y-27845D01*
X30467Y-27721D01*
X30365Y-27653D01*
X30394Y-27564D01*
X30050Y-27220D01*
X30044Y-27226D01*
X29973Y-27155D01*
X29979Y-27150D01*
X29973Y-27144D01*
X30044Y-27073D01*
X30050Y-27079D01*
X30394Y-26735D01*
X30361Y-26635D01*
X30141Y-26555D01*
X29906Y-26565D01*
X29738Y-26635D01*
X29705Y-26735D01*
X29660Y-26689D01*
X29653Y-26697D01*
X29653Y-22023D01*
X36976Y-22023D01*
X36910Y-22182D01*
X36909Y-22416D01*
X36999Y-22633D01*
X37165Y-22799D01*
X37165Y-22800D01*
X37000Y-22965D01*
X36910Y-23182D01*
X36909Y-23416D01*
X36999Y-23633D01*
X37065Y-23700D01*
X36624Y-23700D01*
X35512Y-22587D01*
X35414Y-22522D01*
X35386Y-22517D01*
X35351Y-22432D01*
X35168Y-22249D01*
X34929Y-22150D01*
X34671Y-22149D01*
X34432Y-22248D01*
X34299Y-22381D01*
X34272Y-22340D01*
X34061Y-22199D01*
X33812Y-22150D01*
X33787Y-22150D01*
X33538Y-22199D01*
X33327Y-22340D01*
X33186Y-22551D01*
X33137Y-22800D01*
X33186Y-23048D01*
X33327Y-23259D01*
X33383Y-23297D01*
X33249Y-23431D01*
X33150Y-23670D01*
X33149Y-23928D01*
X33248Y-24167D01*
X33380Y-24300D01*
X33249Y-24431D01*
X33150Y-24670D01*
X33149Y-24928D01*
X33248Y-25167D01*
X33431Y-25350D01*
X33670Y-25449D01*
X33928Y-25450D01*
X34167Y-25351D01*
X34300Y-25218D01*
X34327Y-25259D01*
X34538Y-25400D01*
X34787Y-25450D01*
X34812Y-25450D01*
X35061Y-25400D01*
X35272Y-25259D01*
X35413Y-25048D01*
X35462Y-24800D01*
X35413Y-24551D01*
X35272Y-24340D01*
X35211Y-24300D01*
X35272Y-24259D01*
X35379Y-24100D01*
X35675Y-24100D01*
X36087Y-24512D01*
X36087Y-24512D01*
X36185Y-24577D01*
X36300Y-24600D01*
X43775Y-24600D01*
X44700Y-25524D01*
X44700Y-25975D01*
G54D10*
G36*
X55456Y-52109D02*
X55385Y-52180D01*
X55379Y-52175D01*
X55374Y-52180D01*
X55303Y-52109D01*
X55309Y-52104D01*
X55303Y-52098D01*
X55374Y-52028D01*
X55379Y-52033D01*
X55385Y-52028D01*
X55456Y-52098D01*
X55450Y-52104D01*
X55456Y-52109D01*
X55456Y-52109D01*
G37*
G54D23*
X55456Y-52109D02*
X55385Y-52180D01*
X55379Y-52175D01*
X55374Y-52180D01*
X55303Y-52109D01*
X55309Y-52104D01*
X55303Y-52098D01*
X55374Y-52028D01*
X55379Y-52033D01*
X55385Y-52028D01*
X55456Y-52098D01*
X55450Y-52104D01*
X55456Y-52109D01*
G54D10*
G36*
X59155Y-32500D02*
X57446Y-32500D01*
X57331Y-32522D01*
X57292Y-32548D01*
X57234Y-32587D01*
X56272Y-33549D01*
X56196Y-33549D01*
X52574Y-33549D01*
X51912Y-32887D01*
X51841Y-32840D01*
X51741Y-32739D01*
X51584Y-32675D01*
X51420Y-32674D01*
X51644Y-32450D01*
X59048Y-32450D01*
X59058Y-32460D01*
X59155Y-32500D01*
X59155Y-32500D01*
G37*
G54D23*
X59155Y-32500D02*
X57446Y-32500D01*
X57331Y-32522D01*
X57292Y-32548D01*
X57234Y-32587D01*
X56272Y-33549D01*
X56196Y-33549D01*
X52574Y-33549D01*
X51912Y-32887D01*
X51841Y-32840D01*
X51741Y-32739D01*
X51584Y-32675D01*
X51420Y-32674D01*
X51644Y-32450D01*
X59048Y-32450D01*
X59058Y-32460D01*
X59155Y-32500D01*
G54D10*
G36*
X61255Y-49400D02*
X61159Y-49439D01*
X61039Y-49558D01*
X60975Y-49715D01*
X60974Y-49884D01*
X61039Y-50040D01*
X61100Y-50101D01*
X61100Y-51275D01*
X60075Y-52300D01*
X57035Y-52300D01*
X57157Y-52236D01*
X57286Y-51910D01*
X57280Y-51560D01*
X57157Y-51263D01*
X57028Y-51196D01*
X56474Y-51750D01*
X56479Y-51755D01*
X56409Y-51826D01*
X56403Y-51820D01*
X56397Y-51826D01*
X56327Y-51755D01*
X56332Y-51750D01*
X56327Y-51744D01*
X56397Y-51673D01*
X56403Y-51679D01*
X56957Y-51125D01*
X56889Y-50995D01*
X56774Y-50950D01*
X57224Y-50500D01*
X58598Y-50500D01*
X58658Y-50560D01*
X58815Y-50624D01*
X58984Y-50625D01*
X59140Y-50560D01*
X59260Y-50441D01*
X59324Y-50284D01*
X59325Y-50115D01*
X59260Y-49959D01*
X59141Y-49839D01*
X58984Y-49775D01*
X58815Y-49774D01*
X58659Y-49839D01*
X58598Y-49900D01*
X57100Y-49900D01*
X56985Y-49922D01*
X56887Y-49987D01*
X56842Y-50033D01*
X56834Y-49856D01*
X56764Y-49688D01*
X56664Y-49655D01*
X56320Y-50000D01*
X56326Y-50005D01*
X56255Y-50076D01*
X56250Y-50070D01*
X56244Y-50076D01*
X56173Y-50005D01*
X56179Y-50000D01*
X56173Y-49994D01*
X56244Y-49923D01*
X56250Y-49929D01*
X56594Y-49585D01*
X56561Y-49485D01*
X56471Y-49452D01*
X56624Y-49300D01*
X61098Y-49300D01*
X61158Y-49360D01*
X61255Y-49400D01*
X61255Y-49400D01*
G37*
G54D23*
X61255Y-49400D02*
X61159Y-49439D01*
X61039Y-49558D01*
X60975Y-49715D01*
X60974Y-49884D01*
X61039Y-50040D01*
X61100Y-50101D01*
X61100Y-51275D01*
X60075Y-52300D01*
X57035Y-52300D01*
X57157Y-52236D01*
X57286Y-51910D01*
X57280Y-51560D01*
X57157Y-51263D01*
X57028Y-51196D01*
X56474Y-51750D01*
X56479Y-51755D01*
X56409Y-51826D01*
X56403Y-51820D01*
X56397Y-51826D01*
X56327Y-51755D01*
X56332Y-51750D01*
X56327Y-51744D01*
X56397Y-51673D01*
X56403Y-51679D01*
X56957Y-51125D01*
X56889Y-50995D01*
X56774Y-50950D01*
X57224Y-50500D01*
X58598Y-50500D01*
X58658Y-50560D01*
X58815Y-50624D01*
X58984Y-50625D01*
X59140Y-50560D01*
X59260Y-50441D01*
X59324Y-50284D01*
X59325Y-50115D01*
X59260Y-49959D01*
X59141Y-49839D01*
X58984Y-49775D01*
X58815Y-49774D01*
X58659Y-49839D01*
X58598Y-49900D01*
X57100Y-49900D01*
X56985Y-49922D01*
X56887Y-49987D01*
X56842Y-50033D01*
X56834Y-49856D01*
X56764Y-49688D01*
X56664Y-49655D01*
X56320Y-50000D01*
X56326Y-50005D01*
X56255Y-50076D01*
X56250Y-50070D01*
X56244Y-50076D01*
X56173Y-50005D01*
X56179Y-50000D01*
X56173Y-49994D01*
X56244Y-49923D01*
X56250Y-49929D01*
X56594Y-49585D01*
X56561Y-49485D01*
X56471Y-49452D01*
X56624Y-49300D01*
X61098Y-49300D01*
X61158Y-49360D01*
X61255Y-49400D01*
G54D10*
G36*
X64947Y-24699D02*
X64912Y-24734D01*
X64874Y-24826D01*
X64874Y-24926D01*
X64874Y-25194D01*
X64572Y-25495D01*
X64572Y-24941D01*
X64525Y-24850D01*
X64050Y-24850D01*
X64050Y-25325D01*
X64141Y-25372D01*
X64305Y-25304D01*
X64475Y-25149D01*
X64572Y-24941D01*
X64572Y-25495D01*
X62887Y-27180D01*
X62822Y-27278D01*
X62800Y-27393D01*
X62800Y-31800D01*
X62800Y-32300D01*
X62800Y-32375D01*
X62675Y-32500D01*
X62625Y-32500D01*
X62625Y-27715D01*
X62560Y-27559D01*
X62441Y-27439D01*
X62284Y-27375D01*
X62115Y-27374D01*
X61959Y-27439D01*
X61839Y-27558D01*
X61775Y-27715D01*
X61774Y-27884D01*
X61839Y-28040D01*
X61900Y-28101D01*
X61900Y-29900D01*
X61900Y-30075D01*
X61637Y-30338D01*
X61484Y-30275D01*
X61315Y-30274D01*
X61159Y-30339D01*
X61039Y-30458D01*
X60975Y-30615D01*
X60974Y-30784D01*
X61039Y-30940D01*
X61158Y-31060D01*
X61315Y-31124D01*
X61484Y-31125D01*
X61640Y-31060D01*
X61701Y-30999D01*
X61814Y-30977D01*
X61814Y-30977D01*
X61912Y-30912D01*
X62412Y-30412D01*
X62412Y-30412D01*
X62477Y-30314D01*
X62499Y-30200D01*
X62500Y-30200D01*
X62500Y-29900D01*
X62500Y-28101D01*
X62560Y-28041D01*
X62624Y-27884D01*
X62625Y-27715D01*
X62625Y-32500D01*
X59444Y-32500D01*
X59540Y-32460D01*
X59660Y-32341D01*
X59724Y-32184D01*
X59725Y-32015D01*
X59660Y-31859D01*
X59541Y-31739D01*
X59384Y-31675D01*
X59215Y-31674D01*
X59059Y-31739D01*
X59049Y-31750D01*
X58774Y-31750D01*
X60099Y-30424D01*
X60184Y-30425D01*
X60340Y-30360D01*
X60460Y-30241D01*
X60524Y-30084D01*
X60525Y-29915D01*
X60460Y-29759D01*
X60341Y-29639D01*
X60184Y-29575D01*
X60015Y-29574D01*
X59859Y-29639D01*
X59739Y-29758D01*
X59675Y-29915D01*
X59674Y-30000D01*
X59162Y-30513D01*
X59162Y-26900D01*
X59113Y-26651D01*
X58972Y-26440D01*
X58761Y-26299D01*
X58512Y-26250D01*
X58487Y-26250D01*
X58238Y-26299D01*
X58027Y-26440D01*
X58000Y-26481D01*
X57868Y-26349D01*
X57629Y-26250D01*
X57371Y-26249D01*
X57132Y-26348D01*
X56949Y-26531D01*
X56850Y-26770D01*
X56849Y-27028D01*
X56948Y-27267D01*
X57131Y-27450D01*
X57370Y-27549D01*
X57628Y-27550D01*
X57867Y-27451D01*
X58000Y-27318D01*
X58027Y-27359D01*
X58238Y-27500D01*
X58487Y-27550D01*
X58512Y-27550D01*
X58761Y-27500D01*
X58972Y-27359D01*
X59113Y-27148D01*
X59162Y-26900D01*
X59162Y-30513D01*
X58275Y-31400D01*
X54124Y-31400D01*
X55099Y-30424D01*
X55184Y-30425D01*
X55340Y-30360D01*
X55460Y-30241D01*
X55524Y-30084D01*
X55525Y-29915D01*
X55460Y-29759D01*
X55341Y-29639D01*
X55184Y-29575D01*
X55015Y-29574D01*
X54859Y-29639D01*
X54739Y-29758D01*
X54675Y-29915D01*
X54674Y-30000D01*
X53575Y-31100D01*
X53018Y-31100D01*
X53024Y-31084D01*
X53025Y-30915D01*
X52960Y-30759D01*
X52900Y-30698D01*
X52900Y-27824D01*
X55012Y-25712D01*
X55012Y-25712D01*
X55012Y-25712D01*
X55324Y-25400D01*
X60240Y-25400D01*
X60240Y-25425D01*
X60278Y-25517D01*
X60348Y-25587D01*
X60440Y-25625D01*
X60540Y-25625D01*
X60973Y-25625D01*
X61065Y-25587D01*
X61099Y-25552D01*
X61134Y-25587D01*
X61226Y-25625D01*
X61326Y-25625D01*
X61759Y-25625D01*
X61851Y-25587D01*
X61921Y-25517D01*
X61959Y-25425D01*
X61959Y-25325D01*
X61959Y-25264D01*
X62410Y-24813D01*
X62454Y-25037D01*
X62582Y-25228D01*
X62774Y-25356D01*
X62895Y-25380D01*
X62687Y-25587D01*
X62687Y-25587D01*
X62475Y-25800D01*
X61401Y-25800D01*
X61341Y-25739D01*
X61184Y-25675D01*
X61015Y-25674D01*
X60859Y-25739D01*
X60739Y-25858D01*
X60675Y-26015D01*
X60674Y-26184D01*
X60739Y-26340D01*
X60858Y-26460D01*
X61015Y-26524D01*
X61184Y-26525D01*
X61340Y-26460D01*
X61401Y-26400D01*
X62600Y-26400D01*
X62600Y-26399D01*
X62714Y-26377D01*
X62714Y-26377D01*
X62812Y-26312D01*
X63112Y-26012D01*
X63112Y-26012D01*
X63112Y-26012D01*
X63712Y-25412D01*
X63712Y-25412D01*
X63764Y-25333D01*
X63858Y-25372D01*
X63950Y-25325D01*
X63950Y-24850D01*
X63942Y-24850D01*
X63942Y-24750D01*
X63950Y-24750D01*
X63950Y-24742D01*
X64050Y-24742D01*
X64050Y-24750D01*
X64525Y-24750D01*
X64572Y-24658D01*
X64475Y-24450D01*
X64310Y-24299D01*
X64417Y-24228D01*
X64503Y-24100D01*
X64874Y-24100D01*
X64874Y-24140D01*
X64874Y-24573D01*
X64912Y-24665D01*
X64947Y-24699D01*
X64947Y-24699D01*
G37*
G54D23*
X64947Y-24699D02*
X64912Y-24734D01*
X64874Y-24826D01*
X64874Y-24926D01*
X64874Y-25194D01*
X64572Y-25495D01*
X64572Y-24941D01*
X64525Y-24850D01*
X64050Y-24850D01*
X64050Y-25325D01*
X64141Y-25372D01*
X64305Y-25304D01*
X64475Y-25149D01*
X64572Y-24941D01*
X64572Y-25495D01*
X62887Y-27180D01*
X62822Y-27278D01*
X62800Y-27393D01*
X62800Y-31800D01*
X62800Y-32300D01*
X62800Y-32375D01*
X62675Y-32500D01*
X62625Y-32500D01*
X62625Y-27715D01*
X62560Y-27559D01*
X62441Y-27439D01*
X62284Y-27375D01*
X62115Y-27374D01*
X61959Y-27439D01*
X61839Y-27558D01*
X61775Y-27715D01*
X61774Y-27884D01*
X61839Y-28040D01*
X61900Y-28101D01*
X61900Y-29900D01*
X61900Y-30075D01*
X61637Y-30338D01*
X61484Y-30275D01*
X61315Y-30274D01*
X61159Y-30339D01*
X61039Y-30458D01*
X60975Y-30615D01*
X60974Y-30784D01*
X61039Y-30940D01*
X61158Y-31060D01*
X61315Y-31124D01*
X61484Y-31125D01*
X61640Y-31060D01*
X61701Y-30999D01*
X61814Y-30977D01*
X61814Y-30977D01*
X61912Y-30912D01*
X62412Y-30412D01*
X62412Y-30412D01*
X62477Y-30314D01*
X62499Y-30200D01*
X62500Y-30200D01*
X62500Y-29900D01*
X62500Y-28101D01*
X62560Y-28041D01*
X62624Y-27884D01*
X62625Y-27715D01*
X62625Y-32500D01*
X59444Y-32500D01*
X59540Y-32460D01*
X59660Y-32341D01*
X59724Y-32184D01*
X59725Y-32015D01*
X59660Y-31859D01*
X59541Y-31739D01*
X59384Y-31675D01*
X59215Y-31674D01*
X59059Y-31739D01*
X59049Y-31750D01*
X58774Y-31750D01*
X60099Y-30424D01*
X60184Y-30425D01*
X60340Y-30360D01*
X60460Y-30241D01*
X60524Y-30084D01*
X60525Y-29915D01*
X60460Y-29759D01*
X60341Y-29639D01*
X60184Y-29575D01*
X60015Y-29574D01*
X59859Y-29639D01*
X59739Y-29758D01*
X59675Y-29915D01*
X59674Y-30000D01*
X59162Y-30513D01*
X59162Y-26900D01*
X59113Y-26651D01*
X58972Y-26440D01*
X58761Y-26299D01*
X58512Y-26250D01*
X58487Y-26250D01*
X58238Y-26299D01*
X58027Y-26440D01*
X58000Y-26481D01*
X57868Y-26349D01*
X57629Y-26250D01*
X57371Y-26249D01*
X57132Y-26348D01*
X56949Y-26531D01*
X56850Y-26770D01*
X56849Y-27028D01*
X56948Y-27267D01*
X57131Y-27450D01*
X57370Y-27549D01*
X57628Y-27550D01*
X57867Y-27451D01*
X58000Y-27318D01*
X58027Y-27359D01*
X58238Y-27500D01*
X58487Y-27550D01*
X58512Y-27550D01*
X58761Y-27500D01*
X58972Y-27359D01*
X59113Y-27148D01*
X59162Y-26900D01*
X59162Y-30513D01*
X58275Y-31400D01*
X54124Y-31400D01*
X55099Y-30424D01*
X55184Y-30425D01*
X55340Y-30360D01*
X55460Y-30241D01*
X55524Y-30084D01*
X55525Y-29915D01*
X55460Y-29759D01*
X55341Y-29639D01*
X55184Y-29575D01*
X55015Y-29574D01*
X54859Y-29639D01*
X54739Y-29758D01*
X54675Y-29915D01*
X54674Y-30000D01*
X53575Y-31100D01*
X53018Y-31100D01*
X53024Y-31084D01*
X53025Y-30915D01*
X52960Y-30759D01*
X52900Y-30698D01*
X52900Y-27824D01*
X55012Y-25712D01*
X55012Y-25712D01*
X55012Y-25712D01*
X55324Y-25400D01*
X60240Y-25400D01*
X60240Y-25425D01*
X60278Y-25517D01*
X60348Y-25587D01*
X60440Y-25625D01*
X60540Y-25625D01*
X60973Y-25625D01*
X61065Y-25587D01*
X61099Y-25552D01*
X61134Y-25587D01*
X61226Y-25625D01*
X61326Y-25625D01*
X61759Y-25625D01*
X61851Y-25587D01*
X61921Y-25517D01*
X61959Y-25425D01*
X61959Y-25325D01*
X61959Y-25264D01*
X62410Y-24813D01*
X62454Y-25037D01*
X62582Y-25228D01*
X62774Y-25356D01*
X62895Y-25380D01*
X62687Y-25587D01*
X62687Y-25587D01*
X62475Y-25800D01*
X61401Y-25800D01*
X61341Y-25739D01*
X61184Y-25675D01*
X61015Y-25674D01*
X60859Y-25739D01*
X60739Y-25858D01*
X60675Y-26015D01*
X60674Y-26184D01*
X60739Y-26340D01*
X60858Y-26460D01*
X61015Y-26524D01*
X61184Y-26525D01*
X61340Y-26460D01*
X61401Y-26400D01*
X62600Y-26400D01*
X62600Y-26399D01*
X62714Y-26377D01*
X62714Y-26377D01*
X62812Y-26312D01*
X63112Y-26012D01*
X63112Y-26012D01*
X63112Y-26012D01*
X63712Y-25412D01*
X63712Y-25412D01*
X63764Y-25333D01*
X63858Y-25372D01*
X63950Y-25325D01*
X63950Y-24850D01*
X63942Y-24850D01*
X63942Y-24750D01*
X63950Y-24750D01*
X63950Y-24742D01*
X64050Y-24742D01*
X64050Y-24750D01*
X64525Y-24750D01*
X64572Y-24658D01*
X64475Y-24450D01*
X64310Y-24299D01*
X64417Y-24228D01*
X64503Y-24100D01*
X64874Y-24100D01*
X64874Y-24140D01*
X64874Y-24573D01*
X64912Y-24665D01*
X64947Y-24699D01*
G54D10*
G36*
X65918Y-50110D02*
X65890Y-50177D01*
X65884Y-50175D01*
X65715Y-50174D01*
X65559Y-50239D01*
X65439Y-50358D01*
X65422Y-50400D01*
X64125Y-50400D01*
X64125Y-50326D01*
X64087Y-50234D01*
X64052Y-50200D01*
X64087Y-50165D01*
X64125Y-50073D01*
X64125Y-49919D01*
X64125Y-49694D01*
X64125Y-49540D01*
X64087Y-49448D01*
X64017Y-49378D01*
X63925Y-49340D01*
X63825Y-49340D01*
X63712Y-49340D01*
X63650Y-49403D01*
X63650Y-49757D01*
X64063Y-49757D01*
X64125Y-49694D01*
X64125Y-49919D01*
X64063Y-49857D01*
X63650Y-49857D01*
X63650Y-49864D01*
X63550Y-49864D01*
X63550Y-49857D01*
X63542Y-49857D01*
X63542Y-49757D01*
X63550Y-49757D01*
X63550Y-49403D01*
X63487Y-49340D01*
X63374Y-49340D01*
X63300Y-49340D01*
X63300Y-49101D01*
X63360Y-49041D01*
X63424Y-48884D01*
X63425Y-48715D01*
X63360Y-48559D01*
X63241Y-48439D01*
X63084Y-48375D01*
X62915Y-48374D01*
X62759Y-48439D01*
X62639Y-48558D01*
X62575Y-48715D01*
X62574Y-48884D01*
X62639Y-49040D01*
X62700Y-49101D01*
X62700Y-50400D01*
X62722Y-50514D01*
X62787Y-50612D01*
X62980Y-50805D01*
X63039Y-50844D01*
X63078Y-50870D01*
X63078Y-50870D01*
X63079Y-50870D01*
X63079Y-50870D01*
X63112Y-50951D01*
X63182Y-51021D01*
X63274Y-51059D01*
X63374Y-51059D01*
X63925Y-51059D01*
X64017Y-51021D01*
X64038Y-51000D01*
X65655Y-51000D01*
X65715Y-51024D01*
X65780Y-51024D01*
X64255Y-52550D01*
X60674Y-52550D01*
X61612Y-51612D01*
X61677Y-51514D01*
X61677Y-51514D01*
X61700Y-51400D01*
X61700Y-50101D01*
X61760Y-50041D01*
X61824Y-49884D01*
X61825Y-49715D01*
X61760Y-49559D01*
X61641Y-49439D01*
X61544Y-49399D01*
X61640Y-49360D01*
X61760Y-49241D01*
X61824Y-49084D01*
X61825Y-48915D01*
X61760Y-48759D01*
X61641Y-48639D01*
X61484Y-48575D01*
X61315Y-48574D01*
X61159Y-48639D01*
X61098Y-48700D01*
X56924Y-48700D01*
X57424Y-48200D01*
X61098Y-48200D01*
X61158Y-48260D01*
X61315Y-48324D01*
X61484Y-48325D01*
X61640Y-48260D01*
X61760Y-48141D01*
X61824Y-47984D01*
X61825Y-47850D01*
X62655Y-47850D01*
X64752Y-49947D01*
X64866Y-50023D01*
X65000Y-50050D01*
X65548Y-50050D01*
X65558Y-50060D01*
X65715Y-50124D01*
X65884Y-50125D01*
X65918Y-50110D01*
X65918Y-50110D01*
G37*
G54D23*
X65918Y-50110D02*
X65890Y-50177D01*
X65884Y-50175D01*
X65715Y-50174D01*
X65559Y-50239D01*
X65439Y-50358D01*
X65422Y-50400D01*
X64125Y-50400D01*
X64125Y-50326D01*
X64087Y-50234D01*
X64052Y-50200D01*
X64087Y-50165D01*
X64125Y-50073D01*
X64125Y-49919D01*
X64125Y-49694D01*
X64125Y-49540D01*
X64087Y-49448D01*
X64017Y-49378D01*
X63925Y-49340D01*
X63825Y-49340D01*
X63712Y-49340D01*
X63650Y-49403D01*
X63650Y-49757D01*
X64063Y-49757D01*
X64125Y-49694D01*
X64125Y-49919D01*
X64063Y-49857D01*
X63650Y-49857D01*
X63650Y-49864D01*
X63550Y-49864D01*
X63550Y-49857D01*
X63542Y-49857D01*
X63542Y-49757D01*
X63550Y-49757D01*
X63550Y-49403D01*
X63487Y-49340D01*
X63374Y-49340D01*
X63300Y-49340D01*
X63300Y-49101D01*
X63360Y-49041D01*
X63424Y-48884D01*
X63425Y-48715D01*
X63360Y-48559D01*
X63241Y-48439D01*
X63084Y-48375D01*
X62915Y-48374D01*
X62759Y-48439D01*
X62639Y-48558D01*
X62575Y-48715D01*
X62574Y-48884D01*
X62639Y-49040D01*
X62700Y-49101D01*
X62700Y-50400D01*
X62722Y-50514D01*
X62787Y-50612D01*
X62980Y-50805D01*
X63039Y-50844D01*
X63078Y-50870D01*
X63078Y-50870D01*
X63079Y-50870D01*
X63079Y-50870D01*
X63112Y-50951D01*
X63182Y-51021D01*
X63274Y-51059D01*
X63374Y-51059D01*
X63925Y-51059D01*
X64017Y-51021D01*
X64038Y-51000D01*
X65655Y-51000D01*
X65715Y-51024D01*
X65780Y-51024D01*
X64255Y-52550D01*
X60674Y-52550D01*
X61612Y-51612D01*
X61677Y-51514D01*
X61677Y-51514D01*
X61700Y-51400D01*
X61700Y-50101D01*
X61760Y-50041D01*
X61824Y-49884D01*
X61825Y-49715D01*
X61760Y-49559D01*
X61641Y-49439D01*
X61544Y-49399D01*
X61640Y-49360D01*
X61760Y-49241D01*
X61824Y-49084D01*
X61825Y-48915D01*
X61760Y-48759D01*
X61641Y-48639D01*
X61484Y-48575D01*
X61315Y-48574D01*
X61159Y-48639D01*
X61098Y-48700D01*
X56924Y-48700D01*
X57424Y-48200D01*
X61098Y-48200D01*
X61158Y-48260D01*
X61315Y-48324D01*
X61484Y-48325D01*
X61640Y-48260D01*
X61760Y-48141D01*
X61824Y-47984D01*
X61825Y-47850D01*
X62655Y-47850D01*
X64752Y-49947D01*
X64866Y-50023D01*
X65000Y-50050D01*
X65548Y-50050D01*
X65558Y-50060D01*
X65715Y-50124D01*
X65884Y-50125D01*
X65918Y-50110D01*
G54D10*
G36*
X67843Y-46674D02*
X67815Y-46674D01*
X67659Y-46739D01*
X67539Y-46858D01*
X67475Y-47015D01*
X67474Y-47184D01*
X67539Y-47340D01*
X67643Y-47444D01*
X67643Y-47709D01*
X67634Y-47712D01*
X67600Y-47747D01*
X67565Y-47712D01*
X67473Y-47674D01*
X67319Y-47674D01*
X67257Y-47737D01*
X67257Y-48150D01*
X67264Y-48150D01*
X67264Y-48250D01*
X67257Y-48250D01*
X67257Y-48637D01*
X67257Y-48663D01*
X67257Y-49050D01*
X67264Y-49050D01*
X67264Y-49150D01*
X67257Y-49150D01*
X67257Y-49157D01*
X67157Y-49157D01*
X67157Y-49150D01*
X67157Y-49050D01*
X67157Y-48663D01*
X67157Y-48637D01*
X67157Y-48250D01*
X67157Y-48150D01*
X67157Y-47737D01*
X67094Y-47674D01*
X66940Y-47674D01*
X66848Y-47712D01*
X66778Y-47782D01*
X66740Y-47874D01*
X66740Y-47974D01*
X66740Y-48087D01*
X66803Y-48150D01*
X67157Y-48150D01*
X67157Y-48250D01*
X66803Y-48250D01*
X66740Y-48312D01*
X66740Y-48425D01*
X66740Y-48525D01*
X66778Y-48617D01*
X66811Y-48650D01*
X66778Y-48682D01*
X66740Y-48774D01*
X66740Y-48874D01*
X66740Y-48987D01*
X66803Y-49050D01*
X67157Y-49050D01*
X67157Y-49150D01*
X66803Y-49150D01*
X66740Y-49212D01*
X66740Y-49325D01*
X66740Y-49350D01*
X66051Y-49350D01*
X66041Y-49339D01*
X65884Y-49275D01*
X65715Y-49274D01*
X65559Y-49339D01*
X65549Y-49350D01*
X65144Y-49350D01*
X63047Y-47252D01*
X62933Y-47176D01*
X62800Y-47150D01*
X56800Y-47150D01*
X56666Y-47176D01*
X56552Y-47252D01*
X56452Y-47352D01*
X56352Y-47452D01*
X56052Y-47752D01*
X55894Y-47910D01*
X55683Y-47909D01*
X55466Y-47999D01*
X55300Y-48165D01*
X55299Y-48165D01*
X55134Y-48000D01*
X54917Y-47910D01*
X54683Y-47909D01*
X54466Y-47999D01*
X54300Y-48165D01*
X54293Y-48181D01*
X54214Y-48155D01*
X54144Y-48226D01*
X54144Y-48085D01*
X54111Y-47985D01*
X53891Y-47905D01*
X53656Y-47915D01*
X53488Y-47985D01*
X53455Y-48085D01*
X53800Y-48429D01*
X54144Y-48085D01*
X54144Y-48226D01*
X53870Y-48500D01*
X54214Y-48844D01*
X54293Y-48818D01*
X54299Y-48833D01*
X54465Y-48999D01*
X54682Y-49089D01*
X54916Y-49090D01*
X55133Y-49000D01*
X55299Y-48834D01*
X55300Y-48834D01*
X55465Y-48999D01*
X55682Y-49089D01*
X55685Y-49089D01*
X55365Y-49410D01*
X55133Y-49409D01*
X54916Y-49499D01*
X54750Y-49665D01*
X54749Y-49665D01*
X54584Y-49500D01*
X54367Y-49410D01*
X54144Y-49409D01*
X54144Y-48914D01*
X53800Y-48570D01*
X53729Y-48641D01*
X53729Y-48500D01*
X53385Y-48155D01*
X53285Y-48188D01*
X53205Y-48408D01*
X53215Y-48643D01*
X53285Y-48811D01*
X53385Y-48844D01*
X53729Y-48500D01*
X53729Y-48641D01*
X53455Y-48914D01*
X53488Y-49014D01*
X53708Y-49094D01*
X53943Y-49084D01*
X54111Y-49014D01*
X54144Y-48914D01*
X54144Y-49409D01*
X54133Y-49409D01*
X53916Y-49499D01*
X53750Y-49665D01*
X53749Y-49665D01*
X53584Y-49500D01*
X53367Y-49410D01*
X53133Y-49409D01*
X52916Y-49499D01*
X52750Y-49665D01*
X52660Y-49882D01*
X52659Y-50116D01*
X52749Y-50333D01*
X52915Y-50499D01*
X53132Y-50589D01*
X53366Y-50590D01*
X53583Y-50500D01*
X53749Y-50334D01*
X53750Y-50334D01*
X53915Y-50499D01*
X54132Y-50589D01*
X54366Y-50590D01*
X54401Y-50575D01*
X54587Y-50762D01*
X54587Y-50762D01*
X54621Y-50784D01*
X54516Y-50889D01*
X54334Y-50889D01*
X54148Y-50966D01*
X54006Y-51108D01*
X53929Y-51294D01*
X53929Y-51453D01*
X53850Y-51263D01*
X53720Y-51196D01*
X53650Y-51266D01*
X53650Y-51125D01*
X53582Y-50995D01*
X53256Y-50867D01*
X52906Y-50873D01*
X52610Y-50995D01*
X52542Y-51125D01*
X53096Y-51679D01*
X53650Y-51125D01*
X53650Y-51266D01*
X53167Y-51750D01*
X53172Y-51755D01*
X53102Y-51826D01*
X53096Y-51820D01*
X53025Y-51891D01*
X53025Y-51750D01*
X52471Y-51196D01*
X52342Y-51263D01*
X52213Y-51589D01*
X52219Y-51939D01*
X52342Y-52236D01*
X52471Y-52303D01*
X53025Y-51750D01*
X53025Y-51891D01*
X52542Y-52374D01*
X52610Y-52504D01*
X52726Y-52550D01*
X49824Y-52550D01*
X49825Y-52415D01*
X49760Y-52259D01*
X49700Y-52198D01*
X49700Y-51859D01*
X49725Y-51859D01*
X49817Y-51821D01*
X49887Y-51751D01*
X49925Y-51659D01*
X49925Y-51559D01*
X49925Y-51126D01*
X49887Y-51034D01*
X49852Y-51000D01*
X49887Y-50965D01*
X49925Y-50873D01*
X49925Y-50719D01*
X49863Y-50657D01*
X49450Y-50657D01*
X49450Y-50664D01*
X49350Y-50664D01*
X49350Y-50657D01*
X48937Y-50657D01*
X48900Y-50694D01*
X48863Y-50657D01*
X48450Y-50657D01*
X48450Y-50664D01*
X48350Y-50664D01*
X48350Y-50657D01*
X47937Y-50657D01*
X47900Y-50694D01*
X47863Y-50657D01*
X47450Y-50657D01*
X47450Y-50664D01*
X47350Y-50664D01*
X47350Y-50657D01*
X46937Y-50657D01*
X46900Y-50694D01*
X46863Y-50657D01*
X46450Y-50657D01*
X46450Y-50664D01*
X46350Y-50664D01*
X46350Y-50657D01*
X45937Y-50657D01*
X45900Y-50694D01*
X45863Y-50657D01*
X45450Y-50657D01*
X45450Y-50664D01*
X45350Y-50664D01*
X45350Y-50657D01*
X44937Y-50657D01*
X44900Y-50694D01*
X44863Y-50657D01*
X44450Y-50657D01*
X44450Y-50664D01*
X44350Y-50664D01*
X44350Y-50657D01*
X43937Y-50657D01*
X43900Y-50694D01*
X43863Y-50657D01*
X43450Y-50657D01*
X43450Y-50664D01*
X43350Y-50664D01*
X43350Y-50657D01*
X42937Y-50657D01*
X42900Y-50694D01*
X42863Y-50657D01*
X42450Y-50657D01*
X42450Y-50664D01*
X42350Y-50664D01*
X42350Y-50657D01*
X41937Y-50657D01*
X41874Y-50719D01*
X41874Y-50873D01*
X41912Y-50965D01*
X41947Y-50999D01*
X41912Y-51034D01*
X41874Y-51126D01*
X41874Y-51226D01*
X41874Y-51659D01*
X41912Y-51751D01*
X41982Y-51821D01*
X42074Y-51859D01*
X42100Y-51859D01*
X42100Y-52198D01*
X42039Y-52258D01*
X41985Y-52390D01*
X41147Y-51552D01*
X41100Y-51505D01*
X41100Y-50487D01*
X41005Y-50259D01*
X40831Y-50084D01*
X40603Y-49990D01*
X40357Y-49989D01*
X40129Y-50084D01*
X39954Y-50258D01*
X39860Y-50486D01*
X39859Y-50732D01*
X39954Y-50960D01*
X40128Y-51135D01*
X40356Y-51229D01*
X40602Y-51230D01*
X40830Y-51135D01*
X41005Y-50961D01*
X41099Y-50733D01*
X41100Y-50487D01*
X41100Y-51505D01*
X41047Y-51452D01*
X40933Y-51376D01*
X40800Y-51350D01*
X40100Y-51350D01*
X39966Y-51376D01*
X39852Y-51452D01*
X39678Y-51626D01*
X39652Y-51600D01*
X39687Y-51565D01*
X39725Y-51473D01*
X39725Y-51373D01*
X39725Y-50940D01*
X39687Y-50848D01*
X39617Y-50778D01*
X39590Y-50767D01*
X39624Y-50684D01*
X39625Y-50515D01*
X39560Y-50359D01*
X39441Y-50239D01*
X39284Y-50175D01*
X39115Y-50174D01*
X38959Y-50239D01*
X38839Y-50358D01*
X38775Y-50515D01*
X38774Y-50684D01*
X38809Y-50767D01*
X38782Y-50778D01*
X38712Y-50848D01*
X38674Y-50940D01*
X38674Y-51040D01*
X38674Y-51473D01*
X38712Y-51565D01*
X38747Y-51599D01*
X38721Y-51626D01*
X38547Y-51452D01*
X38540Y-51447D01*
X38540Y-50487D01*
X38445Y-50259D01*
X38271Y-50084D01*
X38043Y-49990D01*
X37797Y-49989D01*
X37569Y-50084D01*
X37394Y-50258D01*
X37300Y-50486D01*
X37299Y-50732D01*
X37394Y-50960D01*
X37568Y-51135D01*
X37796Y-51229D01*
X38042Y-51230D01*
X38270Y-51135D01*
X38445Y-50961D01*
X38539Y-50733D01*
X38540Y-50487D01*
X38540Y-51447D01*
X38433Y-51376D01*
X38300Y-51350D01*
X37100Y-51350D01*
X37100Y-50487D01*
X37005Y-50259D01*
X36831Y-50084D01*
X36603Y-49990D01*
X36357Y-49989D01*
X36129Y-50084D01*
X35954Y-50258D01*
X35860Y-50486D01*
X35859Y-50732D01*
X35954Y-50960D01*
X36128Y-51135D01*
X36356Y-51229D01*
X36602Y-51230D01*
X36830Y-51135D01*
X37005Y-50961D01*
X37099Y-50733D01*
X37100Y-50487D01*
X37100Y-51350D01*
X36100Y-51350D01*
X35966Y-51376D01*
X35852Y-51452D01*
X35678Y-51626D01*
X35652Y-51600D01*
X35687Y-51565D01*
X35725Y-51473D01*
X35725Y-51373D01*
X35725Y-50940D01*
X35687Y-50848D01*
X35617Y-50778D01*
X35590Y-50767D01*
X35624Y-50684D01*
X35625Y-50515D01*
X35560Y-50359D01*
X35441Y-50239D01*
X35284Y-50175D01*
X35115Y-50174D01*
X34959Y-50239D01*
X34839Y-50358D01*
X34775Y-50515D01*
X34774Y-50684D01*
X34809Y-50767D01*
X34782Y-50778D01*
X34712Y-50848D01*
X34674Y-50940D01*
X34674Y-51040D01*
X34674Y-51473D01*
X34712Y-51565D01*
X34747Y-51599D01*
X34721Y-51626D01*
X34547Y-51452D01*
X34540Y-51447D01*
X34540Y-50487D01*
X34445Y-50259D01*
X34271Y-50084D01*
X34043Y-49990D01*
X33797Y-49989D01*
X33569Y-50084D01*
X33394Y-50258D01*
X33300Y-50486D01*
X33299Y-50732D01*
X33394Y-50960D01*
X33568Y-51135D01*
X33796Y-51229D01*
X34042Y-51230D01*
X34270Y-51135D01*
X34445Y-50961D01*
X34539Y-50733D01*
X34540Y-50487D01*
X34540Y-51447D01*
X34433Y-51376D01*
X34300Y-51350D01*
X32744Y-51350D01*
X31450Y-50055D01*
X31450Y-49500D01*
X31450Y-49058D01*
X31467Y-49051D01*
X31600Y-48918D01*
X31627Y-48959D01*
X31838Y-49100D01*
X32087Y-49150D01*
X32112Y-49150D01*
X32361Y-49100D01*
X32572Y-48959D01*
X32713Y-48748D01*
X32762Y-48500D01*
X32713Y-48251D01*
X32572Y-48040D01*
X32361Y-47899D01*
X32300Y-47887D01*
X32300Y-46018D01*
X32315Y-46024D01*
X32417Y-46025D01*
X32405Y-46058D01*
X32415Y-46293D01*
X32485Y-46461D01*
X32585Y-46494D01*
X32929Y-46150D01*
X32923Y-46144D01*
X32994Y-46073D01*
X33000Y-46079D01*
X33005Y-46073D01*
X33076Y-46144D01*
X33070Y-46150D01*
X33076Y-46155D01*
X33005Y-46226D01*
X33000Y-46220D01*
X32655Y-46564D01*
X32688Y-46664D01*
X32908Y-46744D01*
X33143Y-46734D01*
X33200Y-46710D01*
X33200Y-47300D01*
X33222Y-47414D01*
X33287Y-47512D01*
X34487Y-48712D01*
X34585Y-48777D01*
X34585Y-48777D01*
X34613Y-48782D01*
X34740Y-48972D01*
X34781Y-48999D01*
X34649Y-49131D01*
X34550Y-49370D01*
X34549Y-49628D01*
X34648Y-49867D01*
X34831Y-50050D01*
X35070Y-50149D01*
X35328Y-50150D01*
X35567Y-50051D01*
X35750Y-49868D01*
X35849Y-49629D01*
X35850Y-49371D01*
X35751Y-49132D01*
X35618Y-48999D01*
X35659Y-48972D01*
X35800Y-48761D01*
X35850Y-48512D01*
X35850Y-48487D01*
X35800Y-48238D01*
X35774Y-48200D01*
X38625Y-48200D01*
X38599Y-48238D01*
X38550Y-48487D01*
X38550Y-48512D01*
X38599Y-48761D01*
X38740Y-48972D01*
X38781Y-48999D01*
X38649Y-49131D01*
X38550Y-49370D01*
X38549Y-49628D01*
X38648Y-49867D01*
X38831Y-50050D01*
X39070Y-50149D01*
X39328Y-50150D01*
X39567Y-50051D01*
X39750Y-49868D01*
X39849Y-49629D01*
X39850Y-49371D01*
X39751Y-49132D01*
X39618Y-48999D01*
X39659Y-48972D01*
X39800Y-48761D01*
X39850Y-48512D01*
X39850Y-48487D01*
X39800Y-48238D01*
X39659Y-48027D01*
X39481Y-47908D01*
X39480Y-47900D01*
X41900Y-47900D01*
X42149Y-47900D01*
X42032Y-47948D01*
X41849Y-48131D01*
X41750Y-48370D01*
X41749Y-48628D01*
X41848Y-48867D01*
X41981Y-49000D01*
X41940Y-49027D01*
X41799Y-49238D01*
X41750Y-49487D01*
X41750Y-49512D01*
X41799Y-49761D01*
X41940Y-49972D01*
X42151Y-50113D01*
X42349Y-50152D01*
X42349Y-50202D01*
X42287Y-50140D01*
X42174Y-50140D01*
X42074Y-50140D01*
X41982Y-50178D01*
X41912Y-50248D01*
X41874Y-50340D01*
X41874Y-50494D01*
X41937Y-50557D01*
X42350Y-50557D01*
X42350Y-50549D01*
X42450Y-50549D01*
X42450Y-50557D01*
X42863Y-50557D01*
X42900Y-50520D01*
X42937Y-50557D01*
X43350Y-50557D01*
X43350Y-50549D01*
X43450Y-50549D01*
X43450Y-50557D01*
X43863Y-50557D01*
X43900Y-50520D01*
X43937Y-50557D01*
X44350Y-50557D01*
X44350Y-50549D01*
X44450Y-50549D01*
X44450Y-50557D01*
X44863Y-50557D01*
X44900Y-50520D01*
X44937Y-50557D01*
X45350Y-50557D01*
X45350Y-50549D01*
X45450Y-50549D01*
X45450Y-50557D01*
X45863Y-50557D01*
X45900Y-50520D01*
X45937Y-50557D01*
X46350Y-50557D01*
X46350Y-50549D01*
X46450Y-50549D01*
X46450Y-50557D01*
X46863Y-50557D01*
X46900Y-50520D01*
X46937Y-50557D01*
X47350Y-50557D01*
X47350Y-50549D01*
X47450Y-50549D01*
X47450Y-50557D01*
X47863Y-50557D01*
X47900Y-50520D01*
X47937Y-50557D01*
X48350Y-50557D01*
X48350Y-50549D01*
X48450Y-50549D01*
X48450Y-50557D01*
X48863Y-50557D01*
X48900Y-50520D01*
X48937Y-50557D01*
X49350Y-50557D01*
X49350Y-50549D01*
X49450Y-50549D01*
X49450Y-50557D01*
X49863Y-50557D01*
X49925Y-50494D01*
X49925Y-50340D01*
X49887Y-50248D01*
X49817Y-50178D01*
X49725Y-50140D01*
X49625Y-50140D01*
X49512Y-50140D01*
X49450Y-50202D01*
X49450Y-50152D01*
X49648Y-50113D01*
X49859Y-49972D01*
X50000Y-49761D01*
X50050Y-49512D01*
X50050Y-49487D01*
X50000Y-49238D01*
X49859Y-49027D01*
X49818Y-49000D01*
X49950Y-48868D01*
X50049Y-48629D01*
X50050Y-48371D01*
X49951Y-48132D01*
X49768Y-47949D01*
X49529Y-47850D01*
X49271Y-47849D01*
X49032Y-47948D01*
X48899Y-48080D01*
X48768Y-47949D01*
X48529Y-47850D01*
X48271Y-47849D01*
X48032Y-47948D01*
X47899Y-48080D01*
X47768Y-47949D01*
X47529Y-47850D01*
X47271Y-47849D01*
X47032Y-47948D01*
X46899Y-48080D01*
X46768Y-47949D01*
X46529Y-47850D01*
X46271Y-47849D01*
X46032Y-47948D01*
X45899Y-48080D01*
X45768Y-47949D01*
X45700Y-47920D01*
X45700Y-47600D01*
X45677Y-47485D01*
X45612Y-47387D01*
X45612Y-47387D01*
X45293Y-47069D01*
X64000Y-47069D01*
X64103Y-47049D01*
X64190Y-46990D01*
X64249Y-46903D01*
X64269Y-46800D01*
X64269Y-36650D01*
X65948Y-36650D01*
X65958Y-36660D01*
X66115Y-36724D01*
X66284Y-36725D01*
X66440Y-36660D01*
X66560Y-36541D01*
X66597Y-36451D01*
X66682Y-36578D01*
X66789Y-36650D01*
X66682Y-36721D01*
X66554Y-36912D01*
X66510Y-37138D01*
X66510Y-37161D01*
X66554Y-37387D01*
X66682Y-37578D01*
X66789Y-37650D01*
X66682Y-37721D01*
X66554Y-37912D01*
X66510Y-38138D01*
X66510Y-38161D01*
X66554Y-38387D01*
X66682Y-38578D01*
X66789Y-38650D01*
X66682Y-38721D01*
X66554Y-38912D01*
X66510Y-39138D01*
X66510Y-39161D01*
X66554Y-39387D01*
X66682Y-39578D01*
X66789Y-39650D01*
X66682Y-39721D01*
X66554Y-39912D01*
X66510Y-40138D01*
X66510Y-40161D01*
X66554Y-40387D01*
X66682Y-40578D01*
X66789Y-40649D01*
X66624Y-40800D01*
X66527Y-41008D01*
X66574Y-41100D01*
X67050Y-41100D01*
X67050Y-41092D01*
X67150Y-41092D01*
X67150Y-41100D01*
X67157Y-41100D01*
X67157Y-41200D01*
X67150Y-41200D01*
X67150Y-41207D01*
X67050Y-41207D01*
X67050Y-41200D01*
X66574Y-41200D01*
X66527Y-41291D01*
X66624Y-41499D01*
X66789Y-41650D01*
X66682Y-41721D01*
X66554Y-41912D01*
X66510Y-42138D01*
X66510Y-42161D01*
X66554Y-42387D01*
X66682Y-42578D01*
X66789Y-42650D01*
X66682Y-42721D01*
X66554Y-42912D01*
X66510Y-43138D01*
X66510Y-43161D01*
X66554Y-43387D01*
X66682Y-43578D01*
X66789Y-43650D01*
X66682Y-43721D01*
X66554Y-43912D01*
X66510Y-44138D01*
X66510Y-44161D01*
X66554Y-44387D01*
X66682Y-44578D01*
X66789Y-44650D01*
X66682Y-44721D01*
X66554Y-44912D01*
X66510Y-45138D01*
X66510Y-45161D01*
X66554Y-45387D01*
X66682Y-45578D01*
X66789Y-45650D01*
X66682Y-45721D01*
X66554Y-45912D01*
X66510Y-46138D01*
X66510Y-46161D01*
X66554Y-46387D01*
X66682Y-46578D01*
X66874Y-46706D01*
X67100Y-46751D01*
X67325Y-46706D01*
X67517Y-46578D01*
X67602Y-46451D01*
X67624Y-46499D01*
X67794Y-46654D01*
X67843Y-46674D01*
X67843Y-46674D01*
G37*
G54D23*
X67843Y-46674D02*
X67815Y-46674D01*
X67659Y-46739D01*
X67539Y-46858D01*
X67475Y-47015D01*
X67474Y-47184D01*
X67539Y-47340D01*
X67643Y-47444D01*
X67643Y-47709D01*
X67634Y-47712D01*
X67600Y-47747D01*
X67565Y-47712D01*
X67473Y-47674D01*
X67319Y-47674D01*
X67257Y-47737D01*
X67257Y-48150D01*
X67264Y-48150D01*
X67264Y-48250D01*
X67257Y-48250D01*
X67257Y-48637D01*
X67257Y-48663D01*
X67257Y-49050D01*
X67264Y-49050D01*
X67264Y-49150D01*
X67257Y-49150D01*
X67257Y-49157D01*
X67157Y-49157D01*
X67157Y-49150D01*
X67157Y-49050D01*
X67157Y-48663D01*
X67157Y-48637D01*
X67157Y-48250D01*
X67157Y-48150D01*
X67157Y-47737D01*
X67094Y-47674D01*
X66940Y-47674D01*
X66848Y-47712D01*
X66778Y-47782D01*
X66740Y-47874D01*
X66740Y-47974D01*
X66740Y-48087D01*
X66803Y-48150D01*
X67157Y-48150D01*
X67157Y-48250D01*
X66803Y-48250D01*
X66740Y-48312D01*
X66740Y-48425D01*
X66740Y-48525D01*
X66778Y-48617D01*
X66811Y-48650D01*
X66778Y-48682D01*
X66740Y-48774D01*
X66740Y-48874D01*
X66740Y-48987D01*
X66803Y-49050D01*
X67157Y-49050D01*
X67157Y-49150D01*
X66803Y-49150D01*
X66740Y-49212D01*
X66740Y-49325D01*
X66740Y-49350D01*
X66051Y-49350D01*
X66041Y-49339D01*
X65884Y-49275D01*
X65715Y-49274D01*
X65559Y-49339D01*
X65549Y-49350D01*
X65144Y-49350D01*
X63047Y-47252D01*
X62933Y-47176D01*
X62800Y-47150D01*
X56800Y-47150D01*
X56666Y-47176D01*
X56552Y-47252D01*
X56452Y-47352D01*
X56352Y-47452D01*
X56052Y-47752D01*
X55894Y-47910D01*
X55683Y-47909D01*
X55466Y-47999D01*
X55300Y-48165D01*
X55299Y-48165D01*
X55134Y-48000D01*
X54917Y-47910D01*
X54683Y-47909D01*
X54466Y-47999D01*
X54300Y-48165D01*
X54293Y-48181D01*
X54214Y-48155D01*
X54144Y-48226D01*
X54144Y-48085D01*
X54111Y-47985D01*
X53891Y-47905D01*
X53656Y-47915D01*
X53488Y-47985D01*
X53455Y-48085D01*
X53800Y-48429D01*
X54144Y-48085D01*
X54144Y-48226D01*
X53870Y-48500D01*
X54214Y-48844D01*
X54293Y-48818D01*
X54299Y-48833D01*
X54465Y-48999D01*
X54682Y-49089D01*
X54916Y-49090D01*
X55133Y-49000D01*
X55299Y-48834D01*
X55300Y-48834D01*
X55465Y-48999D01*
X55682Y-49089D01*
X55685Y-49089D01*
X55365Y-49410D01*
X55133Y-49409D01*
X54916Y-49499D01*
X54750Y-49665D01*
X54749Y-49665D01*
X54584Y-49500D01*
X54367Y-49410D01*
X54144Y-49409D01*
X54144Y-48914D01*
X53800Y-48570D01*
X53729Y-48641D01*
X53729Y-48500D01*
X53385Y-48155D01*
X53285Y-48188D01*
X53205Y-48408D01*
X53215Y-48643D01*
X53285Y-48811D01*
X53385Y-48844D01*
X53729Y-48500D01*
X53729Y-48641D01*
X53455Y-48914D01*
X53488Y-49014D01*
X53708Y-49094D01*
X53943Y-49084D01*
X54111Y-49014D01*
X54144Y-48914D01*
X54144Y-49409D01*
X54133Y-49409D01*
X53916Y-49499D01*
X53750Y-49665D01*
X53749Y-49665D01*
X53584Y-49500D01*
X53367Y-49410D01*
X53133Y-49409D01*
X52916Y-49499D01*
X52750Y-49665D01*
X52660Y-49882D01*
X52659Y-50116D01*
X52749Y-50333D01*
X52915Y-50499D01*
X53132Y-50589D01*
X53366Y-50590D01*
X53583Y-50500D01*
X53749Y-50334D01*
X53750Y-50334D01*
X53915Y-50499D01*
X54132Y-50589D01*
X54366Y-50590D01*
X54401Y-50575D01*
X54587Y-50762D01*
X54587Y-50762D01*
X54621Y-50784D01*
X54516Y-50889D01*
X54334Y-50889D01*
X54148Y-50966D01*
X54006Y-51108D01*
X53929Y-51294D01*
X53929Y-51453D01*
X53850Y-51263D01*
X53720Y-51196D01*
X53650Y-51266D01*
X53650Y-51125D01*
X53582Y-50995D01*
X53256Y-50867D01*
X52906Y-50873D01*
X52610Y-50995D01*
X52542Y-51125D01*
X53096Y-51679D01*
X53650Y-51125D01*
X53650Y-51266D01*
X53167Y-51750D01*
X53172Y-51755D01*
X53102Y-51826D01*
X53096Y-51820D01*
X53025Y-51891D01*
X53025Y-51750D01*
X52471Y-51196D01*
X52342Y-51263D01*
X52213Y-51589D01*
X52219Y-51939D01*
X52342Y-52236D01*
X52471Y-52303D01*
X53025Y-51750D01*
X53025Y-51891D01*
X52542Y-52374D01*
X52610Y-52504D01*
X52726Y-52550D01*
X49824Y-52550D01*
X49825Y-52415D01*
X49760Y-52259D01*
X49700Y-52198D01*
X49700Y-51859D01*
X49725Y-51859D01*
X49817Y-51821D01*
X49887Y-51751D01*
X49925Y-51659D01*
X49925Y-51559D01*
X49925Y-51126D01*
X49887Y-51034D01*
X49852Y-51000D01*
X49887Y-50965D01*
X49925Y-50873D01*
X49925Y-50719D01*
X49863Y-50657D01*
X49450Y-50657D01*
X49450Y-50664D01*
X49350Y-50664D01*
X49350Y-50657D01*
X48937Y-50657D01*
X48900Y-50694D01*
X48863Y-50657D01*
X48450Y-50657D01*
X48450Y-50664D01*
X48350Y-50664D01*
X48350Y-50657D01*
X47937Y-50657D01*
X47900Y-50694D01*
X47863Y-50657D01*
X47450Y-50657D01*
X47450Y-50664D01*
X47350Y-50664D01*
X47350Y-50657D01*
X46937Y-50657D01*
X46900Y-50694D01*
X46863Y-50657D01*
X46450Y-50657D01*
X46450Y-50664D01*
X46350Y-50664D01*
X46350Y-50657D01*
X45937Y-50657D01*
X45900Y-50694D01*
X45863Y-50657D01*
X45450Y-50657D01*
X45450Y-50664D01*
X45350Y-50664D01*
X45350Y-50657D01*
X44937Y-50657D01*
X44900Y-50694D01*
X44863Y-50657D01*
X44450Y-50657D01*
X44450Y-50664D01*
X44350Y-50664D01*
X44350Y-50657D01*
X43937Y-50657D01*
X43900Y-50694D01*
X43863Y-50657D01*
X43450Y-50657D01*
X43450Y-50664D01*
X43350Y-50664D01*
X43350Y-50657D01*
X42937Y-50657D01*
X42900Y-50694D01*
X42863Y-50657D01*
X42450Y-50657D01*
X42450Y-50664D01*
X42350Y-50664D01*
X42350Y-50657D01*
X41937Y-50657D01*
X41874Y-50719D01*
X41874Y-50873D01*
X41912Y-50965D01*
X41947Y-50999D01*
X41912Y-51034D01*
X41874Y-51126D01*
X41874Y-51226D01*
X41874Y-51659D01*
X41912Y-51751D01*
X41982Y-51821D01*
X42074Y-51859D01*
X42100Y-51859D01*
X42100Y-52198D01*
X42039Y-52258D01*
X41985Y-52390D01*
X41147Y-51552D01*
X41100Y-51505D01*
X41100Y-50487D01*
X41005Y-50259D01*
X40831Y-50084D01*
X40603Y-49990D01*
X40357Y-49989D01*
X40129Y-50084D01*
X39954Y-50258D01*
X39860Y-50486D01*
X39859Y-50732D01*
X39954Y-50960D01*
X40128Y-51135D01*
X40356Y-51229D01*
X40602Y-51230D01*
X40830Y-51135D01*
X41005Y-50961D01*
X41099Y-50733D01*
X41100Y-50487D01*
X41100Y-51505D01*
X41047Y-51452D01*
X40933Y-51376D01*
X40800Y-51350D01*
X40100Y-51350D01*
X39966Y-51376D01*
X39852Y-51452D01*
X39678Y-51626D01*
X39652Y-51600D01*
X39687Y-51565D01*
X39725Y-51473D01*
X39725Y-51373D01*
X39725Y-50940D01*
X39687Y-50848D01*
X39617Y-50778D01*
X39590Y-50767D01*
X39624Y-50684D01*
X39625Y-50515D01*
X39560Y-50359D01*
X39441Y-50239D01*
X39284Y-50175D01*
X39115Y-50174D01*
X38959Y-50239D01*
X38839Y-50358D01*
X38775Y-50515D01*
X38774Y-50684D01*
X38809Y-50767D01*
X38782Y-50778D01*
X38712Y-50848D01*
X38674Y-50940D01*
X38674Y-51040D01*
X38674Y-51473D01*
X38712Y-51565D01*
X38747Y-51599D01*
X38721Y-51626D01*
X38547Y-51452D01*
X38540Y-51447D01*
X38540Y-50487D01*
X38445Y-50259D01*
X38271Y-50084D01*
X38043Y-49990D01*
X37797Y-49989D01*
X37569Y-50084D01*
X37394Y-50258D01*
X37300Y-50486D01*
X37299Y-50732D01*
X37394Y-50960D01*
X37568Y-51135D01*
X37796Y-51229D01*
X38042Y-51230D01*
X38270Y-51135D01*
X38445Y-50961D01*
X38539Y-50733D01*
X38540Y-50487D01*
X38540Y-51447D01*
X38433Y-51376D01*
X38300Y-51350D01*
X37100Y-51350D01*
X37100Y-50487D01*
X37005Y-50259D01*
X36831Y-50084D01*
X36603Y-49990D01*
X36357Y-49989D01*
X36129Y-50084D01*
X35954Y-50258D01*
X35860Y-50486D01*
X35859Y-50732D01*
X35954Y-50960D01*
X36128Y-51135D01*
X36356Y-51229D01*
X36602Y-51230D01*
X36830Y-51135D01*
X37005Y-50961D01*
X37099Y-50733D01*
X37100Y-50487D01*
X37100Y-51350D01*
X36100Y-51350D01*
X35966Y-51376D01*
X35852Y-51452D01*
X35678Y-51626D01*
X35652Y-51600D01*
X35687Y-51565D01*
X35725Y-51473D01*
X35725Y-51373D01*
X35725Y-50940D01*
X35687Y-50848D01*
X35617Y-50778D01*
X35590Y-50767D01*
X35624Y-50684D01*
X35625Y-50515D01*
X35560Y-50359D01*
X35441Y-50239D01*
X35284Y-50175D01*
X35115Y-50174D01*
X34959Y-50239D01*
X34839Y-50358D01*
X34775Y-50515D01*
X34774Y-50684D01*
X34809Y-50767D01*
X34782Y-50778D01*
X34712Y-50848D01*
X34674Y-50940D01*
X34674Y-51040D01*
X34674Y-51473D01*
X34712Y-51565D01*
X34747Y-51599D01*
X34721Y-51626D01*
X34547Y-51452D01*
X34540Y-51447D01*
X34540Y-50487D01*
X34445Y-50259D01*
X34271Y-50084D01*
X34043Y-49990D01*
X33797Y-49989D01*
X33569Y-50084D01*
X33394Y-50258D01*
X33300Y-50486D01*
X33299Y-50732D01*
X33394Y-50960D01*
X33568Y-51135D01*
X33796Y-51229D01*
X34042Y-51230D01*
X34270Y-51135D01*
X34445Y-50961D01*
X34539Y-50733D01*
X34540Y-50487D01*
X34540Y-51447D01*
X34433Y-51376D01*
X34300Y-51350D01*
X32744Y-51350D01*
X31450Y-50055D01*
X31450Y-49500D01*
X31450Y-49058D01*
X31467Y-49051D01*
X31600Y-48918D01*
X31627Y-48959D01*
X31838Y-49100D01*
X32087Y-49150D01*
X32112Y-49150D01*
X32361Y-49100D01*
X32572Y-48959D01*
X32713Y-48748D01*
X32762Y-48500D01*
X32713Y-48251D01*
X32572Y-48040D01*
X32361Y-47899D01*
X32300Y-47887D01*
X32300Y-46018D01*
X32315Y-46024D01*
X32417Y-46025D01*
X32405Y-46058D01*
X32415Y-46293D01*
X32485Y-46461D01*
X32585Y-46494D01*
X32929Y-46150D01*
X32923Y-46144D01*
X32994Y-46073D01*
X33000Y-46079D01*
X33005Y-46073D01*
X33076Y-46144D01*
X33070Y-46150D01*
X33076Y-46155D01*
X33005Y-46226D01*
X33000Y-46220D01*
X32655Y-46564D01*
X32688Y-46664D01*
X32908Y-46744D01*
X33143Y-46734D01*
X33200Y-46710D01*
X33200Y-47300D01*
X33222Y-47414D01*
X33287Y-47512D01*
X34487Y-48712D01*
X34585Y-48777D01*
X34585Y-48777D01*
X34613Y-48782D01*
X34740Y-48972D01*
X34781Y-48999D01*
X34649Y-49131D01*
X34550Y-49370D01*
X34549Y-49628D01*
X34648Y-49867D01*
X34831Y-50050D01*
X35070Y-50149D01*
X35328Y-50150D01*
X35567Y-50051D01*
X35750Y-49868D01*
X35849Y-49629D01*
X35850Y-49371D01*
X35751Y-49132D01*
X35618Y-48999D01*
X35659Y-48972D01*
X35800Y-48761D01*
X35850Y-48512D01*
X35850Y-48487D01*
X35800Y-48238D01*
X35774Y-48200D01*
X38625Y-48200D01*
X38599Y-48238D01*
X38550Y-48487D01*
X38550Y-48512D01*
X38599Y-48761D01*
X38740Y-48972D01*
X38781Y-48999D01*
X38649Y-49131D01*
X38550Y-49370D01*
X38549Y-49628D01*
X38648Y-49867D01*
X38831Y-50050D01*
X39070Y-50149D01*
X39328Y-50150D01*
X39567Y-50051D01*
X39750Y-49868D01*
X39849Y-49629D01*
X39850Y-49371D01*
X39751Y-49132D01*
X39618Y-48999D01*
X39659Y-48972D01*
X39800Y-48761D01*
X39850Y-48512D01*
X39850Y-48487D01*
X39800Y-48238D01*
X39659Y-48027D01*
X39481Y-47908D01*
X39480Y-47900D01*
X41900Y-47900D01*
X42149Y-47900D01*
X42032Y-47948D01*
X41849Y-48131D01*
X41750Y-48370D01*
X41749Y-48628D01*
X41848Y-48867D01*
X41981Y-49000D01*
X41940Y-49027D01*
X41799Y-49238D01*
X41750Y-49487D01*
X41750Y-49512D01*
X41799Y-49761D01*
X41940Y-49972D01*
X42151Y-50113D01*
X42349Y-50152D01*
X42349Y-50202D01*
X42287Y-50140D01*
X42174Y-50140D01*
X42074Y-50140D01*
X41982Y-50178D01*
X41912Y-50248D01*
X41874Y-50340D01*
X41874Y-50494D01*
X41937Y-50557D01*
X42350Y-50557D01*
X42350Y-50549D01*
X42450Y-50549D01*
X42450Y-50557D01*
X42863Y-50557D01*
X42900Y-50520D01*
X42937Y-50557D01*
X43350Y-50557D01*
X43350Y-50549D01*
X43450Y-50549D01*
X43450Y-50557D01*
X43863Y-50557D01*
X43900Y-50520D01*
X43937Y-50557D01*
X44350Y-50557D01*
X44350Y-50549D01*
X44450Y-50549D01*
X44450Y-50557D01*
X44863Y-50557D01*
X44900Y-50520D01*
X44937Y-50557D01*
X45350Y-50557D01*
X45350Y-50549D01*
X45450Y-50549D01*
X45450Y-50557D01*
X45863Y-50557D01*
X45900Y-50520D01*
X45937Y-50557D01*
X46350Y-50557D01*
X46350Y-50549D01*
X46450Y-50549D01*
X46450Y-50557D01*
X46863Y-50557D01*
X46900Y-50520D01*
X46937Y-50557D01*
X47350Y-50557D01*
X47350Y-50549D01*
X47450Y-50549D01*
X47450Y-50557D01*
X47863Y-50557D01*
X47900Y-50520D01*
X47937Y-50557D01*
X48350Y-50557D01*
X48350Y-50549D01*
X48450Y-50549D01*
X48450Y-50557D01*
X48863Y-50557D01*
X48900Y-50520D01*
X48937Y-50557D01*
X49350Y-50557D01*
X49350Y-50549D01*
X49450Y-50549D01*
X49450Y-50557D01*
X49863Y-50557D01*
X49925Y-50494D01*
X49925Y-50340D01*
X49887Y-50248D01*
X49817Y-50178D01*
X49725Y-50140D01*
X49625Y-50140D01*
X49512Y-50140D01*
X49450Y-50202D01*
X49450Y-50152D01*
X49648Y-50113D01*
X49859Y-49972D01*
X50000Y-49761D01*
X50050Y-49512D01*
X50050Y-49487D01*
X50000Y-49238D01*
X49859Y-49027D01*
X49818Y-49000D01*
X49950Y-48868D01*
X50049Y-48629D01*
X50050Y-48371D01*
X49951Y-48132D01*
X49768Y-47949D01*
X49529Y-47850D01*
X49271Y-47849D01*
X49032Y-47948D01*
X48899Y-48080D01*
X48768Y-47949D01*
X48529Y-47850D01*
X48271Y-47849D01*
X48032Y-47948D01*
X47899Y-48080D01*
X47768Y-47949D01*
X47529Y-47850D01*
X47271Y-47849D01*
X47032Y-47948D01*
X46899Y-48080D01*
X46768Y-47949D01*
X46529Y-47850D01*
X46271Y-47849D01*
X46032Y-47948D01*
X45899Y-48080D01*
X45768Y-47949D01*
X45700Y-47920D01*
X45700Y-47600D01*
X45677Y-47485D01*
X45612Y-47387D01*
X45612Y-47387D01*
X45293Y-47069D01*
X64000Y-47069D01*
X64103Y-47049D01*
X64190Y-46990D01*
X64249Y-46903D01*
X64269Y-46800D01*
X64269Y-36650D01*
X65948Y-36650D01*
X65958Y-36660D01*
X66115Y-36724D01*
X66284Y-36725D01*
X66440Y-36660D01*
X66560Y-36541D01*
X66597Y-36451D01*
X66682Y-36578D01*
X66789Y-36650D01*
X66682Y-36721D01*
X66554Y-36912D01*
X66510Y-37138D01*
X66510Y-37161D01*
X66554Y-37387D01*
X66682Y-37578D01*
X66789Y-37650D01*
X66682Y-37721D01*
X66554Y-37912D01*
X66510Y-38138D01*
X66510Y-38161D01*
X66554Y-38387D01*
X66682Y-38578D01*
X66789Y-38650D01*
X66682Y-38721D01*
X66554Y-38912D01*
X66510Y-39138D01*
X66510Y-39161D01*
X66554Y-39387D01*
X66682Y-39578D01*
X66789Y-39650D01*
X66682Y-39721D01*
X66554Y-39912D01*
X66510Y-40138D01*
X66510Y-40161D01*
X66554Y-40387D01*
X66682Y-40578D01*
X66789Y-40649D01*
X66624Y-40800D01*
X66527Y-41008D01*
X66574Y-41100D01*
X67050Y-41100D01*
X67050Y-41092D01*
X67150Y-41092D01*
X67150Y-41100D01*
X67157Y-41100D01*
X67157Y-41200D01*
X67150Y-41200D01*
X67150Y-41207D01*
X67050Y-41207D01*
X67050Y-41200D01*
X66574Y-41200D01*
X66527Y-41291D01*
X66624Y-41499D01*
X66789Y-41650D01*
X66682Y-41721D01*
X66554Y-41912D01*
X66510Y-42138D01*
X66510Y-42161D01*
X66554Y-42387D01*
X66682Y-42578D01*
X66789Y-42650D01*
X66682Y-42721D01*
X66554Y-42912D01*
X66510Y-43138D01*
X66510Y-43161D01*
X66554Y-43387D01*
X66682Y-43578D01*
X66789Y-43650D01*
X66682Y-43721D01*
X66554Y-43912D01*
X66510Y-44138D01*
X66510Y-44161D01*
X66554Y-44387D01*
X66682Y-44578D01*
X66789Y-44650D01*
X66682Y-44721D01*
X66554Y-44912D01*
X66510Y-45138D01*
X66510Y-45161D01*
X66554Y-45387D01*
X66682Y-45578D01*
X66789Y-45650D01*
X66682Y-45721D01*
X66554Y-45912D01*
X66510Y-46138D01*
X66510Y-46161D01*
X66554Y-46387D01*
X66682Y-46578D01*
X66874Y-46706D01*
X67100Y-46751D01*
X67325Y-46706D01*
X67517Y-46578D01*
X67602Y-46451D01*
X67624Y-46499D01*
X67794Y-46654D01*
X67843Y-46674D01*
G54D10*
G36*
X68157Y-46200D02*
X68150Y-46200D01*
X68150Y-46207D01*
X68050Y-46207D01*
X68050Y-46200D01*
X68042Y-46200D01*
X68042Y-46100D01*
X68050Y-46100D01*
X68050Y-46092D01*
X68150Y-46092D01*
X68150Y-46100D01*
X68157Y-46100D01*
X68157Y-46200D01*
X68157Y-46200D01*
G37*
G54D23*
X68157Y-46200D02*
X68150Y-46200D01*
X68150Y-46207D01*
X68050Y-46207D01*
X68050Y-46200D01*
X68042Y-46200D01*
X68042Y-46100D01*
X68050Y-46100D01*
X68050Y-46092D01*
X68150Y-46092D01*
X68150Y-46100D01*
X68157Y-46100D01*
X68157Y-46200D01*
G54D10*
G36*
X68484Y-26699D02*
X68340Y-26603D01*
X68340Y-22833D01*
X68212Y-22524D01*
X67976Y-22287D01*
X67667Y-22159D01*
X67333Y-22159D01*
X67024Y-22287D01*
X66787Y-22523D01*
X66659Y-22832D01*
X66659Y-23166D01*
X66787Y-23475D01*
X67023Y-23712D01*
X67332Y-23840D01*
X67666Y-23840D01*
X67975Y-23712D01*
X68212Y-23476D01*
X68340Y-23167D01*
X68340Y-22833D01*
X68340Y-26603D01*
X68325Y-26593D01*
X68100Y-26548D01*
X67874Y-26593D01*
X67682Y-26721D01*
X67606Y-26835D01*
X67514Y-26805D01*
X67444Y-26876D01*
X67444Y-26735D01*
X67411Y-26635D01*
X67191Y-26555D01*
X66956Y-26565D01*
X66788Y-26635D01*
X66755Y-26735D01*
X67100Y-27079D01*
X67444Y-26735D01*
X67444Y-26876D01*
X67170Y-27150D01*
X67514Y-27494D01*
X67606Y-27464D01*
X67682Y-27578D01*
X67789Y-27650D01*
X67682Y-27721D01*
X67600Y-27845D01*
X67517Y-27721D01*
X67415Y-27653D01*
X67444Y-27564D01*
X67100Y-27220D01*
X67029Y-27291D01*
X67029Y-27150D01*
X66685Y-26805D01*
X66585Y-26838D01*
X66505Y-27058D01*
X66515Y-27293D01*
X66585Y-27461D01*
X66685Y-27494D01*
X67029Y-27150D01*
X67029Y-27291D01*
X66755Y-27564D01*
X66784Y-27653D01*
X66682Y-27721D01*
X66554Y-27912D01*
X66510Y-28138D01*
X66510Y-28161D01*
X66554Y-28387D01*
X66682Y-28578D01*
X66789Y-28650D01*
X66682Y-28721D01*
X66599Y-28845D01*
X66624Y-28784D01*
X66625Y-28615D01*
X66560Y-28459D01*
X66441Y-28339D01*
X66284Y-28275D01*
X66115Y-28274D01*
X65959Y-28339D01*
X65839Y-28458D01*
X65775Y-28615D01*
X65774Y-28784D01*
X65798Y-28840D01*
X65574Y-28840D01*
X65482Y-28878D01*
X65412Y-28948D01*
X65374Y-29040D01*
X65374Y-29140D01*
X65374Y-29573D01*
X65412Y-29665D01*
X65447Y-29700D01*
X65412Y-29734D01*
X65374Y-29826D01*
X65374Y-29980D01*
X65437Y-30043D01*
X65850Y-30043D01*
X65850Y-30035D01*
X65950Y-30035D01*
X65950Y-30043D01*
X66363Y-30043D01*
X66425Y-29980D01*
X66425Y-29826D01*
X66387Y-29734D01*
X66352Y-29700D01*
X66387Y-29665D01*
X66425Y-29573D01*
X66425Y-29473D01*
X66425Y-29369D01*
X66447Y-29347D01*
X66523Y-29233D01*
X66523Y-29233D01*
X66523Y-29231D01*
X66554Y-29387D01*
X66682Y-29578D01*
X66789Y-29650D01*
X66682Y-29721D01*
X66554Y-29912D01*
X66510Y-30138D01*
X66510Y-30161D01*
X66554Y-30387D01*
X66682Y-30578D01*
X66789Y-30650D01*
X66682Y-30721D01*
X66554Y-30912D01*
X66510Y-31138D01*
X66510Y-31161D01*
X66554Y-31387D01*
X66682Y-31578D01*
X66789Y-31650D01*
X66682Y-31721D01*
X66554Y-31912D01*
X66510Y-32138D01*
X66510Y-32161D01*
X66554Y-32387D01*
X66682Y-32578D01*
X66789Y-32650D01*
X66682Y-32721D01*
X66554Y-32912D01*
X66510Y-33138D01*
X66510Y-33161D01*
X66554Y-33387D01*
X66682Y-33578D01*
X66789Y-33650D01*
X66682Y-33721D01*
X66554Y-33912D01*
X66510Y-34138D01*
X66510Y-34161D01*
X66554Y-34387D01*
X66682Y-34578D01*
X66789Y-34650D01*
X66682Y-34721D01*
X66554Y-34912D01*
X66510Y-35138D01*
X66510Y-35161D01*
X66554Y-35387D01*
X66682Y-35578D01*
X66789Y-35650D01*
X66682Y-35721D01*
X66554Y-35912D01*
X66531Y-36030D01*
X66441Y-35939D01*
X66425Y-35933D01*
X66425Y-30359D01*
X66425Y-30205D01*
X66363Y-30143D01*
X65950Y-30143D01*
X65950Y-30150D01*
X65850Y-30150D01*
X65850Y-30143D01*
X65437Y-30143D01*
X65374Y-30205D01*
X65374Y-30350D01*
X65151Y-30350D01*
X65141Y-30339D01*
X64984Y-30275D01*
X64815Y-30274D01*
X64659Y-30339D01*
X64539Y-30458D01*
X64475Y-30615D01*
X64474Y-30784D01*
X64539Y-30940D01*
X64658Y-31060D01*
X64815Y-31124D01*
X64984Y-31125D01*
X65140Y-31060D01*
X65150Y-31050D01*
X65548Y-31050D01*
X65558Y-31060D01*
X65715Y-31124D01*
X65884Y-31125D01*
X66040Y-31060D01*
X66160Y-30941D01*
X66224Y-30784D01*
X66225Y-30615D01*
X66201Y-30559D01*
X66225Y-30559D01*
X66317Y-30521D01*
X66387Y-30451D01*
X66425Y-30359D01*
X66425Y-35933D01*
X66284Y-35875D01*
X66115Y-35874D01*
X65959Y-35939D01*
X65949Y-35950D01*
X63951Y-35950D01*
X63941Y-35939D01*
X63784Y-35875D01*
X63615Y-35874D01*
X63459Y-35939D01*
X63339Y-36058D01*
X63275Y-36215D01*
X63274Y-36330D01*
X36599Y-36330D01*
X36599Y-35926D01*
X36599Y-35277D01*
X36599Y-35177D01*
X36599Y-34527D01*
X36520Y-34479D01*
X36501Y-34481D01*
X36325Y-34575D01*
X36199Y-34729D01*
X36142Y-34919D01*
X36142Y-35177D01*
X36599Y-35177D01*
X36599Y-35277D01*
X36142Y-35277D01*
X36142Y-35534D01*
X36199Y-35724D01*
X36325Y-35878D01*
X36501Y-35972D01*
X36520Y-35974D01*
X36599Y-35926D01*
X36599Y-36330D01*
X34800Y-36330D01*
X34696Y-36350D01*
X34609Y-36409D01*
X34550Y-36496D01*
X34530Y-36600D01*
X34530Y-37806D01*
X34412Y-37687D01*
X34314Y-37622D01*
X34200Y-37600D01*
X34001Y-37600D01*
X33941Y-37539D01*
X33784Y-37475D01*
X33650Y-37474D01*
X33650Y-37244D01*
X35147Y-35747D01*
X35223Y-35633D01*
X35223Y-35633D01*
X35250Y-35500D01*
X35250Y-32000D01*
X35223Y-31866D01*
X35223Y-31866D01*
X35147Y-31752D01*
X34494Y-31100D01*
X35344Y-30250D01*
X36806Y-30250D01*
X36812Y-30265D01*
X36847Y-30300D01*
X36812Y-30334D01*
X36774Y-30426D01*
X36774Y-30580D01*
X36837Y-30643D01*
X37250Y-30643D01*
X37250Y-30635D01*
X37350Y-30635D01*
X37350Y-30643D01*
X37763Y-30643D01*
X37825Y-30580D01*
X37825Y-30426D01*
X37787Y-30334D01*
X37752Y-30300D01*
X37787Y-30265D01*
X37790Y-30257D01*
X39155Y-30257D01*
X39158Y-30260D01*
X39315Y-30324D01*
X39484Y-30325D01*
X39640Y-30260D01*
X39760Y-30141D01*
X39824Y-29984D01*
X39825Y-29815D01*
X39760Y-29659D01*
X39750Y-29649D01*
X39750Y-29051D01*
X39921Y-29114D01*
X40167Y-29104D01*
X40349Y-29029D01*
X40385Y-28926D01*
X40020Y-28560D01*
X40014Y-28566D01*
X39943Y-28495D01*
X39949Y-28490D01*
X39583Y-28124D01*
X39535Y-28140D01*
X38925Y-27530D01*
X38925Y-27515D01*
X38860Y-27359D01*
X38741Y-27239D01*
X38584Y-27175D01*
X38415Y-27174D01*
X38259Y-27239D01*
X38139Y-27358D01*
X38075Y-27515D01*
X38074Y-27684D01*
X38139Y-27840D01*
X38258Y-27960D01*
X38415Y-28024D01*
X38429Y-28024D01*
X39050Y-28644D01*
X39050Y-29557D01*
X37790Y-29557D01*
X37787Y-29548D01*
X37717Y-29478D01*
X37650Y-29450D01*
X37650Y-28751D01*
X37660Y-28741D01*
X37724Y-28584D01*
X37725Y-28415D01*
X37660Y-28259D01*
X37541Y-28139D01*
X37384Y-28075D01*
X37215Y-28074D01*
X37059Y-28139D01*
X36939Y-28258D01*
X36875Y-28415D01*
X36874Y-28584D01*
X36939Y-28740D01*
X36950Y-28750D01*
X36950Y-29450D01*
X36882Y-29478D01*
X36812Y-29548D01*
X36812Y-29550D01*
X35200Y-29550D01*
X35066Y-29576D01*
X34952Y-29652D01*
X34852Y-29752D01*
X34500Y-30105D01*
X34500Y-26977D01*
X34540Y-26960D01*
X34660Y-26841D01*
X34724Y-26684D01*
X34725Y-26515D01*
X34677Y-26400D01*
X39477Y-26400D01*
X39400Y-26586D01*
X39399Y-26832D01*
X39494Y-27060D01*
X39668Y-27235D01*
X39896Y-27329D01*
X40142Y-27330D01*
X40370Y-27235D01*
X40545Y-27061D01*
X40568Y-27007D01*
X40788Y-27007D01*
X40812Y-27065D01*
X40847Y-27099D01*
X40812Y-27134D01*
X40774Y-27226D01*
X40774Y-27326D01*
X40774Y-27759D01*
X40812Y-27851D01*
X40882Y-27921D01*
X40950Y-27949D01*
X40950Y-28048D01*
X40939Y-28058D01*
X40875Y-28215D01*
X40874Y-28384D01*
X40939Y-28540D01*
X41058Y-28660D01*
X41215Y-28724D01*
X41384Y-28725D01*
X41540Y-28660D01*
X41660Y-28541D01*
X41724Y-28384D01*
X41725Y-28215D01*
X41660Y-28059D01*
X41650Y-28049D01*
X41650Y-27949D01*
X41717Y-27921D01*
X41787Y-27851D01*
X41825Y-27759D01*
X41825Y-27659D01*
X41825Y-27226D01*
X41787Y-27134D01*
X41752Y-27100D01*
X41787Y-27065D01*
X41810Y-27010D01*
X42033Y-27010D01*
X42054Y-27060D01*
X42228Y-27235D01*
X42456Y-27329D01*
X42702Y-27330D01*
X42930Y-27235D01*
X43105Y-27061D01*
X43126Y-27010D01*
X43385Y-27010D01*
X43700Y-27324D01*
X43700Y-29400D01*
X43722Y-29514D01*
X43787Y-29612D01*
X45487Y-31312D01*
X45585Y-31377D01*
X45700Y-31400D01*
X46440Y-31400D01*
X46440Y-31474D01*
X46440Y-31587D01*
X46503Y-31650D01*
X46857Y-31650D01*
X46857Y-31642D01*
X46957Y-31642D01*
X46957Y-31650D01*
X46964Y-31650D01*
X46964Y-31750D01*
X46957Y-31750D01*
X46957Y-32163D01*
X47019Y-32225D01*
X47173Y-32225D01*
X47265Y-32187D01*
X47299Y-32152D01*
X47334Y-32187D01*
X47426Y-32225D01*
X47526Y-32225D01*
X47959Y-32225D01*
X48051Y-32187D01*
X48121Y-32117D01*
X48132Y-32090D01*
X48215Y-32124D01*
X48384Y-32125D01*
X48540Y-32060D01*
X48660Y-31941D01*
X48724Y-31784D01*
X48725Y-31615D01*
X48660Y-31459D01*
X48541Y-31339D01*
X48387Y-31275D01*
X48424Y-31184D01*
X48425Y-31015D01*
X48360Y-30859D01*
X48241Y-30739D01*
X48144Y-30699D01*
X48240Y-30660D01*
X48360Y-30541D01*
X48424Y-30384D01*
X48425Y-30215D01*
X48360Y-30059D01*
X48241Y-29939D01*
X48144Y-29899D01*
X48240Y-29860D01*
X48360Y-29741D01*
X48424Y-29584D01*
X48425Y-29415D01*
X48360Y-29259D01*
X48241Y-29139D01*
X48084Y-29075D01*
X47915Y-29074D01*
X47759Y-29139D01*
X47698Y-29200D01*
X46925Y-29200D01*
X46925Y-26359D01*
X46925Y-26259D01*
X46925Y-25826D01*
X46887Y-25734D01*
X46852Y-25700D01*
X46887Y-25665D01*
X46925Y-25573D01*
X46925Y-25419D01*
X46925Y-25194D01*
X46925Y-25040D01*
X46887Y-24948D01*
X46817Y-24878D01*
X46725Y-24840D01*
X46625Y-24840D01*
X46512Y-24840D01*
X46450Y-24903D01*
X46450Y-25257D01*
X46863Y-25257D01*
X46925Y-25194D01*
X46925Y-25419D01*
X46863Y-25357D01*
X46450Y-25357D01*
X46450Y-25364D01*
X46350Y-25364D01*
X46350Y-25357D01*
X46350Y-25257D01*
X46350Y-24903D01*
X46287Y-24840D01*
X46174Y-24840D01*
X46074Y-24840D01*
X45982Y-24878D01*
X45912Y-24948D01*
X45874Y-25040D01*
X45874Y-25194D01*
X45937Y-25257D01*
X46350Y-25257D01*
X46350Y-25357D01*
X45937Y-25357D01*
X45874Y-25419D01*
X45874Y-25573D01*
X45912Y-25665D01*
X45947Y-25699D01*
X45912Y-25734D01*
X45874Y-25826D01*
X45874Y-25926D01*
X45874Y-26359D01*
X45912Y-26451D01*
X45982Y-26521D01*
X46074Y-26559D01*
X46100Y-26559D01*
X46100Y-26798D01*
X46039Y-26858D01*
X45975Y-27015D01*
X45974Y-27184D01*
X46039Y-27340D01*
X46158Y-27460D01*
X46315Y-27524D01*
X46484Y-27525D01*
X46640Y-27460D01*
X46760Y-27341D01*
X46824Y-27184D01*
X46825Y-27015D01*
X46760Y-26859D01*
X46700Y-26798D01*
X46700Y-26559D01*
X46725Y-26559D01*
X46817Y-26521D01*
X46887Y-26451D01*
X46925Y-26359D01*
X46925Y-29200D01*
X46224Y-29200D01*
X45600Y-28575D01*
X45600Y-25200D01*
X45577Y-25085D01*
X45577Y-25085D01*
X45512Y-24987D01*
X44414Y-23889D01*
X44616Y-23890D01*
X44833Y-23800D01*
X44999Y-23634D01*
X45000Y-23634D01*
X45165Y-23799D01*
X45382Y-23889D01*
X45616Y-23890D01*
X45833Y-23800D01*
X45999Y-23634D01*
X46000Y-23634D01*
X46165Y-23799D01*
X46382Y-23889D01*
X46616Y-23890D01*
X46833Y-23800D01*
X46999Y-23634D01*
X47000Y-23634D01*
X47165Y-23799D01*
X47382Y-23889D01*
X47616Y-23890D01*
X47833Y-23800D01*
X47999Y-23634D01*
X48000Y-23634D01*
X48165Y-23799D01*
X48382Y-23889D01*
X48616Y-23890D01*
X48833Y-23800D01*
X48999Y-23634D01*
X49000Y-23634D01*
X49165Y-23799D01*
X49382Y-23889D01*
X49616Y-23890D01*
X49833Y-23800D01*
X49999Y-23634D01*
X50000Y-23634D01*
X50165Y-23799D01*
X50382Y-23889D01*
X50616Y-23890D01*
X50833Y-23800D01*
X50999Y-23634D01*
X51000Y-23634D01*
X51165Y-23799D01*
X51382Y-23889D01*
X51616Y-23890D01*
X51833Y-23800D01*
X51999Y-23634D01*
X52000Y-23634D01*
X52165Y-23799D01*
X52382Y-23889D01*
X52585Y-23890D01*
X52400Y-24075D01*
X52315Y-24074D01*
X52159Y-24139D01*
X52039Y-24258D01*
X51975Y-24415D01*
X51974Y-24584D01*
X52039Y-24740D01*
X52158Y-24860D01*
X52315Y-24924D01*
X52484Y-24925D01*
X52640Y-24860D01*
X52760Y-24741D01*
X52824Y-24584D01*
X52825Y-24499D01*
X53434Y-23889D01*
X53616Y-23890D01*
X53833Y-23800D01*
X53999Y-23634D01*
X54000Y-23634D01*
X54165Y-23799D01*
X54382Y-23889D01*
X54616Y-23890D01*
X54833Y-23800D01*
X54999Y-23634D01*
X55000Y-23634D01*
X55165Y-23799D01*
X55382Y-23889D01*
X55616Y-23890D01*
X55833Y-23800D01*
X55999Y-23634D01*
X56000Y-23634D01*
X56165Y-23799D01*
X56382Y-23889D01*
X56616Y-23890D01*
X56833Y-23800D01*
X56999Y-23634D01*
X57000Y-23634D01*
X57165Y-23799D01*
X57382Y-23889D01*
X57616Y-23890D01*
X57833Y-23800D01*
X57999Y-23634D01*
X58000Y-23634D01*
X58165Y-23799D01*
X58382Y-23889D01*
X58616Y-23890D01*
X58833Y-23800D01*
X58999Y-23634D01*
X59000Y-23634D01*
X59165Y-23799D01*
X59382Y-23889D01*
X59616Y-23890D01*
X59833Y-23800D01*
X59999Y-23634D01*
X60000Y-23634D01*
X60165Y-23799D01*
X60303Y-23857D01*
X60278Y-23882D01*
X60240Y-23974D01*
X60240Y-24000D01*
X55400Y-24000D01*
X55285Y-24022D01*
X55187Y-24087D01*
X53324Y-25950D01*
X53325Y-25815D01*
X53260Y-25659D01*
X53251Y-25650D01*
X53260Y-25641D01*
X53324Y-25484D01*
X53325Y-25315D01*
X53260Y-25159D01*
X53141Y-25039D01*
X52984Y-24975D01*
X52815Y-24974D01*
X52659Y-25039D01*
X52598Y-25100D01*
X52001Y-25100D01*
X51941Y-25039D01*
X51784Y-24975D01*
X51615Y-24974D01*
X51459Y-25039D01*
X51339Y-25158D01*
X51275Y-25315D01*
X51274Y-25484D01*
X51339Y-25640D01*
X51348Y-25649D01*
X51339Y-25658D01*
X51275Y-25815D01*
X51274Y-25984D01*
X51339Y-26140D01*
X51458Y-26260D01*
X51615Y-26324D01*
X51784Y-26325D01*
X51940Y-26260D01*
X52001Y-26200D01*
X52598Y-26200D01*
X52658Y-26260D01*
X52815Y-26324D01*
X52950Y-26325D01*
X51887Y-27387D01*
X51822Y-27485D01*
X51800Y-27600D01*
X51800Y-30698D01*
X51761Y-30737D01*
X51700Y-30675D01*
X51700Y-28900D01*
X51677Y-28785D01*
X51624Y-28707D01*
X51624Y-28707D01*
X51625Y-28615D01*
X51560Y-28459D01*
X51441Y-28339D01*
X51284Y-28275D01*
X51115Y-28274D01*
X51000Y-28322D01*
X51000Y-26000D01*
X50977Y-25885D01*
X50977Y-25885D01*
X50912Y-25787D01*
X49924Y-24800D01*
X49925Y-24715D01*
X49860Y-24559D01*
X49741Y-24439D01*
X49584Y-24375D01*
X49415Y-24374D01*
X49259Y-24439D01*
X49139Y-24558D01*
X49075Y-24715D01*
X49074Y-24884D01*
X49139Y-25040D01*
X49258Y-25160D01*
X49415Y-25224D01*
X49500Y-25225D01*
X50400Y-26124D01*
X50400Y-30275D01*
X50325Y-30350D01*
X50325Y-28615D01*
X50260Y-28459D01*
X50200Y-28398D01*
X50200Y-27701D01*
X50260Y-27641D01*
X50324Y-27484D01*
X50325Y-27315D01*
X50260Y-27159D01*
X50141Y-27039D01*
X49984Y-26975D01*
X49815Y-26974D01*
X49659Y-27039D01*
X49539Y-27158D01*
X49499Y-27255D01*
X49460Y-27159D01*
X49399Y-27098D01*
X49377Y-26985D01*
X49312Y-26887D01*
X49312Y-26887D01*
X48800Y-26375D01*
X48800Y-26101D01*
X48860Y-26041D01*
X48924Y-25884D01*
X48925Y-25715D01*
X48860Y-25559D01*
X48741Y-25439D01*
X48584Y-25375D01*
X48415Y-25374D01*
X48325Y-25412D01*
X48325Y-25194D01*
X48325Y-25040D01*
X48287Y-24948D01*
X48217Y-24878D01*
X48125Y-24840D01*
X48025Y-24840D01*
X47912Y-24840D01*
X47850Y-24903D01*
X47850Y-25257D01*
X48263Y-25257D01*
X48325Y-25194D01*
X48325Y-25412D01*
X48320Y-25414D01*
X48263Y-25357D01*
X47850Y-25357D01*
X47850Y-25364D01*
X47750Y-25364D01*
X47750Y-25357D01*
X47750Y-25257D01*
X47750Y-24903D01*
X47687Y-24840D01*
X47574Y-24840D01*
X47474Y-24840D01*
X47382Y-24878D01*
X47312Y-24948D01*
X47274Y-25040D01*
X47274Y-25194D01*
X47337Y-25257D01*
X47750Y-25257D01*
X47750Y-25357D01*
X47337Y-25357D01*
X47274Y-25419D01*
X47274Y-25573D01*
X47312Y-25665D01*
X47347Y-25699D01*
X47312Y-25734D01*
X47274Y-25826D01*
X47274Y-25926D01*
X47274Y-26359D01*
X47286Y-26387D01*
X47159Y-26439D01*
X47039Y-26558D01*
X46975Y-26715D01*
X46974Y-26884D01*
X47039Y-27040D01*
X47158Y-27160D01*
X47315Y-27224D01*
X47484Y-27225D01*
X47640Y-27160D01*
X47760Y-27041D01*
X47824Y-26884D01*
X47825Y-26799D01*
X48012Y-26612D01*
X48047Y-26559D01*
X48125Y-26559D01*
X48205Y-26526D01*
X48222Y-26614D01*
X48287Y-26712D01*
X48738Y-27162D01*
X48675Y-27315D01*
X48674Y-27484D01*
X48739Y-27640D01*
X48858Y-27760D01*
X49015Y-27824D01*
X49184Y-27825D01*
X49340Y-27760D01*
X49460Y-27641D01*
X49500Y-27544D01*
X49539Y-27640D01*
X49600Y-27701D01*
X49600Y-28398D01*
X49539Y-28458D01*
X49475Y-28615D01*
X49474Y-28784D01*
X49539Y-28940D01*
X49658Y-29060D01*
X49815Y-29124D01*
X49984Y-29125D01*
X50140Y-29060D01*
X50260Y-28941D01*
X50324Y-28784D01*
X50325Y-28615D01*
X50325Y-30350D01*
X49724Y-30950D01*
X49725Y-30815D01*
X49660Y-30659D01*
X49541Y-30539D01*
X49384Y-30475D01*
X49370Y-30475D01*
X49250Y-30355D01*
X49250Y-30200D01*
X49250Y-28951D01*
X49260Y-28941D01*
X49324Y-28784D01*
X49325Y-28615D01*
X49260Y-28459D01*
X49141Y-28339D01*
X48984Y-28275D01*
X48815Y-28274D01*
X48659Y-28339D01*
X48539Y-28458D01*
X48475Y-28615D01*
X48474Y-28784D01*
X48539Y-28940D01*
X48550Y-28950D01*
X48550Y-30200D01*
X48550Y-30500D01*
X48576Y-30633D01*
X48652Y-30747D01*
X48874Y-30969D01*
X48874Y-30984D01*
X48939Y-31140D01*
X49058Y-31260D01*
X49215Y-31324D01*
X49384Y-31325D01*
X49417Y-31311D01*
X49400Y-31400D01*
X49400Y-31700D01*
X49422Y-31814D01*
X49475Y-31892D01*
X49474Y-31984D01*
X49539Y-32140D01*
X49648Y-32250D01*
X47600Y-32250D01*
X47466Y-32276D01*
X47352Y-32352D01*
X46857Y-32848D01*
X46857Y-32163D01*
X46857Y-31750D01*
X46503Y-31750D01*
X46440Y-31812D01*
X46440Y-31925D01*
X46440Y-32025D01*
X46478Y-32117D01*
X46548Y-32187D01*
X46640Y-32225D01*
X46794Y-32225D01*
X46857Y-32163D01*
X46857Y-32848D01*
X46830Y-32874D01*
X46815Y-32874D01*
X46659Y-32939D01*
X46649Y-32950D01*
X45125Y-32950D01*
X45125Y-32805D01*
X45063Y-32743D01*
X44650Y-32743D01*
X44650Y-32750D01*
X44550Y-32750D01*
X44550Y-32743D01*
X44542Y-32743D01*
X44542Y-32643D01*
X44550Y-32643D01*
X44550Y-32635D01*
X44650Y-32635D01*
X44650Y-32643D01*
X45063Y-32643D01*
X45125Y-32580D01*
X45125Y-32487D01*
X45215Y-32524D01*
X45384Y-32525D01*
X45540Y-32460D01*
X45660Y-32341D01*
X45724Y-32184D01*
X45725Y-32015D01*
X45660Y-31859D01*
X45541Y-31739D01*
X45384Y-31675D01*
X45215Y-31674D01*
X45133Y-31709D01*
X45125Y-31701D01*
X45125Y-31640D01*
X45087Y-31548D01*
X45017Y-31478D01*
X44925Y-31440D01*
X44825Y-31440D01*
X44274Y-31440D01*
X44182Y-31478D01*
X44150Y-31511D01*
X44117Y-31478D01*
X44025Y-31440D01*
X43925Y-31440D01*
X43374Y-31440D01*
X43282Y-31478D01*
X43212Y-31548D01*
X43204Y-31568D01*
X43204Y-28588D01*
X43194Y-28342D01*
X43119Y-28160D01*
X43016Y-28124D01*
X42945Y-28194D01*
X42945Y-28053D01*
X42909Y-27950D01*
X42678Y-27865D01*
X42432Y-27875D01*
X42250Y-27950D01*
X42214Y-28053D01*
X42580Y-28419D01*
X42945Y-28053D01*
X42945Y-28194D01*
X42650Y-28490D01*
X43016Y-28855D01*
X43119Y-28819D01*
X43204Y-28588D01*
X43204Y-31568D01*
X43174Y-31640D01*
X43174Y-31673D01*
X43141Y-31639D01*
X42984Y-31575D01*
X42945Y-31575D01*
X42945Y-28926D01*
X42580Y-28560D01*
X42509Y-28631D01*
X42509Y-28490D01*
X42143Y-28124D01*
X42040Y-28160D01*
X41955Y-28391D01*
X41965Y-28637D01*
X42040Y-28819D01*
X42143Y-28855D01*
X42509Y-28490D01*
X42509Y-28631D01*
X42214Y-28926D01*
X42250Y-29029D01*
X42481Y-29114D01*
X42727Y-29104D01*
X42909Y-29029D01*
X42945Y-28926D01*
X42945Y-31575D01*
X42815Y-31574D01*
X42659Y-31639D01*
X42539Y-31758D01*
X42475Y-31915D01*
X42474Y-32084D01*
X42539Y-32240D01*
X42658Y-32360D01*
X42815Y-32424D01*
X42829Y-32424D01*
X43174Y-32769D01*
X43174Y-32959D01*
X43212Y-33051D01*
X43282Y-33121D01*
X43374Y-33159D01*
X43474Y-33159D01*
X43564Y-33159D01*
X43952Y-33547D01*
X44066Y-33623D01*
X44066Y-33623D01*
X44200Y-33650D01*
X46648Y-33650D01*
X46658Y-33660D01*
X46815Y-33724D01*
X46984Y-33725D01*
X47140Y-33660D01*
X47260Y-33541D01*
X47324Y-33384D01*
X47324Y-33370D01*
X47744Y-32950D01*
X48248Y-32950D01*
X48239Y-32958D01*
X48175Y-33115D01*
X48174Y-33284D01*
X48239Y-33440D01*
X48358Y-33560D01*
X48515Y-33624D01*
X48529Y-33624D01*
X49252Y-34347D01*
X49366Y-34423D01*
X49366Y-34423D01*
X49500Y-34450D01*
X49636Y-34450D01*
X49454Y-34486D01*
X49290Y-34596D01*
X49180Y-34760D01*
X49149Y-34919D01*
X49117Y-34760D01*
X49007Y-34596D01*
X48843Y-34486D01*
X48649Y-34447D01*
X48454Y-34486D01*
X48290Y-34596D01*
X48180Y-34760D01*
X48149Y-34919D01*
X48117Y-34760D01*
X48007Y-34596D01*
X47843Y-34486D01*
X47649Y-34447D01*
X47454Y-34486D01*
X47290Y-34596D01*
X47180Y-34760D01*
X47149Y-34919D01*
X47117Y-34760D01*
X47007Y-34596D01*
X46843Y-34486D01*
X46649Y-34447D01*
X46454Y-34486D01*
X46290Y-34596D01*
X46180Y-34760D01*
X46149Y-34919D01*
X46117Y-34760D01*
X46007Y-34596D01*
X45843Y-34486D01*
X45649Y-34447D01*
X45454Y-34486D01*
X45290Y-34596D01*
X45180Y-34760D01*
X45149Y-34919D01*
X45117Y-34760D01*
X45007Y-34596D01*
X44843Y-34486D01*
X44649Y-34447D01*
X44454Y-34486D01*
X44290Y-34596D01*
X44180Y-34760D01*
X44149Y-34919D01*
X44117Y-34760D01*
X44007Y-34596D01*
X43843Y-34486D01*
X43649Y-34447D01*
X43454Y-34486D01*
X43290Y-34596D01*
X43180Y-34760D01*
X43149Y-34919D01*
X43117Y-34760D01*
X43007Y-34596D01*
X42843Y-34486D01*
X42649Y-34447D01*
X42454Y-34486D01*
X42290Y-34596D01*
X42180Y-34760D01*
X42149Y-34919D01*
X42117Y-34760D01*
X42007Y-34596D01*
X41843Y-34486D01*
X41649Y-34447D01*
X41454Y-34486D01*
X41290Y-34596D01*
X41180Y-34760D01*
X41149Y-34919D01*
X41117Y-34760D01*
X41007Y-34596D01*
X40843Y-34486D01*
X40649Y-34447D01*
X40644Y-34448D01*
X40644Y-28588D01*
X40634Y-28342D01*
X40559Y-28160D01*
X40456Y-28124D01*
X40385Y-28194D01*
X40385Y-28053D01*
X40349Y-27950D01*
X40118Y-27865D01*
X39872Y-27875D01*
X39690Y-27950D01*
X39654Y-28053D01*
X40020Y-28419D01*
X40385Y-28053D01*
X40385Y-28194D01*
X40090Y-28490D01*
X40456Y-28855D01*
X40559Y-28819D01*
X40644Y-28588D01*
X40644Y-34448D01*
X40454Y-34486D01*
X40290Y-34596D01*
X40180Y-34760D01*
X40149Y-34919D01*
X40117Y-34760D01*
X40007Y-34596D01*
X39843Y-34486D01*
X39649Y-34447D01*
X39454Y-34486D01*
X39290Y-34596D01*
X39180Y-34760D01*
X39149Y-34919D01*
X39117Y-34760D01*
X39007Y-34596D01*
X38843Y-34486D01*
X38649Y-34447D01*
X38454Y-34486D01*
X38290Y-34596D01*
X38180Y-34760D01*
X38149Y-34919D01*
X38117Y-34760D01*
X38007Y-34596D01*
X37843Y-34486D01*
X37825Y-34482D01*
X37825Y-30959D01*
X37825Y-30805D01*
X37763Y-30743D01*
X37350Y-30743D01*
X37350Y-31097D01*
X37412Y-31159D01*
X37525Y-31159D01*
X37625Y-31159D01*
X37717Y-31121D01*
X37787Y-31051D01*
X37825Y-30959D01*
X37825Y-34482D01*
X37649Y-34447D01*
X37454Y-34486D01*
X37290Y-34596D01*
X37250Y-34656D01*
X37250Y-31097D01*
X37250Y-30743D01*
X36837Y-30743D01*
X36774Y-30805D01*
X36774Y-30959D01*
X36812Y-31051D01*
X36882Y-31121D01*
X36974Y-31159D01*
X37074Y-31159D01*
X37187Y-31159D01*
X37250Y-31097D01*
X37250Y-34656D01*
X37180Y-34760D01*
X37151Y-34905D01*
X37098Y-34729D01*
X36972Y-34575D01*
X36796Y-34481D01*
X36777Y-34479D01*
X36699Y-34527D01*
X36699Y-35177D01*
X36706Y-35177D01*
X36706Y-35277D01*
X36699Y-35277D01*
X36699Y-35926D01*
X36777Y-35974D01*
X36796Y-35972D01*
X36972Y-35878D01*
X37098Y-35724D01*
X37151Y-35548D01*
X37180Y-35693D01*
X37290Y-35857D01*
X37454Y-35967D01*
X37649Y-36006D01*
X37843Y-35967D01*
X38007Y-35857D01*
X38117Y-35693D01*
X38149Y-35534D01*
X38180Y-35693D01*
X38290Y-35857D01*
X38454Y-35967D01*
X38649Y-36006D01*
X38843Y-35967D01*
X39007Y-35857D01*
X39117Y-35693D01*
X39149Y-35534D01*
X39180Y-35693D01*
X39290Y-35857D01*
X39454Y-35967D01*
X39649Y-36006D01*
X39843Y-35967D01*
X40007Y-35857D01*
X40117Y-35693D01*
X40149Y-35534D01*
X40180Y-35693D01*
X40290Y-35857D01*
X40454Y-35967D01*
X40649Y-36006D01*
X40843Y-35967D01*
X41007Y-35857D01*
X41117Y-35693D01*
X41149Y-35534D01*
X41180Y-35693D01*
X41290Y-35857D01*
X41454Y-35967D01*
X41649Y-36006D01*
X41843Y-35967D01*
X42007Y-35857D01*
X42117Y-35693D01*
X42149Y-35534D01*
X42180Y-35693D01*
X42290Y-35857D01*
X42454Y-35967D01*
X42649Y-36006D01*
X42843Y-35967D01*
X43007Y-35857D01*
X43117Y-35693D01*
X43149Y-35534D01*
X43180Y-35693D01*
X43290Y-35857D01*
X43454Y-35967D01*
X43649Y-36006D01*
X43843Y-35967D01*
X44007Y-35857D01*
X44117Y-35693D01*
X44149Y-35534D01*
X44180Y-35693D01*
X44290Y-35857D01*
X44454Y-35967D01*
X44649Y-36006D01*
X44843Y-35967D01*
X45007Y-35857D01*
X45117Y-35693D01*
X45149Y-35534D01*
X45180Y-35693D01*
X45290Y-35857D01*
X45454Y-35967D01*
X45649Y-36006D01*
X45843Y-35967D01*
X46007Y-35857D01*
X46117Y-35693D01*
X46149Y-35534D01*
X46180Y-35693D01*
X46290Y-35857D01*
X46454Y-35967D01*
X46649Y-36006D01*
X46843Y-35967D01*
X47007Y-35857D01*
X47117Y-35693D01*
X47149Y-35534D01*
X47180Y-35693D01*
X47290Y-35857D01*
X47454Y-35967D01*
X47649Y-36006D01*
X47843Y-35967D01*
X48007Y-35857D01*
X48117Y-35693D01*
X48149Y-35534D01*
X48180Y-35693D01*
X48290Y-35857D01*
X48454Y-35967D01*
X48649Y-36006D01*
X48843Y-35967D01*
X49007Y-35857D01*
X49117Y-35693D01*
X49149Y-35534D01*
X49180Y-35693D01*
X49290Y-35857D01*
X49454Y-35967D01*
X49649Y-36006D01*
X49843Y-35967D01*
X50007Y-35857D01*
X50117Y-35693D01*
X50149Y-35534D01*
X50180Y-35693D01*
X50290Y-35857D01*
X50454Y-35967D01*
X50649Y-36006D01*
X50843Y-35967D01*
X51007Y-35857D01*
X51117Y-35693D01*
X51149Y-35534D01*
X51180Y-35693D01*
X51290Y-35857D01*
X51454Y-35967D01*
X51649Y-36006D01*
X51843Y-35967D01*
X52007Y-35857D01*
X52117Y-35693D01*
X52156Y-35499D01*
X52156Y-34954D01*
X52117Y-34760D01*
X52007Y-34596D01*
X51843Y-34486D01*
X51661Y-34450D01*
X56300Y-34450D01*
X56500Y-34450D01*
X56501Y-34449D01*
X56539Y-34540D01*
X56658Y-34660D01*
X56815Y-34724D01*
X56984Y-34725D01*
X57140Y-34660D01*
X57201Y-34600D01*
X60198Y-34600D01*
X60258Y-34660D01*
X60415Y-34724D01*
X60584Y-34725D01*
X60740Y-34660D01*
X60860Y-34541D01*
X60924Y-34384D01*
X60925Y-34215D01*
X60860Y-34059D01*
X60850Y-34050D01*
X63348Y-34050D01*
X63358Y-34060D01*
X63515Y-34124D01*
X63684Y-34125D01*
X63840Y-34060D01*
X63850Y-34050D01*
X64148Y-34050D01*
X64158Y-34060D01*
X64315Y-34124D01*
X64484Y-34125D01*
X64640Y-34060D01*
X64760Y-33941D01*
X64824Y-33784D01*
X64825Y-33615D01*
X64760Y-33459D01*
X64641Y-33339D01*
X64484Y-33275D01*
X64324Y-33274D01*
X64325Y-33115D01*
X64260Y-32959D01*
X64250Y-32949D01*
X64250Y-29600D01*
X64223Y-29466D01*
X64147Y-29352D01*
X64125Y-29330D01*
X64125Y-29315D01*
X64060Y-29159D01*
X63941Y-29039D01*
X63784Y-28975D01*
X63615Y-28974D01*
X63459Y-29039D01*
X63400Y-29098D01*
X63400Y-27517D01*
X65357Y-25559D01*
X65725Y-25559D01*
X65817Y-25521D01*
X65887Y-25451D01*
X65925Y-25359D01*
X65925Y-25259D01*
X65925Y-24826D01*
X65887Y-24734D01*
X65852Y-24700D01*
X65887Y-24665D01*
X65925Y-24573D01*
X65925Y-24473D01*
X65925Y-24040D01*
X65887Y-23948D01*
X65817Y-23878D01*
X65725Y-23840D01*
X65647Y-23840D01*
X65612Y-23787D01*
X65612Y-23787D01*
X65412Y-23587D01*
X65314Y-23522D01*
X65200Y-23500D01*
X64503Y-23500D01*
X64417Y-23371D01*
X64310Y-23300D01*
X64417Y-23228D01*
X64545Y-23037D01*
X64590Y-22811D01*
X64590Y-22788D01*
X64545Y-22562D01*
X64417Y-22371D01*
X64225Y-22243D01*
X64000Y-22198D01*
X63774Y-22243D01*
X63582Y-22371D01*
X63507Y-22483D01*
X63500Y-22466D01*
X63334Y-22300D01*
X63117Y-22210D01*
X62883Y-22209D01*
X62666Y-22299D01*
X62500Y-22465D01*
X62410Y-22682D01*
X62409Y-22916D01*
X62424Y-22951D01*
X61601Y-23774D01*
X61226Y-23774D01*
X61134Y-23812D01*
X61100Y-23847D01*
X61065Y-23812D01*
X60973Y-23774D01*
X60873Y-23774D01*
X60859Y-23774D01*
X60999Y-23634D01*
X61089Y-23417D01*
X61090Y-23183D01*
X61000Y-22966D01*
X60834Y-22800D01*
X60834Y-22799D01*
X60999Y-22634D01*
X61089Y-22417D01*
X61090Y-22183D01*
X61024Y-22023D01*
X68484Y-22023D01*
X68484Y-26699D01*
X68484Y-26699D01*
G37*
G54D23*
X68484Y-26699D02*
X68340Y-26603D01*
X68340Y-22833D01*
X68212Y-22524D01*
X67976Y-22287D01*
X67667Y-22159D01*
X67333Y-22159D01*
X67024Y-22287D01*
X66787Y-22523D01*
X66659Y-22832D01*
X66659Y-23166D01*
X66787Y-23475D01*
X67023Y-23712D01*
X67332Y-23840D01*
X67666Y-23840D01*
X67975Y-23712D01*
X68212Y-23476D01*
X68340Y-23167D01*
X68340Y-22833D01*
X68340Y-26603D01*
X68325Y-26593D01*
X68100Y-26548D01*
X67874Y-26593D01*
X67682Y-26721D01*
X67606Y-26835D01*
X67514Y-26805D01*
X67444Y-26876D01*
X67444Y-26735D01*
X67411Y-26635D01*
X67191Y-26555D01*
X66956Y-26565D01*
X66788Y-26635D01*
X66755Y-26735D01*
X67100Y-27079D01*
X67444Y-26735D01*
X67444Y-26876D01*
X67170Y-27150D01*
X67514Y-27494D01*
X67606Y-27464D01*
X67682Y-27578D01*
X67789Y-27650D01*
X67682Y-27721D01*
X67600Y-27845D01*
X67517Y-27721D01*
X67415Y-27653D01*
X67444Y-27564D01*
X67100Y-27220D01*
X67029Y-27291D01*
X67029Y-27150D01*
X66685Y-26805D01*
X66585Y-26838D01*
X66505Y-27058D01*
X66515Y-27293D01*
X66585Y-27461D01*
X66685Y-27494D01*
X67029Y-27150D01*
X67029Y-27291D01*
X66755Y-27564D01*
X66784Y-27653D01*
X66682Y-27721D01*
X66554Y-27912D01*
X66510Y-28138D01*
X66510Y-28161D01*
X66554Y-28387D01*
X66682Y-28578D01*
X66789Y-28650D01*
X66682Y-28721D01*
X66599Y-28845D01*
X66624Y-28784D01*
X66625Y-28615D01*
X66560Y-28459D01*
X66441Y-28339D01*
X66284Y-28275D01*
X66115Y-28274D01*
X65959Y-28339D01*
X65839Y-28458D01*
X65775Y-28615D01*
X65774Y-28784D01*
X65798Y-28840D01*
X65574Y-28840D01*
X65482Y-28878D01*
X65412Y-28948D01*
X65374Y-29040D01*
X65374Y-29140D01*
X65374Y-29573D01*
X65412Y-29665D01*
X65447Y-29700D01*
X65412Y-29734D01*
X65374Y-29826D01*
X65374Y-29980D01*
X65437Y-30043D01*
X65850Y-30043D01*
X65850Y-30035D01*
X65950Y-30035D01*
X65950Y-30043D01*
X66363Y-30043D01*
X66425Y-29980D01*
X66425Y-29826D01*
X66387Y-29734D01*
X66352Y-29700D01*
X66387Y-29665D01*
X66425Y-29573D01*
X66425Y-29473D01*
X66425Y-29369D01*
X66447Y-29347D01*
X66523Y-29233D01*
X66523Y-29233D01*
X66523Y-29231D01*
X66554Y-29387D01*
X66682Y-29578D01*
X66789Y-29650D01*
X66682Y-29721D01*
X66554Y-29912D01*
X66510Y-30138D01*
X66510Y-30161D01*
X66554Y-30387D01*
X66682Y-30578D01*
X66789Y-30650D01*
X66682Y-30721D01*
X66554Y-30912D01*
X66510Y-31138D01*
X66510Y-31161D01*
X66554Y-31387D01*
X66682Y-31578D01*
X66789Y-31650D01*
X66682Y-31721D01*
X66554Y-31912D01*
X66510Y-32138D01*
X66510Y-32161D01*
X66554Y-32387D01*
X66682Y-32578D01*
X66789Y-32650D01*
X66682Y-32721D01*
X66554Y-32912D01*
X66510Y-33138D01*
X66510Y-33161D01*
X66554Y-33387D01*
X66682Y-33578D01*
X66789Y-33650D01*
X66682Y-33721D01*
X66554Y-33912D01*
X66510Y-34138D01*
X66510Y-34161D01*
X66554Y-34387D01*
X66682Y-34578D01*
X66789Y-34650D01*
X66682Y-34721D01*
X66554Y-34912D01*
X66510Y-35138D01*
X66510Y-35161D01*
X66554Y-35387D01*
X66682Y-35578D01*
X66789Y-35650D01*
X66682Y-35721D01*
X66554Y-35912D01*
X66531Y-36030D01*
X66441Y-35939D01*
X66425Y-35933D01*
X66425Y-30359D01*
X66425Y-30205D01*
X66363Y-30143D01*
X65950Y-30143D01*
X65950Y-30150D01*
X65850Y-30150D01*
X65850Y-30143D01*
X65437Y-30143D01*
X65374Y-30205D01*
X65374Y-30350D01*
X65151Y-30350D01*
X65141Y-30339D01*
X64984Y-30275D01*
X64815Y-30274D01*
X64659Y-30339D01*
X64539Y-30458D01*
X64475Y-30615D01*
X64474Y-30784D01*
X64539Y-30940D01*
X64658Y-31060D01*
X64815Y-31124D01*
X64984Y-31125D01*
X65140Y-31060D01*
X65150Y-31050D01*
X65548Y-31050D01*
X65558Y-31060D01*
X65715Y-31124D01*
X65884Y-31125D01*
X66040Y-31060D01*
X66160Y-30941D01*
X66224Y-30784D01*
X66225Y-30615D01*
X66201Y-30559D01*
X66225Y-30559D01*
X66317Y-30521D01*
X66387Y-30451D01*
X66425Y-30359D01*
X66425Y-35933D01*
X66284Y-35875D01*
X66115Y-35874D01*
X65959Y-35939D01*
X65949Y-35950D01*
X63951Y-35950D01*
X63941Y-35939D01*
X63784Y-35875D01*
X63615Y-35874D01*
X63459Y-35939D01*
X63339Y-36058D01*
X63275Y-36215D01*
X63274Y-36330D01*
X36599Y-36330D01*
X36599Y-35926D01*
X36599Y-35277D01*
X36599Y-35177D01*
X36599Y-34527D01*
X36520Y-34479D01*
X36501Y-34481D01*
X36325Y-34575D01*
X36199Y-34729D01*
X36142Y-34919D01*
X36142Y-35177D01*
X36599Y-35177D01*
X36599Y-35277D01*
X36142Y-35277D01*
X36142Y-35534D01*
X36199Y-35724D01*
X36325Y-35878D01*
X36501Y-35972D01*
X36520Y-35974D01*
X36599Y-35926D01*
X36599Y-36330D01*
X34800Y-36330D01*
X34696Y-36350D01*
X34609Y-36409D01*
X34550Y-36496D01*
X34530Y-36600D01*
X34530Y-37806D01*
X34412Y-37687D01*
X34314Y-37622D01*
X34200Y-37600D01*
X34001Y-37600D01*
X33941Y-37539D01*
X33784Y-37475D01*
X33650Y-37474D01*
X33650Y-37244D01*
X35147Y-35747D01*
X35223Y-35633D01*
X35223Y-35633D01*
X35250Y-35500D01*
X35250Y-32000D01*
X35223Y-31866D01*
X35223Y-31866D01*
X35147Y-31752D01*
X34494Y-31100D01*
X35344Y-30250D01*
X36806Y-30250D01*
X36812Y-30265D01*
X36847Y-30300D01*
X36812Y-30334D01*
X36774Y-30426D01*
X36774Y-30580D01*
X36837Y-30643D01*
X37250Y-30643D01*
X37250Y-30635D01*
X37350Y-30635D01*
X37350Y-30643D01*
X37763Y-30643D01*
X37825Y-30580D01*
X37825Y-30426D01*
X37787Y-30334D01*
X37752Y-30300D01*
X37787Y-30265D01*
X37790Y-30257D01*
X39155Y-30257D01*
X39158Y-30260D01*
X39315Y-30324D01*
X39484Y-30325D01*
X39640Y-30260D01*
X39760Y-30141D01*
X39824Y-29984D01*
X39825Y-29815D01*
X39760Y-29659D01*
X39750Y-29649D01*
X39750Y-29051D01*
X39921Y-29114D01*
X40167Y-29104D01*
X40349Y-29029D01*
X40385Y-28926D01*
X40020Y-28560D01*
X40014Y-28566D01*
X39943Y-28495D01*
X39949Y-28490D01*
X39583Y-28124D01*
X39535Y-28140D01*
X38925Y-27530D01*
X38925Y-27515D01*
X38860Y-27359D01*
X38741Y-27239D01*
X38584Y-27175D01*
X38415Y-27174D01*
X38259Y-27239D01*
X38139Y-27358D01*
X38075Y-27515D01*
X38074Y-27684D01*
X38139Y-27840D01*
X38258Y-27960D01*
X38415Y-28024D01*
X38429Y-28024D01*
X39050Y-28644D01*
X39050Y-29557D01*
X37790Y-29557D01*
X37787Y-29548D01*
X37717Y-29478D01*
X37650Y-29450D01*
X37650Y-28751D01*
X37660Y-28741D01*
X37724Y-28584D01*
X37725Y-28415D01*
X37660Y-28259D01*
X37541Y-28139D01*
X37384Y-28075D01*
X37215Y-28074D01*
X37059Y-28139D01*
X36939Y-28258D01*
X36875Y-28415D01*
X36874Y-28584D01*
X36939Y-28740D01*
X36950Y-28750D01*
X36950Y-29450D01*
X36882Y-29478D01*
X36812Y-29548D01*
X36812Y-29550D01*
X35200Y-29550D01*
X35066Y-29576D01*
X34952Y-29652D01*
X34852Y-29752D01*
X34500Y-30105D01*
X34500Y-26977D01*
X34540Y-26960D01*
X34660Y-26841D01*
X34724Y-26684D01*
X34725Y-26515D01*
X34677Y-26400D01*
X39477Y-26400D01*
X39400Y-26586D01*
X39399Y-26832D01*
X39494Y-27060D01*
X39668Y-27235D01*
X39896Y-27329D01*
X40142Y-27330D01*
X40370Y-27235D01*
X40545Y-27061D01*
X40568Y-27007D01*
X40788Y-27007D01*
X40812Y-27065D01*
X40847Y-27099D01*
X40812Y-27134D01*
X40774Y-27226D01*
X40774Y-27326D01*
X40774Y-27759D01*
X40812Y-27851D01*
X40882Y-27921D01*
X40950Y-27949D01*
X40950Y-28048D01*
X40939Y-28058D01*
X40875Y-28215D01*
X40874Y-28384D01*
X40939Y-28540D01*
X41058Y-28660D01*
X41215Y-28724D01*
X41384Y-28725D01*
X41540Y-28660D01*
X41660Y-28541D01*
X41724Y-28384D01*
X41725Y-28215D01*
X41660Y-28059D01*
X41650Y-28049D01*
X41650Y-27949D01*
X41717Y-27921D01*
X41787Y-27851D01*
X41825Y-27759D01*
X41825Y-27659D01*
X41825Y-27226D01*
X41787Y-27134D01*
X41752Y-27100D01*
X41787Y-27065D01*
X41810Y-27010D01*
X42033Y-27010D01*
X42054Y-27060D01*
X42228Y-27235D01*
X42456Y-27329D01*
X42702Y-27330D01*
X42930Y-27235D01*
X43105Y-27061D01*
X43126Y-27010D01*
X43385Y-27010D01*
X43700Y-27324D01*
X43700Y-29400D01*
X43722Y-29514D01*
X43787Y-29612D01*
X45487Y-31312D01*
X45585Y-31377D01*
X45700Y-31400D01*
X46440Y-31400D01*
X46440Y-31474D01*
X46440Y-31587D01*
X46503Y-31650D01*
X46857Y-31650D01*
X46857Y-31642D01*
X46957Y-31642D01*
X46957Y-31650D01*
X46964Y-31650D01*
X46964Y-31750D01*
X46957Y-31750D01*
X46957Y-32163D01*
X47019Y-32225D01*
X47173Y-32225D01*
X47265Y-32187D01*
X47299Y-32152D01*
X47334Y-32187D01*
X47426Y-32225D01*
X47526Y-32225D01*
X47959Y-32225D01*
X48051Y-32187D01*
X48121Y-32117D01*
X48132Y-32090D01*
X48215Y-32124D01*
X48384Y-32125D01*
X48540Y-32060D01*
X48660Y-31941D01*
X48724Y-31784D01*
X48725Y-31615D01*
X48660Y-31459D01*
X48541Y-31339D01*
X48387Y-31275D01*
X48424Y-31184D01*
X48425Y-31015D01*
X48360Y-30859D01*
X48241Y-30739D01*
X48144Y-30699D01*
X48240Y-30660D01*
X48360Y-30541D01*
X48424Y-30384D01*
X48425Y-30215D01*
X48360Y-30059D01*
X48241Y-29939D01*
X48144Y-29899D01*
X48240Y-29860D01*
X48360Y-29741D01*
X48424Y-29584D01*
X48425Y-29415D01*
X48360Y-29259D01*
X48241Y-29139D01*
X48084Y-29075D01*
X47915Y-29074D01*
X47759Y-29139D01*
X47698Y-29200D01*
X46925Y-29200D01*
X46925Y-26359D01*
X46925Y-26259D01*
X46925Y-25826D01*
X46887Y-25734D01*
X46852Y-25700D01*
X46887Y-25665D01*
X46925Y-25573D01*
X46925Y-25419D01*
X46925Y-25194D01*
X46925Y-25040D01*
X46887Y-24948D01*
X46817Y-24878D01*
X46725Y-24840D01*
X46625Y-24840D01*
X46512Y-24840D01*
X46450Y-24903D01*
X46450Y-25257D01*
X46863Y-25257D01*
X46925Y-25194D01*
X46925Y-25419D01*
X46863Y-25357D01*
X46450Y-25357D01*
X46450Y-25364D01*
X46350Y-25364D01*
X46350Y-25357D01*
X46350Y-25257D01*
X46350Y-24903D01*
X46287Y-24840D01*
X46174Y-24840D01*
X46074Y-24840D01*
X45982Y-24878D01*
X45912Y-24948D01*
X45874Y-25040D01*
X45874Y-25194D01*
X45937Y-25257D01*
X46350Y-25257D01*
X46350Y-25357D01*
X45937Y-25357D01*
X45874Y-25419D01*
X45874Y-25573D01*
X45912Y-25665D01*
X45947Y-25699D01*
X45912Y-25734D01*
X45874Y-25826D01*
X45874Y-25926D01*
X45874Y-26359D01*
X45912Y-26451D01*
X45982Y-26521D01*
X46074Y-26559D01*
X46100Y-26559D01*
X46100Y-26798D01*
X46039Y-26858D01*
X45975Y-27015D01*
X45974Y-27184D01*
X46039Y-27340D01*
X46158Y-27460D01*
X46315Y-27524D01*
X46484Y-27525D01*
X46640Y-27460D01*
X46760Y-27341D01*
X46824Y-27184D01*
X46825Y-27015D01*
X46760Y-26859D01*
X46700Y-26798D01*
X46700Y-26559D01*
X46725Y-26559D01*
X46817Y-26521D01*
X46887Y-26451D01*
X46925Y-26359D01*
X46925Y-29200D01*
X46224Y-29200D01*
X45600Y-28575D01*
X45600Y-25200D01*
X45577Y-25085D01*
X45577Y-25085D01*
X45512Y-24987D01*
X44414Y-23889D01*
X44616Y-23890D01*
X44833Y-23800D01*
X44999Y-23634D01*
X45000Y-23634D01*
X45165Y-23799D01*
X45382Y-23889D01*
X45616Y-23890D01*
X45833Y-23800D01*
X45999Y-23634D01*
X46000Y-23634D01*
X46165Y-23799D01*
X46382Y-23889D01*
X46616Y-23890D01*
X46833Y-23800D01*
X46999Y-23634D01*
X47000Y-23634D01*
X47165Y-23799D01*
X47382Y-23889D01*
X47616Y-23890D01*
X47833Y-23800D01*
X47999Y-23634D01*
X48000Y-23634D01*
X48165Y-23799D01*
X48382Y-23889D01*
X48616Y-23890D01*
X48833Y-23800D01*
X48999Y-23634D01*
X49000Y-23634D01*
X49165Y-23799D01*
X49382Y-23889D01*
X49616Y-23890D01*
X49833Y-23800D01*
X49999Y-23634D01*
X50000Y-23634D01*
X50165Y-23799D01*
X50382Y-23889D01*
X50616Y-23890D01*
X50833Y-23800D01*
X50999Y-23634D01*
X51000Y-23634D01*
X51165Y-23799D01*
X51382Y-23889D01*
X51616Y-23890D01*
X51833Y-23800D01*
X51999Y-23634D01*
X52000Y-23634D01*
X52165Y-23799D01*
X52382Y-23889D01*
X52585Y-23890D01*
X52400Y-24075D01*
X52315Y-24074D01*
X52159Y-24139D01*
X52039Y-24258D01*
X51975Y-24415D01*
X51974Y-24584D01*
X52039Y-24740D01*
X52158Y-24860D01*
X52315Y-24924D01*
X52484Y-24925D01*
X52640Y-24860D01*
X52760Y-24741D01*
X52824Y-24584D01*
X52825Y-24499D01*
X53434Y-23889D01*
X53616Y-23890D01*
X53833Y-23800D01*
X53999Y-23634D01*
X54000Y-23634D01*
X54165Y-23799D01*
X54382Y-23889D01*
X54616Y-23890D01*
X54833Y-23800D01*
X54999Y-23634D01*
X55000Y-23634D01*
X55165Y-23799D01*
X55382Y-23889D01*
X55616Y-23890D01*
X55833Y-23800D01*
X55999Y-23634D01*
X56000Y-23634D01*
X56165Y-23799D01*
X56382Y-23889D01*
X56616Y-23890D01*
X56833Y-23800D01*
X56999Y-23634D01*
X57000Y-23634D01*
X57165Y-23799D01*
X57382Y-23889D01*
X57616Y-23890D01*
X57833Y-23800D01*
X57999Y-23634D01*
X58000Y-23634D01*
X58165Y-23799D01*
X58382Y-23889D01*
X58616Y-23890D01*
X58833Y-23800D01*
X58999Y-23634D01*
X59000Y-23634D01*
X59165Y-23799D01*
X59382Y-23889D01*
X59616Y-23890D01*
X59833Y-23800D01*
X59999Y-23634D01*
X60000Y-23634D01*
X60165Y-23799D01*
X60303Y-23857D01*
X60278Y-23882D01*
X60240Y-23974D01*
X60240Y-24000D01*
X55400Y-24000D01*
X55285Y-24022D01*
X55187Y-24087D01*
X53324Y-25950D01*
X53325Y-25815D01*
X53260Y-25659D01*
X53251Y-25650D01*
X53260Y-25641D01*
X53324Y-25484D01*
X53325Y-25315D01*
X53260Y-25159D01*
X53141Y-25039D01*
X52984Y-24975D01*
X52815Y-24974D01*
X52659Y-25039D01*
X52598Y-25100D01*
X52001Y-25100D01*
X51941Y-25039D01*
X51784Y-24975D01*
X51615Y-24974D01*
X51459Y-25039D01*
X51339Y-25158D01*
X51275Y-25315D01*
X51274Y-25484D01*
X51339Y-25640D01*
X51348Y-25649D01*
X51339Y-25658D01*
X51275Y-25815D01*
X51274Y-25984D01*
X51339Y-26140D01*
X51458Y-26260D01*
X51615Y-26324D01*
X51784Y-26325D01*
X51940Y-26260D01*
X52001Y-26200D01*
X52598Y-26200D01*
X52658Y-26260D01*
X52815Y-26324D01*
X52950Y-26325D01*
X51887Y-27387D01*
X51822Y-27485D01*
X51800Y-27600D01*
X51800Y-30698D01*
X51761Y-30737D01*
X51700Y-30675D01*
X51700Y-28900D01*
X51677Y-28785D01*
X51624Y-28707D01*
X51624Y-28707D01*
X51625Y-28615D01*
X51560Y-28459D01*
X51441Y-28339D01*
X51284Y-28275D01*
X51115Y-28274D01*
X51000Y-28322D01*
X51000Y-26000D01*
X50977Y-25885D01*
X50977Y-25885D01*
X50912Y-25787D01*
X49924Y-24800D01*
X49925Y-24715D01*
X49860Y-24559D01*
X49741Y-24439D01*
X49584Y-24375D01*
X49415Y-24374D01*
X49259Y-24439D01*
X49139Y-24558D01*
X49075Y-24715D01*
X49074Y-24884D01*
X49139Y-25040D01*
X49258Y-25160D01*
X49415Y-25224D01*
X49500Y-25225D01*
X50400Y-26124D01*
X50400Y-30275D01*
X50325Y-30350D01*
X50325Y-28615D01*
X50260Y-28459D01*
X50200Y-28398D01*
X50200Y-27701D01*
X50260Y-27641D01*
X50324Y-27484D01*
X50325Y-27315D01*
X50260Y-27159D01*
X50141Y-27039D01*
X49984Y-26975D01*
X49815Y-26974D01*
X49659Y-27039D01*
X49539Y-27158D01*
X49499Y-27255D01*
X49460Y-27159D01*
X49399Y-27098D01*
X49377Y-26985D01*
X49312Y-26887D01*
X49312Y-26887D01*
X48800Y-26375D01*
X48800Y-26101D01*
X48860Y-26041D01*
X48924Y-25884D01*
X48925Y-25715D01*
X48860Y-25559D01*
X48741Y-25439D01*
X48584Y-25375D01*
X48415Y-25374D01*
X48325Y-25412D01*
X48325Y-25194D01*
X48325Y-25040D01*
X48287Y-24948D01*
X48217Y-24878D01*
X48125Y-24840D01*
X48025Y-24840D01*
X47912Y-24840D01*
X47850Y-24903D01*
X47850Y-25257D01*
X48263Y-25257D01*
X48325Y-25194D01*
X48325Y-25412D01*
X48320Y-25414D01*
X48263Y-25357D01*
X47850Y-25357D01*
X47850Y-25364D01*
X47750Y-25364D01*
X47750Y-25357D01*
X47750Y-25257D01*
X47750Y-24903D01*
X47687Y-24840D01*
X47574Y-24840D01*
X47474Y-24840D01*
X47382Y-24878D01*
X47312Y-24948D01*
X47274Y-25040D01*
X47274Y-25194D01*
X47337Y-25257D01*
X47750Y-25257D01*
X47750Y-25357D01*
X47337Y-25357D01*
X47274Y-25419D01*
X47274Y-25573D01*
X47312Y-25665D01*
X47347Y-25699D01*
X47312Y-25734D01*
X47274Y-25826D01*
X47274Y-25926D01*
X47274Y-26359D01*
X47286Y-26387D01*
X47159Y-26439D01*
X47039Y-26558D01*
X46975Y-26715D01*
X46974Y-26884D01*
X47039Y-27040D01*
X47158Y-27160D01*
X47315Y-27224D01*
X47484Y-27225D01*
X47640Y-27160D01*
X47760Y-27041D01*
X47824Y-26884D01*
X47825Y-26799D01*
X48012Y-26612D01*
X48047Y-26559D01*
X48125Y-26559D01*
X48205Y-26526D01*
X48222Y-26614D01*
X48287Y-26712D01*
X48738Y-27162D01*
X48675Y-27315D01*
X48674Y-27484D01*
X48739Y-27640D01*
X48858Y-27760D01*
X49015Y-27824D01*
X49184Y-27825D01*
X49340Y-27760D01*
X49460Y-27641D01*
X49500Y-27544D01*
X49539Y-27640D01*
X49600Y-27701D01*
X49600Y-28398D01*
X49539Y-28458D01*
X49475Y-28615D01*
X49474Y-28784D01*
X49539Y-28940D01*
X49658Y-29060D01*
X49815Y-29124D01*
X49984Y-29125D01*
X50140Y-29060D01*
X50260Y-28941D01*
X50324Y-28784D01*
X50325Y-28615D01*
X50325Y-30350D01*
X49724Y-30950D01*
X49725Y-30815D01*
X49660Y-30659D01*
X49541Y-30539D01*
X49384Y-30475D01*
X49370Y-30475D01*
X49250Y-30355D01*
X49250Y-30200D01*
X49250Y-28951D01*
X49260Y-28941D01*
X49324Y-28784D01*
X49325Y-28615D01*
X49260Y-28459D01*
X49141Y-28339D01*
X48984Y-28275D01*
X48815Y-28274D01*
X48659Y-28339D01*
X48539Y-28458D01*
X48475Y-28615D01*
X48474Y-28784D01*
X48539Y-28940D01*
X48550Y-28950D01*
X48550Y-30200D01*
X48550Y-30500D01*
X48576Y-30633D01*
X48652Y-30747D01*
X48874Y-30969D01*
X48874Y-30984D01*
X48939Y-31140D01*
X49058Y-31260D01*
X49215Y-31324D01*
X49384Y-31325D01*
X49417Y-31311D01*
X49400Y-31400D01*
X49400Y-31700D01*
X49422Y-31814D01*
X49475Y-31892D01*
X49474Y-31984D01*
X49539Y-32140D01*
X49648Y-32250D01*
X47600Y-32250D01*
X47466Y-32276D01*
X47352Y-32352D01*
X46857Y-32848D01*
X46857Y-32163D01*
X46857Y-31750D01*
X46503Y-31750D01*
X46440Y-31812D01*
X46440Y-31925D01*
X46440Y-32025D01*
X46478Y-32117D01*
X46548Y-32187D01*
X46640Y-32225D01*
X46794Y-32225D01*
X46857Y-32163D01*
X46857Y-32848D01*
X46830Y-32874D01*
X46815Y-32874D01*
X46659Y-32939D01*
X46649Y-32950D01*
X45125Y-32950D01*
X45125Y-32805D01*
X45063Y-32743D01*
X44650Y-32743D01*
X44650Y-32750D01*
X44550Y-32750D01*
X44550Y-32743D01*
X44542Y-32743D01*
X44542Y-32643D01*
X44550Y-32643D01*
X44550Y-32635D01*
X44650Y-32635D01*
X44650Y-32643D01*
X45063Y-32643D01*
X45125Y-32580D01*
X45125Y-32487D01*
X45215Y-32524D01*
X45384Y-32525D01*
X45540Y-32460D01*
X45660Y-32341D01*
X45724Y-32184D01*
X45725Y-32015D01*
X45660Y-31859D01*
X45541Y-31739D01*
X45384Y-31675D01*
X45215Y-31674D01*
X45133Y-31709D01*
X45125Y-31701D01*
X45125Y-31640D01*
X45087Y-31548D01*
X45017Y-31478D01*
X44925Y-31440D01*
X44825Y-31440D01*
X44274Y-31440D01*
X44182Y-31478D01*
X44150Y-31511D01*
X44117Y-31478D01*
X44025Y-31440D01*
X43925Y-31440D01*
X43374Y-31440D01*
X43282Y-31478D01*
X43212Y-31548D01*
X43204Y-31568D01*
X43204Y-28588D01*
X43194Y-28342D01*
X43119Y-28160D01*
X43016Y-28124D01*
X42945Y-28194D01*
X42945Y-28053D01*
X42909Y-27950D01*
X42678Y-27865D01*
X42432Y-27875D01*
X42250Y-27950D01*
X42214Y-28053D01*
X42580Y-28419D01*
X42945Y-28053D01*
X42945Y-28194D01*
X42650Y-28490D01*
X43016Y-28855D01*
X43119Y-28819D01*
X43204Y-28588D01*
X43204Y-31568D01*
X43174Y-31640D01*
X43174Y-31673D01*
X43141Y-31639D01*
X42984Y-31575D01*
X42945Y-31575D01*
X42945Y-28926D01*
X42580Y-28560D01*
X42509Y-28631D01*
X42509Y-28490D01*
X42143Y-28124D01*
X42040Y-28160D01*
X41955Y-28391D01*
X41965Y-28637D01*
X42040Y-28819D01*
X42143Y-28855D01*
X42509Y-28490D01*
X42509Y-28631D01*
X42214Y-28926D01*
X42250Y-29029D01*
X42481Y-29114D01*
X42727Y-29104D01*
X42909Y-29029D01*
X42945Y-28926D01*
X42945Y-31575D01*
X42815Y-31574D01*
X42659Y-31639D01*
X42539Y-31758D01*
X42475Y-31915D01*
X42474Y-32084D01*
X42539Y-32240D01*
X42658Y-32360D01*
X42815Y-32424D01*
X42829Y-32424D01*
X43174Y-32769D01*
X43174Y-32959D01*
X43212Y-33051D01*
X43282Y-33121D01*
X43374Y-33159D01*
X43474Y-33159D01*
X43564Y-33159D01*
X43952Y-33547D01*
X44066Y-33623D01*
X44066Y-33623D01*
X44200Y-33650D01*
X46648Y-33650D01*
X46658Y-33660D01*
X46815Y-33724D01*
X46984Y-33725D01*
X47140Y-33660D01*
X47260Y-33541D01*
X47324Y-33384D01*
X47324Y-33370D01*
X47744Y-32950D01*
X48248Y-32950D01*
X48239Y-32958D01*
X48175Y-33115D01*
X48174Y-33284D01*
X48239Y-33440D01*
X48358Y-33560D01*
X48515Y-33624D01*
X48529Y-33624D01*
X49252Y-34347D01*
X49366Y-34423D01*
X49366Y-34423D01*
X49500Y-34450D01*
X49636Y-34450D01*
X49454Y-34486D01*
X49290Y-34596D01*
X49180Y-34760D01*
X49149Y-34919D01*
X49117Y-34760D01*
X49007Y-34596D01*
X48843Y-34486D01*
X48649Y-34447D01*
X48454Y-34486D01*
X48290Y-34596D01*
X48180Y-34760D01*
X48149Y-34919D01*
X48117Y-34760D01*
X48007Y-34596D01*
X47843Y-34486D01*
X47649Y-34447D01*
X47454Y-34486D01*
X47290Y-34596D01*
X47180Y-34760D01*
X47149Y-34919D01*
X47117Y-34760D01*
X47007Y-34596D01*
X46843Y-34486D01*
X46649Y-34447D01*
X46454Y-34486D01*
X46290Y-34596D01*
X46180Y-34760D01*
X46149Y-34919D01*
X46117Y-34760D01*
X46007Y-34596D01*
X45843Y-34486D01*
X45649Y-34447D01*
X45454Y-34486D01*
X45290Y-34596D01*
X45180Y-34760D01*
X45149Y-34919D01*
X45117Y-34760D01*
X45007Y-34596D01*
X44843Y-34486D01*
X44649Y-34447D01*
X44454Y-34486D01*
X44290Y-34596D01*
X44180Y-34760D01*
X44149Y-34919D01*
X44117Y-34760D01*
X44007Y-34596D01*
X43843Y-34486D01*
X43649Y-34447D01*
X43454Y-34486D01*
X43290Y-34596D01*
X43180Y-34760D01*
X43149Y-34919D01*
X43117Y-34760D01*
X43007Y-34596D01*
X42843Y-34486D01*
X42649Y-34447D01*
X42454Y-34486D01*
X42290Y-34596D01*
X42180Y-34760D01*
X42149Y-34919D01*
X42117Y-34760D01*
X42007Y-34596D01*
X41843Y-34486D01*
X41649Y-34447D01*
X41454Y-34486D01*
X41290Y-34596D01*
X41180Y-34760D01*
X41149Y-34919D01*
X41117Y-34760D01*
X41007Y-34596D01*
X40843Y-34486D01*
X40649Y-34447D01*
X40644Y-34448D01*
X40644Y-28588D01*
X40634Y-28342D01*
X40559Y-28160D01*
X40456Y-28124D01*
X40385Y-28194D01*
X40385Y-28053D01*
X40349Y-27950D01*
X40118Y-27865D01*
X39872Y-27875D01*
X39690Y-27950D01*
X39654Y-28053D01*
X40020Y-28419D01*
X40385Y-28053D01*
X40385Y-28194D01*
X40090Y-28490D01*
X40456Y-28855D01*
X40559Y-28819D01*
X40644Y-28588D01*
X40644Y-34448D01*
X40454Y-34486D01*
X40290Y-34596D01*
X40180Y-34760D01*
X40149Y-34919D01*
X40117Y-34760D01*
X40007Y-34596D01*
X39843Y-34486D01*
X39649Y-34447D01*
X39454Y-34486D01*
X39290Y-34596D01*
X39180Y-34760D01*
X39149Y-34919D01*
X39117Y-34760D01*
X39007Y-34596D01*
X38843Y-34486D01*
X38649Y-34447D01*
X38454Y-34486D01*
X38290Y-34596D01*
X38180Y-34760D01*
X38149Y-34919D01*
X38117Y-34760D01*
X38007Y-34596D01*
X37843Y-34486D01*
X37825Y-34482D01*
X37825Y-30959D01*
X37825Y-30805D01*
X37763Y-30743D01*
X37350Y-30743D01*
X37350Y-31097D01*
X37412Y-31159D01*
X37525Y-31159D01*
X37625Y-31159D01*
X37717Y-31121D01*
X37787Y-31051D01*
X37825Y-30959D01*
X37825Y-34482D01*
X37649Y-34447D01*
X37454Y-34486D01*
X37290Y-34596D01*
X37250Y-34656D01*
X37250Y-31097D01*
X37250Y-30743D01*
X36837Y-30743D01*
X36774Y-30805D01*
X36774Y-30959D01*
X36812Y-31051D01*
X36882Y-31121D01*
X36974Y-31159D01*
X37074Y-31159D01*
X37187Y-31159D01*
X37250Y-31097D01*
X37250Y-34656D01*
X37180Y-34760D01*
X37151Y-34905D01*
X37098Y-34729D01*
X36972Y-34575D01*
X36796Y-34481D01*
X36777Y-34479D01*
X36699Y-34527D01*
X36699Y-35177D01*
X36706Y-35177D01*
X36706Y-35277D01*
X36699Y-35277D01*
X36699Y-35926D01*
X36777Y-35974D01*
X36796Y-35972D01*
X36972Y-35878D01*
X37098Y-35724D01*
X37151Y-35548D01*
X37180Y-35693D01*
X37290Y-35857D01*
X37454Y-35967D01*
X37649Y-36006D01*
X37843Y-35967D01*
X38007Y-35857D01*
X38117Y-35693D01*
X38149Y-35534D01*
X38180Y-35693D01*
X38290Y-35857D01*
X38454Y-35967D01*
X38649Y-36006D01*
X38843Y-35967D01*
X39007Y-35857D01*
X39117Y-35693D01*
X39149Y-35534D01*
X39180Y-35693D01*
X39290Y-35857D01*
X39454Y-35967D01*
X39649Y-36006D01*
X39843Y-35967D01*
X40007Y-35857D01*
X40117Y-35693D01*
X40149Y-35534D01*
X40180Y-35693D01*
X40290Y-35857D01*
X40454Y-35967D01*
X40649Y-36006D01*
X40843Y-35967D01*
X41007Y-35857D01*
X41117Y-35693D01*
X41149Y-35534D01*
X41180Y-35693D01*
X41290Y-35857D01*
X41454Y-35967D01*
X41649Y-36006D01*
X41843Y-35967D01*
X42007Y-35857D01*
X42117Y-35693D01*
X42149Y-35534D01*
X42180Y-35693D01*
X42290Y-35857D01*
X42454Y-35967D01*
X42649Y-36006D01*
X42843Y-35967D01*
X43007Y-35857D01*
X43117Y-35693D01*
X43149Y-35534D01*
X43180Y-35693D01*
X43290Y-35857D01*
X43454Y-35967D01*
X43649Y-36006D01*
X43843Y-35967D01*
X44007Y-35857D01*
X44117Y-35693D01*
X44149Y-35534D01*
X44180Y-35693D01*
X44290Y-35857D01*
X44454Y-35967D01*
X44649Y-36006D01*
X44843Y-35967D01*
X45007Y-35857D01*
X45117Y-35693D01*
X45149Y-35534D01*
X45180Y-35693D01*
X45290Y-35857D01*
X45454Y-35967D01*
X45649Y-36006D01*
X45843Y-35967D01*
X46007Y-35857D01*
X46117Y-35693D01*
X46149Y-35534D01*
X46180Y-35693D01*
X46290Y-35857D01*
X46454Y-35967D01*
X46649Y-36006D01*
X46843Y-35967D01*
X47007Y-35857D01*
X47117Y-35693D01*
X47149Y-35534D01*
X47180Y-35693D01*
X47290Y-35857D01*
X47454Y-35967D01*
X47649Y-36006D01*
X47843Y-35967D01*
X48007Y-35857D01*
X48117Y-35693D01*
X48149Y-35534D01*
X48180Y-35693D01*
X48290Y-35857D01*
X48454Y-35967D01*
X48649Y-36006D01*
X48843Y-35967D01*
X49007Y-35857D01*
X49117Y-35693D01*
X49149Y-35534D01*
X49180Y-35693D01*
X49290Y-35857D01*
X49454Y-35967D01*
X49649Y-36006D01*
X49843Y-35967D01*
X50007Y-35857D01*
X50117Y-35693D01*
X50149Y-35534D01*
X50180Y-35693D01*
X50290Y-35857D01*
X50454Y-35967D01*
X50649Y-36006D01*
X50843Y-35967D01*
X51007Y-35857D01*
X51117Y-35693D01*
X51149Y-35534D01*
X51180Y-35693D01*
X51290Y-35857D01*
X51454Y-35967D01*
X51649Y-36006D01*
X51843Y-35967D01*
X52007Y-35857D01*
X52117Y-35693D01*
X52156Y-35499D01*
X52156Y-34954D01*
X52117Y-34760D01*
X52007Y-34596D01*
X51843Y-34486D01*
X51661Y-34450D01*
X56300Y-34450D01*
X56500Y-34450D01*
X56501Y-34449D01*
X56539Y-34540D01*
X56658Y-34660D01*
X56815Y-34724D01*
X56984Y-34725D01*
X57140Y-34660D01*
X57201Y-34600D01*
X60198Y-34600D01*
X60258Y-34660D01*
X60415Y-34724D01*
X60584Y-34725D01*
X60740Y-34660D01*
X60860Y-34541D01*
X60924Y-34384D01*
X60925Y-34215D01*
X60860Y-34059D01*
X60850Y-34050D01*
X63348Y-34050D01*
X63358Y-34060D01*
X63515Y-34124D01*
X63684Y-34125D01*
X63840Y-34060D01*
X63850Y-34050D01*
X64148Y-34050D01*
X64158Y-34060D01*
X64315Y-34124D01*
X64484Y-34125D01*
X64640Y-34060D01*
X64760Y-33941D01*
X64824Y-33784D01*
X64825Y-33615D01*
X64760Y-33459D01*
X64641Y-33339D01*
X64484Y-33275D01*
X64324Y-33274D01*
X64325Y-33115D01*
X64260Y-32959D01*
X64250Y-32949D01*
X64250Y-29600D01*
X64223Y-29466D01*
X64147Y-29352D01*
X64125Y-29330D01*
X64125Y-29315D01*
X64060Y-29159D01*
X63941Y-29039D01*
X63784Y-28975D01*
X63615Y-28974D01*
X63459Y-29039D01*
X63400Y-29098D01*
X63400Y-27517D01*
X65357Y-25559D01*
X65725Y-25559D01*
X65817Y-25521D01*
X65887Y-25451D01*
X65925Y-25359D01*
X65925Y-25259D01*
X65925Y-24826D01*
X65887Y-24734D01*
X65852Y-24700D01*
X65887Y-24665D01*
X65925Y-24573D01*
X65925Y-24473D01*
X65925Y-24040D01*
X65887Y-23948D01*
X65817Y-23878D01*
X65725Y-23840D01*
X65647Y-23840D01*
X65612Y-23787D01*
X65612Y-23787D01*
X65412Y-23587D01*
X65314Y-23522D01*
X65200Y-23500D01*
X64503Y-23500D01*
X64417Y-23371D01*
X64310Y-23300D01*
X64417Y-23228D01*
X64545Y-23037D01*
X64590Y-22811D01*
X64590Y-22788D01*
X64545Y-22562D01*
X64417Y-22371D01*
X64225Y-22243D01*
X64000Y-22198D01*
X63774Y-22243D01*
X63582Y-22371D01*
X63507Y-22483D01*
X63500Y-22466D01*
X63334Y-22300D01*
X63117Y-22210D01*
X62883Y-22209D01*
X62666Y-22299D01*
X62500Y-22465D01*
X62410Y-22682D01*
X62409Y-22916D01*
X62424Y-22951D01*
X61601Y-23774D01*
X61226Y-23774D01*
X61134Y-23812D01*
X61100Y-23847D01*
X61065Y-23812D01*
X60973Y-23774D01*
X60873Y-23774D01*
X60859Y-23774D01*
X60999Y-23634D01*
X61089Y-23417D01*
X61090Y-23183D01*
X61000Y-22966D01*
X60834Y-22800D01*
X60834Y-22799D01*
X60999Y-22634D01*
X61089Y-22417D01*
X61090Y-22183D01*
X61024Y-22023D01*
X68484Y-22023D01*
X68484Y-26699D01*
G54D10*
G36*
X68484Y-52979D02*
X68340Y-52979D01*
X68340Y-51833D01*
X68212Y-51524D01*
X67976Y-51287D01*
X67667Y-51159D01*
X67333Y-51159D01*
X67024Y-51287D01*
X66787Y-51523D01*
X66659Y-51832D01*
X66659Y-52166D01*
X66787Y-52475D01*
X67023Y-52712D01*
X67332Y-52840D01*
X67666Y-52840D01*
X67975Y-52712D01*
X68212Y-52476D01*
X68340Y-52167D01*
X68340Y-51833D01*
X68340Y-52979D01*
X64815Y-52979D01*
X66547Y-51247D01*
X66623Y-51133D01*
X66623Y-51133D01*
X66650Y-51000D01*
X66650Y-50551D01*
X66660Y-50541D01*
X66724Y-50384D01*
X66725Y-50215D01*
X66660Y-50059D01*
X66650Y-50050D01*
X67500Y-50050D01*
X67633Y-50023D01*
X67633Y-50023D01*
X67747Y-49947D01*
X68069Y-49625D01*
X68259Y-49625D01*
X68351Y-49587D01*
X68421Y-49517D01*
X68459Y-49425D01*
X68459Y-49325D01*
X68459Y-48774D01*
X68421Y-48682D01*
X68388Y-48650D01*
X68421Y-48617D01*
X68459Y-48525D01*
X68459Y-48425D01*
X68459Y-47874D01*
X68421Y-47782D01*
X68351Y-47712D01*
X68343Y-47709D01*
X68343Y-47193D01*
X68324Y-47102D01*
X68324Y-47102D01*
X68325Y-47015D01*
X68260Y-46859D01*
X68141Y-46740D01*
X68150Y-46740D01*
X68150Y-46675D01*
X68241Y-46722D01*
X68405Y-46654D01*
X68484Y-46582D01*
X68484Y-52979D01*
X68484Y-52979D01*
G37*
G54D23*
X68484Y-52979D02*
X68340Y-52979D01*
X68340Y-51833D01*
X68212Y-51524D01*
X67976Y-51287D01*
X67667Y-51159D01*
X67333Y-51159D01*
X67024Y-51287D01*
X66787Y-51523D01*
X66659Y-51832D01*
X66659Y-52166D01*
X66787Y-52475D01*
X67023Y-52712D01*
X67332Y-52840D01*
X67666Y-52840D01*
X67975Y-52712D01*
X68212Y-52476D01*
X68340Y-52167D01*
X68340Y-51833D01*
X68340Y-52979D01*
X64815Y-52979D01*
X66547Y-51247D01*
X66623Y-51133D01*
X66623Y-51133D01*
X66650Y-51000D01*
X66650Y-50551D01*
X66660Y-50541D01*
X66724Y-50384D01*
X66725Y-50215D01*
X66660Y-50059D01*
X66650Y-50050D01*
X67500Y-50050D01*
X67633Y-50023D01*
X67633Y-50023D01*
X67747Y-49947D01*
X68069Y-49625D01*
X68259Y-49625D01*
X68351Y-49587D01*
X68421Y-49517D01*
X68459Y-49425D01*
X68459Y-49325D01*
X68459Y-48774D01*
X68421Y-48682D01*
X68388Y-48650D01*
X68421Y-48617D01*
X68459Y-48525D01*
X68459Y-48425D01*
X68459Y-47874D01*
X68421Y-47782D01*
X68351Y-47712D01*
X68343Y-47709D01*
X68343Y-47193D01*
X68324Y-47102D01*
X68324Y-47102D01*
X68325Y-47015D01*
X68260Y-46859D01*
X68141Y-46740D01*
X68150Y-46740D01*
X68150Y-46675D01*
X68241Y-46722D01*
X68405Y-46654D01*
X68484Y-46582D01*
X68484Y-52979D01*
M02*
