%FSLAX34Y34*%
G04 Gerber Fmt 3.4, Leading zero omitted, Abs format*
G04 (created by PCBNEW (2014-02-26 BZR 4721)-product) date Donnerstag, 25. Dezember 2014 16:09:47*
%MOIN*%
G01*
G70*
G90*
G04 APERTURE LIST*
%ADD10C,0.005906*%
%ADD11C,0.007500*%
%ADD12C,0.005000*%
%ADD13C,0.007874*%
%ADD14C,0.002600*%
%ADD15C,0.006000*%
%ADD16C,0.002000*%
%ADD17C,0.004000*%
%ADD18C,0.010000*%
%ADD19C,0.003100*%
%ADD20C,0.008000*%
%ADD21C,0.012000*%
%ADD22C,0.005900*%
G04 APERTURE END LIST*
G54D10*
G54D11*
X65311Y-37728D02*
X65311Y-37842D01*
X65111Y-37771D02*
X65368Y-37771D01*
X65397Y-37785D01*
X65411Y-37814D01*
X65411Y-37842D01*
X65111Y-37942D02*
X65311Y-37942D01*
X65254Y-37942D02*
X65283Y-37957D01*
X65297Y-37971D01*
X65311Y-38000D01*
X65311Y-38028D01*
X65126Y-38242D02*
X65111Y-38214D01*
X65111Y-38157D01*
X65126Y-38128D01*
X65154Y-38114D01*
X65268Y-38114D01*
X65297Y-38128D01*
X65311Y-38157D01*
X65311Y-38214D01*
X65297Y-38242D01*
X65268Y-38257D01*
X65240Y-38257D01*
X65211Y-38114D01*
X65311Y-38385D02*
X65011Y-38385D01*
X65297Y-38385D02*
X65311Y-38414D01*
X65311Y-38471D01*
X65297Y-38500D01*
X65283Y-38514D01*
X65254Y-38528D01*
X65168Y-38528D01*
X65140Y-38514D01*
X65126Y-38500D01*
X65111Y-38471D01*
X65111Y-38414D01*
X65126Y-38385D01*
X65126Y-38671D02*
X65111Y-38671D01*
X65083Y-38657D01*
X65068Y-38642D01*
X65383Y-39014D02*
X65397Y-39028D01*
X65411Y-39057D01*
X65411Y-39128D01*
X65397Y-39157D01*
X65383Y-39171D01*
X65354Y-39185D01*
X65326Y-39185D01*
X65283Y-39171D01*
X65111Y-39000D01*
X65111Y-39185D01*
X65311Y-39442D02*
X65111Y-39442D01*
X65426Y-39371D02*
X65211Y-39300D01*
X65211Y-39485D01*
X65140Y-39600D02*
X65126Y-39614D01*
X65111Y-39600D01*
X65126Y-39585D01*
X65140Y-39600D01*
X65111Y-39600D01*
X65111Y-39899D02*
X65111Y-39728D01*
X65111Y-39814D02*
X65411Y-39814D01*
X65368Y-39785D01*
X65340Y-39757D01*
X65326Y-39728D01*
X65383Y-40014D02*
X65397Y-40028D01*
X65411Y-40057D01*
X65411Y-40128D01*
X65397Y-40157D01*
X65383Y-40171D01*
X65354Y-40185D01*
X65326Y-40185D01*
X65283Y-40171D01*
X65111Y-39999D01*
X65111Y-40185D01*
X65140Y-40314D02*
X65126Y-40328D01*
X65111Y-40314D01*
X65126Y-40299D01*
X65140Y-40314D01*
X65111Y-40314D01*
X65383Y-40442D02*
X65397Y-40457D01*
X65411Y-40485D01*
X65411Y-40557D01*
X65397Y-40585D01*
X65383Y-40599D01*
X65354Y-40614D01*
X65326Y-40614D01*
X65283Y-40599D01*
X65111Y-40428D01*
X65111Y-40614D01*
X65411Y-40799D02*
X65411Y-40828D01*
X65397Y-40857D01*
X65383Y-40871D01*
X65354Y-40885D01*
X65297Y-40899D01*
X65226Y-40899D01*
X65168Y-40885D01*
X65140Y-40871D01*
X65126Y-40857D01*
X65111Y-40828D01*
X65111Y-40799D01*
X65126Y-40771D01*
X65140Y-40757D01*
X65168Y-40742D01*
X65226Y-40728D01*
X65297Y-40728D01*
X65354Y-40742D01*
X65383Y-40757D01*
X65397Y-40771D01*
X65411Y-40799D01*
X65111Y-41185D02*
X65111Y-41014D01*
X65111Y-41099D02*
X65411Y-41099D01*
X65368Y-41071D01*
X65340Y-41042D01*
X65326Y-41014D01*
X65311Y-41442D02*
X65111Y-41442D01*
X65426Y-41371D02*
X65211Y-41299D01*
X65211Y-41485D01*
X64616Y-37942D02*
X64759Y-37842D01*
X64616Y-37771D02*
X64916Y-37771D01*
X64916Y-37885D01*
X64902Y-37914D01*
X64888Y-37928D01*
X64859Y-37942D01*
X64816Y-37942D01*
X64788Y-37928D01*
X64773Y-37914D01*
X64759Y-37885D01*
X64759Y-37771D01*
X64616Y-38200D02*
X64773Y-38200D01*
X64802Y-38185D01*
X64816Y-38157D01*
X64816Y-38100D01*
X64802Y-38071D01*
X64631Y-38200D02*
X64616Y-38171D01*
X64616Y-38100D01*
X64631Y-38071D01*
X64659Y-38057D01*
X64688Y-38057D01*
X64716Y-38071D01*
X64731Y-38100D01*
X64731Y-38171D01*
X64745Y-38200D01*
X64616Y-38471D02*
X64916Y-38471D01*
X64631Y-38471D02*
X64616Y-38442D01*
X64616Y-38385D01*
X64631Y-38357D01*
X64645Y-38342D01*
X64673Y-38328D01*
X64759Y-38328D01*
X64788Y-38342D01*
X64802Y-38357D01*
X64816Y-38385D01*
X64816Y-38442D01*
X64802Y-38471D01*
X64616Y-38585D02*
X64816Y-38742D01*
X64816Y-38585D02*
X64616Y-38742D01*
X64616Y-38985D02*
X64773Y-38985D01*
X64802Y-38971D01*
X64816Y-38942D01*
X64816Y-38885D01*
X64802Y-38857D01*
X64631Y-38985D02*
X64616Y-38957D01*
X64616Y-38885D01*
X64631Y-38857D01*
X64659Y-38842D01*
X64688Y-38842D01*
X64716Y-38857D01*
X64731Y-38885D01*
X64731Y-38957D01*
X64745Y-38985D01*
X64616Y-39528D02*
X64759Y-39428D01*
X64616Y-39357D02*
X64916Y-39357D01*
X64916Y-39471D01*
X64902Y-39500D01*
X64888Y-39514D01*
X64859Y-39528D01*
X64816Y-39528D01*
X64788Y-39514D01*
X64773Y-39500D01*
X64759Y-39471D01*
X64759Y-39357D01*
X64616Y-39700D02*
X64631Y-39671D01*
X64645Y-39657D01*
X64673Y-39642D01*
X64759Y-39642D01*
X64788Y-39657D01*
X64802Y-39671D01*
X64816Y-39700D01*
X64816Y-39742D01*
X64802Y-39771D01*
X64788Y-39785D01*
X64759Y-39800D01*
X64673Y-39800D01*
X64645Y-39785D01*
X64631Y-39771D01*
X64616Y-39742D01*
X64616Y-39700D01*
X64631Y-40057D02*
X64616Y-40028D01*
X64616Y-39971D01*
X64631Y-39942D01*
X64645Y-39928D01*
X64673Y-39914D01*
X64759Y-39914D01*
X64788Y-39928D01*
X64802Y-39942D01*
X64816Y-39971D01*
X64816Y-40028D01*
X64802Y-40057D01*
X64616Y-40185D02*
X64916Y-40185D01*
X64731Y-40214D02*
X64616Y-40300D01*
X64816Y-40300D02*
X64702Y-40185D01*
X64702Y-40642D02*
X64702Y-40785D01*
X64616Y-40614D02*
X64916Y-40714D01*
X64616Y-40814D01*
X64616Y-40914D02*
X64816Y-40914D01*
X64759Y-40914D02*
X64788Y-40928D01*
X64802Y-40942D01*
X64816Y-40971D01*
X64816Y-41000D01*
X64616Y-41228D02*
X64916Y-41228D01*
X64631Y-41228D02*
X64616Y-41200D01*
X64616Y-41142D01*
X64631Y-41114D01*
X64645Y-41100D01*
X64673Y-41085D01*
X64759Y-41085D01*
X64788Y-41100D01*
X64802Y-41114D01*
X64816Y-41142D01*
X64816Y-41200D01*
X64802Y-41228D01*
X64816Y-41500D02*
X64616Y-41500D01*
X64816Y-41371D02*
X64659Y-41371D01*
X64631Y-41385D01*
X64616Y-41414D01*
X64616Y-41457D01*
X64631Y-41485D01*
X64645Y-41500D01*
X64616Y-41642D02*
X64816Y-41642D01*
X64916Y-41642D02*
X64902Y-41628D01*
X64888Y-41642D01*
X64902Y-41657D01*
X64916Y-41642D01*
X64888Y-41642D01*
X64816Y-41785D02*
X64616Y-41785D01*
X64788Y-41785D02*
X64802Y-41800D01*
X64816Y-41828D01*
X64816Y-41871D01*
X64802Y-41900D01*
X64773Y-41914D01*
X64616Y-41914D01*
X64616Y-42100D02*
X64631Y-42071D01*
X64645Y-42057D01*
X64673Y-42042D01*
X64759Y-42042D01*
X64788Y-42057D01*
X64802Y-42071D01*
X64816Y-42100D01*
X64816Y-42142D01*
X64802Y-42171D01*
X64788Y-42185D01*
X64759Y-42200D01*
X64673Y-42200D01*
X64645Y-42185D01*
X64631Y-42171D01*
X64616Y-42142D01*
X64616Y-42100D01*
X64631Y-42542D02*
X64616Y-42585D01*
X64616Y-42657D01*
X64631Y-42685D01*
X64645Y-42700D01*
X64673Y-42714D01*
X64702Y-42714D01*
X64731Y-42700D01*
X64745Y-42685D01*
X64759Y-42657D01*
X64773Y-42600D01*
X64788Y-42571D01*
X64802Y-42557D01*
X64831Y-42542D01*
X64859Y-42542D01*
X64888Y-42557D01*
X64902Y-42571D01*
X64916Y-42600D01*
X64916Y-42671D01*
X64902Y-42714D01*
X64616Y-42842D02*
X64916Y-42842D01*
X64616Y-42971D02*
X64773Y-42971D01*
X64802Y-42957D01*
X64816Y-42928D01*
X64816Y-42885D01*
X64802Y-42857D01*
X64788Y-42842D01*
X64616Y-43114D02*
X64816Y-43114D01*
X64916Y-43114D02*
X64902Y-43100D01*
X64888Y-43114D01*
X64902Y-43128D01*
X64916Y-43114D01*
X64888Y-43114D01*
X64631Y-43371D02*
X64616Y-43342D01*
X64616Y-43285D01*
X64631Y-43257D01*
X64659Y-43242D01*
X64773Y-43242D01*
X64802Y-43257D01*
X64816Y-43285D01*
X64816Y-43342D01*
X64802Y-43371D01*
X64773Y-43385D01*
X64745Y-43385D01*
X64716Y-43242D01*
X64616Y-43557D02*
X64631Y-43528D01*
X64659Y-43514D01*
X64916Y-43514D01*
X64616Y-43800D02*
X64916Y-43800D01*
X64631Y-43800D02*
X64616Y-43771D01*
X64616Y-43714D01*
X64631Y-43685D01*
X64645Y-43671D01*
X64673Y-43657D01*
X64759Y-43657D01*
X64788Y-43671D01*
X64802Y-43685D01*
X64816Y-43714D01*
X64816Y-43771D01*
X64802Y-43800D01*
X64616Y-44800D02*
X64759Y-44700D01*
X64616Y-44628D02*
X64916Y-44628D01*
X64916Y-44742D01*
X64902Y-44771D01*
X64888Y-44785D01*
X64859Y-44800D01*
X64816Y-44800D01*
X64788Y-44785D01*
X64773Y-44771D01*
X64759Y-44742D01*
X64759Y-44628D01*
X64773Y-44928D02*
X64773Y-45028D01*
X64616Y-45071D02*
X64616Y-44928D01*
X64916Y-44928D01*
X64916Y-45071D01*
X64916Y-45157D02*
X64616Y-45257D01*
X64916Y-45357D01*
X64645Y-45457D02*
X64631Y-45471D01*
X64616Y-45457D01*
X64631Y-45442D01*
X64645Y-45457D01*
X64616Y-45457D01*
X64802Y-45457D02*
X64788Y-45471D01*
X64773Y-45457D01*
X64788Y-45442D01*
X64802Y-45457D01*
X64773Y-45457D01*
X64702Y-45814D02*
X64702Y-45957D01*
X64616Y-45785D02*
X64916Y-45885D01*
X64616Y-45985D01*
G54D12*
X31980Y-24890D02*
X31914Y-24795D01*
X31866Y-24890D02*
X31866Y-24690D01*
X31942Y-24690D01*
X31961Y-24700D01*
X31971Y-24709D01*
X31980Y-24728D01*
X31980Y-24757D01*
X31971Y-24776D01*
X31961Y-24785D01*
X31942Y-24795D01*
X31866Y-24795D01*
X32057Y-24833D02*
X32152Y-24833D01*
X32038Y-24890D02*
X32104Y-24690D01*
X32171Y-24890D01*
X32238Y-24890D02*
X32238Y-24690D01*
X32285Y-24690D01*
X32314Y-24700D01*
X32333Y-24719D01*
X32342Y-24738D01*
X32352Y-24776D01*
X32352Y-24804D01*
X32342Y-24842D01*
X32333Y-24861D01*
X32314Y-24880D01*
X32285Y-24890D01*
X32238Y-24890D01*
X32438Y-24871D02*
X32447Y-24880D01*
X32438Y-24890D01*
X32428Y-24880D01*
X32438Y-24871D01*
X32438Y-24890D01*
X32800Y-24890D02*
X32733Y-24795D01*
X32685Y-24890D02*
X32685Y-24690D01*
X32761Y-24690D01*
X32780Y-24700D01*
X32790Y-24709D01*
X32800Y-24728D01*
X32800Y-24757D01*
X32790Y-24776D01*
X32780Y-24785D01*
X32761Y-24795D01*
X32685Y-24795D01*
X32857Y-24690D02*
X32971Y-24690D01*
X32914Y-24890D02*
X32914Y-24690D01*
X33028Y-24880D02*
X33057Y-24890D01*
X33104Y-24890D01*
X33123Y-24880D01*
X33133Y-24871D01*
X33142Y-24852D01*
X33142Y-24833D01*
X33133Y-24814D01*
X33123Y-24804D01*
X33104Y-24795D01*
X33066Y-24785D01*
X33047Y-24776D01*
X33038Y-24766D01*
X33028Y-24747D01*
X33028Y-24728D01*
X33038Y-24709D01*
X33047Y-24700D01*
X33066Y-24690D01*
X33114Y-24690D01*
X33142Y-24700D01*
X35419Y-24833D02*
X35514Y-24833D01*
X35399Y-24890D02*
X35466Y-24690D01*
X35533Y-24890D01*
X35714Y-24890D02*
X35647Y-24795D01*
X35599Y-24890D02*
X35599Y-24690D01*
X35676Y-24690D01*
X35695Y-24700D01*
X35704Y-24709D01*
X35714Y-24728D01*
X35714Y-24757D01*
X35704Y-24776D01*
X35695Y-24785D01*
X35676Y-24795D01*
X35599Y-24795D01*
X35799Y-24890D02*
X35799Y-24690D01*
X35847Y-24690D01*
X35876Y-24700D01*
X35895Y-24719D01*
X35904Y-24738D01*
X35914Y-24776D01*
X35914Y-24804D01*
X35904Y-24842D01*
X35895Y-24861D01*
X35876Y-24880D01*
X35847Y-24890D01*
X35799Y-24890D01*
X35999Y-24871D02*
X36009Y-24880D01*
X35999Y-24890D01*
X35990Y-24880D01*
X35999Y-24871D01*
X35999Y-24890D01*
X36361Y-24890D02*
X36295Y-24795D01*
X36247Y-24890D02*
X36247Y-24690D01*
X36323Y-24690D01*
X36342Y-24700D01*
X36352Y-24709D01*
X36361Y-24728D01*
X36361Y-24757D01*
X36352Y-24776D01*
X36342Y-24785D01*
X36323Y-24795D01*
X36247Y-24795D01*
X36523Y-24880D02*
X36504Y-24890D01*
X36466Y-24890D01*
X36447Y-24880D01*
X36438Y-24861D01*
X36438Y-24785D01*
X36447Y-24766D01*
X36466Y-24757D01*
X36504Y-24757D01*
X36523Y-24766D01*
X36533Y-24785D01*
X36533Y-24804D01*
X36438Y-24823D01*
X36609Y-24880D02*
X36628Y-24890D01*
X36666Y-24890D01*
X36685Y-24880D01*
X36695Y-24861D01*
X36695Y-24852D01*
X36685Y-24833D01*
X36666Y-24823D01*
X36638Y-24823D01*
X36619Y-24814D01*
X36609Y-24795D01*
X36609Y-24785D01*
X36619Y-24766D01*
X36638Y-24757D01*
X36666Y-24757D01*
X36685Y-24766D01*
X36857Y-24880D02*
X36838Y-24890D01*
X36800Y-24890D01*
X36780Y-24880D01*
X36771Y-24861D01*
X36771Y-24785D01*
X36780Y-24766D01*
X36800Y-24757D01*
X36838Y-24757D01*
X36857Y-24766D01*
X36866Y-24785D01*
X36866Y-24804D01*
X36771Y-24823D01*
X36923Y-24757D02*
X37000Y-24757D01*
X36952Y-24690D02*
X36952Y-24861D01*
X36961Y-24880D01*
X36980Y-24890D01*
X37000Y-24890D01*
X30466Y-49390D02*
X30466Y-49190D01*
X30542Y-49190D01*
X30561Y-49200D01*
X30571Y-49209D01*
X30580Y-49228D01*
X30580Y-49257D01*
X30571Y-49276D01*
X30561Y-49285D01*
X30542Y-49295D01*
X30466Y-49295D01*
X30704Y-49190D02*
X30742Y-49190D01*
X30761Y-49200D01*
X30780Y-49219D01*
X30790Y-49257D01*
X30790Y-49323D01*
X30780Y-49361D01*
X30761Y-49380D01*
X30742Y-49390D01*
X30704Y-49390D01*
X30685Y-49380D01*
X30666Y-49361D01*
X30657Y-49323D01*
X30657Y-49257D01*
X30666Y-49219D01*
X30685Y-49200D01*
X30704Y-49190D01*
X30857Y-49190D02*
X30904Y-49390D01*
X30942Y-49247D01*
X30980Y-49390D01*
X31028Y-49190D01*
X31104Y-49285D02*
X31171Y-49285D01*
X31199Y-49390D02*
X31104Y-49390D01*
X31104Y-49190D01*
X31199Y-49190D01*
X31399Y-49390D02*
X31333Y-49295D01*
X31285Y-49390D02*
X31285Y-49190D01*
X31361Y-49190D01*
X31380Y-49200D01*
X31390Y-49209D01*
X31399Y-49228D01*
X31399Y-49257D01*
X31390Y-49276D01*
X31380Y-49285D01*
X31361Y-49295D01*
X31285Y-49295D01*
X31638Y-49390D02*
X31638Y-49190D01*
X31685Y-49190D01*
X31714Y-49200D01*
X31733Y-49219D01*
X31742Y-49238D01*
X31752Y-49276D01*
X31752Y-49304D01*
X31742Y-49342D01*
X31733Y-49361D01*
X31714Y-49380D01*
X31685Y-49390D01*
X31638Y-49390D01*
X31838Y-49390D02*
X31838Y-49190D01*
X31923Y-49380D02*
X31952Y-49390D01*
X32000Y-49390D01*
X32019Y-49380D01*
X32028Y-49371D01*
X32038Y-49352D01*
X32038Y-49333D01*
X32028Y-49314D01*
X32019Y-49304D01*
X32000Y-49295D01*
X31961Y-49285D01*
X31942Y-49276D01*
X31933Y-49266D01*
X31923Y-49247D01*
X31923Y-49228D01*
X31933Y-49209D01*
X31942Y-49200D01*
X31961Y-49190D01*
X32009Y-49190D01*
X32038Y-49200D01*
X32123Y-49390D02*
X32123Y-49190D01*
X32200Y-49190D01*
X32219Y-49200D01*
X32228Y-49209D01*
X32238Y-49228D01*
X32238Y-49257D01*
X32228Y-49276D01*
X32219Y-49285D01*
X32200Y-49295D01*
X32123Y-49295D01*
X32419Y-49390D02*
X32323Y-49390D01*
X32323Y-49190D01*
X32476Y-49333D02*
X32571Y-49333D01*
X32457Y-49390D02*
X32523Y-49190D01*
X32590Y-49390D01*
X32695Y-49295D02*
X32695Y-49390D01*
X32628Y-49190D02*
X32695Y-49295D01*
X32761Y-49190D01*
G54D13*
X32300Y-42500D02*
X32300Y-42900D01*
X32300Y-43900D02*
X32300Y-43500D01*
X32300Y-44900D02*
X32300Y-44500D01*
X32300Y-45900D02*
X32300Y-45500D01*
X32300Y-46800D02*
X32300Y-46500D01*
X33700Y-46800D02*
X32300Y-46800D01*
X33700Y-45300D02*
X33700Y-46800D01*
X33700Y-43400D02*
X33700Y-43900D01*
X33300Y-42500D02*
X33700Y-42500D01*
X32300Y-42500D02*
X32600Y-42500D01*
G54D12*
X31952Y-43090D02*
X32076Y-43090D01*
X32009Y-43166D01*
X32038Y-43166D01*
X32057Y-43176D01*
X32066Y-43185D01*
X32076Y-43204D01*
X32076Y-43252D01*
X32066Y-43271D01*
X32057Y-43280D01*
X32038Y-43290D01*
X31980Y-43290D01*
X31961Y-43280D01*
X31952Y-43271D01*
X32133Y-43090D02*
X32200Y-43290D01*
X32266Y-43090D01*
X32314Y-43090D02*
X32438Y-43090D01*
X32371Y-43166D01*
X32400Y-43166D01*
X32419Y-43176D01*
X32428Y-43185D01*
X32438Y-43204D01*
X32438Y-43252D01*
X32428Y-43271D01*
X32419Y-43280D01*
X32400Y-43290D01*
X32342Y-43290D01*
X32323Y-43280D01*
X32314Y-43271D01*
X31957Y-44280D02*
X31985Y-44290D01*
X32033Y-44290D01*
X32052Y-44280D01*
X32061Y-44271D01*
X32071Y-44252D01*
X32071Y-44233D01*
X32061Y-44214D01*
X32052Y-44204D01*
X32033Y-44195D01*
X31995Y-44185D01*
X31976Y-44176D01*
X31966Y-44166D01*
X31957Y-44147D01*
X31957Y-44128D01*
X31966Y-44109D01*
X31976Y-44100D01*
X31995Y-44090D01*
X32042Y-44090D01*
X32071Y-44100D01*
X32157Y-44290D02*
X32157Y-44090D01*
X32204Y-44090D01*
X32233Y-44100D01*
X32252Y-44119D01*
X32261Y-44138D01*
X32271Y-44176D01*
X32271Y-44204D01*
X32261Y-44242D01*
X32252Y-44261D01*
X32233Y-44280D01*
X32204Y-44290D01*
X32157Y-44290D01*
X32347Y-44233D02*
X32442Y-44233D01*
X32328Y-44290D02*
X32395Y-44090D01*
X32461Y-44290D01*
X31961Y-45280D02*
X31990Y-45290D01*
X32038Y-45290D01*
X32057Y-45280D01*
X32066Y-45271D01*
X32076Y-45252D01*
X32076Y-45233D01*
X32066Y-45214D01*
X32057Y-45204D01*
X32038Y-45195D01*
X32000Y-45185D01*
X31980Y-45176D01*
X31971Y-45166D01*
X31961Y-45147D01*
X31961Y-45128D01*
X31971Y-45109D01*
X31980Y-45100D01*
X32000Y-45090D01*
X32047Y-45090D01*
X32076Y-45100D01*
X32276Y-45271D02*
X32266Y-45280D01*
X32238Y-45290D01*
X32219Y-45290D01*
X32190Y-45280D01*
X32171Y-45261D01*
X32161Y-45242D01*
X32152Y-45204D01*
X32152Y-45176D01*
X32161Y-45138D01*
X32171Y-45119D01*
X32190Y-45100D01*
X32219Y-45090D01*
X32238Y-45090D01*
X32266Y-45100D01*
X32276Y-45109D01*
X32457Y-45290D02*
X32361Y-45290D01*
X32361Y-45090D01*
X32047Y-46100D02*
X32028Y-46090D01*
X32000Y-46090D01*
X31971Y-46100D01*
X31952Y-46119D01*
X31942Y-46138D01*
X31933Y-46176D01*
X31933Y-46204D01*
X31942Y-46242D01*
X31952Y-46261D01*
X31971Y-46280D01*
X32000Y-46290D01*
X32019Y-46290D01*
X32047Y-46280D01*
X32057Y-46271D01*
X32057Y-46204D01*
X32019Y-46204D01*
X32142Y-46290D02*
X32142Y-46090D01*
X32257Y-46290D01*
X32257Y-46090D01*
X32352Y-46290D02*
X32352Y-46090D01*
X32400Y-46090D01*
X32428Y-46100D01*
X32447Y-46119D01*
X32457Y-46138D01*
X32466Y-46176D01*
X32466Y-46204D01*
X32457Y-46242D01*
X32447Y-46261D01*
X32428Y-46280D01*
X32400Y-46290D01*
X32352Y-46290D01*
X33790Y-45147D02*
X33590Y-45147D01*
X33609Y-45061D02*
X33600Y-45052D01*
X33590Y-45033D01*
X33590Y-44985D01*
X33600Y-44966D01*
X33609Y-44957D01*
X33628Y-44947D01*
X33647Y-44947D01*
X33676Y-44957D01*
X33790Y-45071D01*
X33790Y-44947D01*
X33771Y-44747D02*
X33780Y-44757D01*
X33790Y-44785D01*
X33790Y-44804D01*
X33780Y-44833D01*
X33761Y-44852D01*
X33742Y-44861D01*
X33704Y-44871D01*
X33676Y-44871D01*
X33638Y-44861D01*
X33619Y-44852D01*
X33600Y-44833D01*
X33590Y-44804D01*
X33590Y-44785D01*
X33600Y-44757D01*
X33609Y-44747D01*
X33590Y-44528D02*
X33590Y-44404D01*
X33666Y-44471D01*
X33666Y-44442D01*
X33676Y-44423D01*
X33685Y-44414D01*
X33704Y-44404D01*
X33752Y-44404D01*
X33771Y-44414D01*
X33780Y-44423D01*
X33790Y-44442D01*
X33790Y-44500D01*
X33780Y-44519D01*
X33771Y-44528D01*
X33590Y-44347D02*
X33790Y-44280D01*
X33590Y-44214D01*
X33590Y-44166D02*
X33590Y-44042D01*
X33666Y-44109D01*
X33666Y-44080D01*
X33676Y-44061D01*
X33685Y-44052D01*
X33704Y-44042D01*
X33752Y-44042D01*
X33771Y-44052D01*
X33780Y-44061D01*
X33790Y-44080D01*
X33790Y-44138D01*
X33780Y-44157D01*
X33771Y-44166D01*
G54D13*
X33700Y-42500D02*
X33700Y-43400D01*
X33300Y-42500D02*
X32600Y-42500D01*
X32300Y-30800D02*
X32300Y-30700D01*
X33700Y-30800D02*
X33700Y-30700D01*
X33700Y-26500D02*
X33700Y-26600D01*
X32300Y-26500D02*
X32300Y-26600D01*
X33700Y-30700D02*
X33700Y-29200D01*
X32300Y-30800D02*
X33700Y-30800D01*
X32300Y-30500D02*
X32300Y-30700D01*
X32300Y-29500D02*
X32300Y-29900D01*
X32300Y-28500D02*
X32300Y-28900D01*
X32300Y-27500D02*
X32300Y-27900D01*
X32300Y-26600D02*
X32300Y-26900D01*
X33700Y-26500D02*
X32300Y-26500D01*
X33700Y-28000D02*
X33700Y-26600D01*
G54D12*
X32047Y-30100D02*
X32028Y-30090D01*
X32000Y-30090D01*
X31971Y-30100D01*
X31952Y-30119D01*
X31942Y-30138D01*
X31933Y-30176D01*
X31933Y-30204D01*
X31942Y-30242D01*
X31952Y-30261D01*
X31971Y-30280D01*
X32000Y-30290D01*
X32019Y-30290D01*
X32047Y-30280D01*
X32057Y-30271D01*
X32057Y-30204D01*
X32019Y-30204D01*
X32142Y-30290D02*
X32142Y-30090D01*
X32257Y-30290D01*
X32257Y-30090D01*
X32352Y-30290D02*
X32352Y-30090D01*
X32400Y-30090D01*
X32428Y-30100D01*
X32447Y-30119D01*
X32457Y-30138D01*
X32466Y-30176D01*
X32466Y-30204D01*
X32457Y-30242D01*
X32447Y-30261D01*
X32428Y-30280D01*
X32400Y-30290D01*
X32352Y-30290D01*
X31961Y-29280D02*
X31990Y-29290D01*
X32038Y-29290D01*
X32057Y-29280D01*
X32066Y-29271D01*
X32076Y-29252D01*
X32076Y-29233D01*
X32066Y-29214D01*
X32057Y-29204D01*
X32038Y-29195D01*
X32000Y-29185D01*
X31980Y-29176D01*
X31971Y-29166D01*
X31961Y-29147D01*
X31961Y-29128D01*
X31971Y-29109D01*
X31980Y-29100D01*
X32000Y-29090D01*
X32047Y-29090D01*
X32076Y-29100D01*
X32276Y-29271D02*
X32266Y-29280D01*
X32238Y-29290D01*
X32219Y-29290D01*
X32190Y-29280D01*
X32171Y-29261D01*
X32161Y-29242D01*
X32152Y-29204D01*
X32152Y-29176D01*
X32161Y-29138D01*
X32171Y-29119D01*
X32190Y-29100D01*
X32219Y-29090D01*
X32238Y-29090D01*
X32266Y-29100D01*
X32276Y-29109D01*
X32457Y-29290D02*
X32361Y-29290D01*
X32361Y-29090D01*
X31957Y-28280D02*
X31985Y-28290D01*
X32033Y-28290D01*
X32052Y-28280D01*
X32061Y-28271D01*
X32071Y-28252D01*
X32071Y-28233D01*
X32061Y-28214D01*
X32052Y-28204D01*
X32033Y-28195D01*
X31995Y-28185D01*
X31976Y-28176D01*
X31966Y-28166D01*
X31957Y-28147D01*
X31957Y-28128D01*
X31966Y-28109D01*
X31976Y-28100D01*
X31995Y-28090D01*
X32042Y-28090D01*
X32071Y-28100D01*
X32157Y-28290D02*
X32157Y-28090D01*
X32204Y-28090D01*
X32233Y-28100D01*
X32252Y-28119D01*
X32261Y-28138D01*
X32271Y-28176D01*
X32271Y-28204D01*
X32261Y-28242D01*
X32252Y-28261D01*
X32233Y-28280D01*
X32204Y-28290D01*
X32157Y-28290D01*
X32347Y-28233D02*
X32442Y-28233D01*
X32328Y-28290D02*
X32395Y-28090D01*
X32461Y-28290D01*
X32261Y-27090D02*
X32166Y-27090D01*
X32157Y-27185D01*
X32166Y-27176D01*
X32185Y-27166D01*
X32233Y-27166D01*
X32252Y-27176D01*
X32261Y-27185D01*
X32271Y-27204D01*
X32271Y-27252D01*
X32261Y-27271D01*
X32252Y-27280D01*
X32233Y-27290D01*
X32185Y-27290D01*
X32166Y-27280D01*
X32157Y-27271D01*
X32328Y-27090D02*
X32395Y-27290D01*
X32461Y-27090D01*
X33790Y-29052D02*
X33590Y-29052D01*
X33609Y-28966D02*
X33600Y-28957D01*
X33590Y-28938D01*
X33590Y-28890D01*
X33600Y-28871D01*
X33609Y-28861D01*
X33628Y-28852D01*
X33647Y-28852D01*
X33676Y-28861D01*
X33790Y-28976D01*
X33790Y-28852D01*
X33771Y-28652D02*
X33780Y-28661D01*
X33790Y-28690D01*
X33790Y-28709D01*
X33780Y-28738D01*
X33761Y-28757D01*
X33742Y-28766D01*
X33704Y-28776D01*
X33676Y-28776D01*
X33638Y-28766D01*
X33619Y-28757D01*
X33600Y-28738D01*
X33590Y-28709D01*
X33590Y-28690D01*
X33600Y-28661D01*
X33609Y-28652D01*
X33590Y-28319D02*
X33590Y-28414D01*
X33685Y-28423D01*
X33676Y-28414D01*
X33666Y-28395D01*
X33666Y-28347D01*
X33676Y-28328D01*
X33685Y-28319D01*
X33704Y-28309D01*
X33752Y-28309D01*
X33771Y-28319D01*
X33780Y-28328D01*
X33790Y-28347D01*
X33790Y-28395D01*
X33780Y-28414D01*
X33771Y-28423D01*
X33590Y-28252D02*
X33790Y-28185D01*
X33590Y-28119D01*
X64711Y-32690D02*
X64616Y-32690D01*
X64616Y-32490D01*
X64778Y-32690D02*
X64778Y-32490D01*
X64845Y-32633D01*
X64911Y-32490D01*
X64911Y-32690D01*
X64988Y-32490D02*
X65111Y-32490D01*
X65045Y-32566D01*
X65073Y-32566D01*
X65092Y-32576D01*
X65102Y-32585D01*
X65111Y-32604D01*
X65111Y-32652D01*
X65102Y-32671D01*
X65092Y-32680D01*
X65073Y-32690D01*
X65016Y-32690D01*
X64997Y-32680D01*
X64988Y-32671D01*
X65292Y-32490D02*
X65197Y-32490D01*
X65188Y-32585D01*
X65197Y-32576D01*
X65216Y-32566D01*
X65264Y-32566D01*
X65283Y-32576D01*
X65292Y-32585D01*
X65302Y-32604D01*
X65302Y-32652D01*
X65292Y-32671D01*
X65283Y-32680D01*
X65264Y-32690D01*
X65216Y-32690D01*
X65197Y-32680D01*
X65188Y-32671D01*
X65416Y-32576D02*
X65397Y-32566D01*
X65388Y-32557D01*
X65378Y-32538D01*
X65378Y-32528D01*
X65388Y-32509D01*
X65397Y-32500D01*
X65416Y-32490D01*
X65454Y-32490D01*
X65473Y-32500D01*
X65483Y-32509D01*
X65492Y-32528D01*
X65492Y-32538D01*
X65483Y-32557D01*
X65473Y-32566D01*
X65454Y-32576D01*
X65416Y-32576D01*
X65397Y-32585D01*
X65388Y-32595D01*
X65378Y-32614D01*
X65378Y-32652D01*
X65388Y-32671D01*
X65397Y-32680D01*
X65416Y-32690D01*
X65454Y-32690D01*
X65473Y-32680D01*
X65483Y-32671D01*
X65492Y-32652D01*
X65492Y-32614D01*
X65483Y-32595D01*
X65473Y-32585D01*
X65454Y-32576D01*
X49740Y-36447D02*
X49540Y-36447D01*
X49540Y-36400D01*
X49550Y-36371D01*
X49569Y-36352D01*
X49588Y-36342D01*
X49626Y-36333D01*
X49654Y-36333D01*
X49692Y-36342D01*
X49711Y-36352D01*
X49730Y-36371D01*
X49740Y-36400D01*
X49740Y-36447D01*
X49635Y-36180D02*
X49645Y-36152D01*
X49654Y-36142D01*
X49673Y-36133D01*
X49702Y-36133D01*
X49721Y-36142D01*
X49730Y-36152D01*
X49740Y-36171D01*
X49740Y-36247D01*
X49540Y-36247D01*
X49540Y-36180D01*
X49550Y-36161D01*
X49559Y-36152D01*
X49578Y-36142D01*
X49597Y-36142D01*
X49616Y-36152D01*
X49626Y-36161D01*
X49635Y-36180D01*
X49635Y-36247D01*
X49540Y-36066D02*
X49540Y-35933D01*
X49740Y-36019D01*
X48740Y-36447D02*
X48540Y-36447D01*
X48540Y-36400D01*
X48550Y-36371D01*
X48569Y-36352D01*
X48588Y-36342D01*
X48626Y-36333D01*
X48654Y-36333D01*
X48692Y-36342D01*
X48711Y-36352D01*
X48730Y-36371D01*
X48740Y-36400D01*
X48740Y-36447D01*
X48635Y-36180D02*
X48645Y-36152D01*
X48654Y-36142D01*
X48673Y-36133D01*
X48702Y-36133D01*
X48721Y-36142D01*
X48730Y-36152D01*
X48740Y-36171D01*
X48740Y-36247D01*
X48540Y-36247D01*
X48540Y-36180D01*
X48550Y-36161D01*
X48559Y-36152D01*
X48578Y-36142D01*
X48597Y-36142D01*
X48616Y-36152D01*
X48626Y-36161D01*
X48635Y-36180D01*
X48635Y-36247D01*
X48540Y-35961D02*
X48540Y-36000D01*
X48550Y-36019D01*
X48559Y-36028D01*
X48588Y-36047D01*
X48626Y-36057D01*
X48702Y-36057D01*
X48721Y-36047D01*
X48730Y-36038D01*
X48740Y-36019D01*
X48740Y-35980D01*
X48730Y-35961D01*
X48721Y-35952D01*
X48702Y-35942D01*
X48654Y-35942D01*
X48635Y-35952D01*
X48626Y-35961D01*
X48616Y-35980D01*
X48616Y-36019D01*
X48626Y-36038D01*
X48635Y-36047D01*
X48654Y-36057D01*
X47740Y-36447D02*
X47540Y-36447D01*
X47540Y-36400D01*
X47550Y-36371D01*
X47569Y-36352D01*
X47588Y-36342D01*
X47626Y-36333D01*
X47654Y-36333D01*
X47692Y-36342D01*
X47711Y-36352D01*
X47730Y-36371D01*
X47740Y-36400D01*
X47740Y-36447D01*
X47635Y-36180D02*
X47645Y-36152D01*
X47654Y-36142D01*
X47673Y-36133D01*
X47702Y-36133D01*
X47721Y-36142D01*
X47730Y-36152D01*
X47740Y-36171D01*
X47740Y-36247D01*
X47540Y-36247D01*
X47540Y-36180D01*
X47550Y-36161D01*
X47559Y-36152D01*
X47578Y-36142D01*
X47597Y-36142D01*
X47616Y-36152D01*
X47626Y-36161D01*
X47635Y-36180D01*
X47635Y-36247D01*
X47540Y-35952D02*
X47540Y-36047D01*
X47635Y-36057D01*
X47626Y-36047D01*
X47616Y-36028D01*
X47616Y-35980D01*
X47626Y-35961D01*
X47635Y-35952D01*
X47654Y-35942D01*
X47702Y-35942D01*
X47721Y-35952D01*
X47730Y-35961D01*
X47740Y-35980D01*
X47740Y-36028D01*
X47730Y-36047D01*
X47721Y-36057D01*
X46740Y-36447D02*
X46540Y-36447D01*
X46540Y-36400D01*
X46550Y-36371D01*
X46569Y-36352D01*
X46588Y-36342D01*
X46626Y-36333D01*
X46654Y-36333D01*
X46692Y-36342D01*
X46711Y-36352D01*
X46730Y-36371D01*
X46740Y-36400D01*
X46740Y-36447D01*
X46635Y-36180D02*
X46645Y-36152D01*
X46654Y-36142D01*
X46673Y-36133D01*
X46702Y-36133D01*
X46721Y-36142D01*
X46730Y-36152D01*
X46740Y-36171D01*
X46740Y-36247D01*
X46540Y-36247D01*
X46540Y-36180D01*
X46550Y-36161D01*
X46559Y-36152D01*
X46578Y-36142D01*
X46597Y-36142D01*
X46616Y-36152D01*
X46626Y-36161D01*
X46635Y-36180D01*
X46635Y-36247D01*
X46607Y-35961D02*
X46740Y-35961D01*
X46530Y-36009D02*
X46673Y-36057D01*
X46673Y-35933D01*
X45740Y-36447D02*
X45540Y-36447D01*
X45540Y-36400D01*
X45550Y-36371D01*
X45569Y-36352D01*
X45588Y-36342D01*
X45626Y-36333D01*
X45654Y-36333D01*
X45692Y-36342D01*
X45711Y-36352D01*
X45730Y-36371D01*
X45740Y-36400D01*
X45740Y-36447D01*
X45635Y-36180D02*
X45645Y-36152D01*
X45654Y-36142D01*
X45673Y-36133D01*
X45702Y-36133D01*
X45721Y-36142D01*
X45730Y-36152D01*
X45740Y-36171D01*
X45740Y-36247D01*
X45540Y-36247D01*
X45540Y-36180D01*
X45550Y-36161D01*
X45559Y-36152D01*
X45578Y-36142D01*
X45597Y-36142D01*
X45616Y-36152D01*
X45626Y-36161D01*
X45635Y-36180D01*
X45635Y-36247D01*
X45540Y-36066D02*
X45540Y-35942D01*
X45616Y-36009D01*
X45616Y-35980D01*
X45626Y-35961D01*
X45635Y-35952D01*
X45654Y-35942D01*
X45702Y-35942D01*
X45721Y-35952D01*
X45730Y-35961D01*
X45740Y-35980D01*
X45740Y-36038D01*
X45730Y-36057D01*
X45721Y-36066D01*
X44740Y-36447D02*
X44540Y-36447D01*
X44540Y-36400D01*
X44550Y-36371D01*
X44569Y-36352D01*
X44588Y-36342D01*
X44626Y-36333D01*
X44654Y-36333D01*
X44692Y-36342D01*
X44711Y-36352D01*
X44730Y-36371D01*
X44740Y-36400D01*
X44740Y-36447D01*
X44635Y-36180D02*
X44645Y-36152D01*
X44654Y-36142D01*
X44673Y-36133D01*
X44702Y-36133D01*
X44721Y-36142D01*
X44730Y-36152D01*
X44740Y-36171D01*
X44740Y-36247D01*
X44540Y-36247D01*
X44540Y-36180D01*
X44550Y-36161D01*
X44559Y-36152D01*
X44578Y-36142D01*
X44597Y-36142D01*
X44616Y-36152D01*
X44626Y-36161D01*
X44635Y-36180D01*
X44635Y-36247D01*
X44559Y-36057D02*
X44550Y-36047D01*
X44540Y-36028D01*
X44540Y-35980D01*
X44550Y-35961D01*
X44559Y-35952D01*
X44578Y-35942D01*
X44597Y-35942D01*
X44626Y-35952D01*
X44740Y-36066D01*
X44740Y-35942D01*
X43740Y-36447D02*
X43540Y-36447D01*
X43540Y-36400D01*
X43550Y-36371D01*
X43569Y-36352D01*
X43588Y-36342D01*
X43626Y-36333D01*
X43654Y-36333D01*
X43692Y-36342D01*
X43711Y-36352D01*
X43730Y-36371D01*
X43740Y-36400D01*
X43740Y-36447D01*
X43635Y-36180D02*
X43645Y-36152D01*
X43654Y-36142D01*
X43673Y-36133D01*
X43702Y-36133D01*
X43721Y-36142D01*
X43730Y-36152D01*
X43740Y-36171D01*
X43740Y-36247D01*
X43540Y-36247D01*
X43540Y-36180D01*
X43550Y-36161D01*
X43559Y-36152D01*
X43578Y-36142D01*
X43597Y-36142D01*
X43616Y-36152D01*
X43626Y-36161D01*
X43635Y-36180D01*
X43635Y-36247D01*
X43740Y-35942D02*
X43740Y-36057D01*
X43740Y-36000D02*
X43540Y-36000D01*
X43569Y-36019D01*
X43588Y-36038D01*
X43597Y-36057D01*
X42740Y-36447D02*
X42540Y-36447D01*
X42540Y-36400D01*
X42550Y-36371D01*
X42569Y-36352D01*
X42588Y-36342D01*
X42626Y-36333D01*
X42654Y-36333D01*
X42692Y-36342D01*
X42711Y-36352D01*
X42730Y-36371D01*
X42740Y-36400D01*
X42740Y-36447D01*
X42635Y-36180D02*
X42645Y-36152D01*
X42654Y-36142D01*
X42673Y-36133D01*
X42702Y-36133D01*
X42721Y-36142D01*
X42730Y-36152D01*
X42740Y-36171D01*
X42740Y-36247D01*
X42540Y-36247D01*
X42540Y-36180D01*
X42550Y-36161D01*
X42559Y-36152D01*
X42578Y-36142D01*
X42597Y-36142D01*
X42616Y-36152D01*
X42626Y-36161D01*
X42635Y-36180D01*
X42635Y-36247D01*
X42540Y-36009D02*
X42540Y-35990D01*
X42550Y-35971D01*
X42559Y-35961D01*
X42578Y-35952D01*
X42616Y-35942D01*
X42664Y-35942D01*
X42702Y-35952D01*
X42721Y-35961D01*
X42730Y-35971D01*
X42740Y-35990D01*
X42740Y-36009D01*
X42730Y-36028D01*
X42721Y-36038D01*
X42702Y-36047D01*
X42664Y-36057D01*
X42616Y-36057D01*
X42578Y-36047D01*
X42559Y-36038D01*
X42550Y-36028D01*
X42540Y-36009D01*
X41635Y-36042D02*
X41635Y-35976D01*
X41740Y-35947D02*
X41740Y-36042D01*
X41540Y-36042D01*
X41540Y-35947D01*
X40740Y-36152D02*
X40645Y-36219D01*
X40740Y-36266D02*
X40540Y-36266D01*
X40540Y-36190D01*
X40550Y-36171D01*
X40559Y-36161D01*
X40578Y-36152D01*
X40607Y-36152D01*
X40626Y-36161D01*
X40635Y-36171D01*
X40645Y-36190D01*
X40645Y-36266D01*
X40540Y-36085D02*
X40740Y-36038D01*
X40597Y-35999D01*
X40740Y-35961D01*
X40540Y-35914D01*
X39740Y-36133D02*
X39645Y-36200D01*
X39740Y-36247D02*
X39540Y-36247D01*
X39540Y-36171D01*
X39550Y-36152D01*
X39559Y-36142D01*
X39578Y-36133D01*
X39607Y-36133D01*
X39626Y-36142D01*
X39635Y-36152D01*
X39645Y-36171D01*
X39645Y-36247D01*
X39730Y-36057D02*
X39740Y-36028D01*
X39740Y-35980D01*
X39730Y-35961D01*
X39721Y-35952D01*
X39702Y-35942D01*
X39683Y-35942D01*
X39664Y-35952D01*
X39654Y-35961D01*
X39645Y-35980D01*
X39635Y-36019D01*
X39626Y-36038D01*
X39616Y-36047D01*
X39597Y-36057D01*
X39578Y-36057D01*
X39559Y-36047D01*
X39550Y-36038D01*
X39540Y-36019D01*
X39540Y-35971D01*
X39550Y-35942D01*
X37540Y-36466D02*
X37740Y-36400D01*
X37540Y-36333D01*
X37740Y-36266D02*
X37540Y-36266D01*
X37540Y-36219D01*
X37550Y-36190D01*
X37569Y-36171D01*
X37588Y-36161D01*
X37626Y-36152D01*
X37654Y-36152D01*
X37692Y-36161D01*
X37711Y-36171D01*
X37730Y-36190D01*
X37740Y-36219D01*
X37740Y-36266D01*
X37740Y-36066D02*
X37540Y-36066D01*
X37540Y-36019D01*
X37550Y-35990D01*
X37569Y-35971D01*
X37588Y-35961D01*
X37626Y-35952D01*
X37654Y-35952D01*
X37692Y-35961D01*
X37711Y-35971D01*
X37730Y-35990D01*
X37740Y-36019D01*
X37740Y-36066D01*
X36540Y-36457D02*
X36740Y-36390D01*
X36540Y-36323D01*
X36730Y-36266D02*
X36740Y-36238D01*
X36740Y-36190D01*
X36730Y-36171D01*
X36721Y-36161D01*
X36702Y-36152D01*
X36683Y-36152D01*
X36664Y-36161D01*
X36654Y-36171D01*
X36645Y-36190D01*
X36635Y-36228D01*
X36626Y-36247D01*
X36616Y-36257D01*
X36597Y-36266D01*
X36578Y-36266D01*
X36559Y-36257D01*
X36550Y-36247D01*
X36540Y-36228D01*
X36540Y-36180D01*
X36550Y-36152D01*
X36730Y-36076D02*
X36740Y-36047D01*
X36740Y-35999D01*
X36730Y-35980D01*
X36721Y-35971D01*
X36702Y-35961D01*
X36683Y-35961D01*
X36664Y-35971D01*
X36654Y-35980D01*
X36645Y-35999D01*
X36635Y-36038D01*
X36626Y-36057D01*
X36616Y-36066D01*
X36597Y-36076D01*
X36578Y-36076D01*
X36559Y-36066D01*
X36550Y-36057D01*
X36540Y-36038D01*
X36540Y-35990D01*
X36550Y-35961D01*
X36557Y-33990D02*
X36557Y-33790D01*
X36623Y-33933D01*
X36690Y-33790D01*
X36690Y-33990D01*
X36899Y-33971D02*
X36890Y-33980D01*
X36861Y-33990D01*
X36842Y-33990D01*
X36814Y-33980D01*
X36795Y-33961D01*
X36785Y-33942D01*
X36776Y-33904D01*
X36776Y-33876D01*
X36785Y-33838D01*
X36795Y-33819D01*
X36814Y-33800D01*
X36842Y-33790D01*
X36861Y-33790D01*
X36890Y-33800D01*
X36899Y-33809D01*
X36985Y-33990D02*
X36985Y-33790D01*
X37061Y-33790D01*
X37080Y-33800D01*
X37090Y-33809D01*
X37099Y-33828D01*
X37099Y-33857D01*
X37090Y-33876D01*
X37080Y-33885D01*
X37061Y-33895D01*
X36985Y-33895D01*
X37176Y-33809D02*
X37185Y-33800D01*
X37204Y-33790D01*
X37252Y-33790D01*
X37271Y-33800D01*
X37280Y-33809D01*
X37290Y-33828D01*
X37290Y-33847D01*
X37280Y-33876D01*
X37166Y-33990D01*
X37290Y-33990D01*
X37357Y-33790D02*
X37480Y-33790D01*
X37414Y-33866D01*
X37442Y-33866D01*
X37461Y-33876D01*
X37471Y-33885D01*
X37480Y-33904D01*
X37480Y-33952D01*
X37471Y-33971D01*
X37461Y-33980D01*
X37442Y-33990D01*
X37385Y-33990D01*
X37366Y-33980D01*
X37357Y-33971D01*
X37604Y-33790D02*
X37623Y-33790D01*
X37642Y-33800D01*
X37652Y-33809D01*
X37661Y-33828D01*
X37671Y-33866D01*
X37671Y-33914D01*
X37661Y-33952D01*
X37652Y-33971D01*
X37642Y-33980D01*
X37623Y-33990D01*
X37604Y-33990D01*
X37585Y-33980D01*
X37576Y-33971D01*
X37566Y-33952D01*
X37557Y-33914D01*
X37557Y-33866D01*
X37566Y-33828D01*
X37576Y-33809D01*
X37585Y-33800D01*
X37604Y-33790D01*
X37861Y-33990D02*
X37747Y-33990D01*
X37804Y-33990D02*
X37804Y-33790D01*
X37785Y-33819D01*
X37766Y-33838D01*
X37747Y-33847D01*
X37928Y-33790D02*
X38061Y-33790D01*
X37976Y-33990D01*
X47395Y-33633D02*
X47490Y-33633D01*
X47376Y-33690D02*
X47442Y-33490D01*
X47509Y-33690D01*
X47547Y-33490D02*
X47661Y-33490D01*
X47604Y-33690D02*
X47604Y-33490D01*
X47728Y-33690D02*
X47728Y-33490D01*
X47795Y-33633D01*
X47861Y-33490D01*
X47861Y-33690D01*
X47957Y-33585D02*
X48023Y-33585D01*
X48052Y-33690D02*
X47957Y-33690D01*
X47957Y-33490D01*
X48052Y-33490D01*
X48242Y-33500D02*
X48223Y-33490D01*
X48195Y-33490D01*
X48166Y-33500D01*
X48147Y-33519D01*
X48138Y-33538D01*
X48128Y-33576D01*
X48128Y-33604D01*
X48138Y-33642D01*
X48147Y-33661D01*
X48166Y-33680D01*
X48195Y-33690D01*
X48214Y-33690D01*
X48242Y-33680D01*
X48252Y-33671D01*
X48252Y-33604D01*
X48214Y-33604D01*
X48328Y-33633D02*
X48423Y-33633D01*
X48309Y-33690D02*
X48376Y-33490D01*
X48442Y-33690D01*
X48490Y-33490D02*
X48614Y-33490D01*
X48547Y-33566D01*
X48576Y-33566D01*
X48595Y-33576D01*
X48604Y-33585D01*
X48614Y-33604D01*
X48614Y-33652D01*
X48604Y-33671D01*
X48595Y-33680D01*
X48576Y-33690D01*
X48519Y-33690D01*
X48500Y-33680D01*
X48490Y-33671D01*
X48690Y-33509D02*
X48700Y-33500D01*
X48719Y-33490D01*
X48766Y-33490D01*
X48785Y-33500D01*
X48795Y-33509D01*
X48804Y-33528D01*
X48804Y-33547D01*
X48795Y-33576D01*
X48680Y-33690D01*
X48804Y-33690D01*
X48890Y-33490D02*
X48890Y-33652D01*
X48900Y-33671D01*
X48909Y-33680D01*
X48928Y-33690D01*
X48966Y-33690D01*
X48985Y-33680D01*
X48995Y-33671D01*
X49004Y-33652D01*
X49004Y-33490D01*
X49185Y-33557D02*
X49185Y-33690D01*
X49138Y-33480D02*
X49090Y-33623D01*
X49214Y-33623D01*
X32180Y-23890D02*
X32114Y-23795D01*
X32066Y-23890D02*
X32066Y-23690D01*
X32142Y-23690D01*
X32161Y-23700D01*
X32171Y-23709D01*
X32180Y-23728D01*
X32180Y-23757D01*
X32171Y-23776D01*
X32161Y-23785D01*
X32142Y-23795D01*
X32066Y-23795D01*
X32257Y-23833D02*
X32352Y-23833D01*
X32238Y-23890D02*
X32304Y-23690D01*
X32371Y-23890D01*
X32438Y-23890D02*
X32438Y-23690D01*
X32485Y-23690D01*
X32514Y-23700D01*
X32533Y-23719D01*
X32542Y-23738D01*
X32552Y-23776D01*
X32552Y-23804D01*
X32542Y-23842D01*
X32533Y-23861D01*
X32514Y-23880D01*
X32485Y-23890D01*
X32438Y-23890D01*
X32638Y-23871D02*
X32647Y-23880D01*
X32638Y-23890D01*
X32628Y-23880D01*
X32638Y-23871D01*
X32638Y-23890D01*
X32857Y-23690D02*
X32971Y-23690D01*
X32914Y-23890D02*
X32914Y-23690D01*
X33019Y-23690D02*
X33152Y-23890D01*
X33152Y-23690D02*
X33019Y-23890D01*
X32157Y-22890D02*
X32090Y-22795D01*
X32042Y-22890D02*
X32042Y-22690D01*
X32119Y-22690D01*
X32138Y-22700D01*
X32147Y-22709D01*
X32157Y-22728D01*
X32157Y-22757D01*
X32147Y-22776D01*
X32138Y-22785D01*
X32119Y-22795D01*
X32042Y-22795D01*
X32233Y-22833D02*
X32328Y-22833D01*
X32214Y-22890D02*
X32280Y-22690D01*
X32347Y-22890D01*
X32414Y-22890D02*
X32414Y-22690D01*
X32461Y-22690D01*
X32490Y-22700D01*
X32509Y-22719D01*
X32519Y-22738D01*
X32528Y-22776D01*
X32528Y-22804D01*
X32519Y-22842D01*
X32509Y-22861D01*
X32490Y-22880D01*
X32461Y-22890D01*
X32414Y-22890D01*
X32614Y-22871D02*
X32623Y-22880D01*
X32614Y-22890D01*
X32604Y-22880D01*
X32614Y-22871D01*
X32614Y-22890D01*
X32976Y-22890D02*
X32909Y-22795D01*
X32861Y-22890D02*
X32861Y-22690D01*
X32938Y-22690D01*
X32957Y-22700D01*
X32966Y-22709D01*
X32976Y-22728D01*
X32976Y-22757D01*
X32966Y-22776D01*
X32957Y-22785D01*
X32938Y-22795D01*
X32861Y-22795D01*
X33042Y-22690D02*
X33176Y-22890D01*
X33176Y-22690D02*
X33042Y-22890D01*
X35457Y-22833D02*
X35552Y-22833D01*
X35438Y-22890D02*
X35504Y-22690D01*
X35571Y-22890D01*
X35752Y-22890D02*
X35685Y-22795D01*
X35638Y-22890D02*
X35638Y-22690D01*
X35714Y-22690D01*
X35733Y-22700D01*
X35742Y-22709D01*
X35752Y-22728D01*
X35752Y-22757D01*
X35742Y-22776D01*
X35733Y-22785D01*
X35714Y-22795D01*
X35638Y-22795D01*
X35838Y-22890D02*
X35838Y-22690D01*
X35885Y-22690D01*
X35914Y-22700D01*
X35933Y-22719D01*
X35942Y-22738D01*
X35952Y-22776D01*
X35952Y-22804D01*
X35942Y-22842D01*
X35933Y-22861D01*
X35914Y-22880D01*
X35885Y-22890D01*
X35838Y-22890D01*
X36038Y-22871D02*
X36047Y-22880D01*
X36038Y-22890D01*
X36028Y-22880D01*
X36038Y-22871D01*
X36038Y-22890D01*
X36257Y-22690D02*
X36371Y-22690D01*
X36314Y-22890D02*
X36314Y-22690D01*
X36419Y-22690D02*
X36552Y-22890D01*
X36552Y-22690D02*
X36419Y-22890D01*
X35433Y-23833D02*
X35528Y-23833D01*
X35414Y-23890D02*
X35480Y-23690D01*
X35547Y-23890D01*
X35728Y-23890D02*
X35661Y-23795D01*
X35614Y-23890D02*
X35614Y-23690D01*
X35690Y-23690D01*
X35709Y-23700D01*
X35719Y-23709D01*
X35728Y-23728D01*
X35728Y-23757D01*
X35719Y-23776D01*
X35709Y-23785D01*
X35690Y-23795D01*
X35614Y-23795D01*
X35814Y-23890D02*
X35814Y-23690D01*
X35861Y-23690D01*
X35890Y-23700D01*
X35909Y-23719D01*
X35919Y-23738D01*
X35928Y-23776D01*
X35928Y-23804D01*
X35919Y-23842D01*
X35909Y-23861D01*
X35890Y-23880D01*
X35861Y-23890D01*
X35814Y-23890D01*
X36014Y-23871D02*
X36023Y-23880D01*
X36014Y-23890D01*
X36004Y-23880D01*
X36014Y-23871D01*
X36014Y-23890D01*
X36376Y-23890D02*
X36309Y-23795D01*
X36261Y-23890D02*
X36261Y-23690D01*
X36338Y-23690D01*
X36357Y-23700D01*
X36366Y-23709D01*
X36376Y-23728D01*
X36376Y-23757D01*
X36366Y-23776D01*
X36357Y-23785D01*
X36338Y-23795D01*
X36261Y-23795D01*
X36442Y-23690D02*
X36576Y-23890D01*
X36576Y-23690D02*
X36442Y-23890D01*
X41009Y-26090D02*
X40942Y-25995D01*
X40895Y-26090D02*
X40895Y-25890D01*
X40971Y-25890D01*
X40990Y-25900D01*
X41000Y-25909D01*
X41009Y-25928D01*
X41009Y-25957D01*
X41000Y-25976D01*
X40990Y-25985D01*
X40971Y-25995D01*
X40895Y-25995D01*
X41095Y-25985D02*
X41161Y-25985D01*
X41190Y-26090D02*
X41095Y-26090D01*
X41095Y-25890D01*
X41190Y-25890D01*
X41266Y-26080D02*
X41295Y-26090D01*
X41342Y-26090D01*
X41361Y-26080D01*
X41371Y-26071D01*
X41380Y-26052D01*
X41380Y-26033D01*
X41371Y-26014D01*
X41361Y-26004D01*
X41342Y-25995D01*
X41304Y-25985D01*
X41285Y-25976D01*
X41276Y-25966D01*
X41266Y-25947D01*
X41266Y-25928D01*
X41276Y-25909D01*
X41285Y-25900D01*
X41304Y-25890D01*
X41352Y-25890D01*
X41380Y-25900D01*
X41466Y-25985D02*
X41533Y-25985D01*
X41561Y-26090D02*
X41466Y-26090D01*
X41466Y-25890D01*
X41561Y-25890D01*
X41619Y-25890D02*
X41733Y-25890D01*
X41676Y-26090D02*
X41676Y-25890D01*
X37590Y-24690D02*
X37495Y-24757D01*
X37590Y-24804D02*
X37390Y-24804D01*
X37390Y-24728D01*
X37400Y-24709D01*
X37409Y-24700D01*
X37428Y-24690D01*
X37457Y-24690D01*
X37476Y-24700D01*
X37485Y-24709D01*
X37495Y-24728D01*
X37495Y-24804D01*
X37485Y-24604D02*
X37485Y-24538D01*
X37590Y-24509D02*
X37590Y-24604D01*
X37390Y-24604D01*
X37390Y-24509D01*
X37580Y-24433D02*
X37590Y-24404D01*
X37590Y-24357D01*
X37580Y-24338D01*
X37571Y-24328D01*
X37552Y-24319D01*
X37533Y-24319D01*
X37514Y-24328D01*
X37504Y-24338D01*
X37495Y-24357D01*
X37485Y-24395D01*
X37476Y-24414D01*
X37466Y-24423D01*
X37447Y-24433D01*
X37428Y-24433D01*
X37409Y-24423D01*
X37400Y-24414D01*
X37390Y-24395D01*
X37390Y-24347D01*
X37400Y-24319D01*
X37485Y-24233D02*
X37485Y-24166D01*
X37590Y-24138D02*
X37590Y-24233D01*
X37390Y-24233D01*
X37390Y-24138D01*
X37390Y-24080D02*
X37390Y-23966D01*
X37590Y-24023D02*
X37390Y-24023D01*
X38390Y-24447D02*
X38390Y-24323D01*
X38466Y-24390D01*
X38466Y-24361D01*
X38476Y-24342D01*
X38485Y-24333D01*
X38504Y-24323D01*
X38552Y-24323D01*
X38571Y-24333D01*
X38580Y-24342D01*
X38590Y-24361D01*
X38590Y-24419D01*
X38580Y-24438D01*
X38571Y-24447D01*
X38390Y-24266D02*
X38590Y-24200D01*
X38390Y-24133D01*
X38390Y-24085D02*
X38390Y-23961D01*
X38466Y-24028D01*
X38466Y-23999D01*
X38476Y-23980D01*
X38485Y-23971D01*
X38504Y-23961D01*
X38552Y-23961D01*
X38571Y-23971D01*
X38580Y-23980D01*
X38590Y-23999D01*
X38590Y-24057D01*
X38580Y-24076D01*
X38571Y-24085D01*
X39400Y-24352D02*
X39390Y-24371D01*
X39390Y-24400D01*
X39400Y-24428D01*
X39419Y-24447D01*
X39438Y-24457D01*
X39476Y-24466D01*
X39504Y-24466D01*
X39542Y-24457D01*
X39561Y-24447D01*
X39580Y-24428D01*
X39590Y-24400D01*
X39590Y-24380D01*
X39580Y-24352D01*
X39571Y-24342D01*
X39504Y-24342D01*
X39504Y-24380D01*
X39590Y-24257D02*
X39390Y-24257D01*
X39590Y-24142D01*
X39390Y-24142D01*
X39590Y-24047D02*
X39390Y-24047D01*
X39390Y-24000D01*
X39400Y-23971D01*
X39419Y-23952D01*
X39438Y-23942D01*
X39476Y-23933D01*
X39504Y-23933D01*
X39542Y-23942D01*
X39561Y-23952D01*
X39580Y-23971D01*
X39590Y-24000D01*
X39590Y-24047D01*
X40533Y-24623D02*
X40533Y-24528D01*
X40590Y-24642D02*
X40390Y-24576D01*
X40590Y-24509D01*
X40590Y-24328D02*
X40495Y-24395D01*
X40590Y-24442D02*
X40390Y-24442D01*
X40390Y-24366D01*
X40400Y-24347D01*
X40409Y-24338D01*
X40428Y-24328D01*
X40457Y-24328D01*
X40476Y-24338D01*
X40485Y-24347D01*
X40495Y-24366D01*
X40495Y-24442D01*
X40485Y-24242D02*
X40485Y-24176D01*
X40590Y-24147D02*
X40590Y-24242D01*
X40390Y-24242D01*
X40390Y-24147D01*
X40485Y-23995D02*
X40485Y-24061D01*
X40590Y-24061D02*
X40390Y-24061D01*
X40390Y-23966D01*
X41533Y-24242D02*
X41533Y-24147D01*
X41590Y-24261D02*
X41390Y-24195D01*
X41590Y-24128D01*
X41390Y-23966D02*
X41390Y-24061D01*
X41485Y-24071D01*
X41476Y-24061D01*
X41466Y-24042D01*
X41466Y-23995D01*
X41476Y-23976D01*
X41485Y-23966D01*
X41504Y-23957D01*
X41552Y-23957D01*
X41571Y-23966D01*
X41580Y-23976D01*
X41590Y-23995D01*
X41590Y-24042D01*
X41580Y-24061D01*
X41571Y-24071D01*
X42533Y-24242D02*
X42533Y-24147D01*
X42590Y-24261D02*
X42390Y-24195D01*
X42590Y-24128D01*
X42457Y-23976D02*
X42590Y-23976D01*
X42380Y-24023D02*
X42523Y-24071D01*
X42523Y-23947D01*
X43533Y-24242D02*
X43533Y-24147D01*
X43590Y-24261D02*
X43390Y-24195D01*
X43590Y-24128D01*
X43390Y-24080D02*
X43390Y-23957D01*
X43466Y-24023D01*
X43466Y-23995D01*
X43476Y-23976D01*
X43485Y-23966D01*
X43504Y-23957D01*
X43552Y-23957D01*
X43571Y-23966D01*
X43580Y-23976D01*
X43590Y-23995D01*
X43590Y-24052D01*
X43580Y-24071D01*
X43571Y-24080D01*
X44533Y-24242D02*
X44533Y-24147D01*
X44590Y-24261D02*
X44390Y-24195D01*
X44590Y-24128D01*
X44409Y-24071D02*
X44400Y-24061D01*
X44390Y-24042D01*
X44390Y-23995D01*
X44400Y-23976D01*
X44409Y-23966D01*
X44428Y-23957D01*
X44447Y-23957D01*
X44476Y-23966D01*
X44590Y-24080D01*
X44590Y-23957D01*
X45533Y-24242D02*
X45533Y-24147D01*
X45590Y-24261D02*
X45390Y-24195D01*
X45590Y-24128D01*
X45590Y-23957D02*
X45590Y-24071D01*
X45590Y-24014D02*
X45390Y-24014D01*
X45419Y-24033D01*
X45438Y-24052D01*
X45447Y-24071D01*
X46533Y-24242D02*
X46533Y-24147D01*
X46590Y-24261D02*
X46390Y-24195D01*
X46590Y-24128D01*
X46390Y-24023D02*
X46390Y-24004D01*
X46400Y-23985D01*
X46409Y-23976D01*
X46428Y-23966D01*
X46466Y-23957D01*
X46514Y-23957D01*
X46552Y-23966D01*
X46571Y-23976D01*
X46580Y-23985D01*
X46590Y-24004D01*
X46590Y-24023D01*
X46580Y-24042D01*
X46571Y-24052D01*
X46552Y-24061D01*
X46514Y-24071D01*
X46466Y-24071D01*
X46428Y-24061D01*
X46409Y-24052D01*
X46400Y-24042D01*
X46390Y-24023D01*
X47590Y-24495D02*
X47390Y-24495D01*
X47390Y-24361D02*
X47390Y-24323D01*
X47400Y-24304D01*
X47419Y-24285D01*
X47457Y-24276D01*
X47523Y-24276D01*
X47561Y-24285D01*
X47580Y-24304D01*
X47590Y-24323D01*
X47590Y-24361D01*
X47580Y-24380D01*
X47561Y-24400D01*
X47523Y-24409D01*
X47457Y-24409D01*
X47419Y-24400D01*
X47400Y-24380D01*
X47390Y-24361D01*
X47590Y-24085D02*
X47590Y-24200D01*
X47590Y-24142D02*
X47390Y-24142D01*
X47419Y-24161D01*
X47438Y-24180D01*
X47447Y-24200D01*
X47390Y-24019D02*
X47390Y-23895D01*
X47466Y-23961D01*
X47466Y-23933D01*
X47476Y-23914D01*
X47485Y-23904D01*
X47504Y-23895D01*
X47552Y-23895D01*
X47571Y-23904D01*
X47580Y-23914D01*
X47590Y-23933D01*
X47590Y-23990D01*
X47580Y-24009D01*
X47571Y-24019D01*
X48590Y-24495D02*
X48390Y-24495D01*
X48390Y-24361D02*
X48390Y-24323D01*
X48400Y-24304D01*
X48419Y-24285D01*
X48457Y-24276D01*
X48523Y-24276D01*
X48561Y-24285D01*
X48580Y-24304D01*
X48590Y-24323D01*
X48590Y-24361D01*
X48580Y-24380D01*
X48561Y-24400D01*
X48523Y-24409D01*
X48457Y-24409D01*
X48419Y-24400D01*
X48400Y-24380D01*
X48390Y-24361D01*
X48590Y-24085D02*
X48590Y-24200D01*
X48590Y-24142D02*
X48390Y-24142D01*
X48419Y-24161D01*
X48438Y-24180D01*
X48447Y-24200D01*
X48409Y-24009D02*
X48400Y-24000D01*
X48390Y-23980D01*
X48390Y-23933D01*
X48400Y-23914D01*
X48409Y-23904D01*
X48428Y-23895D01*
X48447Y-23895D01*
X48476Y-23904D01*
X48590Y-24019D01*
X48590Y-23895D01*
X49590Y-24495D02*
X49390Y-24495D01*
X49390Y-24361D02*
X49390Y-24323D01*
X49400Y-24304D01*
X49419Y-24285D01*
X49457Y-24276D01*
X49523Y-24276D01*
X49561Y-24285D01*
X49580Y-24304D01*
X49590Y-24323D01*
X49590Y-24361D01*
X49580Y-24380D01*
X49561Y-24400D01*
X49523Y-24409D01*
X49457Y-24409D01*
X49419Y-24400D01*
X49400Y-24380D01*
X49390Y-24361D01*
X49590Y-24085D02*
X49590Y-24200D01*
X49590Y-24142D02*
X49390Y-24142D01*
X49419Y-24161D01*
X49438Y-24180D01*
X49447Y-24200D01*
X49590Y-23895D02*
X49590Y-24009D01*
X49590Y-23952D02*
X49390Y-23952D01*
X49419Y-23971D01*
X49438Y-23990D01*
X49447Y-24009D01*
X50590Y-24495D02*
X50390Y-24495D01*
X50390Y-24361D02*
X50390Y-24323D01*
X50400Y-24304D01*
X50419Y-24285D01*
X50457Y-24276D01*
X50523Y-24276D01*
X50561Y-24285D01*
X50580Y-24304D01*
X50590Y-24323D01*
X50590Y-24361D01*
X50580Y-24380D01*
X50561Y-24400D01*
X50523Y-24409D01*
X50457Y-24409D01*
X50419Y-24400D01*
X50400Y-24380D01*
X50390Y-24361D01*
X50590Y-24085D02*
X50590Y-24200D01*
X50590Y-24142D02*
X50390Y-24142D01*
X50419Y-24161D01*
X50438Y-24180D01*
X50447Y-24200D01*
X50390Y-23961D02*
X50390Y-23942D01*
X50400Y-23923D01*
X50409Y-23914D01*
X50428Y-23904D01*
X50466Y-23895D01*
X50514Y-23895D01*
X50552Y-23904D01*
X50571Y-23914D01*
X50580Y-23923D01*
X50590Y-23942D01*
X50590Y-23961D01*
X50580Y-23980D01*
X50571Y-23990D01*
X50552Y-24000D01*
X50514Y-24009D01*
X50466Y-24009D01*
X50428Y-24000D01*
X50409Y-23990D01*
X50400Y-23980D01*
X50390Y-23961D01*
X51590Y-24300D02*
X51390Y-24300D01*
X51390Y-24166D02*
X51390Y-24128D01*
X51400Y-24109D01*
X51419Y-24090D01*
X51457Y-24080D01*
X51523Y-24080D01*
X51561Y-24090D01*
X51580Y-24109D01*
X51590Y-24128D01*
X51590Y-24166D01*
X51580Y-24185D01*
X51561Y-24204D01*
X51523Y-24214D01*
X51457Y-24214D01*
X51419Y-24204D01*
X51400Y-24185D01*
X51390Y-24166D01*
X51590Y-23985D02*
X51590Y-23947D01*
X51580Y-23928D01*
X51571Y-23919D01*
X51542Y-23900D01*
X51504Y-23890D01*
X51428Y-23890D01*
X51409Y-23900D01*
X51400Y-23909D01*
X51390Y-23928D01*
X51390Y-23966D01*
X51400Y-23985D01*
X51409Y-23995D01*
X51428Y-24004D01*
X51476Y-24004D01*
X51495Y-23995D01*
X51504Y-23985D01*
X51514Y-23966D01*
X51514Y-23928D01*
X51504Y-23909D01*
X51495Y-23900D01*
X51476Y-23890D01*
X52590Y-24300D02*
X52390Y-24300D01*
X52390Y-24166D02*
X52390Y-24128D01*
X52400Y-24109D01*
X52419Y-24090D01*
X52457Y-24080D01*
X52523Y-24080D01*
X52561Y-24090D01*
X52580Y-24109D01*
X52590Y-24128D01*
X52590Y-24166D01*
X52580Y-24185D01*
X52561Y-24204D01*
X52523Y-24214D01*
X52457Y-24214D01*
X52419Y-24204D01*
X52400Y-24185D01*
X52390Y-24166D01*
X52476Y-23966D02*
X52466Y-23985D01*
X52457Y-23995D01*
X52438Y-24004D01*
X52428Y-24004D01*
X52409Y-23995D01*
X52400Y-23985D01*
X52390Y-23966D01*
X52390Y-23928D01*
X52400Y-23909D01*
X52409Y-23900D01*
X52428Y-23890D01*
X52438Y-23890D01*
X52457Y-23900D01*
X52466Y-23909D01*
X52476Y-23928D01*
X52476Y-23966D01*
X52485Y-23985D01*
X52495Y-23995D01*
X52514Y-24004D01*
X52552Y-24004D01*
X52571Y-23995D01*
X52580Y-23985D01*
X52590Y-23966D01*
X52590Y-23928D01*
X52580Y-23909D01*
X52571Y-23900D01*
X52552Y-23890D01*
X52514Y-23890D01*
X52495Y-23900D01*
X52485Y-23909D01*
X52476Y-23928D01*
X53590Y-24247D02*
X53390Y-24247D01*
X53390Y-24200D01*
X53400Y-24171D01*
X53419Y-24152D01*
X53438Y-24142D01*
X53476Y-24133D01*
X53504Y-24133D01*
X53542Y-24142D01*
X53561Y-24152D01*
X53580Y-24171D01*
X53590Y-24200D01*
X53590Y-24247D01*
X53390Y-24066D02*
X53390Y-23933D01*
X53590Y-24019D01*
X54590Y-24247D02*
X54390Y-24247D01*
X54390Y-24200D01*
X54400Y-24171D01*
X54419Y-24152D01*
X54438Y-24142D01*
X54476Y-24133D01*
X54504Y-24133D01*
X54542Y-24142D01*
X54561Y-24152D01*
X54580Y-24171D01*
X54590Y-24200D01*
X54590Y-24247D01*
X54390Y-23961D02*
X54390Y-24000D01*
X54400Y-24019D01*
X54409Y-24028D01*
X54438Y-24047D01*
X54476Y-24057D01*
X54552Y-24057D01*
X54571Y-24047D01*
X54580Y-24038D01*
X54590Y-24019D01*
X54590Y-23980D01*
X54580Y-23961D01*
X54571Y-23952D01*
X54552Y-23942D01*
X54504Y-23942D01*
X54485Y-23952D01*
X54476Y-23961D01*
X54466Y-23980D01*
X54466Y-24019D01*
X54476Y-24038D01*
X54485Y-24047D01*
X54504Y-24057D01*
X55590Y-24247D02*
X55390Y-24247D01*
X55390Y-24200D01*
X55400Y-24171D01*
X55419Y-24152D01*
X55438Y-24142D01*
X55476Y-24133D01*
X55504Y-24133D01*
X55542Y-24142D01*
X55561Y-24152D01*
X55580Y-24171D01*
X55590Y-24200D01*
X55590Y-24247D01*
X55390Y-23952D02*
X55390Y-24047D01*
X55485Y-24057D01*
X55476Y-24047D01*
X55466Y-24028D01*
X55466Y-23980D01*
X55476Y-23961D01*
X55485Y-23952D01*
X55504Y-23942D01*
X55552Y-23942D01*
X55571Y-23952D01*
X55580Y-23961D01*
X55590Y-23980D01*
X55590Y-24028D01*
X55580Y-24047D01*
X55571Y-24057D01*
X56590Y-24247D02*
X56390Y-24247D01*
X56390Y-24200D01*
X56400Y-24171D01*
X56419Y-24152D01*
X56438Y-24142D01*
X56476Y-24133D01*
X56504Y-24133D01*
X56542Y-24142D01*
X56561Y-24152D01*
X56580Y-24171D01*
X56590Y-24200D01*
X56590Y-24247D01*
X56457Y-23961D02*
X56590Y-23961D01*
X56380Y-24009D02*
X56523Y-24057D01*
X56523Y-23933D01*
X57580Y-25280D02*
X57590Y-25252D01*
X57590Y-25204D01*
X57580Y-25185D01*
X57571Y-25176D01*
X57552Y-25166D01*
X57533Y-25166D01*
X57514Y-25176D01*
X57504Y-25185D01*
X57495Y-25204D01*
X57485Y-25242D01*
X57476Y-25261D01*
X57466Y-25271D01*
X57447Y-25280D01*
X57428Y-25280D01*
X57409Y-25271D01*
X57400Y-25261D01*
X57390Y-25242D01*
X57390Y-25195D01*
X57400Y-25166D01*
X57571Y-24966D02*
X57580Y-24976D01*
X57590Y-25004D01*
X57590Y-25023D01*
X57580Y-25052D01*
X57561Y-25071D01*
X57542Y-25080D01*
X57504Y-25090D01*
X57476Y-25090D01*
X57438Y-25080D01*
X57419Y-25071D01*
X57400Y-25052D01*
X57390Y-25023D01*
X57390Y-25004D01*
X57400Y-24976D01*
X57409Y-24966D01*
X57590Y-24785D02*
X57590Y-24880D01*
X57390Y-24880D01*
X57657Y-24519D02*
X57371Y-24519D01*
X57590Y-24223D02*
X57390Y-24223D01*
X57390Y-24176D01*
X57400Y-24147D01*
X57419Y-24128D01*
X57438Y-24119D01*
X57476Y-24109D01*
X57504Y-24109D01*
X57542Y-24119D01*
X57561Y-24128D01*
X57580Y-24147D01*
X57590Y-24176D01*
X57590Y-24223D01*
X57390Y-24042D02*
X57390Y-23919D01*
X57466Y-23985D01*
X57466Y-23957D01*
X57476Y-23938D01*
X57485Y-23928D01*
X57504Y-23919D01*
X57552Y-23919D01*
X57571Y-23928D01*
X57580Y-23938D01*
X57590Y-23957D01*
X57590Y-24014D01*
X57580Y-24033D01*
X57571Y-24042D01*
X58580Y-25285D02*
X58590Y-25257D01*
X58590Y-25209D01*
X58580Y-25190D01*
X58571Y-25180D01*
X58552Y-25171D01*
X58533Y-25171D01*
X58514Y-25180D01*
X58504Y-25190D01*
X58495Y-25209D01*
X58485Y-25247D01*
X58476Y-25266D01*
X58466Y-25276D01*
X58447Y-25285D01*
X58428Y-25285D01*
X58409Y-25276D01*
X58400Y-25266D01*
X58390Y-25247D01*
X58390Y-25200D01*
X58400Y-25171D01*
X58590Y-25085D02*
X58390Y-25085D01*
X58390Y-25038D01*
X58400Y-25009D01*
X58419Y-24990D01*
X58438Y-24980D01*
X58476Y-24971D01*
X58504Y-24971D01*
X58542Y-24980D01*
X58561Y-24990D01*
X58580Y-25009D01*
X58590Y-25038D01*
X58590Y-25085D01*
X58533Y-24895D02*
X58533Y-24800D01*
X58590Y-24914D02*
X58390Y-24847D01*
X58590Y-24780D01*
X58657Y-24514D02*
X58371Y-24514D01*
X58590Y-24219D02*
X58390Y-24219D01*
X58390Y-24171D01*
X58400Y-24142D01*
X58419Y-24123D01*
X58438Y-24114D01*
X58476Y-24104D01*
X58504Y-24104D01*
X58542Y-24114D01*
X58561Y-24123D01*
X58580Y-24142D01*
X58590Y-24171D01*
X58590Y-24219D01*
X58409Y-24028D02*
X58400Y-24019D01*
X58390Y-23999D01*
X58390Y-23952D01*
X58400Y-23933D01*
X58409Y-23923D01*
X58428Y-23914D01*
X58447Y-23914D01*
X58476Y-23923D01*
X58590Y-24038D01*
X58590Y-23914D01*
X59390Y-25095D02*
X59390Y-24980D01*
X59590Y-25038D02*
X59390Y-25038D01*
X59390Y-24933D02*
X59590Y-24800D01*
X59390Y-24800D02*
X59590Y-24933D01*
X59657Y-24523D02*
X59371Y-24523D01*
X59590Y-24228D02*
X59390Y-24228D01*
X59390Y-24180D01*
X59400Y-24152D01*
X59419Y-24133D01*
X59438Y-24123D01*
X59476Y-24114D01*
X59504Y-24114D01*
X59542Y-24123D01*
X59561Y-24133D01*
X59580Y-24152D01*
X59590Y-24180D01*
X59590Y-24228D01*
X59590Y-23923D02*
X59590Y-24038D01*
X59590Y-23980D02*
X59390Y-23980D01*
X59419Y-23999D01*
X59438Y-24019D01*
X59447Y-24038D01*
X60590Y-24976D02*
X60495Y-25042D01*
X60590Y-25090D02*
X60390Y-25090D01*
X60390Y-25014D01*
X60400Y-24995D01*
X60409Y-24985D01*
X60428Y-24976D01*
X60457Y-24976D01*
X60476Y-24985D01*
X60485Y-24995D01*
X60495Y-25014D01*
X60495Y-25090D01*
X60390Y-24909D02*
X60590Y-24776D01*
X60390Y-24776D02*
X60590Y-24909D01*
X60657Y-24500D02*
X60371Y-24500D01*
X60590Y-24204D02*
X60390Y-24204D01*
X60390Y-24157D01*
X60400Y-24128D01*
X60419Y-24109D01*
X60438Y-24099D01*
X60476Y-24090D01*
X60504Y-24090D01*
X60542Y-24099D01*
X60561Y-24109D01*
X60580Y-24128D01*
X60590Y-24157D01*
X60590Y-24204D01*
X60390Y-23966D02*
X60390Y-23947D01*
X60400Y-23928D01*
X60409Y-23919D01*
X60428Y-23909D01*
X60466Y-23899D01*
X60514Y-23899D01*
X60552Y-23909D01*
X60571Y-23919D01*
X60580Y-23928D01*
X60590Y-23947D01*
X60590Y-23966D01*
X60580Y-23985D01*
X60571Y-23995D01*
X60552Y-24004D01*
X60514Y-24014D01*
X60466Y-24014D01*
X60428Y-24004D01*
X60409Y-23995D01*
X60400Y-23985D01*
X60390Y-23966D01*
X56814Y-26190D02*
X56814Y-25990D01*
X56890Y-25990D01*
X56909Y-26000D01*
X56919Y-26009D01*
X56928Y-26028D01*
X56928Y-26057D01*
X56919Y-26076D01*
X56909Y-26085D01*
X56890Y-26095D01*
X56814Y-26095D01*
X57052Y-25990D02*
X57090Y-25990D01*
X57109Y-26000D01*
X57128Y-26019D01*
X57138Y-26057D01*
X57138Y-26123D01*
X57128Y-26161D01*
X57109Y-26180D01*
X57090Y-26190D01*
X57052Y-26190D01*
X57033Y-26180D01*
X57014Y-26161D01*
X57004Y-26123D01*
X57004Y-26057D01*
X57014Y-26019D01*
X57033Y-26000D01*
X57052Y-25990D01*
X57204Y-25990D02*
X57252Y-26190D01*
X57290Y-26047D01*
X57328Y-26190D01*
X57376Y-25990D01*
X57452Y-26085D02*
X57519Y-26085D01*
X57547Y-26190D02*
X57452Y-26190D01*
X57452Y-25990D01*
X57547Y-25990D01*
X57747Y-26190D02*
X57680Y-26095D01*
X57633Y-26190D02*
X57633Y-25990D01*
X57709Y-25990D01*
X57728Y-26000D01*
X57738Y-26009D01*
X57747Y-26028D01*
X57747Y-26057D01*
X57738Y-26076D01*
X57728Y-26085D01*
X57709Y-26095D01*
X57633Y-26095D01*
X57976Y-26133D02*
X58071Y-26133D01*
X57957Y-26190D02*
X58023Y-25990D01*
X58090Y-26190D01*
X58271Y-26190D02*
X58204Y-26095D01*
X58157Y-26190D02*
X58157Y-25990D01*
X58233Y-25990D01*
X58252Y-26000D01*
X58261Y-26009D01*
X58271Y-26028D01*
X58271Y-26057D01*
X58261Y-26076D01*
X58252Y-26085D01*
X58233Y-26095D01*
X58157Y-26095D01*
X58357Y-26190D02*
X58357Y-25990D01*
X58404Y-25990D01*
X58433Y-26000D01*
X58452Y-26019D01*
X58461Y-26038D01*
X58471Y-26076D01*
X58471Y-26104D01*
X58461Y-26142D01*
X58452Y-26161D01*
X58433Y-26180D01*
X58404Y-26190D01*
X58357Y-26190D01*
X58557Y-25990D02*
X58557Y-26152D01*
X58566Y-26171D01*
X58576Y-26180D01*
X58595Y-26190D01*
X58633Y-26190D01*
X58652Y-26180D01*
X58661Y-26171D01*
X58671Y-26152D01*
X58671Y-25990D01*
X58766Y-26190D02*
X58766Y-25990D01*
X58861Y-26190D02*
X58861Y-25990D01*
X58976Y-26190D01*
X58976Y-25990D01*
X59109Y-25990D02*
X59147Y-25990D01*
X59166Y-26000D01*
X59185Y-26019D01*
X59195Y-26057D01*
X59195Y-26123D01*
X59185Y-26161D01*
X59166Y-26180D01*
X59147Y-26190D01*
X59109Y-26190D01*
X59090Y-26180D01*
X59071Y-26161D01*
X59061Y-26123D01*
X59061Y-26057D01*
X59071Y-26019D01*
X59090Y-26000D01*
X59109Y-25990D01*
X57166Y-31490D02*
X57100Y-31395D01*
X57052Y-31490D02*
X57052Y-31290D01*
X57128Y-31290D01*
X57147Y-31300D01*
X57157Y-31309D01*
X57166Y-31328D01*
X57166Y-31357D01*
X57157Y-31376D01*
X57147Y-31385D01*
X57128Y-31395D01*
X57052Y-31395D01*
X57233Y-31290D02*
X57366Y-31490D01*
X57366Y-31290D02*
X57233Y-31490D01*
X57047Y-29390D02*
X57161Y-29390D01*
X57104Y-29590D02*
X57104Y-29390D01*
X57209Y-29390D02*
X57342Y-29590D01*
X57342Y-29390D02*
X57209Y-29590D01*
X57076Y-28690D02*
X57114Y-28690D01*
X57133Y-28700D01*
X57152Y-28719D01*
X57161Y-28757D01*
X57161Y-28823D01*
X57152Y-28861D01*
X57133Y-28880D01*
X57114Y-28890D01*
X57076Y-28890D01*
X57057Y-28880D01*
X57038Y-28861D01*
X57028Y-28823D01*
X57028Y-28757D01*
X57038Y-28719D01*
X57057Y-28700D01*
X57076Y-28690D01*
X57247Y-28890D02*
X57247Y-28690D01*
X57361Y-28890D01*
X57361Y-28690D01*
X64747Y-24700D02*
X64728Y-24690D01*
X64700Y-24690D01*
X64671Y-24700D01*
X64652Y-24719D01*
X64642Y-24738D01*
X64633Y-24776D01*
X64633Y-24804D01*
X64642Y-24842D01*
X64652Y-24861D01*
X64671Y-24880D01*
X64700Y-24890D01*
X64719Y-24890D01*
X64747Y-24880D01*
X64757Y-24871D01*
X64757Y-24804D01*
X64719Y-24804D01*
X64842Y-24890D02*
X64842Y-24690D01*
X64957Y-24890D01*
X64957Y-24690D01*
X65052Y-24890D02*
X65052Y-24690D01*
X65100Y-24690D01*
X65128Y-24700D01*
X65147Y-24719D01*
X65157Y-24738D01*
X65166Y-24776D01*
X65166Y-24804D01*
X65157Y-24842D01*
X65147Y-24861D01*
X65128Y-24880D01*
X65100Y-24890D01*
X65052Y-24890D01*
X61609Y-24890D02*
X61542Y-24795D01*
X61495Y-24890D02*
X61495Y-24690D01*
X61571Y-24690D01*
X61590Y-24700D01*
X61600Y-24709D01*
X61609Y-24728D01*
X61609Y-24757D01*
X61600Y-24776D01*
X61590Y-24785D01*
X61571Y-24795D01*
X61495Y-24795D01*
X61695Y-24785D02*
X61761Y-24785D01*
X61790Y-24890D02*
X61695Y-24890D01*
X61695Y-24690D01*
X61790Y-24690D01*
X61866Y-24880D02*
X61895Y-24890D01*
X61942Y-24890D01*
X61961Y-24880D01*
X61971Y-24871D01*
X61980Y-24852D01*
X61980Y-24833D01*
X61971Y-24814D01*
X61961Y-24804D01*
X61942Y-24795D01*
X61904Y-24785D01*
X61885Y-24776D01*
X61876Y-24766D01*
X61866Y-24747D01*
X61866Y-24728D01*
X61876Y-24709D01*
X61885Y-24700D01*
X61904Y-24690D01*
X61952Y-24690D01*
X61980Y-24700D01*
X62066Y-24785D02*
X62133Y-24785D01*
X62161Y-24890D02*
X62066Y-24890D01*
X62066Y-24690D01*
X62161Y-24690D01*
X62219Y-24690D02*
X62333Y-24690D01*
X62276Y-24890D02*
X62276Y-24690D01*
X64585Y-23890D02*
X64585Y-23690D01*
X64652Y-23833D01*
X64719Y-23690D01*
X64719Y-23890D01*
X64852Y-23690D02*
X64890Y-23690D01*
X64909Y-23700D01*
X64928Y-23719D01*
X64938Y-23757D01*
X64938Y-23823D01*
X64928Y-23861D01*
X64909Y-23880D01*
X64890Y-23890D01*
X64852Y-23890D01*
X64833Y-23880D01*
X64814Y-23861D01*
X64804Y-23823D01*
X64804Y-23757D01*
X64814Y-23719D01*
X64833Y-23700D01*
X64852Y-23690D01*
X65014Y-23880D02*
X65042Y-23890D01*
X65090Y-23890D01*
X65109Y-23880D01*
X65119Y-23871D01*
X65128Y-23852D01*
X65128Y-23833D01*
X65119Y-23814D01*
X65109Y-23804D01*
X65090Y-23795D01*
X65052Y-23785D01*
X65033Y-23776D01*
X65023Y-23766D01*
X65014Y-23747D01*
X65014Y-23728D01*
X65023Y-23709D01*
X65033Y-23700D01*
X65052Y-23690D01*
X65099Y-23690D01*
X65128Y-23700D01*
X65214Y-23890D02*
X65214Y-23690D01*
X61842Y-23880D02*
X61871Y-23890D01*
X61919Y-23890D01*
X61938Y-23880D01*
X61947Y-23871D01*
X61957Y-23852D01*
X61957Y-23833D01*
X61947Y-23814D01*
X61938Y-23804D01*
X61919Y-23795D01*
X61880Y-23785D01*
X61861Y-23776D01*
X61852Y-23766D01*
X61842Y-23747D01*
X61842Y-23728D01*
X61852Y-23709D01*
X61861Y-23700D01*
X61880Y-23690D01*
X61928Y-23690D01*
X61957Y-23700D01*
X62157Y-23871D02*
X62147Y-23880D01*
X62119Y-23890D01*
X62100Y-23890D01*
X62071Y-23880D01*
X62052Y-23861D01*
X62042Y-23842D01*
X62033Y-23804D01*
X62033Y-23776D01*
X62042Y-23738D01*
X62052Y-23719D01*
X62071Y-23700D01*
X62100Y-23690D01*
X62119Y-23690D01*
X62147Y-23700D01*
X62157Y-23709D01*
X62242Y-23890D02*
X62242Y-23690D01*
X62357Y-23890D02*
X62271Y-23776D01*
X62357Y-23690D02*
X62242Y-23804D01*
X64638Y-22890D02*
X64638Y-22690D01*
X64714Y-22690D01*
X64733Y-22700D01*
X64742Y-22709D01*
X64752Y-22728D01*
X64752Y-22757D01*
X64742Y-22776D01*
X64733Y-22785D01*
X64714Y-22795D01*
X64638Y-22795D01*
X64876Y-22690D02*
X64914Y-22690D01*
X64933Y-22700D01*
X64952Y-22719D01*
X64961Y-22757D01*
X64961Y-22823D01*
X64952Y-22861D01*
X64933Y-22880D01*
X64914Y-22890D01*
X64876Y-22890D01*
X64857Y-22880D01*
X64838Y-22861D01*
X64828Y-22823D01*
X64828Y-22757D01*
X64838Y-22719D01*
X64857Y-22700D01*
X64876Y-22690D01*
X65028Y-22690D02*
X65076Y-22890D01*
X65114Y-22747D01*
X65152Y-22890D01*
X65200Y-22690D01*
X65276Y-22785D02*
X65342Y-22785D01*
X65371Y-22890D02*
X65276Y-22890D01*
X65276Y-22690D01*
X65371Y-22690D01*
X65571Y-22890D02*
X65504Y-22795D01*
X65457Y-22890D02*
X65457Y-22690D01*
X65533Y-22690D01*
X65552Y-22700D01*
X65561Y-22709D01*
X65571Y-22728D01*
X65571Y-22757D01*
X65561Y-22776D01*
X65552Y-22785D01*
X65533Y-22795D01*
X65457Y-22795D01*
X61785Y-22890D02*
X61785Y-22690D01*
X61852Y-22833D01*
X61919Y-22690D01*
X61919Y-22890D01*
X62014Y-22890D02*
X62014Y-22690D01*
X62100Y-22880D02*
X62128Y-22890D01*
X62176Y-22890D01*
X62195Y-22880D01*
X62204Y-22871D01*
X62214Y-22852D01*
X62214Y-22833D01*
X62204Y-22814D01*
X62195Y-22804D01*
X62176Y-22795D01*
X62138Y-22785D01*
X62119Y-22776D01*
X62109Y-22766D01*
X62100Y-22747D01*
X62100Y-22728D01*
X62109Y-22709D01*
X62119Y-22700D01*
X62138Y-22690D01*
X62185Y-22690D01*
X62214Y-22700D01*
X62338Y-22690D02*
X62376Y-22690D01*
X62395Y-22700D01*
X62414Y-22719D01*
X62423Y-22757D01*
X62423Y-22823D01*
X62414Y-22861D01*
X62395Y-22880D01*
X62376Y-22890D01*
X62338Y-22890D01*
X62319Y-22880D01*
X62300Y-22861D01*
X62290Y-22823D01*
X62290Y-22757D01*
X62300Y-22719D01*
X62319Y-22700D01*
X62338Y-22690D01*
X63204Y-25790D02*
X63204Y-25590D01*
X63414Y-25771D02*
X63404Y-25780D01*
X63376Y-25790D01*
X63357Y-25790D01*
X63328Y-25780D01*
X63309Y-25761D01*
X63300Y-25742D01*
X63290Y-25704D01*
X63290Y-25676D01*
X63300Y-25638D01*
X63309Y-25619D01*
X63328Y-25600D01*
X63357Y-25590D01*
X63376Y-25590D01*
X63404Y-25600D01*
X63414Y-25609D01*
X63490Y-25780D02*
X63519Y-25790D01*
X63566Y-25790D01*
X63585Y-25780D01*
X63595Y-25771D01*
X63604Y-25752D01*
X63604Y-25733D01*
X63595Y-25714D01*
X63585Y-25704D01*
X63566Y-25695D01*
X63528Y-25685D01*
X63509Y-25676D01*
X63500Y-25666D01*
X63490Y-25647D01*
X63490Y-25628D01*
X63500Y-25609D01*
X63509Y-25600D01*
X63528Y-25590D01*
X63576Y-25590D01*
X63604Y-25600D01*
X63690Y-25790D02*
X63690Y-25590D01*
X63766Y-25590D01*
X63785Y-25600D01*
X63795Y-25609D01*
X63804Y-25628D01*
X63804Y-25657D01*
X63795Y-25676D01*
X63785Y-25685D01*
X63766Y-25695D01*
X63690Y-25695D01*
X63185Y-51785D02*
X63119Y-51785D01*
X63119Y-51890D02*
X63119Y-51690D01*
X63214Y-51690D01*
X63261Y-51690D02*
X63376Y-51690D01*
X63319Y-51890D02*
X63319Y-51690D01*
X63433Y-51709D02*
X63442Y-51700D01*
X63461Y-51690D01*
X63509Y-51690D01*
X63528Y-51700D01*
X63538Y-51709D01*
X63547Y-51728D01*
X63547Y-51747D01*
X63538Y-51776D01*
X63423Y-51890D01*
X63547Y-51890D01*
X63614Y-51690D02*
X63738Y-51690D01*
X63671Y-51766D01*
X63700Y-51766D01*
X63719Y-51776D01*
X63728Y-51785D01*
X63738Y-51804D01*
X63738Y-51852D01*
X63728Y-51871D01*
X63719Y-51880D01*
X63700Y-51890D01*
X63642Y-51890D01*
X63623Y-51880D01*
X63614Y-51871D01*
X63814Y-51709D02*
X63823Y-51700D01*
X63842Y-51690D01*
X63890Y-51690D01*
X63909Y-51700D01*
X63919Y-51709D01*
X63928Y-51728D01*
X63928Y-51747D01*
X63919Y-51776D01*
X63804Y-51890D01*
X63928Y-51890D01*
X64128Y-51890D02*
X64061Y-51795D01*
X64014Y-51890D02*
X64014Y-51690D01*
X64090Y-51690D01*
X64109Y-51700D01*
X64119Y-51709D01*
X64128Y-51728D01*
X64128Y-51757D01*
X64119Y-51776D01*
X64109Y-51785D01*
X64090Y-51795D01*
X64014Y-51795D01*
X64309Y-51890D02*
X64214Y-51890D01*
X64214Y-51690D01*
X58657Y-51890D02*
X58657Y-51690D01*
X58723Y-51833D01*
X58790Y-51690D01*
X58790Y-51890D01*
X58999Y-51871D02*
X58990Y-51880D01*
X58961Y-51890D01*
X58942Y-51890D01*
X58914Y-51880D01*
X58895Y-51861D01*
X58885Y-51842D01*
X58876Y-51804D01*
X58876Y-51776D01*
X58885Y-51738D01*
X58895Y-51719D01*
X58914Y-51700D01*
X58942Y-51690D01*
X58961Y-51690D01*
X58990Y-51700D01*
X58999Y-51709D01*
X59190Y-51890D02*
X59076Y-51890D01*
X59133Y-51890D02*
X59133Y-51690D01*
X59114Y-51719D01*
X59095Y-51738D01*
X59076Y-51747D01*
X59361Y-51757D02*
X59361Y-51890D01*
X59314Y-51680D02*
X59266Y-51823D01*
X59390Y-51823D01*
X59561Y-51690D02*
X59466Y-51690D01*
X59457Y-51785D01*
X59466Y-51776D01*
X59485Y-51766D01*
X59533Y-51766D01*
X59552Y-51776D01*
X59561Y-51785D01*
X59571Y-51804D01*
X59571Y-51852D01*
X59561Y-51871D01*
X59552Y-51880D01*
X59533Y-51890D01*
X59485Y-51890D01*
X59466Y-51880D01*
X59457Y-51871D01*
X59752Y-51690D02*
X59657Y-51690D01*
X59647Y-51785D01*
X59657Y-51776D01*
X59676Y-51766D01*
X59723Y-51766D01*
X59742Y-51776D01*
X59752Y-51785D01*
X59761Y-51804D01*
X59761Y-51852D01*
X59752Y-51871D01*
X59742Y-51880D01*
X59723Y-51890D01*
X59676Y-51890D01*
X59657Y-51880D01*
X59647Y-51871D01*
X59952Y-51890D02*
X59838Y-51890D01*
X59895Y-51890D02*
X59895Y-51690D01*
X59876Y-51719D01*
X59857Y-51738D01*
X59838Y-51747D01*
G54D13*
X55800Y-47300D02*
X55500Y-47300D01*
X54800Y-47300D02*
X55100Y-47300D01*
X54800Y-47300D02*
X54500Y-47300D01*
X53800Y-47300D02*
X54100Y-47300D01*
X55800Y-48000D02*
X55800Y-47300D01*
X53800Y-47300D02*
X53800Y-48000D01*
X54800Y-47300D02*
X54800Y-48000D01*
G54D12*
X55266Y-46980D02*
X55266Y-47076D01*
X55209Y-46961D02*
X55409Y-47028D01*
X55209Y-47095D01*
X55209Y-47161D02*
X55342Y-47161D01*
X55304Y-47161D02*
X55323Y-47171D01*
X55333Y-47180D01*
X55342Y-47200D01*
X55342Y-47219D01*
X55209Y-47371D02*
X55409Y-47371D01*
X55219Y-47371D02*
X55209Y-47352D01*
X55209Y-47314D01*
X55219Y-47295D01*
X55228Y-47285D01*
X55247Y-47276D01*
X55304Y-47276D01*
X55323Y-47285D01*
X55333Y-47295D01*
X55342Y-47314D01*
X55342Y-47352D01*
X55333Y-47371D01*
X55342Y-47552D02*
X55209Y-47552D01*
X55342Y-47466D02*
X55238Y-47466D01*
X55219Y-47476D01*
X55209Y-47495D01*
X55209Y-47523D01*
X55219Y-47542D01*
X55228Y-47552D01*
X55209Y-47647D02*
X55342Y-47647D01*
X55409Y-47647D02*
X55400Y-47638D01*
X55390Y-47647D01*
X55400Y-47657D01*
X55409Y-47647D01*
X55390Y-47647D01*
X55342Y-47742D02*
X55209Y-47742D01*
X55323Y-47742D02*
X55333Y-47752D01*
X55342Y-47771D01*
X55342Y-47800D01*
X55333Y-47819D01*
X55314Y-47828D01*
X55209Y-47828D01*
X55209Y-47952D02*
X55219Y-47933D01*
X55228Y-47923D01*
X55247Y-47914D01*
X55304Y-47914D01*
X55323Y-47923D01*
X55333Y-47933D01*
X55342Y-47952D01*
X55342Y-47980D01*
X55333Y-48000D01*
X55323Y-48009D01*
X55304Y-48019D01*
X55247Y-48019D01*
X55228Y-48009D01*
X55219Y-48000D01*
X55209Y-47980D01*
X55209Y-47952D01*
X56097Y-49300D02*
X56078Y-49290D01*
X56050Y-49290D01*
X56021Y-49300D01*
X56002Y-49319D01*
X55992Y-49338D01*
X55983Y-49376D01*
X55983Y-49404D01*
X55992Y-49442D01*
X56002Y-49461D01*
X56021Y-49480D01*
X56050Y-49490D01*
X56069Y-49490D01*
X56097Y-49480D01*
X56107Y-49471D01*
X56107Y-49404D01*
X56069Y-49404D01*
X56192Y-49490D02*
X56192Y-49290D01*
X56307Y-49490D01*
X56307Y-49290D01*
X56402Y-49490D02*
X56402Y-49290D01*
X56450Y-49290D01*
X56478Y-49300D01*
X56497Y-49319D01*
X56507Y-49338D01*
X56516Y-49376D01*
X56516Y-49404D01*
X56507Y-49442D01*
X56497Y-49461D01*
X56478Y-49480D01*
X56450Y-49490D01*
X56402Y-49490D01*
X55097Y-49290D02*
X55211Y-49290D01*
X55154Y-49490D02*
X55154Y-49290D01*
X55259Y-49290D02*
X55392Y-49490D01*
X55392Y-49290D02*
X55259Y-49490D01*
X54216Y-49490D02*
X54150Y-49395D01*
X54102Y-49490D02*
X54102Y-49290D01*
X54178Y-49290D01*
X54197Y-49300D01*
X54207Y-49309D01*
X54216Y-49328D01*
X54216Y-49357D01*
X54207Y-49376D01*
X54197Y-49385D01*
X54178Y-49395D01*
X54102Y-49395D01*
X54283Y-49290D02*
X54416Y-49490D01*
X54416Y-49290D02*
X54283Y-49490D01*
X54209Y-47109D02*
X54304Y-47042D01*
X54209Y-46995D02*
X54409Y-46995D01*
X54409Y-47071D01*
X54400Y-47090D01*
X54390Y-47100D01*
X54371Y-47109D01*
X54342Y-47109D01*
X54323Y-47100D01*
X54314Y-47090D01*
X54304Y-47071D01*
X54304Y-46995D01*
X54209Y-47280D02*
X54314Y-47280D01*
X54333Y-47271D01*
X54342Y-47252D01*
X54342Y-47214D01*
X54333Y-47195D01*
X54219Y-47280D02*
X54209Y-47261D01*
X54209Y-47214D01*
X54219Y-47195D01*
X54238Y-47185D01*
X54257Y-47185D01*
X54276Y-47195D01*
X54285Y-47214D01*
X54285Y-47261D01*
X54295Y-47280D01*
X54209Y-47461D02*
X54409Y-47461D01*
X54219Y-47461D02*
X54209Y-47442D01*
X54209Y-47404D01*
X54219Y-47385D01*
X54228Y-47376D01*
X54247Y-47366D01*
X54304Y-47366D01*
X54323Y-47376D01*
X54333Y-47385D01*
X54342Y-47404D01*
X54342Y-47442D01*
X54333Y-47461D01*
X54209Y-47538D02*
X54342Y-47642D01*
X54342Y-47538D02*
X54209Y-47642D01*
X54209Y-47804D02*
X54314Y-47804D01*
X54333Y-47795D01*
X54342Y-47776D01*
X54342Y-47738D01*
X54333Y-47719D01*
X54219Y-47804D02*
X54209Y-47785D01*
X54209Y-47738D01*
X54219Y-47719D01*
X54238Y-47709D01*
X54257Y-47709D01*
X54276Y-47719D01*
X54285Y-47738D01*
X54285Y-47785D01*
X54295Y-47804D01*
X49309Y-47061D02*
X49509Y-47061D01*
X49509Y-47138D01*
X49500Y-47157D01*
X49490Y-47166D01*
X49471Y-47176D01*
X49442Y-47176D01*
X49423Y-47166D01*
X49414Y-47157D01*
X49404Y-47138D01*
X49404Y-47061D01*
X49309Y-47366D02*
X49309Y-47252D01*
X49309Y-47309D02*
X49509Y-47309D01*
X49480Y-47290D01*
X49461Y-47271D01*
X49452Y-47252D01*
X49309Y-47461D02*
X49309Y-47500D01*
X49319Y-47519D01*
X49328Y-47528D01*
X49357Y-47547D01*
X49395Y-47557D01*
X49471Y-47557D01*
X49490Y-47547D01*
X49500Y-47538D01*
X49509Y-47519D01*
X49509Y-47480D01*
X49500Y-47461D01*
X49490Y-47452D01*
X49471Y-47442D01*
X49423Y-47442D01*
X49404Y-47452D01*
X49395Y-47461D01*
X49385Y-47480D01*
X49385Y-47519D01*
X49395Y-47538D01*
X49404Y-47547D01*
X49423Y-47557D01*
X49309Y-47747D02*
X49309Y-47633D01*
X49309Y-47690D02*
X49509Y-47690D01*
X49480Y-47671D01*
X49461Y-47652D01*
X49452Y-47633D01*
X48309Y-47061D02*
X48509Y-47061D01*
X48509Y-47138D01*
X48500Y-47157D01*
X48490Y-47166D01*
X48471Y-47176D01*
X48442Y-47176D01*
X48423Y-47166D01*
X48414Y-47157D01*
X48404Y-47138D01*
X48404Y-47061D01*
X48309Y-47366D02*
X48309Y-47252D01*
X48309Y-47309D02*
X48509Y-47309D01*
X48480Y-47290D01*
X48461Y-47271D01*
X48452Y-47252D01*
X48423Y-47480D02*
X48433Y-47461D01*
X48442Y-47452D01*
X48461Y-47442D01*
X48471Y-47442D01*
X48490Y-47452D01*
X48500Y-47461D01*
X48509Y-47480D01*
X48509Y-47519D01*
X48500Y-47538D01*
X48490Y-47547D01*
X48471Y-47557D01*
X48461Y-47557D01*
X48442Y-47547D01*
X48433Y-47538D01*
X48423Y-47519D01*
X48423Y-47480D01*
X48414Y-47461D01*
X48404Y-47452D01*
X48385Y-47442D01*
X48347Y-47442D01*
X48328Y-47452D01*
X48319Y-47461D01*
X48309Y-47480D01*
X48309Y-47519D01*
X48319Y-47538D01*
X48328Y-47547D01*
X48347Y-47557D01*
X48385Y-47557D01*
X48404Y-47547D01*
X48414Y-47538D01*
X48423Y-47519D01*
X48423Y-47671D02*
X48433Y-47652D01*
X48442Y-47642D01*
X48461Y-47633D01*
X48471Y-47633D01*
X48490Y-47642D01*
X48500Y-47652D01*
X48509Y-47671D01*
X48509Y-47709D01*
X48500Y-47728D01*
X48490Y-47738D01*
X48471Y-47747D01*
X48461Y-47747D01*
X48442Y-47738D01*
X48433Y-47728D01*
X48423Y-47709D01*
X48423Y-47671D01*
X48414Y-47652D01*
X48404Y-47642D01*
X48385Y-47633D01*
X48347Y-47633D01*
X48328Y-47642D01*
X48319Y-47652D01*
X48309Y-47671D01*
X48309Y-47709D01*
X48319Y-47728D01*
X48328Y-47738D01*
X48347Y-47747D01*
X48385Y-47747D01*
X48404Y-47738D01*
X48414Y-47728D01*
X48423Y-47709D01*
X47309Y-47061D02*
X47509Y-47061D01*
X47509Y-47138D01*
X47500Y-47157D01*
X47490Y-47166D01*
X47471Y-47176D01*
X47442Y-47176D01*
X47423Y-47166D01*
X47414Y-47157D01*
X47404Y-47138D01*
X47404Y-47061D01*
X47309Y-47366D02*
X47309Y-47252D01*
X47309Y-47309D02*
X47509Y-47309D01*
X47480Y-47290D01*
X47461Y-47271D01*
X47452Y-47252D01*
X47423Y-47480D02*
X47433Y-47461D01*
X47442Y-47452D01*
X47461Y-47442D01*
X47471Y-47442D01*
X47490Y-47452D01*
X47500Y-47461D01*
X47509Y-47480D01*
X47509Y-47519D01*
X47500Y-47538D01*
X47490Y-47547D01*
X47471Y-47557D01*
X47461Y-47557D01*
X47442Y-47547D01*
X47433Y-47538D01*
X47423Y-47519D01*
X47423Y-47480D01*
X47414Y-47461D01*
X47404Y-47452D01*
X47385Y-47442D01*
X47347Y-47442D01*
X47328Y-47452D01*
X47319Y-47461D01*
X47309Y-47480D01*
X47309Y-47519D01*
X47319Y-47538D01*
X47328Y-47547D01*
X47347Y-47557D01*
X47385Y-47557D01*
X47404Y-47547D01*
X47414Y-47538D01*
X47423Y-47519D01*
X47309Y-47652D02*
X47309Y-47690D01*
X47319Y-47709D01*
X47328Y-47719D01*
X47357Y-47738D01*
X47395Y-47747D01*
X47471Y-47747D01*
X47490Y-47738D01*
X47500Y-47728D01*
X47509Y-47709D01*
X47509Y-47671D01*
X47500Y-47652D01*
X47490Y-47642D01*
X47471Y-47633D01*
X47423Y-47633D01*
X47404Y-47642D01*
X47395Y-47652D01*
X47385Y-47671D01*
X47385Y-47709D01*
X47395Y-47728D01*
X47404Y-47738D01*
X47423Y-47747D01*
X46309Y-47061D02*
X46509Y-47061D01*
X46509Y-47138D01*
X46500Y-47157D01*
X46490Y-47166D01*
X46471Y-47176D01*
X46442Y-47176D01*
X46423Y-47166D01*
X46414Y-47157D01*
X46404Y-47138D01*
X46404Y-47061D01*
X46309Y-47366D02*
X46309Y-47252D01*
X46309Y-47309D02*
X46509Y-47309D01*
X46480Y-47290D01*
X46461Y-47271D01*
X46452Y-47252D01*
X46309Y-47461D02*
X46309Y-47500D01*
X46319Y-47519D01*
X46328Y-47528D01*
X46357Y-47547D01*
X46395Y-47557D01*
X46471Y-47557D01*
X46490Y-47547D01*
X46500Y-47538D01*
X46509Y-47519D01*
X46509Y-47480D01*
X46500Y-47461D01*
X46490Y-47452D01*
X46471Y-47442D01*
X46423Y-47442D01*
X46404Y-47452D01*
X46395Y-47461D01*
X46385Y-47480D01*
X46385Y-47519D01*
X46395Y-47538D01*
X46404Y-47547D01*
X46423Y-47557D01*
X46509Y-47680D02*
X46509Y-47700D01*
X46500Y-47719D01*
X46490Y-47728D01*
X46471Y-47738D01*
X46433Y-47747D01*
X46385Y-47747D01*
X46347Y-47738D01*
X46328Y-47728D01*
X46319Y-47719D01*
X46309Y-47700D01*
X46309Y-47680D01*
X46319Y-47661D01*
X46328Y-47652D01*
X46347Y-47642D01*
X46385Y-47633D01*
X46433Y-47633D01*
X46471Y-47642D01*
X46490Y-47652D01*
X46500Y-47661D01*
X46509Y-47680D01*
X45309Y-47061D02*
X45509Y-47061D01*
X45509Y-47138D01*
X45500Y-47157D01*
X45490Y-47166D01*
X45471Y-47176D01*
X45442Y-47176D01*
X45423Y-47166D01*
X45414Y-47157D01*
X45404Y-47138D01*
X45404Y-47061D01*
X45490Y-47252D02*
X45500Y-47261D01*
X45509Y-47280D01*
X45509Y-47328D01*
X45500Y-47347D01*
X45490Y-47357D01*
X45471Y-47366D01*
X45452Y-47366D01*
X45423Y-47357D01*
X45309Y-47242D01*
X45309Y-47366D01*
X45509Y-47490D02*
X45509Y-47509D01*
X45500Y-47528D01*
X45490Y-47538D01*
X45471Y-47547D01*
X45433Y-47557D01*
X45385Y-47557D01*
X45347Y-47547D01*
X45328Y-47538D01*
X45319Y-47528D01*
X45309Y-47509D01*
X45309Y-47490D01*
X45319Y-47471D01*
X45328Y-47461D01*
X45347Y-47452D01*
X45385Y-47442D01*
X45433Y-47442D01*
X45471Y-47452D01*
X45490Y-47461D01*
X45500Y-47471D01*
X45509Y-47490D01*
X45509Y-47623D02*
X45509Y-47747D01*
X45433Y-47680D01*
X45433Y-47709D01*
X45423Y-47728D01*
X45414Y-47738D01*
X45395Y-47747D01*
X45347Y-47747D01*
X45328Y-47738D01*
X45319Y-47728D01*
X45309Y-47709D01*
X45309Y-47652D01*
X45319Y-47633D01*
X45328Y-47623D01*
X44309Y-47061D02*
X44509Y-47061D01*
X44509Y-47138D01*
X44500Y-47157D01*
X44490Y-47166D01*
X44471Y-47176D01*
X44442Y-47176D01*
X44423Y-47166D01*
X44414Y-47157D01*
X44404Y-47138D01*
X44404Y-47061D01*
X44490Y-47252D02*
X44500Y-47261D01*
X44509Y-47280D01*
X44509Y-47328D01*
X44500Y-47347D01*
X44490Y-47357D01*
X44471Y-47366D01*
X44452Y-47366D01*
X44423Y-47357D01*
X44309Y-47242D01*
X44309Y-47366D01*
X44509Y-47490D02*
X44509Y-47509D01*
X44500Y-47528D01*
X44490Y-47538D01*
X44471Y-47547D01*
X44433Y-47557D01*
X44385Y-47557D01*
X44347Y-47547D01*
X44328Y-47538D01*
X44319Y-47528D01*
X44309Y-47509D01*
X44309Y-47490D01*
X44319Y-47471D01*
X44328Y-47461D01*
X44347Y-47452D01*
X44385Y-47442D01*
X44433Y-47442D01*
X44471Y-47452D01*
X44490Y-47461D01*
X44500Y-47471D01*
X44509Y-47490D01*
X44490Y-47633D02*
X44500Y-47642D01*
X44509Y-47661D01*
X44509Y-47709D01*
X44500Y-47728D01*
X44490Y-47738D01*
X44471Y-47747D01*
X44452Y-47747D01*
X44423Y-47738D01*
X44309Y-47623D01*
X44309Y-47747D01*
X43309Y-47061D02*
X43509Y-47061D01*
X43509Y-47138D01*
X43500Y-47157D01*
X43490Y-47166D01*
X43471Y-47176D01*
X43442Y-47176D01*
X43423Y-47166D01*
X43414Y-47157D01*
X43404Y-47138D01*
X43404Y-47061D01*
X43490Y-47252D02*
X43500Y-47261D01*
X43509Y-47280D01*
X43509Y-47328D01*
X43500Y-47347D01*
X43490Y-47357D01*
X43471Y-47366D01*
X43452Y-47366D01*
X43423Y-47357D01*
X43309Y-47242D01*
X43309Y-47366D01*
X43509Y-47490D02*
X43509Y-47509D01*
X43500Y-47528D01*
X43490Y-47538D01*
X43471Y-47547D01*
X43433Y-47557D01*
X43385Y-47557D01*
X43347Y-47547D01*
X43328Y-47538D01*
X43319Y-47528D01*
X43309Y-47509D01*
X43309Y-47490D01*
X43319Y-47471D01*
X43328Y-47461D01*
X43347Y-47452D01*
X43385Y-47442D01*
X43433Y-47442D01*
X43471Y-47452D01*
X43490Y-47461D01*
X43500Y-47471D01*
X43509Y-47490D01*
X43509Y-47738D02*
X43509Y-47642D01*
X43414Y-47633D01*
X43423Y-47642D01*
X43433Y-47661D01*
X43433Y-47709D01*
X43423Y-47728D01*
X43414Y-47738D01*
X43395Y-47747D01*
X43347Y-47747D01*
X43328Y-47738D01*
X43319Y-47728D01*
X43309Y-47709D01*
X43309Y-47661D01*
X43319Y-47642D01*
X43328Y-47633D01*
X39109Y-47061D02*
X39309Y-47061D01*
X39309Y-47138D01*
X39300Y-47157D01*
X39290Y-47166D01*
X39271Y-47176D01*
X39242Y-47176D01*
X39223Y-47166D01*
X39214Y-47157D01*
X39204Y-47138D01*
X39204Y-47061D01*
X39109Y-47366D02*
X39109Y-47252D01*
X39109Y-47309D02*
X39309Y-47309D01*
X39280Y-47290D01*
X39261Y-47271D01*
X39252Y-47252D01*
X39309Y-47538D02*
X39309Y-47500D01*
X39300Y-47480D01*
X39290Y-47471D01*
X39261Y-47452D01*
X39223Y-47442D01*
X39147Y-47442D01*
X39128Y-47452D01*
X39119Y-47461D01*
X39109Y-47480D01*
X39109Y-47519D01*
X39119Y-47538D01*
X39128Y-47547D01*
X39147Y-47557D01*
X39195Y-47557D01*
X39214Y-47547D01*
X39223Y-47538D01*
X39233Y-47519D01*
X39233Y-47480D01*
X39223Y-47461D01*
X39214Y-47452D01*
X39195Y-47442D01*
X39309Y-47728D02*
X39309Y-47690D01*
X39300Y-47671D01*
X39290Y-47661D01*
X39261Y-47642D01*
X39223Y-47633D01*
X39147Y-47633D01*
X39128Y-47642D01*
X39119Y-47652D01*
X39109Y-47671D01*
X39109Y-47709D01*
X39119Y-47728D01*
X39128Y-47738D01*
X39147Y-47747D01*
X39195Y-47747D01*
X39214Y-47738D01*
X39223Y-47728D01*
X39233Y-47709D01*
X39233Y-47671D01*
X39223Y-47652D01*
X39214Y-47642D01*
X39195Y-47633D01*
X35109Y-47061D02*
X35309Y-47061D01*
X35309Y-47138D01*
X35300Y-47157D01*
X35290Y-47166D01*
X35271Y-47176D01*
X35242Y-47176D01*
X35223Y-47166D01*
X35214Y-47157D01*
X35204Y-47138D01*
X35204Y-47061D01*
X35109Y-47366D02*
X35109Y-47252D01*
X35109Y-47309D02*
X35309Y-47309D01*
X35280Y-47290D01*
X35261Y-47271D01*
X35252Y-47252D01*
X35309Y-47538D02*
X35309Y-47500D01*
X35300Y-47480D01*
X35290Y-47471D01*
X35261Y-47452D01*
X35223Y-47442D01*
X35147Y-47442D01*
X35128Y-47452D01*
X35119Y-47461D01*
X35109Y-47480D01*
X35109Y-47519D01*
X35119Y-47538D01*
X35128Y-47547D01*
X35147Y-47557D01*
X35195Y-47557D01*
X35214Y-47547D01*
X35223Y-47538D01*
X35233Y-47519D01*
X35233Y-47480D01*
X35223Y-47461D01*
X35214Y-47452D01*
X35195Y-47442D01*
X35309Y-47623D02*
X35309Y-47757D01*
X35109Y-47671D01*
X42309Y-47061D02*
X42509Y-47061D01*
X42509Y-47138D01*
X42500Y-47157D01*
X42490Y-47166D01*
X42471Y-47176D01*
X42442Y-47176D01*
X42423Y-47166D01*
X42414Y-47157D01*
X42404Y-47138D01*
X42404Y-47061D01*
X42309Y-47366D02*
X42309Y-47252D01*
X42309Y-47309D02*
X42509Y-47309D01*
X42480Y-47290D01*
X42461Y-47271D01*
X42452Y-47252D01*
X42509Y-47538D02*
X42509Y-47500D01*
X42500Y-47480D01*
X42490Y-47471D01*
X42461Y-47452D01*
X42423Y-47442D01*
X42347Y-47442D01*
X42328Y-47452D01*
X42319Y-47461D01*
X42309Y-47480D01*
X42309Y-47519D01*
X42319Y-47538D01*
X42328Y-47547D01*
X42347Y-47557D01*
X42395Y-47557D01*
X42414Y-47547D01*
X42423Y-47538D01*
X42433Y-47519D01*
X42433Y-47480D01*
X42423Y-47461D01*
X42414Y-47452D01*
X42395Y-47442D01*
X42309Y-47652D02*
X42309Y-47690D01*
X42319Y-47709D01*
X42328Y-47719D01*
X42357Y-47738D01*
X42395Y-47747D01*
X42471Y-47747D01*
X42490Y-47738D01*
X42500Y-47728D01*
X42509Y-47709D01*
X42509Y-47671D01*
X42500Y-47652D01*
X42490Y-47642D01*
X42471Y-47633D01*
X42423Y-47633D01*
X42404Y-47642D01*
X42395Y-47652D01*
X42385Y-47671D01*
X42385Y-47709D01*
X42395Y-47728D01*
X42404Y-47738D01*
X42423Y-47747D01*
X49309Y-50176D02*
X49309Y-50080D01*
X49509Y-50080D01*
X49414Y-50242D02*
X49414Y-50309D01*
X49309Y-50338D02*
X49309Y-50242D01*
X49509Y-50242D01*
X49509Y-50338D01*
X49309Y-50423D02*
X49509Y-50423D01*
X49509Y-50471D01*
X49500Y-50500D01*
X49480Y-50519D01*
X49461Y-50528D01*
X49423Y-50538D01*
X49395Y-50538D01*
X49357Y-50528D01*
X49338Y-50519D01*
X49319Y-50500D01*
X49309Y-50471D01*
X49309Y-50423D01*
X49423Y-50652D02*
X49433Y-50633D01*
X49442Y-50623D01*
X49461Y-50614D01*
X49471Y-50614D01*
X49490Y-50623D01*
X49500Y-50633D01*
X49509Y-50652D01*
X49509Y-50690D01*
X49500Y-50709D01*
X49490Y-50719D01*
X49471Y-50728D01*
X49461Y-50728D01*
X49442Y-50719D01*
X49433Y-50709D01*
X49423Y-50690D01*
X49423Y-50652D01*
X49414Y-50633D01*
X49404Y-50623D01*
X49385Y-50614D01*
X49347Y-50614D01*
X49328Y-50623D01*
X49319Y-50633D01*
X49309Y-50652D01*
X49309Y-50690D01*
X49319Y-50709D01*
X49328Y-50719D01*
X49347Y-50728D01*
X49385Y-50728D01*
X49404Y-50719D01*
X49414Y-50709D01*
X49423Y-50690D01*
X48309Y-50176D02*
X48309Y-50080D01*
X48509Y-50080D01*
X48414Y-50242D02*
X48414Y-50309D01*
X48309Y-50338D02*
X48309Y-50242D01*
X48509Y-50242D01*
X48509Y-50338D01*
X48309Y-50423D02*
X48509Y-50423D01*
X48509Y-50471D01*
X48500Y-50500D01*
X48480Y-50519D01*
X48461Y-50528D01*
X48423Y-50538D01*
X48395Y-50538D01*
X48357Y-50528D01*
X48338Y-50519D01*
X48319Y-50500D01*
X48309Y-50471D01*
X48309Y-50423D01*
X48509Y-50604D02*
X48509Y-50738D01*
X48309Y-50652D01*
X47309Y-50176D02*
X47309Y-50080D01*
X47509Y-50080D01*
X47414Y-50242D02*
X47414Y-50309D01*
X47309Y-50338D02*
X47309Y-50242D01*
X47509Y-50242D01*
X47509Y-50338D01*
X47309Y-50423D02*
X47509Y-50423D01*
X47509Y-50471D01*
X47500Y-50500D01*
X47480Y-50519D01*
X47461Y-50528D01*
X47423Y-50538D01*
X47395Y-50538D01*
X47357Y-50528D01*
X47338Y-50519D01*
X47319Y-50500D01*
X47309Y-50471D01*
X47309Y-50423D01*
X47509Y-50709D02*
X47509Y-50671D01*
X47500Y-50652D01*
X47490Y-50642D01*
X47461Y-50623D01*
X47423Y-50614D01*
X47347Y-50614D01*
X47328Y-50623D01*
X47319Y-50633D01*
X47309Y-50652D01*
X47309Y-50690D01*
X47319Y-50709D01*
X47328Y-50719D01*
X47347Y-50728D01*
X47395Y-50728D01*
X47414Y-50719D01*
X47423Y-50709D01*
X47433Y-50690D01*
X47433Y-50652D01*
X47423Y-50633D01*
X47414Y-50623D01*
X47395Y-50614D01*
X46309Y-50176D02*
X46309Y-50080D01*
X46509Y-50080D01*
X46414Y-50242D02*
X46414Y-50309D01*
X46309Y-50338D02*
X46309Y-50242D01*
X46509Y-50242D01*
X46509Y-50338D01*
X46309Y-50423D02*
X46509Y-50423D01*
X46509Y-50471D01*
X46500Y-50500D01*
X46480Y-50519D01*
X46461Y-50528D01*
X46423Y-50538D01*
X46395Y-50538D01*
X46357Y-50528D01*
X46338Y-50519D01*
X46319Y-50500D01*
X46309Y-50471D01*
X46309Y-50423D01*
X46509Y-50719D02*
X46509Y-50623D01*
X46414Y-50614D01*
X46423Y-50623D01*
X46433Y-50642D01*
X46433Y-50690D01*
X46423Y-50709D01*
X46414Y-50719D01*
X46395Y-50728D01*
X46347Y-50728D01*
X46328Y-50719D01*
X46319Y-50709D01*
X46309Y-50690D01*
X46309Y-50642D01*
X46319Y-50623D01*
X46328Y-50614D01*
X45309Y-50176D02*
X45309Y-50080D01*
X45509Y-50080D01*
X45414Y-50242D02*
X45414Y-50309D01*
X45309Y-50338D02*
X45309Y-50242D01*
X45509Y-50242D01*
X45509Y-50338D01*
X45309Y-50423D02*
X45509Y-50423D01*
X45509Y-50471D01*
X45500Y-50500D01*
X45480Y-50519D01*
X45461Y-50528D01*
X45423Y-50538D01*
X45395Y-50538D01*
X45357Y-50528D01*
X45338Y-50519D01*
X45319Y-50500D01*
X45309Y-50471D01*
X45309Y-50423D01*
X45442Y-50709D02*
X45309Y-50709D01*
X45519Y-50661D02*
X45376Y-50614D01*
X45376Y-50738D01*
X44309Y-50176D02*
X44309Y-50080D01*
X44509Y-50080D01*
X44414Y-50242D02*
X44414Y-50309D01*
X44309Y-50338D02*
X44309Y-50242D01*
X44509Y-50242D01*
X44509Y-50338D01*
X44309Y-50423D02*
X44509Y-50423D01*
X44509Y-50471D01*
X44500Y-50500D01*
X44480Y-50519D01*
X44461Y-50528D01*
X44423Y-50538D01*
X44395Y-50538D01*
X44357Y-50528D01*
X44338Y-50519D01*
X44319Y-50500D01*
X44309Y-50471D01*
X44309Y-50423D01*
X44509Y-50604D02*
X44509Y-50728D01*
X44433Y-50661D01*
X44433Y-50690D01*
X44423Y-50709D01*
X44414Y-50719D01*
X44395Y-50728D01*
X44347Y-50728D01*
X44328Y-50719D01*
X44319Y-50709D01*
X44309Y-50690D01*
X44309Y-50633D01*
X44319Y-50614D01*
X44328Y-50604D01*
X43309Y-50176D02*
X43309Y-50080D01*
X43509Y-50080D01*
X43414Y-50242D02*
X43414Y-50309D01*
X43309Y-50338D02*
X43309Y-50242D01*
X43509Y-50242D01*
X43509Y-50338D01*
X43309Y-50423D02*
X43509Y-50423D01*
X43509Y-50471D01*
X43500Y-50500D01*
X43480Y-50519D01*
X43461Y-50528D01*
X43423Y-50538D01*
X43395Y-50538D01*
X43357Y-50528D01*
X43338Y-50519D01*
X43319Y-50500D01*
X43309Y-50471D01*
X43309Y-50423D01*
X43490Y-50614D02*
X43500Y-50623D01*
X43509Y-50642D01*
X43509Y-50690D01*
X43500Y-50709D01*
X43490Y-50719D01*
X43471Y-50728D01*
X43452Y-50728D01*
X43423Y-50719D01*
X43309Y-50604D01*
X43309Y-50728D01*
X42309Y-50176D02*
X42309Y-50080D01*
X42509Y-50080D01*
X42414Y-50242D02*
X42414Y-50309D01*
X42309Y-50338D02*
X42309Y-50242D01*
X42509Y-50242D01*
X42509Y-50338D01*
X42309Y-50423D02*
X42509Y-50423D01*
X42509Y-50471D01*
X42500Y-50500D01*
X42480Y-50519D01*
X42461Y-50528D01*
X42423Y-50538D01*
X42395Y-50538D01*
X42357Y-50528D01*
X42338Y-50519D01*
X42319Y-50500D01*
X42309Y-50471D01*
X42309Y-50423D01*
X42309Y-50728D02*
X42309Y-50614D01*
X42309Y-50671D02*
X42509Y-50671D01*
X42480Y-50652D01*
X42461Y-50633D01*
X42452Y-50614D01*
G54D14*
X53025Y-32360D02*
X53025Y-32615D01*
X53025Y-32615D02*
X53576Y-32615D01*
X53576Y-32360D02*
X53576Y-32615D01*
X53025Y-32360D02*
X53576Y-32360D01*
X53025Y-31780D02*
X53025Y-32036D01*
X53025Y-32036D02*
X53576Y-32036D01*
X53576Y-31780D02*
X53576Y-32036D01*
X53025Y-31780D02*
X53576Y-31780D01*
X53104Y-32122D02*
X53104Y-32278D01*
X53104Y-32278D02*
X53496Y-32278D01*
X53496Y-32122D02*
X53496Y-32278D01*
X53104Y-32122D02*
X53496Y-32122D01*
G54D15*
X53550Y-32039D02*
X53550Y-32361D01*
X53050Y-32039D02*
X53050Y-32361D01*
G54D16*
X53687Y-31424D02*
X53687Y-32976D01*
X53687Y-32976D02*
X52913Y-32976D01*
X52913Y-32976D02*
X52913Y-31424D01*
X52913Y-31424D02*
X53687Y-31424D01*
G54D14*
X39825Y-30460D02*
X39825Y-30715D01*
X39825Y-30715D02*
X40376Y-30715D01*
X40376Y-30460D02*
X40376Y-30715D01*
X39825Y-30460D02*
X40376Y-30460D01*
X39825Y-29880D02*
X39825Y-30136D01*
X39825Y-30136D02*
X40376Y-30136D01*
X40376Y-29880D02*
X40376Y-30136D01*
X39825Y-29880D02*
X40376Y-29880D01*
X39904Y-30222D02*
X39904Y-30378D01*
X39904Y-30378D02*
X40296Y-30378D01*
X40296Y-30222D02*
X40296Y-30378D01*
X39904Y-30222D02*
X40296Y-30222D01*
G54D15*
X40350Y-30139D02*
X40350Y-30461D01*
X39850Y-30139D02*
X39850Y-30461D01*
G54D16*
X40487Y-29524D02*
X40487Y-31076D01*
X40487Y-31076D02*
X39713Y-31076D01*
X39713Y-31076D02*
X39713Y-29524D01*
X39713Y-29524D02*
X40487Y-29524D01*
G54D14*
X53575Y-28440D02*
X53575Y-28185D01*
X53575Y-28185D02*
X53024Y-28185D01*
X53024Y-28440D02*
X53024Y-28185D01*
X53575Y-28440D02*
X53024Y-28440D01*
X53575Y-29020D02*
X53575Y-28764D01*
X53575Y-28764D02*
X53024Y-28764D01*
X53024Y-29020D02*
X53024Y-28764D01*
X53575Y-29020D02*
X53024Y-29020D01*
X53496Y-28678D02*
X53496Y-28522D01*
X53496Y-28522D02*
X53104Y-28522D01*
X53104Y-28678D02*
X53104Y-28522D01*
X53496Y-28678D02*
X53104Y-28678D01*
G54D15*
X53050Y-28761D02*
X53050Y-28439D01*
X53550Y-28761D02*
X53550Y-28439D01*
G54D16*
X52913Y-29376D02*
X52913Y-27824D01*
X52913Y-27824D02*
X53687Y-27824D01*
X53687Y-27824D02*
X53687Y-29376D01*
X53687Y-29376D02*
X52913Y-29376D01*
G54D14*
X41025Y-30460D02*
X41025Y-30715D01*
X41025Y-30715D02*
X41576Y-30715D01*
X41576Y-30460D02*
X41576Y-30715D01*
X41025Y-30460D02*
X41576Y-30460D01*
X41025Y-29880D02*
X41025Y-30136D01*
X41025Y-30136D02*
X41576Y-30136D01*
X41576Y-29880D02*
X41576Y-30136D01*
X41025Y-29880D02*
X41576Y-29880D01*
X41104Y-30222D02*
X41104Y-30378D01*
X41104Y-30378D02*
X41496Y-30378D01*
X41496Y-30222D02*
X41496Y-30378D01*
X41104Y-30222D02*
X41496Y-30222D01*
G54D15*
X41550Y-30139D02*
X41550Y-30461D01*
X41050Y-30139D02*
X41050Y-30461D01*
G54D16*
X41687Y-29524D02*
X41687Y-31076D01*
X41687Y-31076D02*
X40913Y-31076D01*
X40913Y-31076D02*
X40913Y-29524D01*
X40913Y-29524D02*
X41687Y-29524D01*
G54D14*
X42875Y-30140D02*
X42875Y-29885D01*
X42875Y-29885D02*
X42324Y-29885D01*
X42324Y-30140D02*
X42324Y-29885D01*
X42875Y-30140D02*
X42324Y-30140D01*
X42875Y-30720D02*
X42875Y-30464D01*
X42875Y-30464D02*
X42324Y-30464D01*
X42324Y-30720D02*
X42324Y-30464D01*
X42875Y-30720D02*
X42324Y-30720D01*
X42796Y-30378D02*
X42796Y-30222D01*
X42796Y-30222D02*
X42404Y-30222D01*
X42404Y-30378D02*
X42404Y-30222D01*
X42796Y-30378D02*
X42404Y-30378D01*
G54D15*
X42350Y-30461D02*
X42350Y-30139D01*
X42850Y-30461D02*
X42850Y-30139D01*
G54D16*
X42213Y-31076D02*
X42213Y-29524D01*
X42213Y-29524D02*
X42987Y-29524D01*
X42987Y-29524D02*
X42987Y-31076D01*
X42987Y-31076D02*
X42213Y-31076D01*
G54D14*
X63275Y-27740D02*
X63275Y-27485D01*
X63275Y-27485D02*
X62724Y-27485D01*
X62724Y-27740D02*
X62724Y-27485D01*
X63275Y-27740D02*
X62724Y-27740D01*
X63275Y-28320D02*
X63275Y-28064D01*
X63275Y-28064D02*
X62724Y-28064D01*
X62724Y-28320D02*
X62724Y-28064D01*
X63275Y-28320D02*
X62724Y-28320D01*
X63196Y-27978D02*
X63196Y-27822D01*
X63196Y-27822D02*
X62804Y-27822D01*
X62804Y-27978D02*
X62804Y-27822D01*
X63196Y-27978D02*
X62804Y-27978D01*
G54D15*
X62750Y-28061D02*
X62750Y-27739D01*
X63250Y-28061D02*
X63250Y-27739D01*
G54D16*
X62613Y-28676D02*
X62613Y-27124D01*
X62613Y-27124D02*
X63387Y-27124D01*
X63387Y-27124D02*
X63387Y-28676D01*
X63387Y-28676D02*
X62613Y-28676D01*
G54D14*
X64275Y-27740D02*
X64275Y-27485D01*
X64275Y-27485D02*
X63724Y-27485D01*
X63724Y-27740D02*
X63724Y-27485D01*
X64275Y-27740D02*
X63724Y-27740D01*
X64275Y-28320D02*
X64275Y-28064D01*
X64275Y-28064D02*
X63724Y-28064D01*
X63724Y-28320D02*
X63724Y-28064D01*
X64275Y-28320D02*
X63724Y-28320D01*
X64196Y-27978D02*
X64196Y-27822D01*
X64196Y-27822D02*
X63804Y-27822D01*
X63804Y-27978D02*
X63804Y-27822D01*
X64196Y-27978D02*
X63804Y-27978D01*
G54D15*
X63750Y-28061D02*
X63750Y-27739D01*
X64250Y-28061D02*
X64250Y-27739D01*
G54D16*
X63613Y-28676D02*
X63613Y-27124D01*
X63613Y-27124D02*
X64387Y-27124D01*
X64387Y-27124D02*
X64387Y-28676D01*
X64387Y-28676D02*
X63613Y-28676D01*
G54D14*
X42282Y-51796D02*
X42154Y-51796D01*
X42154Y-51796D02*
X42154Y-51993D01*
X42282Y-51993D02*
X42154Y-51993D01*
X42282Y-51796D02*
X42282Y-51993D01*
X42527Y-51796D02*
X42468Y-51796D01*
X42468Y-51796D02*
X42468Y-51895D01*
X42527Y-51895D02*
X42468Y-51895D01*
X42527Y-51796D02*
X42527Y-51895D01*
X42332Y-51796D02*
X42273Y-51796D01*
X42273Y-51796D02*
X42273Y-51895D01*
X42332Y-51895D02*
X42273Y-51895D01*
X42332Y-51796D02*
X42332Y-51895D01*
X42478Y-51796D02*
X42322Y-51796D01*
X42322Y-51796D02*
X42322Y-51865D01*
X42478Y-51865D02*
X42322Y-51865D01*
X42478Y-51796D02*
X42478Y-51865D01*
X42282Y-51207D02*
X42154Y-51207D01*
X42154Y-51207D02*
X42154Y-51404D01*
X42282Y-51404D02*
X42154Y-51404D01*
X42282Y-51207D02*
X42282Y-51404D01*
X42646Y-51207D02*
X42518Y-51207D01*
X42518Y-51207D02*
X42518Y-51404D01*
X42646Y-51404D02*
X42518Y-51404D01*
X42646Y-51207D02*
X42646Y-51404D01*
X42332Y-51305D02*
X42273Y-51305D01*
X42273Y-51305D02*
X42273Y-51404D01*
X42332Y-51404D02*
X42273Y-51404D01*
X42332Y-51305D02*
X42332Y-51404D01*
X42527Y-51305D02*
X42468Y-51305D01*
X42468Y-51305D02*
X42468Y-51404D01*
X42527Y-51404D02*
X42468Y-51404D01*
X42527Y-51305D02*
X42527Y-51404D01*
X42478Y-51335D02*
X42322Y-51335D01*
X42322Y-51335D02*
X42322Y-51404D01*
X42478Y-51404D02*
X42322Y-51404D01*
X42478Y-51335D02*
X42478Y-51404D01*
X42439Y-51600D02*
X42361Y-51600D01*
X42361Y-51600D02*
X42361Y-51678D01*
X42439Y-51678D02*
X42361Y-51678D01*
X42439Y-51600D02*
X42439Y-51678D01*
X42636Y-51796D02*
X42518Y-51796D01*
X42518Y-51796D02*
X42518Y-51914D01*
X42636Y-51914D02*
X42518Y-51914D01*
X42636Y-51796D02*
X42636Y-51914D01*
X42646Y-51964D02*
X42557Y-51964D01*
X42557Y-51964D02*
X42557Y-51993D01*
X42646Y-51993D02*
X42557Y-51993D01*
X42646Y-51964D02*
X42646Y-51993D01*
G54D17*
X42174Y-51806D02*
X42174Y-51394D01*
X42626Y-51404D02*
X42626Y-51964D01*
G54D16*
X42605Y-51934D02*
G75*
G03X42605Y-51934I-28J0D01*
G74*
G01*
G54D17*
X42537Y-51993D02*
G75*
G03X42263Y-51993I-137J0D01*
G74*
G01*
X42263Y-51207D02*
G75*
G03X42537Y-51207I137J0D01*
G74*
G01*
G54D14*
X43282Y-51796D02*
X43154Y-51796D01*
X43154Y-51796D02*
X43154Y-51993D01*
X43282Y-51993D02*
X43154Y-51993D01*
X43282Y-51796D02*
X43282Y-51993D01*
X43527Y-51796D02*
X43468Y-51796D01*
X43468Y-51796D02*
X43468Y-51895D01*
X43527Y-51895D02*
X43468Y-51895D01*
X43527Y-51796D02*
X43527Y-51895D01*
X43332Y-51796D02*
X43273Y-51796D01*
X43273Y-51796D02*
X43273Y-51895D01*
X43332Y-51895D02*
X43273Y-51895D01*
X43332Y-51796D02*
X43332Y-51895D01*
X43478Y-51796D02*
X43322Y-51796D01*
X43322Y-51796D02*
X43322Y-51865D01*
X43478Y-51865D02*
X43322Y-51865D01*
X43478Y-51796D02*
X43478Y-51865D01*
X43282Y-51207D02*
X43154Y-51207D01*
X43154Y-51207D02*
X43154Y-51404D01*
X43282Y-51404D02*
X43154Y-51404D01*
X43282Y-51207D02*
X43282Y-51404D01*
X43646Y-51207D02*
X43518Y-51207D01*
X43518Y-51207D02*
X43518Y-51404D01*
X43646Y-51404D02*
X43518Y-51404D01*
X43646Y-51207D02*
X43646Y-51404D01*
X43332Y-51305D02*
X43273Y-51305D01*
X43273Y-51305D02*
X43273Y-51404D01*
X43332Y-51404D02*
X43273Y-51404D01*
X43332Y-51305D02*
X43332Y-51404D01*
X43527Y-51305D02*
X43468Y-51305D01*
X43468Y-51305D02*
X43468Y-51404D01*
X43527Y-51404D02*
X43468Y-51404D01*
X43527Y-51305D02*
X43527Y-51404D01*
X43478Y-51335D02*
X43322Y-51335D01*
X43322Y-51335D02*
X43322Y-51404D01*
X43478Y-51404D02*
X43322Y-51404D01*
X43478Y-51335D02*
X43478Y-51404D01*
X43439Y-51600D02*
X43361Y-51600D01*
X43361Y-51600D02*
X43361Y-51678D01*
X43439Y-51678D02*
X43361Y-51678D01*
X43439Y-51600D02*
X43439Y-51678D01*
X43636Y-51796D02*
X43518Y-51796D01*
X43518Y-51796D02*
X43518Y-51914D01*
X43636Y-51914D02*
X43518Y-51914D01*
X43636Y-51796D02*
X43636Y-51914D01*
X43646Y-51964D02*
X43557Y-51964D01*
X43557Y-51964D02*
X43557Y-51993D01*
X43646Y-51993D02*
X43557Y-51993D01*
X43646Y-51964D02*
X43646Y-51993D01*
G54D17*
X43174Y-51806D02*
X43174Y-51394D01*
X43626Y-51404D02*
X43626Y-51964D01*
G54D16*
X43605Y-51934D02*
G75*
G03X43605Y-51934I-28J0D01*
G74*
G01*
G54D17*
X43537Y-51993D02*
G75*
G03X43263Y-51993I-137J0D01*
G74*
G01*
X43263Y-51207D02*
G75*
G03X43537Y-51207I137J0D01*
G74*
G01*
G54D14*
X44282Y-51796D02*
X44154Y-51796D01*
X44154Y-51796D02*
X44154Y-51993D01*
X44282Y-51993D02*
X44154Y-51993D01*
X44282Y-51796D02*
X44282Y-51993D01*
X44527Y-51796D02*
X44468Y-51796D01*
X44468Y-51796D02*
X44468Y-51895D01*
X44527Y-51895D02*
X44468Y-51895D01*
X44527Y-51796D02*
X44527Y-51895D01*
X44332Y-51796D02*
X44273Y-51796D01*
X44273Y-51796D02*
X44273Y-51895D01*
X44332Y-51895D02*
X44273Y-51895D01*
X44332Y-51796D02*
X44332Y-51895D01*
X44478Y-51796D02*
X44322Y-51796D01*
X44322Y-51796D02*
X44322Y-51865D01*
X44478Y-51865D02*
X44322Y-51865D01*
X44478Y-51796D02*
X44478Y-51865D01*
X44282Y-51207D02*
X44154Y-51207D01*
X44154Y-51207D02*
X44154Y-51404D01*
X44282Y-51404D02*
X44154Y-51404D01*
X44282Y-51207D02*
X44282Y-51404D01*
X44646Y-51207D02*
X44518Y-51207D01*
X44518Y-51207D02*
X44518Y-51404D01*
X44646Y-51404D02*
X44518Y-51404D01*
X44646Y-51207D02*
X44646Y-51404D01*
X44332Y-51305D02*
X44273Y-51305D01*
X44273Y-51305D02*
X44273Y-51404D01*
X44332Y-51404D02*
X44273Y-51404D01*
X44332Y-51305D02*
X44332Y-51404D01*
X44527Y-51305D02*
X44468Y-51305D01*
X44468Y-51305D02*
X44468Y-51404D01*
X44527Y-51404D02*
X44468Y-51404D01*
X44527Y-51305D02*
X44527Y-51404D01*
X44478Y-51335D02*
X44322Y-51335D01*
X44322Y-51335D02*
X44322Y-51404D01*
X44478Y-51404D02*
X44322Y-51404D01*
X44478Y-51335D02*
X44478Y-51404D01*
X44439Y-51600D02*
X44361Y-51600D01*
X44361Y-51600D02*
X44361Y-51678D01*
X44439Y-51678D02*
X44361Y-51678D01*
X44439Y-51600D02*
X44439Y-51678D01*
X44636Y-51796D02*
X44518Y-51796D01*
X44518Y-51796D02*
X44518Y-51914D01*
X44636Y-51914D02*
X44518Y-51914D01*
X44636Y-51796D02*
X44636Y-51914D01*
X44646Y-51964D02*
X44557Y-51964D01*
X44557Y-51964D02*
X44557Y-51993D01*
X44646Y-51993D02*
X44557Y-51993D01*
X44646Y-51964D02*
X44646Y-51993D01*
G54D17*
X44174Y-51806D02*
X44174Y-51394D01*
X44626Y-51404D02*
X44626Y-51964D01*
G54D16*
X44605Y-51934D02*
G75*
G03X44605Y-51934I-28J0D01*
G74*
G01*
G54D17*
X44537Y-51993D02*
G75*
G03X44263Y-51993I-137J0D01*
G74*
G01*
X44263Y-51207D02*
G75*
G03X44537Y-51207I137J0D01*
G74*
G01*
G54D14*
X45282Y-51796D02*
X45154Y-51796D01*
X45154Y-51796D02*
X45154Y-51993D01*
X45282Y-51993D02*
X45154Y-51993D01*
X45282Y-51796D02*
X45282Y-51993D01*
X45527Y-51796D02*
X45468Y-51796D01*
X45468Y-51796D02*
X45468Y-51895D01*
X45527Y-51895D02*
X45468Y-51895D01*
X45527Y-51796D02*
X45527Y-51895D01*
X45332Y-51796D02*
X45273Y-51796D01*
X45273Y-51796D02*
X45273Y-51895D01*
X45332Y-51895D02*
X45273Y-51895D01*
X45332Y-51796D02*
X45332Y-51895D01*
X45478Y-51796D02*
X45322Y-51796D01*
X45322Y-51796D02*
X45322Y-51865D01*
X45478Y-51865D02*
X45322Y-51865D01*
X45478Y-51796D02*
X45478Y-51865D01*
X45282Y-51207D02*
X45154Y-51207D01*
X45154Y-51207D02*
X45154Y-51404D01*
X45282Y-51404D02*
X45154Y-51404D01*
X45282Y-51207D02*
X45282Y-51404D01*
X45646Y-51207D02*
X45518Y-51207D01*
X45518Y-51207D02*
X45518Y-51404D01*
X45646Y-51404D02*
X45518Y-51404D01*
X45646Y-51207D02*
X45646Y-51404D01*
X45332Y-51305D02*
X45273Y-51305D01*
X45273Y-51305D02*
X45273Y-51404D01*
X45332Y-51404D02*
X45273Y-51404D01*
X45332Y-51305D02*
X45332Y-51404D01*
X45527Y-51305D02*
X45468Y-51305D01*
X45468Y-51305D02*
X45468Y-51404D01*
X45527Y-51404D02*
X45468Y-51404D01*
X45527Y-51305D02*
X45527Y-51404D01*
X45478Y-51335D02*
X45322Y-51335D01*
X45322Y-51335D02*
X45322Y-51404D01*
X45478Y-51404D02*
X45322Y-51404D01*
X45478Y-51335D02*
X45478Y-51404D01*
X45439Y-51600D02*
X45361Y-51600D01*
X45361Y-51600D02*
X45361Y-51678D01*
X45439Y-51678D02*
X45361Y-51678D01*
X45439Y-51600D02*
X45439Y-51678D01*
X45636Y-51796D02*
X45518Y-51796D01*
X45518Y-51796D02*
X45518Y-51914D01*
X45636Y-51914D02*
X45518Y-51914D01*
X45636Y-51796D02*
X45636Y-51914D01*
X45646Y-51964D02*
X45557Y-51964D01*
X45557Y-51964D02*
X45557Y-51993D01*
X45646Y-51993D02*
X45557Y-51993D01*
X45646Y-51964D02*
X45646Y-51993D01*
G54D17*
X45174Y-51806D02*
X45174Y-51394D01*
X45626Y-51404D02*
X45626Y-51964D01*
G54D16*
X45605Y-51934D02*
G75*
G03X45605Y-51934I-28J0D01*
G74*
G01*
G54D17*
X45537Y-51993D02*
G75*
G03X45263Y-51993I-137J0D01*
G74*
G01*
X45263Y-51207D02*
G75*
G03X45537Y-51207I137J0D01*
G74*
G01*
G54D14*
X46282Y-51796D02*
X46154Y-51796D01*
X46154Y-51796D02*
X46154Y-51993D01*
X46282Y-51993D02*
X46154Y-51993D01*
X46282Y-51796D02*
X46282Y-51993D01*
X46527Y-51796D02*
X46468Y-51796D01*
X46468Y-51796D02*
X46468Y-51895D01*
X46527Y-51895D02*
X46468Y-51895D01*
X46527Y-51796D02*
X46527Y-51895D01*
X46332Y-51796D02*
X46273Y-51796D01*
X46273Y-51796D02*
X46273Y-51895D01*
X46332Y-51895D02*
X46273Y-51895D01*
X46332Y-51796D02*
X46332Y-51895D01*
X46478Y-51796D02*
X46322Y-51796D01*
X46322Y-51796D02*
X46322Y-51865D01*
X46478Y-51865D02*
X46322Y-51865D01*
X46478Y-51796D02*
X46478Y-51865D01*
X46282Y-51207D02*
X46154Y-51207D01*
X46154Y-51207D02*
X46154Y-51404D01*
X46282Y-51404D02*
X46154Y-51404D01*
X46282Y-51207D02*
X46282Y-51404D01*
X46646Y-51207D02*
X46518Y-51207D01*
X46518Y-51207D02*
X46518Y-51404D01*
X46646Y-51404D02*
X46518Y-51404D01*
X46646Y-51207D02*
X46646Y-51404D01*
X46332Y-51305D02*
X46273Y-51305D01*
X46273Y-51305D02*
X46273Y-51404D01*
X46332Y-51404D02*
X46273Y-51404D01*
X46332Y-51305D02*
X46332Y-51404D01*
X46527Y-51305D02*
X46468Y-51305D01*
X46468Y-51305D02*
X46468Y-51404D01*
X46527Y-51404D02*
X46468Y-51404D01*
X46527Y-51305D02*
X46527Y-51404D01*
X46478Y-51335D02*
X46322Y-51335D01*
X46322Y-51335D02*
X46322Y-51404D01*
X46478Y-51404D02*
X46322Y-51404D01*
X46478Y-51335D02*
X46478Y-51404D01*
X46439Y-51600D02*
X46361Y-51600D01*
X46361Y-51600D02*
X46361Y-51678D01*
X46439Y-51678D02*
X46361Y-51678D01*
X46439Y-51600D02*
X46439Y-51678D01*
X46636Y-51796D02*
X46518Y-51796D01*
X46518Y-51796D02*
X46518Y-51914D01*
X46636Y-51914D02*
X46518Y-51914D01*
X46636Y-51796D02*
X46636Y-51914D01*
X46646Y-51964D02*
X46557Y-51964D01*
X46557Y-51964D02*
X46557Y-51993D01*
X46646Y-51993D02*
X46557Y-51993D01*
X46646Y-51964D02*
X46646Y-51993D01*
G54D17*
X46174Y-51806D02*
X46174Y-51394D01*
X46626Y-51404D02*
X46626Y-51964D01*
G54D16*
X46605Y-51934D02*
G75*
G03X46605Y-51934I-28J0D01*
G74*
G01*
G54D17*
X46537Y-51993D02*
G75*
G03X46263Y-51993I-137J0D01*
G74*
G01*
X46263Y-51207D02*
G75*
G03X46537Y-51207I137J0D01*
G74*
G01*
G54D14*
X47282Y-51796D02*
X47154Y-51796D01*
X47154Y-51796D02*
X47154Y-51993D01*
X47282Y-51993D02*
X47154Y-51993D01*
X47282Y-51796D02*
X47282Y-51993D01*
X47527Y-51796D02*
X47468Y-51796D01*
X47468Y-51796D02*
X47468Y-51895D01*
X47527Y-51895D02*
X47468Y-51895D01*
X47527Y-51796D02*
X47527Y-51895D01*
X47332Y-51796D02*
X47273Y-51796D01*
X47273Y-51796D02*
X47273Y-51895D01*
X47332Y-51895D02*
X47273Y-51895D01*
X47332Y-51796D02*
X47332Y-51895D01*
X47478Y-51796D02*
X47322Y-51796D01*
X47322Y-51796D02*
X47322Y-51865D01*
X47478Y-51865D02*
X47322Y-51865D01*
X47478Y-51796D02*
X47478Y-51865D01*
X47282Y-51207D02*
X47154Y-51207D01*
X47154Y-51207D02*
X47154Y-51404D01*
X47282Y-51404D02*
X47154Y-51404D01*
X47282Y-51207D02*
X47282Y-51404D01*
X47646Y-51207D02*
X47518Y-51207D01*
X47518Y-51207D02*
X47518Y-51404D01*
X47646Y-51404D02*
X47518Y-51404D01*
X47646Y-51207D02*
X47646Y-51404D01*
X47332Y-51305D02*
X47273Y-51305D01*
X47273Y-51305D02*
X47273Y-51404D01*
X47332Y-51404D02*
X47273Y-51404D01*
X47332Y-51305D02*
X47332Y-51404D01*
X47527Y-51305D02*
X47468Y-51305D01*
X47468Y-51305D02*
X47468Y-51404D01*
X47527Y-51404D02*
X47468Y-51404D01*
X47527Y-51305D02*
X47527Y-51404D01*
X47478Y-51335D02*
X47322Y-51335D01*
X47322Y-51335D02*
X47322Y-51404D01*
X47478Y-51404D02*
X47322Y-51404D01*
X47478Y-51335D02*
X47478Y-51404D01*
X47439Y-51600D02*
X47361Y-51600D01*
X47361Y-51600D02*
X47361Y-51678D01*
X47439Y-51678D02*
X47361Y-51678D01*
X47439Y-51600D02*
X47439Y-51678D01*
X47636Y-51796D02*
X47518Y-51796D01*
X47518Y-51796D02*
X47518Y-51914D01*
X47636Y-51914D02*
X47518Y-51914D01*
X47636Y-51796D02*
X47636Y-51914D01*
X47646Y-51964D02*
X47557Y-51964D01*
X47557Y-51964D02*
X47557Y-51993D01*
X47646Y-51993D02*
X47557Y-51993D01*
X47646Y-51964D02*
X47646Y-51993D01*
G54D17*
X47174Y-51806D02*
X47174Y-51394D01*
X47626Y-51404D02*
X47626Y-51964D01*
G54D16*
X47605Y-51934D02*
G75*
G03X47605Y-51934I-28J0D01*
G74*
G01*
G54D17*
X47537Y-51993D02*
G75*
G03X47263Y-51993I-137J0D01*
G74*
G01*
X47263Y-51207D02*
G75*
G03X47537Y-51207I137J0D01*
G74*
G01*
G54D14*
X48282Y-51796D02*
X48154Y-51796D01*
X48154Y-51796D02*
X48154Y-51993D01*
X48282Y-51993D02*
X48154Y-51993D01*
X48282Y-51796D02*
X48282Y-51993D01*
X48527Y-51796D02*
X48468Y-51796D01*
X48468Y-51796D02*
X48468Y-51895D01*
X48527Y-51895D02*
X48468Y-51895D01*
X48527Y-51796D02*
X48527Y-51895D01*
X48332Y-51796D02*
X48273Y-51796D01*
X48273Y-51796D02*
X48273Y-51895D01*
X48332Y-51895D02*
X48273Y-51895D01*
X48332Y-51796D02*
X48332Y-51895D01*
X48478Y-51796D02*
X48322Y-51796D01*
X48322Y-51796D02*
X48322Y-51865D01*
X48478Y-51865D02*
X48322Y-51865D01*
X48478Y-51796D02*
X48478Y-51865D01*
X48282Y-51207D02*
X48154Y-51207D01*
X48154Y-51207D02*
X48154Y-51404D01*
X48282Y-51404D02*
X48154Y-51404D01*
X48282Y-51207D02*
X48282Y-51404D01*
X48646Y-51207D02*
X48518Y-51207D01*
X48518Y-51207D02*
X48518Y-51404D01*
X48646Y-51404D02*
X48518Y-51404D01*
X48646Y-51207D02*
X48646Y-51404D01*
X48332Y-51305D02*
X48273Y-51305D01*
X48273Y-51305D02*
X48273Y-51404D01*
X48332Y-51404D02*
X48273Y-51404D01*
X48332Y-51305D02*
X48332Y-51404D01*
X48527Y-51305D02*
X48468Y-51305D01*
X48468Y-51305D02*
X48468Y-51404D01*
X48527Y-51404D02*
X48468Y-51404D01*
X48527Y-51305D02*
X48527Y-51404D01*
X48478Y-51335D02*
X48322Y-51335D01*
X48322Y-51335D02*
X48322Y-51404D01*
X48478Y-51404D02*
X48322Y-51404D01*
X48478Y-51335D02*
X48478Y-51404D01*
X48439Y-51600D02*
X48361Y-51600D01*
X48361Y-51600D02*
X48361Y-51678D01*
X48439Y-51678D02*
X48361Y-51678D01*
X48439Y-51600D02*
X48439Y-51678D01*
X48636Y-51796D02*
X48518Y-51796D01*
X48518Y-51796D02*
X48518Y-51914D01*
X48636Y-51914D02*
X48518Y-51914D01*
X48636Y-51796D02*
X48636Y-51914D01*
X48646Y-51964D02*
X48557Y-51964D01*
X48557Y-51964D02*
X48557Y-51993D01*
X48646Y-51993D02*
X48557Y-51993D01*
X48646Y-51964D02*
X48646Y-51993D01*
G54D17*
X48174Y-51806D02*
X48174Y-51394D01*
X48626Y-51404D02*
X48626Y-51964D01*
G54D16*
X48605Y-51934D02*
G75*
G03X48605Y-51934I-28J0D01*
G74*
G01*
G54D17*
X48537Y-51993D02*
G75*
G03X48263Y-51993I-137J0D01*
G74*
G01*
X48263Y-51207D02*
G75*
G03X48537Y-51207I137J0D01*
G74*
G01*
G54D14*
X49282Y-51796D02*
X49154Y-51796D01*
X49154Y-51796D02*
X49154Y-51993D01*
X49282Y-51993D02*
X49154Y-51993D01*
X49282Y-51796D02*
X49282Y-51993D01*
X49527Y-51796D02*
X49468Y-51796D01*
X49468Y-51796D02*
X49468Y-51895D01*
X49527Y-51895D02*
X49468Y-51895D01*
X49527Y-51796D02*
X49527Y-51895D01*
X49332Y-51796D02*
X49273Y-51796D01*
X49273Y-51796D02*
X49273Y-51895D01*
X49332Y-51895D02*
X49273Y-51895D01*
X49332Y-51796D02*
X49332Y-51895D01*
X49478Y-51796D02*
X49322Y-51796D01*
X49322Y-51796D02*
X49322Y-51865D01*
X49478Y-51865D02*
X49322Y-51865D01*
X49478Y-51796D02*
X49478Y-51865D01*
X49282Y-51207D02*
X49154Y-51207D01*
X49154Y-51207D02*
X49154Y-51404D01*
X49282Y-51404D02*
X49154Y-51404D01*
X49282Y-51207D02*
X49282Y-51404D01*
X49646Y-51207D02*
X49518Y-51207D01*
X49518Y-51207D02*
X49518Y-51404D01*
X49646Y-51404D02*
X49518Y-51404D01*
X49646Y-51207D02*
X49646Y-51404D01*
X49332Y-51305D02*
X49273Y-51305D01*
X49273Y-51305D02*
X49273Y-51404D01*
X49332Y-51404D02*
X49273Y-51404D01*
X49332Y-51305D02*
X49332Y-51404D01*
X49527Y-51305D02*
X49468Y-51305D01*
X49468Y-51305D02*
X49468Y-51404D01*
X49527Y-51404D02*
X49468Y-51404D01*
X49527Y-51305D02*
X49527Y-51404D01*
X49478Y-51335D02*
X49322Y-51335D01*
X49322Y-51335D02*
X49322Y-51404D01*
X49478Y-51404D02*
X49322Y-51404D01*
X49478Y-51335D02*
X49478Y-51404D01*
X49439Y-51600D02*
X49361Y-51600D01*
X49361Y-51600D02*
X49361Y-51678D01*
X49439Y-51678D02*
X49361Y-51678D01*
X49439Y-51600D02*
X49439Y-51678D01*
X49636Y-51796D02*
X49518Y-51796D01*
X49518Y-51796D02*
X49518Y-51914D01*
X49636Y-51914D02*
X49518Y-51914D01*
X49636Y-51796D02*
X49636Y-51914D01*
X49646Y-51964D02*
X49557Y-51964D01*
X49557Y-51964D02*
X49557Y-51993D01*
X49646Y-51993D02*
X49557Y-51993D01*
X49646Y-51964D02*
X49646Y-51993D01*
G54D17*
X49174Y-51806D02*
X49174Y-51394D01*
X49626Y-51404D02*
X49626Y-51964D01*
G54D16*
X49605Y-51934D02*
G75*
G03X49605Y-51934I-28J0D01*
G74*
G01*
G54D17*
X49537Y-51993D02*
G75*
G03X49263Y-51993I-137J0D01*
G74*
G01*
X49263Y-51207D02*
G75*
G03X49537Y-51207I137J0D01*
G74*
G01*
G54D12*
X37600Y-28500D02*
X37680Y-28500D01*
X38200Y-29250D02*
X36400Y-29250D01*
X36400Y-29250D02*
X36400Y-29000D01*
X37040Y-27750D02*
X37040Y-29250D01*
X36910Y-27750D02*
X36910Y-29250D01*
X38200Y-28000D02*
X38200Y-27750D01*
X38200Y-27750D02*
X36400Y-27750D01*
X36400Y-27750D02*
X36400Y-28000D01*
X38200Y-29000D02*
X38200Y-29250D01*
X37350Y-28500D02*
X37600Y-28687D01*
X37600Y-28687D02*
X37600Y-28500D01*
X37600Y-28500D02*
X37600Y-28313D01*
X37600Y-28313D02*
X37350Y-28500D01*
X37350Y-28500D02*
X37350Y-28625D01*
X37350Y-28625D02*
X37412Y-28687D01*
X37350Y-28500D02*
X37350Y-28375D01*
X37350Y-28375D02*
X37288Y-28313D01*
X37350Y-28500D02*
X36913Y-28500D01*
X61100Y-30400D02*
X61100Y-30320D01*
X61850Y-29800D02*
X61850Y-31600D01*
X61850Y-31600D02*
X61600Y-31600D01*
X60350Y-30960D02*
X61850Y-30960D01*
X60350Y-31090D02*
X61850Y-31090D01*
X60600Y-29800D02*
X60350Y-29800D01*
X60350Y-29800D02*
X60350Y-31600D01*
X60350Y-31600D02*
X60600Y-31600D01*
X61600Y-29800D02*
X61850Y-29800D01*
X61100Y-30650D02*
X61287Y-30400D01*
X61287Y-30400D02*
X61100Y-30400D01*
X61100Y-30400D02*
X60913Y-30400D01*
X60913Y-30400D02*
X61100Y-30650D01*
X61100Y-30650D02*
X61225Y-30650D01*
X61225Y-30650D02*
X61287Y-30588D01*
X61100Y-30650D02*
X60975Y-30650D01*
X60975Y-30650D02*
X60913Y-30712D01*
X61100Y-30650D02*
X61100Y-31087D01*
X61100Y-27300D02*
X61100Y-27220D01*
X61850Y-26700D02*
X61850Y-28500D01*
X61850Y-28500D02*
X61600Y-28500D01*
X60350Y-27860D02*
X61850Y-27860D01*
X60350Y-27990D02*
X61850Y-27990D01*
X60600Y-26700D02*
X60350Y-26700D01*
X60350Y-26700D02*
X60350Y-28500D01*
X60350Y-28500D02*
X60600Y-28500D01*
X61600Y-26700D02*
X61850Y-26700D01*
X61100Y-27550D02*
X61287Y-27300D01*
X61287Y-27300D02*
X61100Y-27300D01*
X61100Y-27300D02*
X60913Y-27300D01*
X60913Y-27300D02*
X61100Y-27550D01*
X61100Y-27550D02*
X61225Y-27550D01*
X61225Y-27550D02*
X61287Y-27488D01*
X61100Y-27550D02*
X60975Y-27550D01*
X60975Y-27550D02*
X60913Y-27612D01*
X61100Y-27550D02*
X61100Y-27987D01*
G54D14*
X57004Y-30782D02*
X57004Y-30654D01*
X57004Y-30654D02*
X56807Y-30654D01*
X56807Y-30782D02*
X56807Y-30654D01*
X57004Y-30782D02*
X56807Y-30782D01*
X57004Y-31027D02*
X57004Y-30968D01*
X57004Y-30968D02*
X56905Y-30968D01*
X56905Y-31027D02*
X56905Y-30968D01*
X57004Y-31027D02*
X56905Y-31027D01*
X57004Y-30832D02*
X57004Y-30773D01*
X57004Y-30773D02*
X56905Y-30773D01*
X56905Y-30832D02*
X56905Y-30773D01*
X57004Y-30832D02*
X56905Y-30832D01*
X57004Y-30978D02*
X57004Y-30822D01*
X57004Y-30822D02*
X56935Y-30822D01*
X56935Y-30978D02*
X56935Y-30822D01*
X57004Y-30978D02*
X56935Y-30978D01*
X57593Y-30782D02*
X57593Y-30654D01*
X57593Y-30654D02*
X57396Y-30654D01*
X57396Y-30782D02*
X57396Y-30654D01*
X57593Y-30782D02*
X57396Y-30782D01*
X57593Y-31146D02*
X57593Y-31018D01*
X57593Y-31018D02*
X57396Y-31018D01*
X57396Y-31146D02*
X57396Y-31018D01*
X57593Y-31146D02*
X57396Y-31146D01*
X57495Y-30832D02*
X57495Y-30773D01*
X57495Y-30773D02*
X57396Y-30773D01*
X57396Y-30832D02*
X57396Y-30773D01*
X57495Y-30832D02*
X57396Y-30832D01*
X57495Y-31027D02*
X57495Y-30968D01*
X57495Y-30968D02*
X57396Y-30968D01*
X57396Y-31027D02*
X57396Y-30968D01*
X57495Y-31027D02*
X57396Y-31027D01*
X57465Y-30978D02*
X57465Y-30822D01*
X57465Y-30822D02*
X57396Y-30822D01*
X57396Y-30978D02*
X57396Y-30822D01*
X57465Y-30978D02*
X57396Y-30978D01*
X57200Y-30939D02*
X57200Y-30861D01*
X57200Y-30861D02*
X57122Y-30861D01*
X57122Y-30939D02*
X57122Y-30861D01*
X57200Y-30939D02*
X57122Y-30939D01*
X57004Y-31136D02*
X57004Y-31018D01*
X57004Y-31018D02*
X56886Y-31018D01*
X56886Y-31136D02*
X56886Y-31018D01*
X57004Y-31136D02*
X56886Y-31136D01*
X56836Y-31146D02*
X56836Y-31057D01*
X56836Y-31057D02*
X56807Y-31057D01*
X56807Y-31146D02*
X56807Y-31057D01*
X56836Y-31146D02*
X56807Y-31146D01*
G54D17*
X56994Y-30674D02*
X57406Y-30674D01*
X57396Y-31126D02*
X56836Y-31126D01*
G54D16*
X56894Y-31077D02*
G75*
G03X56894Y-31077I-28J0D01*
G74*
G01*
G54D17*
X56807Y-31037D02*
G75*
G03X56807Y-30763I0J137D01*
G74*
G01*
X57593Y-30763D02*
G75*
G03X57593Y-31037I0J-137D01*
G74*
G01*
G54D14*
X57004Y-29882D02*
X57004Y-29754D01*
X57004Y-29754D02*
X56807Y-29754D01*
X56807Y-29882D02*
X56807Y-29754D01*
X57004Y-29882D02*
X56807Y-29882D01*
X57004Y-30127D02*
X57004Y-30068D01*
X57004Y-30068D02*
X56905Y-30068D01*
X56905Y-30127D02*
X56905Y-30068D01*
X57004Y-30127D02*
X56905Y-30127D01*
X57004Y-29932D02*
X57004Y-29873D01*
X57004Y-29873D02*
X56905Y-29873D01*
X56905Y-29932D02*
X56905Y-29873D01*
X57004Y-29932D02*
X56905Y-29932D01*
X57004Y-30078D02*
X57004Y-29922D01*
X57004Y-29922D02*
X56935Y-29922D01*
X56935Y-30078D02*
X56935Y-29922D01*
X57004Y-30078D02*
X56935Y-30078D01*
X57593Y-29882D02*
X57593Y-29754D01*
X57593Y-29754D02*
X57396Y-29754D01*
X57396Y-29882D02*
X57396Y-29754D01*
X57593Y-29882D02*
X57396Y-29882D01*
X57593Y-30246D02*
X57593Y-30118D01*
X57593Y-30118D02*
X57396Y-30118D01*
X57396Y-30246D02*
X57396Y-30118D01*
X57593Y-30246D02*
X57396Y-30246D01*
X57495Y-29932D02*
X57495Y-29873D01*
X57495Y-29873D02*
X57396Y-29873D01*
X57396Y-29932D02*
X57396Y-29873D01*
X57495Y-29932D02*
X57396Y-29932D01*
X57495Y-30127D02*
X57495Y-30068D01*
X57495Y-30068D02*
X57396Y-30068D01*
X57396Y-30127D02*
X57396Y-30068D01*
X57495Y-30127D02*
X57396Y-30127D01*
X57465Y-30078D02*
X57465Y-29922D01*
X57465Y-29922D02*
X57396Y-29922D01*
X57396Y-30078D02*
X57396Y-29922D01*
X57465Y-30078D02*
X57396Y-30078D01*
X57200Y-30039D02*
X57200Y-29961D01*
X57200Y-29961D02*
X57122Y-29961D01*
X57122Y-30039D02*
X57122Y-29961D01*
X57200Y-30039D02*
X57122Y-30039D01*
X57004Y-30236D02*
X57004Y-30118D01*
X57004Y-30118D02*
X56886Y-30118D01*
X56886Y-30236D02*
X56886Y-30118D01*
X57004Y-30236D02*
X56886Y-30236D01*
X56836Y-30246D02*
X56836Y-30157D01*
X56836Y-30157D02*
X56807Y-30157D01*
X56807Y-30246D02*
X56807Y-30157D01*
X56836Y-30246D02*
X56807Y-30246D01*
G54D17*
X56994Y-29774D02*
X57406Y-29774D01*
X57396Y-30226D02*
X56836Y-30226D01*
G54D16*
X56894Y-30177D02*
G75*
G03X56894Y-30177I-28J0D01*
G74*
G01*
G54D17*
X56807Y-30137D02*
G75*
G03X56807Y-29863I0J137D01*
G74*
G01*
X57593Y-29863D02*
G75*
G03X57593Y-30137I0J-137D01*
G74*
G01*
G54D14*
X47382Y-25896D02*
X47254Y-25896D01*
X47254Y-25896D02*
X47254Y-26093D01*
X47382Y-26093D02*
X47254Y-26093D01*
X47382Y-25896D02*
X47382Y-26093D01*
X47627Y-25896D02*
X47568Y-25896D01*
X47568Y-25896D02*
X47568Y-25995D01*
X47627Y-25995D02*
X47568Y-25995D01*
X47627Y-25896D02*
X47627Y-25995D01*
X47432Y-25896D02*
X47373Y-25896D01*
X47373Y-25896D02*
X47373Y-25995D01*
X47432Y-25995D02*
X47373Y-25995D01*
X47432Y-25896D02*
X47432Y-25995D01*
X47578Y-25896D02*
X47422Y-25896D01*
X47422Y-25896D02*
X47422Y-25965D01*
X47578Y-25965D02*
X47422Y-25965D01*
X47578Y-25896D02*
X47578Y-25965D01*
X47382Y-25307D02*
X47254Y-25307D01*
X47254Y-25307D02*
X47254Y-25504D01*
X47382Y-25504D02*
X47254Y-25504D01*
X47382Y-25307D02*
X47382Y-25504D01*
X47746Y-25307D02*
X47618Y-25307D01*
X47618Y-25307D02*
X47618Y-25504D01*
X47746Y-25504D02*
X47618Y-25504D01*
X47746Y-25307D02*
X47746Y-25504D01*
X47432Y-25405D02*
X47373Y-25405D01*
X47373Y-25405D02*
X47373Y-25504D01*
X47432Y-25504D02*
X47373Y-25504D01*
X47432Y-25405D02*
X47432Y-25504D01*
X47627Y-25405D02*
X47568Y-25405D01*
X47568Y-25405D02*
X47568Y-25504D01*
X47627Y-25504D02*
X47568Y-25504D01*
X47627Y-25405D02*
X47627Y-25504D01*
X47578Y-25435D02*
X47422Y-25435D01*
X47422Y-25435D02*
X47422Y-25504D01*
X47578Y-25504D02*
X47422Y-25504D01*
X47578Y-25435D02*
X47578Y-25504D01*
X47539Y-25700D02*
X47461Y-25700D01*
X47461Y-25700D02*
X47461Y-25778D01*
X47539Y-25778D02*
X47461Y-25778D01*
X47539Y-25700D02*
X47539Y-25778D01*
X47736Y-25896D02*
X47618Y-25896D01*
X47618Y-25896D02*
X47618Y-26014D01*
X47736Y-26014D02*
X47618Y-26014D01*
X47736Y-25896D02*
X47736Y-26014D01*
X47746Y-26064D02*
X47657Y-26064D01*
X47657Y-26064D02*
X47657Y-26093D01*
X47746Y-26093D02*
X47657Y-26093D01*
X47746Y-26064D02*
X47746Y-26093D01*
G54D17*
X47274Y-25906D02*
X47274Y-25494D01*
X47726Y-25504D02*
X47726Y-26064D01*
G54D16*
X47705Y-26034D02*
G75*
G03X47705Y-26034I-28J0D01*
G74*
G01*
G54D17*
X47637Y-26093D02*
G75*
G03X47363Y-26093I-137J0D01*
G74*
G01*
X47363Y-25307D02*
G75*
G03X47637Y-25307I137J0D01*
G74*
G01*
G54D14*
X57004Y-28182D02*
X57004Y-28054D01*
X57004Y-28054D02*
X56807Y-28054D01*
X56807Y-28182D02*
X56807Y-28054D01*
X57004Y-28182D02*
X56807Y-28182D01*
X57004Y-28427D02*
X57004Y-28368D01*
X57004Y-28368D02*
X56905Y-28368D01*
X56905Y-28427D02*
X56905Y-28368D01*
X57004Y-28427D02*
X56905Y-28427D01*
X57004Y-28232D02*
X57004Y-28173D01*
X57004Y-28173D02*
X56905Y-28173D01*
X56905Y-28232D02*
X56905Y-28173D01*
X57004Y-28232D02*
X56905Y-28232D01*
X57004Y-28378D02*
X57004Y-28222D01*
X57004Y-28222D02*
X56935Y-28222D01*
X56935Y-28378D02*
X56935Y-28222D01*
X57004Y-28378D02*
X56935Y-28378D01*
X57593Y-28182D02*
X57593Y-28054D01*
X57593Y-28054D02*
X57396Y-28054D01*
X57396Y-28182D02*
X57396Y-28054D01*
X57593Y-28182D02*
X57396Y-28182D01*
X57593Y-28546D02*
X57593Y-28418D01*
X57593Y-28418D02*
X57396Y-28418D01*
X57396Y-28546D02*
X57396Y-28418D01*
X57593Y-28546D02*
X57396Y-28546D01*
X57495Y-28232D02*
X57495Y-28173D01*
X57495Y-28173D02*
X57396Y-28173D01*
X57396Y-28232D02*
X57396Y-28173D01*
X57495Y-28232D02*
X57396Y-28232D01*
X57495Y-28427D02*
X57495Y-28368D01*
X57495Y-28368D02*
X57396Y-28368D01*
X57396Y-28427D02*
X57396Y-28368D01*
X57495Y-28427D02*
X57396Y-28427D01*
X57465Y-28378D02*
X57465Y-28222D01*
X57465Y-28222D02*
X57396Y-28222D01*
X57396Y-28378D02*
X57396Y-28222D01*
X57465Y-28378D02*
X57396Y-28378D01*
X57200Y-28339D02*
X57200Y-28261D01*
X57200Y-28261D02*
X57122Y-28261D01*
X57122Y-28339D02*
X57122Y-28261D01*
X57200Y-28339D02*
X57122Y-28339D01*
X57004Y-28536D02*
X57004Y-28418D01*
X57004Y-28418D02*
X56886Y-28418D01*
X56886Y-28536D02*
X56886Y-28418D01*
X57004Y-28536D02*
X56886Y-28536D01*
X56836Y-28546D02*
X56836Y-28457D01*
X56836Y-28457D02*
X56807Y-28457D01*
X56807Y-28546D02*
X56807Y-28457D01*
X56836Y-28546D02*
X56807Y-28546D01*
G54D17*
X56994Y-28074D02*
X57406Y-28074D01*
X57396Y-28526D02*
X56836Y-28526D01*
G54D16*
X56894Y-28477D02*
G75*
G03X56894Y-28477I-28J0D01*
G74*
G01*
G54D17*
X56807Y-28437D02*
G75*
G03X56807Y-28163I0J137D01*
G74*
G01*
X57593Y-28163D02*
G75*
G03X57593Y-28437I0J-137D01*
G74*
G01*
G54D12*
X68250Y-49250D02*
X66950Y-49250D01*
X68250Y-47950D02*
X66950Y-47950D01*
X68250Y-47700D02*
X66950Y-47700D01*
X66950Y-47700D02*
X66950Y-49500D01*
X66950Y-49500D02*
X68250Y-49500D01*
X68250Y-49500D02*
X68250Y-47700D01*
G54D14*
X64280Y-31830D02*
X64420Y-31830D01*
X64420Y-31830D02*
X64420Y-31430D01*
X64280Y-31430D02*
X64420Y-31430D01*
X64280Y-31830D02*
X64280Y-31430D01*
X64780Y-31830D02*
X64920Y-31830D01*
X64920Y-31830D02*
X64920Y-31430D01*
X64780Y-31430D02*
X64920Y-31430D01*
X64780Y-31830D02*
X64780Y-31430D01*
X65280Y-31830D02*
X65420Y-31830D01*
X65420Y-31830D02*
X65420Y-31430D01*
X65280Y-31430D02*
X65420Y-31430D01*
X65280Y-31830D02*
X65280Y-31430D01*
X65780Y-31830D02*
X65920Y-31830D01*
X65920Y-31830D02*
X65920Y-31430D01*
X65780Y-31430D02*
X65920Y-31430D01*
X65780Y-31830D02*
X65780Y-31430D01*
X64280Y-29970D02*
X64420Y-29970D01*
X64420Y-29970D02*
X64420Y-29570D01*
X64280Y-29570D02*
X64420Y-29570D01*
X64280Y-29970D02*
X64280Y-29570D01*
X64780Y-29970D02*
X64920Y-29970D01*
X64920Y-29970D02*
X64920Y-29570D01*
X64780Y-29570D02*
X64920Y-29570D01*
X64780Y-29970D02*
X64780Y-29570D01*
X65280Y-29970D02*
X65420Y-29970D01*
X65420Y-29970D02*
X65420Y-29570D01*
X65280Y-29570D02*
X65420Y-29570D01*
X65280Y-29970D02*
X65280Y-29570D01*
X65780Y-29970D02*
X65920Y-29970D01*
X65920Y-29970D02*
X65920Y-29570D01*
X65780Y-29570D02*
X65920Y-29570D01*
X65780Y-29970D02*
X65780Y-29570D01*
G54D15*
X64171Y-31409D02*
X66029Y-31409D01*
X66029Y-31409D02*
X66029Y-29991D01*
X66029Y-29991D02*
X64171Y-29991D01*
X64171Y-29991D02*
X64171Y-31409D01*
G54D17*
X64430Y-31090D02*
G75*
G03X64430Y-31090I-39J0D01*
G74*
G01*
G54D18*
X31550Y-46650D02*
X31550Y-26650D01*
X29550Y-27650D02*
X29550Y-46650D01*
X31550Y-46650D02*
X29550Y-46650D01*
X31550Y-26650D02*
X30550Y-26650D01*
X29550Y-26650D02*
X29550Y-27650D01*
X29550Y-26650D02*
X30550Y-26650D01*
X68600Y-46650D02*
X68600Y-26650D01*
X66600Y-27650D02*
X66600Y-46650D01*
X68600Y-46650D02*
X66600Y-46650D01*
X68600Y-26650D02*
X67600Y-26650D01*
X66600Y-26650D02*
X66600Y-27650D01*
X66600Y-26650D02*
X67600Y-26650D01*
G54D19*
X63225Y-34762D02*
G75*
G03X63225Y-34762I-62J0D01*
G74*
G01*
X62200Y-35100D02*
X62200Y-34700D01*
X63225Y-35100D02*
X63225Y-34700D01*
X62200Y-34700D02*
X63225Y-34700D01*
X63225Y-35100D02*
X62200Y-35100D01*
X58925Y-34762D02*
G75*
G03X58925Y-34762I-62J0D01*
G74*
G01*
X57900Y-35100D02*
X57900Y-34700D01*
X58925Y-35100D02*
X58925Y-34700D01*
X57900Y-34700D02*
X58925Y-34700D01*
X58925Y-35100D02*
X57900Y-35100D01*
X63525Y-31462D02*
G75*
G03X63525Y-31462I-62J0D01*
G74*
G01*
X62500Y-31800D02*
X62500Y-31400D01*
X63525Y-31800D02*
X63525Y-31400D01*
X62500Y-31400D02*
X63525Y-31400D01*
X63525Y-31800D02*
X62500Y-31800D01*
X62599Y-29938D02*
G75*
G03X62599Y-29938I-62J0D01*
G74*
G01*
X63500Y-29600D02*
X63500Y-30000D01*
X62475Y-29600D02*
X62475Y-30000D01*
X63500Y-30000D02*
X62475Y-30000D01*
X62475Y-29600D02*
X63500Y-29600D01*
X35925Y-27362D02*
G75*
G03X35925Y-27362I-62J0D01*
G74*
G01*
X34900Y-27700D02*
X34900Y-27300D01*
X35925Y-27700D02*
X35925Y-27300D01*
X34900Y-27300D02*
X35925Y-27300D01*
X35925Y-27700D02*
X34900Y-27700D01*
X33824Y-31437D02*
G75*
G03X33824Y-31437I-62J0D01*
G74*
G01*
X34100Y-32400D02*
X33700Y-32400D01*
X34100Y-31375D02*
X33700Y-31375D01*
X33700Y-32400D02*
X33700Y-31375D01*
X34100Y-31375D02*
X34100Y-32400D01*
G54D14*
X63725Y-35060D02*
X63725Y-35315D01*
X63725Y-35315D02*
X64276Y-35315D01*
X64276Y-35060D02*
X64276Y-35315D01*
X63725Y-35060D02*
X64276Y-35060D01*
X63725Y-34480D02*
X63725Y-34736D01*
X63725Y-34736D02*
X64276Y-34736D01*
X64276Y-34480D02*
X64276Y-34736D01*
X63725Y-34480D02*
X64276Y-34480D01*
X63804Y-34822D02*
X63804Y-34978D01*
X63804Y-34978D02*
X64196Y-34978D01*
X64196Y-34822D02*
X64196Y-34978D01*
X63804Y-34822D02*
X64196Y-34822D01*
G54D15*
X64250Y-34739D02*
X64250Y-35061D01*
X63750Y-34739D02*
X63750Y-35061D01*
G54D16*
X64387Y-34124D02*
X64387Y-35676D01*
X64387Y-35676D02*
X63613Y-35676D01*
X63613Y-35676D02*
X63613Y-34124D01*
X63613Y-34124D02*
X64387Y-34124D01*
G54D14*
X62540Y-33425D02*
X62285Y-33425D01*
X62285Y-33425D02*
X62285Y-33976D01*
X62540Y-33976D02*
X62285Y-33976D01*
X62540Y-33425D02*
X62540Y-33976D01*
X63120Y-33425D02*
X62864Y-33425D01*
X62864Y-33425D02*
X62864Y-33976D01*
X63120Y-33976D02*
X62864Y-33976D01*
X63120Y-33425D02*
X63120Y-33976D01*
X62778Y-33504D02*
X62622Y-33504D01*
X62622Y-33504D02*
X62622Y-33896D01*
X62778Y-33896D02*
X62622Y-33896D01*
X62778Y-33504D02*
X62778Y-33896D01*
G54D15*
X62861Y-33950D02*
X62539Y-33950D01*
X62861Y-33450D02*
X62539Y-33450D01*
G54D16*
X63476Y-34087D02*
X61924Y-34087D01*
X61924Y-34087D02*
X61924Y-33313D01*
X61924Y-33313D02*
X63476Y-33313D01*
X63476Y-33313D02*
X63476Y-34087D01*
G54D14*
X59425Y-35060D02*
X59425Y-35315D01*
X59425Y-35315D02*
X59976Y-35315D01*
X59976Y-35060D02*
X59976Y-35315D01*
X59425Y-35060D02*
X59976Y-35060D01*
X59425Y-34480D02*
X59425Y-34736D01*
X59425Y-34736D02*
X59976Y-34736D01*
X59976Y-34480D02*
X59976Y-34736D01*
X59425Y-34480D02*
X59976Y-34480D01*
X59504Y-34822D02*
X59504Y-34978D01*
X59504Y-34978D02*
X59896Y-34978D01*
X59896Y-34822D02*
X59896Y-34978D01*
X59504Y-34822D02*
X59896Y-34822D01*
G54D15*
X59950Y-34739D02*
X59950Y-35061D01*
X59450Y-34739D02*
X59450Y-35061D01*
G54D16*
X60087Y-34124D02*
X60087Y-35676D01*
X60087Y-35676D02*
X59313Y-35676D01*
X59313Y-35676D02*
X59313Y-34124D01*
X59313Y-34124D02*
X60087Y-34124D01*
G54D14*
X58240Y-33425D02*
X57985Y-33425D01*
X57985Y-33425D02*
X57985Y-33976D01*
X58240Y-33976D02*
X57985Y-33976D01*
X58240Y-33425D02*
X58240Y-33976D01*
X58820Y-33425D02*
X58564Y-33425D01*
X58564Y-33425D02*
X58564Y-33976D01*
X58820Y-33976D02*
X58564Y-33976D01*
X58820Y-33425D02*
X58820Y-33976D01*
X58478Y-33504D02*
X58322Y-33504D01*
X58322Y-33504D02*
X58322Y-33896D01*
X58478Y-33896D02*
X58322Y-33896D01*
X58478Y-33504D02*
X58478Y-33896D01*
G54D15*
X58561Y-33950D02*
X58239Y-33950D01*
X58561Y-33450D02*
X58239Y-33450D01*
G54D16*
X59176Y-34087D02*
X57624Y-34087D01*
X57624Y-34087D02*
X57624Y-33313D01*
X57624Y-33313D02*
X59176Y-33313D01*
X59176Y-33313D02*
X59176Y-34087D01*
G54D14*
X53575Y-30240D02*
X53575Y-29985D01*
X53575Y-29985D02*
X53024Y-29985D01*
X53024Y-30240D02*
X53024Y-29985D01*
X53575Y-30240D02*
X53024Y-30240D01*
X53575Y-30820D02*
X53575Y-30564D01*
X53575Y-30564D02*
X53024Y-30564D01*
X53024Y-30820D02*
X53024Y-30564D01*
X53575Y-30820D02*
X53024Y-30820D01*
X53496Y-30478D02*
X53496Y-30322D01*
X53496Y-30322D02*
X53104Y-30322D01*
X53104Y-30478D02*
X53104Y-30322D01*
X53496Y-30478D02*
X53104Y-30478D01*
G54D15*
X53050Y-30561D02*
X53050Y-30239D01*
X53550Y-30561D02*
X53550Y-30239D01*
G54D16*
X52913Y-31176D02*
X52913Y-29624D01*
X52913Y-29624D02*
X53687Y-29624D01*
X53687Y-29624D02*
X53687Y-31176D01*
X53687Y-31176D02*
X52913Y-31176D01*
G54D14*
X55160Y-35575D02*
X55415Y-35575D01*
X55415Y-35575D02*
X55415Y-35024D01*
X55160Y-35024D02*
X55415Y-35024D01*
X55160Y-35575D02*
X55160Y-35024D01*
X54580Y-35575D02*
X54836Y-35575D01*
X54836Y-35575D02*
X54836Y-35024D01*
X54580Y-35024D02*
X54836Y-35024D01*
X54580Y-35575D02*
X54580Y-35024D01*
X54922Y-35496D02*
X55078Y-35496D01*
X55078Y-35496D02*
X55078Y-35104D01*
X54922Y-35104D02*
X55078Y-35104D01*
X54922Y-35496D02*
X54922Y-35104D01*
G54D15*
X54839Y-35050D02*
X55161Y-35050D01*
X54839Y-35550D02*
X55161Y-35550D01*
G54D16*
X54224Y-34913D02*
X55776Y-34913D01*
X55776Y-34913D02*
X55776Y-35687D01*
X55776Y-35687D02*
X54224Y-35687D01*
X54224Y-35687D02*
X54224Y-34913D01*
G54D14*
X55160Y-34575D02*
X55415Y-34575D01*
X55415Y-34575D02*
X55415Y-34024D01*
X55160Y-34024D02*
X55415Y-34024D01*
X55160Y-34575D02*
X55160Y-34024D01*
X54580Y-34575D02*
X54836Y-34575D01*
X54836Y-34575D02*
X54836Y-34024D01*
X54580Y-34024D02*
X54836Y-34024D01*
X54580Y-34575D02*
X54580Y-34024D01*
X54922Y-34496D02*
X55078Y-34496D01*
X55078Y-34496D02*
X55078Y-34104D01*
X54922Y-34104D02*
X55078Y-34104D01*
X54922Y-34496D02*
X54922Y-34104D01*
G54D15*
X54839Y-34050D02*
X55161Y-34050D01*
X54839Y-34550D02*
X55161Y-34550D01*
G54D16*
X54224Y-33913D02*
X55776Y-33913D01*
X55776Y-33913D02*
X55776Y-34687D01*
X55776Y-34687D02*
X54224Y-34687D01*
X54224Y-34687D02*
X54224Y-33913D01*
G54D14*
X59060Y-31175D02*
X59315Y-31175D01*
X59315Y-31175D02*
X59315Y-30624D01*
X59060Y-30624D02*
X59315Y-30624D01*
X59060Y-31175D02*
X59060Y-30624D01*
X58480Y-31175D02*
X58736Y-31175D01*
X58736Y-31175D02*
X58736Y-30624D01*
X58480Y-30624D02*
X58736Y-30624D01*
X58480Y-31175D02*
X58480Y-30624D01*
X58822Y-31096D02*
X58978Y-31096D01*
X58978Y-31096D02*
X58978Y-30704D01*
X58822Y-30704D02*
X58978Y-30704D01*
X58822Y-31096D02*
X58822Y-30704D01*
G54D15*
X58739Y-30650D02*
X59061Y-30650D01*
X58739Y-31150D02*
X59061Y-31150D01*
G54D16*
X58124Y-30513D02*
X59676Y-30513D01*
X59676Y-30513D02*
X59676Y-31287D01*
X59676Y-31287D02*
X58124Y-31287D01*
X58124Y-31287D02*
X58124Y-30513D01*
G54D14*
X59060Y-30275D02*
X59315Y-30275D01*
X59315Y-30275D02*
X59315Y-29724D01*
X59060Y-29724D02*
X59315Y-29724D01*
X59060Y-30275D02*
X59060Y-29724D01*
X58480Y-30275D02*
X58736Y-30275D01*
X58736Y-30275D02*
X58736Y-29724D01*
X58480Y-29724D02*
X58736Y-29724D01*
X58480Y-30275D02*
X58480Y-29724D01*
X58822Y-30196D02*
X58978Y-30196D01*
X58978Y-30196D02*
X58978Y-29804D01*
X58822Y-29804D02*
X58978Y-29804D01*
X58822Y-30196D02*
X58822Y-29804D01*
G54D15*
X58739Y-29750D02*
X59061Y-29750D01*
X58739Y-30250D02*
X59061Y-30250D01*
G54D16*
X58124Y-29613D02*
X59676Y-29613D01*
X59676Y-29613D02*
X59676Y-30387D01*
X59676Y-30387D02*
X58124Y-30387D01*
X58124Y-30387D02*
X58124Y-29613D01*
G54D14*
X58740Y-28025D02*
X58485Y-28025D01*
X58485Y-28025D02*
X58485Y-28576D01*
X58740Y-28576D02*
X58485Y-28576D01*
X58740Y-28025D02*
X58740Y-28576D01*
X59320Y-28025D02*
X59064Y-28025D01*
X59064Y-28025D02*
X59064Y-28576D01*
X59320Y-28576D02*
X59064Y-28576D01*
X59320Y-28025D02*
X59320Y-28576D01*
X58978Y-28104D02*
X58822Y-28104D01*
X58822Y-28104D02*
X58822Y-28496D01*
X58978Y-28496D02*
X58822Y-28496D01*
X58978Y-28104D02*
X58978Y-28496D01*
G54D15*
X59061Y-28550D02*
X58739Y-28550D01*
X59061Y-28050D02*
X58739Y-28050D01*
G54D16*
X59676Y-28687D02*
X58124Y-28687D01*
X58124Y-28687D02*
X58124Y-27913D01*
X58124Y-27913D02*
X59676Y-27913D01*
X59676Y-27913D02*
X59676Y-28687D01*
G54D14*
X33925Y-27660D02*
X33925Y-27915D01*
X33925Y-27915D02*
X34476Y-27915D01*
X34476Y-27660D02*
X34476Y-27915D01*
X33925Y-27660D02*
X34476Y-27660D01*
X33925Y-27080D02*
X33925Y-27336D01*
X33925Y-27336D02*
X34476Y-27336D01*
X34476Y-27080D02*
X34476Y-27336D01*
X33925Y-27080D02*
X34476Y-27080D01*
X34004Y-27422D02*
X34004Y-27578D01*
X34004Y-27578D02*
X34396Y-27578D01*
X34396Y-27422D02*
X34396Y-27578D01*
X34004Y-27422D02*
X34396Y-27422D01*
G54D15*
X34450Y-27339D02*
X34450Y-27661D01*
X33950Y-27339D02*
X33950Y-27661D01*
G54D16*
X34587Y-26724D02*
X34587Y-28276D01*
X34587Y-28276D02*
X33813Y-28276D01*
X33813Y-28276D02*
X33813Y-26724D01*
X33813Y-26724D02*
X34587Y-26724D01*
G54D14*
X33360Y-33475D02*
X33615Y-33475D01*
X33615Y-33475D02*
X33615Y-32924D01*
X33360Y-32924D02*
X33615Y-32924D01*
X33360Y-33475D02*
X33360Y-32924D01*
X32780Y-33475D02*
X33036Y-33475D01*
X33036Y-33475D02*
X33036Y-32924D01*
X32780Y-32924D02*
X33036Y-32924D01*
X32780Y-33475D02*
X32780Y-32924D01*
X33122Y-33396D02*
X33278Y-33396D01*
X33278Y-33396D02*
X33278Y-33004D01*
X33122Y-33004D02*
X33278Y-33004D01*
X33122Y-33396D02*
X33122Y-33004D01*
G54D15*
X33039Y-32950D02*
X33361Y-32950D01*
X33039Y-33450D02*
X33361Y-33450D01*
G54D16*
X32424Y-32813D02*
X33976Y-32813D01*
X33976Y-32813D02*
X33976Y-33587D01*
X33976Y-33587D02*
X32424Y-33587D01*
X32424Y-33587D02*
X32424Y-32813D01*
G54D14*
X35240Y-26025D02*
X34985Y-26025D01*
X34985Y-26025D02*
X34985Y-26576D01*
X35240Y-26576D02*
X34985Y-26576D01*
X35240Y-26025D02*
X35240Y-26576D01*
X35820Y-26025D02*
X35564Y-26025D01*
X35564Y-26025D02*
X35564Y-26576D01*
X35820Y-26576D02*
X35564Y-26576D01*
X35820Y-26025D02*
X35820Y-26576D01*
X35478Y-26104D02*
X35322Y-26104D01*
X35322Y-26104D02*
X35322Y-26496D01*
X35478Y-26496D02*
X35322Y-26496D01*
X35478Y-26104D02*
X35478Y-26496D01*
G54D15*
X35561Y-26550D02*
X35239Y-26550D01*
X35561Y-26050D02*
X35239Y-26050D01*
G54D16*
X36176Y-26687D02*
X34624Y-26687D01*
X34624Y-26687D02*
X34624Y-25913D01*
X34624Y-25913D02*
X36176Y-25913D01*
X36176Y-25913D02*
X36176Y-26687D01*
G54D14*
X32425Y-32060D02*
X32425Y-32315D01*
X32425Y-32315D02*
X32976Y-32315D01*
X32976Y-32060D02*
X32976Y-32315D01*
X32425Y-32060D02*
X32976Y-32060D01*
X32425Y-31480D02*
X32425Y-31736D01*
X32425Y-31736D02*
X32976Y-31736D01*
X32976Y-31480D02*
X32976Y-31736D01*
X32425Y-31480D02*
X32976Y-31480D01*
X32504Y-31822D02*
X32504Y-31978D01*
X32504Y-31978D02*
X32896Y-31978D01*
X32896Y-31822D02*
X32896Y-31978D01*
X32504Y-31822D02*
X32896Y-31822D01*
G54D15*
X32950Y-31739D02*
X32950Y-32061D01*
X32450Y-31739D02*
X32450Y-32061D01*
G54D16*
X33087Y-31124D02*
X33087Y-32676D01*
X33087Y-32676D02*
X32313Y-32676D01*
X32313Y-32676D02*
X32313Y-31124D01*
X32313Y-31124D02*
X33087Y-31124D01*
G54D20*
X34000Y-51900D02*
X34000Y-52500D01*
X34000Y-52500D02*
X34200Y-52700D01*
X34200Y-50300D02*
X34000Y-50500D01*
X34000Y-50500D02*
X34000Y-51100D01*
X36200Y-52700D02*
X36400Y-52500D01*
X36400Y-52500D02*
X36400Y-51900D01*
X36200Y-50300D02*
X36400Y-50500D01*
X36400Y-50500D02*
X36400Y-51100D01*
X34200Y-50300D02*
X34350Y-50300D01*
X36200Y-50300D02*
X36050Y-50300D01*
X36200Y-52700D02*
X36050Y-52700D01*
X34200Y-52700D02*
X34350Y-52700D01*
X34350Y-52700D02*
X36050Y-52700D01*
X36050Y-50300D02*
X34350Y-50300D01*
X34000Y-51892D02*
X34000Y-51100D01*
X36400Y-51904D02*
X36400Y-51100D01*
X36200Y-52000D02*
X36200Y-51700D01*
X36200Y-51300D02*
X36200Y-51000D01*
X36200Y-51700D02*
X36050Y-51350D01*
G54D17*
X35694Y-51500D02*
G75*
G03X35694Y-51500I-494J0D01*
G74*
G01*
G54D20*
X38000Y-51900D02*
X38000Y-52500D01*
X38000Y-52500D02*
X38200Y-52700D01*
X38200Y-50300D02*
X38000Y-50500D01*
X38000Y-50500D02*
X38000Y-51100D01*
X40200Y-52700D02*
X40400Y-52500D01*
X40400Y-52500D02*
X40400Y-51900D01*
X40200Y-50300D02*
X40400Y-50500D01*
X40400Y-50500D02*
X40400Y-51100D01*
X38200Y-50300D02*
X38350Y-50300D01*
X40200Y-50300D02*
X40050Y-50300D01*
X40200Y-52700D02*
X40050Y-52700D01*
X38200Y-52700D02*
X38350Y-52700D01*
X38350Y-52700D02*
X40050Y-52700D01*
X40050Y-50300D02*
X38350Y-50300D01*
X38000Y-51892D02*
X38000Y-51100D01*
X40400Y-51904D02*
X40400Y-51100D01*
X40200Y-52000D02*
X40200Y-51700D01*
X40200Y-51300D02*
X40200Y-51000D01*
X40200Y-51700D02*
X40050Y-51350D01*
G54D17*
X39694Y-51500D02*
G75*
G03X39694Y-51500I-494J0D01*
G74*
G01*
G54D20*
X40100Y-28000D02*
X40100Y-28600D01*
X40100Y-28600D02*
X40300Y-28800D01*
X40300Y-26400D02*
X40100Y-26600D01*
X40100Y-26600D02*
X40100Y-27200D01*
X42300Y-28800D02*
X42500Y-28600D01*
X42500Y-28600D02*
X42500Y-28000D01*
X42300Y-26400D02*
X42500Y-26600D01*
X42500Y-26600D02*
X42500Y-27200D01*
X40300Y-26400D02*
X40450Y-26400D01*
X42300Y-26400D02*
X42150Y-26400D01*
X42300Y-28800D02*
X42150Y-28800D01*
X40300Y-28800D02*
X40450Y-28800D01*
X40450Y-28800D02*
X42150Y-28800D01*
X42150Y-26400D02*
X40450Y-26400D01*
X40100Y-27992D02*
X40100Y-27200D01*
X42500Y-28004D02*
X42500Y-27200D01*
X42300Y-28100D02*
X42300Y-27800D01*
X42300Y-27400D02*
X42300Y-27100D01*
X42300Y-27800D02*
X42150Y-27450D01*
G54D17*
X41794Y-27600D02*
G75*
G03X41794Y-27600I-494J0D01*
G74*
G01*
G54D14*
X58530Y-49750D02*
X58530Y-49550D01*
X58530Y-49550D02*
X58080Y-49550D01*
X58080Y-49750D02*
X58080Y-49550D01*
X58530Y-49750D02*
X58080Y-49750D01*
X60520Y-51250D02*
X60520Y-51050D01*
X60520Y-51050D02*
X60070Y-51050D01*
X60070Y-51250D02*
X60070Y-51050D01*
X60520Y-51250D02*
X60070Y-51250D01*
X60520Y-50750D02*
X60520Y-50550D01*
X60520Y-50550D02*
X60070Y-50550D01*
X60070Y-50750D02*
X60070Y-50550D01*
X60520Y-50750D02*
X60070Y-50750D01*
X60510Y-50250D02*
X60510Y-50050D01*
X60510Y-50050D02*
X60060Y-50050D01*
X60060Y-50250D02*
X60060Y-50050D01*
X60510Y-50250D02*
X60060Y-50250D01*
X60520Y-49750D02*
X60520Y-49550D01*
X60520Y-49550D02*
X60070Y-49550D01*
X60070Y-49750D02*
X60070Y-49550D01*
X60520Y-49750D02*
X60070Y-49750D01*
X58530Y-50250D02*
X58530Y-50050D01*
X58530Y-50050D02*
X58080Y-50050D01*
X58080Y-50250D02*
X58080Y-50050D01*
X58530Y-50250D02*
X58080Y-50250D01*
X58530Y-50750D02*
X58530Y-50550D01*
X58530Y-50550D02*
X58080Y-50550D01*
X58080Y-50750D02*
X58080Y-50550D01*
X58530Y-50750D02*
X58080Y-50750D01*
X58530Y-51250D02*
X58530Y-51050D01*
X58530Y-51050D02*
X58080Y-51050D01*
X58080Y-51250D02*
X58080Y-51050D01*
X58530Y-51250D02*
X58080Y-51250D01*
X60520Y-49250D02*
X60520Y-49050D01*
X60520Y-49050D02*
X60070Y-49050D01*
X60070Y-49250D02*
X60070Y-49050D01*
X60520Y-49250D02*
X60070Y-49250D01*
X60520Y-48750D02*
X60520Y-48550D01*
X60520Y-48550D02*
X60070Y-48550D01*
X60070Y-48750D02*
X60070Y-48550D01*
X60520Y-48750D02*
X60070Y-48750D01*
X60520Y-48250D02*
X60520Y-48050D01*
X60520Y-48050D02*
X60070Y-48050D01*
X60070Y-48250D02*
X60070Y-48050D01*
X60520Y-48250D02*
X60070Y-48250D01*
X60520Y-47750D02*
X60520Y-47550D01*
X60520Y-47550D02*
X60070Y-47550D01*
X60070Y-47750D02*
X60070Y-47550D01*
X60520Y-47750D02*
X60070Y-47750D01*
X58530Y-49250D02*
X58530Y-49050D01*
X58530Y-49050D02*
X58080Y-49050D01*
X58080Y-49250D02*
X58080Y-49050D01*
X58530Y-49250D02*
X58080Y-49250D01*
X58530Y-48750D02*
X58530Y-48550D01*
X58530Y-48550D02*
X58080Y-48550D01*
X58080Y-48750D02*
X58080Y-48550D01*
X58530Y-48750D02*
X58080Y-48750D01*
X58530Y-48250D02*
X58530Y-48050D01*
X58530Y-48050D02*
X58080Y-48050D01*
X58080Y-48250D02*
X58080Y-48050D01*
X58530Y-48250D02*
X58080Y-48250D01*
X58530Y-47750D02*
X58530Y-47550D01*
X58530Y-47550D02*
X58080Y-47550D01*
X58080Y-47750D02*
X58080Y-47550D01*
X58530Y-47750D02*
X58080Y-47750D01*
G54D15*
X58530Y-47550D02*
X58530Y-51250D01*
X60070Y-51250D02*
X60070Y-47550D01*
X59920Y-47400D02*
X58680Y-47400D01*
X58680Y-51400D02*
X59100Y-51400D01*
X59100Y-51400D02*
X59500Y-51400D01*
X59500Y-51400D02*
X59920Y-51400D01*
G54D16*
X59930Y-51400D02*
X59930Y-47400D01*
G54D15*
X60070Y-47550D02*
G75*
G03X59920Y-47400I-150J0D01*
G74*
G01*
X58530Y-51250D02*
G75*
G03X58680Y-51400I150J0D01*
G74*
G01*
X58680Y-47400D02*
G75*
G03X58530Y-47550I0J-150D01*
G74*
G01*
X59920Y-51400D02*
G75*
G03X60070Y-51250I0J150D01*
G74*
G01*
X59500Y-51400D02*
G75*
G03X59100Y-51400I-200J0D01*
G74*
G01*
G54D21*
X46330Y-28330D02*
X50270Y-28330D01*
X50270Y-28330D02*
X50270Y-32270D01*
X46520Y-32270D02*
X50270Y-32270D01*
X46330Y-32080D02*
X46330Y-28330D01*
X46520Y-32270D02*
X46330Y-32080D01*
G54D20*
X47050Y-31800D02*
G75*
G03X47050Y-31800I-250J0D01*
G74*
G01*
G54D19*
X64999Y-28038D02*
G75*
G03X64999Y-28038I-62J0D01*
G74*
G01*
X65900Y-27700D02*
X65900Y-28100D01*
X64875Y-27700D02*
X64875Y-28100D01*
X65900Y-28100D02*
X64875Y-28100D01*
X64875Y-27700D02*
X65900Y-27700D01*
G54D14*
X56200Y-33000D02*
X56200Y-27800D01*
X56200Y-27800D02*
X53800Y-27800D01*
X53800Y-33000D02*
X53800Y-27800D01*
X56200Y-33000D02*
X53800Y-33000D01*
G54D15*
X54550Y-32650D02*
X54150Y-32650D01*
X54550Y-28150D02*
X54150Y-28150D01*
G54D16*
X55500Y-29050D02*
X55500Y-31750D01*
X55800Y-29050D02*
X55800Y-31750D01*
X54500Y-31750D02*
X54500Y-29050D01*
G54D15*
X55950Y-28250D02*
X55950Y-32550D01*
X55150Y-28150D02*
X55150Y-27850D01*
X54850Y-28150D02*
X54850Y-27850D01*
X55150Y-27850D02*
X54850Y-27850D01*
X55450Y-28150D02*
X54550Y-28150D01*
X55850Y-28150D02*
X55450Y-28150D01*
X55150Y-32950D02*
X54850Y-32950D01*
X55450Y-32650D02*
X55150Y-32650D01*
X55150Y-32650D02*
X54850Y-32650D01*
X54850Y-32650D02*
X54550Y-32650D01*
X55850Y-32650D02*
X55450Y-32650D01*
X55150Y-32650D02*
X55150Y-32950D01*
X54850Y-32650D02*
X54850Y-32950D01*
G54D16*
X54200Y-31750D02*
X54200Y-29050D01*
G54D15*
X54050Y-28250D02*
X54050Y-32550D01*
X54750Y-30500D02*
X55250Y-30500D01*
X55250Y-30500D02*
X55250Y-30300D01*
X55250Y-30300D02*
X54750Y-30300D01*
X54750Y-30300D02*
X54750Y-30500D01*
X54750Y-30650D02*
X55000Y-30650D01*
X55000Y-30650D02*
X55250Y-30650D01*
G54D16*
X55000Y-30650D02*
X55000Y-30800D01*
G54D15*
X54750Y-30150D02*
X55000Y-30150D01*
X55000Y-30150D02*
X55250Y-30150D01*
G54D16*
X55000Y-30150D02*
X55000Y-30000D01*
X54199Y-31750D02*
G75*
G03X54550Y-32411I800J1D01*
G74*
G01*
X54549Y-28389D02*
G75*
G03X54200Y-29050I450J-660D01*
G74*
G01*
G54D15*
X55950Y-28250D02*
G75*
G03X55850Y-28150I-100J0D01*
G74*
G01*
G54D16*
X55499Y-29050D02*
G75*
G03X55450Y-28833I-499J0D01*
G74*
G01*
X54549Y-28832D02*
G75*
G03X54500Y-29050I450J-217D01*
G74*
G01*
X55799Y-29048D02*
G75*
G03X55449Y-28389I-799J-2D01*
G74*
G01*
X55449Y-28831D02*
G75*
G03X54550Y-28833I-449J-218D01*
G74*
G01*
X55448Y-28388D02*
G75*
G03X54550Y-28389I-448J-661D01*
G74*
G01*
X55450Y-32410D02*
G75*
G03X55800Y-31750I-450J660D01*
G74*
G01*
X54550Y-31968D02*
G75*
G03X55450Y-31967I449J218D01*
G74*
G01*
X55450Y-31967D02*
G75*
G03X55500Y-31750I-450J217D01*
G74*
G01*
X54500Y-31749D02*
G75*
G03X54550Y-31967I499J0D01*
G74*
G01*
X54551Y-32411D02*
G75*
G03X55450Y-32411I448J661D01*
G74*
G01*
G54D15*
X55850Y-32650D02*
G75*
G03X55950Y-32550I0J100D01*
G74*
G01*
X54150Y-28150D02*
G75*
G03X54050Y-28250I0J-100D01*
G74*
G01*
X54050Y-32550D02*
G75*
G03X54150Y-32650I100J0D01*
G74*
G01*
G54D22*
X64506Y-51447D02*
X62694Y-51447D01*
X62694Y-47353D02*
X64506Y-47353D01*
X64506Y-47353D02*
X64506Y-51447D01*
X62694Y-51447D02*
X62694Y-47353D01*
X63107Y-47652D02*
G75*
G03X63107Y-47652I-111J0D01*
G74*
G01*
X36394Y-29453D02*
X38206Y-29453D01*
X38206Y-33547D02*
X36394Y-33547D01*
X36394Y-33547D02*
X36394Y-29453D01*
X38206Y-29453D02*
X38206Y-33547D01*
X38015Y-33248D02*
G75*
G03X38015Y-33248I-111J0D01*
G74*
G01*
G54D14*
X37460Y-26575D02*
X37715Y-26575D01*
X37715Y-26575D02*
X37715Y-26024D01*
X37460Y-26024D02*
X37715Y-26024D01*
X37460Y-26575D02*
X37460Y-26024D01*
X36880Y-26575D02*
X37136Y-26575D01*
X37136Y-26575D02*
X37136Y-26024D01*
X36880Y-26024D02*
X37136Y-26024D01*
X36880Y-26575D02*
X36880Y-26024D01*
X37222Y-26496D02*
X37378Y-26496D01*
X37378Y-26496D02*
X37378Y-26104D01*
X37222Y-26104D02*
X37378Y-26104D01*
X37222Y-26496D02*
X37222Y-26104D01*
G54D15*
X37139Y-26050D02*
X37461Y-26050D01*
X37139Y-26550D02*
X37461Y-26550D01*
G54D16*
X36524Y-25913D02*
X38076Y-25913D01*
X38076Y-25913D02*
X38076Y-26687D01*
X38076Y-26687D02*
X36524Y-26687D01*
X36524Y-26687D02*
X36524Y-25913D01*
M02*
