G04 #@! TF.FileFunction,Soldermask,Bot*
%FSLAX46Y46*%
G04 Gerber Fmt 4.6, Leading zero omitted, Abs format (unit mm)*
G04 Created by KiCad (PCBNEW (2015-06-26 BZR 5832)-product) date Samstag, 01. August 2015 00:29:42*
%MOMM*%
G01*
G04 APERTURE LIST*
%ADD10C,0.150000*%
%ADD11O,1.300000X1.450000*%
%ADD12R,1.350000X0.400000*%
%ADD13O,1.800000X1.400000*%
%ADD14R,1.000760X0.800100*%
%ADD15R,1.099820X1.399540*%
%ADD16R,1.399540X1.099820*%
%ADD17C,3.302000*%
%ADD18C,1.587500*%
%ADD19C,1.300000*%
%ADD20C,3.200000*%
%ADD21R,3.700780X1.800860*%
%ADD22R,0.609600X2.207260*%
%ADD23C,1.727200*%
%ADD24C,2.032000*%
%ADD25O,2.032000X2.032000*%
%ADD26O,1.727200X1.727200*%
%ADD27R,1.727200X2.032000*%
%ADD28O,1.727200X2.032000*%
%ADD29C,1.524000*%
%ADD30C,1.500000*%
%ADD31C,1.879600*%
%ADD32R,1.699260X3.299460*%
%ADD33C,1.422400*%
%ADD34R,1.905000X0.635000*%
G04 APERTURE END LIST*
D10*
D11*
X101379000Y-93258000D03*
X101379000Y-98258000D03*
D12*
X101379000Y-95758000D03*
X101379000Y-95108000D03*
X101379000Y-94458000D03*
X101379000Y-96408000D03*
X101379000Y-97058000D03*
D13*
X98679000Y-92258000D03*
X98679000Y-99258000D03*
D14*
X108795820Y-104140000D03*
X106596180Y-103187500D03*
X106596180Y-105092500D03*
X111843820Y-114300000D03*
X109644180Y-113347500D03*
X109644180Y-115252500D03*
D15*
X102979220Y-100838000D03*
X100982780Y-100838000D03*
X183151780Y-110490000D03*
X185148220Y-110490000D03*
X167657780Y-91440000D03*
X169654220Y-91440000D03*
X158224220Y-91440000D03*
X156227780Y-91440000D03*
X129268220Y-109220000D03*
X127271780Y-109220000D03*
X129268220Y-107188000D03*
X127271780Y-107188000D03*
D16*
X171704000Y-100312220D03*
X171704000Y-98315780D03*
D15*
X165082220Y-110236000D03*
X163085780Y-110236000D03*
D17*
X179070000Y-89154000D03*
X179070000Y-102362000D03*
D18*
X179197000Y-94043500D03*
X179197000Y-97472500D03*
X176403000Y-94742000D03*
X176403000Y-92202000D03*
X176403000Y-96774000D03*
X176403000Y-99314000D03*
D19*
X126060000Y-118480000D03*
X125260000Y-120280000D03*
X124460000Y-118480000D03*
X123660000Y-120280000D03*
X122860000Y-118480000D03*
D20*
X120260000Y-119380000D03*
X128660000Y-119380000D03*
D14*
X103080820Y-103632000D03*
X100881180Y-102679500D03*
X100881180Y-104584500D03*
X183050180Y-106680000D03*
X185249820Y-107632500D03*
X185249820Y-105727500D03*
X129369820Y-104394000D03*
X127170180Y-103441500D03*
X127170180Y-105346500D03*
D21*
X128270000Y-115587780D03*
X128270000Y-111488220D03*
D22*
X112649000Y-91516200D03*
X111379000Y-91516200D03*
X110109000Y-91516200D03*
X108839000Y-91516200D03*
X108839000Y-86283800D03*
X110109000Y-86283800D03*
X111379000Y-86283800D03*
X112649000Y-86283800D03*
D23*
X121666000Y-71628000D03*
X119126000Y-71628000D03*
X116586000Y-71628000D03*
D24*
X153924000Y-114554000D03*
D25*
X156464000Y-114554000D03*
D24*
X106680000Y-110490000D03*
D25*
X106680000Y-107950000D03*
D24*
X149860000Y-76962000D03*
D25*
X149860000Y-79502000D03*
D23*
X176530000Y-83312000D03*
D26*
X176530000Y-80772000D03*
X179070000Y-83312000D03*
X179070000Y-80772000D03*
X181610000Y-83312000D03*
X181610000Y-80772000D03*
D27*
X149860000Y-71628000D03*
D28*
X147320000Y-71628000D03*
X144780000Y-71628000D03*
X142240000Y-71628000D03*
X139700000Y-71628000D03*
X137160000Y-71628000D03*
X134620000Y-71628000D03*
X132080000Y-71628000D03*
X129540000Y-71628000D03*
X127000000Y-71628000D03*
D27*
X171704000Y-71628000D03*
D28*
X169164000Y-71628000D03*
X166624000Y-71628000D03*
X164084000Y-71628000D03*
X161544000Y-71628000D03*
X159004000Y-71628000D03*
X156464000Y-71628000D03*
X153924000Y-71628000D03*
D27*
X136144000Y-119888000D03*
D28*
X138684000Y-119888000D03*
X141224000Y-119888000D03*
X143764000Y-119888000D03*
X146304000Y-119888000D03*
X148844000Y-119888000D03*
X151384000Y-119888000D03*
X153924000Y-119888000D03*
D27*
X159004000Y-119888000D03*
D28*
X161544000Y-119888000D03*
X164084000Y-119888000D03*
X166624000Y-119888000D03*
X169164000Y-119888000D03*
X171704000Y-119888000D03*
D29*
X106680000Y-100965000D03*
X106680000Y-98425000D03*
X106680000Y-95885000D03*
X106680000Y-93345000D03*
X106680000Y-90805000D03*
X106680000Y-88265000D03*
X106680000Y-85725000D03*
X106680000Y-83185000D03*
D14*
X127932180Y-98552000D03*
X130131820Y-99504500D03*
X130131820Y-97599500D03*
D16*
X114554000Y-87866220D03*
X114554000Y-85869780D03*
X114554000Y-91930220D03*
X114554000Y-89933780D03*
D15*
X111269780Y-71628000D03*
X113266220Y-71628000D03*
X100601780Y-87630000D03*
X102598220Y-87630000D03*
X100601780Y-83820000D03*
X102598220Y-83820000D03*
X112758220Y-76835000D03*
X110761780Y-76835000D03*
X120378220Y-76835000D03*
X118381780Y-76835000D03*
X127998220Y-76835000D03*
X126001780Y-76835000D03*
X135618220Y-76835000D03*
X133621780Y-76835000D03*
D16*
X119380000Y-83075780D03*
X119380000Y-85072220D03*
D15*
X131843780Y-81026000D03*
X133840220Y-81026000D03*
X124477780Y-93218000D03*
X126474220Y-93218000D03*
X119397780Y-93218000D03*
X121394220Y-93218000D03*
X116857780Y-88646000D03*
X118854220Y-88646000D03*
X121937780Y-83058000D03*
X123934220Y-83058000D03*
X127017780Y-88646000D03*
X129014220Y-88646000D03*
X121937780Y-88646000D03*
X123934220Y-88646000D03*
X161942780Y-91440000D03*
X163939220Y-91440000D03*
D16*
X168148000Y-81262220D03*
X168148000Y-79265780D03*
X170180000Y-111234220D03*
X170180000Y-109237780D03*
X172212000Y-109237780D03*
X172212000Y-111234220D03*
D15*
X179306220Y-106680000D03*
X177309780Y-106680000D03*
X179306220Y-110490000D03*
X177309780Y-110490000D03*
X100601780Y-80010000D03*
X102598220Y-80010000D03*
D16*
X143256000Y-78722220D03*
X143256000Y-76725780D03*
X158242000Y-81262220D03*
X158242000Y-79265780D03*
D30*
X114300000Y-109728000D03*
X114300000Y-111728000D03*
X114300000Y-113728000D03*
X114300000Y-107728000D03*
X114300000Y-105728000D03*
X123190000Y-109728000D03*
X123190000Y-111728000D03*
X123190000Y-113728000D03*
X123190000Y-107728000D03*
X123190000Y-105728000D03*
X132080000Y-109728000D03*
X132080000Y-107728000D03*
X132080000Y-105728000D03*
X132080000Y-111728000D03*
X132080000Y-113728000D03*
D31*
X166014400Y-83388200D03*
X166014400Y-76885800D03*
X170535600Y-83388200D03*
X170535600Y-76885800D03*
X155854400Y-83388200D03*
X155854400Y-76885800D03*
X160375600Y-83388200D03*
X160375600Y-76885800D03*
D30*
X121920000Y-90932000D03*
X119380000Y-90932000D03*
X116840000Y-90932000D03*
X124460000Y-90932000D03*
X127000000Y-90932000D03*
X129540000Y-90932000D03*
X129540000Y-80772000D03*
X127000000Y-80772000D03*
X124460000Y-80772000D03*
X121920000Y-80772000D03*
X119380000Y-80772000D03*
X116840000Y-80772000D03*
D16*
X172212000Y-113555780D03*
X172212000Y-115552220D03*
D15*
X170162220Y-113284000D03*
X168165780Y-113284000D03*
D32*
X173228000Y-85808820D03*
X173228000Y-80307180D03*
D33*
X100838000Y-108221780D03*
X100838000Y-110218220D03*
D16*
X156464000Y-119905780D03*
X156464000Y-121902220D03*
D34*
X141478000Y-105537000D03*
X141478000Y-104267000D03*
X141478000Y-102997000D03*
X141478000Y-101727000D03*
X141478000Y-100457000D03*
X141478000Y-99187000D03*
X141478000Y-97917000D03*
X141478000Y-96647000D03*
X151638000Y-96647000D03*
X151638000Y-97917000D03*
X151638000Y-99187000D03*
X151638000Y-100457000D03*
X151638000Y-101727000D03*
X151638000Y-102997000D03*
X151638000Y-104267000D03*
X151638000Y-105537000D03*
X141478000Y-91567000D03*
X141478000Y-90297000D03*
X141478000Y-89027000D03*
X141478000Y-87757000D03*
X141478000Y-86487000D03*
X141478000Y-85217000D03*
X141478000Y-83947000D03*
X141478000Y-82677000D03*
X151638000Y-82677000D03*
X151638000Y-83947000D03*
X151638000Y-85217000D03*
X151638000Y-86487000D03*
X151638000Y-87757000D03*
X151638000Y-89027000D03*
X151638000Y-90297000D03*
X151638000Y-91567000D03*
M02*
