G04 #@! TF.FileFunction,Soldermask,Top*
%FSLAX46Y46*%
G04 Gerber Fmt 4.6, Leading zero omitted, Abs format (unit mm)*
G04 Created by KiCad (PCBNEW (2015-06-26 BZR 5832)-product) date Samstag, 01. August 2015 00:29:42*
%MOMM*%
G01*
G04 APERTURE LIST*
%ADD10C,0.150000*%
%ADD11O,1.300000X1.450000*%
%ADD12O,1.800000X1.400000*%
%ADD13R,1.399540X1.099820*%
%ADD14R,1.099820X1.399540*%
%ADD15C,3.302000*%
%ADD16C,1.587500*%
%ADD17C,1.300000*%
%ADD18C,3.200000*%
%ADD19R,1.198880X1.198880*%
%ADD20R,0.609600X2.207260*%
%ADD21C,1.727200*%
%ADD22C,2.032000*%
%ADD23O,2.032000X2.032000*%
%ADD24C,1.422400*%
%ADD25O,1.727200X1.727200*%
%ADD26R,1.727200X2.032000*%
%ADD27O,1.727200X2.032000*%
%ADD28C,1.524000*%
%ADD29R,0.800100X1.000760*%
%ADD30R,1.597660X1.800860*%
%ADD31C,1.500000*%
%ADD32C,1.879600*%
%ADD33R,1.000760X0.800100*%
%ADD34R,0.406400X1.524000*%
%ADD35R,1.524000X0.406400*%
%ADD36R,5.334000X1.930400*%
%ADD37R,0.450000X1.100000*%
G04 APERTURE END LIST*
D10*
D11*
X101379000Y-93258000D03*
X101379000Y-98258000D03*
D12*
X98679000Y-92258000D03*
X98679000Y-99258000D03*
D13*
X125476000Y-101582220D03*
X125476000Y-99585780D03*
X125476000Y-95521780D03*
X125476000Y-97518220D03*
X156464000Y-107205780D03*
X156464000Y-109202220D03*
D14*
X136415780Y-104902000D03*
X138412220Y-104902000D03*
X136415780Y-110490000D03*
X138412220Y-110490000D03*
D13*
X168656000Y-107205780D03*
X168656000Y-109202220D03*
D15*
X179070000Y-89154000D03*
X179070000Y-102362000D03*
D16*
X179197000Y-94043500D03*
X179197000Y-97472500D03*
X176403000Y-94742000D03*
X176403000Y-92202000D03*
X176403000Y-96774000D03*
X176403000Y-99314000D03*
D17*
X126060000Y-118480000D03*
X125260000Y-120280000D03*
X124460000Y-118480000D03*
X123660000Y-120280000D03*
X122860000Y-118480000D03*
D18*
X120260000Y-119380000D03*
X128660000Y-119380000D03*
D19*
X100550980Y-87630000D03*
X102649020Y-87630000D03*
X100550980Y-83820000D03*
X102649020Y-83820000D03*
X110710980Y-76835000D03*
X112809020Y-76835000D03*
X118330980Y-76835000D03*
X120429020Y-76835000D03*
X125950980Y-76835000D03*
X128049020Y-76835000D03*
X133570980Y-76835000D03*
X135669020Y-76835000D03*
X179357020Y-106680000D03*
X177258980Y-106680000D03*
X179357020Y-110490000D03*
X177258980Y-110490000D03*
X100550980Y-80010000D03*
X102649020Y-80010000D03*
X143256000Y-78773020D03*
X143256000Y-76674980D03*
D20*
X117221000Y-95935800D03*
X115951000Y-95935800D03*
X114681000Y-95935800D03*
X113411000Y-95935800D03*
X113411000Y-101168200D03*
X114681000Y-101168200D03*
X115951000Y-101168200D03*
X117221000Y-101168200D03*
X131445000Y-95935800D03*
X130175000Y-95935800D03*
X128905000Y-95935800D03*
X127635000Y-95935800D03*
X127635000Y-101168200D03*
X128905000Y-101168200D03*
X130175000Y-101168200D03*
X131445000Y-101168200D03*
D21*
X121666000Y-71628000D03*
X119126000Y-71628000D03*
X116586000Y-71628000D03*
D22*
X153924000Y-114554000D03*
D23*
X156464000Y-114554000D03*
D22*
X106680000Y-110490000D03*
D23*
X106680000Y-107950000D03*
D22*
X149860000Y-76962000D03*
D23*
X149860000Y-79502000D03*
D13*
X171704000Y-107205780D03*
X171704000Y-109202220D03*
D24*
X112758220Y-119380000D03*
X110761780Y-119380000D03*
D21*
X176530000Y-83312000D03*
D25*
X176530000Y-80772000D03*
X179070000Y-83312000D03*
X179070000Y-80772000D03*
X181610000Y-83312000D03*
X181610000Y-80772000D03*
D26*
X149860000Y-71628000D03*
D27*
X147320000Y-71628000D03*
X144780000Y-71628000D03*
X142240000Y-71628000D03*
X139700000Y-71628000D03*
X137160000Y-71628000D03*
X134620000Y-71628000D03*
X132080000Y-71628000D03*
X129540000Y-71628000D03*
X127000000Y-71628000D03*
D26*
X171704000Y-71628000D03*
D27*
X169164000Y-71628000D03*
X166624000Y-71628000D03*
X164084000Y-71628000D03*
X161544000Y-71628000D03*
X159004000Y-71628000D03*
X156464000Y-71628000D03*
X153924000Y-71628000D03*
D26*
X136144000Y-119888000D03*
D27*
X138684000Y-119888000D03*
X141224000Y-119888000D03*
X143764000Y-119888000D03*
X146304000Y-119888000D03*
X148844000Y-119888000D03*
X151384000Y-119888000D03*
X153924000Y-119888000D03*
D26*
X159004000Y-119888000D03*
D27*
X161544000Y-119888000D03*
X164084000Y-119888000D03*
X166624000Y-119888000D03*
X169164000Y-119888000D03*
X171704000Y-119888000D03*
D28*
X106680000Y-100965000D03*
X106680000Y-98425000D03*
X106680000Y-95885000D03*
X106680000Y-93345000D03*
X106680000Y-90805000D03*
X106680000Y-88265000D03*
X106680000Y-85725000D03*
X106680000Y-83185000D03*
D29*
X110236000Y-97365820D03*
X109283500Y-95166180D03*
X111188500Y-95166180D03*
X110236000Y-99484180D03*
X111188500Y-101683820D03*
X109283500Y-101683820D03*
X136144000Y-97619820D03*
X135191500Y-95420180D03*
X137096500Y-95420180D03*
X136144000Y-99484180D03*
X137096500Y-101683820D03*
X135191500Y-101683820D03*
D13*
X133350000Y-99550220D03*
X133350000Y-97553780D03*
D14*
X183151780Y-95758000D03*
X185148220Y-95758000D03*
X185148220Y-89916000D03*
X183151780Y-89916000D03*
X183151780Y-98806000D03*
X185148220Y-98806000D03*
X183151780Y-92710000D03*
X185148220Y-92710000D03*
X183151780Y-101600000D03*
X185148220Y-101600000D03*
D13*
X149860000Y-111488220D03*
X149860000Y-109491780D03*
X141478000Y-111488220D03*
X141478000Y-109491780D03*
D30*
X144249140Y-114554000D03*
X147088860Y-114554000D03*
D13*
X153416000Y-109202220D03*
X153416000Y-107205780D03*
D31*
X114300000Y-109728000D03*
X114300000Y-111728000D03*
X114300000Y-113728000D03*
X114300000Y-107728000D03*
X114300000Y-105728000D03*
X123190000Y-109728000D03*
X123190000Y-111728000D03*
X123190000Y-113728000D03*
X123190000Y-107728000D03*
X123190000Y-105728000D03*
X132080000Y-109728000D03*
X132080000Y-107728000D03*
X132080000Y-105728000D03*
X132080000Y-111728000D03*
X132080000Y-113728000D03*
D32*
X166014400Y-83388200D03*
X166014400Y-76885800D03*
X170535600Y-83388200D03*
X170535600Y-76885800D03*
X155854400Y-83388200D03*
X155854400Y-76885800D03*
X160375600Y-83388200D03*
X160375600Y-76885800D03*
D31*
X121920000Y-90932000D03*
X119380000Y-90932000D03*
X116840000Y-90932000D03*
X124460000Y-90932000D03*
X127000000Y-90932000D03*
X129540000Y-90932000D03*
X129540000Y-80772000D03*
X127000000Y-80772000D03*
X124460000Y-80772000D03*
X121920000Y-80772000D03*
X119380000Y-80772000D03*
X116840000Y-80772000D03*
D20*
X119761000Y-101168200D03*
X121031000Y-101168200D03*
X122301000Y-101168200D03*
X123571000Y-101168200D03*
X123571000Y-95935800D03*
X122301000Y-95935800D03*
X121031000Y-95935800D03*
X119761000Y-95935800D03*
D33*
X138513820Y-107696000D03*
X136314180Y-108648500D03*
X136314180Y-106743500D03*
D34*
X162560000Y-106680000D03*
X163360100Y-106680000D03*
X164160200Y-106680000D03*
X164960300Y-106680000D03*
X165760400Y-106680000D03*
X166560500Y-106680000D03*
X161759900Y-106680000D03*
X160959800Y-106680000D03*
X160159700Y-106680000D03*
X159359600Y-106680000D03*
X158559500Y-106680000D03*
X162560000Y-95250000D03*
X163360100Y-95250000D03*
X164160200Y-95250000D03*
X164960300Y-95250000D03*
X165760400Y-95250000D03*
X166560500Y-95250000D03*
X161759900Y-95250000D03*
X160959800Y-95250000D03*
X160159700Y-95250000D03*
X159359600Y-95250000D03*
X158559500Y-95250000D03*
D35*
X168275000Y-100965000D03*
X156845000Y-100965000D03*
X168275000Y-100164900D03*
X156845000Y-100164900D03*
X156845000Y-99364800D03*
X168275000Y-99364800D03*
X168275000Y-98564700D03*
X156845000Y-98564700D03*
X156845000Y-97764600D03*
X168275000Y-97764600D03*
X168275000Y-96964500D03*
X156845000Y-96964500D03*
X156845000Y-101765100D03*
X168275000Y-101765100D03*
X168275000Y-102565200D03*
X156845000Y-102565200D03*
X156845000Y-103365300D03*
X168275000Y-103365300D03*
X168275000Y-104165400D03*
X156845000Y-104165400D03*
X156845000Y-104965500D03*
X168275000Y-104965500D03*
D36*
X167767000Y-88138000D03*
X158115000Y-88138000D03*
D37*
X144694000Y-111790000D03*
X145344000Y-111790000D03*
X145994000Y-111790000D03*
X146644000Y-111790000D03*
X146644000Y-109190000D03*
X145994000Y-109190000D03*
X145344000Y-109190000D03*
X144694000Y-109190000D03*
M02*
