G04 #@! TF.FileFunction,Legend,Bot*
%FSLAX46Y46*%
G04 Gerber Fmt 4.6, Leading zero omitted, Abs format (unit mm)*
G04 Created by KiCad (PCBNEW (2015-06-26 BZR 5832)-product) date Samstag, 01. August 2015 00:29:41*
%MOMM*%
G01*
G04 APERTURE LIST*
%ADD10C,0.150000*%
%ADD11C,0.177800*%
%ADD12C,0.078740*%
%ADD13C,0.066040*%
%ADD14C,0.152400*%
%ADD15C,0.050800*%
%ADD16C,0.127000*%
%ADD17C,0.101600*%
%ADD18C,0.381000*%
%ADD19C,0.088900*%
%ADD20C,0.089000*%
G04 APERTURE END LIST*
D10*
D11*
X161271855Y-74373619D02*
X161271855Y-73357619D01*
X160884808Y-73357619D01*
X160788046Y-73406000D01*
X160739665Y-73454381D01*
X160691284Y-73551143D01*
X160691284Y-73696286D01*
X160739665Y-73793048D01*
X160788046Y-73841429D01*
X160884808Y-73889810D01*
X161271855Y-73889810D01*
X159820427Y-74373619D02*
X159820427Y-73841429D01*
X159868808Y-73744667D01*
X159965570Y-73696286D01*
X160159093Y-73696286D01*
X160255855Y-73744667D01*
X159820427Y-74325238D02*
X159917189Y-74373619D01*
X160159093Y-74373619D01*
X160255855Y-74325238D01*
X160304236Y-74228476D01*
X160304236Y-74131714D01*
X160255855Y-74034952D01*
X160159093Y-73986571D01*
X159917189Y-73986571D01*
X159820427Y-73938190D01*
X159384998Y-74325238D02*
X159288236Y-74373619D01*
X159094712Y-74373619D01*
X158997951Y-74325238D01*
X158949570Y-74228476D01*
X158949570Y-74180095D01*
X158997951Y-74083333D01*
X159094712Y-74034952D01*
X159239855Y-74034952D01*
X159336617Y-73986571D01*
X159384998Y-73889810D01*
X159384998Y-73841429D01*
X159336617Y-73744667D01*
X159239855Y-73696286D01*
X159094712Y-73696286D01*
X158997951Y-73744667D01*
X158078713Y-74325238D02*
X158175475Y-74373619D01*
X158368998Y-74373619D01*
X158465760Y-74325238D01*
X158514141Y-74276857D01*
X158562522Y-74180095D01*
X158562522Y-73889810D01*
X158514141Y-73793048D01*
X158465760Y-73744667D01*
X158368998Y-73696286D01*
X158175475Y-73696286D01*
X158078713Y-73744667D01*
X157207856Y-74373619D02*
X157207856Y-73841429D01*
X157256237Y-73744667D01*
X157352999Y-73696286D01*
X157546522Y-73696286D01*
X157643284Y-73744667D01*
X157207856Y-74325238D02*
X157304618Y-74373619D01*
X157546522Y-74373619D01*
X157643284Y-74325238D01*
X157691665Y-74228476D01*
X157691665Y-74131714D01*
X157643284Y-74034952D01*
X157546522Y-73986571D01*
X157304618Y-73986571D01*
X157207856Y-73938190D01*
X156578903Y-74373619D02*
X156675665Y-74325238D01*
X156724046Y-74228476D01*
X156724046Y-73357619D01*
X155079095Y-73841429D02*
X155417761Y-73841429D01*
X155417761Y-74373619D02*
X155417761Y-73357619D01*
X154933952Y-73357619D01*
X154546904Y-74373619D02*
X154546904Y-73696286D01*
X154546904Y-73889810D02*
X154498523Y-73793048D01*
X154450142Y-73744667D01*
X154353380Y-73696286D01*
X154256619Y-73696286D01*
X153530905Y-74325238D02*
X153627667Y-74373619D01*
X153821190Y-74373619D01*
X153917952Y-74325238D01*
X153966333Y-74228476D01*
X153966333Y-73841429D01*
X153917952Y-73744667D01*
X153821190Y-73696286D01*
X153627667Y-73696286D01*
X153530905Y-73744667D01*
X153482524Y-73841429D01*
X153482524Y-73938190D01*
X153966333Y-74034952D01*
X153047095Y-74373619D02*
X153047095Y-73357619D01*
X152611667Y-74373619D02*
X152611667Y-73841429D01*
X152660048Y-73744667D01*
X152756810Y-73696286D01*
X152901952Y-73696286D01*
X152998714Y-73744667D01*
X153047095Y-73793048D01*
X152127857Y-73696286D02*
X152127857Y-74373619D01*
X152127857Y-73793048D02*
X152079476Y-73744667D01*
X151982714Y-73696286D01*
X151837572Y-73696286D01*
X151740810Y-73744667D01*
X151692429Y-73841429D01*
X151692429Y-74373619D01*
X150821572Y-74325238D02*
X150918334Y-74373619D01*
X151111857Y-74373619D01*
X151208619Y-74325238D01*
X151257000Y-74228476D01*
X151257000Y-73841429D01*
X151208619Y-73744667D01*
X151111857Y-73696286D01*
X150918334Y-73696286D01*
X150821572Y-73744667D01*
X150773191Y-73841429D01*
X150773191Y-73938190D01*
X151257000Y-74034952D01*
X150337762Y-74373619D02*
X150337762Y-73696286D01*
X150337762Y-73889810D02*
X150289381Y-73793048D01*
X150241000Y-73744667D01*
X150144238Y-73696286D01*
X150047477Y-73696286D01*
X149660429Y-74325238D02*
X149660429Y-74373619D01*
X149708810Y-74470381D01*
X149757191Y-74518762D01*
X146999477Y-73357619D02*
X146370525Y-73357619D01*
X146709191Y-73744667D01*
X146564049Y-73744667D01*
X146467287Y-73793048D01*
X146418906Y-73841429D01*
X146370525Y-73938190D01*
X146370525Y-74180095D01*
X146418906Y-74276857D01*
X146467287Y-74325238D01*
X146564049Y-74373619D01*
X146854334Y-74373619D01*
X146951096Y-74325238D01*
X146999477Y-74276857D01*
X145402906Y-74373619D02*
X145983477Y-74373619D01*
X145693191Y-74373619D02*
X145693191Y-73357619D01*
X145789953Y-73502762D01*
X145886715Y-73599524D01*
X145983477Y-73647905D01*
X144967477Y-74276857D02*
X144919096Y-74325238D01*
X144967477Y-74373619D01*
X145015858Y-74325238D01*
X144967477Y-74276857D01*
X144967477Y-74373619D01*
X144290143Y-73357619D02*
X144193382Y-73357619D01*
X144096620Y-73406000D01*
X144048239Y-73454381D01*
X143999858Y-73551143D01*
X143951477Y-73744667D01*
X143951477Y-73986571D01*
X143999858Y-74180095D01*
X144048239Y-74276857D01*
X144096620Y-74325238D01*
X144193382Y-74373619D01*
X144290143Y-74373619D01*
X144386905Y-74325238D01*
X144435286Y-74276857D01*
X144483667Y-74180095D01*
X144532048Y-73986571D01*
X144532048Y-73744667D01*
X144483667Y-73551143D01*
X144435286Y-73454381D01*
X144386905Y-73406000D01*
X144290143Y-73357619D01*
X143612810Y-73357619D02*
X142935477Y-73357619D01*
X143370905Y-74373619D01*
X142548429Y-74276857D02*
X142500048Y-74325238D01*
X142548429Y-74373619D01*
X142596810Y-74325238D01*
X142548429Y-74276857D01*
X142548429Y-74373619D01*
X141532429Y-74373619D02*
X142113000Y-74373619D01*
X141822714Y-74373619D02*
X141822714Y-73357619D01*
X141919476Y-73502762D01*
X142016238Y-73599524D01*
X142113000Y-73647905D01*
X140613191Y-73357619D02*
X141097000Y-73357619D01*
X141145381Y-73841429D01*
X141097000Y-73793048D01*
X141000238Y-73744667D01*
X140758334Y-73744667D01*
X140661572Y-73793048D01*
X140613191Y-73841429D01*
X140564810Y-73938190D01*
X140564810Y-74180095D01*
X140613191Y-74276857D01*
X140661572Y-74325238D01*
X140758334Y-74373619D01*
X141000238Y-74373619D01*
X141097000Y-74325238D01*
X141145381Y-74276857D01*
X140081000Y-74325238D02*
X140081000Y-74373619D01*
X140129381Y-74470381D01*
X140177762Y-74518762D01*
X136549191Y-74373619D02*
X136549191Y-73357619D01*
X136162144Y-73357619D01*
X136065382Y-73406000D01*
X136017001Y-73454381D01*
X135968620Y-73551143D01*
X135968620Y-73696286D01*
X136017001Y-73793048D01*
X136065382Y-73841429D01*
X136162144Y-73889810D01*
X136549191Y-73889810D01*
X135388048Y-74373619D02*
X135484810Y-74325238D01*
X135533191Y-74276857D01*
X135581572Y-74180095D01*
X135581572Y-73889810D01*
X135533191Y-73793048D01*
X135484810Y-73744667D01*
X135388048Y-73696286D01*
X135242906Y-73696286D01*
X135146144Y-73744667D01*
X135097763Y-73793048D01*
X135049382Y-73889810D01*
X135049382Y-74180095D01*
X135097763Y-74276857D01*
X135146144Y-74325238D01*
X135242906Y-74373619D01*
X135388048Y-74373619D01*
X134710715Y-73696286D02*
X134517191Y-74373619D01*
X134323668Y-73889810D01*
X134130144Y-74373619D01*
X133936620Y-73696286D01*
X133162525Y-74325238D02*
X133259287Y-74373619D01*
X133452810Y-74373619D01*
X133549572Y-74325238D01*
X133597953Y-74228476D01*
X133597953Y-73841429D01*
X133549572Y-73744667D01*
X133452810Y-73696286D01*
X133259287Y-73696286D01*
X133162525Y-73744667D01*
X133114144Y-73841429D01*
X133114144Y-73938190D01*
X133597953Y-74034952D01*
X132678715Y-74373619D02*
X132678715Y-73696286D01*
X132678715Y-73889810D02*
X132630334Y-73793048D01*
X132581953Y-73744667D01*
X132485191Y-73696286D01*
X132388430Y-73696286D01*
X130937002Y-73841429D02*
X130791859Y-73889810D01*
X130743478Y-73938190D01*
X130695097Y-74034952D01*
X130695097Y-74180095D01*
X130743478Y-74276857D01*
X130791859Y-74325238D01*
X130888621Y-74373619D01*
X131275668Y-74373619D01*
X131275668Y-73357619D01*
X130937002Y-73357619D01*
X130840240Y-73406000D01*
X130791859Y-73454381D01*
X130743478Y-73551143D01*
X130743478Y-73647905D01*
X130791859Y-73744667D01*
X130840240Y-73793048D01*
X130937002Y-73841429D01*
X131275668Y-73841429D01*
X130114525Y-74373619D02*
X130211287Y-74325238D01*
X130259668Y-74276857D01*
X130308049Y-74180095D01*
X130308049Y-73889810D01*
X130259668Y-73793048D01*
X130211287Y-73744667D01*
X130114525Y-73696286D01*
X129969383Y-73696286D01*
X129872621Y-73744667D01*
X129824240Y-73793048D01*
X129775859Y-73889810D01*
X129775859Y-74180095D01*
X129824240Y-74276857D01*
X129872621Y-74325238D01*
X129969383Y-74373619D01*
X130114525Y-74373619D01*
X129437192Y-74373619D02*
X128905002Y-73696286D01*
X129437192Y-73696286D02*
X128905002Y-74373619D01*
X128469573Y-74325238D02*
X128469573Y-74373619D01*
X128517954Y-74470381D01*
X128566335Y-74518762D01*
X126679478Y-74373619D02*
X127018144Y-73889810D01*
X127260049Y-74373619D02*
X127260049Y-73357619D01*
X126873002Y-73357619D01*
X126776240Y-73406000D01*
X126727859Y-73454381D01*
X126679478Y-73551143D01*
X126679478Y-73696286D01*
X126727859Y-73793048D01*
X126776240Y-73841429D01*
X126873002Y-73889810D01*
X127260049Y-73889810D01*
X125857002Y-74325238D02*
X125953764Y-74373619D01*
X126147287Y-74373619D01*
X126244049Y-74325238D01*
X126292430Y-74228476D01*
X126292430Y-73841429D01*
X126244049Y-73744667D01*
X126147287Y-73696286D01*
X125953764Y-73696286D01*
X125857002Y-73744667D01*
X125808621Y-73841429D01*
X125808621Y-73938190D01*
X126292430Y-74034952D01*
X125469954Y-73696286D02*
X125228049Y-74373619D01*
X124986145Y-73696286D01*
X124599097Y-74276857D02*
X124550716Y-74325238D01*
X124599097Y-74373619D01*
X124647478Y-74325238D01*
X124599097Y-74276857D01*
X124599097Y-74373619D01*
X123389573Y-74083333D02*
X122905764Y-74083333D01*
X123486335Y-74373619D02*
X123147668Y-73357619D01*
X122809002Y-74373619D01*
D12*
X107504550Y-105316020D02*
G75*
G03X107504550Y-105316020I-159070J0D01*
G01*
X108204000Y-102870000D02*
X107188000Y-102870000D01*
X108204000Y-105473500D02*
X107188000Y-105473500D01*
X107188000Y-102870000D02*
X107188000Y-105473500D01*
X108204000Y-105473500D02*
X108204000Y-102870000D01*
X110552550Y-115476020D02*
G75*
G03X110552550Y-115476020I-159070J0D01*
G01*
X111252000Y-113030000D02*
X110236000Y-113030000D01*
X111252000Y-115633500D02*
X110236000Y-115633500D01*
X110236000Y-113030000D02*
X110236000Y-115633500D01*
X111252000Y-115633500D02*
X111252000Y-113030000D01*
D13*
X101574600Y-101536500D02*
X100926900Y-101536500D01*
X100926900Y-101536500D02*
X100926900Y-100136960D01*
X101574600Y-100136960D02*
X100926900Y-100136960D01*
X101574600Y-101536500D02*
X101574600Y-100136960D01*
X103047800Y-101536500D02*
X102397560Y-101536500D01*
X102397560Y-101536500D02*
X102397560Y-100136960D01*
X103047800Y-100136960D02*
X102397560Y-100136960D01*
X103047800Y-101536500D02*
X103047800Y-100136960D01*
X102179120Y-101335840D02*
X101782880Y-101335840D01*
X101782880Y-101335840D02*
X101782880Y-100340160D01*
X102179120Y-100340160D02*
X101782880Y-100340160D01*
X102179120Y-101335840D02*
X102179120Y-100340160D01*
D14*
X102389940Y-100203000D02*
X101572060Y-100203000D01*
X102389940Y-101473000D02*
X101572060Y-101473000D01*
D15*
X103952040Y-99855020D02*
X100009960Y-99855020D01*
X100009960Y-99855020D02*
X100009960Y-101820980D01*
X100009960Y-101820980D02*
X103952040Y-101820980D01*
X103952040Y-101820980D02*
X103952040Y-99855020D01*
D13*
X184556400Y-109791500D02*
X185204100Y-109791500D01*
X185204100Y-109791500D02*
X185204100Y-111191040D01*
X184556400Y-111191040D02*
X185204100Y-111191040D01*
X184556400Y-109791500D02*
X184556400Y-111191040D01*
X183083200Y-109791500D02*
X183733440Y-109791500D01*
X183733440Y-109791500D02*
X183733440Y-111191040D01*
X183083200Y-111191040D02*
X183733440Y-111191040D01*
X183083200Y-109791500D02*
X183083200Y-111191040D01*
X183951880Y-109992160D02*
X184348120Y-109992160D01*
X184348120Y-109992160D02*
X184348120Y-110987840D01*
X183951880Y-110987840D02*
X184348120Y-110987840D01*
X183951880Y-109992160D02*
X183951880Y-110987840D01*
D14*
X183741060Y-111125000D02*
X184558940Y-111125000D01*
X183741060Y-109855000D02*
X184558940Y-109855000D01*
D15*
X182178960Y-111472980D02*
X186121040Y-111472980D01*
X186121040Y-111472980D02*
X186121040Y-109507020D01*
X186121040Y-109507020D02*
X182178960Y-109507020D01*
X182178960Y-109507020D02*
X182178960Y-111472980D01*
D13*
X169062400Y-90741500D02*
X169710100Y-90741500D01*
X169710100Y-90741500D02*
X169710100Y-92141040D01*
X169062400Y-92141040D02*
X169710100Y-92141040D01*
X169062400Y-90741500D02*
X169062400Y-92141040D01*
X167589200Y-90741500D02*
X168239440Y-90741500D01*
X168239440Y-90741500D02*
X168239440Y-92141040D01*
X167589200Y-92141040D02*
X168239440Y-92141040D01*
X167589200Y-90741500D02*
X167589200Y-92141040D01*
X168457880Y-90942160D02*
X168854120Y-90942160D01*
X168854120Y-90942160D02*
X168854120Y-91937840D01*
X168457880Y-91937840D02*
X168854120Y-91937840D01*
X168457880Y-90942160D02*
X168457880Y-91937840D01*
D14*
X168247060Y-92075000D02*
X169064940Y-92075000D01*
X168247060Y-90805000D02*
X169064940Y-90805000D01*
D15*
X166684960Y-92422980D02*
X170627040Y-92422980D01*
X170627040Y-92422980D02*
X170627040Y-90457020D01*
X170627040Y-90457020D02*
X166684960Y-90457020D01*
X166684960Y-90457020D02*
X166684960Y-92422980D01*
D13*
X156819600Y-92138500D02*
X156171900Y-92138500D01*
X156171900Y-92138500D02*
X156171900Y-90738960D01*
X156819600Y-90738960D02*
X156171900Y-90738960D01*
X156819600Y-92138500D02*
X156819600Y-90738960D01*
X158292800Y-92138500D02*
X157642560Y-92138500D01*
X157642560Y-92138500D02*
X157642560Y-90738960D01*
X158292800Y-90738960D02*
X157642560Y-90738960D01*
X158292800Y-92138500D02*
X158292800Y-90738960D01*
X157424120Y-91937840D02*
X157027880Y-91937840D01*
X157027880Y-91937840D02*
X157027880Y-90942160D01*
X157424120Y-90942160D02*
X157027880Y-90942160D01*
X157424120Y-91937840D02*
X157424120Y-90942160D01*
D14*
X157634940Y-90805000D02*
X156817060Y-90805000D01*
X157634940Y-92075000D02*
X156817060Y-92075000D01*
D15*
X159197040Y-90457020D02*
X155254960Y-90457020D01*
X155254960Y-90457020D02*
X155254960Y-92422980D01*
X155254960Y-92422980D02*
X159197040Y-92422980D01*
X159197040Y-92422980D02*
X159197040Y-90457020D01*
D13*
X127863600Y-109918500D02*
X127215900Y-109918500D01*
X127215900Y-109918500D02*
X127215900Y-108518960D01*
X127863600Y-108518960D02*
X127215900Y-108518960D01*
X127863600Y-109918500D02*
X127863600Y-108518960D01*
X129336800Y-109918500D02*
X128686560Y-109918500D01*
X128686560Y-109918500D02*
X128686560Y-108518960D01*
X129336800Y-108518960D02*
X128686560Y-108518960D01*
X129336800Y-109918500D02*
X129336800Y-108518960D01*
X128468120Y-109717840D02*
X128071880Y-109717840D01*
X128071880Y-109717840D02*
X128071880Y-108722160D01*
X128468120Y-108722160D02*
X128071880Y-108722160D01*
X128468120Y-109717840D02*
X128468120Y-108722160D01*
D14*
X128678940Y-108585000D02*
X127861060Y-108585000D01*
X128678940Y-109855000D02*
X127861060Y-109855000D01*
D15*
X130241040Y-108237020D02*
X126298960Y-108237020D01*
X126298960Y-108237020D02*
X126298960Y-110202980D01*
X126298960Y-110202980D02*
X130241040Y-110202980D01*
X130241040Y-110202980D02*
X130241040Y-108237020D01*
D13*
X127863600Y-107886500D02*
X127215900Y-107886500D01*
X127215900Y-107886500D02*
X127215900Y-106486960D01*
X127863600Y-106486960D02*
X127215900Y-106486960D01*
X127863600Y-107886500D02*
X127863600Y-106486960D01*
X129336800Y-107886500D02*
X128686560Y-107886500D01*
X128686560Y-107886500D02*
X128686560Y-106486960D01*
X129336800Y-106486960D02*
X128686560Y-106486960D01*
X129336800Y-107886500D02*
X129336800Y-106486960D01*
X128468120Y-107685840D02*
X128071880Y-107685840D01*
X128071880Y-107685840D02*
X128071880Y-106690160D01*
X128468120Y-106690160D02*
X128071880Y-106690160D01*
X128468120Y-107685840D02*
X128468120Y-106690160D01*
D14*
X128678940Y-106553000D02*
X127861060Y-106553000D01*
X128678940Y-107823000D02*
X127861060Y-107823000D01*
D15*
X130241040Y-106205020D02*
X126298960Y-106205020D01*
X126298960Y-106205020D02*
X126298960Y-108170980D01*
X126298960Y-108170980D02*
X130241040Y-108170980D01*
X130241040Y-108170980D02*
X130241040Y-106205020D01*
D13*
X171005500Y-98907600D02*
X171005500Y-98259900D01*
X171005500Y-98259900D02*
X172405040Y-98259900D01*
X172405040Y-98907600D02*
X172405040Y-98259900D01*
X171005500Y-98907600D02*
X172405040Y-98907600D01*
X171005500Y-100380800D02*
X171005500Y-99730560D01*
X171005500Y-99730560D02*
X172405040Y-99730560D01*
X172405040Y-100380800D02*
X172405040Y-99730560D01*
X171005500Y-100380800D02*
X172405040Y-100380800D01*
X171206160Y-99512120D02*
X171206160Y-99115880D01*
X171206160Y-99115880D02*
X172201840Y-99115880D01*
X172201840Y-99512120D02*
X172201840Y-99115880D01*
X171206160Y-99512120D02*
X172201840Y-99512120D01*
D14*
X172339000Y-99722940D02*
X172339000Y-98905060D01*
X171069000Y-99722940D02*
X171069000Y-98905060D01*
D15*
X172686980Y-101285040D02*
X172686980Y-97342960D01*
X172686980Y-97342960D02*
X170721020Y-97342960D01*
X170721020Y-97342960D02*
X170721020Y-101285040D01*
X170721020Y-101285040D02*
X172686980Y-101285040D01*
D13*
X163677600Y-110934500D02*
X163029900Y-110934500D01*
X163029900Y-110934500D02*
X163029900Y-109534960D01*
X163677600Y-109534960D02*
X163029900Y-109534960D01*
X163677600Y-110934500D02*
X163677600Y-109534960D01*
X165150800Y-110934500D02*
X164500560Y-110934500D01*
X164500560Y-110934500D02*
X164500560Y-109534960D01*
X165150800Y-109534960D02*
X164500560Y-109534960D01*
X165150800Y-110934500D02*
X165150800Y-109534960D01*
X164282120Y-110733840D02*
X163885880Y-110733840D01*
X163885880Y-110733840D02*
X163885880Y-109738160D01*
X164282120Y-109738160D02*
X163885880Y-109738160D01*
X164282120Y-110733840D02*
X164282120Y-109738160D01*
D14*
X164492940Y-109601000D02*
X163675060Y-109601000D01*
X164492940Y-110871000D02*
X163675060Y-110871000D01*
D15*
X166055040Y-109253020D02*
X162112960Y-109253020D01*
X162112960Y-109253020D02*
X162112960Y-111218980D01*
X162112960Y-111218980D02*
X166055040Y-111218980D01*
X166055040Y-111218980D02*
X166055040Y-109253020D01*
D10*
X177292000Y-88265000D02*
X174879000Y-88265000D01*
X174879000Y-88265000D02*
X174879000Y-103251000D01*
X174879000Y-103251000D02*
X177292000Y-103251000D01*
D12*
X101789550Y-104808020D02*
G75*
G03X101789550Y-104808020I-159070J0D01*
G01*
X102489000Y-102362000D02*
X101473000Y-102362000D01*
X102489000Y-104965500D02*
X101473000Y-104965500D01*
X101473000Y-102362000D02*
X101473000Y-104965500D01*
X102489000Y-104965500D02*
X102489000Y-102362000D01*
X184659590Y-105503980D02*
G75*
G03X184659590Y-105503980I-159070J0D01*
G01*
X183642000Y-107950000D02*
X184658000Y-107950000D01*
X183642000Y-105346500D02*
X184658000Y-105346500D01*
X184658000Y-107950000D02*
X184658000Y-105346500D01*
X183642000Y-105346500D02*
X183642000Y-107950000D01*
X128078550Y-105570020D02*
G75*
G03X128078550Y-105570020I-159070J0D01*
G01*
X128778000Y-103124000D02*
X127762000Y-103124000D01*
X128778000Y-105727500D02*
X127762000Y-105727500D01*
X127762000Y-103124000D02*
X127762000Y-105727500D01*
X128778000Y-105727500D02*
X128778000Y-103124000D01*
D16*
X126619000Y-115189000D02*
X129921000Y-115189000D01*
X126619000Y-111887000D02*
X129921000Y-111887000D01*
X126619000Y-111252000D02*
X129921000Y-111252000D01*
X129921000Y-111252000D02*
X129921000Y-115824000D01*
X129921000Y-115824000D02*
X126619000Y-115824000D01*
X126619000Y-115824000D02*
X126619000Y-111252000D01*
D13*
X112826800Y-91770200D02*
X112471200Y-91770200D01*
X112471200Y-91770200D02*
X112471200Y-90754200D01*
X112826800Y-90754200D02*
X112471200Y-90754200D01*
X112826800Y-91770200D02*
X112826800Y-90754200D01*
X111556800Y-91770200D02*
X111201200Y-91770200D01*
X111201200Y-91770200D02*
X111201200Y-90754200D01*
X111556800Y-90754200D02*
X111201200Y-90754200D01*
X111556800Y-91770200D02*
X111556800Y-90754200D01*
X110286800Y-91770200D02*
X109931200Y-91770200D01*
X109931200Y-91770200D02*
X109931200Y-90754200D01*
X110286800Y-90754200D02*
X109931200Y-90754200D01*
X110286800Y-91770200D02*
X110286800Y-90754200D01*
X109016800Y-91770200D02*
X108661200Y-91770200D01*
X108661200Y-91770200D02*
X108661200Y-90754200D01*
X109016800Y-90754200D02*
X108661200Y-90754200D01*
X109016800Y-91770200D02*
X109016800Y-90754200D01*
X112826800Y-87045800D02*
X112471200Y-87045800D01*
X112471200Y-87045800D02*
X112471200Y-86029800D01*
X112826800Y-86029800D02*
X112471200Y-86029800D01*
X112826800Y-87045800D02*
X112826800Y-86029800D01*
X111556800Y-87045800D02*
X111201200Y-87045800D01*
X111201200Y-87045800D02*
X111201200Y-86029800D01*
X111556800Y-86029800D02*
X111201200Y-86029800D01*
X111556800Y-87045800D02*
X111556800Y-86029800D01*
X110286800Y-87045800D02*
X109931200Y-87045800D01*
X109931200Y-87045800D02*
X109931200Y-86029800D01*
X110286800Y-86029800D02*
X109931200Y-86029800D01*
X110286800Y-87045800D02*
X110286800Y-86029800D01*
X109016800Y-87045800D02*
X108661200Y-87045800D01*
X108661200Y-87045800D02*
X108661200Y-86029800D01*
X109016800Y-86029800D02*
X108661200Y-86029800D01*
X109016800Y-87045800D02*
X109016800Y-86029800D01*
D14*
X113103660Y-90700860D02*
X108384340Y-90700860D01*
X108384340Y-90700860D02*
X108384340Y-87099140D01*
X108384340Y-87099140D02*
X113103660Y-87099140D01*
X113103660Y-87099140D02*
X113103660Y-90700860D01*
D17*
X112645439Y-89890600D02*
G75*
G03X112645439Y-89890600I-100579J0D01*
G01*
D10*
X125730000Y-113919000D02*
X107950000Y-113919000D01*
X125730000Y-77597000D02*
X107950000Y-77597000D01*
X105410000Y-80137000D02*
G75*
G02X107950000Y-77597000I2540000J0D01*
G01*
X125730000Y-77597000D02*
G75*
G02X128270000Y-80137000I0J-2540000D01*
G01*
X107950000Y-113919000D02*
G75*
G02X105410000Y-111379000I0J2540000D01*
G01*
X128270000Y-111379000D02*
G75*
G02X125730000Y-113919000I-2540000J0D01*
G01*
X105410000Y-80137000D02*
X105410000Y-111252000D01*
X128270000Y-80137000D02*
X128270000Y-111379000D01*
D12*
X129541590Y-97375980D02*
G75*
G03X129541590Y-97375980I-159070J0D01*
G01*
X128524000Y-99822000D02*
X129540000Y-99822000D01*
X128524000Y-97218500D02*
X129540000Y-97218500D01*
X129540000Y-99822000D02*
X129540000Y-97218500D01*
X128524000Y-97218500D02*
X128524000Y-99822000D01*
D13*
X113855500Y-86461600D02*
X113855500Y-85813900D01*
X113855500Y-85813900D02*
X115255040Y-85813900D01*
X115255040Y-86461600D02*
X115255040Y-85813900D01*
X113855500Y-86461600D02*
X115255040Y-86461600D01*
X113855500Y-87934800D02*
X113855500Y-87284560D01*
X113855500Y-87284560D02*
X115255040Y-87284560D01*
X115255040Y-87934800D02*
X115255040Y-87284560D01*
X113855500Y-87934800D02*
X115255040Y-87934800D01*
X114056160Y-87066120D02*
X114056160Y-86669880D01*
X114056160Y-86669880D02*
X115051840Y-86669880D01*
X115051840Y-87066120D02*
X115051840Y-86669880D01*
X114056160Y-87066120D02*
X115051840Y-87066120D01*
D14*
X115189000Y-87276940D02*
X115189000Y-86459060D01*
X113919000Y-87276940D02*
X113919000Y-86459060D01*
D15*
X115536980Y-88839040D02*
X115536980Y-84896960D01*
X115536980Y-84896960D02*
X113571020Y-84896960D01*
X113571020Y-84896960D02*
X113571020Y-88839040D01*
X113571020Y-88839040D02*
X115536980Y-88839040D01*
D13*
X113855500Y-90525600D02*
X113855500Y-89877900D01*
X113855500Y-89877900D02*
X115255040Y-89877900D01*
X115255040Y-90525600D02*
X115255040Y-89877900D01*
X113855500Y-90525600D02*
X115255040Y-90525600D01*
X113855500Y-91998800D02*
X113855500Y-91348560D01*
X113855500Y-91348560D02*
X115255040Y-91348560D01*
X115255040Y-91998800D02*
X115255040Y-91348560D01*
X113855500Y-91998800D02*
X115255040Y-91998800D01*
X114056160Y-91130120D02*
X114056160Y-90733880D01*
X114056160Y-90733880D02*
X115051840Y-90733880D01*
X115051840Y-91130120D02*
X115051840Y-90733880D01*
X114056160Y-91130120D02*
X115051840Y-91130120D01*
D14*
X115189000Y-91340940D02*
X115189000Y-90523060D01*
X113919000Y-91340940D02*
X113919000Y-90523060D01*
D15*
X115536980Y-92903040D02*
X115536980Y-88960960D01*
X115536980Y-88960960D02*
X113571020Y-88960960D01*
X113571020Y-88960960D02*
X113571020Y-92903040D01*
X113571020Y-92903040D02*
X115536980Y-92903040D01*
D13*
X112674400Y-70929500D02*
X113322100Y-70929500D01*
X113322100Y-70929500D02*
X113322100Y-72329040D01*
X112674400Y-72329040D02*
X113322100Y-72329040D01*
X112674400Y-70929500D02*
X112674400Y-72329040D01*
X111201200Y-70929500D02*
X111851440Y-70929500D01*
X111851440Y-70929500D02*
X111851440Y-72329040D01*
X111201200Y-72329040D02*
X111851440Y-72329040D01*
X111201200Y-70929500D02*
X111201200Y-72329040D01*
X112069880Y-71130160D02*
X112466120Y-71130160D01*
X112466120Y-71130160D02*
X112466120Y-72125840D01*
X112069880Y-72125840D02*
X112466120Y-72125840D01*
X112069880Y-71130160D02*
X112069880Y-72125840D01*
D14*
X111859060Y-72263000D02*
X112676940Y-72263000D01*
X111859060Y-70993000D02*
X112676940Y-70993000D01*
D15*
X110296960Y-72610980D02*
X114239040Y-72610980D01*
X114239040Y-72610980D02*
X114239040Y-70645020D01*
X114239040Y-70645020D02*
X110296960Y-70645020D01*
X110296960Y-70645020D02*
X110296960Y-72610980D01*
D13*
X102006400Y-86931500D02*
X102654100Y-86931500D01*
X102654100Y-86931500D02*
X102654100Y-88331040D01*
X102006400Y-88331040D02*
X102654100Y-88331040D01*
X102006400Y-86931500D02*
X102006400Y-88331040D01*
X100533200Y-86931500D02*
X101183440Y-86931500D01*
X101183440Y-86931500D02*
X101183440Y-88331040D01*
X100533200Y-88331040D02*
X101183440Y-88331040D01*
X100533200Y-86931500D02*
X100533200Y-88331040D01*
X101401880Y-87132160D02*
X101798120Y-87132160D01*
X101798120Y-87132160D02*
X101798120Y-88127840D01*
X101401880Y-88127840D02*
X101798120Y-88127840D01*
X101401880Y-87132160D02*
X101401880Y-88127840D01*
D14*
X101191060Y-88265000D02*
X102008940Y-88265000D01*
X101191060Y-86995000D02*
X102008940Y-86995000D01*
D15*
X99628960Y-88612980D02*
X103571040Y-88612980D01*
X103571040Y-88612980D02*
X103571040Y-86647020D01*
X103571040Y-86647020D02*
X99628960Y-86647020D01*
X99628960Y-86647020D02*
X99628960Y-88612980D01*
D13*
X102006400Y-83121500D02*
X102654100Y-83121500D01*
X102654100Y-83121500D02*
X102654100Y-84521040D01*
X102006400Y-84521040D02*
X102654100Y-84521040D01*
X102006400Y-83121500D02*
X102006400Y-84521040D01*
X100533200Y-83121500D02*
X101183440Y-83121500D01*
X101183440Y-83121500D02*
X101183440Y-84521040D01*
X100533200Y-84521040D02*
X101183440Y-84521040D01*
X100533200Y-83121500D02*
X100533200Y-84521040D01*
X101401880Y-83322160D02*
X101798120Y-83322160D01*
X101798120Y-83322160D02*
X101798120Y-84317840D01*
X101401880Y-84317840D02*
X101798120Y-84317840D01*
X101401880Y-83322160D02*
X101401880Y-84317840D01*
D14*
X101191060Y-84455000D02*
X102008940Y-84455000D01*
X101191060Y-83185000D02*
X102008940Y-83185000D01*
D15*
X99628960Y-84802980D02*
X103571040Y-84802980D01*
X103571040Y-84802980D02*
X103571040Y-82837020D01*
X103571040Y-82837020D02*
X99628960Y-82837020D01*
X99628960Y-82837020D02*
X99628960Y-84802980D01*
D13*
X111353600Y-77533500D02*
X110705900Y-77533500D01*
X110705900Y-77533500D02*
X110705900Y-76133960D01*
X111353600Y-76133960D02*
X110705900Y-76133960D01*
X111353600Y-77533500D02*
X111353600Y-76133960D01*
X112826800Y-77533500D02*
X112176560Y-77533500D01*
X112176560Y-77533500D02*
X112176560Y-76133960D01*
X112826800Y-76133960D02*
X112176560Y-76133960D01*
X112826800Y-77533500D02*
X112826800Y-76133960D01*
X111958120Y-77332840D02*
X111561880Y-77332840D01*
X111561880Y-77332840D02*
X111561880Y-76337160D01*
X111958120Y-76337160D02*
X111561880Y-76337160D01*
X111958120Y-77332840D02*
X111958120Y-76337160D01*
D14*
X112168940Y-76200000D02*
X111351060Y-76200000D01*
X112168940Y-77470000D02*
X111351060Y-77470000D01*
D15*
X113731040Y-75852020D02*
X109788960Y-75852020D01*
X109788960Y-75852020D02*
X109788960Y-77817980D01*
X109788960Y-77817980D02*
X113731040Y-77817980D01*
X113731040Y-77817980D02*
X113731040Y-75852020D01*
D13*
X118973600Y-77533500D02*
X118325900Y-77533500D01*
X118325900Y-77533500D02*
X118325900Y-76133960D01*
X118973600Y-76133960D02*
X118325900Y-76133960D01*
X118973600Y-77533500D02*
X118973600Y-76133960D01*
X120446800Y-77533500D02*
X119796560Y-77533500D01*
X119796560Y-77533500D02*
X119796560Y-76133960D01*
X120446800Y-76133960D02*
X119796560Y-76133960D01*
X120446800Y-77533500D02*
X120446800Y-76133960D01*
X119578120Y-77332840D02*
X119181880Y-77332840D01*
X119181880Y-77332840D02*
X119181880Y-76337160D01*
X119578120Y-76337160D02*
X119181880Y-76337160D01*
X119578120Y-77332840D02*
X119578120Y-76337160D01*
D14*
X119788940Y-76200000D02*
X118971060Y-76200000D01*
X119788940Y-77470000D02*
X118971060Y-77470000D01*
D15*
X121351040Y-75852020D02*
X117408960Y-75852020D01*
X117408960Y-75852020D02*
X117408960Y-77817980D01*
X117408960Y-77817980D02*
X121351040Y-77817980D01*
X121351040Y-77817980D02*
X121351040Y-75852020D01*
D13*
X126593600Y-77533500D02*
X125945900Y-77533500D01*
X125945900Y-77533500D02*
X125945900Y-76133960D01*
X126593600Y-76133960D02*
X125945900Y-76133960D01*
X126593600Y-77533500D02*
X126593600Y-76133960D01*
X128066800Y-77533500D02*
X127416560Y-77533500D01*
X127416560Y-77533500D02*
X127416560Y-76133960D01*
X128066800Y-76133960D02*
X127416560Y-76133960D01*
X128066800Y-77533500D02*
X128066800Y-76133960D01*
X127198120Y-77332840D02*
X126801880Y-77332840D01*
X126801880Y-77332840D02*
X126801880Y-76337160D01*
X127198120Y-76337160D02*
X126801880Y-76337160D01*
X127198120Y-77332840D02*
X127198120Y-76337160D01*
D14*
X127408940Y-76200000D02*
X126591060Y-76200000D01*
X127408940Y-77470000D02*
X126591060Y-77470000D01*
D15*
X128971040Y-75852020D02*
X125028960Y-75852020D01*
X125028960Y-75852020D02*
X125028960Y-77817980D01*
X125028960Y-77817980D02*
X128971040Y-77817980D01*
X128971040Y-77817980D02*
X128971040Y-75852020D01*
D13*
X134213600Y-77533500D02*
X133565900Y-77533500D01*
X133565900Y-77533500D02*
X133565900Y-76133960D01*
X134213600Y-76133960D02*
X133565900Y-76133960D01*
X134213600Y-77533500D02*
X134213600Y-76133960D01*
X135686800Y-77533500D02*
X135036560Y-77533500D01*
X135036560Y-77533500D02*
X135036560Y-76133960D01*
X135686800Y-76133960D02*
X135036560Y-76133960D01*
X135686800Y-77533500D02*
X135686800Y-76133960D01*
X134818120Y-77332840D02*
X134421880Y-77332840D01*
X134421880Y-77332840D02*
X134421880Y-76337160D01*
X134818120Y-76337160D02*
X134421880Y-76337160D01*
X134818120Y-77332840D02*
X134818120Y-76337160D01*
D14*
X135028940Y-76200000D02*
X134211060Y-76200000D01*
X135028940Y-77470000D02*
X134211060Y-77470000D01*
D15*
X136591040Y-75852020D02*
X132648960Y-75852020D01*
X132648960Y-75852020D02*
X132648960Y-77817980D01*
X132648960Y-77817980D02*
X136591040Y-77817980D01*
X136591040Y-77817980D02*
X136591040Y-75852020D01*
D13*
X120078500Y-84480400D02*
X120078500Y-85128100D01*
X120078500Y-85128100D02*
X118678960Y-85128100D01*
X118678960Y-84480400D02*
X118678960Y-85128100D01*
X120078500Y-84480400D02*
X118678960Y-84480400D01*
X120078500Y-83007200D02*
X120078500Y-83657440D01*
X120078500Y-83657440D02*
X118678960Y-83657440D01*
X118678960Y-83007200D02*
X118678960Y-83657440D01*
X120078500Y-83007200D02*
X118678960Y-83007200D01*
X119877840Y-83875880D02*
X119877840Y-84272120D01*
X119877840Y-84272120D02*
X118882160Y-84272120D01*
X118882160Y-83875880D02*
X118882160Y-84272120D01*
X119877840Y-83875880D02*
X118882160Y-83875880D01*
D14*
X118745000Y-83665060D02*
X118745000Y-84482940D01*
X120015000Y-83665060D02*
X120015000Y-84482940D01*
D15*
X118397020Y-82102960D02*
X118397020Y-86045040D01*
X118397020Y-86045040D02*
X120362980Y-86045040D01*
X120362980Y-86045040D02*
X120362980Y-82102960D01*
X120362980Y-82102960D02*
X118397020Y-82102960D01*
D13*
X133248400Y-80327500D02*
X133896100Y-80327500D01*
X133896100Y-80327500D02*
X133896100Y-81727040D01*
X133248400Y-81727040D02*
X133896100Y-81727040D01*
X133248400Y-80327500D02*
X133248400Y-81727040D01*
X131775200Y-80327500D02*
X132425440Y-80327500D01*
X132425440Y-80327500D02*
X132425440Y-81727040D01*
X131775200Y-81727040D02*
X132425440Y-81727040D01*
X131775200Y-80327500D02*
X131775200Y-81727040D01*
X132643880Y-80528160D02*
X133040120Y-80528160D01*
X133040120Y-80528160D02*
X133040120Y-81523840D01*
X132643880Y-81523840D02*
X133040120Y-81523840D01*
X132643880Y-80528160D02*
X132643880Y-81523840D01*
D14*
X132433060Y-81661000D02*
X133250940Y-81661000D01*
X132433060Y-80391000D02*
X133250940Y-80391000D01*
D15*
X130870960Y-82008980D02*
X134813040Y-82008980D01*
X134813040Y-82008980D02*
X134813040Y-80043020D01*
X134813040Y-80043020D02*
X130870960Y-80043020D01*
X130870960Y-80043020D02*
X130870960Y-82008980D01*
D13*
X125882400Y-92519500D02*
X126530100Y-92519500D01*
X126530100Y-92519500D02*
X126530100Y-93919040D01*
X125882400Y-93919040D02*
X126530100Y-93919040D01*
X125882400Y-92519500D02*
X125882400Y-93919040D01*
X124409200Y-92519500D02*
X125059440Y-92519500D01*
X125059440Y-92519500D02*
X125059440Y-93919040D01*
X124409200Y-93919040D02*
X125059440Y-93919040D01*
X124409200Y-92519500D02*
X124409200Y-93919040D01*
X125277880Y-92720160D02*
X125674120Y-92720160D01*
X125674120Y-92720160D02*
X125674120Y-93715840D01*
X125277880Y-93715840D02*
X125674120Y-93715840D01*
X125277880Y-92720160D02*
X125277880Y-93715840D01*
D14*
X125067060Y-93853000D02*
X125884940Y-93853000D01*
X125067060Y-92583000D02*
X125884940Y-92583000D01*
D15*
X123504960Y-94200980D02*
X127447040Y-94200980D01*
X127447040Y-94200980D02*
X127447040Y-92235020D01*
X127447040Y-92235020D02*
X123504960Y-92235020D01*
X123504960Y-92235020D02*
X123504960Y-94200980D01*
D13*
X120802400Y-92519500D02*
X121450100Y-92519500D01*
X121450100Y-92519500D02*
X121450100Y-93919040D01*
X120802400Y-93919040D02*
X121450100Y-93919040D01*
X120802400Y-92519500D02*
X120802400Y-93919040D01*
X119329200Y-92519500D02*
X119979440Y-92519500D01*
X119979440Y-92519500D02*
X119979440Y-93919040D01*
X119329200Y-93919040D02*
X119979440Y-93919040D01*
X119329200Y-92519500D02*
X119329200Y-93919040D01*
X120197880Y-92720160D02*
X120594120Y-92720160D01*
X120594120Y-92720160D02*
X120594120Y-93715840D01*
X120197880Y-93715840D02*
X120594120Y-93715840D01*
X120197880Y-92720160D02*
X120197880Y-93715840D01*
D14*
X119987060Y-93853000D02*
X120804940Y-93853000D01*
X119987060Y-92583000D02*
X120804940Y-92583000D01*
D15*
X118424960Y-94200980D02*
X122367040Y-94200980D01*
X122367040Y-94200980D02*
X122367040Y-92235020D01*
X122367040Y-92235020D02*
X118424960Y-92235020D01*
X118424960Y-92235020D02*
X118424960Y-94200980D01*
D13*
X118262400Y-87947500D02*
X118910100Y-87947500D01*
X118910100Y-87947500D02*
X118910100Y-89347040D01*
X118262400Y-89347040D02*
X118910100Y-89347040D01*
X118262400Y-87947500D02*
X118262400Y-89347040D01*
X116789200Y-87947500D02*
X117439440Y-87947500D01*
X117439440Y-87947500D02*
X117439440Y-89347040D01*
X116789200Y-89347040D02*
X117439440Y-89347040D01*
X116789200Y-87947500D02*
X116789200Y-89347040D01*
X117657880Y-88148160D02*
X118054120Y-88148160D01*
X118054120Y-88148160D02*
X118054120Y-89143840D01*
X117657880Y-89143840D02*
X118054120Y-89143840D01*
X117657880Y-88148160D02*
X117657880Y-89143840D01*
D14*
X117447060Y-89281000D02*
X118264940Y-89281000D01*
X117447060Y-88011000D02*
X118264940Y-88011000D01*
D15*
X115884960Y-89628980D02*
X119827040Y-89628980D01*
X119827040Y-89628980D02*
X119827040Y-87663020D01*
X119827040Y-87663020D02*
X115884960Y-87663020D01*
X115884960Y-87663020D02*
X115884960Y-89628980D01*
D13*
X123342400Y-82359500D02*
X123990100Y-82359500D01*
X123990100Y-82359500D02*
X123990100Y-83759040D01*
X123342400Y-83759040D02*
X123990100Y-83759040D01*
X123342400Y-82359500D02*
X123342400Y-83759040D01*
X121869200Y-82359500D02*
X122519440Y-82359500D01*
X122519440Y-82359500D02*
X122519440Y-83759040D01*
X121869200Y-83759040D02*
X122519440Y-83759040D01*
X121869200Y-82359500D02*
X121869200Y-83759040D01*
X122737880Y-82560160D02*
X123134120Y-82560160D01*
X123134120Y-82560160D02*
X123134120Y-83555840D01*
X122737880Y-83555840D02*
X123134120Y-83555840D01*
X122737880Y-82560160D02*
X122737880Y-83555840D01*
D14*
X122527060Y-83693000D02*
X123344940Y-83693000D01*
X122527060Y-82423000D02*
X123344940Y-82423000D01*
D15*
X120964960Y-84040980D02*
X124907040Y-84040980D01*
X124907040Y-84040980D02*
X124907040Y-82075020D01*
X124907040Y-82075020D02*
X120964960Y-82075020D01*
X120964960Y-82075020D02*
X120964960Y-84040980D01*
D13*
X128422400Y-87947500D02*
X129070100Y-87947500D01*
X129070100Y-87947500D02*
X129070100Y-89347040D01*
X128422400Y-89347040D02*
X129070100Y-89347040D01*
X128422400Y-87947500D02*
X128422400Y-89347040D01*
X126949200Y-87947500D02*
X127599440Y-87947500D01*
X127599440Y-87947500D02*
X127599440Y-89347040D01*
X126949200Y-89347040D02*
X127599440Y-89347040D01*
X126949200Y-87947500D02*
X126949200Y-89347040D01*
X127817880Y-88148160D02*
X128214120Y-88148160D01*
X128214120Y-88148160D02*
X128214120Y-89143840D01*
X127817880Y-89143840D02*
X128214120Y-89143840D01*
X127817880Y-88148160D02*
X127817880Y-89143840D01*
D14*
X127607060Y-89281000D02*
X128424940Y-89281000D01*
X127607060Y-88011000D02*
X128424940Y-88011000D01*
D15*
X126044960Y-89628980D02*
X129987040Y-89628980D01*
X129987040Y-89628980D02*
X129987040Y-87663020D01*
X129987040Y-87663020D02*
X126044960Y-87663020D01*
X126044960Y-87663020D02*
X126044960Y-89628980D01*
D13*
X123342400Y-87947500D02*
X123990100Y-87947500D01*
X123990100Y-87947500D02*
X123990100Y-89347040D01*
X123342400Y-89347040D02*
X123990100Y-89347040D01*
X123342400Y-87947500D02*
X123342400Y-89347040D01*
X121869200Y-87947500D02*
X122519440Y-87947500D01*
X122519440Y-87947500D02*
X122519440Y-89347040D01*
X121869200Y-89347040D02*
X122519440Y-89347040D01*
X121869200Y-87947500D02*
X121869200Y-89347040D01*
X122737880Y-88148160D02*
X123134120Y-88148160D01*
X123134120Y-88148160D02*
X123134120Y-89143840D01*
X122737880Y-89143840D02*
X123134120Y-89143840D01*
X122737880Y-88148160D02*
X122737880Y-89143840D01*
D14*
X122527060Y-89281000D02*
X123344940Y-89281000D01*
X122527060Y-88011000D02*
X123344940Y-88011000D01*
D15*
X120964960Y-89628980D02*
X124907040Y-89628980D01*
X124907040Y-89628980D02*
X124907040Y-87663020D01*
X124907040Y-87663020D02*
X120964960Y-87663020D01*
X120964960Y-87663020D02*
X120964960Y-89628980D01*
D13*
X163347400Y-90741500D02*
X163995100Y-90741500D01*
X163995100Y-90741500D02*
X163995100Y-92141040D01*
X163347400Y-92141040D02*
X163995100Y-92141040D01*
X163347400Y-90741500D02*
X163347400Y-92141040D01*
X161874200Y-90741500D02*
X162524440Y-90741500D01*
X162524440Y-90741500D02*
X162524440Y-92141040D01*
X161874200Y-92141040D02*
X162524440Y-92141040D01*
X161874200Y-90741500D02*
X161874200Y-92141040D01*
X162742880Y-90942160D02*
X163139120Y-90942160D01*
X163139120Y-90942160D02*
X163139120Y-91937840D01*
X162742880Y-91937840D02*
X163139120Y-91937840D01*
X162742880Y-90942160D02*
X162742880Y-91937840D01*
D14*
X162532060Y-92075000D02*
X163349940Y-92075000D01*
X162532060Y-90805000D02*
X163349940Y-90805000D01*
D15*
X160969960Y-92422980D02*
X164912040Y-92422980D01*
X164912040Y-92422980D02*
X164912040Y-90457020D01*
X164912040Y-90457020D02*
X160969960Y-90457020D01*
X160969960Y-90457020D02*
X160969960Y-92422980D01*
D13*
X167449500Y-79857600D02*
X167449500Y-79209900D01*
X167449500Y-79209900D02*
X168849040Y-79209900D01*
X168849040Y-79857600D02*
X168849040Y-79209900D01*
X167449500Y-79857600D02*
X168849040Y-79857600D01*
X167449500Y-81330800D02*
X167449500Y-80680560D01*
X167449500Y-80680560D02*
X168849040Y-80680560D01*
X168849040Y-81330800D02*
X168849040Y-80680560D01*
X167449500Y-81330800D02*
X168849040Y-81330800D01*
X167650160Y-80462120D02*
X167650160Y-80065880D01*
X167650160Y-80065880D02*
X168645840Y-80065880D01*
X168645840Y-80462120D02*
X168645840Y-80065880D01*
X167650160Y-80462120D02*
X168645840Y-80462120D01*
D14*
X168783000Y-80672940D02*
X168783000Y-79855060D01*
X167513000Y-80672940D02*
X167513000Y-79855060D01*
D15*
X169130980Y-82235040D02*
X169130980Y-78292960D01*
X169130980Y-78292960D02*
X167165020Y-78292960D01*
X167165020Y-78292960D02*
X167165020Y-82235040D01*
X167165020Y-82235040D02*
X169130980Y-82235040D01*
D13*
X169481500Y-109829600D02*
X169481500Y-109181900D01*
X169481500Y-109181900D02*
X170881040Y-109181900D01*
X170881040Y-109829600D02*
X170881040Y-109181900D01*
X169481500Y-109829600D02*
X170881040Y-109829600D01*
X169481500Y-111302800D02*
X169481500Y-110652560D01*
X169481500Y-110652560D02*
X170881040Y-110652560D01*
X170881040Y-111302800D02*
X170881040Y-110652560D01*
X169481500Y-111302800D02*
X170881040Y-111302800D01*
X169682160Y-110434120D02*
X169682160Y-110037880D01*
X169682160Y-110037880D02*
X170677840Y-110037880D01*
X170677840Y-110434120D02*
X170677840Y-110037880D01*
X169682160Y-110434120D02*
X170677840Y-110434120D01*
D14*
X170815000Y-110644940D02*
X170815000Y-109827060D01*
X169545000Y-110644940D02*
X169545000Y-109827060D01*
D15*
X171162980Y-112207040D02*
X171162980Y-108264960D01*
X171162980Y-108264960D02*
X169197020Y-108264960D01*
X169197020Y-108264960D02*
X169197020Y-112207040D01*
X169197020Y-112207040D02*
X171162980Y-112207040D01*
D13*
X172910500Y-110642400D02*
X172910500Y-111290100D01*
X172910500Y-111290100D02*
X171510960Y-111290100D01*
X171510960Y-110642400D02*
X171510960Y-111290100D01*
X172910500Y-110642400D02*
X171510960Y-110642400D01*
X172910500Y-109169200D02*
X172910500Y-109819440D01*
X172910500Y-109819440D02*
X171510960Y-109819440D01*
X171510960Y-109169200D02*
X171510960Y-109819440D01*
X172910500Y-109169200D02*
X171510960Y-109169200D01*
X172709840Y-110037880D02*
X172709840Y-110434120D01*
X172709840Y-110434120D02*
X171714160Y-110434120D01*
X171714160Y-110037880D02*
X171714160Y-110434120D01*
X172709840Y-110037880D02*
X171714160Y-110037880D01*
D14*
X171577000Y-109827060D02*
X171577000Y-110644940D01*
X172847000Y-109827060D02*
X172847000Y-110644940D01*
D15*
X171229020Y-108264960D02*
X171229020Y-112207040D01*
X171229020Y-112207040D02*
X173194980Y-112207040D01*
X173194980Y-112207040D02*
X173194980Y-108264960D01*
X173194980Y-108264960D02*
X171229020Y-108264960D01*
D13*
X177901600Y-107378500D02*
X177253900Y-107378500D01*
X177253900Y-107378500D02*
X177253900Y-105978960D01*
X177901600Y-105978960D02*
X177253900Y-105978960D01*
X177901600Y-107378500D02*
X177901600Y-105978960D01*
X179374800Y-107378500D02*
X178724560Y-107378500D01*
X178724560Y-107378500D02*
X178724560Y-105978960D01*
X179374800Y-105978960D02*
X178724560Y-105978960D01*
X179374800Y-107378500D02*
X179374800Y-105978960D01*
X178506120Y-107177840D02*
X178109880Y-107177840D01*
X178109880Y-107177840D02*
X178109880Y-106182160D01*
X178506120Y-106182160D02*
X178109880Y-106182160D01*
X178506120Y-107177840D02*
X178506120Y-106182160D01*
D14*
X178716940Y-106045000D02*
X177899060Y-106045000D01*
X178716940Y-107315000D02*
X177899060Y-107315000D01*
D15*
X180279040Y-105697020D02*
X176336960Y-105697020D01*
X176336960Y-105697020D02*
X176336960Y-107662980D01*
X176336960Y-107662980D02*
X180279040Y-107662980D01*
X180279040Y-107662980D02*
X180279040Y-105697020D01*
D13*
X177901600Y-111188500D02*
X177253900Y-111188500D01*
X177253900Y-111188500D02*
X177253900Y-109788960D01*
X177901600Y-109788960D02*
X177253900Y-109788960D01*
X177901600Y-111188500D02*
X177901600Y-109788960D01*
X179374800Y-111188500D02*
X178724560Y-111188500D01*
X178724560Y-111188500D02*
X178724560Y-109788960D01*
X179374800Y-109788960D02*
X178724560Y-109788960D01*
X179374800Y-111188500D02*
X179374800Y-109788960D01*
X178506120Y-110987840D02*
X178109880Y-110987840D01*
X178109880Y-110987840D02*
X178109880Y-109992160D01*
X178506120Y-109992160D02*
X178109880Y-109992160D01*
X178506120Y-110987840D02*
X178506120Y-109992160D01*
D14*
X178716940Y-109855000D02*
X177899060Y-109855000D01*
X178716940Y-111125000D02*
X177899060Y-111125000D01*
D15*
X180279040Y-109507020D02*
X176336960Y-109507020D01*
X176336960Y-109507020D02*
X176336960Y-111472980D01*
X176336960Y-111472980D02*
X180279040Y-111472980D01*
X180279040Y-111472980D02*
X180279040Y-109507020D01*
D13*
X102006400Y-79311500D02*
X102654100Y-79311500D01*
X102654100Y-79311500D02*
X102654100Y-80711040D01*
X102006400Y-80711040D02*
X102654100Y-80711040D01*
X102006400Y-79311500D02*
X102006400Y-80711040D01*
X100533200Y-79311500D02*
X101183440Y-79311500D01*
X101183440Y-79311500D02*
X101183440Y-80711040D01*
X100533200Y-80711040D02*
X101183440Y-80711040D01*
X100533200Y-79311500D02*
X100533200Y-80711040D01*
X101401880Y-79512160D02*
X101798120Y-79512160D01*
X101798120Y-79512160D02*
X101798120Y-80507840D01*
X101401880Y-80507840D02*
X101798120Y-80507840D01*
X101401880Y-79512160D02*
X101401880Y-80507840D01*
D14*
X101191060Y-80645000D02*
X102008940Y-80645000D01*
X101191060Y-79375000D02*
X102008940Y-79375000D01*
D15*
X99628960Y-80992980D02*
X103571040Y-80992980D01*
X103571040Y-80992980D02*
X103571040Y-79027020D01*
X103571040Y-79027020D02*
X99628960Y-79027020D01*
X99628960Y-79027020D02*
X99628960Y-80992980D01*
D13*
X142557500Y-77317600D02*
X142557500Y-76669900D01*
X142557500Y-76669900D02*
X143957040Y-76669900D01*
X143957040Y-77317600D02*
X143957040Y-76669900D01*
X142557500Y-77317600D02*
X143957040Y-77317600D01*
X142557500Y-78790800D02*
X142557500Y-78140560D01*
X142557500Y-78140560D02*
X143957040Y-78140560D01*
X143957040Y-78790800D02*
X143957040Y-78140560D01*
X142557500Y-78790800D02*
X143957040Y-78790800D01*
X142758160Y-77922120D02*
X142758160Y-77525880D01*
X142758160Y-77525880D02*
X143753840Y-77525880D01*
X143753840Y-77922120D02*
X143753840Y-77525880D01*
X142758160Y-77922120D02*
X143753840Y-77922120D01*
D14*
X143891000Y-78132940D02*
X143891000Y-77315060D01*
X142621000Y-78132940D02*
X142621000Y-77315060D01*
D15*
X144238980Y-79695040D02*
X144238980Y-75752960D01*
X144238980Y-75752960D02*
X142273020Y-75752960D01*
X142273020Y-75752960D02*
X142273020Y-79695040D01*
X142273020Y-79695040D02*
X144238980Y-79695040D01*
D13*
X157543500Y-79857600D02*
X157543500Y-79209900D01*
X157543500Y-79209900D02*
X158943040Y-79209900D01*
X158943040Y-79857600D02*
X158943040Y-79209900D01*
X157543500Y-79857600D02*
X158943040Y-79857600D01*
X157543500Y-81330800D02*
X157543500Y-80680560D01*
X157543500Y-80680560D02*
X158943040Y-80680560D01*
X158943040Y-81330800D02*
X158943040Y-80680560D01*
X157543500Y-81330800D02*
X158943040Y-81330800D01*
X157744160Y-80462120D02*
X157744160Y-80065880D01*
X157744160Y-80065880D02*
X158739840Y-80065880D01*
X158739840Y-80462120D02*
X158739840Y-80065880D01*
X157744160Y-80462120D02*
X158739840Y-80462120D01*
D14*
X158877000Y-80672940D02*
X158877000Y-79855060D01*
X157607000Y-80672940D02*
X157607000Y-79855060D01*
D15*
X159224980Y-82235040D02*
X159224980Y-78292960D01*
X159224980Y-78292960D02*
X157259020Y-78292960D01*
X157259020Y-78292960D02*
X157259020Y-82235040D01*
X157259020Y-82235040D02*
X159224980Y-82235040D01*
D13*
X172910500Y-114960400D02*
X172910500Y-115608100D01*
X172910500Y-115608100D02*
X171510960Y-115608100D01*
X171510960Y-114960400D02*
X171510960Y-115608100D01*
X172910500Y-114960400D02*
X171510960Y-114960400D01*
X172910500Y-113487200D02*
X172910500Y-114137440D01*
X172910500Y-114137440D02*
X171510960Y-114137440D01*
X171510960Y-113487200D02*
X171510960Y-114137440D01*
X172910500Y-113487200D02*
X171510960Y-113487200D01*
X172709840Y-114355880D02*
X172709840Y-114752120D01*
X172709840Y-114752120D02*
X171714160Y-114752120D01*
X171714160Y-114355880D02*
X171714160Y-114752120D01*
X172709840Y-114355880D02*
X171714160Y-114355880D01*
D14*
X171577000Y-114145060D02*
X171577000Y-114962940D01*
X172847000Y-114145060D02*
X172847000Y-114962940D01*
D15*
X171229020Y-112582960D02*
X171229020Y-116525040D01*
X171229020Y-116525040D02*
X173194980Y-116525040D01*
X173194980Y-116525040D02*
X173194980Y-112582960D01*
X173194980Y-112582960D02*
X171229020Y-112582960D01*
D13*
X168757600Y-113982500D02*
X168109900Y-113982500D01*
X168109900Y-113982500D02*
X168109900Y-112582960D01*
X168757600Y-112582960D02*
X168109900Y-112582960D01*
X168757600Y-113982500D02*
X168757600Y-112582960D01*
X170230800Y-113982500D02*
X169580560Y-113982500D01*
X169580560Y-113982500D02*
X169580560Y-112582960D01*
X170230800Y-112582960D02*
X169580560Y-112582960D01*
X170230800Y-113982500D02*
X170230800Y-112582960D01*
X169362120Y-113781840D02*
X168965880Y-113781840D01*
X168965880Y-113781840D02*
X168965880Y-112786160D01*
X169362120Y-112786160D02*
X168965880Y-112786160D01*
X169362120Y-113781840D02*
X169362120Y-112786160D01*
D14*
X169572940Y-112649000D02*
X168755060Y-112649000D01*
X169572940Y-113919000D02*
X168755060Y-113919000D01*
D15*
X171135040Y-112301020D02*
X167192960Y-112301020D01*
X167192960Y-112301020D02*
X167192960Y-114266980D01*
X167192960Y-114266980D02*
X171135040Y-114266980D01*
X171135040Y-114266980D02*
X171135040Y-112301020D01*
D18*
X173228000Y-82608420D02*
X173228000Y-82458560D01*
X173228000Y-83456780D02*
X173228000Y-83657440D01*
X173228000Y-82608420D02*
X172478700Y-82608420D01*
X173228000Y-82608420D02*
X173929040Y-82608420D01*
X173228000Y-82608420D02*
X173929040Y-83456780D01*
X173929040Y-83456780D02*
X172526960Y-83456780D01*
X172526960Y-83456780D02*
X173228000Y-82608420D01*
D16*
X99138740Y-106220260D02*
X99138740Y-108722160D01*
X99138740Y-108722160D02*
X98638360Y-108722160D01*
X98638360Y-108722160D02*
X98638360Y-109717840D01*
X98638360Y-109717840D02*
X99138740Y-109717840D01*
X99138740Y-109717840D02*
X99138740Y-112219740D01*
X99138740Y-112219740D02*
X103637080Y-112219740D01*
X103637080Y-112219740D02*
X103637080Y-106220260D01*
X103637080Y-106220260D02*
X99138740Y-106220260D01*
D13*
X157162500Y-121310400D02*
X157162500Y-121958100D01*
X157162500Y-121958100D02*
X155762960Y-121958100D01*
X155762960Y-121310400D02*
X155762960Y-121958100D01*
X157162500Y-121310400D02*
X155762960Y-121310400D01*
X157162500Y-119837200D02*
X157162500Y-120487440D01*
X157162500Y-120487440D02*
X155762960Y-120487440D01*
X155762960Y-119837200D02*
X155762960Y-120487440D01*
X157162500Y-119837200D02*
X155762960Y-119837200D01*
X156961840Y-120705880D02*
X156961840Y-121102120D01*
X156961840Y-121102120D02*
X155966160Y-121102120D01*
X155966160Y-120705880D02*
X155966160Y-121102120D01*
X156961840Y-120705880D02*
X155966160Y-120705880D01*
D14*
X155829000Y-120495060D02*
X155829000Y-121312940D01*
X157099000Y-120495060D02*
X157099000Y-121312940D01*
D15*
X155481020Y-118932960D02*
X155481020Y-122875040D01*
X155481020Y-122875040D02*
X157446980Y-122875040D01*
X157446980Y-122875040D02*
X157446980Y-118932960D01*
X157446980Y-118932960D02*
X155481020Y-118932960D01*
D10*
X142367000Y-96012000D02*
X142367000Y-106172000D01*
X142367000Y-106172000D02*
X150749000Y-106172000D01*
X150749000Y-106172000D02*
X150749000Y-96012000D01*
X150749000Y-96012000D02*
X142367000Y-96012000D01*
X147193000Y-106172000D02*
X147193000Y-105410000D01*
X147193000Y-105410000D02*
X145923000Y-105410000D01*
X145923000Y-105410000D02*
X145923000Y-106172000D01*
X142367000Y-82042000D02*
X142367000Y-92202000D01*
X142367000Y-92202000D02*
X150749000Y-92202000D01*
X150749000Y-92202000D02*
X150749000Y-82042000D01*
X150749000Y-82042000D02*
X142367000Y-82042000D01*
X147193000Y-92202000D02*
X147193000Y-91440000D01*
X147193000Y-91440000D02*
X145923000Y-91440000D01*
X145923000Y-91440000D02*
X145923000Y-92202000D01*
D19*
X110296477Y-102440619D02*
X110223906Y-102464810D01*
X110102953Y-102464810D01*
X110054572Y-102440619D01*
X110030382Y-102416429D01*
X110006191Y-102368048D01*
X110006191Y-102319667D01*
X110030382Y-102271286D01*
X110054572Y-102247095D01*
X110102953Y-102222905D01*
X110199715Y-102198714D01*
X110248096Y-102174524D01*
X110272287Y-102150333D01*
X110296477Y-102101952D01*
X110296477Y-102053571D01*
X110272287Y-102005190D01*
X110248096Y-101981000D01*
X110199715Y-101956810D01*
X110078763Y-101956810D01*
X110006191Y-101981000D01*
X109788477Y-102464810D02*
X109788477Y-101956810D01*
X109667524Y-101956810D01*
X109594953Y-101981000D01*
X109546572Y-102029381D01*
X109522381Y-102077762D01*
X109498191Y-102174524D01*
X109498191Y-102247095D01*
X109522381Y-102343857D01*
X109546572Y-102392238D01*
X109594953Y-102440619D01*
X109667524Y-102464810D01*
X109788477Y-102464810D01*
X109280477Y-102464810D02*
X109280477Y-101956810D01*
X109111143Y-102319667D01*
X108941810Y-101956810D01*
X108941810Y-102464810D01*
X108482191Y-102126143D02*
X108482191Y-102464810D01*
X108603144Y-101932619D02*
X108724096Y-102295476D01*
X108409620Y-102295476D01*
X108119334Y-101956810D02*
X108070953Y-101956810D01*
X108022572Y-101981000D01*
X107998381Y-102005190D01*
X107974191Y-102053571D01*
X107950000Y-102150333D01*
X107950000Y-102271286D01*
X107974191Y-102368048D01*
X107998381Y-102416429D01*
X108022572Y-102440619D01*
X108070953Y-102464810D01*
X108119334Y-102464810D01*
X108167715Y-102440619D01*
X108191905Y-102416429D01*
X108216096Y-102368048D01*
X108240286Y-102271286D01*
X108240286Y-102150333D01*
X108216096Y-102053571D01*
X108191905Y-102005190D01*
X108167715Y-101981000D01*
X108119334Y-101956810D01*
X107732286Y-102198714D02*
X107562952Y-102198714D01*
X107490381Y-102464810D02*
X107732286Y-102464810D01*
X107732286Y-101956810D01*
X107490381Y-101956810D01*
X107296857Y-102005190D02*
X107272667Y-101981000D01*
X107224286Y-101956810D01*
X107103333Y-101956810D01*
X107054952Y-101981000D01*
X107030762Y-102005190D01*
X107006571Y-102053571D01*
X107006571Y-102101952D01*
X107030762Y-102174524D01*
X107321048Y-102464810D01*
X107006571Y-102464810D01*
X106692095Y-101956810D02*
X106643714Y-101956810D01*
X106595333Y-101981000D01*
X106571142Y-102005190D01*
X106546952Y-102053571D01*
X106522761Y-102150333D01*
X106522761Y-102271286D01*
X106546952Y-102368048D01*
X106571142Y-102416429D01*
X106595333Y-102440619D01*
X106643714Y-102464810D01*
X106692095Y-102464810D01*
X106740476Y-102440619D01*
X106764666Y-102416429D01*
X106788857Y-102368048D01*
X106813047Y-102271286D01*
X106813047Y-102150333D01*
X106788857Y-102053571D01*
X106764666Y-102005190D01*
X106740476Y-101981000D01*
X106692095Y-101956810D01*
X106063142Y-102464810D02*
X106305047Y-102464810D01*
X106305047Y-101956810D01*
X105603523Y-102416429D02*
X105627713Y-102440619D01*
X105700285Y-102464810D01*
X105748666Y-102464810D01*
X105821237Y-102440619D01*
X105869618Y-102392238D01*
X105893809Y-102343857D01*
X105917999Y-102247095D01*
X105917999Y-102174524D01*
X105893809Y-102077762D01*
X105869618Y-102029381D01*
X105821237Y-101981000D01*
X105748666Y-101956810D01*
X105700285Y-101956810D01*
X105627713Y-101981000D01*
X105603523Y-102005190D01*
X113090477Y-116537619D02*
X113017906Y-116561810D01*
X112896953Y-116561810D01*
X112848572Y-116537619D01*
X112824382Y-116513429D01*
X112800191Y-116465048D01*
X112800191Y-116416667D01*
X112824382Y-116368286D01*
X112848572Y-116344095D01*
X112896953Y-116319905D01*
X112993715Y-116295714D01*
X113042096Y-116271524D01*
X113066287Y-116247333D01*
X113090477Y-116198952D01*
X113090477Y-116150571D01*
X113066287Y-116102190D01*
X113042096Y-116078000D01*
X112993715Y-116053810D01*
X112872763Y-116053810D01*
X112800191Y-116078000D01*
X112582477Y-116561810D02*
X112582477Y-116053810D01*
X112461524Y-116053810D01*
X112388953Y-116078000D01*
X112340572Y-116126381D01*
X112316381Y-116174762D01*
X112292191Y-116271524D01*
X112292191Y-116344095D01*
X112316381Y-116440857D01*
X112340572Y-116489238D01*
X112388953Y-116537619D01*
X112461524Y-116561810D01*
X112582477Y-116561810D01*
X112074477Y-116561810D02*
X112074477Y-116053810D01*
X111905143Y-116416667D01*
X111735810Y-116053810D01*
X111735810Y-116561810D01*
X111276191Y-116223143D02*
X111276191Y-116561810D01*
X111397144Y-116029619D02*
X111518096Y-116392476D01*
X111203620Y-116392476D01*
X110913334Y-116053810D02*
X110864953Y-116053810D01*
X110816572Y-116078000D01*
X110792381Y-116102190D01*
X110768191Y-116150571D01*
X110744000Y-116247333D01*
X110744000Y-116368286D01*
X110768191Y-116465048D01*
X110792381Y-116513429D01*
X110816572Y-116537619D01*
X110864953Y-116561810D01*
X110913334Y-116561810D01*
X110961715Y-116537619D01*
X110985905Y-116513429D01*
X111010096Y-116465048D01*
X111034286Y-116368286D01*
X111034286Y-116247333D01*
X111010096Y-116150571D01*
X110985905Y-116102190D01*
X110961715Y-116078000D01*
X110913334Y-116053810D01*
X110526286Y-116295714D02*
X110356952Y-116295714D01*
X110284381Y-116561810D02*
X110526286Y-116561810D01*
X110526286Y-116053810D01*
X110284381Y-116053810D01*
X110090857Y-116102190D02*
X110066667Y-116078000D01*
X110018286Y-116053810D01*
X109897333Y-116053810D01*
X109848952Y-116078000D01*
X109824762Y-116102190D01*
X109800571Y-116150571D01*
X109800571Y-116198952D01*
X109824762Y-116271524D01*
X110115048Y-116561810D01*
X109800571Y-116561810D01*
X109486095Y-116053810D02*
X109437714Y-116053810D01*
X109389333Y-116078000D01*
X109365142Y-116102190D01*
X109340952Y-116150571D01*
X109316761Y-116247333D01*
X109316761Y-116368286D01*
X109340952Y-116465048D01*
X109365142Y-116513429D01*
X109389333Y-116537619D01*
X109437714Y-116561810D01*
X109486095Y-116561810D01*
X109534476Y-116537619D01*
X109558666Y-116513429D01*
X109582857Y-116465048D01*
X109607047Y-116368286D01*
X109607047Y-116247333D01*
X109582857Y-116150571D01*
X109558666Y-116102190D01*
X109534476Y-116078000D01*
X109486095Y-116053810D01*
X108857142Y-116561810D02*
X109099047Y-116561810D01*
X109099047Y-116053810D01*
X108397523Y-116513429D02*
X108421713Y-116537619D01*
X108494285Y-116561810D01*
X108542666Y-116561810D01*
X108615237Y-116537619D01*
X108663618Y-116489238D01*
X108687809Y-116440857D01*
X108711999Y-116344095D01*
X108711999Y-116271524D01*
X108687809Y-116174762D01*
X108663618Y-116126381D01*
X108615237Y-116078000D01*
X108542666Y-116053810D01*
X108494285Y-116053810D01*
X108421713Y-116078000D01*
X108397523Y-116102190D01*
X99292833Y-101064786D02*
X99323071Y-101095024D01*
X99413786Y-101125262D01*
X99474262Y-101125262D01*
X99564976Y-101095024D01*
X99625452Y-101034548D01*
X99655691Y-100974071D01*
X99685929Y-100853119D01*
X99685929Y-100762405D01*
X99655691Y-100641452D01*
X99625452Y-100580976D01*
X99564976Y-100520500D01*
X99474262Y-100490262D01*
X99413786Y-100490262D01*
X99323071Y-100520500D01*
X99292833Y-100550738D01*
X98688071Y-101125262D02*
X99050929Y-101125262D01*
X98869500Y-101125262D02*
X98869500Y-100490262D01*
X98929976Y-100580976D01*
X98990452Y-100641452D01*
X99050929Y-100671690D01*
X125702786Y-100478167D02*
X125733024Y-100447929D01*
X125763262Y-100357214D01*
X125763262Y-100296738D01*
X125733024Y-100206024D01*
X125672548Y-100145548D01*
X125612071Y-100115309D01*
X125491119Y-100085071D01*
X125400405Y-100085071D01*
X125279452Y-100115309D01*
X125218976Y-100145548D01*
X125158500Y-100206024D01*
X125128262Y-100296738D01*
X125128262Y-100357214D01*
X125158500Y-100447929D01*
X125188738Y-100478167D01*
X125188738Y-100720071D02*
X125158500Y-100750309D01*
X125128262Y-100810786D01*
X125128262Y-100961976D01*
X125158500Y-101022452D01*
X125188738Y-101052690D01*
X125249214Y-101082929D01*
X125309690Y-101082929D01*
X125400405Y-101052690D01*
X125763262Y-100689833D01*
X125763262Y-101082929D01*
X125702786Y-96414167D02*
X125733024Y-96383929D01*
X125763262Y-96293214D01*
X125763262Y-96232738D01*
X125733024Y-96142024D01*
X125672548Y-96081548D01*
X125612071Y-96051309D01*
X125491119Y-96021071D01*
X125400405Y-96021071D01*
X125279452Y-96051309D01*
X125218976Y-96081548D01*
X125158500Y-96142024D01*
X125128262Y-96232738D01*
X125128262Y-96293214D01*
X125158500Y-96383929D01*
X125188738Y-96414167D01*
X125128262Y-96625833D02*
X125128262Y-97018929D01*
X125370167Y-96807262D01*
X125370167Y-96897976D01*
X125400405Y-96958452D01*
X125430643Y-96988690D01*
X125491119Y-97018929D01*
X125642310Y-97018929D01*
X125702786Y-96988690D01*
X125733024Y-96958452D01*
X125763262Y-96897976D01*
X125763262Y-96716548D01*
X125733024Y-96656071D01*
X125702786Y-96625833D01*
X184255833Y-112240786D02*
X184286071Y-112271024D01*
X184376786Y-112301262D01*
X184437262Y-112301262D01*
X184527976Y-112271024D01*
X184588452Y-112210548D01*
X184618691Y-112150071D01*
X184648929Y-112029119D01*
X184648929Y-111938405D01*
X184618691Y-111817452D01*
X184588452Y-111756976D01*
X184527976Y-111696500D01*
X184437262Y-111666262D01*
X184376786Y-111666262D01*
X184286071Y-111696500D01*
X184255833Y-111726738D01*
X183711548Y-111877929D02*
X183711548Y-112301262D01*
X183862738Y-111636024D02*
X184013929Y-112089595D01*
X183620833Y-112089595D01*
X168761833Y-93190786D02*
X168792071Y-93221024D01*
X168882786Y-93251262D01*
X168943262Y-93251262D01*
X169033976Y-93221024D01*
X169094452Y-93160548D01*
X169124691Y-93100071D01*
X169154929Y-92979119D01*
X169154929Y-92888405D01*
X169124691Y-92767452D01*
X169094452Y-92706976D01*
X169033976Y-92646500D01*
X168943262Y-92616262D01*
X168882786Y-92616262D01*
X168792071Y-92646500D01*
X168761833Y-92676738D01*
X168187310Y-92616262D02*
X168489691Y-92616262D01*
X168519929Y-92918643D01*
X168489691Y-92888405D01*
X168429214Y-92858167D01*
X168278024Y-92858167D01*
X168217548Y-92888405D01*
X168187310Y-92918643D01*
X168157071Y-92979119D01*
X168157071Y-93130310D01*
X168187310Y-93190786D01*
X168217548Y-93221024D01*
X168278024Y-93251262D01*
X168429214Y-93251262D01*
X168489691Y-93221024D01*
X168519929Y-93190786D01*
X156690786Y-108098167D02*
X156721024Y-108067929D01*
X156751262Y-107977214D01*
X156751262Y-107916738D01*
X156721024Y-107826024D01*
X156660548Y-107765548D01*
X156600071Y-107735309D01*
X156479119Y-107705071D01*
X156388405Y-107705071D01*
X156267452Y-107735309D01*
X156206976Y-107765548D01*
X156146500Y-107826024D01*
X156116262Y-107916738D01*
X156116262Y-107977214D01*
X156146500Y-108067929D01*
X156176738Y-108098167D01*
X156116262Y-108642452D02*
X156116262Y-108521500D01*
X156146500Y-108461024D01*
X156176738Y-108430786D01*
X156267452Y-108370309D01*
X156388405Y-108340071D01*
X156630310Y-108340071D01*
X156690786Y-108370309D01*
X156721024Y-108400548D01*
X156751262Y-108461024D01*
X156751262Y-108581976D01*
X156721024Y-108642452D01*
X156690786Y-108672690D01*
X156630310Y-108702929D01*
X156479119Y-108702929D01*
X156418643Y-108672690D01*
X156388405Y-108642452D01*
X156358167Y-108581976D01*
X156358167Y-108461024D01*
X156388405Y-108400548D01*
X156418643Y-108370309D01*
X156479119Y-108340071D01*
X157331833Y-93190786D02*
X157362071Y-93221024D01*
X157452786Y-93251262D01*
X157513262Y-93251262D01*
X157603976Y-93221024D01*
X157664452Y-93160548D01*
X157694691Y-93100071D01*
X157724929Y-92979119D01*
X157724929Y-92888405D01*
X157694691Y-92767452D01*
X157664452Y-92706976D01*
X157603976Y-92646500D01*
X157513262Y-92616262D01*
X157452786Y-92616262D01*
X157362071Y-92646500D01*
X157331833Y-92676738D01*
X157120167Y-92616262D02*
X156696833Y-92616262D01*
X156968976Y-93251262D01*
X125581833Y-109446786D02*
X125612071Y-109477024D01*
X125702786Y-109507262D01*
X125763262Y-109507262D01*
X125853976Y-109477024D01*
X125914452Y-109416548D01*
X125944691Y-109356071D01*
X125974929Y-109235119D01*
X125974929Y-109144405D01*
X125944691Y-109023452D01*
X125914452Y-108962976D01*
X125853976Y-108902500D01*
X125763262Y-108872262D01*
X125702786Y-108872262D01*
X125612071Y-108902500D01*
X125581833Y-108932738D01*
X125218976Y-109144405D02*
X125279452Y-109114167D01*
X125309691Y-109083929D01*
X125339929Y-109023452D01*
X125339929Y-108993214D01*
X125309691Y-108932738D01*
X125279452Y-108902500D01*
X125218976Y-108872262D01*
X125098024Y-108872262D01*
X125037548Y-108902500D01*
X125007310Y-108932738D01*
X124977071Y-108993214D01*
X124977071Y-109023452D01*
X125007310Y-109083929D01*
X125037548Y-109114167D01*
X125098024Y-109144405D01*
X125218976Y-109144405D01*
X125279452Y-109174643D01*
X125309691Y-109204881D01*
X125339929Y-109265357D01*
X125339929Y-109386310D01*
X125309691Y-109446786D01*
X125279452Y-109477024D01*
X125218976Y-109507262D01*
X125098024Y-109507262D01*
X125037548Y-109477024D01*
X125007310Y-109446786D01*
X124977071Y-109386310D01*
X124977071Y-109265357D01*
X125007310Y-109204881D01*
X125037548Y-109174643D01*
X125098024Y-109144405D01*
X137519833Y-105128786D02*
X137550071Y-105159024D01*
X137640786Y-105189262D01*
X137701262Y-105189262D01*
X137791976Y-105159024D01*
X137852452Y-105098548D01*
X137882691Y-105038071D01*
X137912929Y-104917119D01*
X137912929Y-104826405D01*
X137882691Y-104705452D01*
X137852452Y-104644976D01*
X137791976Y-104584500D01*
X137701262Y-104554262D01*
X137640786Y-104554262D01*
X137550071Y-104584500D01*
X137519833Y-104614738D01*
X137217452Y-105189262D02*
X137096500Y-105189262D01*
X137036024Y-105159024D01*
X137005786Y-105128786D01*
X136945310Y-105038071D01*
X136915071Y-104917119D01*
X136915071Y-104675214D01*
X136945310Y-104614738D01*
X136975548Y-104584500D01*
X137036024Y-104554262D01*
X137156976Y-104554262D01*
X137217452Y-104584500D01*
X137247691Y-104614738D01*
X137277929Y-104675214D01*
X137277929Y-104826405D01*
X137247691Y-104886881D01*
X137217452Y-104917119D01*
X137156976Y-104947357D01*
X137036024Y-104947357D01*
X136975548Y-104917119D01*
X136945310Y-104886881D01*
X136915071Y-104826405D01*
X125630214Y-107414786D02*
X125660452Y-107445024D01*
X125751167Y-107475262D01*
X125811643Y-107475262D01*
X125902357Y-107445024D01*
X125962833Y-107384548D01*
X125993072Y-107324071D01*
X126023310Y-107203119D01*
X126023310Y-107112405D01*
X125993072Y-106991452D01*
X125962833Y-106930976D01*
X125902357Y-106870500D01*
X125811643Y-106840262D01*
X125751167Y-106840262D01*
X125660452Y-106870500D01*
X125630214Y-106900738D01*
X125025452Y-107475262D02*
X125388310Y-107475262D01*
X125206881Y-107475262D02*
X125206881Y-106840262D01*
X125267357Y-106930976D01*
X125327833Y-106991452D01*
X125388310Y-107021690D01*
X124632357Y-106840262D02*
X124571881Y-106840262D01*
X124511405Y-106870500D01*
X124481167Y-106900738D01*
X124450929Y-106961214D01*
X124420690Y-107082167D01*
X124420690Y-107233357D01*
X124450929Y-107354310D01*
X124481167Y-107414786D01*
X124511405Y-107445024D01*
X124571881Y-107475262D01*
X124632357Y-107475262D01*
X124692833Y-107445024D01*
X124723071Y-107414786D01*
X124753310Y-107354310D01*
X124783548Y-107233357D01*
X124783548Y-107082167D01*
X124753310Y-106961214D01*
X124723071Y-106900738D01*
X124692833Y-106870500D01*
X124632357Y-106840262D01*
X173454786Y-98905786D02*
X173485024Y-98875548D01*
X173515262Y-98784833D01*
X173515262Y-98724357D01*
X173485024Y-98633643D01*
X173424548Y-98573167D01*
X173364071Y-98542928D01*
X173243119Y-98512690D01*
X173152405Y-98512690D01*
X173031452Y-98542928D01*
X172970976Y-98573167D01*
X172910500Y-98633643D01*
X172880262Y-98724357D01*
X172880262Y-98784833D01*
X172910500Y-98875548D01*
X172940738Y-98905786D01*
X173515262Y-99510548D02*
X173515262Y-99147690D01*
X173515262Y-99329119D02*
X172880262Y-99329119D01*
X172970976Y-99268643D01*
X173031452Y-99208167D01*
X173061690Y-99147690D01*
X173515262Y-100115310D02*
X173515262Y-99752452D01*
X173515262Y-99933881D02*
X172880262Y-99933881D01*
X172970976Y-99873405D01*
X173031452Y-99812929D01*
X173061690Y-99752452D01*
X137822214Y-110716786D02*
X137852452Y-110747024D01*
X137943167Y-110777262D01*
X138003643Y-110777262D01*
X138094357Y-110747024D01*
X138154833Y-110686548D01*
X138185072Y-110626071D01*
X138215310Y-110505119D01*
X138215310Y-110414405D01*
X138185072Y-110293452D01*
X138154833Y-110232976D01*
X138094357Y-110172500D01*
X138003643Y-110142262D01*
X137943167Y-110142262D01*
X137852452Y-110172500D01*
X137822214Y-110202738D01*
X137217452Y-110777262D02*
X137580310Y-110777262D01*
X137398881Y-110777262D02*
X137398881Y-110142262D01*
X137459357Y-110232976D01*
X137519833Y-110293452D01*
X137580310Y-110323690D01*
X136975548Y-110202738D02*
X136945310Y-110172500D01*
X136884833Y-110142262D01*
X136733643Y-110142262D01*
X136673167Y-110172500D01*
X136642929Y-110202738D01*
X136612690Y-110263214D01*
X136612690Y-110323690D01*
X136642929Y-110414405D01*
X137005786Y-110777262D01*
X136612690Y-110777262D01*
X164492214Y-110462786D02*
X164522452Y-110493024D01*
X164613167Y-110523262D01*
X164673643Y-110523262D01*
X164764357Y-110493024D01*
X164824833Y-110432548D01*
X164855072Y-110372071D01*
X164885310Y-110251119D01*
X164885310Y-110160405D01*
X164855072Y-110039452D01*
X164824833Y-109978976D01*
X164764357Y-109918500D01*
X164673643Y-109888262D01*
X164613167Y-109888262D01*
X164522452Y-109918500D01*
X164492214Y-109948738D01*
X163887452Y-110523262D02*
X164250310Y-110523262D01*
X164068881Y-110523262D02*
X164068881Y-109888262D01*
X164129357Y-109978976D01*
X164189833Y-110039452D01*
X164250310Y-110069690D01*
X163343167Y-109888262D02*
X163464119Y-109888262D01*
X163524595Y-109918500D01*
X163554833Y-109948738D01*
X163615310Y-110039452D01*
X163645548Y-110160405D01*
X163645548Y-110402310D01*
X163615310Y-110462786D01*
X163585071Y-110493024D01*
X163524595Y-110523262D01*
X163403643Y-110523262D01*
X163343167Y-110493024D01*
X163312929Y-110462786D01*
X163282690Y-110402310D01*
X163282690Y-110251119D01*
X163312929Y-110190643D01*
X163343167Y-110160405D01*
X163403643Y-110130167D01*
X163524595Y-110130167D01*
X163585071Y-110160405D01*
X163615310Y-110190643D01*
X163645548Y-110251119D01*
X168882786Y-106017786D02*
X168913024Y-105987548D01*
X168943262Y-105896833D01*
X168943262Y-105836357D01*
X168913024Y-105745643D01*
X168852548Y-105685167D01*
X168792071Y-105654928D01*
X168671119Y-105624690D01*
X168580405Y-105624690D01*
X168459452Y-105654928D01*
X168398976Y-105685167D01*
X168338500Y-105745643D01*
X168308262Y-105836357D01*
X168308262Y-105896833D01*
X168338500Y-105987548D01*
X168368738Y-106017786D01*
X168943262Y-106622548D02*
X168943262Y-106259690D01*
X168943262Y-106441119D02*
X168308262Y-106441119D01*
X168398976Y-106380643D01*
X168459452Y-106320167D01*
X168489690Y-106259690D01*
X168580405Y-106985405D02*
X168550167Y-106924929D01*
X168519929Y-106894690D01*
X168459452Y-106864452D01*
X168429214Y-106864452D01*
X168368738Y-106894690D01*
X168338500Y-106924929D01*
X168308262Y-106985405D01*
X168308262Y-107106357D01*
X168338500Y-107166833D01*
X168368738Y-107197071D01*
X168429214Y-107227310D01*
X168459452Y-107227310D01*
X168519929Y-107197071D01*
X168550167Y-107166833D01*
X168580405Y-107106357D01*
X168580405Y-106985405D01*
X168610643Y-106924929D01*
X168640881Y-106894690D01*
X168701357Y-106864452D01*
X168822310Y-106864452D01*
X168882786Y-106894690D01*
X168913024Y-106924929D01*
X168943262Y-106985405D01*
X168943262Y-107106357D01*
X168913024Y-107166833D01*
X168882786Y-107197071D01*
X168822310Y-107227310D01*
X168701357Y-107227310D01*
X168640881Y-107197071D01*
X168610643Y-107166833D01*
X168580405Y-107106357D01*
X103698525Y-105385810D02*
X103940430Y-105385810D01*
X103964620Y-105627714D01*
X103940430Y-105603524D01*
X103892049Y-105579333D01*
X103771096Y-105579333D01*
X103722715Y-105603524D01*
X103698525Y-105627714D01*
X103674334Y-105676095D01*
X103674334Y-105797048D01*
X103698525Y-105845429D01*
X103722715Y-105869619D01*
X103771096Y-105893810D01*
X103892049Y-105893810D01*
X103940430Y-105869619D01*
X103964620Y-105845429D01*
X103456620Y-105845429D02*
X103432429Y-105869619D01*
X103456620Y-105893810D01*
X103480810Y-105869619D01*
X103456620Y-105845429D01*
X103456620Y-105893810D01*
X103263096Y-105385810D02*
X102948619Y-105385810D01*
X103117953Y-105579333D01*
X103045381Y-105579333D01*
X102997000Y-105603524D01*
X102972810Y-105627714D01*
X102948619Y-105676095D01*
X102948619Y-105797048D01*
X102972810Y-105845429D01*
X102997000Y-105869619D01*
X103045381Y-105893810D01*
X103190524Y-105893810D01*
X103238905Y-105869619D01*
X103263096Y-105845429D01*
X102803476Y-105385810D02*
X102634143Y-105893810D01*
X102464809Y-105385810D01*
X101956809Y-105385810D02*
X101618142Y-105385810D01*
X101956809Y-105893810D01*
X101618142Y-105893810D01*
X101231094Y-105869619D02*
X101279475Y-105893810D01*
X101376237Y-105893810D01*
X101424618Y-105869619D01*
X101448808Y-105821238D01*
X101448808Y-105627714D01*
X101424618Y-105579333D01*
X101376237Y-105555143D01*
X101279475Y-105555143D01*
X101231094Y-105579333D01*
X101206903Y-105627714D01*
X101206903Y-105676095D01*
X101448808Y-105724476D01*
X100989189Y-105555143D02*
X100989189Y-105893810D01*
X100989189Y-105603524D02*
X100964998Y-105579333D01*
X100916617Y-105555143D01*
X100844046Y-105555143D01*
X100795665Y-105579333D01*
X100771474Y-105627714D01*
X100771474Y-105893810D01*
X100336046Y-105869619D02*
X100384427Y-105893810D01*
X100481189Y-105893810D01*
X100529570Y-105869619D01*
X100553760Y-105821238D01*
X100553760Y-105627714D01*
X100529570Y-105579333D01*
X100481189Y-105555143D01*
X100384427Y-105555143D01*
X100336046Y-105579333D01*
X100311855Y-105627714D01*
X100311855Y-105676095D01*
X100553760Y-105724476D01*
X100094141Y-105893810D02*
X100094141Y-105555143D01*
X100094141Y-105651905D02*
X100069950Y-105603524D01*
X100045760Y-105579333D01*
X99997379Y-105555143D01*
X99948998Y-105555143D01*
X185867525Y-108433810D02*
X186109430Y-108433810D01*
X186133620Y-108675714D01*
X186109430Y-108651524D01*
X186061049Y-108627333D01*
X185940096Y-108627333D01*
X185891715Y-108651524D01*
X185867525Y-108675714D01*
X185843334Y-108724095D01*
X185843334Y-108845048D01*
X185867525Y-108893429D01*
X185891715Y-108917619D01*
X185940096Y-108941810D01*
X186061049Y-108941810D01*
X186109430Y-108917619D01*
X186133620Y-108893429D01*
X185625620Y-108893429D02*
X185601429Y-108917619D01*
X185625620Y-108941810D01*
X185649810Y-108917619D01*
X185625620Y-108893429D01*
X185625620Y-108941810D01*
X185432096Y-108433810D02*
X185117619Y-108433810D01*
X185286953Y-108627333D01*
X185214381Y-108627333D01*
X185166000Y-108651524D01*
X185141810Y-108675714D01*
X185117619Y-108724095D01*
X185117619Y-108845048D01*
X185141810Y-108893429D01*
X185166000Y-108917619D01*
X185214381Y-108941810D01*
X185359524Y-108941810D01*
X185407905Y-108917619D01*
X185432096Y-108893429D01*
X184972476Y-108433810D02*
X184803143Y-108941810D01*
X184633809Y-108433810D01*
X184125809Y-108433810D02*
X183787142Y-108433810D01*
X184125809Y-108941810D01*
X183787142Y-108941810D01*
X183400094Y-108917619D02*
X183448475Y-108941810D01*
X183545237Y-108941810D01*
X183593618Y-108917619D01*
X183617808Y-108869238D01*
X183617808Y-108675714D01*
X183593618Y-108627333D01*
X183545237Y-108603143D01*
X183448475Y-108603143D01*
X183400094Y-108627333D01*
X183375903Y-108675714D01*
X183375903Y-108724095D01*
X183617808Y-108772476D01*
X183158189Y-108603143D02*
X183158189Y-108941810D01*
X183158189Y-108651524D02*
X183133998Y-108627333D01*
X183085617Y-108603143D01*
X183013046Y-108603143D01*
X182964665Y-108627333D01*
X182940474Y-108675714D01*
X182940474Y-108941810D01*
X182505046Y-108917619D02*
X182553427Y-108941810D01*
X182650189Y-108941810D01*
X182698570Y-108917619D01*
X182722760Y-108869238D01*
X182722760Y-108675714D01*
X182698570Y-108627333D01*
X182650189Y-108603143D01*
X182553427Y-108603143D01*
X182505046Y-108627333D01*
X182480855Y-108675714D01*
X182480855Y-108724095D01*
X182722760Y-108772476D01*
X182263141Y-108941810D02*
X182263141Y-108603143D01*
X182263141Y-108699905D02*
X182238950Y-108651524D01*
X182214760Y-108627333D01*
X182166379Y-108603143D01*
X182117998Y-108603143D01*
X129987525Y-102083810D02*
X130229430Y-102083810D01*
X130253620Y-102325714D01*
X130229430Y-102301524D01*
X130181049Y-102277333D01*
X130060096Y-102277333D01*
X130011715Y-102301524D01*
X129987525Y-102325714D01*
X129963334Y-102374095D01*
X129963334Y-102495048D01*
X129987525Y-102543429D01*
X130011715Y-102567619D01*
X130060096Y-102591810D01*
X130181049Y-102591810D01*
X130229430Y-102567619D01*
X130253620Y-102543429D01*
X129745620Y-102543429D02*
X129721429Y-102567619D01*
X129745620Y-102591810D01*
X129769810Y-102567619D01*
X129745620Y-102543429D01*
X129745620Y-102591810D01*
X129552096Y-102083810D02*
X129237619Y-102083810D01*
X129406953Y-102277333D01*
X129334381Y-102277333D01*
X129286000Y-102301524D01*
X129261810Y-102325714D01*
X129237619Y-102374095D01*
X129237619Y-102495048D01*
X129261810Y-102543429D01*
X129286000Y-102567619D01*
X129334381Y-102591810D01*
X129479524Y-102591810D01*
X129527905Y-102567619D01*
X129552096Y-102543429D01*
X129092476Y-102083810D02*
X128923143Y-102591810D01*
X128753809Y-102083810D01*
X128245809Y-102083810D02*
X127907142Y-102083810D01*
X128245809Y-102591810D01*
X127907142Y-102591810D01*
X127520094Y-102567619D02*
X127568475Y-102591810D01*
X127665237Y-102591810D01*
X127713618Y-102567619D01*
X127737808Y-102519238D01*
X127737808Y-102325714D01*
X127713618Y-102277333D01*
X127665237Y-102253143D01*
X127568475Y-102253143D01*
X127520094Y-102277333D01*
X127495903Y-102325714D01*
X127495903Y-102374095D01*
X127737808Y-102422476D01*
X127278189Y-102253143D02*
X127278189Y-102591810D01*
X127278189Y-102301524D02*
X127253998Y-102277333D01*
X127205617Y-102253143D01*
X127133046Y-102253143D01*
X127084665Y-102277333D01*
X127060474Y-102325714D01*
X127060474Y-102591810D01*
X126625046Y-102567619D02*
X126673427Y-102591810D01*
X126770189Y-102591810D01*
X126818570Y-102567619D01*
X126842760Y-102519238D01*
X126842760Y-102325714D01*
X126818570Y-102277333D01*
X126770189Y-102253143D01*
X126673427Y-102253143D01*
X126625046Y-102277333D01*
X126600855Y-102325714D01*
X126600855Y-102374095D01*
X126842760Y-102422476D01*
X126383141Y-102591810D02*
X126383141Y-102253143D01*
X126383141Y-102349905D02*
X126358950Y-102301524D01*
X126334760Y-102277333D01*
X126286379Y-102253143D01*
X126237998Y-102253143D01*
X128224643Y-113326333D02*
X128224643Y-113114666D01*
X128557262Y-113114666D02*
X127922262Y-113114666D01*
X127922262Y-113417047D01*
X128557262Y-113991572D02*
X128557262Y-113628714D01*
X128557262Y-113810143D02*
X127922262Y-113810143D01*
X128012976Y-113749667D01*
X128073452Y-113689191D01*
X128103690Y-113628714D01*
X111817453Y-89441262D02*
X112119834Y-89441262D01*
X112119834Y-88806262D01*
X111605786Y-89441262D02*
X111605786Y-88806262D01*
X111394119Y-89259833D01*
X111182452Y-88806262D01*
X111182452Y-89441262D01*
X110940548Y-88806262D02*
X110547452Y-88806262D01*
X110759119Y-89048167D01*
X110668405Y-89048167D01*
X110607929Y-89078405D01*
X110577691Y-89108643D01*
X110547452Y-89169119D01*
X110547452Y-89320310D01*
X110577691Y-89380786D01*
X110607929Y-89411024D01*
X110668405Y-89441262D01*
X110849833Y-89441262D01*
X110910310Y-89411024D01*
X110940548Y-89380786D01*
X109972929Y-88806262D02*
X110275310Y-88806262D01*
X110305548Y-89108643D01*
X110275310Y-89078405D01*
X110214833Y-89048167D01*
X110063643Y-89048167D01*
X110003167Y-89078405D01*
X109972929Y-89108643D01*
X109942690Y-89169119D01*
X109942690Y-89320310D01*
X109972929Y-89380786D01*
X110003167Y-89411024D01*
X110063643Y-89441262D01*
X110214833Y-89441262D01*
X110275310Y-89411024D01*
X110305548Y-89380786D01*
X109579833Y-89078405D02*
X109640309Y-89048167D01*
X109670548Y-89017929D01*
X109700786Y-88957452D01*
X109700786Y-88927214D01*
X109670548Y-88866738D01*
X109640309Y-88836500D01*
X109579833Y-88806262D01*
X109458881Y-88806262D01*
X109398405Y-88836500D01*
X109368167Y-88866738D01*
X109337928Y-88927214D01*
X109337928Y-88957452D01*
X109368167Y-89017929D01*
X109398405Y-89048167D01*
X109458881Y-89078405D01*
X109579833Y-89078405D01*
X109640309Y-89108643D01*
X109670548Y-89138881D01*
X109700786Y-89199357D01*
X109700786Y-89320310D01*
X109670548Y-89380786D01*
X109640309Y-89411024D01*
X109579833Y-89441262D01*
X109458881Y-89441262D01*
X109398405Y-89411024D01*
X109368167Y-89380786D01*
X109337928Y-89320310D01*
X109337928Y-89199357D01*
X109368167Y-89138881D01*
X109398405Y-89108643D01*
X109458881Y-89078405D01*
X171991262Y-106320166D02*
X171991262Y-106017785D01*
X171356262Y-106017785D01*
X171991262Y-106864453D02*
X171991262Y-106501595D01*
X171991262Y-106683024D02*
X171356262Y-106683024D01*
X171446976Y-106622548D01*
X171507452Y-106562072D01*
X171537690Y-106501595D01*
X130943048Y-100813810D02*
X130943048Y-100305810D01*
X130822095Y-100305810D01*
X130749524Y-100330000D01*
X130701143Y-100378381D01*
X130676952Y-100426762D01*
X130652762Y-100523524D01*
X130652762Y-100596095D01*
X130676952Y-100692857D01*
X130701143Y-100741238D01*
X130749524Y-100789619D01*
X130822095Y-100813810D01*
X130943048Y-100813810D01*
X130435048Y-100813810D02*
X130435048Y-100305810D01*
X130265714Y-100668667D01*
X130096381Y-100305810D01*
X130096381Y-100813810D01*
X129588381Y-100330000D02*
X129636762Y-100305810D01*
X129709334Y-100305810D01*
X129781905Y-100330000D01*
X129830286Y-100378381D01*
X129854477Y-100426762D01*
X129878667Y-100523524D01*
X129878667Y-100596095D01*
X129854477Y-100692857D01*
X129830286Y-100741238D01*
X129781905Y-100789619D01*
X129709334Y-100813810D01*
X129660953Y-100813810D01*
X129588381Y-100789619D01*
X129564191Y-100765429D01*
X129564191Y-100596095D01*
X129660953Y-100596095D01*
X129394858Y-100305810D02*
X129080381Y-100305810D01*
X129249715Y-100499333D01*
X129177143Y-100499333D01*
X129128762Y-100523524D01*
X129104572Y-100547714D01*
X129080381Y-100596095D01*
X129080381Y-100717048D01*
X129104572Y-100765429D01*
X129128762Y-100789619D01*
X129177143Y-100813810D01*
X129322286Y-100813810D01*
X129370667Y-100789619D01*
X129394858Y-100765429D01*
X128644952Y-100475143D02*
X128644952Y-100813810D01*
X128765905Y-100281619D02*
X128886857Y-100644476D01*
X128572381Y-100644476D01*
X128112761Y-100813810D02*
X128403047Y-100813810D01*
X128257904Y-100813810D02*
X128257904Y-100305810D01*
X128306285Y-100378381D01*
X128354666Y-100426762D01*
X128403047Y-100450952D01*
X127653142Y-100305810D02*
X127895047Y-100305810D01*
X127919237Y-100547714D01*
X127895047Y-100523524D01*
X127846666Y-100499333D01*
X127725713Y-100499333D01*
X127677332Y-100523524D01*
X127653142Y-100547714D01*
X127628951Y-100596095D01*
X127628951Y-100717048D01*
X127653142Y-100765429D01*
X127677332Y-100789619D01*
X127725713Y-100813810D01*
X127846666Y-100813810D01*
X127895047Y-100789619D01*
X127919237Y-100765429D01*
X127411237Y-100305810D02*
X127411237Y-100717048D01*
X127387046Y-100765429D01*
X127362856Y-100789619D01*
X127314475Y-100813810D01*
X127217713Y-100813810D01*
X127169332Y-100789619D01*
X127145141Y-100765429D01*
X127120951Y-100717048D01*
X127120951Y-100305810D01*
X114841262Y-84222167D02*
X114538881Y-84010500D01*
X114841262Y-83859309D02*
X114206262Y-83859309D01*
X114206262Y-84101214D01*
X114236500Y-84161690D01*
X114266738Y-84191929D01*
X114327214Y-84222167D01*
X114417929Y-84222167D01*
X114478405Y-84191929D01*
X114508643Y-84161690D01*
X114538881Y-84101214D01*
X114538881Y-83859309D01*
X114841262Y-84826929D02*
X114841262Y-84464071D01*
X114841262Y-84645500D02*
X114206262Y-84645500D01*
X114296976Y-84585024D01*
X114357452Y-84524548D01*
X114387690Y-84464071D01*
X114841262Y-93366167D02*
X114538881Y-93154500D01*
X114841262Y-93003309D02*
X114206262Y-93003309D01*
X114206262Y-93245214D01*
X114236500Y-93305690D01*
X114266738Y-93335929D01*
X114327214Y-93366167D01*
X114417929Y-93366167D01*
X114478405Y-93335929D01*
X114508643Y-93305690D01*
X114538881Y-93245214D01*
X114538881Y-93003309D01*
X114266738Y-93608071D02*
X114236500Y-93638309D01*
X114206262Y-93698786D01*
X114206262Y-93849976D01*
X114236500Y-93910452D01*
X114266738Y-93940690D01*
X114327214Y-93970929D01*
X114387690Y-93970929D01*
X114478405Y-93940690D01*
X114841262Y-93577833D01*
X114841262Y-93970929D01*
X112373833Y-73439262D02*
X112585500Y-73136881D01*
X112736691Y-73439262D02*
X112736691Y-72804262D01*
X112494786Y-72804262D01*
X112434310Y-72834500D01*
X112404071Y-72864738D01*
X112373833Y-72925214D01*
X112373833Y-73015929D01*
X112404071Y-73076405D01*
X112434310Y-73106643D01*
X112494786Y-73136881D01*
X112736691Y-73136881D01*
X112162167Y-72804262D02*
X111769071Y-72804262D01*
X111980738Y-73046167D01*
X111890024Y-73046167D01*
X111829548Y-73076405D01*
X111799310Y-73106643D01*
X111769071Y-73167119D01*
X111769071Y-73318310D01*
X111799310Y-73378786D01*
X111829548Y-73409024D01*
X111890024Y-73439262D01*
X112071452Y-73439262D01*
X112131929Y-73409024D01*
X112162167Y-73378786D01*
X101705833Y-89441262D02*
X101917500Y-89138881D01*
X102068691Y-89441262D02*
X102068691Y-88806262D01*
X101826786Y-88806262D01*
X101766310Y-88836500D01*
X101736071Y-88866738D01*
X101705833Y-88927214D01*
X101705833Y-89017929D01*
X101736071Y-89078405D01*
X101766310Y-89108643D01*
X101826786Y-89138881D01*
X102068691Y-89138881D01*
X101161548Y-89017929D02*
X101161548Y-89441262D01*
X101312738Y-88776024D02*
X101463929Y-89229595D01*
X101070833Y-89229595D01*
X101705833Y-85631262D02*
X101917500Y-85328881D01*
X102068691Y-85631262D02*
X102068691Y-84996262D01*
X101826786Y-84996262D01*
X101766310Y-85026500D01*
X101736071Y-85056738D01*
X101705833Y-85117214D01*
X101705833Y-85207929D01*
X101736071Y-85268405D01*
X101766310Y-85298643D01*
X101826786Y-85328881D01*
X102068691Y-85328881D01*
X101131310Y-84996262D02*
X101433691Y-84996262D01*
X101463929Y-85298643D01*
X101433691Y-85268405D01*
X101373214Y-85238167D01*
X101222024Y-85238167D01*
X101161548Y-85268405D01*
X101131310Y-85298643D01*
X101101071Y-85359119D01*
X101101071Y-85510310D01*
X101131310Y-85570786D01*
X101161548Y-85601024D01*
X101222024Y-85631262D01*
X101373214Y-85631262D01*
X101433691Y-85601024D01*
X101463929Y-85570786D01*
X133637262Y-98446167D02*
X133334881Y-98234500D01*
X133637262Y-98083309D02*
X133002262Y-98083309D01*
X133002262Y-98325214D01*
X133032500Y-98385690D01*
X133062738Y-98415929D01*
X133123214Y-98446167D01*
X133213929Y-98446167D01*
X133274405Y-98415929D01*
X133304643Y-98385690D01*
X133334881Y-98325214D01*
X133334881Y-98083309D01*
X133002262Y-98990452D02*
X133002262Y-98869500D01*
X133032500Y-98809024D01*
X133062738Y-98778786D01*
X133153452Y-98718309D01*
X133274405Y-98688071D01*
X133516310Y-98688071D01*
X133576786Y-98718309D01*
X133607024Y-98748548D01*
X133637262Y-98809024D01*
X133637262Y-98929976D01*
X133607024Y-98990452D01*
X133576786Y-99020690D01*
X133516310Y-99050929D01*
X133365119Y-99050929D01*
X133304643Y-99020690D01*
X133274405Y-98990452D01*
X133244167Y-98929976D01*
X133244167Y-98809024D01*
X133274405Y-98748548D01*
X133304643Y-98718309D01*
X133365119Y-98688071D01*
X111865833Y-75725262D02*
X112077500Y-75422881D01*
X112228691Y-75725262D02*
X112228691Y-75090262D01*
X111986786Y-75090262D01*
X111926310Y-75120500D01*
X111896071Y-75150738D01*
X111865833Y-75211214D01*
X111865833Y-75301929D01*
X111896071Y-75362405D01*
X111926310Y-75392643D01*
X111986786Y-75422881D01*
X112228691Y-75422881D01*
X111654167Y-75090262D02*
X111230833Y-75090262D01*
X111502976Y-75725262D01*
X119485833Y-75725262D02*
X119697500Y-75422881D01*
X119848691Y-75725262D02*
X119848691Y-75090262D01*
X119606786Y-75090262D01*
X119546310Y-75120500D01*
X119516071Y-75150738D01*
X119485833Y-75211214D01*
X119485833Y-75301929D01*
X119516071Y-75362405D01*
X119546310Y-75392643D01*
X119606786Y-75422881D01*
X119848691Y-75422881D01*
X119122976Y-75362405D02*
X119183452Y-75332167D01*
X119213691Y-75301929D01*
X119243929Y-75241452D01*
X119243929Y-75211214D01*
X119213691Y-75150738D01*
X119183452Y-75120500D01*
X119122976Y-75090262D01*
X119002024Y-75090262D01*
X118941548Y-75120500D01*
X118911310Y-75150738D01*
X118881071Y-75211214D01*
X118881071Y-75241452D01*
X118911310Y-75301929D01*
X118941548Y-75332167D01*
X119002024Y-75362405D01*
X119122976Y-75362405D01*
X119183452Y-75392643D01*
X119213691Y-75422881D01*
X119243929Y-75483357D01*
X119243929Y-75604310D01*
X119213691Y-75664786D01*
X119183452Y-75695024D01*
X119122976Y-75725262D01*
X119002024Y-75725262D01*
X118941548Y-75695024D01*
X118911310Y-75664786D01*
X118881071Y-75604310D01*
X118881071Y-75483357D01*
X118911310Y-75422881D01*
X118941548Y-75392643D01*
X119002024Y-75362405D01*
X127105833Y-75725262D02*
X127317500Y-75422881D01*
X127468691Y-75725262D02*
X127468691Y-75090262D01*
X127226786Y-75090262D01*
X127166310Y-75120500D01*
X127136071Y-75150738D01*
X127105833Y-75211214D01*
X127105833Y-75301929D01*
X127136071Y-75362405D01*
X127166310Y-75392643D01*
X127226786Y-75422881D01*
X127468691Y-75422881D01*
X126803452Y-75725262D02*
X126682500Y-75725262D01*
X126622024Y-75695024D01*
X126591786Y-75664786D01*
X126531310Y-75574071D01*
X126501071Y-75453119D01*
X126501071Y-75211214D01*
X126531310Y-75150738D01*
X126561548Y-75120500D01*
X126622024Y-75090262D01*
X126742976Y-75090262D01*
X126803452Y-75120500D01*
X126833691Y-75150738D01*
X126863929Y-75211214D01*
X126863929Y-75362405D01*
X126833691Y-75422881D01*
X126803452Y-75453119D01*
X126742976Y-75483357D01*
X126622024Y-75483357D01*
X126561548Y-75453119D01*
X126531310Y-75422881D01*
X126501071Y-75362405D01*
X135028214Y-75725262D02*
X135239881Y-75422881D01*
X135391072Y-75725262D02*
X135391072Y-75090262D01*
X135149167Y-75090262D01*
X135088691Y-75120500D01*
X135058452Y-75150738D01*
X135028214Y-75211214D01*
X135028214Y-75301929D01*
X135058452Y-75362405D01*
X135088691Y-75392643D01*
X135149167Y-75422881D01*
X135391072Y-75422881D01*
X134423452Y-75725262D02*
X134786310Y-75725262D01*
X134604881Y-75725262D02*
X134604881Y-75090262D01*
X134665357Y-75180976D01*
X134725833Y-75241452D01*
X134786310Y-75271690D01*
X134030357Y-75090262D02*
X133969881Y-75090262D01*
X133909405Y-75120500D01*
X133879167Y-75150738D01*
X133848929Y-75211214D01*
X133818690Y-75332167D01*
X133818690Y-75483357D01*
X133848929Y-75604310D01*
X133879167Y-75664786D01*
X133909405Y-75695024D01*
X133969881Y-75725262D01*
X134030357Y-75725262D01*
X134090833Y-75695024D01*
X134121071Y-75664786D01*
X134151310Y-75604310D01*
X134181548Y-75483357D01*
X134181548Y-75332167D01*
X134151310Y-75211214D01*
X134121071Y-75150738D01*
X134090833Y-75120500D01*
X134030357Y-75090262D01*
X184558214Y-96045262D02*
X184769881Y-95742881D01*
X184921072Y-96045262D02*
X184921072Y-95410262D01*
X184679167Y-95410262D01*
X184618691Y-95440500D01*
X184588452Y-95470738D01*
X184558214Y-95531214D01*
X184558214Y-95621929D01*
X184588452Y-95682405D01*
X184618691Y-95712643D01*
X184679167Y-95742881D01*
X184921072Y-95742881D01*
X183953452Y-96045262D02*
X184316310Y-96045262D01*
X184134881Y-96045262D02*
X184134881Y-95410262D01*
X184195357Y-95500976D01*
X184255833Y-95561452D01*
X184316310Y-95591690D01*
X183348690Y-96045262D02*
X183711548Y-96045262D01*
X183530119Y-96045262D02*
X183530119Y-95410262D01*
X183590595Y-95500976D01*
X183651071Y-95561452D01*
X183711548Y-95591690D01*
X184558214Y-90203262D02*
X184769881Y-89900881D01*
X184921072Y-90203262D02*
X184921072Y-89568262D01*
X184679167Y-89568262D01*
X184618691Y-89598500D01*
X184588452Y-89628738D01*
X184558214Y-89689214D01*
X184558214Y-89779929D01*
X184588452Y-89840405D01*
X184618691Y-89870643D01*
X184679167Y-89900881D01*
X184921072Y-89900881D01*
X183953452Y-90203262D02*
X184316310Y-90203262D01*
X184134881Y-90203262D02*
X184134881Y-89568262D01*
X184195357Y-89658976D01*
X184255833Y-89719452D01*
X184316310Y-89749690D01*
X183711548Y-89628738D02*
X183681310Y-89598500D01*
X183620833Y-89568262D01*
X183469643Y-89568262D01*
X183409167Y-89598500D01*
X183378929Y-89628738D01*
X183348690Y-89689214D01*
X183348690Y-89749690D01*
X183378929Y-89840405D01*
X183741786Y-90203262D01*
X183348690Y-90203262D01*
X184558214Y-99093262D02*
X184769881Y-98790881D01*
X184921072Y-99093262D02*
X184921072Y-98458262D01*
X184679167Y-98458262D01*
X184618691Y-98488500D01*
X184588452Y-98518738D01*
X184558214Y-98579214D01*
X184558214Y-98669929D01*
X184588452Y-98730405D01*
X184618691Y-98760643D01*
X184679167Y-98790881D01*
X184921072Y-98790881D01*
X183953452Y-99093262D02*
X184316310Y-99093262D01*
X184134881Y-99093262D02*
X184134881Y-98458262D01*
X184195357Y-98548976D01*
X184255833Y-98609452D01*
X184316310Y-98639690D01*
X183741786Y-98458262D02*
X183348690Y-98458262D01*
X183560357Y-98700167D01*
X183469643Y-98700167D01*
X183409167Y-98730405D01*
X183378929Y-98760643D01*
X183348690Y-98821119D01*
X183348690Y-98972310D01*
X183378929Y-99032786D01*
X183409167Y-99063024D01*
X183469643Y-99093262D01*
X183651071Y-99093262D01*
X183711548Y-99063024D01*
X183741786Y-99032786D01*
X184558214Y-92997262D02*
X184769881Y-92694881D01*
X184921072Y-92997262D02*
X184921072Y-92362262D01*
X184679167Y-92362262D01*
X184618691Y-92392500D01*
X184588452Y-92422738D01*
X184558214Y-92483214D01*
X184558214Y-92573929D01*
X184588452Y-92634405D01*
X184618691Y-92664643D01*
X184679167Y-92694881D01*
X184921072Y-92694881D01*
X183953452Y-92997262D02*
X184316310Y-92997262D01*
X184134881Y-92997262D02*
X184134881Y-92362262D01*
X184195357Y-92452976D01*
X184255833Y-92513452D01*
X184316310Y-92543690D01*
X183409167Y-92573929D02*
X183409167Y-92997262D01*
X183560357Y-92332024D02*
X183711548Y-92785595D01*
X183318452Y-92785595D01*
X184558214Y-101887262D02*
X184769881Y-101584881D01*
X184921072Y-101887262D02*
X184921072Y-101252262D01*
X184679167Y-101252262D01*
X184618691Y-101282500D01*
X184588452Y-101312738D01*
X184558214Y-101373214D01*
X184558214Y-101463929D01*
X184588452Y-101524405D01*
X184618691Y-101554643D01*
X184679167Y-101584881D01*
X184921072Y-101584881D01*
X183953452Y-101887262D02*
X184316310Y-101887262D01*
X184134881Y-101887262D02*
X184134881Y-101252262D01*
X184195357Y-101342976D01*
X184255833Y-101403452D01*
X184316310Y-101433690D01*
X183378929Y-101252262D02*
X183681310Y-101252262D01*
X183711548Y-101554643D01*
X183681310Y-101524405D01*
X183620833Y-101494167D01*
X183469643Y-101494167D01*
X183409167Y-101524405D01*
X183378929Y-101554643D01*
X183348690Y-101615119D01*
X183348690Y-101766310D01*
X183378929Y-101826786D01*
X183409167Y-101857024D01*
X183469643Y-101887262D01*
X183620833Y-101887262D01*
X183681310Y-101857024D01*
X183711548Y-101826786D01*
X118143262Y-83665786D02*
X117840881Y-83454119D01*
X118143262Y-83302928D02*
X117508262Y-83302928D01*
X117508262Y-83544833D01*
X117538500Y-83605309D01*
X117568738Y-83635548D01*
X117629214Y-83665786D01*
X117719929Y-83665786D01*
X117780405Y-83635548D01*
X117810643Y-83605309D01*
X117840881Y-83544833D01*
X117840881Y-83302928D01*
X118143262Y-84270548D02*
X118143262Y-83907690D01*
X118143262Y-84089119D02*
X117508262Y-84089119D01*
X117598976Y-84028643D01*
X117659452Y-83968167D01*
X117689690Y-83907690D01*
X117508262Y-84814833D02*
X117508262Y-84693881D01*
X117538500Y-84633405D01*
X117568738Y-84603167D01*
X117659452Y-84542690D01*
X117780405Y-84512452D01*
X118022310Y-84512452D01*
X118082786Y-84542690D01*
X118113024Y-84572929D01*
X118143262Y-84633405D01*
X118143262Y-84754357D01*
X118113024Y-84814833D01*
X118082786Y-84845071D01*
X118022310Y-84875310D01*
X117871119Y-84875310D01*
X117810643Y-84845071D01*
X117780405Y-84814833D01*
X117750167Y-84754357D01*
X117750167Y-84633405D01*
X117780405Y-84572929D01*
X117810643Y-84542690D01*
X117871119Y-84512452D01*
X133250214Y-82837262D02*
X133461881Y-82534881D01*
X133613072Y-82837262D02*
X133613072Y-82202262D01*
X133371167Y-82202262D01*
X133310691Y-82232500D01*
X133280452Y-82262738D01*
X133250214Y-82323214D01*
X133250214Y-82413929D01*
X133280452Y-82474405D01*
X133310691Y-82504643D01*
X133371167Y-82534881D01*
X133613072Y-82534881D01*
X132645452Y-82837262D02*
X133008310Y-82837262D01*
X132826881Y-82837262D02*
X132826881Y-82202262D01*
X132887357Y-82292976D01*
X132947833Y-82353452D01*
X133008310Y-82383690D01*
X132433786Y-82202262D02*
X132010452Y-82202262D01*
X132282595Y-82837262D01*
X125884214Y-95029262D02*
X126095881Y-94726881D01*
X126247072Y-95029262D02*
X126247072Y-94394262D01*
X126005167Y-94394262D01*
X125944691Y-94424500D01*
X125914452Y-94454738D01*
X125884214Y-94515214D01*
X125884214Y-94605929D01*
X125914452Y-94666405D01*
X125944691Y-94696643D01*
X126005167Y-94726881D01*
X126247072Y-94726881D01*
X125279452Y-95029262D02*
X125642310Y-95029262D01*
X125460881Y-95029262D02*
X125460881Y-94394262D01*
X125521357Y-94484976D01*
X125581833Y-94545452D01*
X125642310Y-94575690D01*
X124916595Y-94666405D02*
X124977071Y-94636167D01*
X125007310Y-94605929D01*
X125037548Y-94545452D01*
X125037548Y-94515214D01*
X125007310Y-94454738D01*
X124977071Y-94424500D01*
X124916595Y-94394262D01*
X124795643Y-94394262D01*
X124735167Y-94424500D01*
X124704929Y-94454738D01*
X124674690Y-94515214D01*
X124674690Y-94545452D01*
X124704929Y-94605929D01*
X124735167Y-94636167D01*
X124795643Y-94666405D01*
X124916595Y-94666405D01*
X124977071Y-94696643D01*
X125007310Y-94726881D01*
X125037548Y-94787357D01*
X125037548Y-94908310D01*
X125007310Y-94968786D01*
X124977071Y-94999024D01*
X124916595Y-95029262D01*
X124795643Y-95029262D01*
X124735167Y-94999024D01*
X124704929Y-94968786D01*
X124674690Y-94908310D01*
X124674690Y-94787357D01*
X124704929Y-94726881D01*
X124735167Y-94696643D01*
X124795643Y-94666405D01*
X120804214Y-95029262D02*
X121015881Y-94726881D01*
X121167072Y-95029262D02*
X121167072Y-94394262D01*
X120925167Y-94394262D01*
X120864691Y-94424500D01*
X120834452Y-94454738D01*
X120804214Y-94515214D01*
X120804214Y-94605929D01*
X120834452Y-94666405D01*
X120864691Y-94696643D01*
X120925167Y-94726881D01*
X121167072Y-94726881D01*
X120199452Y-95029262D02*
X120562310Y-95029262D01*
X120380881Y-95029262D02*
X120380881Y-94394262D01*
X120441357Y-94484976D01*
X120501833Y-94545452D01*
X120562310Y-94575690D01*
X119897071Y-95029262D02*
X119776119Y-95029262D01*
X119715643Y-94999024D01*
X119685405Y-94968786D01*
X119624929Y-94878071D01*
X119594690Y-94757119D01*
X119594690Y-94515214D01*
X119624929Y-94454738D01*
X119655167Y-94424500D01*
X119715643Y-94394262D01*
X119836595Y-94394262D01*
X119897071Y-94424500D01*
X119927310Y-94454738D01*
X119957548Y-94515214D01*
X119957548Y-94666405D01*
X119927310Y-94726881D01*
X119897071Y-94757119D01*
X119836595Y-94787357D01*
X119715643Y-94787357D01*
X119655167Y-94757119D01*
X119624929Y-94726881D01*
X119594690Y-94666405D01*
X118264214Y-87409262D02*
X118475881Y-87106881D01*
X118627072Y-87409262D02*
X118627072Y-86774262D01*
X118385167Y-86774262D01*
X118324691Y-86804500D01*
X118294452Y-86834738D01*
X118264214Y-86895214D01*
X118264214Y-86985929D01*
X118294452Y-87046405D01*
X118324691Y-87076643D01*
X118385167Y-87106881D01*
X118627072Y-87106881D01*
X118022310Y-86834738D02*
X117992072Y-86804500D01*
X117931595Y-86774262D01*
X117780405Y-86774262D01*
X117719929Y-86804500D01*
X117689691Y-86834738D01*
X117659452Y-86895214D01*
X117659452Y-86955690D01*
X117689691Y-87046405D01*
X118052548Y-87409262D01*
X117659452Y-87409262D01*
X117266357Y-86774262D02*
X117205881Y-86774262D01*
X117145405Y-86804500D01*
X117115167Y-86834738D01*
X117084929Y-86895214D01*
X117054690Y-87016167D01*
X117054690Y-87167357D01*
X117084929Y-87288310D01*
X117115167Y-87348786D01*
X117145405Y-87379024D01*
X117205881Y-87409262D01*
X117266357Y-87409262D01*
X117326833Y-87379024D01*
X117357071Y-87348786D01*
X117387310Y-87288310D01*
X117417548Y-87167357D01*
X117417548Y-87016167D01*
X117387310Y-86895214D01*
X117357071Y-86834738D01*
X117326833Y-86804500D01*
X117266357Y-86774262D01*
X123344214Y-84869262D02*
X123555881Y-84566881D01*
X123707072Y-84869262D02*
X123707072Y-84234262D01*
X123465167Y-84234262D01*
X123404691Y-84264500D01*
X123374452Y-84294738D01*
X123344214Y-84355214D01*
X123344214Y-84445929D01*
X123374452Y-84506405D01*
X123404691Y-84536643D01*
X123465167Y-84566881D01*
X123707072Y-84566881D01*
X123102310Y-84294738D02*
X123072072Y-84264500D01*
X123011595Y-84234262D01*
X122860405Y-84234262D01*
X122799929Y-84264500D01*
X122769691Y-84294738D01*
X122739452Y-84355214D01*
X122739452Y-84415690D01*
X122769691Y-84506405D01*
X123132548Y-84869262D01*
X122739452Y-84869262D01*
X122134690Y-84869262D02*
X122497548Y-84869262D01*
X122316119Y-84869262D02*
X122316119Y-84234262D01*
X122376595Y-84324976D01*
X122437071Y-84385452D01*
X122497548Y-84415690D01*
X128424214Y-87409262D02*
X128635881Y-87106881D01*
X128787072Y-87409262D02*
X128787072Y-86774262D01*
X128545167Y-86774262D01*
X128484691Y-86804500D01*
X128454452Y-86834738D01*
X128424214Y-86895214D01*
X128424214Y-86985929D01*
X128454452Y-87046405D01*
X128484691Y-87076643D01*
X128545167Y-87106881D01*
X128787072Y-87106881D01*
X128182310Y-86834738D02*
X128152072Y-86804500D01*
X128091595Y-86774262D01*
X127940405Y-86774262D01*
X127879929Y-86804500D01*
X127849691Y-86834738D01*
X127819452Y-86895214D01*
X127819452Y-86955690D01*
X127849691Y-87046405D01*
X128212548Y-87409262D01*
X127819452Y-87409262D01*
X127577548Y-86834738D02*
X127547310Y-86804500D01*
X127486833Y-86774262D01*
X127335643Y-86774262D01*
X127275167Y-86804500D01*
X127244929Y-86834738D01*
X127214690Y-86895214D01*
X127214690Y-86955690D01*
X127244929Y-87046405D01*
X127607786Y-87409262D01*
X127214690Y-87409262D01*
X123344214Y-87409262D02*
X123555881Y-87106881D01*
X123707072Y-87409262D02*
X123707072Y-86774262D01*
X123465167Y-86774262D01*
X123404691Y-86804500D01*
X123374452Y-86834738D01*
X123344214Y-86895214D01*
X123344214Y-86985929D01*
X123374452Y-87046405D01*
X123404691Y-87076643D01*
X123465167Y-87106881D01*
X123707072Y-87106881D01*
X123102310Y-86834738D02*
X123072072Y-86804500D01*
X123011595Y-86774262D01*
X122860405Y-86774262D01*
X122799929Y-86804500D01*
X122769691Y-86834738D01*
X122739452Y-86895214D01*
X122739452Y-86955690D01*
X122769691Y-87046405D01*
X123132548Y-87409262D01*
X122739452Y-87409262D01*
X122527786Y-86774262D02*
X122134690Y-86774262D01*
X122346357Y-87016167D01*
X122255643Y-87016167D01*
X122195167Y-87046405D01*
X122164929Y-87076643D01*
X122134690Y-87137119D01*
X122134690Y-87288310D01*
X122164929Y-87348786D01*
X122195167Y-87379024D01*
X122255643Y-87409262D01*
X122437071Y-87409262D01*
X122497548Y-87379024D01*
X122527786Y-87348786D01*
X150147262Y-110081786D02*
X149844881Y-109870119D01*
X150147262Y-109718928D02*
X149512262Y-109718928D01*
X149512262Y-109960833D01*
X149542500Y-110021309D01*
X149572738Y-110051548D01*
X149633214Y-110081786D01*
X149723929Y-110081786D01*
X149784405Y-110051548D01*
X149814643Y-110021309D01*
X149844881Y-109960833D01*
X149844881Y-109718928D01*
X149572738Y-110323690D02*
X149542500Y-110353928D01*
X149512262Y-110414405D01*
X149512262Y-110565595D01*
X149542500Y-110626071D01*
X149572738Y-110656309D01*
X149633214Y-110686548D01*
X149693690Y-110686548D01*
X149784405Y-110656309D01*
X150147262Y-110293452D01*
X150147262Y-110686548D01*
X149723929Y-111230833D02*
X150147262Y-111230833D01*
X149482024Y-111079643D02*
X149935595Y-110928452D01*
X149935595Y-111321548D01*
X141765262Y-110081786D02*
X141462881Y-109870119D01*
X141765262Y-109718928D02*
X141130262Y-109718928D01*
X141130262Y-109960833D01*
X141160500Y-110021309D01*
X141190738Y-110051548D01*
X141251214Y-110081786D01*
X141341929Y-110081786D01*
X141402405Y-110051548D01*
X141432643Y-110021309D01*
X141462881Y-109960833D01*
X141462881Y-109718928D01*
X141190738Y-110323690D02*
X141160500Y-110353928D01*
X141130262Y-110414405D01*
X141130262Y-110565595D01*
X141160500Y-110626071D01*
X141190738Y-110656309D01*
X141251214Y-110686548D01*
X141311690Y-110686548D01*
X141402405Y-110656309D01*
X141765262Y-110293452D01*
X141765262Y-110686548D01*
X141130262Y-111261071D02*
X141130262Y-110958690D01*
X141432643Y-110928452D01*
X141402405Y-110958690D01*
X141372167Y-111019167D01*
X141372167Y-111170357D01*
X141402405Y-111230833D01*
X141432643Y-111261071D01*
X141493119Y-111291310D01*
X141644310Y-111291310D01*
X141704786Y-111261071D01*
X141735024Y-111230833D01*
X141765262Y-111170357D01*
X141765262Y-111019167D01*
X141735024Y-110958690D01*
X141704786Y-110928452D01*
X163476214Y-92997262D02*
X163687881Y-92694881D01*
X163839072Y-92997262D02*
X163839072Y-92362262D01*
X163597167Y-92362262D01*
X163536691Y-92392500D01*
X163506452Y-92422738D01*
X163476214Y-92483214D01*
X163476214Y-92573929D01*
X163506452Y-92634405D01*
X163536691Y-92664643D01*
X163597167Y-92694881D01*
X163839072Y-92694881D01*
X163234310Y-92422738D02*
X163204072Y-92392500D01*
X163143595Y-92362262D01*
X162992405Y-92362262D01*
X162931929Y-92392500D01*
X162901691Y-92422738D01*
X162871452Y-92483214D01*
X162871452Y-92543690D01*
X162901691Y-92634405D01*
X163264548Y-92997262D01*
X162871452Y-92997262D01*
X162327167Y-92362262D02*
X162448119Y-92362262D01*
X162508595Y-92392500D01*
X162538833Y-92422738D01*
X162599310Y-92513452D01*
X162629548Y-92634405D01*
X162629548Y-92876310D01*
X162599310Y-92936786D01*
X162569071Y-92967024D01*
X162508595Y-92997262D01*
X162387643Y-92997262D01*
X162327167Y-92967024D01*
X162296929Y-92936786D01*
X162266690Y-92876310D01*
X162266690Y-92725119D01*
X162296929Y-92664643D01*
X162327167Y-92634405D01*
X162387643Y-92604167D01*
X162508595Y-92604167D01*
X162569071Y-92634405D01*
X162599310Y-92664643D01*
X162629548Y-92725119D01*
X166911262Y-79855786D02*
X166608881Y-79644119D01*
X166911262Y-79492928D02*
X166276262Y-79492928D01*
X166276262Y-79734833D01*
X166306500Y-79795309D01*
X166336738Y-79825548D01*
X166397214Y-79855786D01*
X166487929Y-79855786D01*
X166548405Y-79825548D01*
X166578643Y-79795309D01*
X166608881Y-79734833D01*
X166608881Y-79492928D01*
X166336738Y-80097690D02*
X166306500Y-80127928D01*
X166276262Y-80188405D01*
X166276262Y-80339595D01*
X166306500Y-80400071D01*
X166336738Y-80430309D01*
X166397214Y-80460548D01*
X166457690Y-80460548D01*
X166548405Y-80430309D01*
X166911262Y-80067452D01*
X166911262Y-80460548D01*
X166276262Y-80672214D02*
X166276262Y-81095548D01*
X166911262Y-80823405D01*
X146839214Y-115095262D02*
X147050881Y-114792881D01*
X147202072Y-115095262D02*
X147202072Y-114460262D01*
X146960167Y-114460262D01*
X146899691Y-114490500D01*
X146869452Y-114520738D01*
X146839214Y-114581214D01*
X146839214Y-114671929D01*
X146869452Y-114732405D01*
X146899691Y-114762643D01*
X146960167Y-114792881D01*
X147202072Y-114792881D01*
X146597310Y-114520738D02*
X146567072Y-114490500D01*
X146506595Y-114460262D01*
X146355405Y-114460262D01*
X146294929Y-114490500D01*
X146264691Y-114520738D01*
X146234452Y-114581214D01*
X146234452Y-114641690D01*
X146264691Y-114732405D01*
X146627548Y-115095262D01*
X146234452Y-115095262D01*
X145871595Y-114732405D02*
X145932071Y-114702167D01*
X145962310Y-114671929D01*
X145992548Y-114611452D01*
X145992548Y-114581214D01*
X145962310Y-114520738D01*
X145932071Y-114490500D01*
X145871595Y-114460262D01*
X145750643Y-114460262D01*
X145690167Y-114490500D01*
X145659929Y-114520738D01*
X145629690Y-114581214D01*
X145629690Y-114611452D01*
X145659929Y-114671929D01*
X145690167Y-114702167D01*
X145750643Y-114732405D01*
X145871595Y-114732405D01*
X145932071Y-114762643D01*
X145962310Y-114792881D01*
X145992548Y-114853357D01*
X145992548Y-114974310D01*
X145962310Y-115034786D01*
X145932071Y-115065024D01*
X145871595Y-115095262D01*
X145750643Y-115095262D01*
X145690167Y-115065024D01*
X145659929Y-115034786D01*
X145629690Y-114974310D01*
X145629690Y-114853357D01*
X145659929Y-114792881D01*
X145690167Y-114762643D01*
X145750643Y-114732405D01*
X168943262Y-109827786D02*
X168640881Y-109616119D01*
X168943262Y-109464928D02*
X168308262Y-109464928D01*
X168308262Y-109706833D01*
X168338500Y-109767309D01*
X168368738Y-109797548D01*
X168429214Y-109827786D01*
X168519929Y-109827786D01*
X168580405Y-109797548D01*
X168610643Y-109767309D01*
X168640881Y-109706833D01*
X168640881Y-109464928D01*
X168368738Y-110069690D02*
X168338500Y-110099928D01*
X168308262Y-110160405D01*
X168308262Y-110311595D01*
X168338500Y-110372071D01*
X168368738Y-110402309D01*
X168429214Y-110432548D01*
X168489690Y-110432548D01*
X168580405Y-110402309D01*
X168943262Y-110039452D01*
X168943262Y-110432548D01*
X168943262Y-110734929D02*
X168943262Y-110855881D01*
X168913024Y-110916357D01*
X168882786Y-110946595D01*
X168792071Y-111007071D01*
X168671119Y-111037310D01*
X168429214Y-111037310D01*
X168368738Y-111007071D01*
X168338500Y-110976833D01*
X168308262Y-110916357D01*
X168308262Y-110795405D01*
X168338500Y-110734929D01*
X168368738Y-110704690D01*
X168429214Y-110674452D01*
X168580405Y-110674452D01*
X168640881Y-110704690D01*
X168671119Y-110734929D01*
X168701357Y-110795405D01*
X168701357Y-110916357D01*
X168671119Y-110976833D01*
X168640881Y-111007071D01*
X168580405Y-111037310D01*
X174023262Y-109827786D02*
X173720881Y-109616119D01*
X174023262Y-109464928D02*
X173388262Y-109464928D01*
X173388262Y-109706833D01*
X173418500Y-109767309D01*
X173448738Y-109797548D01*
X173509214Y-109827786D01*
X173599929Y-109827786D01*
X173660405Y-109797548D01*
X173690643Y-109767309D01*
X173720881Y-109706833D01*
X173720881Y-109464928D01*
X173388262Y-110039452D02*
X173388262Y-110432548D01*
X173630167Y-110220881D01*
X173630167Y-110311595D01*
X173660405Y-110372071D01*
X173690643Y-110402309D01*
X173751119Y-110432548D01*
X173902310Y-110432548D01*
X173962786Y-110402309D01*
X173993024Y-110372071D01*
X174023262Y-110311595D01*
X174023262Y-110130167D01*
X173993024Y-110069690D01*
X173962786Y-110039452D01*
X173388262Y-110825643D02*
X173388262Y-110886119D01*
X173418500Y-110946595D01*
X173448738Y-110976833D01*
X173509214Y-111007071D01*
X173630167Y-111037310D01*
X173781357Y-111037310D01*
X173902310Y-111007071D01*
X173962786Y-110976833D01*
X173993024Y-110946595D01*
X174023262Y-110886119D01*
X174023262Y-110825643D01*
X173993024Y-110765167D01*
X173962786Y-110734929D01*
X173902310Y-110704690D01*
X173781357Y-110674452D01*
X173630167Y-110674452D01*
X173509214Y-110704690D01*
X173448738Y-110734929D01*
X173418500Y-110765167D01*
X173388262Y-110825643D01*
X178716214Y-108491262D02*
X178927881Y-108188881D01*
X179079072Y-108491262D02*
X179079072Y-107856262D01*
X178837167Y-107856262D01*
X178776691Y-107886500D01*
X178746452Y-107916738D01*
X178716214Y-107977214D01*
X178716214Y-108067929D01*
X178746452Y-108128405D01*
X178776691Y-108158643D01*
X178837167Y-108188881D01*
X179079072Y-108188881D01*
X178504548Y-107856262D02*
X178111452Y-107856262D01*
X178323119Y-108098167D01*
X178232405Y-108098167D01*
X178171929Y-108128405D01*
X178141691Y-108158643D01*
X178111452Y-108219119D01*
X178111452Y-108370310D01*
X178141691Y-108430786D01*
X178171929Y-108461024D01*
X178232405Y-108491262D01*
X178413833Y-108491262D01*
X178474310Y-108461024D01*
X178504548Y-108430786D01*
X177506690Y-108491262D02*
X177869548Y-108491262D01*
X177688119Y-108491262D02*
X177688119Y-107856262D01*
X177748595Y-107946976D01*
X177809071Y-108007452D01*
X177869548Y-108037690D01*
X178716214Y-112301262D02*
X178927881Y-111998881D01*
X179079072Y-112301262D02*
X179079072Y-111666262D01*
X178837167Y-111666262D01*
X178776691Y-111696500D01*
X178746452Y-111726738D01*
X178716214Y-111787214D01*
X178716214Y-111877929D01*
X178746452Y-111938405D01*
X178776691Y-111968643D01*
X178837167Y-111998881D01*
X179079072Y-111998881D01*
X178504548Y-111666262D02*
X178111452Y-111666262D01*
X178323119Y-111908167D01*
X178232405Y-111908167D01*
X178171929Y-111938405D01*
X178141691Y-111968643D01*
X178111452Y-112029119D01*
X178111452Y-112180310D01*
X178141691Y-112240786D01*
X178171929Y-112271024D01*
X178232405Y-112301262D01*
X178413833Y-112301262D01*
X178474310Y-112271024D01*
X178504548Y-112240786D01*
X177869548Y-111726738D02*
X177839310Y-111696500D01*
X177778833Y-111666262D01*
X177627643Y-111666262D01*
X177567167Y-111696500D01*
X177536929Y-111726738D01*
X177506690Y-111787214D01*
X177506690Y-111847690D01*
X177536929Y-111938405D01*
X177899786Y-112301262D01*
X177506690Y-112301262D01*
X101500214Y-81821262D02*
X101711881Y-81518881D01*
X101863072Y-81821262D02*
X101863072Y-81186262D01*
X101621167Y-81186262D01*
X101560691Y-81216500D01*
X101530452Y-81246738D01*
X101500214Y-81307214D01*
X101500214Y-81397929D01*
X101530452Y-81458405D01*
X101560691Y-81488643D01*
X101621167Y-81518881D01*
X101863072Y-81518881D01*
X101288548Y-81186262D02*
X100895452Y-81186262D01*
X101107119Y-81428167D01*
X101016405Y-81428167D01*
X100955929Y-81458405D01*
X100925691Y-81488643D01*
X100895452Y-81549119D01*
X100895452Y-81700310D01*
X100925691Y-81760786D01*
X100955929Y-81791024D01*
X101016405Y-81821262D01*
X101197833Y-81821262D01*
X101258310Y-81791024D01*
X101288548Y-81760786D01*
X100683786Y-81186262D02*
X100290690Y-81186262D01*
X100502357Y-81428167D01*
X100411643Y-81428167D01*
X100351167Y-81458405D01*
X100320929Y-81488643D01*
X100290690Y-81549119D01*
X100290690Y-81700310D01*
X100320929Y-81760786D01*
X100351167Y-81791024D01*
X100411643Y-81821262D01*
X100593071Y-81821262D01*
X100653548Y-81791024D01*
X100683786Y-81760786D01*
X142019262Y-77823786D02*
X141716881Y-77612119D01*
X142019262Y-77460928D02*
X141384262Y-77460928D01*
X141384262Y-77702833D01*
X141414500Y-77763309D01*
X141444738Y-77793548D01*
X141505214Y-77823786D01*
X141595929Y-77823786D01*
X141656405Y-77793548D01*
X141686643Y-77763309D01*
X141716881Y-77702833D01*
X141716881Y-77460928D01*
X141384262Y-78035452D02*
X141384262Y-78428548D01*
X141626167Y-78216881D01*
X141626167Y-78307595D01*
X141656405Y-78368071D01*
X141686643Y-78398309D01*
X141747119Y-78428548D01*
X141898310Y-78428548D01*
X141958786Y-78398309D01*
X141989024Y-78368071D01*
X142019262Y-78307595D01*
X142019262Y-78126167D01*
X141989024Y-78065690D01*
X141958786Y-78035452D01*
X141595929Y-78972833D02*
X142019262Y-78972833D01*
X141354024Y-78821643D02*
X141807595Y-78670452D01*
X141807595Y-79063548D01*
X153703262Y-107795786D02*
X153400881Y-107584119D01*
X153703262Y-107432928D02*
X153068262Y-107432928D01*
X153068262Y-107674833D01*
X153098500Y-107735309D01*
X153128738Y-107765548D01*
X153189214Y-107795786D01*
X153279929Y-107795786D01*
X153340405Y-107765548D01*
X153370643Y-107735309D01*
X153400881Y-107674833D01*
X153400881Y-107432928D01*
X153068262Y-108007452D02*
X153068262Y-108400548D01*
X153310167Y-108188881D01*
X153310167Y-108279595D01*
X153340405Y-108340071D01*
X153370643Y-108370309D01*
X153431119Y-108400548D01*
X153582310Y-108400548D01*
X153642786Y-108370309D01*
X153673024Y-108340071D01*
X153703262Y-108279595D01*
X153703262Y-108098167D01*
X153673024Y-108037690D01*
X153642786Y-108007452D01*
X153068262Y-108975071D02*
X153068262Y-108672690D01*
X153370643Y-108642452D01*
X153340405Y-108672690D01*
X153310167Y-108733167D01*
X153310167Y-108884357D01*
X153340405Y-108944833D01*
X153370643Y-108975071D01*
X153431119Y-109005310D01*
X153582310Y-109005310D01*
X153642786Y-108975071D01*
X153673024Y-108944833D01*
X153703262Y-108884357D01*
X153703262Y-108733167D01*
X153673024Y-108672690D01*
X153642786Y-108642452D01*
X157005262Y-79855786D02*
X156702881Y-79644119D01*
X157005262Y-79492928D02*
X156370262Y-79492928D01*
X156370262Y-79734833D01*
X156400500Y-79795309D01*
X156430738Y-79825548D01*
X156491214Y-79855786D01*
X156581929Y-79855786D01*
X156642405Y-79825548D01*
X156672643Y-79795309D01*
X156702881Y-79734833D01*
X156702881Y-79492928D01*
X156370262Y-80067452D02*
X156370262Y-80460548D01*
X156612167Y-80248881D01*
X156612167Y-80339595D01*
X156642405Y-80400071D01*
X156672643Y-80430309D01*
X156733119Y-80460548D01*
X156884310Y-80460548D01*
X156944786Y-80430309D01*
X156975024Y-80400071D01*
X157005262Y-80339595D01*
X157005262Y-80158167D01*
X156975024Y-80097690D01*
X156944786Y-80067452D01*
X156370262Y-81004833D02*
X156370262Y-80883881D01*
X156400500Y-80823405D01*
X156430738Y-80793167D01*
X156521452Y-80732690D01*
X156642405Y-80702452D01*
X156884310Y-80702452D01*
X156944786Y-80732690D01*
X156975024Y-80762929D01*
X157005262Y-80823405D01*
X157005262Y-80944357D01*
X156975024Y-81004833D01*
X156944786Y-81035071D01*
X156884310Y-81065310D01*
X156733119Y-81065310D01*
X156672643Y-81035071D01*
X156642405Y-81004833D01*
X156612167Y-80944357D01*
X156612167Y-80823405D01*
X156642405Y-80762929D01*
X156672643Y-80732690D01*
X156733119Y-80702452D01*
X173388262Y-114024833D02*
X174023262Y-114236500D01*
X173388262Y-114448167D01*
X174023262Y-115022691D02*
X173720881Y-114811024D01*
X174023262Y-114659833D02*
X173388262Y-114659833D01*
X173388262Y-114901738D01*
X173418500Y-114962214D01*
X173448738Y-114992453D01*
X173509214Y-115022691D01*
X173599929Y-115022691D01*
X173660405Y-114992453D01*
X173690643Y-114962214D01*
X173720881Y-114901738D01*
X173720881Y-114659833D01*
X170201167Y-114460262D02*
X169989500Y-115095262D01*
X169777833Y-114460262D01*
X169203309Y-115095262D02*
X169414976Y-114792881D01*
X169566167Y-115095262D02*
X169566167Y-114460262D01*
X169324262Y-114460262D01*
X169263786Y-114490500D01*
X169233547Y-114520738D01*
X169203309Y-114581214D01*
X169203309Y-114671929D01*
X169233547Y-114732405D01*
X169263786Y-114762643D01*
X169324262Y-114792881D01*
X169566167Y-114792881D01*
X156751262Y-117447786D02*
X156448881Y-117236119D01*
X156751262Y-117084928D02*
X156116262Y-117084928D01*
X156116262Y-117326833D01*
X156146500Y-117387309D01*
X156176738Y-117417548D01*
X156237214Y-117447786D01*
X156327929Y-117447786D01*
X156388405Y-117417548D01*
X156418643Y-117387309D01*
X156448881Y-117326833D01*
X156448881Y-117084928D01*
X156116262Y-117659452D02*
X156116262Y-118052548D01*
X156358167Y-117840881D01*
X156358167Y-117931595D01*
X156388405Y-117992071D01*
X156418643Y-118022309D01*
X156479119Y-118052548D01*
X156630310Y-118052548D01*
X156690786Y-118022309D01*
X156721024Y-117992071D01*
X156751262Y-117931595D01*
X156751262Y-117750167D01*
X156721024Y-117689690D01*
X156690786Y-117659452D01*
X156116262Y-118264214D02*
X156116262Y-118687548D01*
X156751262Y-118415405D01*
D10*
X144486381Y-100330095D02*
X145295905Y-100330095D01*
X145391143Y-100377714D01*
X145438762Y-100425333D01*
X145486381Y-100520571D01*
X145486381Y-100711048D01*
X145438762Y-100806286D01*
X145391143Y-100853905D01*
X145295905Y-100901524D01*
X144486381Y-100901524D01*
X145486381Y-101901524D02*
X145486381Y-101330095D01*
X145486381Y-101615809D02*
X144486381Y-101615809D01*
X144629238Y-101520571D01*
X144724476Y-101425333D01*
X144772095Y-101330095D01*
X147915381Y-97449095D02*
X147915381Y-98115762D01*
X148915381Y-97687190D01*
X148248714Y-98925286D02*
X148915381Y-98925286D01*
X147867762Y-98687190D02*
X148582048Y-98449095D01*
X148582048Y-99068143D01*
X148915381Y-99449095D02*
X147915381Y-99449095D01*
X148391571Y-99449095D02*
X148391571Y-100020524D01*
X148915381Y-100020524D02*
X147915381Y-100020524D01*
X148820143Y-101068143D02*
X148867762Y-101020524D01*
X148915381Y-100877667D01*
X148915381Y-100782429D01*
X148867762Y-100639571D01*
X148772524Y-100544333D01*
X148677286Y-100496714D01*
X148486810Y-100449095D01*
X148343952Y-100449095D01*
X148153476Y-100496714D01*
X148058238Y-100544333D01*
X147963000Y-100639571D01*
X147915381Y-100782429D01*
X147915381Y-100877667D01*
X147963000Y-101020524D01*
X148010619Y-101068143D01*
X147915381Y-101972905D02*
X147915381Y-101496714D01*
X148391571Y-101449095D01*
X148343952Y-101496714D01*
X148296333Y-101591952D01*
X148296333Y-101830048D01*
X148343952Y-101925286D01*
X148391571Y-101972905D01*
X148486810Y-102020524D01*
X148724905Y-102020524D01*
X148820143Y-101972905D01*
X148867762Y-101925286D01*
X148915381Y-101830048D01*
X148915381Y-101591952D01*
X148867762Y-101496714D01*
X148820143Y-101449095D01*
X148915381Y-102496714D02*
X148915381Y-102687190D01*
X148867762Y-102782429D01*
X148820143Y-102830048D01*
X148677286Y-102925286D01*
X148486810Y-102972905D01*
X148105857Y-102972905D01*
X148010619Y-102925286D01*
X147963000Y-102877667D01*
X147915381Y-102782429D01*
X147915381Y-102591952D01*
X147963000Y-102496714D01*
X148010619Y-102449095D01*
X148105857Y-102401476D01*
X148343952Y-102401476D01*
X148439190Y-102449095D01*
X148486810Y-102496714D01*
X148534429Y-102591952D01*
X148534429Y-102782429D01*
X148486810Y-102877667D01*
X148439190Y-102925286D01*
X148343952Y-102972905D01*
X147915381Y-103877667D02*
X147915381Y-103401476D01*
X148391571Y-103353857D01*
X148343952Y-103401476D01*
X148296333Y-103496714D01*
X148296333Y-103734810D01*
X148343952Y-103830048D01*
X148391571Y-103877667D01*
X148486810Y-103925286D01*
X148724905Y-103925286D01*
X148820143Y-103877667D01*
X148867762Y-103830048D01*
X148915381Y-103734810D01*
X148915381Y-103496714D01*
X148867762Y-103401476D01*
X148820143Y-103353857D01*
X144486381Y-86360095D02*
X145295905Y-86360095D01*
X145391143Y-86407714D01*
X145438762Y-86455333D01*
X145486381Y-86550571D01*
X145486381Y-86741048D01*
X145438762Y-86836286D01*
X145391143Y-86883905D01*
X145295905Y-86931524D01*
X144486381Y-86931524D01*
X144486381Y-87312476D02*
X144486381Y-87931524D01*
X144867333Y-87598190D01*
X144867333Y-87741048D01*
X144914952Y-87836286D01*
X144962571Y-87883905D01*
X145057810Y-87931524D01*
X145295905Y-87931524D01*
X145391143Y-87883905D01*
X145438762Y-87836286D01*
X145486381Y-87741048D01*
X145486381Y-87455333D01*
X145438762Y-87360095D01*
X145391143Y-87312476D01*
X147915381Y-83479095D02*
X147915381Y-84145762D01*
X148915381Y-83717190D01*
X148248714Y-84955286D02*
X148915381Y-84955286D01*
X147867762Y-84717190D02*
X148582048Y-84479095D01*
X148582048Y-85098143D01*
X148915381Y-85479095D02*
X147915381Y-85479095D01*
X148391571Y-85479095D02*
X148391571Y-86050524D01*
X148915381Y-86050524D02*
X147915381Y-86050524D01*
X148820143Y-87098143D02*
X148867762Y-87050524D01*
X148915381Y-86907667D01*
X148915381Y-86812429D01*
X148867762Y-86669571D01*
X148772524Y-86574333D01*
X148677286Y-86526714D01*
X148486810Y-86479095D01*
X148343952Y-86479095D01*
X148153476Y-86526714D01*
X148058238Y-86574333D01*
X147963000Y-86669571D01*
X147915381Y-86812429D01*
X147915381Y-86907667D01*
X147963000Y-87050524D01*
X148010619Y-87098143D01*
X147915381Y-88002905D02*
X147915381Y-87526714D01*
X148391571Y-87479095D01*
X148343952Y-87526714D01*
X148296333Y-87621952D01*
X148296333Y-87860048D01*
X148343952Y-87955286D01*
X148391571Y-88002905D01*
X148486810Y-88050524D01*
X148724905Y-88050524D01*
X148820143Y-88002905D01*
X148867762Y-87955286D01*
X148915381Y-87860048D01*
X148915381Y-87621952D01*
X148867762Y-87526714D01*
X148820143Y-87479095D01*
X148915381Y-88526714D02*
X148915381Y-88717190D01*
X148867762Y-88812429D01*
X148820143Y-88860048D01*
X148677286Y-88955286D01*
X148486810Y-89002905D01*
X148105857Y-89002905D01*
X148010619Y-88955286D01*
X147963000Y-88907667D01*
X147915381Y-88812429D01*
X147915381Y-88621952D01*
X147963000Y-88526714D01*
X148010619Y-88479095D01*
X148105857Y-88431476D01*
X148343952Y-88431476D01*
X148439190Y-88479095D01*
X148486810Y-88526714D01*
X148534429Y-88621952D01*
X148534429Y-88812429D01*
X148486810Y-88907667D01*
X148439190Y-88955286D01*
X148343952Y-89002905D01*
X147915381Y-89907667D02*
X147915381Y-89431476D01*
X148391571Y-89383857D01*
X148343952Y-89431476D01*
X148296333Y-89526714D01*
X148296333Y-89764810D01*
X148343952Y-89860048D01*
X148391571Y-89907667D01*
X148486810Y-89955286D01*
X148724905Y-89955286D01*
X148820143Y-89907667D01*
X148867762Y-89860048D01*
X148915381Y-89764810D01*
X148915381Y-89526714D01*
X148867762Y-89431476D01*
X148820143Y-89383857D01*
D20*
X146799905Y-110777262D02*
X146799905Y-110142262D01*
X146497524Y-110777262D02*
X146497524Y-110142262D01*
X146134666Y-110777262D01*
X146134666Y-110142262D01*
X145862524Y-110595833D02*
X145560143Y-110595833D01*
X145923000Y-110777262D02*
X145711333Y-110142262D01*
X145499666Y-110777262D01*
X145318238Y-110202738D02*
X145288000Y-110172500D01*
X145227523Y-110142262D01*
X145076333Y-110142262D01*
X145015857Y-110172500D01*
X144985619Y-110202738D01*
X144955380Y-110263214D01*
X144955380Y-110323690D01*
X144985619Y-110414405D01*
X145348476Y-110777262D01*
X144955380Y-110777262D01*
X144350618Y-110777262D02*
X144713476Y-110777262D01*
X144532047Y-110777262D02*
X144532047Y-110142262D01*
X144592523Y-110232976D01*
X144652999Y-110293452D01*
X144713476Y-110323690D01*
X144048237Y-110777262D02*
X143927285Y-110777262D01*
X143866809Y-110747024D01*
X143836571Y-110716786D01*
X143776095Y-110626071D01*
X143745856Y-110505119D01*
X143745856Y-110263214D01*
X143776095Y-110202738D01*
X143806333Y-110172500D01*
X143866809Y-110142262D01*
X143987761Y-110142262D01*
X144048237Y-110172500D01*
X144078476Y-110202738D01*
X144108714Y-110263214D01*
X144108714Y-110414405D01*
X144078476Y-110474881D01*
X144048237Y-110505119D01*
X143987761Y-110535357D01*
X143866809Y-110535357D01*
X143806333Y-110505119D01*
X143776095Y-110474881D01*
X143745856Y-110414405D01*
M02*
