M48
INCH,TZ
T1C0.024
T2C0.025
T3C0.030
T4C0.031
T5C0.040
T6C0.079
T7C0.090
T8C0.118
%
G90
G05
T1
X45000Y-41625
X45000Y-42413
X45000Y-43200
X45000Y-43987
X45000Y-44775
X46000Y-31800
X46000Y-35800
X47000Y-31800
X47000Y-35800
X48000Y-31800
X48000Y-35800
X48370Y-46646
X48500Y-41625
X48500Y-42413
X48500Y-43200
X48500Y-43987
X48500Y-44775
X48685Y-47354
X49000Y-31800
X49000Y-35800
X49000Y-46646
X49315Y-47354
X49630Y-46646
X50000Y-31800
X50000Y-35800
X51000Y-31800
X51000Y-35800
X52000Y-41625
X52000Y-42413
X52000Y-43200
X52000Y-43987
X52000Y-44775
T2
X39050Y-31500
X39050Y-33000
X39050Y-34500
X41200Y-31500
X41200Y-37900
X42550Y-39500
X42600Y-45000
X43100Y-30250
X43200Y-42000
X43300Y-34700
X43350Y-40550
X43807Y-27607
X44150Y-38350
X44950Y-30250
X45100Y-38500
X45500Y-40550
X45700Y-33900
X46050Y-39100
X46100Y-30250
X47950Y-30250
X48150Y-39150
X49050Y-30250
X49500Y-32900
X50950Y-30250
X51650Y-38750
X51700Y-35800
X51700Y-36700
X51700Y-39200
X51800Y-33200
X52000Y-34000
X52050Y-30250
X52200Y-36200
X52500Y-37550
X52500Y-39800
X52600Y-46400
X53100Y-38250
X53100Y-38800
X53400Y-32400
X53700Y-36150
X53950Y-30250
X54000Y-33500
X54100Y-38800
X54200Y-39500
X54493Y-42900
X54500Y-40700
X55650Y-37600
X55800Y-30200
X56150Y-45100
X56400Y-31600
X56500Y-40550
X56900Y-41000
X56950Y-39900
X57000Y-30200
X57500Y-35600
X57500Y-37100
X57600Y-41100
X58050Y-43500
X58050Y-44000
X58050Y-44450
X58100Y-43000
X58200Y-34050
X58550Y-45100
X58650Y-40550
X58850Y-39750
X59600Y-44600
X60200Y-43650
X60350Y-48000
X60400Y-39400
X60600Y-33100
X61000Y-39000
X61000Y-40800
X61000Y-42100
X61750Y-37700
X61800Y-43650
X61850Y-44350
X62300Y-35400
X62400Y-39600
X62450Y-43000
X62500Y-38600
X62500Y-41000
X62700Y-44000
X63100Y-31600
X63200Y-40500
X63300Y-33900
X63300Y-38200
X63600Y-40000
X63600Y-40950
X63800Y-33900
X63800Y-38200
X63900Y-36800
X64300Y-33900
X64400Y-34900
X64400Y-36800
X64400Y-38500
X64550Y-40950
X64700Y-35400
X64800Y-33900
X64900Y-41300
X64950Y-38900
X65000Y-42700
X65000Y-45100
X65050Y-36700
X65500Y-39450
X65500Y-40300
X65500Y-40900
X65500Y-42700
X66000Y-35400
X66400Y-45200
X67000Y-36800
X67000Y-39500
X67000Y-40900
X67100Y-31600
X67200Y-45800
X67800Y-40900
X67950Y-40450
X68700Y-40100
X68900Y-42000
X68900Y-43500
X71200Y-42000
X71200Y-43500
X71200Y-44200
X71600Y-35400
X71600Y-36500
X71600Y-37700
X71600Y-38900
X72100Y-41050
T3
X42000Y-32750
X42000Y-33750
X42000Y-34750
X42000Y-35750
X42000Y-36750
X42000Y-37750
X42000Y-38750
X42000Y-39750
T4
X39700Y-42607
X39700Y-43393
X43607Y-47000
X44393Y-47000
T5
X42000Y-42500
X42000Y-43500
X45900Y-28200
X46900Y-28200
X47900Y-28200
X50000Y-28200
X51000Y-28200
X52000Y-28200
X53000Y-28200
X53600Y-47200
X54000Y-28200
X54600Y-47200
X55000Y-28200
X55600Y-47200
X56000Y-28200
X56600Y-47200
X57000Y-28200
X57600Y-47200
X58000Y-28200
X58600Y-47200
X59000Y-28200
X59000Y-30300
X59000Y-31300
X59600Y-47200
X60600Y-28200
X60600Y-45100
X60600Y-47200
X61360Y-30270
X61360Y-32830
X61600Y-28200
X61600Y-45100
X62600Y-28200
X62600Y-47200
X63140Y-30270
X63140Y-32830
X63600Y-28200
X63600Y-47200
X64600Y-28200
X64600Y-47200
X65360Y-30270
X65360Y-32830
X65600Y-28200
X65600Y-47200
X66600Y-28200
X66600Y-47200
X67140Y-30270
X67140Y-32830
X67600Y-28200
X67600Y-47200
X69450Y-36300
X69450Y-37300
X69450Y-38100
X69450Y-39100
X69500Y-31800
X69500Y-32800
X70500Y-31800
X70500Y-32800
X70550Y-37025
X70550Y-38375
X71500Y-31800
X71500Y-32800
T6
X47346Y-47000
X50654Y-47000
T7
X70500Y-35100
X70500Y-40300
T8
X41000Y-29500
X41000Y-45900
X71000Y-29500
X71000Y-45900
T1
X38732Y-36322G85X38968Y-36322
G05
X38732Y-39078G85X38968Y-39078
G05
X39913Y-36775G85X39913Y-36657
G05
X39913Y-38743G85X39913Y-38625
G05
T0
M30
