G04 #@! TF.FileFunction,Copper,L1,Top,Signal*
%FSLAX46Y46*%
G04 Gerber Fmt 4.6, Leading zero omitted, Abs format (unit mm)*
G04 Created by KiCad (PCBNEW (2015-06-26 BZR 5832)-product) date Samstag, 23. Juli 2016 'u05' 19:05:18*
%MOMM*%
G01*
G04 APERTURE LIST*
%ADD10C,0.150000*%
%ADD11C,3.400000*%
%ADD12C,1.500000*%
%ADD13R,1.198880X1.198880*%
%ADD14R,2.300000X2.900000*%
%ADD15C,1.524000*%
%ADD16C,2.032000*%
%ADD17O,2.032000X2.032000*%
%ADD18C,1.900000*%
%ADD19C,1.422400*%
%ADD20C,1.800000*%
%ADD21C,1.879600*%
%ADD22C,6.350000*%
%ADD23C,18.200000*%
%ADD24C,0.600000*%
%ADD25C,0.250000*%
%ADD26C,0.500000*%
%ADD27C,1.000000*%
%ADD28C,0.254000*%
G04 APERTURE END LIST*
D10*
D11*
X201930000Y-71600000D03*
X201930000Y-78400000D03*
X215070000Y-71600000D03*
X215070000Y-78400000D03*
D12*
X205000000Y-69420000D03*
X207500000Y-69420000D03*
X209500000Y-69420000D03*
X212000000Y-69420000D03*
X205000000Y-77920000D03*
X207500000Y-77920000D03*
X209500000Y-77920000D03*
X212000000Y-77920000D03*
D11*
X201930000Y-91600000D03*
X201930000Y-98400000D03*
X215070000Y-91600000D03*
X215070000Y-98400000D03*
D12*
X205000000Y-89420000D03*
X207500000Y-89420000D03*
X209500000Y-89420000D03*
X212000000Y-89420000D03*
X205000000Y-97920000D03*
X207500000Y-97920000D03*
X209500000Y-97920000D03*
X212000000Y-97920000D03*
D11*
X201930000Y-111600000D03*
X201930000Y-118400000D03*
X215070000Y-111600000D03*
X215070000Y-118400000D03*
D12*
X205000000Y-109420000D03*
X207500000Y-109420000D03*
X209500000Y-109420000D03*
X212000000Y-109420000D03*
X205000000Y-117920000D03*
X207500000Y-117920000D03*
X209500000Y-117920000D03*
X212000000Y-117920000D03*
D13*
X82450980Y-50000000D03*
X84549020Y-50000000D03*
X93950980Y-50000000D03*
X96049020Y-50000000D03*
X181950980Y-123000000D03*
X184049020Y-123000000D03*
X82389980Y-141605000D03*
X84488020Y-141605000D03*
X82389980Y-139319000D03*
X84488020Y-139319000D03*
D14*
X138100000Y-107000000D03*
D15*
X130000000Y-100000000D03*
X135000000Y-100000000D03*
X130000000Y-114000000D03*
X132500000Y-114000000D03*
X135000000Y-114000000D03*
D14*
X126900000Y-107000000D03*
X163100000Y-107000000D03*
D15*
X155000000Y-100000000D03*
X160000000Y-100000000D03*
X155000000Y-114000000D03*
X157500000Y-114000000D03*
X160000000Y-114000000D03*
D14*
X151900000Y-107000000D03*
D16*
X111040000Y-108500000D03*
X108500000Y-108500000D03*
X105960000Y-108500000D03*
X190070000Y-98900000D03*
D17*
X187530000Y-98900000D03*
D18*
X208581500Y-125180500D03*
X208581500Y-132180500D03*
X208581500Y-128680500D03*
X92500000Y-82750000D03*
X92500000Y-86250000D03*
X92500000Y-89750000D03*
X92500000Y-107250000D03*
X92500000Y-103750000D03*
X92500000Y-100250000D03*
X92500000Y-96750000D03*
X92500000Y-93250000D03*
D16*
X204724000Y-59690000D03*
D17*
X207264000Y-59690000D03*
D16*
X212344000Y-59690000D03*
D17*
X209804000Y-59690000D03*
D16*
X173228000Y-113538000D03*
D17*
X173228000Y-116078000D03*
D19*
X89998220Y-135000000D03*
X88001780Y-135000000D03*
D20*
X108500000Y-106000000D03*
X108500000Y-48000000D03*
D21*
X168739400Y-84751200D03*
X168739400Y-78248800D03*
X173260600Y-84751200D03*
X173260600Y-78248800D03*
X168739400Y-62751200D03*
X168739400Y-56248800D03*
X173260600Y-62751200D03*
X173260600Y-56248800D03*
X116739400Y-62751200D03*
X116739400Y-56248800D03*
X121260600Y-62751200D03*
X121260600Y-56248800D03*
X116739400Y-84751200D03*
X116739400Y-78248800D03*
X121260600Y-84751200D03*
X121260600Y-78248800D03*
D15*
X197160000Y-70230000D03*
X197160000Y-67690000D03*
X197160000Y-65150000D03*
X197160000Y-62610000D03*
X197160000Y-60070000D03*
X197160000Y-57530000D03*
X197160000Y-54990000D03*
X197160000Y-52450000D03*
X197160000Y-72770000D03*
X197160000Y-75310000D03*
X197160000Y-77850000D03*
X197160000Y-80390000D03*
X197160000Y-82930000D03*
X197160000Y-85470000D03*
X197160000Y-88010000D03*
X197160000Y-90550000D03*
X176840000Y-90550000D03*
X176840000Y-88010000D03*
X176840000Y-85470000D03*
X176840000Y-82930000D03*
X176840000Y-80390000D03*
X176840000Y-77850000D03*
X176840000Y-75310000D03*
X176840000Y-72770000D03*
X176840000Y-70230000D03*
X176840000Y-67690000D03*
X176840000Y-65150000D03*
X176840000Y-62610000D03*
D12*
X133570000Y-49500000D03*
X143730000Y-52040000D03*
X141190000Y-52040000D03*
X138650000Y-52040000D03*
X136110000Y-52040000D03*
X133570000Y-52040000D03*
X146270000Y-52040000D03*
X148810000Y-52040000D03*
X151350000Y-52040000D03*
X153890000Y-52040000D03*
X156430000Y-52040000D03*
X136110000Y-49500000D03*
X138650000Y-49500000D03*
X141190000Y-49500000D03*
X143730000Y-49500000D03*
X146270000Y-49500000D03*
X148810000Y-49500000D03*
X151350000Y-49500000D03*
X153890000Y-49500000D03*
X156430000Y-49500000D03*
D22*
X183000000Y-115000000D03*
D23*
X83600000Y-66600000D03*
D24*
X82804000Y-129159000D03*
X89916000Y-122872500D03*
X87947500Y-123507500D03*
X127889000Y-111887000D03*
X96774000Y-129032000D03*
X110998000Y-113665000D03*
X118237000Y-118999000D03*
X178689000Y-105156000D03*
X166000000Y-111500000D03*
X116014500Y-118935500D03*
X92964000Y-122809000D03*
X171069000Y-56769000D03*
X171069000Y-78740000D03*
X171196000Y-97663000D03*
X165500000Y-103500000D03*
X165500000Y-107500000D03*
X154000000Y-108500000D03*
X160500000Y-102000000D03*
X81000000Y-50000000D03*
X92500000Y-50000000D03*
X180594000Y-122936000D03*
X81153000Y-141605000D03*
X85725000Y-141605000D03*
X81153000Y-139319000D03*
X85725000Y-139319000D03*
X128500000Y-104500000D03*
X92964000Y-123698000D03*
X173990000Y-108966000D03*
X179705000Y-107696000D03*
X93027500Y-124523500D03*
X175006000Y-107696000D03*
X185293000Y-122936000D03*
D25*
X116014500Y-121793000D02*
X116014500Y-118935500D01*
X114871500Y-122936000D02*
X116014500Y-121793000D01*
X93091000Y-122936000D02*
X114871500Y-122936000D01*
X92964000Y-122809000D02*
X93091000Y-122936000D01*
D26*
X171069000Y-78740000D02*
X171069000Y-56769000D01*
X171069000Y-97536000D02*
X171069000Y-78740000D01*
X171196000Y-97663000D02*
X171069000Y-97536000D01*
X165500000Y-107500000D02*
X165500000Y-103500000D01*
X160500000Y-102000000D02*
X154000000Y-108500000D01*
D27*
X81000000Y-50000000D02*
X82450980Y-50000000D01*
X92500000Y-50000000D02*
X93950980Y-50000000D01*
X181950980Y-123000000D02*
X180658000Y-123000000D01*
X180658000Y-123000000D02*
X180594000Y-122936000D01*
D26*
X82389980Y-141605000D02*
X81153000Y-141605000D01*
D25*
X85725000Y-141605000D02*
X84488020Y-141605000D01*
D26*
X82389980Y-139319000D02*
X81153000Y-139319000D01*
D25*
X85725000Y-139319000D02*
X84488020Y-139319000D01*
D26*
X135000000Y-100000000D02*
X133000000Y-100000000D01*
X133000000Y-100000000D02*
X128500000Y-104500000D01*
D25*
X159258000Y-123698000D02*
X92964000Y-123698000D01*
X173990000Y-108966000D02*
X159258000Y-123698000D01*
D26*
X177799000Y-90550000D02*
X176840000Y-90550000D01*
X179705000Y-92456000D02*
X177799000Y-90550000D01*
X179705000Y-95504000D02*
X179705000Y-92456000D01*
X179705000Y-107696000D02*
X179705000Y-95504000D01*
D25*
X175006000Y-107696000D02*
X175006000Y-108902500D01*
X93218000Y-124333000D02*
X93027500Y-124523500D01*
X159575500Y-124333000D02*
X93218000Y-124333000D01*
X175006000Y-108902500D02*
X159575500Y-124333000D01*
D26*
X175006000Y-89916000D02*
X176840000Y-88082000D01*
X175006000Y-107696000D02*
X175006000Y-89916000D01*
X176840000Y-88082000D02*
X176840000Y-88010000D01*
D27*
X184049020Y-123000000D02*
X185229000Y-123000000D01*
X185229000Y-123000000D02*
X185293000Y-122936000D01*
D28*
G36*
X216646142Y-46025858D02*
X218041676Y-46958323D01*
X218974142Y-48353856D01*
X219315000Y-50067467D01*
X219315000Y-139932533D01*
X218974142Y-141646144D01*
X218041676Y-143041677D01*
X216646142Y-143974142D01*
X214932533Y-144315000D01*
X75067467Y-144315000D01*
X73353856Y-143974142D01*
X71958323Y-143041676D01*
X71527694Y-142397192D01*
X80622673Y-142397192D01*
X80966201Y-142539838D01*
X81251512Y-142540087D01*
X81329867Y-142659367D01*
X81540900Y-142801817D01*
X81790540Y-142851880D01*
X82989420Y-142851880D01*
X83231543Y-142804903D01*
X83440329Y-142667752D01*
X83638940Y-142801817D01*
X83888580Y-142851880D01*
X85087460Y-142851880D01*
X85329583Y-142804903D01*
X85542387Y-142665113D01*
X85626897Y-142539915D01*
X85910167Y-142540162D01*
X86253943Y-142398117D01*
X86517192Y-142135327D01*
X86659838Y-141791799D01*
X86660162Y-141419833D01*
X86572522Y-141207727D01*
X213189090Y-141207727D01*
X213789114Y-141808800D01*
X214573485Y-142134499D01*
X215422789Y-142135240D01*
X216207727Y-141810910D01*
X216808800Y-141210886D01*
X217134499Y-140426515D01*
X217135240Y-139577211D01*
X216810910Y-138792273D01*
X216210886Y-138191200D01*
X215426515Y-137865501D01*
X214577211Y-137864760D01*
X213792273Y-138189090D01*
X187443728Y-138189090D01*
X188092629Y-137217942D01*
X188092629Y-137217941D01*
X188198644Y-136962001D01*
X188561358Y-135138514D01*
X188561358Y-135022796D01*
X188568926Y-134907327D01*
X188406563Y-133674054D01*
X188369364Y-133564471D01*
X188339416Y-133452702D01*
X187517109Y-131785227D01*
X187348464Y-131565446D01*
X186516713Y-130836019D01*
X207684843Y-130836019D01*
X207238586Y-131281497D01*
X206996776Y-131863841D01*
X206996225Y-132494393D01*
X207237019Y-133077157D01*
X207682497Y-133523414D01*
X208264841Y-133765224D01*
X208895393Y-133765775D01*
X209478157Y-133524981D01*
X209924414Y-133079503D01*
X210166224Y-132497159D01*
X210166775Y-131866607D01*
X209925981Y-131283843D01*
X209480503Y-130837586D01*
X208898159Y-130595776D01*
X208267607Y-130595225D01*
X207684843Y-130836019D01*
X186516713Y-130836019D01*
X185950636Y-130339583D01*
X185851075Y-130282101D01*
X185756705Y-130219046D01*
X185734056Y-130214541D01*
X185710722Y-130201069D01*
X185579435Y-130183784D01*
X185485000Y-130165000D01*
X185436755Y-130165000D01*
X185436064Y-130164909D01*
X185435724Y-130165000D01*
X180715000Y-130165000D01*
X180634762Y-130180960D01*
X180533739Y-130187582D01*
X180487947Y-130210164D01*
X180443295Y-130219046D01*
X180368235Y-130269199D01*
X180285280Y-130310108D01*
X179298416Y-131067355D01*
X179222121Y-131154353D01*
X179140292Y-131236182D01*
X178107371Y-132782058D01*
X178107371Y-132782059D01*
X178001356Y-133037999D01*
X177638642Y-134861486D01*
X177638643Y-135000000D01*
X177638642Y-135138514D01*
X178001356Y-136962001D01*
X178076320Y-137142978D01*
X178107371Y-137217942D01*
X179140292Y-138763818D01*
X179336181Y-138959707D01*
X180882058Y-139992629D01*
X181137999Y-140098644D01*
X182961486Y-140461358D01*
X183238514Y-140461358D01*
X185062001Y-140098644D01*
X185249091Y-140021148D01*
X185317942Y-139992629D01*
X186863818Y-138959708D01*
X187059707Y-138763819D01*
X187443728Y-138189090D01*
X213792273Y-138189090D01*
X187443728Y-138189090D01*
X187443728Y-138189090D01*
X213792273Y-138189090D01*
X213191200Y-138789114D01*
X212865501Y-139573485D01*
X212864760Y-140422789D01*
X213189090Y-141207727D01*
X86572522Y-141207727D01*
X86518117Y-141076057D01*
X86255327Y-140812808D01*
X85911799Y-140670162D01*
X85626488Y-140669913D01*
X85548133Y-140550633D01*
X85416521Y-140461794D01*
X85542387Y-140379113D01*
X85626897Y-140253915D01*
X85910167Y-140254162D01*
X86253943Y-140112117D01*
X86373639Y-139992629D01*
X104682058Y-139992629D01*
X104937999Y-140098644D01*
X106761486Y-140461358D01*
X107038514Y-140461358D01*
X108862001Y-140098644D01*
X109049091Y-140021148D01*
X109117942Y-139992629D01*
X123732058Y-139992629D01*
X123987999Y-140098644D01*
X125811486Y-140461358D01*
X126088514Y-140461358D01*
X127912001Y-140098644D01*
X128099091Y-140021148D01*
X128167942Y-139992629D01*
X142782058Y-139992629D01*
X143037999Y-140098644D01*
X144861486Y-140461358D01*
X145138514Y-140461358D01*
X146962001Y-140098644D01*
X147149091Y-140021148D01*
X147217942Y-139992629D01*
X161832058Y-139992629D01*
X147217942Y-139992629D01*
X147217942Y-139992629D01*
X161832058Y-139992629D01*
X162087999Y-140098644D01*
X163911486Y-140461358D01*
X164188514Y-140461358D01*
X166012001Y-140098644D01*
X166199091Y-140021148D01*
X166267942Y-139992629D01*
X167813818Y-138959708D01*
X168009707Y-138763819D01*
X169042629Y-137217942D01*
X169042629Y-137217941D01*
X169148644Y-136962001D01*
X169511358Y-135138514D01*
X169511358Y-135022796D01*
X169518926Y-134907327D01*
X169356563Y-133674054D01*
X169319364Y-133564471D01*
X169289416Y-133452702D01*
X168467109Y-131785227D01*
X168298464Y-131565446D01*
X166900636Y-130339583D01*
X166801075Y-130282101D01*
X166706705Y-130219046D01*
X166684056Y-130214541D01*
X166660722Y-130201069D01*
X166529435Y-130183784D01*
X166435000Y-130165000D01*
X166386755Y-130165000D01*
X166386064Y-130164909D01*
X166385724Y-130165000D01*
X161665000Y-130165000D01*
X161584762Y-130180960D01*
X161483739Y-130187582D01*
X161437947Y-130210164D01*
X161393295Y-130219046D01*
X161318235Y-130269199D01*
X161235280Y-130310108D01*
X160248416Y-131067355D01*
X160172121Y-131154353D01*
X160090292Y-131236182D01*
X159057371Y-132782058D01*
X159057371Y-132782059D01*
X158951356Y-133037999D01*
X158588642Y-134861486D01*
X158588643Y-135000000D01*
X158588642Y-135138514D01*
X158951356Y-136962001D01*
X159026320Y-137142978D01*
X159057371Y-137217942D01*
X160090292Y-138763818D01*
X160286181Y-138959707D01*
X161832058Y-139992629D01*
X147217942Y-139992629D01*
X147217942Y-139992629D01*
X148763818Y-138959708D01*
X148959707Y-138763819D01*
X149992629Y-137217942D01*
X149992629Y-137217941D01*
X150098644Y-136962001D01*
X150461358Y-135138514D01*
X150461358Y-135022796D01*
X150468926Y-134907327D01*
X150306563Y-133674054D01*
X150269364Y-133564471D01*
X150239416Y-133452702D01*
X149417109Y-131785227D01*
X149248464Y-131565446D01*
X147850636Y-130339583D01*
X147751075Y-130282101D01*
X147656705Y-130219046D01*
X147634056Y-130214541D01*
X147610722Y-130201069D01*
X147479435Y-130183784D01*
X147385000Y-130165000D01*
X147336755Y-130165000D01*
X147336064Y-130164909D01*
X147335724Y-130165000D01*
X142615000Y-130165000D01*
X142534762Y-130180960D01*
X142433739Y-130187582D01*
X142387947Y-130210164D01*
X142343295Y-130219046D01*
X142268235Y-130269199D01*
X142185280Y-130310108D01*
X141198416Y-131067355D01*
X141122121Y-131154353D01*
X141040292Y-131236182D01*
X140007371Y-132782058D01*
X140007371Y-132782059D01*
X139901356Y-133037999D01*
X139538642Y-134861486D01*
X139538643Y-135000000D01*
X139538642Y-135138514D01*
X139901356Y-136962001D01*
X139976320Y-137142978D01*
X140007371Y-137217942D01*
X141040292Y-138763818D01*
X141236181Y-138959707D01*
X142782058Y-139992629D01*
X128167942Y-139992629D01*
X128167942Y-139992629D01*
X129713818Y-138959708D01*
X129909707Y-138763819D01*
X130942629Y-137217942D01*
X130942629Y-137217941D01*
X131048644Y-136962001D01*
X131411358Y-135138514D01*
X131411358Y-135022796D01*
X131418926Y-134907327D01*
X131256563Y-133674054D01*
X131219364Y-133564471D01*
X131189416Y-133452702D01*
X130367109Y-131785227D01*
X130198464Y-131565446D01*
X128800636Y-130339583D01*
X128701075Y-130282101D01*
X128606705Y-130219046D01*
X128584056Y-130214541D01*
X128560722Y-130201069D01*
X128429435Y-130183784D01*
X128335000Y-130165000D01*
X128286755Y-130165000D01*
X128286064Y-130164909D01*
X128285724Y-130165000D01*
X123565000Y-130165000D01*
X123484762Y-130180960D01*
X123383739Y-130187582D01*
X123337947Y-130210164D01*
X123293295Y-130219046D01*
X123218235Y-130269199D01*
X123135280Y-130310108D01*
X122148416Y-131067355D01*
X122072121Y-131154353D01*
X121990292Y-131236182D01*
X120957371Y-132782058D01*
X120957371Y-132782059D01*
X120851356Y-133037999D01*
X120488642Y-134861486D01*
X120488643Y-135000000D01*
X120488642Y-135138514D01*
X120851356Y-136962001D01*
X120926320Y-137142978D01*
X120957371Y-137217942D01*
X121990292Y-138763818D01*
X122186181Y-138959707D01*
X123732058Y-139992629D01*
X109117942Y-139992629D01*
X109117942Y-139992629D01*
X110663818Y-138959708D01*
X110859707Y-138763819D01*
X111892629Y-137217942D01*
X111892629Y-137217941D01*
X111998644Y-136962001D01*
X112361358Y-135138514D01*
X112361358Y-135022796D01*
X112368926Y-134907327D01*
X112206563Y-133674054D01*
X112169364Y-133564471D01*
X112139416Y-133452702D01*
X111317109Y-131785227D01*
X111148464Y-131565446D01*
X109750636Y-130339583D01*
X109651075Y-130282101D01*
X109556705Y-130219046D01*
X109534056Y-130214541D01*
X109510722Y-130201069D01*
X109379435Y-130183784D01*
X109285000Y-130165000D01*
X109236755Y-130165000D01*
X109236064Y-130164909D01*
X109235724Y-130165000D01*
X104515000Y-130165000D01*
X104434762Y-130180960D01*
X104333739Y-130187582D01*
X104287947Y-130210164D01*
X104243295Y-130219046D01*
X104168235Y-130269199D01*
X104085280Y-130310108D01*
X103098416Y-131067355D01*
X103022121Y-131154353D01*
X102940292Y-131236182D01*
X101907371Y-132782058D01*
X101907371Y-132782059D01*
X101801356Y-133037999D01*
X101438642Y-134861486D01*
X101438643Y-135000000D01*
X101438642Y-135138514D01*
X101801356Y-136962001D01*
X101876320Y-137142978D01*
X101907371Y-137217942D01*
X102940292Y-138763818D01*
X103136181Y-138959707D01*
X104682058Y-139992629D01*
X86373639Y-139992629D01*
X86517192Y-139849327D01*
X86659838Y-139505799D01*
X86660162Y-139133833D01*
X86518117Y-138790057D01*
X86255327Y-138526808D01*
X85911799Y-138384162D01*
X85626488Y-138383913D01*
X85548133Y-138264633D01*
X85337100Y-138122183D01*
X85087460Y-138072120D01*
X83888580Y-138072120D01*
X83646457Y-138119097D01*
X83437671Y-138256248D01*
X83239060Y-138122183D01*
X82989420Y-138072120D01*
X81790540Y-138072120D01*
X75924110Y-138072120D01*
X75426515Y-137865501D01*
X74577211Y-137864760D01*
X73792273Y-138189090D01*
X73191200Y-138789114D01*
X72865501Y-139573485D01*
X72864760Y-140422789D01*
X73189090Y-141207727D01*
X73789114Y-141808800D01*
X74573485Y-142134499D01*
X75422789Y-142135240D01*
X76207727Y-141810910D01*
X76808800Y-141210886D01*
X77134499Y-140426515D01*
X77135240Y-139577211D01*
X76810910Y-138792273D01*
X76210886Y-138191200D01*
X75924110Y-138072120D01*
X81790540Y-138072120D01*
X75924110Y-138072120D01*
X75924110Y-138072120D01*
X81790540Y-138072120D01*
X81548417Y-138119097D01*
X81335613Y-138258887D01*
X81251103Y-138384085D01*
X80967833Y-138383838D01*
X80624057Y-138525883D01*
X80360808Y-138788673D01*
X80218162Y-139132201D01*
X80217838Y-139504167D01*
X80359883Y-139847943D01*
X80622673Y-140111192D01*
X80966201Y-140253838D01*
X81251512Y-140254087D01*
X81329867Y-140373367D01*
X81461479Y-140462206D01*
X81335613Y-140544887D01*
X81251103Y-140670085D01*
X80967833Y-140669838D01*
X80624057Y-140811883D01*
X80360808Y-141074673D01*
X80218162Y-141418201D01*
X80217838Y-141790167D01*
X80359883Y-142133943D01*
X80622673Y-142397192D01*
X71527694Y-142397192D01*
X71025858Y-141646142D01*
X70685000Y-139932533D01*
X70685000Y-133858081D01*
X89236655Y-133858081D01*
X88857632Y-134236443D01*
X88652254Y-134731049D01*
X88651786Y-135266601D01*
X88856301Y-135761565D01*
X89234663Y-136140588D01*
X89729269Y-136345966D01*
X90264821Y-136346434D01*
X90759785Y-136141919D01*
X91138808Y-135763557D01*
X91344186Y-135268951D01*
X91344654Y-134733399D01*
X91140139Y-134238435D01*
X90761777Y-133859412D01*
X90267171Y-133654034D01*
X89731619Y-133653566D01*
X89236655Y-133858081D01*
X70685000Y-133858081D01*
X70685000Y-127336019D01*
X207684843Y-127336019D01*
X207238586Y-127781497D01*
X206996776Y-128363841D01*
X206996225Y-128994393D01*
X207237019Y-129577157D01*
X207682497Y-130023414D01*
X208264841Y-130265224D01*
X208895393Y-130265775D01*
X209478157Y-130024981D01*
X209924414Y-129579503D01*
X210166224Y-128997159D01*
X210166775Y-128366607D01*
X209925981Y-127783843D01*
X209480503Y-127337586D01*
X208898159Y-127095776D01*
X208267607Y-127095225D01*
X207684843Y-127336019D01*
X70685000Y-127336019D01*
X70685000Y-118000338D01*
X115829333Y-118000338D01*
X115485557Y-118142383D01*
X115222308Y-118405173D01*
X115079662Y-118748701D01*
X115079338Y-119120667D01*
X115221383Y-119464443D01*
X115254500Y-119497618D01*
X115254500Y-121478198D01*
X114556698Y-122176000D01*
X93653241Y-122176000D01*
X93494327Y-122016808D01*
X93150799Y-121874162D01*
X92778833Y-121873838D01*
X92435057Y-122015883D01*
X92171808Y-122278673D01*
X92029162Y-122622201D01*
X92028838Y-122994167D01*
X92136080Y-123253714D01*
X92029162Y-123511201D01*
X92028838Y-123883167D01*
X92154601Y-124187537D01*
X92092662Y-124336701D01*
X92092338Y-124708667D01*
X92234383Y-125052443D01*
X92497173Y-125315692D01*
X92840701Y-125458338D01*
X93212667Y-125458662D01*
X93556443Y-125316617D01*
X93780451Y-125093000D01*
X159575500Y-125093000D01*
X159866339Y-125035148D01*
X160112901Y-124870401D01*
X163230182Y-121753120D01*
X181351540Y-121753120D01*
X181109417Y-121800097D01*
X181010614Y-121865000D01*
X180915748Y-121865000D01*
X180594000Y-121801000D01*
X180159655Y-121887397D01*
X179791434Y-122133434D01*
X179545397Y-122501655D01*
X179459000Y-122936000D01*
X179545397Y-123370345D01*
X179791434Y-123738566D01*
X179855434Y-123802566D01*
X180223655Y-124048604D01*
X180658000Y-124135000D01*
X181010321Y-124135000D01*
X181101900Y-124196817D01*
X181351540Y-124246880D01*
X182550420Y-124246880D01*
X182792543Y-124199903D01*
X183001329Y-124062752D01*
X183199940Y-124196817D01*
X183449580Y-124246880D01*
X184648460Y-124246880D01*
X184890583Y-124199903D01*
X184989386Y-124135000D01*
X185229000Y-124135000D01*
X185663346Y-124048603D01*
X186031566Y-123802566D01*
X186095566Y-123738566D01*
X186341604Y-123370345D01*
X186428000Y-122936000D01*
X186341604Y-122501654D01*
X186095566Y-122133434D01*
X185727346Y-121887396D01*
X185293000Y-121801000D01*
X184985484Y-121862168D01*
X184898100Y-121803183D01*
X184648460Y-121753120D01*
X183449580Y-121753120D01*
X183207457Y-121800097D01*
X182998671Y-121937248D01*
X182800060Y-121803183D01*
X182550420Y-121753120D01*
X181351540Y-121753120D01*
X163230182Y-121753120D01*
X165889841Y-119093461D01*
X204214436Y-119093461D01*
X204723298Y-119304759D01*
X205274285Y-119305240D01*
X205783515Y-119094831D01*
X206173461Y-118705564D01*
X206249927Y-118521414D01*
X206325169Y-118703515D01*
X206714436Y-119093461D01*
X207223298Y-119304759D01*
X207774285Y-119305240D01*
X208283515Y-119094831D01*
X208500036Y-118878687D01*
X208714436Y-119093461D01*
X209223298Y-119304759D01*
X209774285Y-119305240D01*
X210283515Y-119094831D01*
X210673461Y-118705564D01*
X210884759Y-118196702D01*
X210885240Y-117645715D01*
X210674831Y-117136485D01*
X210285564Y-116746539D01*
X209776702Y-116535241D01*
X209225715Y-116534760D01*
X208716485Y-116745169D01*
X208499964Y-116961313D01*
X208285564Y-116746539D01*
X207776702Y-116535241D01*
X207225715Y-116534760D01*
X206716485Y-116745169D01*
X206326539Y-117134436D01*
X206250073Y-117318586D01*
X206174831Y-117136485D01*
X205785564Y-116746539D01*
X205276702Y-116535241D01*
X204725715Y-116534760D01*
X186488118Y-116534760D01*
X186809337Y-115761181D01*
X186810660Y-114245469D01*
X186231844Y-112844628D01*
X185161009Y-111771923D01*
X183761181Y-111190663D01*
X182245469Y-111189340D01*
X180844628Y-111768156D01*
X179771923Y-112838991D01*
X179190663Y-114238819D01*
X179189340Y-115754531D01*
X179768156Y-117155372D01*
X180838991Y-118228077D01*
X182238819Y-118809337D01*
X183754531Y-118810660D01*
X185155372Y-118231844D01*
X186228077Y-117161009D01*
X186488118Y-116534760D01*
X204725715Y-116534760D01*
X186488118Y-116534760D01*
X186488118Y-116534760D01*
X204725715Y-116534760D01*
X204216485Y-116745169D01*
X203826539Y-117134436D01*
X203615241Y-117643298D01*
X203614760Y-118194285D01*
X203825169Y-118703515D01*
X204214436Y-119093461D01*
X165889841Y-119093461D01*
X171577114Y-113406188D01*
X171576714Y-113864963D01*
X171827534Y-114471995D01*
X172164037Y-114809085D01*
X172060567Y-114878222D01*
X171702675Y-115413845D01*
X171577000Y-116045655D01*
X171577000Y-116110345D01*
X171702675Y-116742155D01*
X172060567Y-117277778D01*
X172596190Y-117635670D01*
X173228000Y-117761345D01*
X173859810Y-117635670D01*
X174395433Y-117277778D01*
X174753325Y-116742155D01*
X174879000Y-116110345D01*
X174879000Y-116045655D01*
X174753325Y-115413845D01*
X174395433Y-114878222D01*
X174291746Y-114808941D01*
X174626834Y-114474437D01*
X174878713Y-113867845D01*
X174879286Y-113211037D01*
X174628466Y-112604005D01*
X174164437Y-112139166D01*
X173557845Y-111887287D01*
X173096418Y-111886884D01*
X175543401Y-109439901D01*
X175708148Y-109193340D01*
X175766000Y-108902500D01*
X175766000Y-108258463D01*
X175798192Y-108226327D01*
X175940838Y-107882799D01*
X175941162Y-107510833D01*
X175891000Y-107389431D01*
X175891000Y-91576725D01*
X176047630Y-91733629D01*
X176560900Y-91946757D01*
X177116661Y-91947242D01*
X177630303Y-91735010D01*
X177681411Y-91683991D01*
X178820000Y-92822579D01*
X178820000Y-107389178D01*
X178770162Y-107509201D01*
X178769838Y-107881167D01*
X178911883Y-108224943D01*
X179174673Y-108488192D01*
X179518201Y-108630838D01*
X179890167Y-108631162D01*
X180233943Y-108489117D01*
X180497192Y-108226327D01*
X180576737Y-108034760D01*
X204725715Y-108034760D01*
X204216485Y-108245169D01*
X203826539Y-108634436D01*
X203615241Y-109143298D01*
X203614760Y-109694285D01*
X203825169Y-110203515D01*
X204214436Y-110593461D01*
X204723298Y-110804759D01*
X205274285Y-110805240D01*
X205783515Y-110594831D01*
X206173461Y-110205564D01*
X206249927Y-110021414D01*
X206325169Y-110203515D01*
X206714436Y-110593461D01*
X207223298Y-110804759D01*
X207774285Y-110805240D01*
X208283515Y-110594831D01*
X208500036Y-110378687D01*
X208714436Y-110593461D01*
X209223298Y-110804759D01*
X209774285Y-110805240D01*
X210283515Y-110594831D01*
X210673461Y-110205564D01*
X210884759Y-109696702D01*
X210885240Y-109145715D01*
X210674831Y-108636485D01*
X210285564Y-108246539D01*
X209776702Y-108035241D01*
X209225715Y-108034760D01*
X208716485Y-108245169D01*
X208499964Y-108461313D01*
X208285564Y-108246539D01*
X207776702Y-108035241D01*
X207225715Y-108034760D01*
X206716485Y-108245169D01*
X206326539Y-108634436D01*
X206250073Y-108818586D01*
X206174831Y-108636485D01*
X205785564Y-108246539D01*
X205276702Y-108035241D01*
X204725715Y-108034760D01*
X180576737Y-108034760D01*
X180639838Y-107882799D01*
X180640162Y-107510833D01*
X180590000Y-107389431D01*
X180590000Y-97249000D01*
X187497655Y-97249000D01*
X186865845Y-97374675D01*
X186330222Y-97732567D01*
X185972330Y-98268190D01*
X185846655Y-98900000D01*
X185972330Y-99531810D01*
X186330222Y-100067433D01*
X186865845Y-100425325D01*
X187497655Y-100551000D01*
X187562345Y-100551000D01*
X188194155Y-100425325D01*
X188729778Y-100067433D01*
X188799059Y-99963746D01*
X189133563Y-100298834D01*
X189740155Y-100550713D01*
X190396963Y-100551286D01*
X191003995Y-100300466D01*
X191468834Y-99836437D01*
X191720713Y-99229845D01*
X191721286Y-98573037D01*
X191470466Y-97966005D01*
X191006437Y-97501166D01*
X190399845Y-97249287D01*
X189743037Y-97248714D01*
X189136005Y-97499534D01*
X188798915Y-97836037D01*
X188729778Y-97732567D01*
X188194155Y-97374675D01*
X187562345Y-97249000D01*
X187497655Y-97249000D01*
X180590000Y-97249000D01*
X180590000Y-96534760D01*
X204725715Y-96534760D01*
X204216485Y-96745169D01*
X203826539Y-97134436D01*
X203615241Y-97643298D01*
X203614760Y-98194285D01*
X203825169Y-98703515D01*
X204214436Y-99093461D01*
X204723298Y-99304759D01*
X205274285Y-99305240D01*
X205783515Y-99094831D01*
X206173461Y-98705564D01*
X206249927Y-98521414D01*
X206325169Y-98703515D01*
X206714436Y-99093461D01*
X207223298Y-99304759D01*
X207774285Y-99305240D01*
X208283515Y-99094831D01*
X208500036Y-98878687D01*
X208714436Y-99093461D01*
X209223298Y-99304759D01*
X209774285Y-99305240D01*
X210283515Y-99094831D01*
X210673461Y-98705564D01*
X210884759Y-98196702D01*
X210885240Y-97645715D01*
X210674831Y-97136485D01*
X210285564Y-96746539D01*
X209776702Y-96535241D01*
X209225715Y-96534760D01*
X208716485Y-96745169D01*
X208499964Y-96961313D01*
X208285564Y-96746539D01*
X207776702Y-96535241D01*
X207225715Y-96534760D01*
X206716485Y-96745169D01*
X206326539Y-97134436D01*
X206250073Y-97318586D01*
X206174831Y-97136485D01*
X205785564Y-96746539D01*
X205276702Y-96535241D01*
X204725715Y-96534760D01*
X180590000Y-96534760D01*
X180590000Y-92456005D01*
X180590001Y-92456000D01*
X180522633Y-92117326D01*
X180522633Y-92117325D01*
X180330790Y-91830210D01*
X180330787Y-91830208D01*
X178424790Y-89924210D01*
X178178577Y-89759697D01*
X178137675Y-89732367D01*
X178081484Y-89721190D01*
X177963053Y-89697632D01*
X177632370Y-89366371D01*
X177424488Y-89280051D01*
X177630303Y-89195010D01*
X178023629Y-88802370D01*
X178236757Y-88289100D01*
X178237242Y-87733339D01*
X178025010Y-87219697D01*
X177632370Y-86826371D01*
X177424488Y-86740051D01*
X177630303Y-86655010D01*
X178023629Y-86262370D01*
X178236757Y-85749100D01*
X178237242Y-85193339D01*
X178025010Y-84679697D01*
X177632370Y-84286371D01*
X177424488Y-84200051D01*
X177630303Y-84115010D01*
X178023629Y-83722370D01*
X178236757Y-83209100D01*
X178237242Y-82653339D01*
X178025010Y-82139697D01*
X177632370Y-81746371D01*
X177424488Y-81660051D01*
X177630303Y-81575010D01*
X178023629Y-81182370D01*
X178236757Y-80669100D01*
X178237242Y-80113339D01*
X178025010Y-79599697D01*
X177632370Y-79206371D01*
X177424488Y-79120051D01*
X177630303Y-79035010D01*
X178023629Y-78642370D01*
X178236757Y-78129100D01*
X178237242Y-77573339D01*
X178025010Y-77059697D01*
X177632370Y-76666371D01*
X177424488Y-76580051D01*
X177630303Y-76495010D01*
X178023629Y-76102370D01*
X178236757Y-75589100D01*
X178237242Y-75033339D01*
X178025010Y-74519697D01*
X177632370Y-74126371D01*
X177424488Y-74040051D01*
X177630303Y-73955010D01*
X178023629Y-73562370D01*
X178236757Y-73049100D01*
X178237242Y-72493339D01*
X178025010Y-71979697D01*
X177632370Y-71586371D01*
X177424488Y-71500051D01*
X177630303Y-71415010D01*
X178023629Y-71022370D01*
X178236757Y-70509100D01*
X178237242Y-69953339D01*
X178025010Y-69439697D01*
X177632370Y-69046371D01*
X177424488Y-68960051D01*
X177630303Y-68875010D01*
X178023629Y-68482370D01*
X178236757Y-67969100D01*
X178237242Y-67413339D01*
X178025010Y-66899697D01*
X177632370Y-66506371D01*
X177424488Y-66420051D01*
X177630303Y-66335010D01*
X178023629Y-65942370D01*
X178236757Y-65429100D01*
X178237242Y-64873339D01*
X178025010Y-64359697D01*
X177632370Y-63966371D01*
X177424488Y-63880051D01*
X177630303Y-63795010D01*
X178023629Y-63402370D01*
X178236757Y-62889100D01*
X178237242Y-62333339D01*
X178025010Y-61819697D01*
X177632370Y-61426371D01*
X177119100Y-61213243D01*
X176563339Y-61212758D01*
X173662121Y-61212758D01*
X173575221Y-61176674D01*
X172948727Y-61176127D01*
X172369713Y-61415371D01*
X171954000Y-61830359D01*
X171954000Y-61050213D01*
X196359392Y-61050213D01*
X196428857Y-61292397D01*
X196569318Y-61342509D01*
X196369697Y-61424990D01*
X195976371Y-61817630D01*
X195763243Y-62330900D01*
X195762758Y-62886661D01*
X195974990Y-63400303D01*
X196367630Y-63793629D01*
X196575512Y-63879949D01*
X196369697Y-63964990D01*
X195976371Y-64357630D01*
X195763243Y-64870900D01*
X195762758Y-65426661D01*
X195974990Y-65940303D01*
X196367630Y-66333629D01*
X196575512Y-66419949D01*
X196369697Y-66504990D01*
X195976371Y-66897630D01*
X195763243Y-67410900D01*
X195762758Y-67966661D01*
X195974990Y-68480303D01*
X196367630Y-68873629D01*
X196575512Y-68959949D01*
X196369697Y-69044990D01*
X195976371Y-69437630D01*
X195763243Y-69950900D01*
X195762758Y-70506661D01*
X195974990Y-71020303D01*
X196367630Y-71413629D01*
X196575512Y-71499949D01*
X196369697Y-71584990D01*
X195976371Y-71977630D01*
X195763243Y-72490900D01*
X195762758Y-73046661D01*
X195974990Y-73560303D01*
X196367630Y-73953629D01*
X196575512Y-74039949D01*
X196369697Y-74124990D01*
X195976371Y-74517630D01*
X195763243Y-75030900D01*
X195762758Y-75586661D01*
X195974990Y-76100303D01*
X196367630Y-76493629D01*
X196575512Y-76579949D01*
X196369697Y-76664990D01*
X195976371Y-77057630D01*
X195763243Y-77570900D01*
X195762758Y-78126661D01*
X195974990Y-78640303D01*
X196367630Y-79033629D01*
X196575512Y-79119949D01*
X196369697Y-79204990D01*
X195976371Y-79597630D01*
X195763243Y-80110900D01*
X195762758Y-80666661D01*
X195974990Y-81180303D01*
X196367630Y-81573629D01*
X196575512Y-81659949D01*
X196369697Y-81744990D01*
X195976371Y-82137630D01*
X195763243Y-82650900D01*
X195762758Y-83206661D01*
X195974990Y-83720303D01*
X196367630Y-84113629D01*
X196575512Y-84199949D01*
X196369697Y-84284990D01*
X195976371Y-84677630D01*
X195763243Y-85190900D01*
X195762758Y-85746661D01*
X195974990Y-86260303D01*
X196367630Y-86653629D01*
X196575512Y-86739949D01*
X196369697Y-86824990D01*
X195976371Y-87217630D01*
X195763243Y-87730900D01*
X195762758Y-88286661D01*
X195974990Y-88800303D01*
X196367630Y-89193629D01*
X196575512Y-89279949D01*
X196369697Y-89364990D01*
X195976371Y-89757630D01*
X195763243Y-90270900D01*
X195762758Y-90826661D01*
X195974990Y-91340303D01*
X196367630Y-91733629D01*
X196880900Y-91946757D01*
X197436661Y-91947242D01*
X197950303Y-91735010D01*
X198343629Y-91342370D01*
X198556757Y-90829100D01*
X198557242Y-90273339D01*
X198345010Y-89759697D01*
X197952370Y-89366371D01*
X197744488Y-89280051D01*
X197950303Y-89195010D01*
X198343629Y-88802370D01*
X198556757Y-88289100D01*
X198556978Y-88034760D01*
X204725715Y-88034760D01*
X204216485Y-88245169D01*
X203826539Y-88634436D01*
X203615241Y-89143298D01*
X203614760Y-89694285D01*
X203825169Y-90203515D01*
X204214436Y-90593461D01*
X204723298Y-90804759D01*
X205274285Y-90805240D01*
X205783515Y-90594831D01*
X206173461Y-90205564D01*
X206249927Y-90021414D01*
X206325169Y-90203515D01*
X206714436Y-90593461D01*
X207223298Y-90804759D01*
X207774285Y-90805240D01*
X208283515Y-90594831D01*
X208500036Y-90378687D01*
X208714436Y-90593461D01*
X209223298Y-90804759D01*
X209774285Y-90805240D01*
X210283515Y-90594831D01*
X210673461Y-90205564D01*
X210884759Y-89696702D01*
X210885240Y-89145715D01*
X210674831Y-88636485D01*
X210285564Y-88246539D01*
X209776702Y-88035241D01*
X209225715Y-88034760D01*
X208716485Y-88245169D01*
X208499964Y-88461313D01*
X208285564Y-88246539D01*
X207776702Y-88035241D01*
X207225715Y-88034760D01*
X206716485Y-88245169D01*
X206326539Y-88634436D01*
X206250073Y-88818586D01*
X206174831Y-88636485D01*
X205785564Y-88246539D01*
X205276702Y-88035241D01*
X204725715Y-88034760D01*
X198556978Y-88034760D01*
X198557242Y-87733339D01*
X198345010Y-87219697D01*
X197952370Y-86826371D01*
X197744488Y-86740051D01*
X197950303Y-86655010D01*
X198343629Y-86262370D01*
X198556757Y-85749100D01*
X198557242Y-85193339D01*
X198345010Y-84679697D01*
X197952370Y-84286371D01*
X197744488Y-84200051D01*
X197950303Y-84115010D01*
X198343629Y-83722370D01*
X198556757Y-83209100D01*
X198557242Y-82653339D01*
X198345010Y-82139697D01*
X197952370Y-81746371D01*
X197744488Y-81660051D01*
X197950303Y-81575010D01*
X198343629Y-81182370D01*
X198556757Y-80669100D01*
X198557242Y-80113339D01*
X198345010Y-79599697D01*
X197952370Y-79206371D01*
X197744488Y-79120051D01*
X197950303Y-79035010D01*
X198343629Y-78642370D01*
X198556757Y-78129100D01*
X198557242Y-77573339D01*
X198345010Y-77059697D01*
X197952370Y-76666371D01*
X197744488Y-76580051D01*
X197854100Y-76534760D01*
X204725715Y-76534760D01*
X204216485Y-76745169D01*
X203826539Y-77134436D01*
X203615241Y-77643298D01*
X203614760Y-78194285D01*
X203825169Y-78703515D01*
X204214436Y-79093461D01*
X204723298Y-79304759D01*
X205274285Y-79305240D01*
X205783515Y-79094831D01*
X206173461Y-78705564D01*
X206249927Y-78521414D01*
X206325169Y-78703515D01*
X206714436Y-79093461D01*
X207223298Y-79304759D01*
X207774285Y-79305240D01*
X208283515Y-79094831D01*
X208500036Y-78878687D01*
X208714436Y-79093461D01*
X209223298Y-79304759D01*
X209774285Y-79305240D01*
X210283515Y-79094831D01*
X210673461Y-78705564D01*
X210884759Y-78196702D01*
X210885240Y-77645715D01*
X210674831Y-77136485D01*
X210285564Y-76746539D01*
X209776702Y-76535241D01*
X209225715Y-76534760D01*
X208716485Y-76745169D01*
X208499964Y-76961313D01*
X208285564Y-76746539D01*
X207776702Y-76535241D01*
X207225715Y-76534760D01*
X206716485Y-76745169D01*
X206326539Y-77134436D01*
X206250073Y-77318586D01*
X206174831Y-77136485D01*
X205785564Y-76746539D01*
X205276702Y-76535241D01*
X204725715Y-76534760D01*
X197854100Y-76534760D01*
X197950303Y-76495010D01*
X198343629Y-76102370D01*
X198556757Y-75589100D01*
X198557242Y-75033339D01*
X198345010Y-74519697D01*
X197952370Y-74126371D01*
X197744488Y-74040051D01*
X197950303Y-73955010D01*
X198343629Y-73562370D01*
X198556757Y-73049100D01*
X198557242Y-72493339D01*
X198345010Y-71979697D01*
X197952370Y-71586371D01*
X197744488Y-71500051D01*
X197950303Y-71415010D01*
X198343629Y-71022370D01*
X198556757Y-70509100D01*
X198557242Y-69953339D01*
X198345010Y-69439697D01*
X197952370Y-69046371D01*
X197744488Y-68960051D01*
X197950303Y-68875010D01*
X198343629Y-68482370D01*
X198529492Y-68034760D01*
X204725715Y-68034760D01*
X204216485Y-68245169D01*
X203826539Y-68634436D01*
X203615241Y-69143298D01*
X203614760Y-69694285D01*
X203825169Y-70203515D01*
X204214436Y-70593461D01*
X204723298Y-70804759D01*
X205274285Y-70805240D01*
X205783515Y-70594831D01*
X206173461Y-70205564D01*
X206249927Y-70021414D01*
X206325169Y-70203515D01*
X206714436Y-70593461D01*
X207223298Y-70804759D01*
X207774285Y-70805240D01*
X208283515Y-70594831D01*
X208500036Y-70378687D01*
X208714436Y-70593461D01*
X209223298Y-70804759D01*
X209774285Y-70805240D01*
X210283515Y-70594831D01*
X210673461Y-70205564D01*
X210884759Y-69696702D01*
X210885240Y-69145715D01*
X210674831Y-68636485D01*
X210285564Y-68246539D01*
X209776702Y-68035241D01*
X209225715Y-68034760D01*
X208716485Y-68245169D01*
X208499964Y-68461313D01*
X208285564Y-68246539D01*
X207776702Y-68035241D01*
X207225715Y-68034760D01*
X206716485Y-68245169D01*
X206326539Y-68634436D01*
X206250073Y-68818586D01*
X206174831Y-68636485D01*
X205785564Y-68246539D01*
X205276702Y-68035241D01*
X204725715Y-68034760D01*
X198529492Y-68034760D01*
X198556757Y-67969100D01*
X198557242Y-67413339D01*
X198345010Y-66899697D01*
X197952370Y-66506371D01*
X197744488Y-66420051D01*
X197950303Y-66335010D01*
X198343629Y-65942370D01*
X198556757Y-65429100D01*
X198557242Y-64873339D01*
X198345010Y-64359697D01*
X197952370Y-63966371D01*
X197744488Y-63880051D01*
X197950303Y-63795010D01*
X198343629Y-63402370D01*
X198556757Y-62889100D01*
X198557242Y-62333339D01*
X198345010Y-61819697D01*
X197952370Y-61426371D01*
X197760273Y-61346605D01*
X197891143Y-61292397D01*
X197949530Y-61088834D01*
X203787563Y-61088834D01*
X204394155Y-61340713D01*
X205050963Y-61341286D01*
X205657995Y-61090466D01*
X205995085Y-60753963D01*
X206064222Y-60857433D01*
X206599845Y-61215325D01*
X207231655Y-61341000D01*
X207296345Y-61341000D01*
X207928155Y-61215325D01*
X208463778Y-60857433D01*
X208534000Y-60752338D01*
X208604222Y-60857433D01*
X209139845Y-61215325D01*
X209771655Y-61341000D01*
X209836345Y-61341000D01*
X210468155Y-61215325D01*
X211003778Y-60857433D01*
X211073059Y-60753746D01*
X211407563Y-61088834D01*
X212014155Y-61340713D01*
X212670963Y-61341286D01*
X213277995Y-61090466D01*
X213742834Y-60626437D01*
X213994713Y-60019845D01*
X213995286Y-59363037D01*
X213744466Y-58756005D01*
X213280437Y-58291166D01*
X212673845Y-58039287D01*
X212017037Y-58038714D01*
X211410005Y-58289534D01*
X211072915Y-58626037D01*
X211003778Y-58522567D01*
X210468155Y-58164675D01*
X209836345Y-58039000D01*
X209771655Y-58039000D01*
X209139845Y-58164675D01*
X208604222Y-58522567D01*
X208534000Y-58627662D01*
X208463778Y-58522567D01*
X207928155Y-58164675D01*
X207296345Y-58039000D01*
X207231655Y-58039000D01*
X206599845Y-58164675D01*
X206064222Y-58522567D01*
X205994941Y-58626254D01*
X205660437Y-58291166D01*
X205053845Y-58039287D01*
X204397037Y-58038714D01*
X198461413Y-58038714D01*
X198556757Y-57809100D01*
X198557242Y-57253339D01*
X198345010Y-56739697D01*
X197952370Y-56346371D01*
X197744488Y-56260051D01*
X197950303Y-56175010D01*
X198343629Y-55782370D01*
X198556757Y-55269100D01*
X198557242Y-54713339D01*
X198345010Y-54199697D01*
X197952370Y-53806371D01*
X197744488Y-53720051D01*
X197950303Y-53635010D01*
X198343629Y-53242370D01*
X198556757Y-52729100D01*
X198557242Y-52173339D01*
X198345010Y-51659697D01*
X197952370Y-51266371D01*
X197439100Y-51053243D01*
X196883339Y-51052758D01*
X196369697Y-51264990D01*
X195976371Y-51657630D01*
X195763243Y-52170900D01*
X195762758Y-52726661D01*
X195974990Y-53240303D01*
X196367630Y-53633629D01*
X196575512Y-53719949D01*
X196369697Y-53804990D01*
X195976371Y-54197630D01*
X195763243Y-54710900D01*
X195762758Y-55266661D01*
X195974990Y-55780303D01*
X196367630Y-56173629D01*
X196575512Y-56259949D01*
X196369697Y-56344990D01*
X195976371Y-56737630D01*
X195763243Y-57250900D01*
X195762758Y-57806661D01*
X195974990Y-58320303D01*
X196367630Y-58713629D01*
X196559727Y-58793395D01*
X196428857Y-58847603D01*
X196359392Y-59089787D01*
X197160000Y-59890395D01*
X197960608Y-59089787D01*
X197891143Y-58847603D01*
X197750682Y-58797491D01*
X197950303Y-58715010D01*
X198343629Y-58322370D01*
X198461413Y-58038714D01*
X204397037Y-58038714D01*
X198461413Y-58038714D01*
X198461413Y-58038714D01*
X204397037Y-58038714D01*
X203790005Y-58289534D01*
X203325166Y-58753563D01*
X203073287Y-59360155D01*
X198391219Y-59360155D01*
X198382397Y-59338857D01*
X198140213Y-59269392D01*
X197339605Y-60070000D01*
X198140213Y-60870608D01*
X198382397Y-60801143D01*
X198569144Y-60277698D01*
X198541362Y-59722632D01*
X198391219Y-59360155D01*
X203073287Y-59360155D01*
X198391219Y-59360155D01*
X198391219Y-59360155D01*
X203073287Y-59360155D01*
X203072714Y-60016963D01*
X203323534Y-60623995D01*
X203787563Y-61088834D01*
X197949530Y-61088834D01*
X197960608Y-61050213D01*
X197160000Y-60249605D01*
X196359392Y-61050213D01*
X171954000Y-61050213D01*
X171954000Y-59338857D01*
X195937603Y-59338857D01*
X195750856Y-59862302D01*
X195778638Y-60417368D01*
X195937603Y-60801143D01*
X196179787Y-60870608D01*
X196980395Y-60070000D01*
X196179787Y-59269392D01*
X195937603Y-59338857D01*
X171954000Y-59338857D01*
X171954000Y-57168967D01*
X172367383Y-57583072D01*
X172945979Y-57823326D01*
X173572473Y-57823873D01*
X174151487Y-57584629D01*
X174594872Y-57142017D01*
X174835126Y-56563421D01*
X174835673Y-55936927D01*
X174596429Y-55357913D01*
X174153817Y-54914528D01*
X173575221Y-54674274D01*
X172948727Y-54673727D01*
X172369713Y-54912971D01*
X171926328Y-55355583D01*
X171686074Y-55934179D01*
X171685961Y-56063593D01*
X171599327Y-55976808D01*
X171255799Y-55834162D01*
X170883833Y-55833838D01*
X170540057Y-55975883D01*
X170276808Y-56238673D01*
X170134162Y-56582201D01*
X170133838Y-56954167D01*
X170184000Y-57075569D01*
X170184000Y-78433178D01*
X170134162Y-78553201D01*
X170133838Y-78925167D01*
X170184000Y-79046569D01*
X170184000Y-97535995D01*
X170183999Y-97536000D01*
X170223100Y-97732567D01*
X170251367Y-97874675D01*
X170304887Y-97954774D01*
X170402883Y-98191943D01*
X170665673Y-98455192D01*
X171009201Y-98597838D01*
X171381167Y-98598162D01*
X171724943Y-98456117D01*
X171988192Y-98193327D01*
X172130838Y-97849799D01*
X172131162Y-97477833D01*
X171989117Y-97134057D01*
X171954000Y-97098879D01*
X171954000Y-85671367D01*
X172367383Y-86085472D01*
X172945979Y-86325726D01*
X173572473Y-86326273D01*
X174151487Y-86087029D01*
X174594872Y-85644417D01*
X174835126Y-85065821D01*
X174835673Y-84439327D01*
X174596429Y-83860313D01*
X174153817Y-83416928D01*
X173575221Y-83176674D01*
X172948727Y-83176127D01*
X172369713Y-83415371D01*
X171954000Y-83830359D01*
X171954000Y-79168967D01*
X172367383Y-79583072D01*
X172945979Y-79823326D01*
X173572473Y-79823873D01*
X174151487Y-79584629D01*
X174594872Y-79142017D01*
X174835126Y-78563421D01*
X174835673Y-77936927D01*
X174596429Y-77357913D01*
X174153817Y-76914528D01*
X173575221Y-76674274D01*
X172948727Y-76673727D01*
X172369713Y-76912971D01*
X171954000Y-77327959D01*
X171954000Y-63671367D01*
X172367383Y-64085472D01*
X172945979Y-64325726D01*
X173572473Y-64326273D01*
X174151487Y-64087029D01*
X174594872Y-63644417D01*
X174835126Y-63065821D01*
X174835673Y-62439327D01*
X174596429Y-61860313D01*
X174153817Y-61416928D01*
X173662121Y-61212758D01*
X176563339Y-61212758D01*
X173662121Y-61212758D01*
X173662121Y-61212758D01*
X176563339Y-61212758D01*
X176049697Y-61424990D01*
X175656371Y-61817630D01*
X175443243Y-62330900D01*
X175442758Y-62886661D01*
X175654990Y-63400303D01*
X176047630Y-63793629D01*
X176255512Y-63879949D01*
X176049697Y-63964990D01*
X175656371Y-64357630D01*
X175443243Y-64870900D01*
X175442758Y-65426661D01*
X175654990Y-65940303D01*
X176047630Y-66333629D01*
X176255512Y-66419949D01*
X176049697Y-66504990D01*
X175656371Y-66897630D01*
X175443243Y-67410900D01*
X175442758Y-67966661D01*
X175654990Y-68480303D01*
X176047630Y-68873629D01*
X176255512Y-68959949D01*
X176049697Y-69044990D01*
X175656371Y-69437630D01*
X175443243Y-69950900D01*
X175442758Y-70506661D01*
X175654990Y-71020303D01*
X176047630Y-71413629D01*
X176255512Y-71499949D01*
X176049697Y-71584990D01*
X175656371Y-71977630D01*
X175443243Y-72490900D01*
X175442758Y-73046661D01*
X175654990Y-73560303D01*
X176047630Y-73953629D01*
X176255512Y-74039949D01*
X176049697Y-74124990D01*
X175656371Y-74517630D01*
X175443243Y-75030900D01*
X175442758Y-75586661D01*
X175654990Y-76100303D01*
X176047630Y-76493629D01*
X176255512Y-76579949D01*
X176049697Y-76664990D01*
X175656371Y-77057630D01*
X175443243Y-77570900D01*
X175442758Y-78126661D01*
X175654990Y-78640303D01*
X176047630Y-79033629D01*
X176255512Y-79119949D01*
X176049697Y-79204990D01*
X175656371Y-79597630D01*
X175443243Y-80110900D01*
X175442758Y-80666661D01*
X175654990Y-81180303D01*
X176047630Y-81573629D01*
X176255512Y-81659949D01*
X176049697Y-81744990D01*
X175656371Y-82137630D01*
X175443243Y-82650900D01*
X175442758Y-83206661D01*
X175654990Y-83720303D01*
X176047630Y-84113629D01*
X176255512Y-84199949D01*
X176049697Y-84284990D01*
X175656371Y-84677630D01*
X175443243Y-85190900D01*
X175442758Y-85746661D01*
X175654990Y-86260303D01*
X176047630Y-86653629D01*
X176255512Y-86739949D01*
X176049697Y-86824990D01*
X175656371Y-87217630D01*
X175443243Y-87730900D01*
X175442810Y-88227611D01*
X174380210Y-89290210D01*
X174188367Y-89577325D01*
X174188367Y-89577326D01*
X174120999Y-89916000D01*
X174121000Y-89916005D01*
X174121000Y-107389178D01*
X166435097Y-107389178D01*
X166435162Y-107314833D01*
X166385000Y-107193431D01*
X166385000Y-103806822D01*
X166434838Y-103686799D01*
X166435162Y-103314833D01*
X166293117Y-102971057D01*
X166030327Y-102707808D01*
X165686799Y-102565162D01*
X165314833Y-102564838D01*
X164971057Y-102706883D01*
X164707808Y-102969673D01*
X164565162Y-103313201D01*
X164564838Y-103685167D01*
X164615000Y-103806569D01*
X164615000Y-107193178D01*
X164565162Y-107313201D01*
X164564838Y-107685167D01*
X164706883Y-108028943D01*
X164969673Y-108292192D01*
X165313201Y-108434838D01*
X165685167Y-108435162D01*
X166028943Y-108293117D01*
X166292192Y-108030327D01*
X166434838Y-107686799D01*
X166435097Y-107389178D01*
X174121000Y-107389178D01*
X166435097Y-107389178D01*
X166435097Y-107389178D01*
X174121000Y-107389178D01*
X174071162Y-107509201D01*
X174070838Y-107881167D01*
X174132799Y-108031124D01*
X173804833Y-108030838D01*
X173461057Y-108172883D01*
X173197808Y-108435673D01*
X155315906Y-108435673D01*
X160908834Y-102842745D01*
X161028943Y-102793117D01*
X161292192Y-102530327D01*
X161434838Y-102186799D01*
X161435162Y-101814833D01*
X161293117Y-101471057D01*
X161030327Y-101207808D01*
X160844685Y-101130722D01*
X161183629Y-100792370D01*
X161396757Y-100279100D01*
X161397242Y-99723339D01*
X161185010Y-99209697D01*
X160792370Y-98816371D01*
X160279100Y-98603243D01*
X159723339Y-98602758D01*
X159209697Y-98814990D01*
X158816371Y-99207630D01*
X158603243Y-99720900D01*
X158602758Y-100276661D01*
X158814990Y-100790303D01*
X159207630Y-101183629D01*
X159720900Y-101396757D01*
X159780799Y-101396809D01*
X159707808Y-101469673D01*
X159657434Y-101590987D01*
X153591164Y-107657256D01*
X153471057Y-107706883D01*
X153207808Y-107969673D01*
X153065162Y-108313201D01*
X153064838Y-108685167D01*
X153206883Y-109028943D01*
X153469673Y-109292192D01*
X153813201Y-109434838D01*
X154185167Y-109435162D01*
X154528943Y-109293117D01*
X154792192Y-109030327D01*
X154842566Y-108909014D01*
X155315906Y-108435673D01*
X173197808Y-108435673D01*
X155315906Y-108435673D01*
X155315906Y-108435673D01*
X173197808Y-108435673D01*
X173055162Y-108779201D01*
X173055121Y-108826077D01*
X158943198Y-122938000D01*
X115944302Y-122938000D01*
X116551901Y-122330401D01*
X116716648Y-122083839D01*
X116774500Y-121793000D01*
X116774500Y-119497963D01*
X116806692Y-119465827D01*
X116949338Y-119122299D01*
X116949662Y-118750333D01*
X116807617Y-118406557D01*
X116544827Y-118143308D01*
X116201299Y-118000662D01*
X115829333Y-118000338D01*
X70685000Y-118000338D01*
X70685000Y-112814990D01*
X129209697Y-112814990D01*
X128816371Y-113207630D01*
X128603243Y-113720900D01*
X128602758Y-114276661D01*
X128814990Y-114790303D01*
X129207630Y-115183629D01*
X129720900Y-115396757D01*
X130276661Y-115397242D01*
X130790303Y-115185010D01*
X131183629Y-114792370D01*
X131396757Y-114279100D01*
X131397242Y-113723339D01*
X131185010Y-113209697D01*
X130792370Y-112816371D01*
X130789045Y-112814990D01*
X134209697Y-112814990D01*
X130789045Y-112814990D01*
X130789045Y-112814990D01*
X134209697Y-112814990D01*
X133816371Y-113207630D01*
X133603243Y-113720900D01*
X133602758Y-114276661D01*
X133814990Y-114790303D01*
X134207630Y-115183629D01*
X134720900Y-115396757D01*
X135276661Y-115397242D01*
X135790303Y-115185010D01*
X136183629Y-114792370D01*
X136396757Y-114279100D01*
X136397242Y-113723339D01*
X136185010Y-113209697D01*
X135792370Y-112816371D01*
X135789045Y-112814990D01*
X154209697Y-112814990D01*
X153816371Y-113207630D01*
X153603243Y-113720900D01*
X153602758Y-114276661D01*
X153814990Y-114790303D01*
X154207630Y-115183629D01*
X154720900Y-115396757D01*
X155276661Y-115397242D01*
X155790303Y-115185010D01*
X156183629Y-114792370D01*
X156396757Y-114279100D01*
X156397242Y-113723339D01*
X156185010Y-113209697D01*
X155792370Y-112816371D01*
X155789045Y-112814990D01*
X159209697Y-112814990D01*
X158816371Y-113207630D01*
X158603243Y-113720900D01*
X158602758Y-114276661D01*
X158814990Y-114790303D01*
X159207630Y-115183629D01*
X159720900Y-115396757D01*
X160276661Y-115397242D01*
X160790303Y-115185010D01*
X161183629Y-114792370D01*
X161396757Y-114279100D01*
X161397242Y-113723339D01*
X161185010Y-113209697D01*
X160792370Y-112816371D01*
X160279100Y-112603243D01*
X159723339Y-112602758D01*
X159209697Y-112814990D01*
X155789045Y-112814990D01*
X155279100Y-112603243D01*
X154723339Y-112602758D01*
X154209697Y-112814990D01*
X135789045Y-112814990D01*
X135279100Y-112603243D01*
X134723339Y-112602758D01*
X134209697Y-112814990D01*
X130789045Y-112814990D01*
X130279100Y-112603243D01*
X129723339Y-112602758D01*
X129209697Y-112814990D01*
X70685000Y-112814990D01*
X70685000Y-105693330D01*
X106965267Y-105693330D01*
X106964735Y-106303991D01*
X107197932Y-106868371D01*
X107497228Y-107168191D01*
X107229821Y-107435132D01*
X106896437Y-107101166D01*
X106289845Y-106849287D01*
X105633037Y-106848714D01*
X105026005Y-107099534D01*
X104561166Y-107563563D01*
X104309287Y-108170155D01*
X104308714Y-108826963D01*
X104559534Y-109433995D01*
X105023563Y-109898834D01*
X105630155Y-110150713D01*
X106286963Y-110151286D01*
X106893995Y-109900466D01*
X107230179Y-109564868D01*
X107563563Y-109898834D01*
X108170155Y-110150713D01*
X108826963Y-110151286D01*
X109433995Y-109900466D01*
X109770179Y-109564868D01*
X110103563Y-109898834D01*
X110710155Y-110150713D01*
X111366963Y-110151286D01*
X111973995Y-109900466D01*
X112438834Y-109436437D01*
X112690713Y-108829845D01*
X112691286Y-108173037D01*
X112440466Y-107566005D01*
X111976437Y-107101166D01*
X111369845Y-106849287D01*
X110713037Y-106848714D01*
X110106005Y-107099534D01*
X109769821Y-107435132D01*
X109502914Y-107167760D01*
X109800551Y-106870643D01*
X110034733Y-106306670D01*
X110035265Y-105696009D01*
X109802068Y-105131629D01*
X109370643Y-104699449D01*
X108806670Y-104465267D01*
X108196009Y-104464735D01*
X107631629Y-104697932D01*
X93793899Y-104697932D01*
X93842914Y-104649003D01*
X94084724Y-104066659D01*
X94085081Y-103657256D01*
X128091164Y-103657256D01*
X127971057Y-103706883D01*
X127707808Y-103969673D01*
X127565162Y-104313201D01*
X127564838Y-104685167D01*
X127706883Y-105028943D01*
X127969673Y-105292192D01*
X128313201Y-105434838D01*
X128685167Y-105435162D01*
X129028943Y-105293117D01*
X129292192Y-105030327D01*
X129342566Y-104909014D01*
X133366579Y-100885000D01*
X133909522Y-100885000D01*
X134207630Y-101183629D01*
X134720900Y-101396757D01*
X135276661Y-101397242D01*
X135790303Y-101185010D01*
X136183629Y-100792370D01*
X136396757Y-100279100D01*
X136397242Y-99723339D01*
X136185010Y-99209697D01*
X135792370Y-98816371D01*
X135279100Y-98603243D01*
X134723339Y-98602758D01*
X134209697Y-98814990D01*
X93177211Y-98814990D01*
X92816659Y-98665276D01*
X92186107Y-98664725D01*
X91603343Y-98905519D01*
X91157086Y-99350997D01*
X90915276Y-99933341D01*
X90914725Y-100563893D01*
X91155519Y-101146657D01*
X91600997Y-101592914D01*
X92183341Y-101834724D01*
X92813893Y-101835275D01*
X93396657Y-101594481D01*
X93842914Y-101149003D01*
X94084724Y-100566659D01*
X94085275Y-99936107D01*
X93844481Y-99353343D01*
X93399003Y-98907086D01*
X93177211Y-98814990D01*
X134209697Y-98814990D01*
X93177211Y-98814990D01*
X93177211Y-98814990D01*
X134209697Y-98814990D01*
X133909163Y-99115000D01*
X133000005Y-99115000D01*
X133000000Y-99114999D01*
X132717516Y-99171190D01*
X132661325Y-99182367D01*
X132374210Y-99374210D01*
X132374208Y-99374213D01*
X128091164Y-103657256D01*
X94085081Y-103657256D01*
X94085275Y-103436107D01*
X93844481Y-102853343D01*
X93399003Y-102407086D01*
X92816659Y-102165276D01*
X92186107Y-102164725D01*
X91603343Y-102405519D01*
X91157086Y-102850997D01*
X90915276Y-103433341D01*
X90914725Y-104063893D01*
X91155519Y-104646657D01*
X91600997Y-105092914D01*
X92183341Y-105334724D01*
X92813893Y-105335275D01*
X93396657Y-105094481D01*
X93793899Y-104697932D01*
X107631629Y-104697932D01*
X93793899Y-104697932D01*
X93793899Y-104697932D01*
X107631629Y-104697932D01*
X107199449Y-105129357D01*
X106965267Y-105693330D01*
X70685000Y-105693330D01*
X70685000Y-95405519D01*
X91603343Y-95405519D01*
X91157086Y-95850997D01*
X90915276Y-96433341D01*
X90914725Y-97063893D01*
X91155519Y-97646657D01*
X91600997Y-98092914D01*
X92183341Y-98334724D01*
X92813893Y-98335275D01*
X93396657Y-98094481D01*
X93842914Y-97649003D01*
X94084724Y-97066659D01*
X94085275Y-96436107D01*
X93844481Y-95853343D01*
X93399003Y-95407086D01*
X92816659Y-95165276D01*
X92186107Y-95164725D01*
X91603343Y-95405519D01*
X70685000Y-95405519D01*
X70685000Y-91905519D01*
X91603343Y-91905519D01*
X91157086Y-92350997D01*
X90915276Y-92933341D01*
X90914725Y-93563893D01*
X91155519Y-94146657D01*
X91600997Y-94592914D01*
X92183341Y-94834724D01*
X92813893Y-94835275D01*
X93396657Y-94594481D01*
X93842914Y-94149003D01*
X94084724Y-93566659D01*
X94085275Y-92936107D01*
X93844481Y-92353343D01*
X93399003Y-91907086D01*
X92816659Y-91665276D01*
X92186107Y-91664725D01*
X91603343Y-91905519D01*
X70685000Y-91905519D01*
X70685000Y-88405519D01*
X91603343Y-88405519D01*
X91157086Y-88850997D01*
X90915276Y-89433341D01*
X90914725Y-90063893D01*
X91155519Y-90646657D01*
X91600997Y-91092914D01*
X92183341Y-91334724D01*
X92813893Y-91335275D01*
X93396657Y-91094481D01*
X93842914Y-90649003D01*
X94084724Y-90066659D01*
X94085275Y-89436107D01*
X93844481Y-88853343D01*
X93399003Y-88407086D01*
X92816659Y-88165276D01*
X92186107Y-88164725D01*
X91603343Y-88405519D01*
X70685000Y-88405519D01*
X70685000Y-84905519D01*
X91603343Y-84905519D01*
X91157086Y-85350997D01*
X90915276Y-85933341D01*
X90914725Y-86563893D01*
X91155519Y-87146657D01*
X91600997Y-87592914D01*
X92183341Y-87834724D01*
X92813893Y-87835275D01*
X93396657Y-87594481D01*
X93842914Y-87149003D01*
X94084724Y-86566659D01*
X94085275Y-85936107D01*
X93844481Y-85353343D01*
X93399003Y-84907086D01*
X92816659Y-84665276D01*
X92186107Y-84664725D01*
X91603343Y-84905519D01*
X70685000Y-84905519D01*
X70685000Y-84436579D01*
X119686074Y-84436579D01*
X119685527Y-85063073D01*
X119924771Y-85642087D01*
X120367383Y-86085472D01*
X120945979Y-86325726D01*
X121572473Y-86326273D01*
X122151487Y-86087029D01*
X122594872Y-85644417D01*
X122835126Y-85065821D01*
X122835673Y-84439327D01*
X122596429Y-83860313D01*
X122153817Y-83416928D01*
X121575221Y-83176674D01*
X120948727Y-83176127D01*
X120369713Y-83415371D01*
X93939926Y-83415371D01*
X94084724Y-83066659D01*
X94085275Y-82436107D01*
X93844481Y-81853343D01*
X93399003Y-81407086D01*
X92816659Y-81165276D01*
X92186107Y-81164725D01*
X91603343Y-81405519D01*
X91157086Y-81850997D01*
X90915276Y-82433341D01*
X90914725Y-83063893D01*
X91155519Y-83646657D01*
X91600997Y-84092914D01*
X92183341Y-84334724D01*
X92813893Y-84335275D01*
X93396657Y-84094481D01*
X93842914Y-83649003D01*
X93939926Y-83415371D01*
X120369713Y-83415371D01*
X93939926Y-83415371D01*
X93939926Y-83415371D01*
X120369713Y-83415371D01*
X119926328Y-83857983D01*
X119686074Y-84436579D01*
X70685000Y-84436579D01*
X70685000Y-76912971D01*
X120369713Y-76912971D01*
X119926328Y-77355583D01*
X119686074Y-77934179D01*
X119685527Y-78560673D01*
X119924771Y-79139687D01*
X120367383Y-79583072D01*
X120945979Y-79823326D01*
X121572473Y-79823873D01*
X122151487Y-79584629D01*
X122594872Y-79142017D01*
X122835126Y-78563421D01*
X122835673Y-77936927D01*
X122596429Y-77357913D01*
X122153817Y-76914528D01*
X121575221Y-76674274D01*
X120948727Y-76673727D01*
X120369713Y-76912971D01*
X70685000Y-76912971D01*
X70685000Y-55920166D01*
X82945611Y-55920166D01*
X82390847Y-56290847D01*
X82020166Y-56845611D01*
X82016585Y-56863615D01*
X81672084Y-56863314D01*
X78092770Y-58342256D01*
X75351881Y-61078365D01*
X73866693Y-64655093D01*
X73863314Y-68527916D01*
X75342256Y-72107230D01*
X78078365Y-74848119D01*
X81655093Y-76333307D01*
X85527916Y-76336686D01*
X89107230Y-74857744D01*
X91848119Y-72121635D01*
X93333307Y-68544907D01*
X93336686Y-64672084D01*
X91991040Y-61415371D01*
X120369713Y-61415371D01*
X119926328Y-61857983D01*
X119686074Y-62436579D01*
X119685527Y-63063073D01*
X119924771Y-63642087D01*
X120367383Y-64085472D01*
X120945979Y-64325726D01*
X121572473Y-64326273D01*
X122151487Y-64087029D01*
X122594872Y-63644417D01*
X122835126Y-63065821D01*
X122835673Y-62439327D01*
X122596429Y-61860313D01*
X122153817Y-61416928D01*
X121575221Y-61176674D01*
X120948727Y-61176127D01*
X120369713Y-61415371D01*
X91991040Y-61415371D01*
X91857744Y-61092770D01*
X89121635Y-58351881D01*
X85544907Y-56866693D01*
X85183965Y-56866378D01*
X85179834Y-56845611D01*
X84809153Y-56290847D01*
X84254389Y-55920166D01*
X83600000Y-55790000D01*
X82945611Y-55920166D01*
X70685000Y-55920166D01*
X70685000Y-54912971D01*
X120369713Y-54912971D01*
X119926328Y-55355583D01*
X119686074Y-55934179D01*
X119685527Y-56560673D01*
X119924771Y-57139687D01*
X120367383Y-57583072D01*
X120945979Y-57823326D01*
X121572473Y-57823873D01*
X122151487Y-57584629D01*
X122594872Y-57142017D01*
X122835126Y-56563421D01*
X122835673Y-55936927D01*
X122596429Y-55357913D01*
X122153817Y-54914528D01*
X121575221Y-54674274D01*
X120948727Y-54673727D01*
X120369713Y-54912971D01*
X70685000Y-54912971D01*
X70685000Y-53690000D01*
X124450000Y-53690000D01*
X124178295Y-53744046D01*
X123947954Y-53897954D01*
X123794046Y-54128295D01*
X123740000Y-54400000D01*
X123740000Y-89600000D01*
X123794046Y-89871705D01*
X123947954Y-90102046D01*
X124178295Y-90255954D01*
X124450000Y-90310000D01*
X165550000Y-90310000D01*
X165821705Y-90255954D01*
X166052046Y-90102046D01*
X166205954Y-89871705D01*
X166260000Y-89600000D01*
X166260000Y-54400000D01*
X166205954Y-54128295D01*
X166052046Y-53897954D01*
X165821705Y-53744046D01*
X165550000Y-53690000D01*
X124450000Y-53690000D01*
X70685000Y-53690000D01*
X70685000Y-52314285D01*
X132184760Y-52314285D01*
X132395169Y-52823515D01*
X132784436Y-53213461D01*
X133293298Y-53424759D01*
X133844285Y-53425240D01*
X134353515Y-53214831D01*
X134743461Y-52825564D01*
X134839976Y-52593130D01*
X134935169Y-52823515D01*
X135324436Y-53213461D01*
X135833298Y-53424759D01*
X136384285Y-53425240D01*
X136893515Y-53214831D01*
X137283461Y-52825564D01*
X137494759Y-52316702D01*
X137495240Y-51765715D01*
X137284831Y-51256485D01*
X136895564Y-50866539D01*
X136663130Y-50770024D01*
X136893515Y-50674831D01*
X137283461Y-50285564D01*
X137494759Y-49776702D01*
X137495240Y-49225715D01*
X137284831Y-48716485D01*
X136895564Y-48326539D01*
X136892265Y-48325169D01*
X148026485Y-48325169D01*
X147636539Y-48714436D01*
X147425241Y-49223298D01*
X147424760Y-49774285D01*
X147635169Y-50283515D01*
X148024436Y-50673461D01*
X148256870Y-50769976D01*
X148026485Y-50865169D01*
X147636539Y-51254436D01*
X147425241Y-51763298D01*
X147424760Y-52314285D01*
X147635169Y-52823515D01*
X148024436Y-53213461D01*
X148533298Y-53424759D01*
X149084285Y-53425240D01*
X149593515Y-53214831D01*
X149983461Y-52825564D01*
X150079976Y-52593130D01*
X150175169Y-52823515D01*
X150564436Y-53213461D01*
X151073298Y-53424759D01*
X151624285Y-53425240D01*
X152133515Y-53214831D01*
X152523461Y-52825564D01*
X152734759Y-52316702D01*
X152735240Y-51765715D01*
X152524831Y-51256485D01*
X152522786Y-51254436D01*
X155256539Y-51254436D01*
X155045241Y-51763298D01*
X155044760Y-52314285D01*
X155255169Y-52823515D01*
X155644436Y-53213461D01*
X156153298Y-53424759D01*
X156704285Y-53425240D01*
X157213515Y-53214831D01*
X157603461Y-52825564D01*
X157814759Y-52316702D01*
X157815240Y-51765715D01*
X157604831Y-51256485D01*
X157215564Y-50866539D01*
X156706702Y-50655241D01*
X156155715Y-50654760D01*
X155646485Y-50865169D01*
X154212860Y-50865169D01*
X154673515Y-50674831D01*
X155063461Y-50285564D01*
X155274759Y-49776702D01*
X155275240Y-49225715D01*
X155064831Y-48716485D01*
X154675564Y-48326539D01*
X154344551Y-48189090D01*
X213792273Y-48189090D01*
X213191200Y-48789114D01*
X212865501Y-49573485D01*
X212864760Y-50422789D01*
X213189090Y-51207727D01*
X213789114Y-51808800D01*
X214573485Y-52134499D01*
X215422789Y-52135240D01*
X216207727Y-51810910D01*
X216808800Y-51210886D01*
X217134499Y-50426515D01*
X217135240Y-49577211D01*
X216810910Y-48792273D01*
X216210886Y-48191200D01*
X215426515Y-47865501D01*
X214577211Y-47864760D01*
X213792273Y-48189090D01*
X154344551Y-48189090D01*
X154166702Y-48115241D01*
X153615715Y-48114760D01*
X153106485Y-48325169D01*
X152716539Y-48714436D01*
X152505241Y-49223298D01*
X152504760Y-49774285D01*
X152715169Y-50283515D01*
X153104436Y-50673461D01*
X153613298Y-50884759D01*
X154164285Y-50885240D01*
X154212860Y-50865169D01*
X155646485Y-50865169D01*
X154212860Y-50865169D01*
X154212860Y-50865169D01*
X155646485Y-50865169D01*
X155256539Y-51254436D01*
X152522786Y-51254436D01*
X152135564Y-50866539D01*
X151626702Y-50655241D01*
X151075715Y-50654760D01*
X150566485Y-50865169D01*
X150176539Y-51254436D01*
X150080024Y-51486870D01*
X149984831Y-51256485D01*
X149595564Y-50866539D01*
X149363130Y-50770024D01*
X149593515Y-50674831D01*
X149983461Y-50285564D01*
X150194759Y-49776702D01*
X150195240Y-49225715D01*
X149984831Y-48716485D01*
X149595564Y-48326539D01*
X149086702Y-48115241D01*
X148535715Y-48114760D01*
X148026485Y-48325169D01*
X136892265Y-48325169D01*
X136386702Y-48115241D01*
X135835715Y-48114760D01*
X135326485Y-48325169D01*
X110015540Y-48325169D01*
X110046458Y-48240664D01*
X110020839Y-47630540D01*
X109836643Y-47185852D01*
X109580159Y-47099446D01*
X108679605Y-48000000D01*
X109580159Y-48900554D01*
X109836643Y-48814148D01*
X110015540Y-48325169D01*
X135326485Y-48325169D01*
X110015540Y-48325169D01*
X110015540Y-48325169D01*
X135326485Y-48325169D01*
X134936539Y-48714436D01*
X134725241Y-49223298D01*
X109352332Y-49223298D01*
X109400554Y-49080159D01*
X108500000Y-48179605D01*
X107599446Y-49080159D01*
X107685852Y-49336643D01*
X108259336Y-49546458D01*
X108869460Y-49520839D01*
X109314148Y-49336643D01*
X109352332Y-49223298D01*
X134725241Y-49223298D01*
X109352332Y-49223298D01*
X109352332Y-49223298D01*
X134725241Y-49223298D01*
X134724760Y-49774285D01*
X95197860Y-49774285D01*
X95197860Y-49400560D01*
X95150883Y-49158437D01*
X95011093Y-48945633D01*
X94800060Y-48803183D01*
X94550420Y-48753120D01*
X93351540Y-48753120D01*
X93109417Y-48800097D01*
X93010614Y-48865000D01*
X92500000Y-48865000D01*
X92065654Y-48951397D01*
X91697434Y-49197434D01*
X91451397Y-49565654D01*
X91365000Y-50000000D01*
X91451397Y-50434346D01*
X91697434Y-50802566D01*
X92065654Y-51048603D01*
X92500000Y-51135000D01*
X93010321Y-51135000D01*
X93101900Y-51196817D01*
X93351540Y-51246880D01*
X94550420Y-51246880D01*
X94792543Y-51199903D01*
X95005347Y-51060113D01*
X95147797Y-50849080D01*
X95197860Y-50599440D01*
X95197860Y-49774285D01*
X134724760Y-49774285D01*
X95197860Y-49774285D01*
X95197860Y-49774285D01*
X134724760Y-49774285D01*
X134935169Y-50283515D01*
X135324436Y-50673461D01*
X135556870Y-50769976D01*
X135326485Y-50865169D01*
X134936539Y-51254436D01*
X134840024Y-51486870D01*
X134744831Y-51256485D01*
X134355564Y-50866539D01*
X133846702Y-50655241D01*
X133295715Y-50654760D01*
X132786485Y-50865169D01*
X132396539Y-51254436D01*
X76765173Y-51254436D01*
X76808800Y-51210886D01*
X77134499Y-50426515D01*
X77135240Y-49577211D01*
X76810910Y-48792273D01*
X76771826Y-48753120D01*
X81851540Y-48753120D01*
X81609417Y-48800097D01*
X81510614Y-48865000D01*
X81000000Y-48865000D01*
X80565654Y-48951397D01*
X80197434Y-49197434D01*
X79951397Y-49565654D01*
X79865000Y-50000000D01*
X79951397Y-50434346D01*
X80197434Y-50802566D01*
X80565654Y-51048603D01*
X81000000Y-51135000D01*
X81510321Y-51135000D01*
X81601900Y-51196817D01*
X81851540Y-51246880D01*
X83050420Y-51246880D01*
X83292543Y-51199903D01*
X83505347Y-51060113D01*
X83647797Y-50849080D01*
X83697860Y-50599440D01*
X83697860Y-49400560D01*
X83650883Y-49158437D01*
X83511093Y-48945633D01*
X83300060Y-48803183D01*
X83050420Y-48753120D01*
X81851540Y-48753120D01*
X76771826Y-48753120D01*
X76210886Y-48191200D01*
X75426515Y-47865501D01*
X74577211Y-47864760D01*
X73792273Y-48189090D01*
X73191200Y-48789114D01*
X72865501Y-49573485D01*
X72864760Y-50422789D01*
X73189090Y-51207727D01*
X73789114Y-51808800D01*
X74573485Y-52134499D01*
X75422789Y-52135240D01*
X76207727Y-51810910D01*
X76765173Y-51254436D01*
X132396539Y-51254436D01*
X76765173Y-51254436D01*
X76765173Y-51254436D01*
X132396539Y-51254436D01*
X132185241Y-51763298D01*
X132184760Y-52314285D01*
X70685000Y-52314285D01*
X70685000Y-50067467D01*
X71025858Y-48353858D01*
X71806293Y-47185852D01*
X107163357Y-47185852D01*
X106953542Y-47759336D01*
X106979161Y-48369460D01*
X107163357Y-48814148D01*
X107419841Y-48900554D01*
X108320395Y-48000000D01*
X107419841Y-47099446D01*
X107163357Y-47185852D01*
X71806293Y-47185852D01*
X71958323Y-46958324D01*
X72675440Y-46479161D01*
X108130540Y-46479161D01*
X107685852Y-46663357D01*
X107599446Y-46919841D01*
X108500000Y-47820395D01*
X109400554Y-46919841D01*
X109314148Y-46663357D01*
X108740664Y-46453542D01*
X108130540Y-46479161D01*
X72675440Y-46479161D01*
X73353856Y-46025858D01*
X75067467Y-45685000D01*
X214932533Y-45685000D01*
X216646142Y-46025858D01*
X216646142Y-46025858D01*
G37*
X216646142Y-46025858D02*
X218041676Y-46958323D01*
X218974142Y-48353856D01*
X219315000Y-50067467D01*
X219315000Y-139932533D01*
X218974142Y-141646144D01*
X218041676Y-143041677D01*
X216646142Y-143974142D01*
X214932533Y-144315000D01*
X75067467Y-144315000D01*
X73353856Y-143974142D01*
X71958323Y-143041676D01*
X71527694Y-142397192D01*
X80622673Y-142397192D01*
X80966201Y-142539838D01*
X81251512Y-142540087D01*
X81329867Y-142659367D01*
X81540900Y-142801817D01*
X81790540Y-142851880D01*
X82989420Y-142851880D01*
X83231543Y-142804903D01*
X83440329Y-142667752D01*
X83638940Y-142801817D01*
X83888580Y-142851880D01*
X85087460Y-142851880D01*
X85329583Y-142804903D01*
X85542387Y-142665113D01*
X85626897Y-142539915D01*
X85910167Y-142540162D01*
X86253943Y-142398117D01*
X86517192Y-142135327D01*
X86659838Y-141791799D01*
X86660162Y-141419833D01*
X86572522Y-141207727D01*
X213189090Y-141207727D01*
X213789114Y-141808800D01*
X214573485Y-142134499D01*
X215422789Y-142135240D01*
X216207727Y-141810910D01*
X216808800Y-141210886D01*
X217134499Y-140426515D01*
X217135240Y-139577211D01*
X216810910Y-138792273D01*
X216210886Y-138191200D01*
X215426515Y-137865501D01*
X214577211Y-137864760D01*
X213792273Y-138189090D01*
X187443728Y-138189090D01*
X188092629Y-137217942D01*
X188092629Y-137217941D01*
X188198644Y-136962001D01*
X188561358Y-135138514D01*
X188561358Y-135022796D01*
X188568926Y-134907327D01*
X188406563Y-133674054D01*
X188369364Y-133564471D01*
X188339416Y-133452702D01*
X187517109Y-131785227D01*
X187348464Y-131565446D01*
X186516713Y-130836019D01*
X207684843Y-130836019D01*
X207238586Y-131281497D01*
X206996776Y-131863841D01*
X206996225Y-132494393D01*
X207237019Y-133077157D01*
X207682497Y-133523414D01*
X208264841Y-133765224D01*
X208895393Y-133765775D01*
X209478157Y-133524981D01*
X209924414Y-133079503D01*
X210166224Y-132497159D01*
X210166775Y-131866607D01*
X209925981Y-131283843D01*
X209480503Y-130837586D01*
X208898159Y-130595776D01*
X208267607Y-130595225D01*
X207684843Y-130836019D01*
X186516713Y-130836019D01*
X185950636Y-130339583D01*
X185851075Y-130282101D01*
X185756705Y-130219046D01*
X185734056Y-130214541D01*
X185710722Y-130201069D01*
X185579435Y-130183784D01*
X185485000Y-130165000D01*
X185436755Y-130165000D01*
X185436064Y-130164909D01*
X185435724Y-130165000D01*
X180715000Y-130165000D01*
X180634762Y-130180960D01*
X180533739Y-130187582D01*
X180487947Y-130210164D01*
X180443295Y-130219046D01*
X180368235Y-130269199D01*
X180285280Y-130310108D01*
X179298416Y-131067355D01*
X179222121Y-131154353D01*
X179140292Y-131236182D01*
X178107371Y-132782058D01*
X178107371Y-132782059D01*
X178001356Y-133037999D01*
X177638642Y-134861486D01*
X177638643Y-135000000D01*
X177638642Y-135138514D01*
X178001356Y-136962001D01*
X178076320Y-137142978D01*
X178107371Y-137217942D01*
X179140292Y-138763818D01*
X179336181Y-138959707D01*
X180882058Y-139992629D01*
X181137999Y-140098644D01*
X182961486Y-140461358D01*
X183238514Y-140461358D01*
X185062001Y-140098644D01*
X185249091Y-140021148D01*
X185317942Y-139992629D01*
X186863818Y-138959708D01*
X187059707Y-138763819D01*
X187443728Y-138189090D01*
X213792273Y-138189090D01*
X187443728Y-138189090D01*
X187443728Y-138189090D01*
X213792273Y-138189090D01*
X213191200Y-138789114D01*
X212865501Y-139573485D01*
X212864760Y-140422789D01*
X213189090Y-141207727D01*
X86572522Y-141207727D01*
X86518117Y-141076057D01*
X86255327Y-140812808D01*
X85911799Y-140670162D01*
X85626488Y-140669913D01*
X85548133Y-140550633D01*
X85416521Y-140461794D01*
X85542387Y-140379113D01*
X85626897Y-140253915D01*
X85910167Y-140254162D01*
X86253943Y-140112117D01*
X86373639Y-139992629D01*
X104682058Y-139992629D01*
X104937999Y-140098644D01*
X106761486Y-140461358D01*
X107038514Y-140461358D01*
X108862001Y-140098644D01*
X109049091Y-140021148D01*
X109117942Y-139992629D01*
X123732058Y-139992629D01*
X123987999Y-140098644D01*
X125811486Y-140461358D01*
X126088514Y-140461358D01*
X127912001Y-140098644D01*
X128099091Y-140021148D01*
X128167942Y-139992629D01*
X142782058Y-139992629D01*
X143037999Y-140098644D01*
X144861486Y-140461358D01*
X145138514Y-140461358D01*
X146962001Y-140098644D01*
X147149091Y-140021148D01*
X147217942Y-139992629D01*
X161832058Y-139992629D01*
X147217942Y-139992629D01*
X147217942Y-139992629D01*
X161832058Y-139992629D01*
X162087999Y-140098644D01*
X163911486Y-140461358D01*
X164188514Y-140461358D01*
X166012001Y-140098644D01*
X166199091Y-140021148D01*
X166267942Y-139992629D01*
X167813818Y-138959708D01*
X168009707Y-138763819D01*
X169042629Y-137217942D01*
X169042629Y-137217941D01*
X169148644Y-136962001D01*
X169511358Y-135138514D01*
X169511358Y-135022796D01*
X169518926Y-134907327D01*
X169356563Y-133674054D01*
X169319364Y-133564471D01*
X169289416Y-133452702D01*
X168467109Y-131785227D01*
X168298464Y-131565446D01*
X166900636Y-130339583D01*
X166801075Y-130282101D01*
X166706705Y-130219046D01*
X166684056Y-130214541D01*
X166660722Y-130201069D01*
X166529435Y-130183784D01*
X166435000Y-130165000D01*
X166386755Y-130165000D01*
X166386064Y-130164909D01*
X166385724Y-130165000D01*
X161665000Y-130165000D01*
X161584762Y-130180960D01*
X161483739Y-130187582D01*
X161437947Y-130210164D01*
X161393295Y-130219046D01*
X161318235Y-130269199D01*
X161235280Y-130310108D01*
X160248416Y-131067355D01*
X160172121Y-131154353D01*
X160090292Y-131236182D01*
X159057371Y-132782058D01*
X159057371Y-132782059D01*
X158951356Y-133037999D01*
X158588642Y-134861486D01*
X158588643Y-135000000D01*
X158588642Y-135138514D01*
X158951356Y-136962001D01*
X159026320Y-137142978D01*
X159057371Y-137217942D01*
X160090292Y-138763818D01*
X160286181Y-138959707D01*
X161832058Y-139992629D01*
X147217942Y-139992629D01*
X147217942Y-139992629D01*
X148763818Y-138959708D01*
X148959707Y-138763819D01*
X149992629Y-137217942D01*
X149992629Y-137217941D01*
X150098644Y-136962001D01*
X150461358Y-135138514D01*
X150461358Y-135022796D01*
X150468926Y-134907327D01*
X150306563Y-133674054D01*
X150269364Y-133564471D01*
X150239416Y-133452702D01*
X149417109Y-131785227D01*
X149248464Y-131565446D01*
X147850636Y-130339583D01*
X147751075Y-130282101D01*
X147656705Y-130219046D01*
X147634056Y-130214541D01*
X147610722Y-130201069D01*
X147479435Y-130183784D01*
X147385000Y-130165000D01*
X147336755Y-130165000D01*
X147336064Y-130164909D01*
X147335724Y-130165000D01*
X142615000Y-130165000D01*
X142534762Y-130180960D01*
X142433739Y-130187582D01*
X142387947Y-130210164D01*
X142343295Y-130219046D01*
X142268235Y-130269199D01*
X142185280Y-130310108D01*
X141198416Y-131067355D01*
X141122121Y-131154353D01*
X141040292Y-131236182D01*
X140007371Y-132782058D01*
X140007371Y-132782059D01*
X139901356Y-133037999D01*
X139538642Y-134861486D01*
X139538643Y-135000000D01*
X139538642Y-135138514D01*
X139901356Y-136962001D01*
X139976320Y-137142978D01*
X140007371Y-137217942D01*
X141040292Y-138763818D01*
X141236181Y-138959707D01*
X142782058Y-139992629D01*
X128167942Y-139992629D01*
X128167942Y-139992629D01*
X129713818Y-138959708D01*
X129909707Y-138763819D01*
X130942629Y-137217942D01*
X130942629Y-137217941D01*
X131048644Y-136962001D01*
X131411358Y-135138514D01*
X131411358Y-135022796D01*
X131418926Y-134907327D01*
X131256563Y-133674054D01*
X131219364Y-133564471D01*
X131189416Y-133452702D01*
X130367109Y-131785227D01*
X130198464Y-131565446D01*
X128800636Y-130339583D01*
X128701075Y-130282101D01*
X128606705Y-130219046D01*
X128584056Y-130214541D01*
X128560722Y-130201069D01*
X128429435Y-130183784D01*
X128335000Y-130165000D01*
X128286755Y-130165000D01*
X128286064Y-130164909D01*
X128285724Y-130165000D01*
X123565000Y-130165000D01*
X123484762Y-130180960D01*
X123383739Y-130187582D01*
X123337947Y-130210164D01*
X123293295Y-130219046D01*
X123218235Y-130269199D01*
X123135280Y-130310108D01*
X122148416Y-131067355D01*
X122072121Y-131154353D01*
X121990292Y-131236182D01*
X120957371Y-132782058D01*
X120957371Y-132782059D01*
X120851356Y-133037999D01*
X120488642Y-134861486D01*
X120488643Y-135000000D01*
X120488642Y-135138514D01*
X120851356Y-136962001D01*
X120926320Y-137142978D01*
X120957371Y-137217942D01*
X121990292Y-138763818D01*
X122186181Y-138959707D01*
X123732058Y-139992629D01*
X109117942Y-139992629D01*
X109117942Y-139992629D01*
X110663818Y-138959708D01*
X110859707Y-138763819D01*
X111892629Y-137217942D01*
X111892629Y-137217941D01*
X111998644Y-136962001D01*
X112361358Y-135138514D01*
X112361358Y-135022796D01*
X112368926Y-134907327D01*
X112206563Y-133674054D01*
X112169364Y-133564471D01*
X112139416Y-133452702D01*
X111317109Y-131785227D01*
X111148464Y-131565446D01*
X109750636Y-130339583D01*
X109651075Y-130282101D01*
X109556705Y-130219046D01*
X109534056Y-130214541D01*
X109510722Y-130201069D01*
X109379435Y-130183784D01*
X109285000Y-130165000D01*
X109236755Y-130165000D01*
X109236064Y-130164909D01*
X109235724Y-130165000D01*
X104515000Y-130165000D01*
X104434762Y-130180960D01*
X104333739Y-130187582D01*
X104287947Y-130210164D01*
X104243295Y-130219046D01*
X104168235Y-130269199D01*
X104085280Y-130310108D01*
X103098416Y-131067355D01*
X103022121Y-131154353D01*
X102940292Y-131236182D01*
X101907371Y-132782058D01*
X101907371Y-132782059D01*
X101801356Y-133037999D01*
X101438642Y-134861486D01*
X101438643Y-135000000D01*
X101438642Y-135138514D01*
X101801356Y-136962001D01*
X101876320Y-137142978D01*
X101907371Y-137217942D01*
X102940292Y-138763818D01*
X103136181Y-138959707D01*
X104682058Y-139992629D01*
X86373639Y-139992629D01*
X86517192Y-139849327D01*
X86659838Y-139505799D01*
X86660162Y-139133833D01*
X86518117Y-138790057D01*
X86255327Y-138526808D01*
X85911799Y-138384162D01*
X85626488Y-138383913D01*
X85548133Y-138264633D01*
X85337100Y-138122183D01*
X85087460Y-138072120D01*
X83888580Y-138072120D01*
X83646457Y-138119097D01*
X83437671Y-138256248D01*
X83239060Y-138122183D01*
X82989420Y-138072120D01*
X81790540Y-138072120D01*
X75924110Y-138072120D01*
X75426515Y-137865501D01*
X74577211Y-137864760D01*
X73792273Y-138189090D01*
X73191200Y-138789114D01*
X72865501Y-139573485D01*
X72864760Y-140422789D01*
X73189090Y-141207727D01*
X73789114Y-141808800D01*
X74573485Y-142134499D01*
X75422789Y-142135240D01*
X76207727Y-141810910D01*
X76808800Y-141210886D01*
X77134499Y-140426515D01*
X77135240Y-139577211D01*
X76810910Y-138792273D01*
X76210886Y-138191200D01*
X75924110Y-138072120D01*
X81790540Y-138072120D01*
X75924110Y-138072120D01*
X75924110Y-138072120D01*
X81790540Y-138072120D01*
X81548417Y-138119097D01*
X81335613Y-138258887D01*
X81251103Y-138384085D01*
X80967833Y-138383838D01*
X80624057Y-138525883D01*
X80360808Y-138788673D01*
X80218162Y-139132201D01*
X80217838Y-139504167D01*
X80359883Y-139847943D01*
X80622673Y-140111192D01*
X80966201Y-140253838D01*
X81251512Y-140254087D01*
X81329867Y-140373367D01*
X81461479Y-140462206D01*
X81335613Y-140544887D01*
X81251103Y-140670085D01*
X80967833Y-140669838D01*
X80624057Y-140811883D01*
X80360808Y-141074673D01*
X80218162Y-141418201D01*
X80217838Y-141790167D01*
X80359883Y-142133943D01*
X80622673Y-142397192D01*
X71527694Y-142397192D01*
X71025858Y-141646142D01*
X70685000Y-139932533D01*
X70685000Y-133858081D01*
X89236655Y-133858081D01*
X88857632Y-134236443D01*
X88652254Y-134731049D01*
X88651786Y-135266601D01*
X88856301Y-135761565D01*
X89234663Y-136140588D01*
X89729269Y-136345966D01*
X90264821Y-136346434D01*
X90759785Y-136141919D01*
X91138808Y-135763557D01*
X91344186Y-135268951D01*
X91344654Y-134733399D01*
X91140139Y-134238435D01*
X90761777Y-133859412D01*
X90267171Y-133654034D01*
X89731619Y-133653566D01*
X89236655Y-133858081D01*
X70685000Y-133858081D01*
X70685000Y-127336019D01*
X207684843Y-127336019D01*
X207238586Y-127781497D01*
X206996776Y-128363841D01*
X206996225Y-128994393D01*
X207237019Y-129577157D01*
X207682497Y-130023414D01*
X208264841Y-130265224D01*
X208895393Y-130265775D01*
X209478157Y-130024981D01*
X209924414Y-129579503D01*
X210166224Y-128997159D01*
X210166775Y-128366607D01*
X209925981Y-127783843D01*
X209480503Y-127337586D01*
X208898159Y-127095776D01*
X208267607Y-127095225D01*
X207684843Y-127336019D01*
X70685000Y-127336019D01*
X70685000Y-118000338D01*
X115829333Y-118000338D01*
X115485557Y-118142383D01*
X115222308Y-118405173D01*
X115079662Y-118748701D01*
X115079338Y-119120667D01*
X115221383Y-119464443D01*
X115254500Y-119497618D01*
X115254500Y-121478198D01*
X114556698Y-122176000D01*
X93653241Y-122176000D01*
X93494327Y-122016808D01*
X93150799Y-121874162D01*
X92778833Y-121873838D01*
X92435057Y-122015883D01*
X92171808Y-122278673D01*
X92029162Y-122622201D01*
X92028838Y-122994167D01*
X92136080Y-123253714D01*
X92029162Y-123511201D01*
X92028838Y-123883167D01*
X92154601Y-124187537D01*
X92092662Y-124336701D01*
X92092338Y-124708667D01*
X92234383Y-125052443D01*
X92497173Y-125315692D01*
X92840701Y-125458338D01*
X93212667Y-125458662D01*
X93556443Y-125316617D01*
X93780451Y-125093000D01*
X159575500Y-125093000D01*
X159866339Y-125035148D01*
X160112901Y-124870401D01*
X163230182Y-121753120D01*
X181351540Y-121753120D01*
X181109417Y-121800097D01*
X181010614Y-121865000D01*
X180915748Y-121865000D01*
X180594000Y-121801000D01*
X180159655Y-121887397D01*
X179791434Y-122133434D01*
X179545397Y-122501655D01*
X179459000Y-122936000D01*
X179545397Y-123370345D01*
X179791434Y-123738566D01*
X179855434Y-123802566D01*
X180223655Y-124048604D01*
X180658000Y-124135000D01*
X181010321Y-124135000D01*
X181101900Y-124196817D01*
X181351540Y-124246880D01*
X182550420Y-124246880D01*
X182792543Y-124199903D01*
X183001329Y-124062752D01*
X183199940Y-124196817D01*
X183449580Y-124246880D01*
X184648460Y-124246880D01*
X184890583Y-124199903D01*
X184989386Y-124135000D01*
X185229000Y-124135000D01*
X185663346Y-124048603D01*
X186031566Y-123802566D01*
X186095566Y-123738566D01*
X186341604Y-123370345D01*
X186428000Y-122936000D01*
X186341604Y-122501654D01*
X186095566Y-122133434D01*
X185727346Y-121887396D01*
X185293000Y-121801000D01*
X184985484Y-121862168D01*
X184898100Y-121803183D01*
X184648460Y-121753120D01*
X183449580Y-121753120D01*
X183207457Y-121800097D01*
X182998671Y-121937248D01*
X182800060Y-121803183D01*
X182550420Y-121753120D01*
X181351540Y-121753120D01*
X163230182Y-121753120D01*
X165889841Y-119093461D01*
X204214436Y-119093461D01*
X204723298Y-119304759D01*
X205274285Y-119305240D01*
X205783515Y-119094831D01*
X206173461Y-118705564D01*
X206249927Y-118521414D01*
X206325169Y-118703515D01*
X206714436Y-119093461D01*
X207223298Y-119304759D01*
X207774285Y-119305240D01*
X208283515Y-119094831D01*
X208500036Y-118878687D01*
X208714436Y-119093461D01*
X209223298Y-119304759D01*
X209774285Y-119305240D01*
X210283515Y-119094831D01*
X210673461Y-118705564D01*
X210884759Y-118196702D01*
X210885240Y-117645715D01*
X210674831Y-117136485D01*
X210285564Y-116746539D01*
X209776702Y-116535241D01*
X209225715Y-116534760D01*
X208716485Y-116745169D01*
X208499964Y-116961313D01*
X208285564Y-116746539D01*
X207776702Y-116535241D01*
X207225715Y-116534760D01*
X206716485Y-116745169D01*
X206326539Y-117134436D01*
X206250073Y-117318586D01*
X206174831Y-117136485D01*
X205785564Y-116746539D01*
X205276702Y-116535241D01*
X204725715Y-116534760D01*
X186488118Y-116534760D01*
X186809337Y-115761181D01*
X186810660Y-114245469D01*
X186231844Y-112844628D01*
X185161009Y-111771923D01*
X183761181Y-111190663D01*
X182245469Y-111189340D01*
X180844628Y-111768156D01*
X179771923Y-112838991D01*
X179190663Y-114238819D01*
X179189340Y-115754531D01*
X179768156Y-117155372D01*
X180838991Y-118228077D01*
X182238819Y-118809337D01*
X183754531Y-118810660D01*
X185155372Y-118231844D01*
X186228077Y-117161009D01*
X186488118Y-116534760D01*
X204725715Y-116534760D01*
X186488118Y-116534760D01*
X186488118Y-116534760D01*
X204725715Y-116534760D01*
X204216485Y-116745169D01*
X203826539Y-117134436D01*
X203615241Y-117643298D01*
X203614760Y-118194285D01*
X203825169Y-118703515D01*
X204214436Y-119093461D01*
X165889841Y-119093461D01*
X171577114Y-113406188D01*
X171576714Y-113864963D01*
X171827534Y-114471995D01*
X172164037Y-114809085D01*
X172060567Y-114878222D01*
X171702675Y-115413845D01*
X171577000Y-116045655D01*
X171577000Y-116110345D01*
X171702675Y-116742155D01*
X172060567Y-117277778D01*
X172596190Y-117635670D01*
X173228000Y-117761345D01*
X173859810Y-117635670D01*
X174395433Y-117277778D01*
X174753325Y-116742155D01*
X174879000Y-116110345D01*
X174879000Y-116045655D01*
X174753325Y-115413845D01*
X174395433Y-114878222D01*
X174291746Y-114808941D01*
X174626834Y-114474437D01*
X174878713Y-113867845D01*
X174879286Y-113211037D01*
X174628466Y-112604005D01*
X174164437Y-112139166D01*
X173557845Y-111887287D01*
X173096418Y-111886884D01*
X175543401Y-109439901D01*
X175708148Y-109193340D01*
X175766000Y-108902500D01*
X175766000Y-108258463D01*
X175798192Y-108226327D01*
X175940838Y-107882799D01*
X175941162Y-107510833D01*
X175891000Y-107389431D01*
X175891000Y-91576725D01*
X176047630Y-91733629D01*
X176560900Y-91946757D01*
X177116661Y-91947242D01*
X177630303Y-91735010D01*
X177681411Y-91683991D01*
X178820000Y-92822579D01*
X178820000Y-107389178D01*
X178770162Y-107509201D01*
X178769838Y-107881167D01*
X178911883Y-108224943D01*
X179174673Y-108488192D01*
X179518201Y-108630838D01*
X179890167Y-108631162D01*
X180233943Y-108489117D01*
X180497192Y-108226327D01*
X180576737Y-108034760D01*
X204725715Y-108034760D01*
X204216485Y-108245169D01*
X203826539Y-108634436D01*
X203615241Y-109143298D01*
X203614760Y-109694285D01*
X203825169Y-110203515D01*
X204214436Y-110593461D01*
X204723298Y-110804759D01*
X205274285Y-110805240D01*
X205783515Y-110594831D01*
X206173461Y-110205564D01*
X206249927Y-110021414D01*
X206325169Y-110203515D01*
X206714436Y-110593461D01*
X207223298Y-110804759D01*
X207774285Y-110805240D01*
X208283515Y-110594831D01*
X208500036Y-110378687D01*
X208714436Y-110593461D01*
X209223298Y-110804759D01*
X209774285Y-110805240D01*
X210283515Y-110594831D01*
X210673461Y-110205564D01*
X210884759Y-109696702D01*
X210885240Y-109145715D01*
X210674831Y-108636485D01*
X210285564Y-108246539D01*
X209776702Y-108035241D01*
X209225715Y-108034760D01*
X208716485Y-108245169D01*
X208499964Y-108461313D01*
X208285564Y-108246539D01*
X207776702Y-108035241D01*
X207225715Y-108034760D01*
X206716485Y-108245169D01*
X206326539Y-108634436D01*
X206250073Y-108818586D01*
X206174831Y-108636485D01*
X205785564Y-108246539D01*
X205276702Y-108035241D01*
X204725715Y-108034760D01*
X180576737Y-108034760D01*
X180639838Y-107882799D01*
X180640162Y-107510833D01*
X180590000Y-107389431D01*
X180590000Y-97249000D01*
X187497655Y-97249000D01*
X186865845Y-97374675D01*
X186330222Y-97732567D01*
X185972330Y-98268190D01*
X185846655Y-98900000D01*
X185972330Y-99531810D01*
X186330222Y-100067433D01*
X186865845Y-100425325D01*
X187497655Y-100551000D01*
X187562345Y-100551000D01*
X188194155Y-100425325D01*
X188729778Y-100067433D01*
X188799059Y-99963746D01*
X189133563Y-100298834D01*
X189740155Y-100550713D01*
X190396963Y-100551286D01*
X191003995Y-100300466D01*
X191468834Y-99836437D01*
X191720713Y-99229845D01*
X191721286Y-98573037D01*
X191470466Y-97966005D01*
X191006437Y-97501166D01*
X190399845Y-97249287D01*
X189743037Y-97248714D01*
X189136005Y-97499534D01*
X188798915Y-97836037D01*
X188729778Y-97732567D01*
X188194155Y-97374675D01*
X187562345Y-97249000D01*
X187497655Y-97249000D01*
X180590000Y-97249000D01*
X180590000Y-96534760D01*
X204725715Y-96534760D01*
X204216485Y-96745169D01*
X203826539Y-97134436D01*
X203615241Y-97643298D01*
X203614760Y-98194285D01*
X203825169Y-98703515D01*
X204214436Y-99093461D01*
X204723298Y-99304759D01*
X205274285Y-99305240D01*
X205783515Y-99094831D01*
X206173461Y-98705564D01*
X206249927Y-98521414D01*
X206325169Y-98703515D01*
X206714436Y-99093461D01*
X207223298Y-99304759D01*
X207774285Y-99305240D01*
X208283515Y-99094831D01*
X208500036Y-98878687D01*
X208714436Y-99093461D01*
X209223298Y-99304759D01*
X209774285Y-99305240D01*
X210283515Y-99094831D01*
X210673461Y-98705564D01*
X210884759Y-98196702D01*
X210885240Y-97645715D01*
X210674831Y-97136485D01*
X210285564Y-96746539D01*
X209776702Y-96535241D01*
X209225715Y-96534760D01*
X208716485Y-96745169D01*
X208499964Y-96961313D01*
X208285564Y-96746539D01*
X207776702Y-96535241D01*
X207225715Y-96534760D01*
X206716485Y-96745169D01*
X206326539Y-97134436D01*
X206250073Y-97318586D01*
X206174831Y-97136485D01*
X205785564Y-96746539D01*
X205276702Y-96535241D01*
X204725715Y-96534760D01*
X180590000Y-96534760D01*
X180590000Y-92456005D01*
X180590001Y-92456000D01*
X180522633Y-92117326D01*
X180522633Y-92117325D01*
X180330790Y-91830210D01*
X180330787Y-91830208D01*
X178424790Y-89924210D01*
X178178577Y-89759697D01*
X178137675Y-89732367D01*
X178081484Y-89721190D01*
X177963053Y-89697632D01*
X177632370Y-89366371D01*
X177424488Y-89280051D01*
X177630303Y-89195010D01*
X178023629Y-88802370D01*
X178236757Y-88289100D01*
X178237242Y-87733339D01*
X178025010Y-87219697D01*
X177632370Y-86826371D01*
X177424488Y-86740051D01*
X177630303Y-86655010D01*
X178023629Y-86262370D01*
X178236757Y-85749100D01*
X178237242Y-85193339D01*
X178025010Y-84679697D01*
X177632370Y-84286371D01*
X177424488Y-84200051D01*
X177630303Y-84115010D01*
X178023629Y-83722370D01*
X178236757Y-83209100D01*
X178237242Y-82653339D01*
X178025010Y-82139697D01*
X177632370Y-81746371D01*
X177424488Y-81660051D01*
X177630303Y-81575010D01*
X178023629Y-81182370D01*
X178236757Y-80669100D01*
X178237242Y-80113339D01*
X178025010Y-79599697D01*
X177632370Y-79206371D01*
X177424488Y-79120051D01*
X177630303Y-79035010D01*
X178023629Y-78642370D01*
X178236757Y-78129100D01*
X178237242Y-77573339D01*
X178025010Y-77059697D01*
X177632370Y-76666371D01*
X177424488Y-76580051D01*
X177630303Y-76495010D01*
X178023629Y-76102370D01*
X178236757Y-75589100D01*
X178237242Y-75033339D01*
X178025010Y-74519697D01*
X177632370Y-74126371D01*
X177424488Y-74040051D01*
X177630303Y-73955010D01*
X178023629Y-73562370D01*
X178236757Y-73049100D01*
X178237242Y-72493339D01*
X178025010Y-71979697D01*
X177632370Y-71586371D01*
X177424488Y-71500051D01*
X177630303Y-71415010D01*
X178023629Y-71022370D01*
X178236757Y-70509100D01*
X178237242Y-69953339D01*
X178025010Y-69439697D01*
X177632370Y-69046371D01*
X177424488Y-68960051D01*
X177630303Y-68875010D01*
X178023629Y-68482370D01*
X178236757Y-67969100D01*
X178237242Y-67413339D01*
X178025010Y-66899697D01*
X177632370Y-66506371D01*
X177424488Y-66420051D01*
X177630303Y-66335010D01*
X178023629Y-65942370D01*
X178236757Y-65429100D01*
X178237242Y-64873339D01*
X178025010Y-64359697D01*
X177632370Y-63966371D01*
X177424488Y-63880051D01*
X177630303Y-63795010D01*
X178023629Y-63402370D01*
X178236757Y-62889100D01*
X178237242Y-62333339D01*
X178025010Y-61819697D01*
X177632370Y-61426371D01*
X177119100Y-61213243D01*
X176563339Y-61212758D01*
X173662121Y-61212758D01*
X173575221Y-61176674D01*
X172948727Y-61176127D01*
X172369713Y-61415371D01*
X171954000Y-61830359D01*
X171954000Y-61050213D01*
X196359392Y-61050213D01*
X196428857Y-61292397D01*
X196569318Y-61342509D01*
X196369697Y-61424990D01*
X195976371Y-61817630D01*
X195763243Y-62330900D01*
X195762758Y-62886661D01*
X195974990Y-63400303D01*
X196367630Y-63793629D01*
X196575512Y-63879949D01*
X196369697Y-63964990D01*
X195976371Y-64357630D01*
X195763243Y-64870900D01*
X195762758Y-65426661D01*
X195974990Y-65940303D01*
X196367630Y-66333629D01*
X196575512Y-66419949D01*
X196369697Y-66504990D01*
X195976371Y-66897630D01*
X195763243Y-67410900D01*
X195762758Y-67966661D01*
X195974990Y-68480303D01*
X196367630Y-68873629D01*
X196575512Y-68959949D01*
X196369697Y-69044990D01*
X195976371Y-69437630D01*
X195763243Y-69950900D01*
X195762758Y-70506661D01*
X195974990Y-71020303D01*
X196367630Y-71413629D01*
X196575512Y-71499949D01*
X196369697Y-71584990D01*
X195976371Y-71977630D01*
X195763243Y-72490900D01*
X195762758Y-73046661D01*
X195974990Y-73560303D01*
X196367630Y-73953629D01*
X196575512Y-74039949D01*
X196369697Y-74124990D01*
X195976371Y-74517630D01*
X195763243Y-75030900D01*
X195762758Y-75586661D01*
X195974990Y-76100303D01*
X196367630Y-76493629D01*
X196575512Y-76579949D01*
X196369697Y-76664990D01*
X195976371Y-77057630D01*
X195763243Y-77570900D01*
X195762758Y-78126661D01*
X195974990Y-78640303D01*
X196367630Y-79033629D01*
X196575512Y-79119949D01*
X196369697Y-79204990D01*
X195976371Y-79597630D01*
X195763243Y-80110900D01*
X195762758Y-80666661D01*
X195974990Y-81180303D01*
X196367630Y-81573629D01*
X196575512Y-81659949D01*
X196369697Y-81744990D01*
X195976371Y-82137630D01*
X195763243Y-82650900D01*
X195762758Y-83206661D01*
X195974990Y-83720303D01*
X196367630Y-84113629D01*
X196575512Y-84199949D01*
X196369697Y-84284990D01*
X195976371Y-84677630D01*
X195763243Y-85190900D01*
X195762758Y-85746661D01*
X195974990Y-86260303D01*
X196367630Y-86653629D01*
X196575512Y-86739949D01*
X196369697Y-86824990D01*
X195976371Y-87217630D01*
X195763243Y-87730900D01*
X195762758Y-88286661D01*
X195974990Y-88800303D01*
X196367630Y-89193629D01*
X196575512Y-89279949D01*
X196369697Y-89364990D01*
X195976371Y-89757630D01*
X195763243Y-90270900D01*
X195762758Y-90826661D01*
X195974990Y-91340303D01*
X196367630Y-91733629D01*
X196880900Y-91946757D01*
X197436661Y-91947242D01*
X197950303Y-91735010D01*
X198343629Y-91342370D01*
X198556757Y-90829100D01*
X198557242Y-90273339D01*
X198345010Y-89759697D01*
X197952370Y-89366371D01*
X197744488Y-89280051D01*
X197950303Y-89195010D01*
X198343629Y-88802370D01*
X198556757Y-88289100D01*
X198556978Y-88034760D01*
X204725715Y-88034760D01*
X204216485Y-88245169D01*
X203826539Y-88634436D01*
X203615241Y-89143298D01*
X203614760Y-89694285D01*
X203825169Y-90203515D01*
X204214436Y-90593461D01*
X204723298Y-90804759D01*
X205274285Y-90805240D01*
X205783515Y-90594831D01*
X206173461Y-90205564D01*
X206249927Y-90021414D01*
X206325169Y-90203515D01*
X206714436Y-90593461D01*
X207223298Y-90804759D01*
X207774285Y-90805240D01*
X208283515Y-90594831D01*
X208500036Y-90378687D01*
X208714436Y-90593461D01*
X209223298Y-90804759D01*
X209774285Y-90805240D01*
X210283515Y-90594831D01*
X210673461Y-90205564D01*
X210884759Y-89696702D01*
X210885240Y-89145715D01*
X210674831Y-88636485D01*
X210285564Y-88246539D01*
X209776702Y-88035241D01*
X209225715Y-88034760D01*
X208716485Y-88245169D01*
X208499964Y-88461313D01*
X208285564Y-88246539D01*
X207776702Y-88035241D01*
X207225715Y-88034760D01*
X206716485Y-88245169D01*
X206326539Y-88634436D01*
X206250073Y-88818586D01*
X206174831Y-88636485D01*
X205785564Y-88246539D01*
X205276702Y-88035241D01*
X204725715Y-88034760D01*
X198556978Y-88034760D01*
X198557242Y-87733339D01*
X198345010Y-87219697D01*
X197952370Y-86826371D01*
X197744488Y-86740051D01*
X197950303Y-86655010D01*
X198343629Y-86262370D01*
X198556757Y-85749100D01*
X198557242Y-85193339D01*
X198345010Y-84679697D01*
X197952370Y-84286371D01*
X197744488Y-84200051D01*
X197950303Y-84115010D01*
X198343629Y-83722370D01*
X198556757Y-83209100D01*
X198557242Y-82653339D01*
X198345010Y-82139697D01*
X197952370Y-81746371D01*
X197744488Y-81660051D01*
X197950303Y-81575010D01*
X198343629Y-81182370D01*
X198556757Y-80669100D01*
X198557242Y-80113339D01*
X198345010Y-79599697D01*
X197952370Y-79206371D01*
X197744488Y-79120051D01*
X197950303Y-79035010D01*
X198343629Y-78642370D01*
X198556757Y-78129100D01*
X198557242Y-77573339D01*
X198345010Y-77059697D01*
X197952370Y-76666371D01*
X197744488Y-76580051D01*
X197854100Y-76534760D01*
X204725715Y-76534760D01*
X204216485Y-76745169D01*
X203826539Y-77134436D01*
X203615241Y-77643298D01*
X203614760Y-78194285D01*
X203825169Y-78703515D01*
X204214436Y-79093461D01*
X204723298Y-79304759D01*
X205274285Y-79305240D01*
X205783515Y-79094831D01*
X206173461Y-78705564D01*
X206249927Y-78521414D01*
X206325169Y-78703515D01*
X206714436Y-79093461D01*
X207223298Y-79304759D01*
X207774285Y-79305240D01*
X208283515Y-79094831D01*
X208500036Y-78878687D01*
X208714436Y-79093461D01*
X209223298Y-79304759D01*
X209774285Y-79305240D01*
X210283515Y-79094831D01*
X210673461Y-78705564D01*
X210884759Y-78196702D01*
X210885240Y-77645715D01*
X210674831Y-77136485D01*
X210285564Y-76746539D01*
X209776702Y-76535241D01*
X209225715Y-76534760D01*
X208716485Y-76745169D01*
X208499964Y-76961313D01*
X208285564Y-76746539D01*
X207776702Y-76535241D01*
X207225715Y-76534760D01*
X206716485Y-76745169D01*
X206326539Y-77134436D01*
X206250073Y-77318586D01*
X206174831Y-77136485D01*
X205785564Y-76746539D01*
X205276702Y-76535241D01*
X204725715Y-76534760D01*
X197854100Y-76534760D01*
X197950303Y-76495010D01*
X198343629Y-76102370D01*
X198556757Y-75589100D01*
X198557242Y-75033339D01*
X198345010Y-74519697D01*
X197952370Y-74126371D01*
X197744488Y-74040051D01*
X197950303Y-73955010D01*
X198343629Y-73562370D01*
X198556757Y-73049100D01*
X198557242Y-72493339D01*
X198345010Y-71979697D01*
X197952370Y-71586371D01*
X197744488Y-71500051D01*
X197950303Y-71415010D01*
X198343629Y-71022370D01*
X198556757Y-70509100D01*
X198557242Y-69953339D01*
X198345010Y-69439697D01*
X197952370Y-69046371D01*
X197744488Y-68960051D01*
X197950303Y-68875010D01*
X198343629Y-68482370D01*
X198529492Y-68034760D01*
X204725715Y-68034760D01*
X204216485Y-68245169D01*
X203826539Y-68634436D01*
X203615241Y-69143298D01*
X203614760Y-69694285D01*
X203825169Y-70203515D01*
X204214436Y-70593461D01*
X204723298Y-70804759D01*
X205274285Y-70805240D01*
X205783515Y-70594831D01*
X206173461Y-70205564D01*
X206249927Y-70021414D01*
X206325169Y-70203515D01*
X206714436Y-70593461D01*
X207223298Y-70804759D01*
X207774285Y-70805240D01*
X208283515Y-70594831D01*
X208500036Y-70378687D01*
X208714436Y-70593461D01*
X209223298Y-70804759D01*
X209774285Y-70805240D01*
X210283515Y-70594831D01*
X210673461Y-70205564D01*
X210884759Y-69696702D01*
X210885240Y-69145715D01*
X210674831Y-68636485D01*
X210285564Y-68246539D01*
X209776702Y-68035241D01*
X209225715Y-68034760D01*
X208716485Y-68245169D01*
X208499964Y-68461313D01*
X208285564Y-68246539D01*
X207776702Y-68035241D01*
X207225715Y-68034760D01*
X206716485Y-68245169D01*
X206326539Y-68634436D01*
X206250073Y-68818586D01*
X206174831Y-68636485D01*
X205785564Y-68246539D01*
X205276702Y-68035241D01*
X204725715Y-68034760D01*
X198529492Y-68034760D01*
X198556757Y-67969100D01*
X198557242Y-67413339D01*
X198345010Y-66899697D01*
X197952370Y-66506371D01*
X197744488Y-66420051D01*
X197950303Y-66335010D01*
X198343629Y-65942370D01*
X198556757Y-65429100D01*
X198557242Y-64873339D01*
X198345010Y-64359697D01*
X197952370Y-63966371D01*
X197744488Y-63880051D01*
X197950303Y-63795010D01*
X198343629Y-63402370D01*
X198556757Y-62889100D01*
X198557242Y-62333339D01*
X198345010Y-61819697D01*
X197952370Y-61426371D01*
X197760273Y-61346605D01*
X197891143Y-61292397D01*
X197949530Y-61088834D01*
X203787563Y-61088834D01*
X204394155Y-61340713D01*
X205050963Y-61341286D01*
X205657995Y-61090466D01*
X205995085Y-60753963D01*
X206064222Y-60857433D01*
X206599845Y-61215325D01*
X207231655Y-61341000D01*
X207296345Y-61341000D01*
X207928155Y-61215325D01*
X208463778Y-60857433D01*
X208534000Y-60752338D01*
X208604222Y-60857433D01*
X209139845Y-61215325D01*
X209771655Y-61341000D01*
X209836345Y-61341000D01*
X210468155Y-61215325D01*
X211003778Y-60857433D01*
X211073059Y-60753746D01*
X211407563Y-61088834D01*
X212014155Y-61340713D01*
X212670963Y-61341286D01*
X213277995Y-61090466D01*
X213742834Y-60626437D01*
X213994713Y-60019845D01*
X213995286Y-59363037D01*
X213744466Y-58756005D01*
X213280437Y-58291166D01*
X212673845Y-58039287D01*
X212017037Y-58038714D01*
X211410005Y-58289534D01*
X211072915Y-58626037D01*
X211003778Y-58522567D01*
X210468155Y-58164675D01*
X209836345Y-58039000D01*
X209771655Y-58039000D01*
X209139845Y-58164675D01*
X208604222Y-58522567D01*
X208534000Y-58627662D01*
X208463778Y-58522567D01*
X207928155Y-58164675D01*
X207296345Y-58039000D01*
X207231655Y-58039000D01*
X206599845Y-58164675D01*
X206064222Y-58522567D01*
X205994941Y-58626254D01*
X205660437Y-58291166D01*
X205053845Y-58039287D01*
X204397037Y-58038714D01*
X198461413Y-58038714D01*
X198556757Y-57809100D01*
X198557242Y-57253339D01*
X198345010Y-56739697D01*
X197952370Y-56346371D01*
X197744488Y-56260051D01*
X197950303Y-56175010D01*
X198343629Y-55782370D01*
X198556757Y-55269100D01*
X198557242Y-54713339D01*
X198345010Y-54199697D01*
X197952370Y-53806371D01*
X197744488Y-53720051D01*
X197950303Y-53635010D01*
X198343629Y-53242370D01*
X198556757Y-52729100D01*
X198557242Y-52173339D01*
X198345010Y-51659697D01*
X197952370Y-51266371D01*
X197439100Y-51053243D01*
X196883339Y-51052758D01*
X196369697Y-51264990D01*
X195976371Y-51657630D01*
X195763243Y-52170900D01*
X195762758Y-52726661D01*
X195974990Y-53240303D01*
X196367630Y-53633629D01*
X196575512Y-53719949D01*
X196369697Y-53804990D01*
X195976371Y-54197630D01*
X195763243Y-54710900D01*
X195762758Y-55266661D01*
X195974990Y-55780303D01*
X196367630Y-56173629D01*
X196575512Y-56259949D01*
X196369697Y-56344990D01*
X195976371Y-56737630D01*
X195763243Y-57250900D01*
X195762758Y-57806661D01*
X195974990Y-58320303D01*
X196367630Y-58713629D01*
X196559727Y-58793395D01*
X196428857Y-58847603D01*
X196359392Y-59089787D01*
X197160000Y-59890395D01*
X197960608Y-59089787D01*
X197891143Y-58847603D01*
X197750682Y-58797491D01*
X197950303Y-58715010D01*
X198343629Y-58322370D01*
X198461413Y-58038714D01*
X204397037Y-58038714D01*
X198461413Y-58038714D01*
X198461413Y-58038714D01*
X204397037Y-58038714D01*
X203790005Y-58289534D01*
X203325166Y-58753563D01*
X203073287Y-59360155D01*
X198391219Y-59360155D01*
X198382397Y-59338857D01*
X198140213Y-59269392D01*
X197339605Y-60070000D01*
X198140213Y-60870608D01*
X198382397Y-60801143D01*
X198569144Y-60277698D01*
X198541362Y-59722632D01*
X198391219Y-59360155D01*
X203073287Y-59360155D01*
X198391219Y-59360155D01*
X198391219Y-59360155D01*
X203073287Y-59360155D01*
X203072714Y-60016963D01*
X203323534Y-60623995D01*
X203787563Y-61088834D01*
X197949530Y-61088834D01*
X197960608Y-61050213D01*
X197160000Y-60249605D01*
X196359392Y-61050213D01*
X171954000Y-61050213D01*
X171954000Y-59338857D01*
X195937603Y-59338857D01*
X195750856Y-59862302D01*
X195778638Y-60417368D01*
X195937603Y-60801143D01*
X196179787Y-60870608D01*
X196980395Y-60070000D01*
X196179787Y-59269392D01*
X195937603Y-59338857D01*
X171954000Y-59338857D01*
X171954000Y-57168967D01*
X172367383Y-57583072D01*
X172945979Y-57823326D01*
X173572473Y-57823873D01*
X174151487Y-57584629D01*
X174594872Y-57142017D01*
X174835126Y-56563421D01*
X174835673Y-55936927D01*
X174596429Y-55357913D01*
X174153817Y-54914528D01*
X173575221Y-54674274D01*
X172948727Y-54673727D01*
X172369713Y-54912971D01*
X171926328Y-55355583D01*
X171686074Y-55934179D01*
X171685961Y-56063593D01*
X171599327Y-55976808D01*
X171255799Y-55834162D01*
X170883833Y-55833838D01*
X170540057Y-55975883D01*
X170276808Y-56238673D01*
X170134162Y-56582201D01*
X170133838Y-56954167D01*
X170184000Y-57075569D01*
X170184000Y-78433178D01*
X170134162Y-78553201D01*
X170133838Y-78925167D01*
X170184000Y-79046569D01*
X170184000Y-97535995D01*
X170183999Y-97536000D01*
X170223100Y-97732567D01*
X170251367Y-97874675D01*
X170304887Y-97954774D01*
X170402883Y-98191943D01*
X170665673Y-98455192D01*
X171009201Y-98597838D01*
X171381167Y-98598162D01*
X171724943Y-98456117D01*
X171988192Y-98193327D01*
X172130838Y-97849799D01*
X172131162Y-97477833D01*
X171989117Y-97134057D01*
X171954000Y-97098879D01*
X171954000Y-85671367D01*
X172367383Y-86085472D01*
X172945979Y-86325726D01*
X173572473Y-86326273D01*
X174151487Y-86087029D01*
X174594872Y-85644417D01*
X174835126Y-85065821D01*
X174835673Y-84439327D01*
X174596429Y-83860313D01*
X174153817Y-83416928D01*
X173575221Y-83176674D01*
X172948727Y-83176127D01*
X172369713Y-83415371D01*
X171954000Y-83830359D01*
X171954000Y-79168967D01*
X172367383Y-79583072D01*
X172945979Y-79823326D01*
X173572473Y-79823873D01*
X174151487Y-79584629D01*
X174594872Y-79142017D01*
X174835126Y-78563421D01*
X174835673Y-77936927D01*
X174596429Y-77357913D01*
X174153817Y-76914528D01*
X173575221Y-76674274D01*
X172948727Y-76673727D01*
X172369713Y-76912971D01*
X171954000Y-77327959D01*
X171954000Y-63671367D01*
X172367383Y-64085472D01*
X172945979Y-64325726D01*
X173572473Y-64326273D01*
X174151487Y-64087029D01*
X174594872Y-63644417D01*
X174835126Y-63065821D01*
X174835673Y-62439327D01*
X174596429Y-61860313D01*
X174153817Y-61416928D01*
X173662121Y-61212758D01*
X176563339Y-61212758D01*
X173662121Y-61212758D01*
X173662121Y-61212758D01*
X176563339Y-61212758D01*
X176049697Y-61424990D01*
X175656371Y-61817630D01*
X175443243Y-62330900D01*
X175442758Y-62886661D01*
X175654990Y-63400303D01*
X176047630Y-63793629D01*
X176255512Y-63879949D01*
X176049697Y-63964990D01*
X175656371Y-64357630D01*
X175443243Y-64870900D01*
X175442758Y-65426661D01*
X175654990Y-65940303D01*
X176047630Y-66333629D01*
X176255512Y-66419949D01*
X176049697Y-66504990D01*
X175656371Y-66897630D01*
X175443243Y-67410900D01*
X175442758Y-67966661D01*
X175654990Y-68480303D01*
X176047630Y-68873629D01*
X176255512Y-68959949D01*
X176049697Y-69044990D01*
X175656371Y-69437630D01*
X175443243Y-69950900D01*
X175442758Y-70506661D01*
X175654990Y-71020303D01*
X176047630Y-71413629D01*
X176255512Y-71499949D01*
X176049697Y-71584990D01*
X175656371Y-71977630D01*
X175443243Y-72490900D01*
X175442758Y-73046661D01*
X175654990Y-73560303D01*
X176047630Y-73953629D01*
X176255512Y-74039949D01*
X176049697Y-74124990D01*
X175656371Y-74517630D01*
X175443243Y-75030900D01*
X175442758Y-75586661D01*
X175654990Y-76100303D01*
X176047630Y-76493629D01*
X176255512Y-76579949D01*
X176049697Y-76664990D01*
X175656371Y-77057630D01*
X175443243Y-77570900D01*
X175442758Y-78126661D01*
X175654990Y-78640303D01*
X176047630Y-79033629D01*
X176255512Y-79119949D01*
X176049697Y-79204990D01*
X175656371Y-79597630D01*
X175443243Y-80110900D01*
X175442758Y-80666661D01*
X175654990Y-81180303D01*
X176047630Y-81573629D01*
X176255512Y-81659949D01*
X176049697Y-81744990D01*
X175656371Y-82137630D01*
X175443243Y-82650900D01*
X175442758Y-83206661D01*
X175654990Y-83720303D01*
X176047630Y-84113629D01*
X176255512Y-84199949D01*
X176049697Y-84284990D01*
X175656371Y-84677630D01*
X175443243Y-85190900D01*
X175442758Y-85746661D01*
X175654990Y-86260303D01*
X176047630Y-86653629D01*
X176255512Y-86739949D01*
X176049697Y-86824990D01*
X175656371Y-87217630D01*
X175443243Y-87730900D01*
X175442810Y-88227611D01*
X174380210Y-89290210D01*
X174188367Y-89577325D01*
X174188367Y-89577326D01*
X174120999Y-89916000D01*
X174121000Y-89916005D01*
X174121000Y-107389178D01*
X166435097Y-107389178D01*
X166435162Y-107314833D01*
X166385000Y-107193431D01*
X166385000Y-103806822D01*
X166434838Y-103686799D01*
X166435162Y-103314833D01*
X166293117Y-102971057D01*
X166030327Y-102707808D01*
X165686799Y-102565162D01*
X165314833Y-102564838D01*
X164971057Y-102706883D01*
X164707808Y-102969673D01*
X164565162Y-103313201D01*
X164564838Y-103685167D01*
X164615000Y-103806569D01*
X164615000Y-107193178D01*
X164565162Y-107313201D01*
X164564838Y-107685167D01*
X164706883Y-108028943D01*
X164969673Y-108292192D01*
X165313201Y-108434838D01*
X165685167Y-108435162D01*
X166028943Y-108293117D01*
X166292192Y-108030327D01*
X166434838Y-107686799D01*
X166435097Y-107389178D01*
X174121000Y-107389178D01*
X166435097Y-107389178D01*
X166435097Y-107389178D01*
X174121000Y-107389178D01*
X174071162Y-107509201D01*
X174070838Y-107881167D01*
X174132799Y-108031124D01*
X173804833Y-108030838D01*
X173461057Y-108172883D01*
X173197808Y-108435673D01*
X155315906Y-108435673D01*
X160908834Y-102842745D01*
X161028943Y-102793117D01*
X161292192Y-102530327D01*
X161434838Y-102186799D01*
X161435162Y-101814833D01*
X161293117Y-101471057D01*
X161030327Y-101207808D01*
X160844685Y-101130722D01*
X161183629Y-100792370D01*
X161396757Y-100279100D01*
X161397242Y-99723339D01*
X161185010Y-99209697D01*
X160792370Y-98816371D01*
X160279100Y-98603243D01*
X159723339Y-98602758D01*
X159209697Y-98814990D01*
X158816371Y-99207630D01*
X158603243Y-99720900D01*
X158602758Y-100276661D01*
X158814990Y-100790303D01*
X159207630Y-101183629D01*
X159720900Y-101396757D01*
X159780799Y-101396809D01*
X159707808Y-101469673D01*
X159657434Y-101590987D01*
X153591164Y-107657256D01*
X153471057Y-107706883D01*
X153207808Y-107969673D01*
X153065162Y-108313201D01*
X153064838Y-108685167D01*
X153206883Y-109028943D01*
X153469673Y-109292192D01*
X153813201Y-109434838D01*
X154185167Y-109435162D01*
X154528943Y-109293117D01*
X154792192Y-109030327D01*
X154842566Y-108909014D01*
X155315906Y-108435673D01*
X173197808Y-108435673D01*
X155315906Y-108435673D01*
X155315906Y-108435673D01*
X173197808Y-108435673D01*
X173055162Y-108779201D01*
X173055121Y-108826077D01*
X158943198Y-122938000D01*
X115944302Y-122938000D01*
X116551901Y-122330401D01*
X116716648Y-122083839D01*
X116774500Y-121793000D01*
X116774500Y-119497963D01*
X116806692Y-119465827D01*
X116949338Y-119122299D01*
X116949662Y-118750333D01*
X116807617Y-118406557D01*
X116544827Y-118143308D01*
X116201299Y-118000662D01*
X115829333Y-118000338D01*
X70685000Y-118000338D01*
X70685000Y-112814990D01*
X129209697Y-112814990D01*
X128816371Y-113207630D01*
X128603243Y-113720900D01*
X128602758Y-114276661D01*
X128814990Y-114790303D01*
X129207630Y-115183629D01*
X129720900Y-115396757D01*
X130276661Y-115397242D01*
X130790303Y-115185010D01*
X131183629Y-114792370D01*
X131396757Y-114279100D01*
X131397242Y-113723339D01*
X131185010Y-113209697D01*
X130792370Y-112816371D01*
X130789045Y-112814990D01*
X134209697Y-112814990D01*
X130789045Y-112814990D01*
X130789045Y-112814990D01*
X134209697Y-112814990D01*
X133816371Y-113207630D01*
X133603243Y-113720900D01*
X133602758Y-114276661D01*
X133814990Y-114790303D01*
X134207630Y-115183629D01*
X134720900Y-115396757D01*
X135276661Y-115397242D01*
X135790303Y-115185010D01*
X136183629Y-114792370D01*
X136396757Y-114279100D01*
X136397242Y-113723339D01*
X136185010Y-113209697D01*
X135792370Y-112816371D01*
X135789045Y-112814990D01*
X154209697Y-112814990D01*
X153816371Y-113207630D01*
X153603243Y-113720900D01*
X153602758Y-114276661D01*
X153814990Y-114790303D01*
X154207630Y-115183629D01*
X154720900Y-115396757D01*
X155276661Y-115397242D01*
X155790303Y-115185010D01*
X156183629Y-114792370D01*
X156396757Y-114279100D01*
X156397242Y-113723339D01*
X156185010Y-113209697D01*
X155792370Y-112816371D01*
X155789045Y-112814990D01*
X159209697Y-112814990D01*
X158816371Y-113207630D01*
X158603243Y-113720900D01*
X158602758Y-114276661D01*
X158814990Y-114790303D01*
X159207630Y-115183629D01*
X159720900Y-115396757D01*
X160276661Y-115397242D01*
X160790303Y-115185010D01*
X161183629Y-114792370D01*
X161396757Y-114279100D01*
X161397242Y-113723339D01*
X161185010Y-113209697D01*
X160792370Y-112816371D01*
X160279100Y-112603243D01*
X159723339Y-112602758D01*
X159209697Y-112814990D01*
X155789045Y-112814990D01*
X155279100Y-112603243D01*
X154723339Y-112602758D01*
X154209697Y-112814990D01*
X135789045Y-112814990D01*
X135279100Y-112603243D01*
X134723339Y-112602758D01*
X134209697Y-112814990D01*
X130789045Y-112814990D01*
X130279100Y-112603243D01*
X129723339Y-112602758D01*
X129209697Y-112814990D01*
X70685000Y-112814990D01*
X70685000Y-105693330D01*
X106965267Y-105693330D01*
X106964735Y-106303991D01*
X107197932Y-106868371D01*
X107497228Y-107168191D01*
X107229821Y-107435132D01*
X106896437Y-107101166D01*
X106289845Y-106849287D01*
X105633037Y-106848714D01*
X105026005Y-107099534D01*
X104561166Y-107563563D01*
X104309287Y-108170155D01*
X104308714Y-108826963D01*
X104559534Y-109433995D01*
X105023563Y-109898834D01*
X105630155Y-110150713D01*
X106286963Y-110151286D01*
X106893995Y-109900466D01*
X107230179Y-109564868D01*
X107563563Y-109898834D01*
X108170155Y-110150713D01*
X108826963Y-110151286D01*
X109433995Y-109900466D01*
X109770179Y-109564868D01*
X110103563Y-109898834D01*
X110710155Y-110150713D01*
X111366963Y-110151286D01*
X111973995Y-109900466D01*
X112438834Y-109436437D01*
X112690713Y-108829845D01*
X112691286Y-108173037D01*
X112440466Y-107566005D01*
X111976437Y-107101166D01*
X111369845Y-106849287D01*
X110713037Y-106848714D01*
X110106005Y-107099534D01*
X109769821Y-107435132D01*
X109502914Y-107167760D01*
X109800551Y-106870643D01*
X110034733Y-106306670D01*
X110035265Y-105696009D01*
X109802068Y-105131629D01*
X109370643Y-104699449D01*
X108806670Y-104465267D01*
X108196009Y-104464735D01*
X107631629Y-104697932D01*
X93793899Y-104697932D01*
X93842914Y-104649003D01*
X94084724Y-104066659D01*
X94085081Y-103657256D01*
X128091164Y-103657256D01*
X127971057Y-103706883D01*
X127707808Y-103969673D01*
X127565162Y-104313201D01*
X127564838Y-104685167D01*
X127706883Y-105028943D01*
X127969673Y-105292192D01*
X128313201Y-105434838D01*
X128685167Y-105435162D01*
X129028943Y-105293117D01*
X129292192Y-105030327D01*
X129342566Y-104909014D01*
X133366579Y-100885000D01*
X133909522Y-100885000D01*
X134207630Y-101183629D01*
X134720900Y-101396757D01*
X135276661Y-101397242D01*
X135790303Y-101185010D01*
X136183629Y-100792370D01*
X136396757Y-100279100D01*
X136397242Y-99723339D01*
X136185010Y-99209697D01*
X135792370Y-98816371D01*
X135279100Y-98603243D01*
X134723339Y-98602758D01*
X134209697Y-98814990D01*
X93177211Y-98814990D01*
X92816659Y-98665276D01*
X92186107Y-98664725D01*
X91603343Y-98905519D01*
X91157086Y-99350997D01*
X90915276Y-99933341D01*
X90914725Y-100563893D01*
X91155519Y-101146657D01*
X91600997Y-101592914D01*
X92183341Y-101834724D01*
X92813893Y-101835275D01*
X93396657Y-101594481D01*
X93842914Y-101149003D01*
X94084724Y-100566659D01*
X94085275Y-99936107D01*
X93844481Y-99353343D01*
X93399003Y-98907086D01*
X93177211Y-98814990D01*
X134209697Y-98814990D01*
X93177211Y-98814990D01*
X93177211Y-98814990D01*
X134209697Y-98814990D01*
X133909163Y-99115000D01*
X133000005Y-99115000D01*
X133000000Y-99114999D01*
X132717516Y-99171190D01*
X132661325Y-99182367D01*
X132374210Y-99374210D01*
X132374208Y-99374213D01*
X128091164Y-103657256D01*
X94085081Y-103657256D01*
X94085275Y-103436107D01*
X93844481Y-102853343D01*
X93399003Y-102407086D01*
X92816659Y-102165276D01*
X92186107Y-102164725D01*
X91603343Y-102405519D01*
X91157086Y-102850997D01*
X90915276Y-103433341D01*
X90914725Y-104063893D01*
X91155519Y-104646657D01*
X91600997Y-105092914D01*
X92183341Y-105334724D01*
X92813893Y-105335275D01*
X93396657Y-105094481D01*
X93793899Y-104697932D01*
X107631629Y-104697932D01*
X93793899Y-104697932D01*
X93793899Y-104697932D01*
X107631629Y-104697932D01*
X107199449Y-105129357D01*
X106965267Y-105693330D01*
X70685000Y-105693330D01*
X70685000Y-95405519D01*
X91603343Y-95405519D01*
X91157086Y-95850997D01*
X90915276Y-96433341D01*
X90914725Y-97063893D01*
X91155519Y-97646657D01*
X91600997Y-98092914D01*
X92183341Y-98334724D01*
X92813893Y-98335275D01*
X93396657Y-98094481D01*
X93842914Y-97649003D01*
X94084724Y-97066659D01*
X94085275Y-96436107D01*
X93844481Y-95853343D01*
X93399003Y-95407086D01*
X92816659Y-95165276D01*
X92186107Y-95164725D01*
X91603343Y-95405519D01*
X70685000Y-95405519D01*
X70685000Y-91905519D01*
X91603343Y-91905519D01*
X91157086Y-92350997D01*
X90915276Y-92933341D01*
X90914725Y-93563893D01*
X91155519Y-94146657D01*
X91600997Y-94592914D01*
X92183341Y-94834724D01*
X92813893Y-94835275D01*
X93396657Y-94594481D01*
X93842914Y-94149003D01*
X94084724Y-93566659D01*
X94085275Y-92936107D01*
X93844481Y-92353343D01*
X93399003Y-91907086D01*
X92816659Y-91665276D01*
X92186107Y-91664725D01*
X91603343Y-91905519D01*
X70685000Y-91905519D01*
X70685000Y-88405519D01*
X91603343Y-88405519D01*
X91157086Y-88850997D01*
X90915276Y-89433341D01*
X90914725Y-90063893D01*
X91155519Y-90646657D01*
X91600997Y-91092914D01*
X92183341Y-91334724D01*
X92813893Y-91335275D01*
X93396657Y-91094481D01*
X93842914Y-90649003D01*
X94084724Y-90066659D01*
X94085275Y-89436107D01*
X93844481Y-88853343D01*
X93399003Y-88407086D01*
X92816659Y-88165276D01*
X92186107Y-88164725D01*
X91603343Y-88405519D01*
X70685000Y-88405519D01*
X70685000Y-84905519D01*
X91603343Y-84905519D01*
X91157086Y-85350997D01*
X90915276Y-85933341D01*
X90914725Y-86563893D01*
X91155519Y-87146657D01*
X91600997Y-87592914D01*
X92183341Y-87834724D01*
X92813893Y-87835275D01*
X93396657Y-87594481D01*
X93842914Y-87149003D01*
X94084724Y-86566659D01*
X94085275Y-85936107D01*
X93844481Y-85353343D01*
X93399003Y-84907086D01*
X92816659Y-84665276D01*
X92186107Y-84664725D01*
X91603343Y-84905519D01*
X70685000Y-84905519D01*
X70685000Y-84436579D01*
X119686074Y-84436579D01*
X119685527Y-85063073D01*
X119924771Y-85642087D01*
X120367383Y-86085472D01*
X120945979Y-86325726D01*
X121572473Y-86326273D01*
X122151487Y-86087029D01*
X122594872Y-85644417D01*
X122835126Y-85065821D01*
X122835673Y-84439327D01*
X122596429Y-83860313D01*
X122153817Y-83416928D01*
X121575221Y-83176674D01*
X120948727Y-83176127D01*
X120369713Y-83415371D01*
X93939926Y-83415371D01*
X94084724Y-83066659D01*
X94085275Y-82436107D01*
X93844481Y-81853343D01*
X93399003Y-81407086D01*
X92816659Y-81165276D01*
X92186107Y-81164725D01*
X91603343Y-81405519D01*
X91157086Y-81850997D01*
X90915276Y-82433341D01*
X90914725Y-83063893D01*
X91155519Y-83646657D01*
X91600997Y-84092914D01*
X92183341Y-84334724D01*
X92813893Y-84335275D01*
X93396657Y-84094481D01*
X93842914Y-83649003D01*
X93939926Y-83415371D01*
X120369713Y-83415371D01*
X93939926Y-83415371D01*
X93939926Y-83415371D01*
X120369713Y-83415371D01*
X119926328Y-83857983D01*
X119686074Y-84436579D01*
X70685000Y-84436579D01*
X70685000Y-76912971D01*
X120369713Y-76912971D01*
X119926328Y-77355583D01*
X119686074Y-77934179D01*
X119685527Y-78560673D01*
X119924771Y-79139687D01*
X120367383Y-79583072D01*
X120945979Y-79823326D01*
X121572473Y-79823873D01*
X122151487Y-79584629D01*
X122594872Y-79142017D01*
X122835126Y-78563421D01*
X122835673Y-77936927D01*
X122596429Y-77357913D01*
X122153817Y-76914528D01*
X121575221Y-76674274D01*
X120948727Y-76673727D01*
X120369713Y-76912971D01*
X70685000Y-76912971D01*
X70685000Y-55920166D01*
X82945611Y-55920166D01*
X82390847Y-56290847D01*
X82020166Y-56845611D01*
X82016585Y-56863615D01*
X81672084Y-56863314D01*
X78092770Y-58342256D01*
X75351881Y-61078365D01*
X73866693Y-64655093D01*
X73863314Y-68527916D01*
X75342256Y-72107230D01*
X78078365Y-74848119D01*
X81655093Y-76333307D01*
X85527916Y-76336686D01*
X89107230Y-74857744D01*
X91848119Y-72121635D01*
X93333307Y-68544907D01*
X93336686Y-64672084D01*
X91991040Y-61415371D01*
X120369713Y-61415371D01*
X119926328Y-61857983D01*
X119686074Y-62436579D01*
X119685527Y-63063073D01*
X119924771Y-63642087D01*
X120367383Y-64085472D01*
X120945979Y-64325726D01*
X121572473Y-64326273D01*
X122151487Y-64087029D01*
X122594872Y-63644417D01*
X122835126Y-63065821D01*
X122835673Y-62439327D01*
X122596429Y-61860313D01*
X122153817Y-61416928D01*
X121575221Y-61176674D01*
X120948727Y-61176127D01*
X120369713Y-61415371D01*
X91991040Y-61415371D01*
X91857744Y-61092770D01*
X89121635Y-58351881D01*
X85544907Y-56866693D01*
X85183965Y-56866378D01*
X85179834Y-56845611D01*
X84809153Y-56290847D01*
X84254389Y-55920166D01*
X83600000Y-55790000D01*
X82945611Y-55920166D01*
X70685000Y-55920166D01*
X70685000Y-54912971D01*
X120369713Y-54912971D01*
X119926328Y-55355583D01*
X119686074Y-55934179D01*
X119685527Y-56560673D01*
X119924771Y-57139687D01*
X120367383Y-57583072D01*
X120945979Y-57823326D01*
X121572473Y-57823873D01*
X122151487Y-57584629D01*
X122594872Y-57142017D01*
X122835126Y-56563421D01*
X122835673Y-55936927D01*
X122596429Y-55357913D01*
X122153817Y-54914528D01*
X121575221Y-54674274D01*
X120948727Y-54673727D01*
X120369713Y-54912971D01*
X70685000Y-54912971D01*
X70685000Y-53690000D01*
X124450000Y-53690000D01*
X124178295Y-53744046D01*
X123947954Y-53897954D01*
X123794046Y-54128295D01*
X123740000Y-54400000D01*
X123740000Y-89600000D01*
X123794046Y-89871705D01*
X123947954Y-90102046D01*
X124178295Y-90255954D01*
X124450000Y-90310000D01*
X165550000Y-90310000D01*
X165821705Y-90255954D01*
X166052046Y-90102046D01*
X166205954Y-89871705D01*
X166260000Y-89600000D01*
X166260000Y-54400000D01*
X166205954Y-54128295D01*
X166052046Y-53897954D01*
X165821705Y-53744046D01*
X165550000Y-53690000D01*
X124450000Y-53690000D01*
X70685000Y-53690000D01*
X70685000Y-52314285D01*
X132184760Y-52314285D01*
X132395169Y-52823515D01*
X132784436Y-53213461D01*
X133293298Y-53424759D01*
X133844285Y-53425240D01*
X134353515Y-53214831D01*
X134743461Y-52825564D01*
X134839976Y-52593130D01*
X134935169Y-52823515D01*
X135324436Y-53213461D01*
X135833298Y-53424759D01*
X136384285Y-53425240D01*
X136893515Y-53214831D01*
X137283461Y-52825564D01*
X137494759Y-52316702D01*
X137495240Y-51765715D01*
X137284831Y-51256485D01*
X136895564Y-50866539D01*
X136663130Y-50770024D01*
X136893515Y-50674831D01*
X137283461Y-50285564D01*
X137494759Y-49776702D01*
X137495240Y-49225715D01*
X137284831Y-48716485D01*
X136895564Y-48326539D01*
X136892265Y-48325169D01*
X148026485Y-48325169D01*
X147636539Y-48714436D01*
X147425241Y-49223298D01*
X147424760Y-49774285D01*
X147635169Y-50283515D01*
X148024436Y-50673461D01*
X148256870Y-50769976D01*
X148026485Y-50865169D01*
X147636539Y-51254436D01*
X147425241Y-51763298D01*
X147424760Y-52314285D01*
X147635169Y-52823515D01*
X148024436Y-53213461D01*
X148533298Y-53424759D01*
X149084285Y-53425240D01*
X149593515Y-53214831D01*
X149983461Y-52825564D01*
X150079976Y-52593130D01*
X150175169Y-52823515D01*
X150564436Y-53213461D01*
X151073298Y-53424759D01*
X151624285Y-53425240D01*
X152133515Y-53214831D01*
X152523461Y-52825564D01*
X152734759Y-52316702D01*
X152735240Y-51765715D01*
X152524831Y-51256485D01*
X152522786Y-51254436D01*
X155256539Y-51254436D01*
X155045241Y-51763298D01*
X155044760Y-52314285D01*
X155255169Y-52823515D01*
X155644436Y-53213461D01*
X156153298Y-53424759D01*
X156704285Y-53425240D01*
X157213515Y-53214831D01*
X157603461Y-52825564D01*
X157814759Y-52316702D01*
X157815240Y-51765715D01*
X157604831Y-51256485D01*
X157215564Y-50866539D01*
X156706702Y-50655241D01*
X156155715Y-50654760D01*
X155646485Y-50865169D01*
X154212860Y-50865169D01*
X154673515Y-50674831D01*
X155063461Y-50285564D01*
X155274759Y-49776702D01*
X155275240Y-49225715D01*
X155064831Y-48716485D01*
X154675564Y-48326539D01*
X154344551Y-48189090D01*
X213792273Y-48189090D01*
X213191200Y-48789114D01*
X212865501Y-49573485D01*
X212864760Y-50422789D01*
X213189090Y-51207727D01*
X213789114Y-51808800D01*
X214573485Y-52134499D01*
X215422789Y-52135240D01*
X216207727Y-51810910D01*
X216808800Y-51210886D01*
X217134499Y-50426515D01*
X217135240Y-49577211D01*
X216810910Y-48792273D01*
X216210886Y-48191200D01*
X215426515Y-47865501D01*
X214577211Y-47864760D01*
X213792273Y-48189090D01*
X154344551Y-48189090D01*
X154166702Y-48115241D01*
X153615715Y-48114760D01*
X153106485Y-48325169D01*
X152716539Y-48714436D01*
X152505241Y-49223298D01*
X152504760Y-49774285D01*
X152715169Y-50283515D01*
X153104436Y-50673461D01*
X153613298Y-50884759D01*
X154164285Y-50885240D01*
X154212860Y-50865169D01*
X155646485Y-50865169D01*
X154212860Y-50865169D01*
X154212860Y-50865169D01*
X155646485Y-50865169D01*
X155256539Y-51254436D01*
X152522786Y-51254436D01*
X152135564Y-50866539D01*
X151626702Y-50655241D01*
X151075715Y-50654760D01*
X150566485Y-50865169D01*
X150176539Y-51254436D01*
X150080024Y-51486870D01*
X149984831Y-51256485D01*
X149595564Y-50866539D01*
X149363130Y-50770024D01*
X149593515Y-50674831D01*
X149983461Y-50285564D01*
X150194759Y-49776702D01*
X150195240Y-49225715D01*
X149984831Y-48716485D01*
X149595564Y-48326539D01*
X149086702Y-48115241D01*
X148535715Y-48114760D01*
X148026485Y-48325169D01*
X136892265Y-48325169D01*
X136386702Y-48115241D01*
X135835715Y-48114760D01*
X135326485Y-48325169D01*
X110015540Y-48325169D01*
X110046458Y-48240664D01*
X110020839Y-47630540D01*
X109836643Y-47185852D01*
X109580159Y-47099446D01*
X108679605Y-48000000D01*
X109580159Y-48900554D01*
X109836643Y-48814148D01*
X110015540Y-48325169D01*
X135326485Y-48325169D01*
X110015540Y-48325169D01*
X110015540Y-48325169D01*
X135326485Y-48325169D01*
X134936539Y-48714436D01*
X134725241Y-49223298D01*
X109352332Y-49223298D01*
X109400554Y-49080159D01*
X108500000Y-48179605D01*
X107599446Y-49080159D01*
X107685852Y-49336643D01*
X108259336Y-49546458D01*
X108869460Y-49520839D01*
X109314148Y-49336643D01*
X109352332Y-49223298D01*
X134725241Y-49223298D01*
X109352332Y-49223298D01*
X109352332Y-49223298D01*
X134725241Y-49223298D01*
X134724760Y-49774285D01*
X95197860Y-49774285D01*
X95197860Y-49400560D01*
X95150883Y-49158437D01*
X95011093Y-48945633D01*
X94800060Y-48803183D01*
X94550420Y-48753120D01*
X93351540Y-48753120D01*
X93109417Y-48800097D01*
X93010614Y-48865000D01*
X92500000Y-48865000D01*
X92065654Y-48951397D01*
X91697434Y-49197434D01*
X91451397Y-49565654D01*
X91365000Y-50000000D01*
X91451397Y-50434346D01*
X91697434Y-50802566D01*
X92065654Y-51048603D01*
X92500000Y-51135000D01*
X93010321Y-51135000D01*
X93101900Y-51196817D01*
X93351540Y-51246880D01*
X94550420Y-51246880D01*
X94792543Y-51199903D01*
X95005347Y-51060113D01*
X95147797Y-50849080D01*
X95197860Y-50599440D01*
X95197860Y-49774285D01*
X134724760Y-49774285D01*
X95197860Y-49774285D01*
X95197860Y-49774285D01*
X134724760Y-49774285D01*
X134935169Y-50283515D01*
X135324436Y-50673461D01*
X135556870Y-50769976D01*
X135326485Y-50865169D01*
X134936539Y-51254436D01*
X134840024Y-51486870D01*
X134744831Y-51256485D01*
X134355564Y-50866539D01*
X133846702Y-50655241D01*
X133295715Y-50654760D01*
X132786485Y-50865169D01*
X132396539Y-51254436D01*
X76765173Y-51254436D01*
X76808800Y-51210886D01*
X77134499Y-50426515D01*
X77135240Y-49577211D01*
X76810910Y-48792273D01*
X76771826Y-48753120D01*
X81851540Y-48753120D01*
X81609417Y-48800097D01*
X81510614Y-48865000D01*
X81000000Y-48865000D01*
X80565654Y-48951397D01*
X80197434Y-49197434D01*
X79951397Y-49565654D01*
X79865000Y-50000000D01*
X79951397Y-50434346D01*
X80197434Y-50802566D01*
X80565654Y-51048603D01*
X81000000Y-51135000D01*
X81510321Y-51135000D01*
X81601900Y-51196817D01*
X81851540Y-51246880D01*
X83050420Y-51246880D01*
X83292543Y-51199903D01*
X83505347Y-51060113D01*
X83647797Y-50849080D01*
X83697860Y-50599440D01*
X83697860Y-49400560D01*
X83650883Y-49158437D01*
X83511093Y-48945633D01*
X83300060Y-48803183D01*
X83050420Y-48753120D01*
X81851540Y-48753120D01*
X76771826Y-48753120D01*
X76210886Y-48191200D01*
X75426515Y-47865501D01*
X74577211Y-47864760D01*
X73792273Y-48189090D01*
X73191200Y-48789114D01*
X72865501Y-49573485D01*
X72864760Y-50422789D01*
X73189090Y-51207727D01*
X73789114Y-51808800D01*
X74573485Y-52134499D01*
X75422789Y-52135240D01*
X76207727Y-51810910D01*
X76765173Y-51254436D01*
X132396539Y-51254436D01*
X76765173Y-51254436D01*
X76765173Y-51254436D01*
X132396539Y-51254436D01*
X132185241Y-51763298D01*
X132184760Y-52314285D01*
X70685000Y-52314285D01*
X70685000Y-50067467D01*
X71025858Y-48353858D01*
X71806293Y-47185852D01*
X107163357Y-47185852D01*
X106953542Y-47759336D01*
X106979161Y-48369460D01*
X107163357Y-48814148D01*
X107419841Y-48900554D01*
X108320395Y-48000000D01*
X107419841Y-47099446D01*
X107163357Y-47185852D01*
X71806293Y-47185852D01*
X71958323Y-46958324D01*
X72675440Y-46479161D01*
X108130540Y-46479161D01*
X107685852Y-46663357D01*
X107599446Y-46919841D01*
X108500000Y-47820395D01*
X109400554Y-46919841D01*
X109314148Y-46663357D01*
X108740664Y-46453542D01*
X108130540Y-46479161D01*
X72675440Y-46479161D01*
X73353856Y-46025858D01*
X75067467Y-45685000D01*
X214932533Y-45685000D01*
X216646142Y-46025858D01*
M02*
