G04 #@! TF.FileFunction,Profile,NP*
%FSLAX46Y46*%
G04 Gerber Fmt 4.6, Leading zero omitted, Abs format (unit mm)*
G04 Created by KiCad (PCBNEW (2015-06-26 BZR 5832)-product) date Mittwoch, 17. August 2016 'u55' 19:55:04*
%MOMM*%
G01*
G04 APERTURE LIST*
%ADD10C,0.150000*%
%ADD11C,0.100000*%
G04 APERTURE END LIST*
D10*
D11*
X215000000Y-145000000D02*
G75*
G03X220000000Y-140000000I0J5000000D01*
G01*
X220000000Y-50000000D02*
G75*
G03X215000000Y-45000000I-5000000J0D01*
G01*
X75000000Y-45000000D02*
G75*
G03X70000000Y-50000000I0J-5000000D01*
G01*
X70000000Y-140000000D02*
G75*
G03X75000000Y-145000000I5000000J0D01*
G01*
X75000000Y-145000000D02*
X215000000Y-145000000D01*
X70000000Y-50000000D02*
X70000000Y-140000000D01*
X220000000Y-50000000D02*
X220000000Y-140000000D01*
X215000000Y-45000000D02*
X75000000Y-45000000D01*
D10*
X165550000Y-54400000D02*
X124450000Y-54400000D01*
X124450000Y-54400000D02*
X124450000Y-89600000D01*
X124450000Y-89600000D02*
X165550000Y-89600000D01*
X165550000Y-89600000D02*
X165550000Y-54400000D01*
X93500000Y-51000000D02*
G75*
G03X93500000Y-51000000I-1000000J0D01*
G01*
X147385000Y-130875000D02*
X142615000Y-130875000D01*
X140235000Y-135000000D02*
G75*
G02X142617500Y-130873389I4765000J0D01*
G01*
X147382500Y-130873389D02*
G75*
G02X149765000Y-135000000I-2382500J-4126611D01*
G01*
X149765000Y-135000000D02*
G75*
G02X140235000Y-135000000I-4765000J0D01*
G01*
X185485000Y-130875000D02*
X180715000Y-130875000D01*
X178335000Y-135000000D02*
G75*
G02X180717500Y-130873389I4765000J0D01*
G01*
X185482500Y-130873389D02*
G75*
G02X187865000Y-135000000I-2382500J-4126611D01*
G01*
X187865000Y-135000000D02*
G75*
G02X178335000Y-135000000I-4765000J0D01*
G01*
X128335000Y-130875000D02*
X123565000Y-130875000D01*
X121185000Y-135000000D02*
G75*
G02X123567500Y-130873389I4765000J0D01*
G01*
X128332500Y-130873389D02*
G75*
G02X130715000Y-135000000I-2382500J-4126611D01*
G01*
X130715000Y-135000000D02*
G75*
G02X121185000Y-135000000I-4765000J0D01*
G01*
X109285000Y-130875000D02*
X104515000Y-130875000D01*
X102135000Y-135000000D02*
G75*
G02X104517500Y-130873389I4765000J0D01*
G01*
X109282500Y-130873389D02*
G75*
G02X111665000Y-135000000I-2382500J-4126611D01*
G01*
X111665000Y-135000000D02*
G75*
G02X102135000Y-135000000I-4765000J0D01*
G01*
X166435000Y-130875000D02*
X161665000Y-130875000D01*
X159285000Y-135000000D02*
G75*
G02X161667500Y-130873389I4765000J0D01*
G01*
X166432500Y-130873389D02*
G75*
G02X168815000Y-135000000I-2382500J-4126611D01*
G01*
X168815000Y-135000000D02*
G75*
G02X159285000Y-135000000I-4765000J0D01*
G01*
M02*
