G04 #@! TF.FileFunction,Copper,L2,Bot,Signal*
%FSLAX46Y46*%
G04 Gerber Fmt 4.6, Leading zero omitted, Abs format (unit mm)*
G04 Created by KiCad (PCBNEW (2015-06-26 BZR 5832)-product) date Mittwoch, 17. August 2016 'u55' 19:55:03*
%MOMM*%
G01*
G04 APERTURE LIST*
%ADD10C,0.150000*%
%ADD11R,1.998980X0.599440*%
%ADD12R,1.399540X1.099820*%
%ADD13C,3.400000*%
%ADD14C,1.500000*%
%ADD15R,2.300000X2.900000*%
%ADD16C,1.524000*%
%ADD17R,1.800860X3.700780*%
%ADD18C,2.032000*%
%ADD19O,2.032000X2.032000*%
%ADD20C,1.900000*%
%ADD21C,1.422400*%
%ADD22C,1.800000*%
%ADD23R,1.099820X1.399540*%
%ADD24C,1.879600*%
%ADD25R,1.198880X0.548640*%
%ADD26R,1.219200X2.235200*%
%ADD27R,3.599180X2.199640*%
%ADD28R,0.998220X0.248920*%
%ADD29C,6.350000*%
%ADD30C,18.200000*%
%ADD31C,11.200000*%
%ADD32R,4.000000X4.000000*%
%ADD33R,2.500000X1.520000*%
%ADD34R,4.100000X2.200000*%
%ADD35R,1.520000X2.500000*%
%ADD36R,2.200000X4.100000*%
%ADD37R,3.299460X1.699260*%
%ADD38C,0.600000*%
%ADD39C,0.250000*%
%ADD40C,1.000000*%
%ADD41C,0.500000*%
%ADD42C,1.800000*%
G04 APERTURE END LIST*
D10*
D11*
X177199000Y-93745000D03*
X177199000Y-95015000D03*
X177199000Y-96285000D03*
X177199000Y-97555000D03*
X177199000Y-98825000D03*
X177199000Y-100095000D03*
X177199000Y-101365000D03*
X177199000Y-102635000D03*
X177199000Y-103905000D03*
X177199000Y-105175000D03*
X177199000Y-106445000D03*
X177199000Y-107715000D03*
X177199000Y-108985000D03*
X177199000Y-110255000D03*
X167801000Y-110255000D03*
X167801000Y-108985000D03*
X167801000Y-107715000D03*
X167801000Y-106445000D03*
X167801000Y-105175000D03*
X167801000Y-103905000D03*
X167801000Y-102635000D03*
X167801000Y-101365000D03*
X167801000Y-100095000D03*
X167801000Y-98825000D03*
X167801000Y-97555000D03*
X167801000Y-96285000D03*
X167801000Y-95015000D03*
X167801000Y-93745000D03*
D12*
X138500000Y-110501780D03*
X138500000Y-112498220D03*
X126500000Y-110501780D03*
X126500000Y-112498220D03*
D13*
X74930000Y-111600000D03*
X74930000Y-118400000D03*
X88070000Y-111600000D03*
X88070000Y-118400000D03*
D14*
X78000000Y-109420000D03*
X80500000Y-109420000D03*
X82500000Y-109420000D03*
X85000000Y-109420000D03*
X78000000Y-117920000D03*
X80500000Y-117920000D03*
X82500000Y-117920000D03*
X85000000Y-117920000D03*
D13*
X201930000Y-91600000D03*
X201930000Y-98400000D03*
X215070000Y-91600000D03*
X215070000Y-98400000D03*
D14*
X205000000Y-89420000D03*
X207500000Y-89420000D03*
X209500000Y-89420000D03*
X212000000Y-89420000D03*
X205000000Y-97920000D03*
X207500000Y-97920000D03*
X209500000Y-97920000D03*
X212000000Y-97920000D03*
D13*
X201930000Y-111600000D03*
X201930000Y-118400000D03*
X215070000Y-111600000D03*
X215070000Y-118400000D03*
D14*
X205000000Y-109420000D03*
X207500000Y-109420000D03*
X209500000Y-109420000D03*
X212000000Y-109420000D03*
X205000000Y-117920000D03*
X207500000Y-117920000D03*
X209500000Y-117920000D03*
X212000000Y-117920000D03*
D15*
X138100000Y-107000000D03*
D16*
X130000000Y-100000000D03*
X135000000Y-100000000D03*
X130000000Y-114000000D03*
X132500000Y-114000000D03*
X135000000Y-114000000D03*
D15*
X126900000Y-107000000D03*
X163100000Y-107000000D03*
D16*
X155000000Y-100000000D03*
X160000000Y-100000000D03*
X155000000Y-114000000D03*
X157500000Y-114000000D03*
X160000000Y-114000000D03*
D15*
X151900000Y-107000000D03*
D17*
X140950220Y-124500000D03*
X145049780Y-124500000D03*
X121950220Y-124500000D03*
X126049780Y-124500000D03*
X102950220Y-124500000D03*
X107049780Y-124500000D03*
D18*
X112268000Y-108204000D03*
X109728000Y-108204000D03*
X107188000Y-108204000D03*
X190070000Y-98900000D03*
D19*
X187530000Y-98900000D03*
D20*
X208581500Y-125180500D03*
X208581500Y-132180500D03*
X208581500Y-128680500D03*
X92500000Y-81250000D03*
X92500000Y-84750000D03*
X92500000Y-88250000D03*
X92500000Y-105750000D03*
X92500000Y-102250000D03*
X92500000Y-98750000D03*
X92500000Y-95250000D03*
X92500000Y-91750000D03*
D18*
X204924000Y-65990000D03*
D19*
X207464000Y-65990000D03*
D18*
X212544000Y-65990000D03*
D19*
X210004000Y-65990000D03*
D18*
X173228000Y-113538000D03*
D19*
X173228000Y-116078000D03*
D21*
X89998220Y-135800000D03*
X88001780Y-135800000D03*
D22*
X109728000Y-105708000D03*
X109728000Y-47708000D03*
D12*
X132500000Y-101001780D03*
X132500000Y-102998220D03*
D23*
X135998220Y-110500000D03*
X134001780Y-110500000D03*
X130998220Y-110500000D03*
X129001780Y-110500000D03*
D12*
X134500000Y-107498220D03*
X134500000Y-105501780D03*
X130500000Y-107498220D03*
X130500000Y-105501780D03*
D24*
X168739400Y-84751200D03*
X168739400Y-78248800D03*
X173260600Y-84751200D03*
X173260600Y-78248800D03*
X168739400Y-62751200D03*
X168739400Y-56248800D03*
X173260600Y-62751200D03*
X173260600Y-56248800D03*
X116739400Y-62751200D03*
X116739400Y-56248800D03*
X121260600Y-62751200D03*
X121260600Y-56248800D03*
X116739400Y-84751200D03*
X116739400Y-78248800D03*
X121260600Y-84751200D03*
X121260600Y-78248800D03*
D25*
X82797940Y-112550040D03*
X82797940Y-113500000D03*
X82797940Y-114449960D03*
X80202060Y-114449960D03*
X80202060Y-113500000D03*
X80202060Y-112550040D03*
X209797940Y-92550040D03*
X209797940Y-93500000D03*
X209797940Y-94449960D03*
X207202060Y-94449960D03*
X207202060Y-93500000D03*
X207202060Y-92550040D03*
X209797940Y-112550040D03*
X209797940Y-113500000D03*
X209797940Y-114449960D03*
X207202060Y-114449960D03*
X207202060Y-113500000D03*
X207202060Y-112550040D03*
D26*
X118311400Y-117098800D03*
X116000000Y-117098800D03*
X113688600Y-117098800D03*
D27*
X116000000Y-110901200D03*
D16*
X197160000Y-70230000D03*
X197160000Y-67690000D03*
X197160000Y-65150000D03*
X197160000Y-62610000D03*
X197160000Y-60070000D03*
X197160000Y-57530000D03*
X197160000Y-54990000D03*
X197160000Y-52450000D03*
X197160000Y-72770000D03*
X197160000Y-75310000D03*
X197160000Y-77850000D03*
X197160000Y-80390000D03*
X197160000Y-82930000D03*
X197160000Y-85470000D03*
X197160000Y-88010000D03*
X197160000Y-90550000D03*
X176840000Y-90550000D03*
X176840000Y-88010000D03*
X176840000Y-85470000D03*
X176840000Y-82930000D03*
X176840000Y-80390000D03*
X176840000Y-77850000D03*
X176840000Y-75310000D03*
X176840000Y-72770000D03*
X176840000Y-70230000D03*
X176840000Y-67690000D03*
X176840000Y-65150000D03*
X176840000Y-62610000D03*
D28*
X86889260Y-131098220D03*
X86889260Y-130597840D03*
X86889260Y-130100000D03*
X86889260Y-129602160D03*
X86889260Y-129101780D03*
X91110740Y-129101780D03*
X91110740Y-129602160D03*
X91110740Y-130100000D03*
X91110740Y-130597840D03*
X91110740Y-131098220D03*
X86889260Y-124998220D03*
X86889260Y-124497840D03*
X86889260Y-124000000D03*
X86889260Y-123502160D03*
X86889260Y-123001780D03*
X91110740Y-123001780D03*
X91110740Y-123502160D03*
X91110740Y-124000000D03*
X91110740Y-124497840D03*
X91110740Y-124998220D03*
D14*
X133570000Y-49500000D03*
X143730000Y-52040000D03*
X141190000Y-52040000D03*
X138650000Y-52040000D03*
X136110000Y-52040000D03*
X133570000Y-52040000D03*
X146270000Y-52040000D03*
X148810000Y-52040000D03*
X151350000Y-52040000D03*
X153890000Y-52040000D03*
X156430000Y-52040000D03*
X136110000Y-49500000D03*
X138650000Y-49500000D03*
X141190000Y-49500000D03*
X143730000Y-49500000D03*
X146270000Y-49500000D03*
X148810000Y-49500000D03*
X151350000Y-49500000D03*
X153890000Y-49500000D03*
X156430000Y-49500000D03*
D12*
X111000000Y-116998220D03*
X111000000Y-115001780D03*
X121000000Y-115001780D03*
X121000000Y-116998220D03*
D23*
X78098220Y-127700000D03*
X76101780Y-127700000D03*
X82201780Y-121000000D03*
X84198220Y-121000000D03*
X89998220Y-133300000D03*
X88001780Y-133300000D03*
X87401780Y-126900000D03*
X89398220Y-126900000D03*
X93498220Y-126900000D03*
X91501780Y-126900000D03*
D12*
X163500000Y-110501780D03*
X163500000Y-112498220D03*
X151500000Y-110501780D03*
X151500000Y-112498220D03*
D23*
X75998220Y-67100000D03*
X74001780Y-67100000D03*
X75998220Y-54900000D03*
X74001780Y-54900000D03*
X84198220Y-126200000D03*
X82201780Y-126200000D03*
X84198220Y-129400000D03*
X82201780Y-129400000D03*
X82201780Y-123600000D03*
X84198220Y-123600000D03*
D12*
X93750000Y-132051780D03*
X93750000Y-134048220D03*
X157500000Y-101001780D03*
X157500000Y-102998220D03*
X171000000Y-80501780D03*
X171000000Y-82498220D03*
X171000000Y-58501780D03*
X171000000Y-60498220D03*
X119000000Y-58501780D03*
X119000000Y-60498220D03*
X119000000Y-80501780D03*
X119000000Y-82498220D03*
D23*
X160998220Y-110500000D03*
X159001780Y-110500000D03*
X155998220Y-110500000D03*
X154001780Y-110500000D03*
D12*
X196342000Y-100566220D03*
X196342000Y-98569780D03*
X159750000Y-107498220D03*
X159750000Y-105501780D03*
X155500000Y-107498220D03*
X155500000Y-105501780D03*
D29*
X183000000Y-115000000D03*
D30*
X92500000Y-60100000D03*
D31*
X145000000Y-135000000D03*
D32*
X145000000Y-129000000D03*
D31*
X183100000Y-135000000D03*
D32*
X183100000Y-129000000D03*
D31*
X125950000Y-135000000D03*
D32*
X125950000Y-129000000D03*
D31*
X106900000Y-135000000D03*
D32*
X106900000Y-129000000D03*
D31*
X164050000Y-135000000D03*
D32*
X164050000Y-129000000D03*
D33*
X172836000Y-128143000D03*
D34*
X177056000Y-128143000D03*
D35*
X194056000Y-133107000D03*
D36*
X194056000Y-128887000D03*
D37*
X186440000Y-103900000D03*
X181360000Y-103900000D03*
X196040000Y-103900000D03*
X190960000Y-103900000D03*
D12*
X181200000Y-98801780D03*
X181200000Y-100798220D03*
D38*
X89916000Y-122872500D03*
X87947500Y-123507500D03*
X127889000Y-111887000D03*
X93718000Y-135324000D03*
X110998000Y-113665000D03*
X118237000Y-118999000D03*
X178689000Y-105156000D03*
X166000000Y-111500000D03*
X116014500Y-118935500D03*
X92964000Y-122809000D03*
X171069000Y-56769000D03*
X171069000Y-78740000D03*
X171196000Y-97663000D03*
X165500000Y-103500000D03*
X165500000Y-107500000D03*
X154000000Y-108500000D03*
X160500000Y-102000000D03*
X72500000Y-67100000D03*
X72500000Y-54900000D03*
X180594000Y-122936000D03*
X81000000Y-126200000D03*
X85300000Y-126200000D03*
X81100000Y-129400000D03*
X85300000Y-129400000D03*
X128500000Y-104500000D03*
X92964000Y-123698000D03*
X173990000Y-108966000D03*
X179705000Y-107696000D03*
X93027500Y-124523500D03*
X175006000Y-107696000D03*
X185293000Y-122936000D03*
D39*
X86889260Y-130597840D02*
X84497840Y-130597840D01*
X84198220Y-130298220D02*
X84198220Y-129400000D01*
X84497840Y-130597840D02*
X84198220Y-130298220D01*
D40*
X78098220Y-127700000D02*
X84198220Y-127700000D01*
X84198220Y-127700000D02*
X84100000Y-127700000D01*
X84100000Y-127700000D02*
X84198220Y-127700000D01*
X78000000Y-127601780D02*
X78000000Y-119800000D01*
X78000000Y-119800000D02*
X78000000Y-117920000D01*
X78000000Y-127601780D02*
X78098220Y-127700000D01*
X84198220Y-126200000D02*
X84198220Y-127700000D01*
X84198220Y-127700000D02*
X84198220Y-129400000D01*
D41*
X80202060Y-113500000D02*
X78000000Y-113500000D01*
D42*
X78000000Y-109420000D02*
X78000000Y-113500000D01*
X78000000Y-113500000D02*
X78000000Y-117920000D01*
X92500000Y-98750000D02*
X83250000Y-98750000D01*
X78000000Y-104000000D02*
X78000000Y-109420000D01*
X83250000Y-98750000D02*
X78000000Y-104000000D01*
X107188000Y-108204000D02*
X107188000Y-101188000D01*
X104750000Y-98750000D02*
X92500000Y-98750000D01*
X107188000Y-101188000D02*
X104750000Y-98750000D01*
D40*
X111000000Y-116998220D02*
X107188000Y-116998220D01*
X107500000Y-117000000D02*
X107188000Y-117000000D01*
X107189780Y-117000000D02*
X107500000Y-117000000D01*
X107188000Y-116998220D02*
X107189780Y-117000000D01*
D42*
X121950220Y-124500000D02*
X113500000Y-124500000D01*
X113500000Y-124500000D02*
X107188000Y-118188000D01*
X107188000Y-118188000D02*
X107188000Y-117000000D01*
X107188000Y-117000000D02*
X107188000Y-108204000D01*
D39*
X86889260Y-131098220D02*
X86889260Y-130597840D01*
D42*
X205000000Y-117920000D02*
X205000000Y-119021000D01*
X121950220Y-122397780D02*
X121950220Y-124500000D01*
X123444000Y-120904000D02*
X121950220Y-122397780D01*
X150114000Y-120904000D02*
X123444000Y-120904000D01*
X154305000Y-125095000D02*
X150114000Y-120904000D01*
X154305000Y-139192000D02*
X154305000Y-125095000D01*
X157988000Y-142875000D02*
X154305000Y-139192000D01*
X203708000Y-142875000D02*
X157988000Y-142875000D01*
X214249000Y-132334000D02*
X203708000Y-142875000D01*
X214249000Y-124079000D02*
X214249000Y-132334000D01*
X211582000Y-121412000D02*
X214249000Y-124079000D01*
X207391000Y-121412000D02*
X211582000Y-121412000D01*
X205000000Y-119021000D02*
X207391000Y-121412000D01*
X190070000Y-98900000D02*
X190070000Y-98728000D01*
X190070000Y-98728000D02*
X193802000Y-94996000D01*
X193802000Y-94996000D02*
X205000000Y-94996000D01*
X205000000Y-97920000D02*
X205000000Y-109420000D01*
X205000000Y-117920000D02*
X205000000Y-113500000D01*
D41*
X207202060Y-113500000D02*
X205000000Y-113500000D01*
D42*
X205000000Y-113500000D02*
X205000000Y-109420000D01*
D41*
X207202060Y-93500000D02*
X205000000Y-93500000D01*
D42*
X205000000Y-97920000D02*
X205000000Y-94996000D01*
X205000000Y-94996000D02*
X205000000Y-93500000D01*
X205000000Y-93500000D02*
X205000000Y-89420000D01*
D40*
X111000000Y-116998220D02*
X113588020Y-116998220D01*
X113588020Y-116998220D02*
X113688600Y-117098800D01*
X82201780Y-121000000D02*
X82201780Y-120718220D01*
X82201780Y-120718220D02*
X85000000Y-117920000D01*
X82201780Y-123600000D02*
X82201780Y-121000000D01*
X76101780Y-127700000D02*
X76101780Y-119571780D01*
X76101780Y-119571780D02*
X74930000Y-118400000D01*
D39*
X86889260Y-129101780D02*
X89398220Y-129101780D01*
X89300000Y-129200000D02*
X89398220Y-129200000D01*
X89398220Y-129101780D02*
X89300000Y-129200000D01*
D40*
X91501780Y-126900000D02*
X89398220Y-126900000D01*
X89398220Y-126900000D02*
X89398220Y-129200000D01*
X89398220Y-129200000D02*
X89398220Y-130801780D01*
X88001780Y-132198220D02*
X88001780Y-133300000D01*
X89398220Y-130801780D02*
X88001780Y-132198220D01*
D41*
X85000000Y-117920000D02*
X85000000Y-114000000D01*
X85000000Y-114000000D02*
X84500000Y-113500000D01*
X82797940Y-113500000D02*
X84500000Y-113500000D01*
X85000000Y-113000000D02*
X85000000Y-109420000D01*
X84500000Y-113500000D02*
X85000000Y-113000000D01*
D39*
X91110740Y-123001780D02*
X90045280Y-123001780D01*
X90045280Y-123001780D02*
X89916000Y-122872500D01*
X87942160Y-123502160D02*
X87947500Y-123507500D01*
X87942160Y-123502160D02*
X86889260Y-123502160D01*
D40*
X126500000Y-112498220D02*
X127277780Y-112498220D01*
X127277780Y-112498220D02*
X127889000Y-111887000D01*
X88001780Y-135800000D02*
X88001780Y-133300000D01*
X93750000Y-134048220D02*
X93750000Y-135292000D01*
X93750000Y-135292000D02*
X93718000Y-135324000D01*
X111000000Y-115001780D02*
X111000000Y-113667000D01*
X111000000Y-113667000D02*
X110998000Y-113665000D01*
X118311400Y-117098800D02*
X118311400Y-118924600D01*
X118311400Y-118924600D02*
X118237000Y-118999000D01*
X121000000Y-116998220D02*
X118411980Y-116998220D01*
X118411980Y-116998220D02*
X118311400Y-117098800D01*
X138500000Y-112498220D02*
X138500000Y-114230000D01*
X132500000Y-115101000D02*
X132500000Y-114000000D01*
X133223000Y-115824000D02*
X132500000Y-115101000D01*
X136906000Y-115824000D02*
X133223000Y-115824000D01*
X138500000Y-114230000D02*
X136906000Y-115824000D01*
D42*
X172836000Y-128143000D02*
X172836000Y-126376000D01*
X172836000Y-126376000D02*
X174031500Y-125180500D01*
X208581500Y-125180500D02*
X174031500Y-125180500D01*
X174031500Y-125180500D02*
X164887500Y-125180500D01*
X164050000Y-126018000D02*
X164050000Y-129000000D01*
X164887500Y-125180500D02*
X164050000Y-126018000D01*
D40*
X196040000Y-103900000D02*
X199376000Y-103900000D01*
X201930000Y-101346000D02*
X201930000Y-98400000D01*
X199376000Y-103900000D02*
X201930000Y-101346000D01*
X196342000Y-98569780D02*
X201760220Y-98569780D01*
X201760220Y-98569780D02*
X201930000Y-98400000D01*
D41*
X177199000Y-105175000D02*
X178670000Y-105175000D01*
X178670000Y-105175000D02*
X178689000Y-105156000D01*
D42*
X164050000Y-135000000D02*
X164050000Y-129000000D01*
D40*
X196040000Y-103900000D02*
X196430000Y-103900000D01*
X201530000Y-98800000D02*
X201930000Y-98400000D01*
X151500000Y-112498220D02*
X149998220Y-112498220D01*
X150500000Y-107000000D02*
X151900000Y-107000000D01*
X149500000Y-108000000D02*
X150500000Y-107000000D01*
X149500000Y-112000000D02*
X149500000Y-108000000D01*
X149998220Y-112498220D02*
X149500000Y-112000000D01*
D41*
X163500000Y-112498220D02*
X165001780Y-112498220D01*
X166000000Y-111500000D02*
X167245000Y-110255000D01*
X165001780Y-112498220D02*
X166000000Y-111500000D01*
X167801000Y-110255000D02*
X167245000Y-110255000D01*
X167801000Y-108985000D02*
X167801000Y-110255000D01*
X167801000Y-107715000D02*
X167801000Y-108985000D01*
X211000000Y-113500000D02*
X212000000Y-114500000D01*
X212000000Y-114500000D02*
X212000000Y-117920000D01*
X209797940Y-113500000D02*
X211000000Y-113500000D01*
X212000000Y-112500000D02*
X212000000Y-109420000D01*
X211000000Y-113500000D02*
X212000000Y-112500000D01*
X211000000Y-93500000D02*
X212000000Y-94500000D01*
X212000000Y-94500000D02*
X212000000Y-97920000D01*
X209797940Y-93500000D02*
X211000000Y-93500000D01*
X212000000Y-92500000D02*
X212000000Y-89420000D01*
X211000000Y-93500000D02*
X212000000Y-92500000D01*
D39*
X91110740Y-124998220D02*
X92598220Y-124998220D01*
X93498220Y-125898220D02*
X93498220Y-126900000D01*
X92598220Y-124998220D02*
X93498220Y-125898220D01*
X87401780Y-126900000D02*
X87200000Y-126900000D01*
X87200000Y-126900000D02*
X86889260Y-126589260D01*
X86889260Y-126589260D02*
X86889260Y-124998220D01*
X91110740Y-124998220D02*
X91298220Y-124998220D01*
X91110740Y-123502160D02*
X92270840Y-123502160D01*
X116000000Y-118921000D02*
X116000000Y-117098800D01*
X116014500Y-118935500D02*
X116000000Y-118921000D01*
X92270840Y-123502160D02*
X92964000Y-122809000D01*
D41*
X171000000Y-56838000D02*
X171000000Y-58501780D01*
X171069000Y-56769000D02*
X171000000Y-56838000D01*
X174498000Y-103905000D02*
X174498000Y-103886000D01*
X171000000Y-78809000D02*
X171000000Y-80501780D01*
X171069000Y-78740000D02*
X171000000Y-78809000D01*
X171196000Y-100584000D02*
X171196000Y-97663000D01*
X174498000Y-103886000D02*
X171196000Y-100584000D01*
X173228000Y-113538000D02*
X172085000Y-113538000D01*
X122113780Y-115001780D02*
X121000000Y-115001780D01*
X126238000Y-119126000D02*
X122113780Y-115001780D01*
X166497000Y-119126000D02*
X126238000Y-119126000D01*
X172085000Y-113538000D02*
X166497000Y-119126000D01*
X177199000Y-103905000D02*
X174498000Y-103905000D01*
X174498000Y-103905000D02*
X174479000Y-103905000D01*
X173228000Y-105156000D02*
X173228000Y-113538000D01*
X174479000Y-103905000D02*
X173228000Y-105156000D01*
X177199000Y-103905000D02*
X181355000Y-103905000D01*
X181355000Y-103905000D02*
X181360000Y-103900000D01*
X181355000Y-103905000D02*
X181360000Y-103900000D01*
X167801000Y-106445000D02*
X166445000Y-106445000D01*
X163750000Y-103750000D02*
X159750000Y-103750000D01*
X166445000Y-106445000D02*
X163750000Y-103750000D01*
D40*
X132500000Y-102998220D02*
X116000000Y-102998220D01*
X116000000Y-102998220D02*
X116000000Y-103000000D01*
X157500000Y-102998220D02*
X132500000Y-102998220D01*
X157500000Y-102998220D02*
X158998220Y-102998220D01*
X159750000Y-103750000D02*
X159750000Y-105501780D01*
X158998220Y-102998220D02*
X159750000Y-103750000D01*
X157500000Y-102998220D02*
X156001780Y-102998220D01*
X155500000Y-103500000D02*
X155500000Y-105501780D01*
X156001780Y-102998220D02*
X155500000Y-103500000D01*
X132500000Y-102998220D02*
X133498220Y-102998220D01*
X133498220Y-102998220D02*
X134500000Y-104000000D01*
X134500000Y-104000000D02*
X134500000Y-105501780D01*
X132500000Y-102998220D02*
X131501780Y-102998220D01*
X131501780Y-102998220D02*
X130500000Y-104000000D01*
X130500000Y-104000000D02*
X130500000Y-105501780D01*
D39*
X91110740Y-123502160D02*
X89497840Y-123502160D01*
X89000000Y-124000000D02*
X89000000Y-124998220D01*
X89497840Y-123502160D02*
X89000000Y-124000000D01*
X86889260Y-124998220D02*
X89000000Y-124998220D01*
X89000000Y-124998220D02*
X91110740Y-124998220D01*
D40*
X119000000Y-58501780D02*
X112000000Y-58501780D01*
X112000000Y-58501780D02*
X112000000Y-58500000D01*
X119000000Y-80501780D02*
X112000000Y-80501780D01*
X112000000Y-80501780D02*
X112000000Y-80500000D01*
D42*
X116000000Y-110901200D02*
X116000000Y-103000000D01*
X116000000Y-103000000D02*
X116000000Y-95000000D01*
X116000000Y-95000000D02*
X112000000Y-91000000D01*
X112000000Y-91000000D02*
X112000000Y-80500000D01*
X114960000Y-52040000D02*
X133570000Y-52040000D01*
X112000000Y-55000000D02*
X114960000Y-52040000D01*
X112000000Y-80500000D02*
X112000000Y-58500000D01*
X112000000Y-58500000D02*
X112000000Y-55000000D01*
D40*
X121000000Y-115001780D02*
X121000000Y-112500000D01*
X121000000Y-112500000D02*
X119401200Y-110901200D01*
X119401200Y-110901200D02*
X116000000Y-110901200D01*
X116000000Y-117098800D02*
X116000000Y-110901200D01*
X155500000Y-105501780D02*
X159750000Y-105501780D01*
X130500000Y-105501780D02*
X134500000Y-105501780D01*
D39*
X86889260Y-123001780D02*
X86200000Y-123001780D01*
X86200000Y-123001780D02*
X84198220Y-121000000D01*
X89998220Y-133300000D02*
X90800000Y-133300000D01*
X91110740Y-132989260D02*
X91110740Y-131098220D01*
X90800000Y-133300000D02*
X91110740Y-132989260D01*
D40*
X89998220Y-135800000D02*
X89998220Y-133300000D01*
D39*
X90512000Y-133300000D02*
X89998220Y-133300000D01*
X91110740Y-130597840D02*
X91110740Y-131098220D01*
D41*
X138500000Y-110501780D02*
X144501780Y-110501780D01*
X169135000Y-102635000D02*
X167801000Y-102635000D01*
X170000000Y-103500000D02*
X169135000Y-102635000D01*
X170000000Y-111000000D02*
X170000000Y-103500000D01*
X165000000Y-116000000D02*
X170000000Y-111000000D01*
X150000000Y-116000000D02*
X165000000Y-116000000D01*
X144501780Y-110501780D02*
X150000000Y-116000000D01*
D40*
X135998220Y-110500000D02*
X138498220Y-110500000D01*
X138498220Y-110500000D02*
X138500000Y-110501780D01*
D41*
X129001780Y-110500000D02*
X129001780Y-112498220D01*
X169365000Y-101365000D02*
X167801000Y-101365000D01*
X171000000Y-103000000D02*
X169365000Y-101365000D01*
X171000000Y-111500000D02*
X171000000Y-103000000D01*
X165500000Y-117000000D02*
X171000000Y-111500000D01*
X130000000Y-117000000D02*
X165500000Y-117000000D01*
X128000000Y-115000000D02*
X130000000Y-117000000D01*
X128000000Y-113500000D02*
X128000000Y-115000000D01*
X129001780Y-112498220D02*
X128000000Y-113500000D01*
D40*
X126500000Y-110501780D02*
X129000000Y-110501780D01*
X129000000Y-110501780D02*
X129001780Y-110500000D01*
D41*
X163500000Y-110501780D02*
X163998220Y-110501780D01*
X163998220Y-110501780D02*
X165500000Y-109000000D01*
X166675000Y-98825000D02*
X167801000Y-98825000D01*
X165500000Y-100000000D02*
X166675000Y-98825000D01*
X165500000Y-101000000D02*
X165500000Y-100000000D01*
X165500000Y-103500000D02*
X165500000Y-101000000D01*
X165500000Y-109000000D02*
X165500000Y-107500000D01*
X163500000Y-110501780D02*
X163500000Y-110500000D01*
D40*
X160998220Y-110500000D02*
X163498220Y-110500000D01*
X163498220Y-110500000D02*
X163500000Y-110501780D01*
D41*
X167801000Y-97555000D02*
X164945000Y-97555000D01*
X154001780Y-108501780D02*
X154001780Y-110500000D01*
X154000000Y-108500000D02*
X154001780Y-108501780D01*
X164945000Y-97555000D02*
X160500000Y-102000000D01*
D40*
X151500000Y-110501780D02*
X154000000Y-110501780D01*
X154000000Y-110501780D02*
X154001780Y-110500000D01*
D41*
X80202060Y-112550040D02*
X80202060Y-109717940D01*
X80202060Y-109717940D02*
X80500000Y-109420000D01*
X82797940Y-112550040D02*
X82797940Y-109717940D01*
X82797940Y-109717940D02*
X82500000Y-109420000D01*
X80202060Y-114449960D02*
X80202060Y-117622060D01*
X80202060Y-117622060D02*
X80500000Y-117920000D01*
X82797940Y-114449960D02*
X82797940Y-117622060D01*
X82797940Y-117622060D02*
X82500000Y-117920000D01*
X207202060Y-92550040D02*
X207202060Y-89717940D01*
X207202060Y-89717940D02*
X207500000Y-89420000D01*
X209797940Y-92550040D02*
X209797940Y-89717940D01*
X209797940Y-89717940D02*
X209500000Y-89420000D01*
X207202060Y-94449960D02*
X207202060Y-97622060D01*
X207202060Y-97622060D02*
X207500000Y-97920000D01*
X209797940Y-94449960D02*
X209797940Y-97622060D01*
X209797940Y-97622060D02*
X209500000Y-97920000D01*
X207202060Y-112550040D02*
X207202060Y-109717940D01*
X207202060Y-109717940D02*
X207500000Y-109420000D01*
X209797940Y-112550040D02*
X209797940Y-109717940D01*
X209797940Y-109717940D02*
X209500000Y-109420000D01*
X207202060Y-114449960D02*
X207202060Y-117622060D01*
X207202060Y-117622060D02*
X207500000Y-117920000D01*
X209797940Y-114449960D02*
X209797940Y-117622060D01*
X209797940Y-117622060D02*
X209500000Y-117920000D01*
D40*
X74001780Y-67100000D02*
X72500000Y-67100000D01*
X74001780Y-54900000D02*
X72500000Y-54900000D01*
X179832000Y-122936000D02*
X173228000Y-116332000D01*
X180594000Y-122936000D02*
X179832000Y-122936000D01*
X173228000Y-116332000D02*
X173228000Y-116078000D01*
D41*
X82201780Y-126200000D02*
X81000000Y-126200000D01*
D39*
X86889260Y-129602160D02*
X86202160Y-129602160D01*
X85800000Y-126200000D02*
X85300000Y-126200000D01*
X86000000Y-126400000D02*
X85800000Y-126200000D01*
X86000000Y-129400000D02*
X86000000Y-126400000D01*
X86202160Y-129602160D02*
X86000000Y-129400000D01*
D41*
X82201780Y-129400000D02*
X81100000Y-129400000D01*
D39*
X86889260Y-130100000D02*
X86000000Y-130100000D01*
X86000000Y-130100000D02*
X85300000Y-129400000D01*
D41*
X169595000Y-100095000D02*
X167801000Y-100095000D01*
X172000000Y-102500000D02*
X169595000Y-100095000D01*
X172000000Y-112000000D02*
X172000000Y-102500000D01*
X166000000Y-118000000D02*
X172000000Y-112000000D01*
X128000000Y-118000000D02*
X166000000Y-118000000D01*
X124500000Y-114500000D02*
X128000000Y-118000000D01*
X124500000Y-105500000D02*
X124500000Y-114500000D01*
X125500000Y-104500000D02*
X124500000Y-105500000D01*
X128500000Y-104500000D02*
X125500000Y-104500000D01*
D40*
X132500000Y-101001780D02*
X132500000Y-100500000D01*
X132500000Y-100500000D02*
X133000000Y-100000000D01*
X133000000Y-100000000D02*
X135000000Y-100000000D01*
X130998220Y-110500000D02*
X130998220Y-113001780D01*
X130998220Y-113001780D02*
X130000000Y-114000000D01*
X130998220Y-110500000D02*
X130998220Y-108998220D01*
X130500000Y-108500000D02*
X130500000Y-107498220D01*
X130998220Y-108998220D02*
X130500000Y-108500000D01*
X134001780Y-110500000D02*
X134001780Y-113001780D01*
X134001780Y-113001780D02*
X135000000Y-114000000D01*
X134001780Y-110500000D02*
X134001780Y-109001780D01*
X134500000Y-108503560D02*
X134500000Y-107498220D01*
X134001780Y-109001780D02*
X134500000Y-108503560D01*
D41*
X167801000Y-96285000D02*
X163715000Y-96285000D01*
X163715000Y-96285000D02*
X160000000Y-100000000D01*
D40*
X157500000Y-101001780D02*
X157500000Y-100500000D01*
X157500000Y-100500000D02*
X158000000Y-100000000D01*
X158000000Y-100000000D02*
X160000000Y-100000000D01*
X155998220Y-110500000D02*
X155998220Y-113001780D01*
X155998220Y-113001780D02*
X155000000Y-114000000D01*
X155998220Y-110500000D02*
X155998220Y-109001780D01*
X155500000Y-108503560D02*
X155500000Y-107498220D01*
X155998220Y-109001780D02*
X155500000Y-108503560D01*
X159001780Y-110500000D02*
X159001780Y-113001780D01*
X159001780Y-113001780D02*
X160000000Y-114000000D01*
X159001780Y-110500000D02*
X159001780Y-108998220D01*
X159750000Y-108250000D02*
X159750000Y-107498220D01*
X159001780Y-108998220D02*
X159750000Y-108250000D01*
D42*
X92500000Y-95250000D02*
X79750000Y-95250000D01*
X75032500Y-132500000D02*
X79692500Y-137160000D01*
X79692500Y-137160000D02*
X79692500Y-142430500D01*
X79692500Y-142430500D02*
X80962500Y-143700500D01*
X80962500Y-143700500D02*
X130799500Y-143700500D01*
X130799500Y-143700500D02*
X131500000Y-143000000D01*
X135500000Y-139000000D02*
X135500000Y-126500000D01*
X137500000Y-124500000D02*
X140950220Y-124500000D01*
X135500000Y-126500000D02*
X137500000Y-124500000D01*
X131500000Y-143000000D02*
X135500000Y-139000000D01*
X75000000Y-132500000D02*
X75032500Y-132500000D01*
X71500000Y-129000000D02*
X75000000Y-132500000D01*
X71500000Y-103500000D02*
X71500000Y-129000000D01*
X79750000Y-95250000D02*
X71500000Y-103500000D01*
X112268000Y-108204000D02*
X112268000Y-98768000D01*
X108750000Y-95250000D02*
X92500000Y-95250000D01*
X112268000Y-98768000D02*
X108750000Y-95250000D01*
X145049780Y-124500000D02*
X145049780Y-128950220D01*
X145049780Y-128950220D02*
X145000000Y-129000000D01*
X145000000Y-129000000D02*
X145000000Y-135000000D01*
X144049780Y-128049780D02*
X145000000Y-129000000D01*
X126049780Y-124500000D02*
X126049780Y-128900220D01*
X126049780Y-128900220D02*
X125950000Y-129000000D01*
X125950000Y-129000000D02*
X125950000Y-135000000D01*
X124999780Y-128049780D02*
X125950000Y-129000000D01*
X102950220Y-124500000D02*
X102950220Y-105450220D01*
X99750000Y-102250000D02*
X92500000Y-102250000D01*
X102950220Y-105450220D02*
X99750000Y-102250000D01*
X107049780Y-124500000D02*
X107049780Y-128850220D01*
X107049780Y-128850220D02*
X106900000Y-129000000D01*
X106900000Y-129000000D02*
X106900000Y-135000000D01*
X105949780Y-128049780D02*
X106900000Y-129000000D01*
X109728000Y-108204000D02*
X109728000Y-105708000D01*
D41*
X176840000Y-67690000D02*
X176658000Y-67690000D01*
X176658000Y-67690000D02*
X175133000Y-69215000D01*
X175133000Y-69215000D02*
X175133000Y-91313000D01*
X175133000Y-91313000D02*
X176149000Y-92329000D01*
X176149000Y-92329000D02*
X180959000Y-92329000D01*
X180959000Y-92329000D02*
X187530000Y-98900000D01*
D42*
X194056000Y-133107000D02*
X207655000Y-133107000D01*
X207655000Y-133107000D02*
X208581500Y-132180500D01*
X187706000Y-128143000D02*
X192659000Y-133096000D01*
X177056000Y-128143000D02*
X187706000Y-128143000D01*
X192659000Y-133096000D02*
X194045000Y-133096000D01*
X194045000Y-133096000D02*
X194056000Y-133107000D01*
X183100000Y-129000000D02*
X183100000Y-135000000D01*
X177056000Y-128143000D02*
X182243000Y-128143000D01*
X182243000Y-128143000D02*
X183100000Y-129000000D01*
X184100000Y-128000000D02*
X183100000Y-129000000D01*
D40*
X92500000Y-81250000D02*
X88050000Y-81250000D01*
X75998220Y-69198220D02*
X75998220Y-67100000D01*
X88050000Y-81250000D02*
X75998220Y-69198220D01*
X92500000Y-84750000D02*
X93850000Y-84750000D01*
X75998220Y-60498220D02*
X75998220Y-54900000D01*
X95600000Y-80100000D02*
X75998220Y-60498220D01*
X95600000Y-83000000D02*
X95600000Y-80100000D01*
X93850000Y-84750000D02*
X95600000Y-83000000D01*
D41*
X176840000Y-90550000D02*
X176840000Y-90460000D01*
X176840000Y-90460000D02*
X194200000Y-73100000D01*
X204924000Y-51724000D02*
X204924000Y-65990000D01*
X203500000Y-50300000D02*
X204924000Y-51724000D01*
X195500000Y-50300000D02*
X203500000Y-50300000D01*
X194200000Y-51600000D02*
X195500000Y-50300000D01*
X194200000Y-73100000D02*
X194200000Y-51600000D01*
D39*
X177199000Y-108985000D02*
X174009000Y-108985000D01*
X92662000Y-124000000D02*
X91110740Y-124000000D01*
X92964000Y-123698000D02*
X92662000Y-124000000D01*
X174009000Y-108985000D02*
X173990000Y-108966000D01*
D41*
X177199000Y-108985000D02*
X178416000Y-108985000D01*
X178416000Y-108985000D02*
X179705000Y-107696000D01*
X176840000Y-90550000D02*
X176840000Y-90241000D01*
X176840000Y-88010000D02*
X176890000Y-88010000D01*
X176890000Y-88010000D02*
X191900000Y-73000000D01*
X207464000Y-50364000D02*
X207464000Y-65990000D01*
X205000000Y-47900000D02*
X207464000Y-50364000D01*
X194700000Y-47900000D02*
X205000000Y-47900000D01*
X191900000Y-50700000D02*
X194700000Y-47900000D01*
X191900000Y-73000000D02*
X191900000Y-50700000D01*
D39*
X93001840Y-124497840D02*
X91110740Y-124497840D01*
X93027500Y-124523500D02*
X93001840Y-124497840D01*
D41*
X176840000Y-88010000D02*
X177039000Y-88010000D01*
X177199000Y-107715000D02*
X175025000Y-107715000D01*
X175025000Y-107715000D02*
X175006000Y-107696000D01*
X176840000Y-88010000D02*
X176840000Y-87955000D01*
X212544000Y-65990000D02*
X212544000Y-68756000D01*
X199990000Y-88010000D02*
X197160000Y-88010000D01*
X202900000Y-85100000D02*
X199990000Y-88010000D01*
X202900000Y-78400000D02*
X202900000Y-85100000D01*
X212544000Y-68756000D02*
X202900000Y-78400000D01*
X197160000Y-88010000D02*
X197232000Y-88010000D01*
X210004000Y-65990000D02*
X210004000Y-67996000D01*
X198730000Y-85470000D02*
X197160000Y-85470000D01*
X200000000Y-84200000D02*
X198730000Y-85470000D01*
X200000000Y-78000000D02*
X200000000Y-84200000D01*
X210004000Y-67996000D02*
X200000000Y-78000000D01*
X197160000Y-85470000D02*
X197160000Y-85415000D01*
X136110000Y-52040000D02*
X136114000Y-52040000D01*
X136114000Y-52040000D02*
X137668000Y-53594000D01*
X178435000Y-68635000D02*
X176840000Y-70230000D01*
X178435000Y-57912000D02*
X178435000Y-68635000D01*
X174117000Y-53594000D02*
X178435000Y-57912000D01*
X137668000Y-53594000D02*
X174117000Y-53594000D01*
X136110000Y-52040000D02*
X136110000Y-52110000D01*
X159500000Y-46000000D02*
X173000000Y-46000000D01*
X182500000Y-79810000D02*
X176840000Y-85470000D01*
X182500000Y-55500000D02*
X182500000Y-79810000D01*
X173000000Y-46000000D02*
X182500000Y-55500000D01*
X148810000Y-52040000D02*
X148540000Y-52040000D01*
X148540000Y-52040000D02*
X147500000Y-51000000D01*
X150500000Y-46000000D02*
X159500000Y-46000000D01*
X159500000Y-46000000D02*
X160000000Y-46000000D01*
X147500000Y-49000000D02*
X150500000Y-46000000D01*
X147500000Y-51000000D02*
X147500000Y-49000000D01*
X148810000Y-52040000D02*
X148790000Y-52040000D01*
X160000000Y-50750000D02*
X173051000Y-50750000D01*
X179451000Y-70159000D02*
X176840000Y-72770000D01*
X179451000Y-57150000D02*
X179451000Y-70159000D01*
X173051000Y-50750000D02*
X179451000Y-57150000D01*
X151350000Y-52040000D02*
X151350000Y-51900000D01*
X151350000Y-51900000D02*
X152500000Y-50750000D01*
X152500000Y-50750000D02*
X160000000Y-50750000D01*
X160000000Y-50750000D02*
X160250000Y-50750000D01*
X160000000Y-47000000D02*
X172500000Y-47000000D01*
X151000000Y-47000000D02*
X160000000Y-47000000D01*
X148810000Y-49190000D02*
X151000000Y-47000000D01*
X181500000Y-78270000D02*
X176840000Y-82930000D01*
X181500000Y-56000000D02*
X181500000Y-78270000D01*
X172500000Y-47000000D02*
X181500000Y-56000000D01*
X148810000Y-49500000D02*
X148810000Y-49190000D01*
X148810000Y-49500000D02*
X148810000Y-49440000D01*
X160000000Y-48000000D02*
X172000000Y-48000000D01*
X155000000Y-48000000D02*
X160000000Y-48000000D01*
X153890000Y-49110000D02*
X155000000Y-48000000D01*
X180500000Y-71650000D02*
X176840000Y-75310000D01*
X180500000Y-56500000D02*
X180500000Y-71650000D01*
X172000000Y-48000000D02*
X180500000Y-56500000D01*
X153890000Y-49500000D02*
X153890000Y-49110000D01*
D39*
X86889260Y-124000000D02*
X84598220Y-124000000D01*
X84598220Y-124000000D02*
X84198220Y-123600000D01*
X91110740Y-130100000D02*
X93200000Y-130100000D01*
X93750000Y-130650000D02*
X93750000Y-132051780D01*
X93200000Y-130100000D02*
X93750000Y-130650000D01*
D41*
X177199000Y-93745000D02*
X175152000Y-93745000D01*
X173260600Y-91853600D02*
X173260600Y-84751200D01*
X175152000Y-93745000D02*
X173260600Y-91853600D01*
D42*
X173260600Y-78248800D02*
X173260600Y-82500000D01*
D40*
X171000000Y-82498220D02*
X173260600Y-82498220D01*
D42*
X173260600Y-82500000D02*
X173260600Y-84751200D01*
D40*
X173260600Y-82498220D02*
X173262380Y-82500000D01*
X173262380Y-82500000D02*
X173500000Y-82500000D01*
X173500000Y-82500000D02*
X173260600Y-82500000D01*
D41*
X177199000Y-95015000D02*
X174898000Y-95015000D01*
X173260600Y-67658400D02*
X173260600Y-62751200D01*
X166497000Y-74422000D02*
X173260600Y-67658400D01*
X166497000Y-86614000D02*
X166497000Y-74422000D01*
X174898000Y-95015000D02*
X166497000Y-86614000D01*
D40*
X171000000Y-60498220D02*
X173260600Y-60498220D01*
X173000000Y-60500000D02*
X173260600Y-60500000D01*
X173258820Y-60500000D02*
X173000000Y-60500000D01*
X173260600Y-60498220D02*
X173258820Y-60500000D01*
D42*
X173260600Y-56248800D02*
X173260600Y-60500000D01*
X173260600Y-60500000D02*
X173260600Y-62751200D01*
D41*
X121260600Y-62751200D02*
X121751200Y-62751200D01*
X121751200Y-62751200D02*
X123500000Y-64500000D01*
X174785000Y-96285000D02*
X177199000Y-96285000D01*
X169000000Y-90500000D02*
X174785000Y-96285000D01*
X124000000Y-90500000D02*
X169000000Y-90500000D01*
X123500000Y-90000000D02*
X124000000Y-90500000D01*
X123500000Y-64500000D02*
X123500000Y-90000000D01*
D40*
X119000000Y-60498220D02*
X121260600Y-60498220D01*
X121000000Y-60500000D02*
X121260600Y-60500000D01*
X121258820Y-60500000D02*
X121000000Y-60500000D01*
X121260600Y-60498220D02*
X121258820Y-60500000D01*
D42*
X121260600Y-56248800D02*
X121260600Y-60500000D01*
X121260600Y-60500000D02*
X121260600Y-62751200D01*
D41*
X121260600Y-84751200D02*
X121260600Y-89760600D01*
X174055000Y-97555000D02*
X177199000Y-97555000D01*
X168500000Y-92000000D02*
X174055000Y-97555000D01*
X123500000Y-92000000D02*
X168500000Y-92000000D01*
X121260600Y-89760600D02*
X123500000Y-92000000D01*
D40*
X119000000Y-82498220D02*
X121260600Y-82498220D01*
X121500000Y-82500000D02*
X121260600Y-82500000D01*
X121262380Y-82500000D02*
X121500000Y-82500000D01*
X121260600Y-82498220D02*
X121262380Y-82500000D01*
D42*
X121260600Y-78248800D02*
X121260600Y-82500000D01*
X121260600Y-82500000D02*
X121260600Y-84751200D01*
D39*
X86889260Y-124497840D02*
X87865762Y-124497840D01*
X93998220Y-129101780D02*
X91110740Y-129101780D01*
X95100000Y-128000000D02*
X93998220Y-129101780D01*
X95100000Y-123600000D02*
X95100000Y-128000000D01*
X93500000Y-122000000D02*
X95100000Y-123600000D01*
X89600000Y-122000000D02*
X93500000Y-122000000D01*
X89000000Y-122600000D02*
X89600000Y-122000000D01*
X89000000Y-123363602D02*
X89000000Y-122600000D01*
X87865762Y-124497840D02*
X89000000Y-123363602D01*
D40*
X196342000Y-100566220D02*
X194293780Y-100566220D01*
X194293780Y-100566220D02*
X190960000Y-103900000D01*
X190960000Y-117269000D02*
X190960000Y-103900000D01*
X185293000Y-122936000D02*
X190960000Y-117269000D01*
X186440000Y-103900000D02*
X190960000Y-103900000D01*
X181200000Y-100798220D02*
X183338220Y-100798220D01*
X183338220Y-100798220D02*
X186440000Y-103900000D01*
X186460000Y-103880000D02*
X186440000Y-103900000D01*
D42*
X208581500Y-128680500D02*
X194262500Y-128680500D01*
X194262500Y-128680500D02*
X194056000Y-128887000D01*
D41*
X177199000Y-98825000D02*
X181176780Y-98825000D01*
X181176780Y-98825000D02*
X181200000Y-98801780D01*
X180576780Y-98825000D02*
X180601780Y-98800000D01*
M02*
