M48
INCH,TZ
T1C0.016
T2C0.030
T3C0.031
T4C0.031
T5C0.035
T6C0.036
T7C0.040
T8C0.043
T9C0.083
T10C0.091
T11C0.118
T12C0.250
T13C0.717
%
G90
G05
T1
X31890Y-19685
X31950Y-54850
X31950Y-55750
X32600Y-50850
X33750Y-54850
X33750Y-55750
X34625Y-48625
X35400Y-48375
X36417Y-19685
X36600Y-48350
X36600Y-48700
X36625Y-49025
X38100Y-50800
X43700Y-44750
X45675Y-46825
X46550Y-46850
X50350Y-44050
X50591Y-41142
X60630Y-42717
X63189Y-40157
X65157Y-40748
X65157Y-42323
X65354Y-43898
X67350Y-22350
X67350Y-31000
X67400Y-38450
X68500Y-42900
X68900Y-42400
X70350Y-41400
X70750Y-42400
X71100Y-48400
X72950Y-48400
T2
X51181Y-39370
X51181Y-44882
X52165Y-44882
X53150Y-39370
X53150Y-44882
X61024Y-39370
X61024Y-44882
X62008Y-44882
X62992Y-39370
X62992Y-44882
X69622Y-24650
X69622Y-25650
X69622Y-26650
X69622Y-27650
X69622Y-28650
X69622Y-29650
X69622Y-30650
X69622Y-31650
X69622Y-32650
X69622Y-33650
X69622Y-34650
X69622Y-35650
X77622Y-20650
X77622Y-21650
X77622Y-22650
X77622Y-23650
X77622Y-24650
X77622Y-25650
X77622Y-26650
X77622Y-27650
X77622Y-28650
X77622Y-29650
X77622Y-30650
X77622Y-31650
X77622Y-32650
X77622Y-33650
X77622Y-34650
X77622Y-35650
T3
X34646Y-53150
X35432Y-53150
T4
X52587Y-19488
X52587Y-20488
X53587Y-19488
X53587Y-20488
X54587Y-19488
X54587Y-20488
X55587Y-19488
X55587Y-20488
X56587Y-19488
X56587Y-20488
X57587Y-19488
X57587Y-20488
X58587Y-19488
X58587Y-20488
X59587Y-19488
X59587Y-20488
X60587Y-19488
X60587Y-20488
X61587Y-19488
X61587Y-20488
T5
X42717Y-18898
X42717Y-41732
T6
X80709Y-27331
X80709Y-30677
X80709Y-35205
X80709Y-38551
X80709Y-43079
X80709Y-46425
X81693Y-27331
X81693Y-30677
X81693Y-35205
X81693Y-38551
X81693Y-43079
X81693Y-46425
X82480Y-27331
X82480Y-30677
X82480Y-35205
X82480Y-38551
X82480Y-43079
X82480Y-46425
X83465Y-27331
X83465Y-30677
X83465Y-35205
X83465Y-38551
X83465Y-43079
X83465Y-46425
T7
X41717Y-42717
X42717Y-42717
X43717Y-42717
X45960Y-22145
X45960Y-24705
X45960Y-30807
X45960Y-33367
X47740Y-22145
X47740Y-24705
X47740Y-30807
X47740Y-33367
X66433Y-22145
X66433Y-24705
X66433Y-30807
X66433Y-33367
X68200Y-44700
X68200Y-45700
X68213Y-22145
X68213Y-24705
X68213Y-30807
X68213Y-33367
X73831Y-38937
X74831Y-38937
X80600Y-23500
X81600Y-23500
X82600Y-23500
X83600Y-23500
T8
X36417Y-32579
X36417Y-33957
X36417Y-35335
X36417Y-36713
X36417Y-38091
X36417Y-39469
X36417Y-40846
X36417Y-42224
X82119Y-49284
X82119Y-50662
X82119Y-52040
T10
X79500Y-28189
X79500Y-30866
X79500Y-36063
X79500Y-38740
X79500Y-43937
X79500Y-46614
X84673Y-28189
X84673Y-30866
X84673Y-36063
X84673Y-38740
X84673Y-43937
X84673Y-46614
T11
X29528Y-19685
X29528Y-55118
X84646Y-19685
X84646Y-55118
T12
X72047Y-45276
T13
X32913Y-26220
T9
X49961Y-42008G85X49961Y-42244
G05
X54370Y-42008G85X54370Y-42244
G05
X59803Y-42008G85X59803Y-42244
G05
X64213Y-42008G85X64213Y-42244
G05
T0
M30
