G04 #@! TF.FileFunction,Legend,Bot*
%FSLAX46Y46*%
G04 Gerber Fmt 4.6, Leading zero omitted, Abs format (unit mm)*
G04 Created by KiCad (PCBNEW (2015-06-26 BZR 5832)-product) date Samstag, 23. Juli 2016 'u05' 19:05:18*
%MOMM*%
G01*
G04 APERTURE LIST*
%ADD10C,0.150000*%
%ADD11C,0.200000*%
%ADD12C,0.300000*%
%ADD13C,0.193040*%
%ADD14C,0.066040*%
%ADD15C,0.152400*%
%ADD16C,0.050800*%
%ADD17C,0.127000*%
%ADD18C,0.063500*%
%ADD19C,0.203200*%
%ADD20C,0.381000*%
%ADD21C,0.088900*%
%ADD22C,0.119380*%
G04 APERTURE END LIST*
D10*
D11*
X213614000Y-58420000D02*
X208534000Y-58420000D01*
X213614000Y-60960000D02*
X213614000Y-58420000D01*
X208534000Y-60960000D02*
X213614000Y-60960000D01*
X208534000Y-60960000D02*
X208534000Y-58420000D01*
X203454000Y-60960000D02*
X208534000Y-60960000D01*
X203454000Y-60833000D02*
X203454000Y-60960000D01*
X203454000Y-58420000D02*
X203454000Y-60833000D01*
X208534000Y-58420000D02*
X203454000Y-58420000D01*
D12*
X113428571Y-106178571D02*
X114285714Y-106178571D01*
X113857142Y-106178571D02*
X113857142Y-104678571D01*
X113999999Y-104892857D01*
X114142857Y-105035714D01*
X114285714Y-105107143D01*
X112857143Y-104821429D02*
X112785714Y-104750000D01*
X112642857Y-104678571D01*
X112285714Y-104678571D01*
X112142857Y-104750000D01*
X112071428Y-104821429D01*
X112000000Y-104964286D01*
X112000000Y-105107143D01*
X112071428Y-105321429D01*
X112928571Y-106178571D01*
X112000000Y-106178571D01*
X111571429Y-104678571D02*
X111071429Y-106178571D01*
X110571429Y-104678571D01*
X105285713Y-104678571D02*
X105999999Y-104678571D01*
X106071428Y-105392857D01*
X105999999Y-105321429D01*
X105857142Y-105250000D01*
X105499999Y-105250000D01*
X105357142Y-105321429D01*
X105285713Y-105392857D01*
X105214285Y-105535714D01*
X105214285Y-105892857D01*
X105285713Y-106035714D01*
X105357142Y-106107143D01*
X105499999Y-106178571D01*
X105857142Y-106178571D01*
X105999999Y-106107143D01*
X106071428Y-106035714D01*
X104785714Y-104678571D02*
X104285714Y-106178571D01*
X103785714Y-104678571D01*
D11*
X206081500Y-132180500D02*
X205081500Y-132180500D01*
X206081500Y-128680500D02*
X205081500Y-128680500D01*
X206081500Y-131180500D02*
X207081500Y-130180500D01*
X206081500Y-132180500D02*
X206081500Y-131180500D01*
X207081500Y-132180500D02*
X206081500Y-132180500D01*
X206081500Y-128680500D02*
X206081500Y-129680500D01*
X207081500Y-128680500D02*
X206081500Y-128680500D01*
D12*
X203224357Y-124430500D02*
X203367214Y-124359071D01*
X203581500Y-124359071D01*
X203795785Y-124430500D01*
X203938643Y-124573357D01*
X204010071Y-124716214D01*
X204081500Y-125001929D01*
X204081500Y-125216214D01*
X204010071Y-125501929D01*
X203938643Y-125644786D01*
X203795785Y-125787643D01*
X203581500Y-125859071D01*
X203438643Y-125859071D01*
X203224357Y-125787643D01*
X203152928Y-125716214D01*
X203152928Y-125216214D01*
X203438643Y-125216214D01*
X202510071Y-125859071D02*
X202510071Y-124359071D01*
X201652928Y-125859071D01*
X201652928Y-124359071D01*
X200938642Y-125859071D02*
X200938642Y-124359071D01*
X200581499Y-124359071D01*
X200367214Y-124430500D01*
X200224356Y-124573357D01*
X200152928Y-124716214D01*
X200081499Y-125001929D01*
X200081499Y-125216214D01*
X200152928Y-125501929D01*
X200224356Y-125644786D01*
X200367214Y-125787643D01*
X200581499Y-125859071D01*
X200938642Y-125859071D01*
X204010071Y-128573357D02*
X203510071Y-128573357D01*
X203295785Y-129359071D02*
X204010071Y-129359071D01*
X204010071Y-127859071D01*
X203295785Y-127859071D01*
X202795785Y-129359071D02*
X202010071Y-128359071D01*
X202795785Y-128359071D02*
X202010071Y-129359071D01*
X201652928Y-128359071D02*
X201081499Y-128359071D01*
X201438642Y-127859071D02*
X201438642Y-129144786D01*
X201367214Y-129287643D01*
X201224356Y-129359071D01*
X201081499Y-129359071D01*
X200581499Y-129216214D02*
X200510071Y-129287643D01*
X200581499Y-129359071D01*
X200652928Y-129287643D01*
X200581499Y-129216214D01*
X200581499Y-129359071D01*
X198938642Y-127859071D02*
X198438642Y-129359071D01*
X197938642Y-127859071D01*
X203760071Y-132430500D02*
X203045785Y-132430500D01*
X203902928Y-132859071D02*
X203402928Y-131359071D01*
X202902928Y-132859071D01*
X202402928Y-132859071D02*
X202402928Y-131359071D01*
X202045785Y-131359071D01*
X201831500Y-131430500D01*
X201688642Y-131573357D01*
X201617214Y-131716214D01*
X201545785Y-132001929D01*
X201545785Y-132216214D01*
X201617214Y-132501929D01*
X201688642Y-132644786D01*
X201831500Y-132787643D01*
X202045785Y-132859071D01*
X202402928Y-132859071D01*
X200474357Y-131359071D02*
X200474357Y-132430500D01*
X200545785Y-132644786D01*
X200688642Y-132787643D01*
X200902928Y-132859071D01*
X201045785Y-132859071D01*
D10*
X210256381Y-61880762D02*
X209780190Y-61547428D01*
X210256381Y-61309333D02*
X209256381Y-61309333D01*
X209256381Y-61690286D01*
X209304000Y-61785524D01*
X209351619Y-61833143D01*
X209446857Y-61880762D01*
X209589714Y-61880762D01*
X209684952Y-61833143D01*
X209732571Y-61785524D01*
X209780190Y-61690286D01*
X209780190Y-61309333D01*
X210256381Y-62214095D02*
X209589714Y-62737905D01*
X209589714Y-62214095D02*
X210256381Y-62737905D01*
X211796381Y-61285524D02*
X211796381Y-61856953D01*
X212796381Y-61571238D02*
X211796381Y-61571238D01*
X212796381Y-62095048D02*
X212129714Y-62618858D01*
X212129714Y-62095048D02*
X212796381Y-62618858D01*
X205128762Y-61269714D02*
X205176381Y-61412571D01*
X205176381Y-61650667D01*
X205128762Y-61745905D01*
X205081143Y-61793524D01*
X204985905Y-61841143D01*
X204890667Y-61841143D01*
X204795429Y-61793524D01*
X204747810Y-61745905D01*
X204700190Y-61650667D01*
X204652571Y-61460190D01*
X204604952Y-61364952D01*
X204557333Y-61317333D01*
X204462095Y-61269714D01*
X204366857Y-61269714D01*
X204271619Y-61317333D01*
X204224000Y-61364952D01*
X204176381Y-61460190D01*
X204176381Y-61698286D01*
X204224000Y-61841143D01*
X205176381Y-62269714D02*
X204176381Y-62269714D01*
X204176381Y-62507809D01*
X204224000Y-62650667D01*
X204319238Y-62745905D01*
X204414476Y-62793524D01*
X204604952Y-62841143D01*
X204747810Y-62841143D01*
X204938286Y-62793524D01*
X205033524Y-62745905D01*
X205128762Y-62650667D01*
X205176381Y-62507809D01*
X205176381Y-62269714D01*
X204890667Y-63222095D02*
X204890667Y-63698286D01*
X205176381Y-63126857D02*
X204176381Y-63460190D01*
X205176381Y-63793524D01*
X207668762Y-61293524D02*
X207716381Y-61436381D01*
X207716381Y-61674477D01*
X207668762Y-61769715D01*
X207621143Y-61817334D01*
X207525905Y-61864953D01*
X207430667Y-61864953D01*
X207335429Y-61817334D01*
X207287810Y-61769715D01*
X207240190Y-61674477D01*
X207192571Y-61484000D01*
X207144952Y-61388762D01*
X207097333Y-61341143D01*
X207002095Y-61293524D01*
X206906857Y-61293524D01*
X206811619Y-61341143D01*
X206764000Y-61388762D01*
X206716381Y-61484000D01*
X206716381Y-61722096D01*
X206764000Y-61864953D01*
X207621143Y-62864953D02*
X207668762Y-62817334D01*
X207716381Y-62674477D01*
X207716381Y-62579239D01*
X207668762Y-62436381D01*
X207573524Y-62341143D01*
X207478286Y-62293524D01*
X207287810Y-62245905D01*
X207144952Y-62245905D01*
X206954476Y-62293524D01*
X206859238Y-62341143D01*
X206764000Y-62436381D01*
X206716381Y-62579239D01*
X206716381Y-62674477D01*
X206764000Y-62817334D01*
X206811619Y-62864953D01*
X207716381Y-63769715D02*
X207716381Y-63293524D01*
X206716381Y-63293524D01*
X213105762Y-58062762D02*
X213010524Y-58110381D01*
X212820048Y-58110381D01*
X212724809Y-58062762D01*
X212677190Y-57967524D01*
X212677190Y-57919905D01*
X212724809Y-57824667D01*
X212820048Y-57777048D01*
X212962905Y-57777048D01*
X213058143Y-57729429D01*
X213105762Y-57634190D01*
X213105762Y-57586571D01*
X213058143Y-57491333D01*
X212962905Y-57443714D01*
X212820048Y-57443714D01*
X212724809Y-57491333D01*
X211867666Y-58062762D02*
X211962904Y-58110381D01*
X212153381Y-58110381D01*
X212248619Y-58062762D01*
X212296238Y-57967524D01*
X212296238Y-57586571D01*
X212248619Y-57491333D01*
X212153381Y-57443714D01*
X211962904Y-57443714D01*
X211867666Y-57491333D01*
X211820047Y-57586571D01*
X211820047Y-57681810D01*
X212296238Y-57777048D01*
X211391476Y-58110381D02*
X211391476Y-57443714D01*
X211391476Y-57634190D02*
X211343857Y-57538952D01*
X211296238Y-57491333D01*
X211201000Y-57443714D01*
X211105761Y-57443714D01*
X210772428Y-58110381D02*
X210772428Y-57443714D01*
X210772428Y-57110381D02*
X210820047Y-57158000D01*
X210772428Y-57205619D01*
X210724809Y-57158000D01*
X210772428Y-57110381D01*
X210772428Y-57205619D01*
X209867666Y-58110381D02*
X209867666Y-57586571D01*
X209915285Y-57491333D01*
X210010523Y-57443714D01*
X210201000Y-57443714D01*
X210296238Y-57491333D01*
X209867666Y-58062762D02*
X209962904Y-58110381D01*
X210201000Y-58110381D01*
X210296238Y-58062762D01*
X210343857Y-57967524D01*
X210343857Y-57872286D01*
X210296238Y-57777048D01*
X210201000Y-57729429D01*
X209962904Y-57729429D01*
X209867666Y-57681810D01*
X209248619Y-58110381D02*
X209343857Y-58062762D01*
X209391476Y-57967524D01*
X209391476Y-57110381D01*
X206898762Y-58110381D02*
X206898762Y-57443714D01*
X206898762Y-57110381D02*
X206946381Y-57158000D01*
X206898762Y-57205619D01*
X206851143Y-57158000D01*
X206898762Y-57110381D01*
X206898762Y-57205619D01*
X206470191Y-57205619D02*
X206422572Y-57158000D01*
X206327334Y-57110381D01*
X206089238Y-57110381D01*
X205994000Y-57158000D01*
X205946381Y-57205619D01*
X205898762Y-57300857D01*
X205898762Y-57396095D01*
X205946381Y-57538952D01*
X206517810Y-58110381D01*
X205898762Y-58110381D01*
X205041619Y-58062762D02*
X205136857Y-58110381D01*
X205327334Y-58110381D01*
X205422572Y-58062762D01*
X205470191Y-58015143D01*
X205517810Y-57919905D01*
X205517810Y-57634190D01*
X205470191Y-57538952D01*
X205422572Y-57491333D01*
X205327334Y-57443714D01*
X205136857Y-57443714D01*
X205041619Y-57491333D01*
D12*
X100142857Y-106750000D02*
X100285714Y-106678571D01*
X100500000Y-106678571D01*
X100714285Y-106750000D01*
X100857143Y-106892857D01*
X100928571Y-107035714D01*
X101000000Y-107321429D01*
X101000000Y-107535714D01*
X100928571Y-107821429D01*
X100857143Y-107964286D01*
X100714285Y-108107143D01*
X100500000Y-108178571D01*
X100357143Y-108178571D01*
X100142857Y-108107143D01*
X100071428Y-108035714D01*
X100071428Y-107535714D01*
X100357143Y-107535714D01*
X99428571Y-108178571D02*
X99428571Y-106678571D01*
X98571428Y-108178571D01*
X98571428Y-106678571D01*
X97857142Y-108178571D02*
X97857142Y-106678571D01*
X97499999Y-106678571D01*
X97285714Y-106750000D01*
X97142856Y-106892857D01*
X97071428Y-107035714D01*
X96999999Y-107321429D01*
X96999999Y-107535714D01*
X97071428Y-107821429D01*
X97142856Y-107964286D01*
X97285714Y-108107143D01*
X97499999Y-108178571D01*
X97857142Y-108178571D01*
X101414285Y-103178571D02*
X100485714Y-103178571D01*
X100985714Y-103750000D01*
X100771428Y-103750000D01*
X100628571Y-103821429D01*
X100557142Y-103892857D01*
X100485714Y-104035714D01*
X100485714Y-104392857D01*
X100557142Y-104535714D01*
X100628571Y-104607143D01*
X100771428Y-104678571D01*
X101200000Y-104678571D01*
X101342857Y-104607143D01*
X101414285Y-104535714D01*
X99842857Y-104535714D02*
X99771429Y-104607143D01*
X99842857Y-104678571D01*
X99914286Y-104607143D01*
X99842857Y-104535714D01*
X99842857Y-104678571D01*
X99271428Y-103178571D02*
X98342857Y-103178571D01*
X98842857Y-103750000D01*
X98628571Y-103750000D01*
X98485714Y-103821429D01*
X98414285Y-103892857D01*
X98342857Y-104035714D01*
X98342857Y-104392857D01*
X98414285Y-104535714D01*
X98485714Y-104607143D01*
X98628571Y-104678571D01*
X99057143Y-104678571D01*
X99200000Y-104607143D01*
X99271428Y-104535714D01*
X97914286Y-103178571D02*
X97414286Y-104678571D01*
X96914286Y-103178571D01*
X98485713Y-99678571D02*
X99199999Y-99678571D01*
X99271428Y-100392857D01*
X99199999Y-100321429D01*
X99057142Y-100250000D01*
X98699999Y-100250000D01*
X98557142Y-100321429D01*
X98485713Y-100392857D01*
X98414285Y-100535714D01*
X98414285Y-100892857D01*
X98485713Y-101035714D01*
X98557142Y-101107143D01*
X98699999Y-101178571D01*
X99057142Y-101178571D01*
X99199999Y-101107143D01*
X99271428Y-101035714D01*
X97985714Y-99678571D02*
X97485714Y-101178571D01*
X96985714Y-99678571D01*
X99728571Y-97778571D02*
X100585714Y-97778571D01*
X100157142Y-97778571D02*
X100157142Y-96278571D01*
X100299999Y-96492857D01*
X100442857Y-96635714D01*
X100585714Y-96707143D01*
X99157143Y-96421429D02*
X99085714Y-96350000D01*
X98942857Y-96278571D01*
X98585714Y-96278571D01*
X98442857Y-96350000D01*
X98371428Y-96421429D01*
X98300000Y-96564286D01*
X98300000Y-96707143D01*
X98371428Y-96921429D01*
X99228571Y-97778571D01*
X98300000Y-97778571D01*
X97871429Y-96278571D02*
X97371429Y-97778571D01*
X96871429Y-96278571D01*
X100928571Y-93607143D02*
X99785714Y-93607143D01*
X98357142Y-92678571D02*
X99071428Y-92678571D01*
X99142857Y-93392857D01*
X99071428Y-93321429D01*
X98928571Y-93250000D01*
X98571428Y-93250000D01*
X98428571Y-93321429D01*
X98357142Y-93392857D01*
X98285714Y-93535714D01*
X98285714Y-93892857D01*
X98357142Y-94035714D01*
X98428571Y-94107143D01*
X98571428Y-94178571D01*
X98928571Y-94178571D01*
X99071428Y-94107143D01*
X99142857Y-94035714D01*
X97857143Y-92678571D02*
X97357143Y-94178571D01*
X96857143Y-92678571D01*
X102342856Y-90107143D02*
X101199999Y-90107143D01*
X99699999Y-90678571D02*
X100557142Y-90678571D01*
X100128570Y-90678571D02*
X100128570Y-89178571D01*
X100271427Y-89392857D01*
X100414285Y-89535714D01*
X100557142Y-89607143D01*
X99128571Y-89321429D02*
X99057142Y-89250000D01*
X98914285Y-89178571D01*
X98557142Y-89178571D01*
X98414285Y-89250000D01*
X98342856Y-89321429D01*
X98271428Y-89464286D01*
X98271428Y-89607143D01*
X98342856Y-89821429D01*
X99199999Y-90678571D01*
X98271428Y-90678571D01*
X97842857Y-89178571D02*
X97342857Y-90678571D01*
X96842857Y-89178571D01*
X86642857Y-107392857D02*
X86428571Y-107464286D01*
X86357143Y-107535714D01*
X86285714Y-107678571D01*
X86285714Y-107892857D01*
X86357143Y-108035714D01*
X86428571Y-108107143D01*
X86571429Y-108178571D01*
X87142857Y-108178571D01*
X87142857Y-106678571D01*
X86642857Y-106678571D01*
X86500000Y-106750000D01*
X86428571Y-106821429D01*
X86357143Y-106964286D01*
X86357143Y-107107143D01*
X86428571Y-107250000D01*
X86500000Y-107321429D01*
X86642857Y-107392857D01*
X87142857Y-107392857D01*
X84928571Y-108178571D02*
X85642857Y-108178571D01*
X85642857Y-106678571D01*
X84500000Y-107750000D02*
X83785714Y-107750000D01*
X84642857Y-108178571D02*
X84142857Y-106678571D01*
X83642857Y-108178571D01*
X82285714Y-108035714D02*
X82357143Y-108107143D01*
X82571429Y-108178571D01*
X82714286Y-108178571D01*
X82928571Y-108107143D01*
X83071429Y-107964286D01*
X83142857Y-107821429D01*
X83214286Y-107535714D01*
X83214286Y-107321429D01*
X83142857Y-107035714D01*
X83071429Y-106892857D01*
X82928571Y-106750000D01*
X82714286Y-106678571D01*
X82571429Y-106678571D01*
X82357143Y-106750000D01*
X82285714Y-106821429D01*
X81642857Y-108178571D02*
X81642857Y-106678571D01*
X80785714Y-108178571D02*
X81428571Y-107321429D01*
X80785714Y-106678571D02*
X81642857Y-107535714D01*
X87250000Y-103178571D02*
X86964286Y-103178571D01*
X86821428Y-103250000D01*
X86678571Y-103392857D01*
X86607143Y-103678571D01*
X86607143Y-104178571D01*
X86678571Y-104464286D01*
X86821428Y-104607143D01*
X86964286Y-104678571D01*
X87250000Y-104678571D01*
X87392857Y-104607143D01*
X87535714Y-104464286D01*
X87607143Y-104178571D01*
X87607143Y-103678571D01*
X87535714Y-103392857D01*
X87392857Y-103250000D01*
X87250000Y-103178571D01*
X85107142Y-104678571D02*
X85607142Y-103964286D01*
X85964285Y-104678571D02*
X85964285Y-103178571D01*
X85392857Y-103178571D01*
X85249999Y-103250000D01*
X85178571Y-103321429D01*
X85107142Y-103464286D01*
X85107142Y-103678571D01*
X85178571Y-103821429D01*
X85249999Y-103892857D01*
X85392857Y-103964286D01*
X85964285Y-103964286D01*
X84535714Y-104250000D02*
X83821428Y-104250000D01*
X84678571Y-104678571D02*
X84178571Y-103178571D01*
X83678571Y-104678571D01*
X83178571Y-104678571D02*
X83178571Y-103178571D01*
X82321428Y-104678571D01*
X82321428Y-103178571D01*
X80821428Y-103250000D02*
X80964285Y-103178571D01*
X81178571Y-103178571D01*
X81392856Y-103250000D01*
X81535714Y-103392857D01*
X81607142Y-103535714D01*
X81678571Y-103821429D01*
X81678571Y-104035714D01*
X81607142Y-104321429D01*
X81535714Y-104464286D01*
X81392856Y-104607143D01*
X81178571Y-104678571D01*
X81035714Y-104678571D01*
X80821428Y-104607143D01*
X80749999Y-104535714D01*
X80749999Y-104035714D01*
X81035714Y-104035714D01*
X80107142Y-103892857D02*
X79607142Y-103892857D01*
X79392856Y-104678571D02*
X80107142Y-104678571D01*
X80107142Y-103178571D01*
X79392856Y-103178571D01*
X86464285Y-101178571D02*
X86964285Y-100464286D01*
X87321428Y-101178571D02*
X87321428Y-99678571D01*
X86750000Y-99678571D01*
X86607142Y-99750000D01*
X86535714Y-99821429D01*
X86464285Y-99964286D01*
X86464285Y-100178571D01*
X86535714Y-100321429D01*
X86607142Y-100392857D01*
X86750000Y-100464286D01*
X87321428Y-100464286D01*
X85821428Y-100392857D02*
X85321428Y-100392857D01*
X85107142Y-101178571D02*
X85821428Y-101178571D01*
X85821428Y-99678571D01*
X85107142Y-99678571D01*
X84464285Y-101178571D02*
X84464285Y-99678571D01*
X84107142Y-99678571D01*
X83892857Y-99750000D01*
X83749999Y-99892857D01*
X83678571Y-100035714D01*
X83607142Y-100321429D01*
X83607142Y-100535714D01*
X83678571Y-100821429D01*
X83749999Y-100964286D01*
X83892857Y-101107143D01*
X84107142Y-101178571D01*
X84464285Y-101178571D01*
X87035715Y-96964286D02*
X87035715Y-97678571D01*
X87535715Y-96178571D02*
X87035715Y-96964286D01*
X86535715Y-96178571D01*
X86035715Y-96892857D02*
X85535715Y-96892857D01*
X85321429Y-97678571D02*
X86035715Y-97678571D01*
X86035715Y-96178571D01*
X85321429Y-96178571D01*
X83964286Y-97678571D02*
X84678572Y-97678571D01*
X84678572Y-96178571D01*
X82750000Y-97678571D02*
X83464286Y-97678571D01*
X83464286Y-96178571D01*
X81964286Y-96178571D02*
X81678572Y-96178571D01*
X81535714Y-96250000D01*
X81392857Y-96392857D01*
X81321429Y-96678571D01*
X81321429Y-97178571D01*
X81392857Y-97464286D01*
X81535714Y-97607143D01*
X81678572Y-97678571D01*
X81964286Y-97678571D01*
X82107143Y-97607143D01*
X82250000Y-97464286D01*
X82321429Y-97178571D01*
X82321429Y-96678571D01*
X82250000Y-96392857D01*
X82107143Y-96250000D01*
X81964286Y-96178571D01*
X80821428Y-96178571D02*
X80464285Y-97678571D01*
X80178571Y-96607143D01*
X79892857Y-97678571D01*
X79535714Y-96178571D01*
X87535714Y-92678571D02*
X87178571Y-94178571D01*
X86892857Y-93107143D01*
X86607143Y-94178571D01*
X86250000Y-92678571D01*
X85678571Y-94178571D02*
X85678571Y-92678571D01*
X85678571Y-93392857D02*
X84821428Y-93392857D01*
X84821428Y-94178571D02*
X84821428Y-92678571D01*
X84107142Y-94178571D02*
X84107142Y-92678571D01*
X83607142Y-92678571D02*
X82749999Y-92678571D01*
X83178570Y-94178571D02*
X83178570Y-92678571D01*
X82249999Y-93392857D02*
X81749999Y-93392857D01*
X81535713Y-94178571D02*
X82249999Y-94178571D01*
X82249999Y-92678571D01*
X81535713Y-92678571D01*
X86964286Y-89892857D02*
X86750000Y-89964286D01*
X86678572Y-90035714D01*
X86607143Y-90178571D01*
X86607143Y-90392857D01*
X86678572Y-90535714D01*
X86750000Y-90607143D01*
X86892858Y-90678571D01*
X87464286Y-90678571D01*
X87464286Y-89178571D01*
X86964286Y-89178571D01*
X86821429Y-89250000D01*
X86750000Y-89321429D01*
X86678572Y-89464286D01*
X86678572Y-89607143D01*
X86750000Y-89750000D01*
X86821429Y-89821429D01*
X86964286Y-89892857D01*
X87464286Y-89892857D01*
X85250000Y-90678571D02*
X85964286Y-90678571D01*
X85964286Y-89178571D01*
X84750000Y-89178571D02*
X84750000Y-90392857D01*
X84678572Y-90535714D01*
X84607143Y-90607143D01*
X84464286Y-90678571D01*
X84178572Y-90678571D01*
X84035714Y-90607143D01*
X83964286Y-90535714D01*
X83892857Y-90392857D01*
X83892857Y-89178571D01*
X83178571Y-89892857D02*
X82678571Y-89892857D01*
X82464285Y-90678571D02*
X83178571Y-90678571D01*
X83178571Y-89178571D01*
X82464285Y-89178571D01*
X101049999Y-85678571D02*
X101764285Y-85678571D01*
X101835714Y-86392857D01*
X101764285Y-86321429D01*
X101621428Y-86250000D01*
X101264285Y-86250000D01*
X101121428Y-86321429D01*
X101049999Y-86392857D01*
X100978571Y-86535714D01*
X100978571Y-86892857D01*
X101049999Y-87035714D01*
X101121428Y-87107143D01*
X101264285Y-87178571D01*
X101621428Y-87178571D01*
X101764285Y-87107143D01*
X101835714Y-87035714D01*
X100550000Y-85678571D02*
X100050000Y-87178571D01*
X99550000Y-85678571D01*
X99121429Y-87107143D02*
X98907143Y-87178571D01*
X98550000Y-87178571D01*
X98407143Y-87107143D01*
X98335714Y-87035714D01*
X98264286Y-86892857D01*
X98264286Y-86750000D01*
X98335714Y-86607143D01*
X98407143Y-86535714D01*
X98550000Y-86464286D01*
X98835714Y-86392857D01*
X98978572Y-86321429D01*
X99050000Y-86250000D01*
X99121429Y-86107143D01*
X99121429Y-85964286D01*
X99050000Y-85821429D01*
X98978572Y-85750000D01*
X98835714Y-85678571D01*
X98478572Y-85678571D01*
X98264286Y-85750000D01*
X97121429Y-86392857D02*
X96907143Y-86464286D01*
X96835715Y-86535714D01*
X96764286Y-86678571D01*
X96764286Y-86892857D01*
X96835715Y-87035714D01*
X96907143Y-87107143D01*
X97050001Y-87178571D01*
X97621429Y-87178571D01*
X97621429Y-85678571D01*
X97121429Y-85678571D01*
X96978572Y-85750000D01*
X96907143Y-85821429D01*
X96835715Y-85964286D01*
X96835715Y-86107143D01*
X96907143Y-86250000D01*
X96978572Y-86321429D01*
X97121429Y-86392857D01*
X97621429Y-86392857D01*
X99142857Y-83178571D02*
X99142857Y-81678571D01*
X98571429Y-81678571D01*
X98428571Y-81750000D01*
X98357143Y-81821429D01*
X98285714Y-81964286D01*
X98285714Y-82178571D01*
X98357143Y-82321429D01*
X98428571Y-82392857D01*
X98571429Y-82464286D01*
X99142857Y-82464286D01*
X96857143Y-81750000D02*
X97000000Y-81678571D01*
X97214286Y-81678571D01*
X97428571Y-81750000D01*
X97571429Y-81892857D01*
X97642857Y-82035714D01*
X97714286Y-82321429D01*
X97714286Y-82535714D01*
X97642857Y-82821429D01*
X97571429Y-82964286D01*
X97428571Y-83107143D01*
X97214286Y-83178571D01*
X97071429Y-83178571D01*
X96857143Y-83107143D01*
X96785714Y-83035714D01*
X96785714Y-82535714D01*
X97071429Y-82535714D01*
X87464286Y-87178571D02*
X87464286Y-85678571D01*
X86892858Y-85678571D01*
X86750000Y-85750000D01*
X86678572Y-85821429D01*
X86607143Y-85964286D01*
X86607143Y-86178571D01*
X86678572Y-86321429D01*
X86750000Y-86392857D01*
X86892858Y-86464286D01*
X87464286Y-86464286D01*
X85964286Y-85678571D02*
X85964286Y-86892857D01*
X85892858Y-87035714D01*
X85821429Y-87107143D01*
X85678572Y-87178571D01*
X85392858Y-87178571D01*
X85250000Y-87107143D01*
X85178572Y-87035714D01*
X85107143Y-86892857D01*
X85107143Y-85678571D01*
X83535714Y-87178571D02*
X84035714Y-86464286D01*
X84392857Y-87178571D02*
X84392857Y-85678571D01*
X83821429Y-85678571D01*
X83678571Y-85750000D01*
X83607143Y-85821429D01*
X83535714Y-85964286D01*
X83535714Y-86178571D01*
X83607143Y-86321429D01*
X83678571Y-86392857D01*
X83821429Y-86464286D01*
X84392857Y-86464286D01*
X82892857Y-87178571D02*
X82892857Y-85678571D01*
X82321429Y-85678571D01*
X82178571Y-85750000D01*
X82107143Y-85821429D01*
X82035714Y-85964286D01*
X82035714Y-86178571D01*
X82107143Y-86321429D01*
X82178571Y-86392857D01*
X82321429Y-86464286D01*
X82892857Y-86464286D01*
X80678571Y-87178571D02*
X81392857Y-87178571D01*
X81392857Y-85678571D01*
X80178571Y-86392857D02*
X79678571Y-86392857D01*
X79464285Y-87178571D02*
X80178571Y-87178571D01*
X80178571Y-85678571D01*
X79464285Y-85678571D01*
X86678571Y-81750000D02*
X86821428Y-81678571D01*
X87035714Y-81678571D01*
X87249999Y-81750000D01*
X87392857Y-81892857D01*
X87464285Y-82035714D01*
X87535714Y-82321429D01*
X87535714Y-82535714D01*
X87464285Y-82821429D01*
X87392857Y-82964286D01*
X87249999Y-83107143D01*
X87035714Y-83178571D01*
X86892857Y-83178571D01*
X86678571Y-83107143D01*
X86607142Y-83035714D01*
X86607142Y-82535714D01*
X86892857Y-82535714D01*
X85107142Y-83178571D02*
X85607142Y-82464286D01*
X85964285Y-83178571D02*
X85964285Y-81678571D01*
X85392857Y-81678571D01*
X85249999Y-81750000D01*
X85178571Y-81821429D01*
X85107142Y-81964286D01*
X85107142Y-82178571D01*
X85178571Y-82321429D01*
X85249999Y-82392857D01*
X85392857Y-82464286D01*
X85964285Y-82464286D01*
X84464285Y-82392857D02*
X83964285Y-82392857D01*
X83749999Y-83178571D02*
X84464285Y-83178571D01*
X84464285Y-81678571D01*
X83749999Y-81678571D01*
X82821428Y-82464286D02*
X82821428Y-83178571D01*
X83321428Y-81678571D02*
X82821428Y-82464286D01*
X82321428Y-81678571D01*
D13*
X175602846Y-93999000D02*
G75*
G03X175602846Y-93999000I-352026J0D01*
G01*
X168750960Y-93049040D02*
X168750960Y-110950960D01*
X168750960Y-110950960D02*
X176249040Y-110950960D01*
X176249040Y-110950960D02*
X176249040Y-93049040D01*
X176249040Y-93049040D02*
X168750960Y-93049040D01*
D14*
X139198500Y-111906400D02*
X139198500Y-112554100D01*
X139198500Y-112554100D02*
X137798960Y-112554100D01*
X137798960Y-111906400D02*
X137798960Y-112554100D01*
X139198500Y-111906400D02*
X137798960Y-111906400D01*
X139198500Y-110433200D02*
X139198500Y-111083440D01*
X139198500Y-111083440D02*
X137798960Y-111083440D01*
X137798960Y-110433200D02*
X137798960Y-111083440D01*
X139198500Y-110433200D02*
X137798960Y-110433200D01*
X138997840Y-111301880D02*
X138997840Y-111698120D01*
X138997840Y-111698120D02*
X138002160Y-111698120D01*
X138002160Y-111301880D02*
X138002160Y-111698120D01*
X138997840Y-111301880D02*
X138002160Y-111301880D01*
D15*
X137865000Y-111091060D02*
X137865000Y-111908940D01*
X139135000Y-111091060D02*
X139135000Y-111908940D01*
D16*
X137517020Y-109528960D02*
X137517020Y-113471040D01*
X137517020Y-113471040D02*
X139482980Y-113471040D01*
X139482980Y-113471040D02*
X139482980Y-109528960D01*
X139482980Y-109528960D02*
X137517020Y-109528960D01*
D14*
X127198500Y-111906400D02*
X127198500Y-112554100D01*
X127198500Y-112554100D02*
X125798960Y-112554100D01*
X125798960Y-111906400D02*
X125798960Y-112554100D01*
X127198500Y-111906400D02*
X125798960Y-111906400D01*
X127198500Y-110433200D02*
X127198500Y-111083440D01*
X127198500Y-111083440D02*
X125798960Y-111083440D01*
X125798960Y-110433200D02*
X125798960Y-111083440D01*
X127198500Y-110433200D02*
X125798960Y-110433200D01*
X126997840Y-111301880D02*
X126997840Y-111698120D01*
X126997840Y-111698120D02*
X126002160Y-111698120D01*
X126002160Y-111301880D02*
X126002160Y-111698120D01*
X126997840Y-111301880D02*
X126002160Y-111301880D01*
D15*
X125865000Y-111091060D02*
X125865000Y-111908940D01*
X127135000Y-111091060D02*
X127135000Y-111908940D01*
D16*
X125517020Y-109528960D02*
X125517020Y-113471040D01*
X125517020Y-113471040D02*
X127482980Y-113471040D01*
X127482980Y-113471040D02*
X127482980Y-109528960D01*
X127482980Y-109528960D02*
X125517020Y-109528960D01*
D17*
X141349000Y-122849000D02*
X141349000Y-126151000D01*
X144651000Y-122849000D02*
X144651000Y-126151000D01*
X145286000Y-122849000D02*
X145286000Y-126151000D01*
X145286000Y-126151000D02*
X140714000Y-126151000D01*
X140714000Y-126151000D02*
X140714000Y-122849000D01*
X140714000Y-122849000D02*
X145286000Y-122849000D01*
X122349000Y-122849000D02*
X122349000Y-126151000D01*
X125651000Y-122849000D02*
X125651000Y-126151000D01*
X126286000Y-122849000D02*
X126286000Y-126151000D01*
X126286000Y-126151000D02*
X121714000Y-126151000D01*
X121714000Y-126151000D02*
X121714000Y-122849000D01*
X121714000Y-122849000D02*
X126286000Y-122849000D01*
X103349000Y-122849000D02*
X103349000Y-126151000D01*
X106651000Y-122849000D02*
X106651000Y-126151000D01*
X107286000Y-122849000D02*
X107286000Y-126151000D01*
X107286000Y-126151000D02*
X102714000Y-126151000D01*
X102714000Y-126151000D02*
X102714000Y-122849000D01*
X102714000Y-122849000D02*
X107286000Y-122849000D01*
D10*
X204981500Y-123180500D02*
X212181500Y-123180500D01*
X212181500Y-123180500D02*
X212181500Y-134180500D01*
X212181500Y-134180500D02*
X204981500Y-134180500D01*
X204981500Y-134180500D02*
X204981500Y-123180500D01*
X88900000Y-80750000D02*
X96100000Y-80750000D01*
X96100000Y-80750000D02*
X96100000Y-109250000D01*
X96100000Y-109250000D02*
X88900000Y-109250000D01*
X88900000Y-109250000D02*
X88900000Y-80750000D01*
X113250000Y-53000000D02*
X113250000Y-101000000D01*
X113250000Y-101000000D02*
X103750000Y-101000000D01*
X103750000Y-101000000D02*
X103750000Y-53000000D01*
X103750000Y-53000000D02*
X113250000Y-53000000D01*
D14*
X133198500Y-102406400D02*
X133198500Y-103054100D01*
X133198500Y-103054100D02*
X131798960Y-103054100D01*
X131798960Y-102406400D02*
X131798960Y-103054100D01*
X133198500Y-102406400D02*
X131798960Y-102406400D01*
X133198500Y-100933200D02*
X133198500Y-101583440D01*
X133198500Y-101583440D02*
X131798960Y-101583440D01*
X131798960Y-100933200D02*
X131798960Y-101583440D01*
X133198500Y-100933200D02*
X131798960Y-100933200D01*
X132997840Y-101801880D02*
X132997840Y-102198120D01*
X132997840Y-102198120D02*
X132002160Y-102198120D01*
X132002160Y-101801880D02*
X132002160Y-102198120D01*
X132997840Y-101801880D02*
X132002160Y-101801880D01*
D15*
X131865000Y-101591060D02*
X131865000Y-102408940D01*
X133135000Y-101591060D02*
X133135000Y-102408940D01*
D16*
X131517020Y-100028960D02*
X131517020Y-103971040D01*
X131517020Y-103971040D02*
X133482980Y-103971040D01*
X133482980Y-103971040D02*
X133482980Y-100028960D01*
X133482980Y-100028960D02*
X131517020Y-100028960D01*
D14*
X134593600Y-111198500D02*
X133945900Y-111198500D01*
X133945900Y-111198500D02*
X133945900Y-109798960D01*
X134593600Y-109798960D02*
X133945900Y-109798960D01*
X134593600Y-111198500D02*
X134593600Y-109798960D01*
X136066800Y-111198500D02*
X135416560Y-111198500D01*
X135416560Y-111198500D02*
X135416560Y-109798960D01*
X136066800Y-109798960D02*
X135416560Y-109798960D01*
X136066800Y-111198500D02*
X136066800Y-109798960D01*
X135198120Y-110997840D02*
X134801880Y-110997840D01*
X134801880Y-110997840D02*
X134801880Y-110002160D01*
X135198120Y-110002160D02*
X134801880Y-110002160D01*
X135198120Y-110997840D02*
X135198120Y-110002160D01*
D15*
X135408940Y-109865000D02*
X134591060Y-109865000D01*
X135408940Y-111135000D02*
X134591060Y-111135000D01*
D16*
X136971040Y-109517020D02*
X133028960Y-109517020D01*
X133028960Y-109517020D02*
X133028960Y-111482980D01*
X133028960Y-111482980D02*
X136971040Y-111482980D01*
X136971040Y-111482980D02*
X136971040Y-109517020D01*
D14*
X129593600Y-111198500D02*
X128945900Y-111198500D01*
X128945900Y-111198500D02*
X128945900Y-109798960D01*
X129593600Y-109798960D02*
X128945900Y-109798960D01*
X129593600Y-111198500D02*
X129593600Y-109798960D01*
X131066800Y-111198500D02*
X130416560Y-111198500D01*
X130416560Y-111198500D02*
X130416560Y-109798960D01*
X131066800Y-109798960D02*
X130416560Y-109798960D01*
X131066800Y-111198500D02*
X131066800Y-109798960D01*
X130198120Y-110997840D02*
X129801880Y-110997840D01*
X129801880Y-110997840D02*
X129801880Y-110002160D01*
X130198120Y-110002160D02*
X129801880Y-110002160D01*
X130198120Y-110997840D02*
X130198120Y-110002160D01*
D15*
X130408940Y-109865000D02*
X129591060Y-109865000D01*
X130408940Y-111135000D02*
X129591060Y-111135000D01*
D16*
X131971040Y-109517020D02*
X128028960Y-109517020D01*
X128028960Y-109517020D02*
X128028960Y-111482980D01*
X128028960Y-111482980D02*
X131971040Y-111482980D01*
X131971040Y-111482980D02*
X131971040Y-109517020D01*
D14*
X133801500Y-106093600D02*
X133801500Y-105445900D01*
X133801500Y-105445900D02*
X135201040Y-105445900D01*
X135201040Y-106093600D02*
X135201040Y-105445900D01*
X133801500Y-106093600D02*
X135201040Y-106093600D01*
X133801500Y-107566800D02*
X133801500Y-106916560D01*
X133801500Y-106916560D02*
X135201040Y-106916560D01*
X135201040Y-107566800D02*
X135201040Y-106916560D01*
X133801500Y-107566800D02*
X135201040Y-107566800D01*
X134002160Y-106698120D02*
X134002160Y-106301880D01*
X134002160Y-106301880D02*
X134997840Y-106301880D01*
X134997840Y-106698120D02*
X134997840Y-106301880D01*
X134002160Y-106698120D02*
X134997840Y-106698120D01*
D15*
X135135000Y-106908940D02*
X135135000Y-106091060D01*
X133865000Y-106908940D02*
X133865000Y-106091060D01*
D16*
X135482980Y-108471040D02*
X135482980Y-104528960D01*
X135482980Y-104528960D02*
X133517020Y-104528960D01*
X133517020Y-104528960D02*
X133517020Y-108471040D01*
X133517020Y-108471040D02*
X135482980Y-108471040D01*
D14*
X129801500Y-106093600D02*
X129801500Y-105445900D01*
X129801500Y-105445900D02*
X131201040Y-105445900D01*
X131201040Y-106093600D02*
X131201040Y-105445900D01*
X129801500Y-106093600D02*
X131201040Y-106093600D01*
X129801500Y-107566800D02*
X129801500Y-106916560D01*
X129801500Y-106916560D02*
X131201040Y-106916560D01*
X131201040Y-107566800D02*
X131201040Y-106916560D01*
X129801500Y-107566800D02*
X131201040Y-107566800D01*
X130002160Y-106698120D02*
X130002160Y-106301880D01*
X130002160Y-106301880D02*
X130997840Y-106301880D01*
X130997840Y-106698120D02*
X130997840Y-106301880D01*
X130002160Y-106698120D02*
X130997840Y-106698120D01*
D15*
X131135000Y-106908940D02*
X131135000Y-106091060D01*
X129865000Y-106908940D02*
X129865000Y-106091060D01*
D16*
X131482980Y-108471040D02*
X131482980Y-104528960D01*
X131482980Y-104528960D02*
X129517020Y-104528960D01*
X129517020Y-104528960D02*
X129517020Y-108471040D01*
X129517020Y-108471040D02*
X131482980Y-108471040D01*
D14*
X209998600Y-72301120D02*
X209998600Y-72801500D01*
X209998600Y-72801500D02*
X209348360Y-72801500D01*
X209348360Y-72301120D02*
X209348360Y-72801500D01*
X209998600Y-72301120D02*
X209348360Y-72301120D01*
X209998600Y-73251080D02*
X209998600Y-73748920D01*
X209998600Y-73748920D02*
X209348360Y-73748920D01*
X209348360Y-73251080D02*
X209348360Y-73748920D01*
X209998600Y-73251080D02*
X209348360Y-73251080D01*
X209998600Y-74198500D02*
X209998600Y-74698880D01*
X209998600Y-74698880D02*
X209348360Y-74698880D01*
X209348360Y-74198500D02*
X209348360Y-74698880D01*
X209998600Y-74198500D02*
X209348360Y-74198500D01*
X207651640Y-74198500D02*
X207651640Y-74698880D01*
X207651640Y-74698880D02*
X207001400Y-74698880D01*
X207001400Y-74198500D02*
X207001400Y-74698880D01*
X207651640Y-74198500D02*
X207001400Y-74198500D01*
X207651640Y-72301120D02*
X207651640Y-72801500D01*
X207651640Y-72801500D02*
X207001400Y-72801500D01*
X207001400Y-72301120D02*
X207001400Y-72801500D01*
X207651640Y-72301120D02*
X207001400Y-72301120D01*
X207651640Y-73200280D02*
X207651640Y-73698120D01*
X207651640Y-73698120D02*
X207001400Y-73698120D01*
X207001400Y-73200280D02*
X207001400Y-73698120D01*
X207651640Y-73200280D02*
X207001400Y-73200280D01*
D15*
X207692280Y-74919860D02*
X209307720Y-74919860D01*
X209307720Y-74919860D02*
X209307720Y-72080140D01*
X209307720Y-72080140D02*
X207692280Y-72080140D01*
X207692280Y-72080140D02*
X207692280Y-74919860D01*
X207692280Y-72979300D02*
X207692280Y-74020700D01*
X209307720Y-73073280D02*
X209307720Y-72979300D01*
X209307720Y-74020700D02*
X209307720Y-73926720D01*
X209307720Y-72174120D02*
X209307720Y-72080140D01*
X209307720Y-74919860D02*
X209307720Y-74825880D01*
X207692280Y-74825880D02*
X207692280Y-74919860D01*
X207692280Y-72080140D02*
X207692280Y-72174120D01*
D18*
X208867970Y-72501780D02*
G75*
G03X208867970Y-72501780I-68250J0D01*
G01*
D14*
X209998600Y-92301120D02*
X209998600Y-92801500D01*
X209998600Y-92801500D02*
X209348360Y-92801500D01*
X209348360Y-92301120D02*
X209348360Y-92801500D01*
X209998600Y-92301120D02*
X209348360Y-92301120D01*
X209998600Y-93251080D02*
X209998600Y-93748920D01*
X209998600Y-93748920D02*
X209348360Y-93748920D01*
X209348360Y-93251080D02*
X209348360Y-93748920D01*
X209998600Y-93251080D02*
X209348360Y-93251080D01*
X209998600Y-94198500D02*
X209998600Y-94698880D01*
X209998600Y-94698880D02*
X209348360Y-94698880D01*
X209348360Y-94198500D02*
X209348360Y-94698880D01*
X209998600Y-94198500D02*
X209348360Y-94198500D01*
X207651640Y-94198500D02*
X207651640Y-94698880D01*
X207651640Y-94698880D02*
X207001400Y-94698880D01*
X207001400Y-94198500D02*
X207001400Y-94698880D01*
X207651640Y-94198500D02*
X207001400Y-94198500D01*
X207651640Y-92301120D02*
X207651640Y-92801500D01*
X207651640Y-92801500D02*
X207001400Y-92801500D01*
X207001400Y-92301120D02*
X207001400Y-92801500D01*
X207651640Y-92301120D02*
X207001400Y-92301120D01*
X207651640Y-93200280D02*
X207651640Y-93698120D01*
X207651640Y-93698120D02*
X207001400Y-93698120D01*
X207001400Y-93200280D02*
X207001400Y-93698120D01*
X207651640Y-93200280D02*
X207001400Y-93200280D01*
D15*
X207692280Y-94919860D02*
X209307720Y-94919860D01*
X209307720Y-94919860D02*
X209307720Y-92080140D01*
X209307720Y-92080140D02*
X207692280Y-92080140D01*
X207692280Y-92080140D02*
X207692280Y-94919860D01*
X207692280Y-92979300D02*
X207692280Y-94020700D01*
X209307720Y-93073280D02*
X209307720Y-92979300D01*
X209307720Y-94020700D02*
X209307720Y-93926720D01*
X209307720Y-92174120D02*
X209307720Y-92080140D01*
X209307720Y-94919860D02*
X209307720Y-94825880D01*
X207692280Y-94825880D02*
X207692280Y-94919860D01*
X207692280Y-92080140D02*
X207692280Y-92174120D01*
D18*
X208867970Y-92501780D02*
G75*
G03X208867970Y-92501780I-68250J0D01*
G01*
D14*
X209998600Y-112301120D02*
X209998600Y-112801500D01*
X209998600Y-112801500D02*
X209348360Y-112801500D01*
X209348360Y-112301120D02*
X209348360Y-112801500D01*
X209998600Y-112301120D02*
X209348360Y-112301120D01*
X209998600Y-113251080D02*
X209998600Y-113748920D01*
X209998600Y-113748920D02*
X209348360Y-113748920D01*
X209348360Y-113251080D02*
X209348360Y-113748920D01*
X209998600Y-113251080D02*
X209348360Y-113251080D01*
X209998600Y-114198500D02*
X209998600Y-114698880D01*
X209998600Y-114698880D02*
X209348360Y-114698880D01*
X209348360Y-114198500D02*
X209348360Y-114698880D01*
X209998600Y-114198500D02*
X209348360Y-114198500D01*
X207651640Y-114198500D02*
X207651640Y-114698880D01*
X207651640Y-114698880D02*
X207001400Y-114698880D01*
X207001400Y-114198500D02*
X207001400Y-114698880D01*
X207651640Y-114198500D02*
X207001400Y-114198500D01*
X207651640Y-112301120D02*
X207651640Y-112801500D01*
X207651640Y-112801500D02*
X207001400Y-112801500D01*
X207001400Y-112301120D02*
X207001400Y-112801500D01*
X207651640Y-112301120D02*
X207001400Y-112301120D01*
X207651640Y-113200280D02*
X207651640Y-113698120D01*
X207651640Y-113698120D02*
X207001400Y-113698120D01*
X207001400Y-113200280D02*
X207001400Y-113698120D01*
X207651640Y-113200280D02*
X207001400Y-113200280D01*
D15*
X207692280Y-114919860D02*
X209307720Y-114919860D01*
X209307720Y-114919860D02*
X209307720Y-112080140D01*
X209307720Y-112080140D02*
X207692280Y-112080140D01*
X207692280Y-112080140D02*
X207692280Y-114919860D01*
X207692280Y-112979300D02*
X207692280Y-114020700D01*
X209307720Y-113073280D02*
X209307720Y-112979300D01*
X209307720Y-114020700D02*
X209307720Y-113926720D01*
X209307720Y-112174120D02*
X209307720Y-112080140D01*
X209307720Y-114919860D02*
X209307720Y-114825880D01*
X207692280Y-114825880D02*
X207692280Y-114919860D01*
X207692280Y-112080140D02*
X207692280Y-112174120D01*
D18*
X208867970Y-112501780D02*
G75*
G03X208867970Y-112501780I-68250J0D01*
G01*
D14*
X117600200Y-112199140D02*
X114399800Y-112199140D01*
X114399800Y-112199140D02*
X114399800Y-110342400D01*
X117600200Y-110342400D02*
X114399800Y-110342400D01*
X117600200Y-112199140D02*
X117600200Y-110342400D01*
X116431800Y-117657600D02*
X115568200Y-117657600D01*
X115568200Y-117657600D02*
X115568200Y-115800860D01*
X116431800Y-115800860D02*
X115568200Y-115800860D01*
X116431800Y-117657600D02*
X116431800Y-115800860D01*
X118743200Y-117657600D02*
X117879600Y-117657600D01*
X117879600Y-117657600D02*
X117879600Y-115800860D01*
X118743200Y-115800860D02*
X117879600Y-115800860D01*
X118743200Y-117657600D02*
X118743200Y-115800860D01*
X114120400Y-117657600D02*
X113256800Y-117657600D01*
X113256800Y-117657600D02*
X113256800Y-115800860D01*
X114120400Y-115800860D02*
X113256800Y-115800860D01*
X114120400Y-117657600D02*
X114120400Y-115800860D01*
X117600200Y-112199140D02*
X114399800Y-112199140D01*
X114399800Y-112199140D02*
X114399800Y-110342400D01*
X117600200Y-110342400D02*
X114399800Y-110342400D01*
X117600200Y-112199140D02*
X117600200Y-110342400D01*
X116431800Y-117657600D02*
X115568200Y-117657600D01*
X115568200Y-117657600D02*
X115568200Y-115800860D01*
X116431800Y-115800860D02*
X115568200Y-115800860D01*
X116431800Y-117657600D02*
X116431800Y-115800860D01*
X118743200Y-117657600D02*
X117879600Y-117657600D01*
X117879600Y-117657600D02*
X117879600Y-115800860D01*
X118743200Y-115800860D02*
X117879600Y-115800860D01*
X118743200Y-117657600D02*
X118743200Y-115800860D01*
X114120400Y-117657600D02*
X113256800Y-117657600D01*
X113256800Y-117657600D02*
X113256800Y-115800860D01*
X114120400Y-115800860D02*
X113256800Y-115800860D01*
X114120400Y-117657600D02*
X114120400Y-115800860D01*
D19*
X112723400Y-112349000D02*
X112723400Y-115651000D01*
X112723400Y-115651000D02*
X119276600Y-115651000D01*
X119276600Y-115651000D02*
X119276600Y-112349000D01*
X119276600Y-112349000D02*
X112723400Y-112349000D01*
D10*
X178110000Y-96900000D02*
X195890000Y-96900000D01*
X178110000Y-46100000D02*
X195890000Y-46100000D01*
X198430000Y-48640000D02*
X198430000Y-94360000D01*
X175570000Y-94360000D02*
X175570000Y-48640000D01*
X178110000Y-96900000D02*
G75*
G02X175570000Y-94360000I0J2540000D01*
G01*
X198430000Y-94360000D02*
G75*
G02X195890000Y-96900000I-2540000J0D01*
G01*
X195890000Y-46100000D02*
G75*
G02X198430000Y-48640000I0J-2540000D01*
G01*
X175570000Y-48640000D02*
G75*
G02X178110000Y-46100000I2540000J0D01*
G01*
D14*
X86500640Y-130122680D02*
X86500640Y-129873760D01*
X86500640Y-129873760D02*
X87501400Y-129873760D01*
X87501400Y-130122680D02*
X87501400Y-129873760D01*
X86500640Y-130122680D02*
X87501400Y-130122680D01*
X86500640Y-129622300D02*
X86500640Y-129373380D01*
X86500640Y-129373380D02*
X87501400Y-129373380D01*
X87501400Y-129622300D02*
X87501400Y-129373380D01*
X86500640Y-129622300D02*
X87501400Y-129622300D01*
X86500640Y-129121920D02*
X86500640Y-128875540D01*
X86500640Y-128875540D02*
X87501400Y-128875540D01*
X87501400Y-129121920D02*
X87501400Y-128875540D01*
X86500640Y-129121920D02*
X87501400Y-129121920D01*
X86500640Y-128626620D02*
X86500640Y-128375160D01*
X86500640Y-128375160D02*
X87501400Y-128375160D01*
X87501400Y-128626620D02*
X87501400Y-128375160D01*
X86500640Y-128626620D02*
X87501400Y-128626620D01*
X86500640Y-128126240D02*
X86500640Y-127874780D01*
X86500640Y-127874780D02*
X87501400Y-127874780D01*
X87501400Y-128126240D02*
X87501400Y-127874780D01*
X86500640Y-128126240D02*
X87501400Y-128126240D01*
X90498600Y-128126240D02*
X90498600Y-127877320D01*
X90498600Y-127877320D02*
X91499360Y-127877320D01*
X91499360Y-128126240D02*
X91499360Y-127877320D01*
X90498600Y-128126240D02*
X91499360Y-128126240D01*
X90498600Y-128626620D02*
X90498600Y-128377700D01*
X90498600Y-128377700D02*
X91499360Y-128377700D01*
X91499360Y-128626620D02*
X91499360Y-128377700D01*
X90498600Y-128626620D02*
X91499360Y-128626620D01*
X90498600Y-129124460D02*
X90498600Y-128878080D01*
X90498600Y-128878080D02*
X91499360Y-128878080D01*
X91499360Y-129124460D02*
X91499360Y-128878080D01*
X90498600Y-129124460D02*
X91499360Y-129124460D01*
X90498600Y-129624840D02*
X90498600Y-129373380D01*
X90498600Y-129373380D02*
X91499360Y-129373380D01*
X91499360Y-129624840D02*
X91499360Y-129373380D01*
X90498600Y-129624840D02*
X91499360Y-129624840D01*
X90498600Y-130125220D02*
X90498600Y-129873760D01*
X90498600Y-129873760D02*
X91499360Y-129873760D01*
X91499360Y-130125220D02*
X91499360Y-129873760D01*
X90498600Y-130125220D02*
X91499360Y-130125220D01*
D19*
X90399540Y-130399540D02*
X90399540Y-127600460D01*
X90399540Y-127600460D02*
X87600460Y-127600460D01*
X87600460Y-127600460D02*
X87600460Y-130399540D01*
X87600460Y-130399540D02*
X90399540Y-130399540D01*
X88502160Y-129797560D02*
X87900180Y-129797560D01*
X88504700Y-129797560D02*
G75*
G02X87900180Y-129797560I-302260J0D01*
G01*
D14*
X86500640Y-125122680D02*
X86500640Y-124873760D01*
X86500640Y-124873760D02*
X87501400Y-124873760D01*
X87501400Y-125122680D02*
X87501400Y-124873760D01*
X86500640Y-125122680D02*
X87501400Y-125122680D01*
X86500640Y-124622300D02*
X86500640Y-124373380D01*
X86500640Y-124373380D02*
X87501400Y-124373380D01*
X87501400Y-124622300D02*
X87501400Y-124373380D01*
X86500640Y-124622300D02*
X87501400Y-124622300D01*
X86500640Y-124121920D02*
X86500640Y-123875540D01*
X86500640Y-123875540D02*
X87501400Y-123875540D01*
X87501400Y-124121920D02*
X87501400Y-123875540D01*
X86500640Y-124121920D02*
X87501400Y-124121920D01*
X86500640Y-123626620D02*
X86500640Y-123375160D01*
X86500640Y-123375160D02*
X87501400Y-123375160D01*
X87501400Y-123626620D02*
X87501400Y-123375160D01*
X86500640Y-123626620D02*
X87501400Y-123626620D01*
X86500640Y-123126240D02*
X86500640Y-122874780D01*
X86500640Y-122874780D02*
X87501400Y-122874780D01*
X87501400Y-123126240D02*
X87501400Y-122874780D01*
X86500640Y-123126240D02*
X87501400Y-123126240D01*
X90498600Y-123126240D02*
X90498600Y-122877320D01*
X90498600Y-122877320D02*
X91499360Y-122877320D01*
X91499360Y-123126240D02*
X91499360Y-122877320D01*
X90498600Y-123126240D02*
X91499360Y-123126240D01*
X90498600Y-123626620D02*
X90498600Y-123377700D01*
X90498600Y-123377700D02*
X91499360Y-123377700D01*
X91499360Y-123626620D02*
X91499360Y-123377700D01*
X90498600Y-123626620D02*
X91499360Y-123626620D01*
X90498600Y-124124460D02*
X90498600Y-123878080D01*
X90498600Y-123878080D02*
X91499360Y-123878080D01*
X91499360Y-124124460D02*
X91499360Y-123878080D01*
X90498600Y-124124460D02*
X91499360Y-124124460D01*
X90498600Y-124624840D02*
X90498600Y-124373380D01*
X90498600Y-124373380D02*
X91499360Y-124373380D01*
X91499360Y-124624840D02*
X91499360Y-124373380D01*
X90498600Y-124624840D02*
X91499360Y-124624840D01*
X90498600Y-125125220D02*
X90498600Y-124873760D01*
X90498600Y-124873760D02*
X91499360Y-124873760D01*
X91499360Y-125125220D02*
X91499360Y-124873760D01*
X90498600Y-125125220D02*
X91499360Y-125125220D01*
D19*
X90399540Y-125399540D02*
X90399540Y-122600460D01*
X90399540Y-122600460D02*
X87600460Y-122600460D01*
X87600460Y-122600460D02*
X87600460Y-125399540D01*
X87600460Y-125399540D02*
X90399540Y-125399540D01*
X88502160Y-124797560D02*
X87900180Y-124797560D01*
X88504700Y-124797560D02*
G75*
G02X87900180Y-124797560I-302260J0D01*
G01*
D10*
X167500000Y-46000000D02*
X122500000Y-46000000D01*
X122500000Y-46000000D02*
X122500000Y-98000000D01*
X122500000Y-98000000D02*
X167500000Y-98000000D01*
X167500000Y-98000000D02*
X167500000Y-46000000D01*
D14*
X110301500Y-115593600D02*
X110301500Y-114945900D01*
X110301500Y-114945900D02*
X111701040Y-114945900D01*
X111701040Y-115593600D02*
X111701040Y-114945900D01*
X110301500Y-115593600D02*
X111701040Y-115593600D01*
X110301500Y-117066800D02*
X110301500Y-116416560D01*
X110301500Y-116416560D02*
X111701040Y-116416560D01*
X111701040Y-117066800D02*
X111701040Y-116416560D01*
X110301500Y-117066800D02*
X111701040Y-117066800D01*
X110502160Y-116198120D02*
X110502160Y-115801880D01*
X110502160Y-115801880D02*
X111497840Y-115801880D01*
X111497840Y-116198120D02*
X111497840Y-115801880D01*
X110502160Y-116198120D02*
X111497840Y-116198120D01*
D15*
X111635000Y-116408940D02*
X111635000Y-115591060D01*
X110365000Y-116408940D02*
X110365000Y-115591060D01*
D16*
X111982980Y-117971040D02*
X111982980Y-114028960D01*
X111982980Y-114028960D02*
X110017020Y-114028960D01*
X110017020Y-114028960D02*
X110017020Y-117971040D01*
X110017020Y-117971040D02*
X111982980Y-117971040D01*
D14*
X121698500Y-116406400D02*
X121698500Y-117054100D01*
X121698500Y-117054100D02*
X120298960Y-117054100D01*
X120298960Y-116406400D02*
X120298960Y-117054100D01*
X121698500Y-116406400D02*
X120298960Y-116406400D01*
X121698500Y-114933200D02*
X121698500Y-115583440D01*
X121698500Y-115583440D02*
X120298960Y-115583440D01*
X120298960Y-114933200D02*
X120298960Y-115583440D01*
X121698500Y-114933200D02*
X120298960Y-114933200D01*
X121497840Y-115801880D02*
X121497840Y-116198120D01*
X121497840Y-116198120D02*
X120502160Y-116198120D01*
X120502160Y-115801880D02*
X120502160Y-116198120D01*
X121497840Y-115801880D02*
X120502160Y-115801880D01*
D15*
X120365000Y-115591060D02*
X120365000Y-116408940D01*
X121635000Y-115591060D02*
X121635000Y-116408940D01*
D16*
X120017020Y-114028960D02*
X120017020Y-117971040D01*
X120017020Y-117971040D02*
X121982980Y-117971040D01*
X121982980Y-117971040D02*
X121982980Y-114028960D01*
X121982980Y-114028960D02*
X120017020Y-114028960D01*
D14*
X82105500Y-131419600D02*
X82105500Y-130771900D01*
X82105500Y-130771900D02*
X83505040Y-130771900D01*
X83505040Y-131419600D02*
X83505040Y-130771900D01*
X82105500Y-131419600D02*
X83505040Y-131419600D01*
X82105500Y-132892800D02*
X82105500Y-132242560D01*
X82105500Y-132242560D02*
X83505040Y-132242560D01*
X83505040Y-132892800D02*
X83505040Y-132242560D01*
X82105500Y-132892800D02*
X83505040Y-132892800D01*
X82306160Y-132024120D02*
X82306160Y-131627880D01*
X82306160Y-131627880D02*
X83301840Y-131627880D01*
X83301840Y-132024120D02*
X83301840Y-131627880D01*
X82306160Y-132024120D02*
X83301840Y-132024120D01*
D15*
X83439000Y-132234940D02*
X83439000Y-131417060D01*
X82169000Y-132234940D02*
X82169000Y-131417060D01*
D16*
X83786980Y-133797040D02*
X83786980Y-129854960D01*
X83786980Y-129854960D02*
X81821020Y-129854960D01*
X81821020Y-129854960D02*
X81821020Y-133797040D01*
X81821020Y-133797040D02*
X83786980Y-133797040D01*
D14*
X83406400Y-119301500D02*
X84054100Y-119301500D01*
X84054100Y-119301500D02*
X84054100Y-120701040D01*
X83406400Y-120701040D02*
X84054100Y-120701040D01*
X83406400Y-119301500D02*
X83406400Y-120701040D01*
X81933200Y-119301500D02*
X82583440Y-119301500D01*
X82583440Y-119301500D02*
X82583440Y-120701040D01*
X81933200Y-120701040D02*
X82583440Y-120701040D01*
X81933200Y-119301500D02*
X81933200Y-120701040D01*
X82801880Y-119502160D02*
X83198120Y-119502160D01*
X83198120Y-119502160D02*
X83198120Y-120497840D01*
X82801880Y-120497840D02*
X83198120Y-120497840D01*
X82801880Y-119502160D02*
X82801880Y-120497840D01*
D15*
X82591060Y-120635000D02*
X83408940Y-120635000D01*
X82591060Y-119365000D02*
X83408940Y-119365000D01*
D16*
X81028960Y-120982980D02*
X84971040Y-120982980D01*
X84971040Y-120982980D02*
X84971040Y-119017020D01*
X84971040Y-119017020D02*
X81028960Y-119017020D01*
X81028960Y-119017020D02*
X81028960Y-120982980D01*
D14*
X88593600Y-133198500D02*
X87945900Y-133198500D01*
X87945900Y-133198500D02*
X87945900Y-131798960D01*
X88593600Y-131798960D02*
X87945900Y-131798960D01*
X88593600Y-133198500D02*
X88593600Y-131798960D01*
X90066800Y-133198500D02*
X89416560Y-133198500D01*
X89416560Y-133198500D02*
X89416560Y-131798960D01*
X90066800Y-131798960D02*
X89416560Y-131798960D01*
X90066800Y-133198500D02*
X90066800Y-131798960D01*
X89198120Y-132997840D02*
X88801880Y-132997840D01*
X88801880Y-132997840D02*
X88801880Y-132002160D01*
X89198120Y-132002160D02*
X88801880Y-132002160D01*
X89198120Y-132997840D02*
X89198120Y-132002160D01*
D15*
X89408940Y-131865000D02*
X88591060Y-131865000D01*
X89408940Y-133135000D02*
X88591060Y-133135000D01*
D16*
X90971040Y-131517020D02*
X87028960Y-131517020D01*
X87028960Y-131517020D02*
X87028960Y-133482980D01*
X87028960Y-133482980D02*
X90971040Y-133482980D01*
X90971040Y-133482980D02*
X90971040Y-131517020D01*
D14*
X84698500Y-126406400D02*
X84698500Y-127054100D01*
X84698500Y-127054100D02*
X83298960Y-127054100D01*
X83298960Y-126406400D02*
X83298960Y-127054100D01*
X84698500Y-126406400D02*
X83298960Y-126406400D01*
X84698500Y-124933200D02*
X84698500Y-125583440D01*
X84698500Y-125583440D02*
X83298960Y-125583440D01*
X83298960Y-124933200D02*
X83298960Y-125583440D01*
X84698500Y-124933200D02*
X83298960Y-124933200D01*
X84497840Y-125801880D02*
X84497840Y-126198120D01*
X84497840Y-126198120D02*
X83502160Y-126198120D01*
X83502160Y-125801880D02*
X83502160Y-126198120D01*
X84497840Y-125801880D02*
X83502160Y-125801880D01*
D15*
X83365000Y-125591060D02*
X83365000Y-126408940D01*
X84635000Y-125591060D02*
X84635000Y-126408940D01*
D16*
X83017020Y-124028960D02*
X83017020Y-127971040D01*
X83017020Y-127971040D02*
X84982980Y-127971040D01*
X84982980Y-127971040D02*
X84982980Y-124028960D01*
X84982980Y-124028960D02*
X83017020Y-124028960D01*
D14*
X82198500Y-126406400D02*
X82198500Y-127054100D01*
X82198500Y-127054100D02*
X80798960Y-127054100D01*
X80798960Y-126406400D02*
X80798960Y-127054100D01*
X82198500Y-126406400D02*
X80798960Y-126406400D01*
X82198500Y-124933200D02*
X82198500Y-125583440D01*
X82198500Y-125583440D02*
X80798960Y-125583440D01*
X80798960Y-124933200D02*
X80798960Y-125583440D01*
X82198500Y-124933200D02*
X80798960Y-124933200D01*
X81997840Y-125801880D02*
X81997840Y-126198120D01*
X81997840Y-126198120D02*
X81002160Y-126198120D01*
X81002160Y-125801880D02*
X81002160Y-126198120D01*
X81997840Y-125801880D02*
X81002160Y-125801880D01*
D15*
X80865000Y-125591060D02*
X80865000Y-126408940D01*
X82135000Y-125591060D02*
X82135000Y-126408940D01*
D16*
X80517020Y-124028960D02*
X80517020Y-127971040D01*
X80517020Y-127971040D02*
X82482980Y-127971040D01*
X82482980Y-127971040D02*
X82482980Y-124028960D01*
X82482980Y-124028960D02*
X80517020Y-124028960D01*
D14*
X164198500Y-111906400D02*
X164198500Y-112554100D01*
X164198500Y-112554100D02*
X162798960Y-112554100D01*
X162798960Y-111906400D02*
X162798960Y-112554100D01*
X164198500Y-111906400D02*
X162798960Y-111906400D01*
X164198500Y-110433200D02*
X164198500Y-111083440D01*
X164198500Y-111083440D02*
X162798960Y-111083440D01*
X162798960Y-110433200D02*
X162798960Y-111083440D01*
X164198500Y-110433200D02*
X162798960Y-110433200D01*
X163997840Y-111301880D02*
X163997840Y-111698120D01*
X163997840Y-111698120D02*
X163002160Y-111698120D01*
X163002160Y-111301880D02*
X163002160Y-111698120D01*
X163997840Y-111301880D02*
X163002160Y-111301880D01*
D15*
X162865000Y-111091060D02*
X162865000Y-111908940D01*
X164135000Y-111091060D02*
X164135000Y-111908940D01*
D16*
X162517020Y-109528960D02*
X162517020Y-113471040D01*
X162517020Y-113471040D02*
X164482980Y-113471040D01*
X164482980Y-113471040D02*
X164482980Y-109528960D01*
X164482980Y-109528960D02*
X162517020Y-109528960D01*
D14*
X152198500Y-111906400D02*
X152198500Y-112554100D01*
X152198500Y-112554100D02*
X150798960Y-112554100D01*
X150798960Y-111906400D02*
X150798960Y-112554100D01*
X152198500Y-111906400D02*
X150798960Y-111906400D01*
X152198500Y-110433200D02*
X152198500Y-111083440D01*
X152198500Y-111083440D02*
X150798960Y-111083440D01*
X150798960Y-110433200D02*
X150798960Y-111083440D01*
X152198500Y-110433200D02*
X150798960Y-110433200D01*
X151997840Y-111301880D02*
X151997840Y-111698120D01*
X151997840Y-111698120D02*
X151002160Y-111698120D01*
X151002160Y-111301880D02*
X151002160Y-111698120D01*
X151997840Y-111301880D02*
X151002160Y-111301880D01*
D15*
X150865000Y-111091060D02*
X150865000Y-111908940D01*
X152135000Y-111091060D02*
X152135000Y-111908940D01*
D16*
X150517020Y-109528960D02*
X150517020Y-113471040D01*
X150517020Y-113471040D02*
X152482980Y-113471040D01*
X152482980Y-113471040D02*
X152482980Y-109528960D01*
X152482980Y-109528960D02*
X150517020Y-109528960D01*
D14*
X83093600Y-50698500D02*
X82445900Y-50698500D01*
X82445900Y-50698500D02*
X82445900Y-49298960D01*
X83093600Y-49298960D02*
X82445900Y-49298960D01*
X83093600Y-50698500D02*
X83093600Y-49298960D01*
X84566800Y-50698500D02*
X83916560Y-50698500D01*
X83916560Y-50698500D02*
X83916560Y-49298960D01*
X84566800Y-49298960D02*
X83916560Y-49298960D01*
X84566800Y-50698500D02*
X84566800Y-49298960D01*
X83698120Y-50497840D02*
X83301880Y-50497840D01*
X83301880Y-50497840D02*
X83301880Y-49502160D01*
X83698120Y-49502160D02*
X83301880Y-49502160D01*
X83698120Y-50497840D02*
X83698120Y-49502160D01*
D15*
X83908940Y-49365000D02*
X83091060Y-49365000D01*
X83908940Y-50635000D02*
X83091060Y-50635000D01*
D16*
X85471040Y-49017020D02*
X81528960Y-49017020D01*
X81528960Y-49017020D02*
X81528960Y-50982980D01*
X81528960Y-50982980D02*
X85471040Y-50982980D01*
X85471040Y-50982980D02*
X85471040Y-49017020D01*
D14*
X94593600Y-50698500D02*
X93945900Y-50698500D01*
X93945900Y-50698500D02*
X93945900Y-49298960D01*
X94593600Y-49298960D02*
X93945900Y-49298960D01*
X94593600Y-50698500D02*
X94593600Y-49298960D01*
X96066800Y-50698500D02*
X95416560Y-50698500D01*
X95416560Y-50698500D02*
X95416560Y-49298960D01*
X96066800Y-49298960D02*
X95416560Y-49298960D01*
X96066800Y-50698500D02*
X96066800Y-49298960D01*
X95198120Y-50497840D02*
X94801880Y-50497840D01*
X94801880Y-50497840D02*
X94801880Y-49502160D01*
X95198120Y-49502160D02*
X94801880Y-49502160D01*
X95198120Y-50497840D02*
X95198120Y-49502160D01*
D15*
X95408940Y-49365000D02*
X94591060Y-49365000D01*
X95408940Y-50635000D02*
X94591060Y-50635000D01*
D16*
X96971040Y-49017020D02*
X93028960Y-49017020D01*
X93028960Y-49017020D02*
X93028960Y-50982980D01*
X93028960Y-50982980D02*
X96971040Y-50982980D01*
X96971040Y-50982980D02*
X96971040Y-49017020D01*
D14*
X83032600Y-142303500D02*
X82384900Y-142303500D01*
X82384900Y-142303500D02*
X82384900Y-140903960D01*
X83032600Y-140903960D02*
X82384900Y-140903960D01*
X83032600Y-142303500D02*
X83032600Y-140903960D01*
X84505800Y-142303500D02*
X83855560Y-142303500D01*
X83855560Y-142303500D02*
X83855560Y-140903960D01*
X84505800Y-140903960D02*
X83855560Y-140903960D01*
X84505800Y-142303500D02*
X84505800Y-140903960D01*
X83637120Y-142102840D02*
X83240880Y-142102840D01*
X83240880Y-142102840D02*
X83240880Y-141107160D01*
X83637120Y-141107160D02*
X83240880Y-141107160D01*
X83637120Y-142102840D02*
X83637120Y-141107160D01*
D15*
X83847940Y-140970000D02*
X83030060Y-140970000D01*
X83847940Y-142240000D02*
X83030060Y-142240000D01*
D16*
X85410040Y-140622020D02*
X81467960Y-140622020D01*
X81467960Y-140622020D02*
X81467960Y-142587980D01*
X81467960Y-142587980D02*
X85410040Y-142587980D01*
X85410040Y-142587980D02*
X85410040Y-140622020D01*
D14*
X83032600Y-140017500D02*
X82384900Y-140017500D01*
X82384900Y-140017500D02*
X82384900Y-138617960D01*
X83032600Y-138617960D02*
X82384900Y-138617960D01*
X83032600Y-140017500D02*
X83032600Y-138617960D01*
X84505800Y-140017500D02*
X83855560Y-140017500D01*
X83855560Y-140017500D02*
X83855560Y-138617960D01*
X84505800Y-138617960D02*
X83855560Y-138617960D01*
X84505800Y-140017500D02*
X84505800Y-138617960D01*
X83637120Y-139816840D02*
X83240880Y-139816840D01*
X83240880Y-139816840D02*
X83240880Y-138821160D01*
X83637120Y-138821160D02*
X83240880Y-138821160D01*
X83637120Y-139816840D02*
X83637120Y-138821160D01*
D15*
X83847940Y-138684000D02*
X83030060Y-138684000D01*
X83847940Y-139954000D02*
X83030060Y-139954000D01*
D16*
X85410040Y-138336020D02*
X81467960Y-138336020D01*
X81467960Y-138336020D02*
X81467960Y-140301980D01*
X81467960Y-140301980D02*
X85410040Y-140301980D01*
X85410040Y-140301980D02*
X85410040Y-138336020D01*
D14*
X83406400Y-121801500D02*
X84054100Y-121801500D01*
X84054100Y-121801500D02*
X84054100Y-123201040D01*
X83406400Y-123201040D02*
X84054100Y-123201040D01*
X83406400Y-121801500D02*
X83406400Y-123201040D01*
X81933200Y-121801500D02*
X82583440Y-121801500D01*
X82583440Y-121801500D02*
X82583440Y-123201040D01*
X81933200Y-123201040D02*
X82583440Y-123201040D01*
X81933200Y-121801500D02*
X81933200Y-123201040D01*
X82801880Y-122002160D02*
X83198120Y-122002160D01*
X83198120Y-122002160D02*
X83198120Y-122997840D01*
X82801880Y-122997840D02*
X83198120Y-122997840D01*
X82801880Y-122002160D02*
X82801880Y-122997840D01*
D15*
X82591060Y-123135000D02*
X83408940Y-123135000D01*
X82591060Y-121865000D02*
X83408940Y-121865000D01*
D16*
X81028960Y-123482980D02*
X84971040Y-123482980D01*
X84971040Y-123482980D02*
X84971040Y-121517020D01*
X84971040Y-121517020D02*
X81028960Y-121517020D01*
X81028960Y-121517020D02*
X81028960Y-123482980D01*
D14*
X94906400Y-128301500D02*
X95554100Y-128301500D01*
X95554100Y-128301500D02*
X95554100Y-129701040D01*
X94906400Y-129701040D02*
X95554100Y-129701040D01*
X94906400Y-128301500D02*
X94906400Y-129701040D01*
X93433200Y-128301500D02*
X94083440Y-128301500D01*
X94083440Y-128301500D02*
X94083440Y-129701040D01*
X93433200Y-129701040D02*
X94083440Y-129701040D01*
X93433200Y-128301500D02*
X93433200Y-129701040D01*
X94301880Y-128502160D02*
X94698120Y-128502160D01*
X94698120Y-128502160D02*
X94698120Y-129497840D01*
X94301880Y-129497840D02*
X94698120Y-129497840D01*
X94301880Y-128502160D02*
X94301880Y-129497840D01*
D15*
X94091060Y-129635000D02*
X94908940Y-129635000D01*
X94091060Y-128365000D02*
X94908940Y-128365000D01*
D16*
X92528960Y-129982980D02*
X96471040Y-129982980D01*
X96471040Y-129982980D02*
X96471040Y-128017020D01*
X96471040Y-128017020D02*
X92528960Y-128017020D01*
X92528960Y-128017020D02*
X92528960Y-129982980D01*
D14*
X158198500Y-102406400D02*
X158198500Y-103054100D01*
X158198500Y-103054100D02*
X156798960Y-103054100D01*
X156798960Y-102406400D02*
X156798960Y-103054100D01*
X158198500Y-102406400D02*
X156798960Y-102406400D01*
X158198500Y-100933200D02*
X158198500Y-101583440D01*
X158198500Y-101583440D02*
X156798960Y-101583440D01*
X156798960Y-100933200D02*
X156798960Y-101583440D01*
X158198500Y-100933200D02*
X156798960Y-100933200D01*
X157997840Y-101801880D02*
X157997840Y-102198120D01*
X157997840Y-102198120D02*
X157002160Y-102198120D01*
X157002160Y-101801880D02*
X157002160Y-102198120D01*
X157997840Y-101801880D02*
X157002160Y-101801880D01*
D15*
X156865000Y-101591060D02*
X156865000Y-102408940D01*
X158135000Y-101591060D02*
X158135000Y-102408940D01*
D16*
X156517020Y-100028960D02*
X156517020Y-103971040D01*
X156517020Y-103971040D02*
X158482980Y-103971040D01*
X158482980Y-103971040D02*
X158482980Y-100028960D01*
X158482980Y-100028960D02*
X156517020Y-100028960D01*
D14*
X171698500Y-81906400D02*
X171698500Y-82554100D01*
X171698500Y-82554100D02*
X170298960Y-82554100D01*
X170298960Y-81906400D02*
X170298960Y-82554100D01*
X171698500Y-81906400D02*
X170298960Y-81906400D01*
X171698500Y-80433200D02*
X171698500Y-81083440D01*
X171698500Y-81083440D02*
X170298960Y-81083440D01*
X170298960Y-80433200D02*
X170298960Y-81083440D01*
X171698500Y-80433200D02*
X170298960Y-80433200D01*
X171497840Y-81301880D02*
X171497840Y-81698120D01*
X171497840Y-81698120D02*
X170502160Y-81698120D01*
X170502160Y-81301880D02*
X170502160Y-81698120D01*
X171497840Y-81301880D02*
X170502160Y-81301880D01*
D15*
X170365000Y-81091060D02*
X170365000Y-81908940D01*
X171635000Y-81091060D02*
X171635000Y-81908940D01*
D16*
X170017020Y-79528960D02*
X170017020Y-83471040D01*
X170017020Y-83471040D02*
X171982980Y-83471040D01*
X171982980Y-83471040D02*
X171982980Y-79528960D01*
X171982980Y-79528960D02*
X170017020Y-79528960D01*
D14*
X171698500Y-59906400D02*
X171698500Y-60554100D01*
X171698500Y-60554100D02*
X170298960Y-60554100D01*
X170298960Y-59906400D02*
X170298960Y-60554100D01*
X171698500Y-59906400D02*
X170298960Y-59906400D01*
X171698500Y-58433200D02*
X171698500Y-59083440D01*
X171698500Y-59083440D02*
X170298960Y-59083440D01*
X170298960Y-58433200D02*
X170298960Y-59083440D01*
X171698500Y-58433200D02*
X170298960Y-58433200D01*
X171497840Y-59301880D02*
X171497840Y-59698120D01*
X171497840Y-59698120D02*
X170502160Y-59698120D01*
X170502160Y-59301880D02*
X170502160Y-59698120D01*
X171497840Y-59301880D02*
X170502160Y-59301880D01*
D15*
X170365000Y-59091060D02*
X170365000Y-59908940D01*
X171635000Y-59091060D02*
X171635000Y-59908940D01*
D16*
X170017020Y-57528960D02*
X170017020Y-61471040D01*
X170017020Y-61471040D02*
X171982980Y-61471040D01*
X171982980Y-61471040D02*
X171982980Y-57528960D01*
X171982980Y-57528960D02*
X170017020Y-57528960D01*
D14*
X119698500Y-59906400D02*
X119698500Y-60554100D01*
X119698500Y-60554100D02*
X118298960Y-60554100D01*
X118298960Y-59906400D02*
X118298960Y-60554100D01*
X119698500Y-59906400D02*
X118298960Y-59906400D01*
X119698500Y-58433200D02*
X119698500Y-59083440D01*
X119698500Y-59083440D02*
X118298960Y-59083440D01*
X118298960Y-58433200D02*
X118298960Y-59083440D01*
X119698500Y-58433200D02*
X118298960Y-58433200D01*
X119497840Y-59301880D02*
X119497840Y-59698120D01*
X119497840Y-59698120D02*
X118502160Y-59698120D01*
X118502160Y-59301880D02*
X118502160Y-59698120D01*
X119497840Y-59301880D02*
X118502160Y-59301880D01*
D15*
X118365000Y-59091060D02*
X118365000Y-59908940D01*
X119635000Y-59091060D02*
X119635000Y-59908940D01*
D16*
X118017020Y-57528960D02*
X118017020Y-61471040D01*
X118017020Y-61471040D02*
X119982980Y-61471040D01*
X119982980Y-61471040D02*
X119982980Y-57528960D01*
X119982980Y-57528960D02*
X118017020Y-57528960D01*
D14*
X119698500Y-81906400D02*
X119698500Y-82554100D01*
X119698500Y-82554100D02*
X118298960Y-82554100D01*
X118298960Y-81906400D02*
X118298960Y-82554100D01*
X119698500Y-81906400D02*
X118298960Y-81906400D01*
X119698500Y-80433200D02*
X119698500Y-81083440D01*
X119698500Y-81083440D02*
X118298960Y-81083440D01*
X118298960Y-80433200D02*
X118298960Y-81083440D01*
X119698500Y-80433200D02*
X118298960Y-80433200D01*
X119497840Y-81301880D02*
X119497840Y-81698120D01*
X119497840Y-81698120D02*
X118502160Y-81698120D01*
X118502160Y-81301880D02*
X118502160Y-81698120D01*
X119497840Y-81301880D02*
X118502160Y-81301880D01*
D15*
X118365000Y-81091060D02*
X118365000Y-81908940D01*
X119635000Y-81091060D02*
X119635000Y-81908940D01*
D16*
X118017020Y-79528960D02*
X118017020Y-83471040D01*
X118017020Y-83471040D02*
X119982980Y-83471040D01*
X119982980Y-83471040D02*
X119982980Y-79528960D01*
X119982980Y-79528960D02*
X118017020Y-79528960D01*
D14*
X159593600Y-111198500D02*
X158945900Y-111198500D01*
X158945900Y-111198500D02*
X158945900Y-109798960D01*
X159593600Y-109798960D02*
X158945900Y-109798960D01*
X159593600Y-111198500D02*
X159593600Y-109798960D01*
X161066800Y-111198500D02*
X160416560Y-111198500D01*
X160416560Y-111198500D02*
X160416560Y-109798960D01*
X161066800Y-109798960D02*
X160416560Y-109798960D01*
X161066800Y-111198500D02*
X161066800Y-109798960D01*
X160198120Y-110997840D02*
X159801880Y-110997840D01*
X159801880Y-110997840D02*
X159801880Y-110002160D01*
X160198120Y-110002160D02*
X159801880Y-110002160D01*
X160198120Y-110997840D02*
X160198120Y-110002160D01*
D15*
X160408940Y-109865000D02*
X159591060Y-109865000D01*
X160408940Y-111135000D02*
X159591060Y-111135000D01*
D16*
X161971040Y-109517020D02*
X158028960Y-109517020D01*
X158028960Y-109517020D02*
X158028960Y-111482980D01*
X158028960Y-111482980D02*
X161971040Y-111482980D01*
X161971040Y-111482980D02*
X161971040Y-109517020D01*
D14*
X154593600Y-111198500D02*
X153945900Y-111198500D01*
X153945900Y-111198500D02*
X153945900Y-109798960D01*
X154593600Y-109798960D02*
X153945900Y-109798960D01*
X154593600Y-111198500D02*
X154593600Y-109798960D01*
X156066800Y-111198500D02*
X155416560Y-111198500D01*
X155416560Y-111198500D02*
X155416560Y-109798960D01*
X156066800Y-109798960D02*
X155416560Y-109798960D01*
X156066800Y-111198500D02*
X156066800Y-109798960D01*
X155198120Y-110997840D02*
X154801880Y-110997840D01*
X154801880Y-110997840D02*
X154801880Y-110002160D01*
X155198120Y-110002160D02*
X154801880Y-110002160D01*
X155198120Y-110997840D02*
X155198120Y-110002160D01*
D15*
X155408940Y-109865000D02*
X154591060Y-109865000D01*
X155408940Y-111135000D02*
X154591060Y-111135000D01*
D16*
X156971040Y-109517020D02*
X153028960Y-109517020D01*
X153028960Y-109517020D02*
X153028960Y-111482980D01*
X153028960Y-111482980D02*
X156971040Y-111482980D01*
X156971040Y-111482980D02*
X156971040Y-109517020D01*
D14*
X195643500Y-99161600D02*
X195643500Y-98513900D01*
X195643500Y-98513900D02*
X197043040Y-98513900D01*
X197043040Y-99161600D02*
X197043040Y-98513900D01*
X195643500Y-99161600D02*
X197043040Y-99161600D01*
X195643500Y-100634800D02*
X195643500Y-99984560D01*
X195643500Y-99984560D02*
X197043040Y-99984560D01*
X197043040Y-100634800D02*
X197043040Y-99984560D01*
X195643500Y-100634800D02*
X197043040Y-100634800D01*
X195844160Y-99766120D02*
X195844160Y-99369880D01*
X195844160Y-99369880D02*
X196839840Y-99369880D01*
X196839840Y-99766120D02*
X196839840Y-99369880D01*
X195844160Y-99766120D02*
X196839840Y-99766120D01*
D15*
X196977000Y-99976940D02*
X196977000Y-99159060D01*
X195707000Y-99976940D02*
X195707000Y-99159060D01*
D16*
X197324980Y-101539040D02*
X197324980Y-97596960D01*
X197324980Y-97596960D02*
X195359020Y-97596960D01*
X195359020Y-97596960D02*
X195359020Y-101539040D01*
X195359020Y-101539040D02*
X197324980Y-101539040D01*
D14*
X159051500Y-106093600D02*
X159051500Y-105445900D01*
X159051500Y-105445900D02*
X160451040Y-105445900D01*
X160451040Y-106093600D02*
X160451040Y-105445900D01*
X159051500Y-106093600D02*
X160451040Y-106093600D01*
X159051500Y-107566800D02*
X159051500Y-106916560D01*
X159051500Y-106916560D02*
X160451040Y-106916560D01*
X160451040Y-107566800D02*
X160451040Y-106916560D01*
X159051500Y-107566800D02*
X160451040Y-107566800D01*
X159252160Y-106698120D02*
X159252160Y-106301880D01*
X159252160Y-106301880D02*
X160247840Y-106301880D01*
X160247840Y-106698120D02*
X160247840Y-106301880D01*
X159252160Y-106698120D02*
X160247840Y-106698120D01*
D15*
X160385000Y-106908940D02*
X160385000Y-106091060D01*
X159115000Y-106908940D02*
X159115000Y-106091060D01*
D16*
X160732980Y-108471040D02*
X160732980Y-104528960D01*
X160732980Y-104528960D02*
X158767020Y-104528960D01*
X158767020Y-104528960D02*
X158767020Y-108471040D01*
X158767020Y-108471040D02*
X160732980Y-108471040D01*
D14*
X154801500Y-106093600D02*
X154801500Y-105445900D01*
X154801500Y-105445900D02*
X156201040Y-105445900D01*
X156201040Y-106093600D02*
X156201040Y-105445900D01*
X154801500Y-106093600D02*
X156201040Y-106093600D01*
X154801500Y-107566800D02*
X154801500Y-106916560D01*
X154801500Y-106916560D02*
X156201040Y-106916560D01*
X156201040Y-107566800D02*
X156201040Y-106916560D01*
X154801500Y-107566800D02*
X156201040Y-107566800D01*
X155002160Y-106698120D02*
X155002160Y-106301880D01*
X155002160Y-106301880D02*
X155997840Y-106301880D01*
X155997840Y-106698120D02*
X155997840Y-106301880D01*
X155002160Y-106698120D02*
X155997840Y-106698120D01*
D15*
X156135000Y-106908940D02*
X156135000Y-106091060D01*
X154865000Y-106908940D02*
X154865000Y-106091060D01*
D16*
X156482980Y-108471040D02*
X156482980Y-104528960D01*
X156482980Y-104528960D02*
X154517020Y-104528960D01*
X154517020Y-104528960D02*
X154517020Y-108471040D01*
X154517020Y-108471040D02*
X156482980Y-108471040D01*
D10*
X177506000Y-129493000D02*
X177606000Y-129493000D01*
X177606000Y-129493000D02*
X177606000Y-126793000D01*
X177606000Y-126793000D02*
X173256000Y-126793000D01*
X173256000Y-126793000D02*
X173256000Y-129493000D01*
X173256000Y-129493000D02*
X177556000Y-129493000D01*
X195406000Y-128437000D02*
X195406000Y-128337000D01*
X195406000Y-128337000D02*
X192706000Y-128337000D01*
X192706000Y-128337000D02*
X192706000Y-132687000D01*
X192706000Y-132687000D02*
X195406000Y-132687000D01*
X195406000Y-132687000D02*
X195406000Y-128387000D01*
D20*
X183450420Y-103900000D02*
X183300560Y-103900000D01*
X184298780Y-103900000D02*
X184499440Y-103900000D01*
X183450420Y-103900000D02*
X183450420Y-104649300D01*
X183450420Y-103900000D02*
X183450420Y-103198960D01*
X183450420Y-103900000D02*
X184298780Y-103198960D01*
X184298780Y-103198960D02*
X184298780Y-104601040D01*
X184298780Y-104601040D02*
X183450420Y-103900000D01*
X193050420Y-103900000D02*
X192900560Y-103900000D01*
X193898780Y-103900000D02*
X194099440Y-103900000D01*
X193050420Y-103900000D02*
X193050420Y-104649300D01*
X193050420Y-103900000D02*
X193050420Y-103198960D01*
X193050420Y-103900000D02*
X193898780Y-103198960D01*
X193898780Y-103198960D02*
X193898780Y-104601040D01*
X193898780Y-104601040D02*
X193050420Y-103900000D01*
D14*
X181898500Y-100206400D02*
X181898500Y-100854100D01*
X181898500Y-100854100D02*
X180498960Y-100854100D01*
X180498960Y-100206400D02*
X180498960Y-100854100D01*
X181898500Y-100206400D02*
X180498960Y-100206400D01*
X181898500Y-98733200D02*
X181898500Y-99383440D01*
X181898500Y-99383440D02*
X180498960Y-99383440D01*
X180498960Y-98733200D02*
X180498960Y-99383440D01*
X181898500Y-98733200D02*
X180498960Y-98733200D01*
X181697840Y-99601880D02*
X181697840Y-99998120D01*
X181697840Y-99998120D02*
X180702160Y-99998120D01*
X180702160Y-99601880D02*
X180702160Y-99998120D01*
X181697840Y-99601880D02*
X180702160Y-99601880D01*
D15*
X180565000Y-99391060D02*
X180565000Y-100208940D01*
X181835000Y-99391060D02*
X181835000Y-100208940D01*
D16*
X180217020Y-97828960D02*
X180217020Y-101771040D01*
X180217020Y-101771040D02*
X182182980Y-101771040D01*
X182182980Y-101771040D02*
X182182980Y-97828960D01*
X182182980Y-97828960D02*
X180217020Y-97828960D01*
D15*
X172929651Y-96428573D02*
X171429651Y-96428573D01*
X172501080Y-96928573D01*
X171429651Y-97428573D01*
X172929651Y-97428573D01*
X172786794Y-99000002D02*
X172858223Y-98928573D01*
X172929651Y-98714287D01*
X172929651Y-98571430D01*
X172858223Y-98357145D01*
X172715366Y-98214287D01*
X172572509Y-98142859D01*
X172286794Y-98071430D01*
X172072509Y-98071430D01*
X171786794Y-98142859D01*
X171643937Y-98214287D01*
X171501080Y-98357145D01*
X171429651Y-98571430D01*
X171429651Y-98714287D01*
X171501080Y-98928573D01*
X171572509Y-99000002D01*
X172929651Y-99642859D02*
X171429651Y-99642859D01*
X171429651Y-100214287D01*
X171501080Y-100357145D01*
X171572509Y-100428573D01*
X171715366Y-100500002D01*
X171929651Y-100500002D01*
X172072509Y-100428573D01*
X172143937Y-100357145D01*
X172215366Y-100214287D01*
X172215366Y-99642859D01*
X171572509Y-101071430D02*
X171501080Y-101142859D01*
X171429651Y-101285716D01*
X171429651Y-101642859D01*
X171501080Y-101785716D01*
X171572509Y-101857145D01*
X171715366Y-101928573D01*
X171858223Y-101928573D01*
X172072509Y-101857145D01*
X172929651Y-101000002D01*
X172929651Y-101928573D01*
X171429651Y-102428573D02*
X171429651Y-103357144D01*
X172001080Y-102857144D01*
X172001080Y-103071430D01*
X172072509Y-103214287D01*
X172143937Y-103285716D01*
X172286794Y-103357144D01*
X172643937Y-103357144D01*
X172786794Y-103285716D01*
X172858223Y-103214287D01*
X172929651Y-103071430D01*
X172929651Y-102642858D01*
X172858223Y-102500001D01*
X172786794Y-102428573D01*
X171429651Y-104285715D02*
X171429651Y-104428572D01*
X171501080Y-104571429D01*
X171572509Y-104642858D01*
X171715366Y-104714287D01*
X172001080Y-104785715D01*
X172358223Y-104785715D01*
X172643937Y-104714287D01*
X172786794Y-104642858D01*
X172858223Y-104571429D01*
X172929651Y-104428572D01*
X172929651Y-104285715D01*
X172858223Y-104142858D01*
X172786794Y-104071429D01*
X172643937Y-104000001D01*
X172358223Y-103928572D01*
X172001080Y-103928572D01*
X171715366Y-104000001D01*
X171572509Y-104071429D01*
X171501080Y-104142858D01*
X171429651Y-104285715D01*
X172929651Y-106214286D02*
X172929651Y-105357143D01*
X172929651Y-105785715D02*
X171429651Y-105785715D01*
X171643937Y-105642858D01*
X171786794Y-105500000D01*
X171858223Y-105357143D01*
X171429651Y-106714286D02*
X171429651Y-107714286D01*
X172929651Y-107071429D01*
D21*
X138723666Y-114657143D02*
X138771285Y-114704762D01*
X138914142Y-114752381D01*
X139009380Y-114752381D01*
X139152238Y-114704762D01*
X139247476Y-114609524D01*
X139295095Y-114514286D01*
X139342714Y-114323810D01*
X139342714Y-114180952D01*
X139295095Y-113990476D01*
X139247476Y-113895238D01*
X139152238Y-113800000D01*
X139009380Y-113752381D01*
X138914142Y-113752381D01*
X138771285Y-113800000D01*
X138723666Y-113847619D01*
X138152238Y-114180952D02*
X138247476Y-114133333D01*
X138295095Y-114085714D01*
X138342714Y-113990476D01*
X138342714Y-113942857D01*
X138295095Y-113847619D01*
X138247476Y-113800000D01*
X138152238Y-113752381D01*
X137961761Y-113752381D01*
X137866523Y-113800000D01*
X137818904Y-113847619D01*
X137771285Y-113942857D01*
X137771285Y-113990476D01*
X137818904Y-114085714D01*
X137866523Y-114133333D01*
X137961761Y-114180952D01*
X138152238Y-114180952D01*
X138247476Y-114228571D01*
X138295095Y-114276190D01*
X138342714Y-114371429D01*
X138342714Y-114561905D01*
X138295095Y-114657143D01*
X138247476Y-114704762D01*
X138152238Y-114752381D01*
X137961761Y-114752381D01*
X137866523Y-114704762D01*
X137818904Y-114657143D01*
X137771285Y-114561905D01*
X137771285Y-114371429D01*
X137818904Y-114276190D01*
X137866523Y-114228571D01*
X137961761Y-114180952D01*
X126658666Y-114657143D02*
X126706285Y-114704762D01*
X126849142Y-114752381D01*
X126944380Y-114752381D01*
X127087238Y-114704762D01*
X127182476Y-114609524D01*
X127230095Y-114514286D01*
X127277714Y-114323810D01*
X127277714Y-114180952D01*
X127230095Y-113990476D01*
X127182476Y-113895238D01*
X127087238Y-113800000D01*
X126944380Y-113752381D01*
X126849142Y-113752381D01*
X126706285Y-113800000D01*
X126658666Y-113847619D01*
X126182476Y-114752381D02*
X125992000Y-114752381D01*
X125896761Y-114704762D01*
X125849142Y-114657143D01*
X125753904Y-114514286D01*
X125706285Y-114323810D01*
X125706285Y-113942857D01*
X125753904Y-113847619D01*
X125801523Y-113800000D01*
X125896761Y-113752381D01*
X126087238Y-113752381D01*
X126182476Y-113800000D01*
X126230095Y-113847619D01*
X126277714Y-113942857D01*
X126277714Y-114180952D01*
X126230095Y-114276190D01*
X126182476Y-114323810D01*
X126087238Y-114371429D01*
X125896761Y-114371429D01*
X125801523Y-114323810D01*
X125753904Y-114276190D01*
X125706285Y-114180952D01*
D22*
X142928571Y-124166667D02*
X142928571Y-123833333D01*
X143452381Y-123833333D02*
X142452381Y-123833333D01*
X142452381Y-124309524D01*
X143452381Y-125214286D02*
X143452381Y-124642857D01*
X143452381Y-124928571D02*
X142452381Y-124928571D01*
X142595238Y-124833333D01*
X142690476Y-124738095D01*
X142738095Y-124642857D01*
X123928571Y-124116667D02*
X123928571Y-123783333D01*
X124452381Y-123783333D02*
X123452381Y-123783333D01*
X123452381Y-124259524D01*
X123547619Y-124592857D02*
X123500000Y-124640476D01*
X123452381Y-124735714D01*
X123452381Y-124973810D01*
X123500000Y-125069048D01*
X123547619Y-125116667D01*
X123642857Y-125164286D01*
X123738095Y-125164286D01*
X123880952Y-125116667D01*
X124452381Y-124545238D01*
X124452381Y-125164286D01*
X104928571Y-124166667D02*
X104928571Y-123833333D01*
X105452381Y-123833333D02*
X104452381Y-123833333D01*
X104452381Y-124309524D01*
X104452381Y-124595238D02*
X104452381Y-125214286D01*
X104833333Y-124880952D01*
X104833333Y-125023810D01*
X104880952Y-125119048D01*
X104928571Y-125166667D01*
X105023810Y-125214286D01*
X105261905Y-125214286D01*
X105357143Y-125166667D01*
X105404762Y-125119048D01*
X105452381Y-125023810D01*
X105452381Y-124738095D01*
X105404762Y-124642857D01*
X105357143Y-124595238D01*
D21*
X129416666Y-104202381D02*
X129750000Y-103726190D01*
X129988095Y-104202381D02*
X129988095Y-103202381D01*
X129607142Y-103202381D01*
X129511904Y-103250000D01*
X129464285Y-103297619D01*
X129416666Y-103392857D01*
X129416666Y-103535714D01*
X129464285Y-103630952D01*
X129511904Y-103678571D01*
X129607142Y-103726190D01*
X129988095Y-103726190D01*
X128845238Y-103630952D02*
X128940476Y-103583333D01*
X128988095Y-103535714D01*
X129035714Y-103440476D01*
X129035714Y-103392857D01*
X128988095Y-103297619D01*
X128940476Y-103250000D01*
X128845238Y-103202381D01*
X128654761Y-103202381D01*
X128559523Y-103250000D01*
X128511904Y-103297619D01*
X128464285Y-103392857D01*
X128464285Y-103440476D01*
X128511904Y-103535714D01*
X128559523Y-103583333D01*
X128654761Y-103630952D01*
X128845238Y-103630952D01*
X128940476Y-103678571D01*
X128988095Y-103726190D01*
X129035714Y-103821429D01*
X129035714Y-104011905D01*
X128988095Y-104107143D01*
X128940476Y-104154762D01*
X128845238Y-104202381D01*
X128654761Y-104202381D01*
X128559523Y-104154762D01*
X128511904Y-104107143D01*
X128464285Y-104011905D01*
X128464285Y-103821429D01*
X128511904Y-103726190D01*
X128559523Y-103678571D01*
X128654761Y-103630952D01*
X135642857Y-112702381D02*
X135976191Y-112226190D01*
X136214286Y-112702381D02*
X136214286Y-111702381D01*
X135833333Y-111702381D01*
X135738095Y-111750000D01*
X135690476Y-111797619D01*
X135642857Y-111892857D01*
X135642857Y-112035714D01*
X135690476Y-112130952D01*
X135738095Y-112178571D01*
X135833333Y-112226190D01*
X136214286Y-112226190D01*
X134690476Y-112702381D02*
X135261905Y-112702381D01*
X134976191Y-112702381D02*
X134976191Y-111702381D01*
X135071429Y-111845238D01*
X135166667Y-111940476D01*
X135261905Y-111988095D01*
X133833333Y-112035714D02*
X133833333Y-112702381D01*
X134071429Y-111654762D02*
X134309524Y-112369048D01*
X133690476Y-112369048D01*
X130642857Y-112702381D02*
X130976191Y-112226190D01*
X131214286Y-112702381D02*
X131214286Y-111702381D01*
X130833333Y-111702381D01*
X130738095Y-111750000D01*
X130690476Y-111797619D01*
X130642857Y-111892857D01*
X130642857Y-112035714D01*
X130690476Y-112130952D01*
X130738095Y-112178571D01*
X130833333Y-112226190D01*
X131214286Y-112226190D01*
X129690476Y-112702381D02*
X130261905Y-112702381D01*
X129976191Y-112702381D02*
X129976191Y-111702381D01*
X130071429Y-111845238D01*
X130166667Y-111940476D01*
X130261905Y-111988095D01*
X128785714Y-111702381D02*
X129261905Y-111702381D01*
X129309524Y-112178571D01*
X129261905Y-112130952D01*
X129166667Y-112083333D01*
X128928571Y-112083333D01*
X128833333Y-112130952D01*
X128785714Y-112178571D01*
X128738095Y-112273810D01*
X128738095Y-112511905D01*
X128785714Y-112607143D01*
X128833333Y-112654762D01*
X128928571Y-112702381D01*
X129166667Y-112702381D01*
X129261905Y-112654762D01*
X129309524Y-112607143D01*
X136642857Y-104202381D02*
X136976191Y-103726190D01*
X137214286Y-104202381D02*
X137214286Y-103202381D01*
X136833333Y-103202381D01*
X136738095Y-103250000D01*
X136690476Y-103297619D01*
X136642857Y-103392857D01*
X136642857Y-103535714D01*
X136690476Y-103630952D01*
X136738095Y-103678571D01*
X136833333Y-103726190D01*
X137214286Y-103726190D01*
X135690476Y-104202381D02*
X136261905Y-104202381D01*
X135976191Y-104202381D02*
X135976191Y-103202381D01*
X136071429Y-103345238D01*
X136166667Y-103440476D01*
X136261905Y-103488095D01*
X135214286Y-104202381D02*
X135023810Y-104202381D01*
X134928571Y-104154762D01*
X134880952Y-104107143D01*
X134785714Y-103964286D01*
X134738095Y-103773810D01*
X134738095Y-103392857D01*
X134785714Y-103297619D01*
X134833333Y-103250000D01*
X134928571Y-103202381D01*
X135119048Y-103202381D01*
X135214286Y-103250000D01*
X135261905Y-103297619D01*
X135309524Y-103392857D01*
X135309524Y-103630952D01*
X135261905Y-103726190D01*
X135214286Y-103773810D01*
X135119048Y-103821429D01*
X134928571Y-103821429D01*
X134833333Y-103773810D01*
X134785714Y-103726190D01*
X134738095Y-103630952D01*
X133142857Y-99702381D02*
X133476191Y-99226190D01*
X133714286Y-99702381D02*
X133714286Y-98702381D01*
X133333333Y-98702381D01*
X133238095Y-98750000D01*
X133190476Y-98797619D01*
X133142857Y-98892857D01*
X133142857Y-99035714D01*
X133190476Y-99130952D01*
X133238095Y-99178571D01*
X133333333Y-99226190D01*
X133714286Y-99226190D01*
X132761905Y-98797619D02*
X132714286Y-98750000D01*
X132619048Y-98702381D01*
X132380952Y-98702381D01*
X132285714Y-98750000D01*
X132238095Y-98797619D01*
X132190476Y-98892857D01*
X132190476Y-98988095D01*
X132238095Y-99130952D01*
X132809524Y-99702381D01*
X132190476Y-99702381D01*
X131571429Y-98702381D02*
X131476190Y-98702381D01*
X131380952Y-98750000D01*
X131333333Y-98797619D01*
X131285714Y-98892857D01*
X131238095Y-99083333D01*
X131238095Y-99321429D01*
X131285714Y-99511905D01*
X131333333Y-99607143D01*
X131380952Y-99654762D01*
X131476190Y-99702381D01*
X131571429Y-99702381D01*
X131666667Y-99654762D01*
X131714286Y-99607143D01*
X131761905Y-99511905D01*
X131809524Y-99321429D01*
X131809524Y-99083333D01*
X131761905Y-98892857D01*
X131714286Y-98797619D01*
X131666667Y-98750000D01*
X131571429Y-98702381D01*
X211666667Y-75452381D02*
X211095238Y-75452381D01*
X211380953Y-76452381D02*
X211380953Y-75452381D01*
X210761905Y-76452381D02*
X210761905Y-75452381D01*
X210380952Y-75452381D01*
X210285714Y-75500000D01*
X210238095Y-75547619D01*
X210190476Y-75642857D01*
X210190476Y-75785714D01*
X210238095Y-75880952D01*
X210285714Y-75928571D01*
X210380952Y-75976190D01*
X210761905Y-75976190D01*
X209809524Y-76404762D02*
X209666667Y-76452381D01*
X209428571Y-76452381D01*
X209333333Y-76404762D01*
X209285714Y-76357143D01*
X209238095Y-76261905D01*
X209238095Y-76166667D01*
X209285714Y-76071429D01*
X209333333Y-76023810D01*
X209428571Y-75976190D01*
X209619048Y-75928571D01*
X209714286Y-75880952D01*
X209761905Y-75833333D01*
X209809524Y-75738095D01*
X209809524Y-75642857D01*
X209761905Y-75547619D01*
X209714286Y-75500000D01*
X209619048Y-75452381D01*
X209380952Y-75452381D01*
X209238095Y-75500000D01*
X208857143Y-75547619D02*
X208809524Y-75500000D01*
X208714286Y-75452381D01*
X208476190Y-75452381D01*
X208380952Y-75500000D01*
X208333333Y-75547619D01*
X208285714Y-75642857D01*
X208285714Y-75738095D01*
X208333333Y-75880952D01*
X208904762Y-76452381D01*
X208285714Y-76452381D01*
X207380952Y-75452381D02*
X207857143Y-75452381D01*
X207904762Y-75928571D01*
X207857143Y-75880952D01*
X207761905Y-75833333D01*
X207523809Y-75833333D01*
X207428571Y-75880952D01*
X207380952Y-75928571D01*
X207333333Y-76023810D01*
X207333333Y-76261905D01*
X207380952Y-76357143D01*
X207428571Y-76404762D01*
X207523809Y-76452381D01*
X207761905Y-76452381D01*
X207857143Y-76404762D01*
X207904762Y-76357143D01*
X206380952Y-76452381D02*
X206952381Y-76452381D01*
X206666667Y-76452381D02*
X206666667Y-75452381D01*
X206761905Y-75595238D01*
X206857143Y-75690476D01*
X206952381Y-75738095D01*
X206047619Y-75452381D02*
X205428571Y-75452381D01*
X205761905Y-75833333D01*
X205619047Y-75833333D01*
X205523809Y-75880952D01*
X205476190Y-75928571D01*
X205428571Y-76023810D01*
X205428571Y-76261905D01*
X205476190Y-76357143D01*
X205523809Y-76404762D01*
X205619047Y-76452381D01*
X205904762Y-76452381D01*
X206000000Y-76404762D01*
X206047619Y-76357143D01*
X211666667Y-95452381D02*
X211095238Y-95452381D01*
X211380953Y-96452381D02*
X211380953Y-95452381D01*
X210761905Y-96452381D02*
X210761905Y-95452381D01*
X210380952Y-95452381D01*
X210285714Y-95500000D01*
X210238095Y-95547619D01*
X210190476Y-95642857D01*
X210190476Y-95785714D01*
X210238095Y-95880952D01*
X210285714Y-95928571D01*
X210380952Y-95976190D01*
X210761905Y-95976190D01*
X209809524Y-96404762D02*
X209666667Y-96452381D01*
X209428571Y-96452381D01*
X209333333Y-96404762D01*
X209285714Y-96357143D01*
X209238095Y-96261905D01*
X209238095Y-96166667D01*
X209285714Y-96071429D01*
X209333333Y-96023810D01*
X209428571Y-95976190D01*
X209619048Y-95928571D01*
X209714286Y-95880952D01*
X209761905Y-95833333D01*
X209809524Y-95738095D01*
X209809524Y-95642857D01*
X209761905Y-95547619D01*
X209714286Y-95500000D01*
X209619048Y-95452381D01*
X209380952Y-95452381D01*
X209238095Y-95500000D01*
X208857143Y-95547619D02*
X208809524Y-95500000D01*
X208714286Y-95452381D01*
X208476190Y-95452381D01*
X208380952Y-95500000D01*
X208333333Y-95547619D01*
X208285714Y-95642857D01*
X208285714Y-95738095D01*
X208333333Y-95880952D01*
X208904762Y-96452381D01*
X208285714Y-96452381D01*
X207380952Y-95452381D02*
X207857143Y-95452381D01*
X207904762Y-95928571D01*
X207857143Y-95880952D01*
X207761905Y-95833333D01*
X207523809Y-95833333D01*
X207428571Y-95880952D01*
X207380952Y-95928571D01*
X207333333Y-96023810D01*
X207333333Y-96261905D01*
X207380952Y-96357143D01*
X207428571Y-96404762D01*
X207523809Y-96452381D01*
X207761905Y-96452381D01*
X207857143Y-96404762D01*
X207904762Y-96357143D01*
X206380952Y-96452381D02*
X206952381Y-96452381D01*
X206666667Y-96452381D02*
X206666667Y-95452381D01*
X206761905Y-95595238D01*
X206857143Y-95690476D01*
X206952381Y-95738095D01*
X206047619Y-95452381D02*
X205428571Y-95452381D01*
X205761905Y-95833333D01*
X205619047Y-95833333D01*
X205523809Y-95880952D01*
X205476190Y-95928571D01*
X205428571Y-96023810D01*
X205428571Y-96261905D01*
X205476190Y-96357143D01*
X205523809Y-96404762D01*
X205619047Y-96452381D01*
X205904762Y-96452381D01*
X206000000Y-96404762D01*
X206047619Y-96357143D01*
X211666667Y-115452381D02*
X211095238Y-115452381D01*
X211380953Y-116452381D02*
X211380953Y-115452381D01*
X210761905Y-116452381D02*
X210761905Y-115452381D01*
X210380952Y-115452381D01*
X210285714Y-115500000D01*
X210238095Y-115547619D01*
X210190476Y-115642857D01*
X210190476Y-115785714D01*
X210238095Y-115880952D01*
X210285714Y-115928571D01*
X210380952Y-115976190D01*
X210761905Y-115976190D01*
X209809524Y-116404762D02*
X209666667Y-116452381D01*
X209428571Y-116452381D01*
X209333333Y-116404762D01*
X209285714Y-116357143D01*
X209238095Y-116261905D01*
X209238095Y-116166667D01*
X209285714Y-116071429D01*
X209333333Y-116023810D01*
X209428571Y-115976190D01*
X209619048Y-115928571D01*
X209714286Y-115880952D01*
X209761905Y-115833333D01*
X209809524Y-115738095D01*
X209809524Y-115642857D01*
X209761905Y-115547619D01*
X209714286Y-115500000D01*
X209619048Y-115452381D01*
X209380952Y-115452381D01*
X209238095Y-115500000D01*
X208857143Y-115547619D02*
X208809524Y-115500000D01*
X208714286Y-115452381D01*
X208476190Y-115452381D01*
X208380952Y-115500000D01*
X208333333Y-115547619D01*
X208285714Y-115642857D01*
X208285714Y-115738095D01*
X208333333Y-115880952D01*
X208904762Y-116452381D01*
X208285714Y-116452381D01*
X207380952Y-115452381D02*
X207857143Y-115452381D01*
X207904762Y-115928571D01*
X207857143Y-115880952D01*
X207761905Y-115833333D01*
X207523809Y-115833333D01*
X207428571Y-115880952D01*
X207380952Y-115928571D01*
X207333333Y-116023810D01*
X207333333Y-116261905D01*
X207380952Y-116357143D01*
X207428571Y-116404762D01*
X207523809Y-116452381D01*
X207761905Y-116452381D01*
X207857143Y-116404762D01*
X207904762Y-116357143D01*
X206380952Y-116452381D02*
X206952381Y-116452381D01*
X206666667Y-116452381D02*
X206666667Y-115452381D01*
X206761905Y-115595238D01*
X206857143Y-115690476D01*
X206952381Y-115738095D01*
X206047619Y-115452381D02*
X205428571Y-115452381D01*
X205761905Y-115833333D01*
X205619047Y-115833333D01*
X205523809Y-115880952D01*
X205476190Y-115928571D01*
X205428571Y-116023810D01*
X205428571Y-116261905D01*
X205476190Y-116357143D01*
X205523809Y-116404762D01*
X205619047Y-116452381D01*
X205904762Y-116452381D01*
X206000000Y-116404762D01*
X206047619Y-116357143D01*
D10*
X118479348Y-114153967D02*
X118003157Y-114153967D01*
X118574586Y-114439681D02*
X118241253Y-113439681D01*
X117907919Y-114439681D01*
X117669824Y-113439681D02*
X117003157Y-113439681D01*
X117669824Y-114439681D01*
X117003157Y-114439681D01*
X116098395Y-114439681D02*
X116669824Y-114439681D01*
X116384110Y-114439681D02*
X116384110Y-113439681D01*
X116479348Y-113582538D01*
X116574586Y-113677776D01*
X116669824Y-113725395D01*
X115146014Y-114439681D02*
X115717443Y-114439681D01*
X115431729Y-114439681D02*
X115431729Y-113439681D01*
X115526967Y-113582538D01*
X115622205Y-113677776D01*
X115717443Y-113725395D01*
X114193633Y-114439681D02*
X114765062Y-114439681D01*
X114479348Y-114439681D02*
X114479348Y-113439681D01*
X114574586Y-113582538D01*
X114669824Y-113677776D01*
X114765062Y-113725395D01*
X113860300Y-113439681D02*
X113193633Y-113439681D01*
X113622205Y-114439681D01*
D21*
X92714286Y-126952381D02*
X92714286Y-125952381D01*
X92380952Y-126666667D01*
X92047619Y-125952381D01*
X92047619Y-126952381D01*
X91000000Y-126857143D02*
X91047619Y-126904762D01*
X91190476Y-126952381D01*
X91285714Y-126952381D01*
X91428572Y-126904762D01*
X91523810Y-126809524D01*
X91571429Y-126714286D01*
X91619048Y-126523810D01*
X91619048Y-126380952D01*
X91571429Y-126190476D01*
X91523810Y-126095238D01*
X91428572Y-126000000D01*
X91285714Y-125952381D01*
X91190476Y-125952381D01*
X91047619Y-126000000D01*
X91000000Y-126047619D01*
X90571429Y-126952381D02*
X90571429Y-125952381D01*
X90190476Y-125952381D01*
X90095238Y-126000000D01*
X90047619Y-126047619D01*
X90000000Y-126142857D01*
X90000000Y-126285714D01*
X90047619Y-126380952D01*
X90095238Y-126428571D01*
X90190476Y-126476190D01*
X90571429Y-126476190D01*
X89666667Y-125952381D02*
X89000000Y-125952381D01*
X89428572Y-126952381D01*
X88714286Y-125952381D02*
X88095238Y-125952381D01*
X88428572Y-126333333D01*
X88285714Y-126333333D01*
X88190476Y-126380952D01*
X88142857Y-126428571D01*
X88095238Y-126523810D01*
X88095238Y-126761905D01*
X88142857Y-126857143D01*
X88190476Y-126904762D01*
X88285714Y-126952381D01*
X88571429Y-126952381D01*
X88666667Y-126904762D01*
X88714286Y-126857143D01*
X87523810Y-126380952D02*
X87619048Y-126333333D01*
X87666667Y-126285714D01*
X87714286Y-126190476D01*
X87714286Y-126142857D01*
X87666667Y-126047619D01*
X87619048Y-126000000D01*
X87523810Y-125952381D01*
X87333333Y-125952381D01*
X87238095Y-126000000D01*
X87190476Y-126047619D01*
X87142857Y-126142857D01*
X87142857Y-126190476D01*
X87190476Y-126285714D01*
X87238095Y-126333333D01*
X87333333Y-126380952D01*
X87523810Y-126380952D01*
X87619048Y-126428571D01*
X87666667Y-126476190D01*
X87714286Y-126571429D01*
X87714286Y-126761905D01*
X87666667Y-126857143D01*
X87619048Y-126904762D01*
X87523810Y-126952381D01*
X87333333Y-126952381D01*
X87238095Y-126904762D01*
X87190476Y-126857143D01*
X87142857Y-126761905D01*
X87142857Y-126571429D01*
X87190476Y-126476190D01*
X87238095Y-126428571D01*
X87333333Y-126380952D01*
X86809524Y-125952381D02*
X86190476Y-125952381D01*
X86523810Y-126333333D01*
X86380952Y-126333333D01*
X86285714Y-126380952D01*
X86238095Y-126428571D01*
X86190476Y-126523810D01*
X86190476Y-126761905D01*
X86238095Y-126857143D01*
X86285714Y-126904762D01*
X86380952Y-126952381D01*
X86666667Y-126952381D01*
X86761905Y-126904762D01*
X86809524Y-126857143D01*
X85857143Y-125952381D02*
X85238095Y-125952381D01*
X85571429Y-126333333D01*
X85428571Y-126333333D01*
X85333333Y-126380952D01*
X85285714Y-126428571D01*
X85238095Y-126523810D01*
X85238095Y-126761905D01*
X85285714Y-126857143D01*
X85333333Y-126904762D01*
X85428571Y-126952381D01*
X85714286Y-126952381D01*
X85809524Y-126904762D01*
X85857143Y-126857143D01*
X91642857Y-121666667D02*
X91166666Y-121666667D01*
X91738095Y-121952381D02*
X91404762Y-120952381D01*
X91071428Y-121952381D01*
X90738095Y-121952381D02*
X90738095Y-120952381D01*
X90500000Y-120952381D01*
X90357142Y-121000000D01*
X90261904Y-121095238D01*
X90214285Y-121190476D01*
X90166666Y-121380952D01*
X90166666Y-121523810D01*
X90214285Y-121714286D01*
X90261904Y-121809524D01*
X90357142Y-121904762D01*
X90500000Y-121952381D01*
X90738095Y-121952381D01*
X89261904Y-120952381D02*
X89738095Y-120952381D01*
X89785714Y-121428571D01*
X89738095Y-121380952D01*
X89642857Y-121333333D01*
X89404761Y-121333333D01*
X89309523Y-121380952D01*
X89261904Y-121428571D01*
X89214285Y-121523810D01*
X89214285Y-121761905D01*
X89261904Y-121857143D01*
X89309523Y-121904762D01*
X89404761Y-121952381D01*
X89642857Y-121952381D01*
X89738095Y-121904762D01*
X89785714Y-121857143D01*
X88833333Y-121047619D02*
X88785714Y-121000000D01*
X88690476Y-120952381D01*
X88452380Y-120952381D01*
X88357142Y-121000000D01*
X88309523Y-121047619D01*
X88261904Y-121142857D01*
X88261904Y-121238095D01*
X88309523Y-121380952D01*
X88880952Y-121952381D01*
X88261904Y-121952381D01*
X87928571Y-120952381D02*
X87261904Y-120952381D01*
X87690476Y-121952381D01*
X86452380Y-121285714D02*
X86452380Y-121952381D01*
X86690476Y-120904762D02*
X86928571Y-121619048D01*
X86309523Y-121619048D01*
X111166666Y-119357143D02*
X111214285Y-119404762D01*
X111357142Y-119452381D01*
X111452380Y-119452381D01*
X111595238Y-119404762D01*
X111690476Y-119309524D01*
X111738095Y-119214286D01*
X111785714Y-119023810D01*
X111785714Y-118880952D01*
X111738095Y-118690476D01*
X111690476Y-118595238D01*
X111595238Y-118500000D01*
X111452380Y-118452381D01*
X111357142Y-118452381D01*
X111214285Y-118500000D01*
X111166666Y-118547619D01*
X110214285Y-119452381D02*
X110785714Y-119452381D01*
X110500000Y-119452381D02*
X110500000Y-118452381D01*
X110595238Y-118595238D01*
X110690476Y-118690476D01*
X110785714Y-118738095D01*
X121166666Y-119357143D02*
X121214285Y-119404762D01*
X121357142Y-119452381D01*
X121452380Y-119452381D01*
X121595238Y-119404762D01*
X121690476Y-119309524D01*
X121738095Y-119214286D01*
X121785714Y-119023810D01*
X121785714Y-118880952D01*
X121738095Y-118690476D01*
X121690476Y-118595238D01*
X121595238Y-118500000D01*
X121452380Y-118452381D01*
X121357142Y-118452381D01*
X121214285Y-118500000D01*
X121166666Y-118547619D01*
X120785714Y-118547619D02*
X120738095Y-118500000D01*
X120642857Y-118452381D01*
X120404761Y-118452381D01*
X120309523Y-118500000D01*
X120261904Y-118547619D01*
X120214285Y-118642857D01*
X120214285Y-118738095D01*
X120261904Y-118880952D01*
X120833333Y-119452381D01*
X120214285Y-119452381D01*
X80938666Y-132183143D02*
X80986285Y-132230762D01*
X81129142Y-132278381D01*
X81224380Y-132278381D01*
X81367238Y-132230762D01*
X81462476Y-132135524D01*
X81510095Y-132040286D01*
X81557714Y-131849810D01*
X81557714Y-131706952D01*
X81510095Y-131516476D01*
X81462476Y-131421238D01*
X81367238Y-131326000D01*
X81224380Y-131278381D01*
X81129142Y-131278381D01*
X80986285Y-131326000D01*
X80938666Y-131373619D01*
X80605333Y-131278381D02*
X79986285Y-131278381D01*
X80319619Y-131659333D01*
X80176761Y-131659333D01*
X80081523Y-131706952D01*
X80033904Y-131754571D01*
X79986285Y-131849810D01*
X79986285Y-132087905D01*
X80033904Y-132183143D01*
X80081523Y-132230762D01*
X80176761Y-132278381D01*
X80462476Y-132278381D01*
X80557714Y-132230762D01*
X80605333Y-132183143D01*
X80166666Y-120357143D02*
X80214285Y-120404762D01*
X80357142Y-120452381D01*
X80452380Y-120452381D01*
X80595238Y-120404762D01*
X80690476Y-120309524D01*
X80738095Y-120214286D01*
X80785714Y-120023810D01*
X80785714Y-119880952D01*
X80738095Y-119690476D01*
X80690476Y-119595238D01*
X80595238Y-119500000D01*
X80452380Y-119452381D01*
X80357142Y-119452381D01*
X80214285Y-119500000D01*
X80166666Y-119547619D01*
X79309523Y-119785714D02*
X79309523Y-120452381D01*
X79547619Y-119404762D02*
X79785714Y-120119048D01*
X79166666Y-120119048D01*
X86166666Y-132857143D02*
X86214285Y-132904762D01*
X86357142Y-132952381D01*
X86452380Y-132952381D01*
X86595238Y-132904762D01*
X86690476Y-132809524D01*
X86738095Y-132714286D01*
X86785714Y-132523810D01*
X86785714Y-132380952D01*
X86738095Y-132190476D01*
X86690476Y-132095238D01*
X86595238Y-132000000D01*
X86452380Y-131952381D01*
X86357142Y-131952381D01*
X86214285Y-132000000D01*
X86166666Y-132047619D01*
X85261904Y-131952381D02*
X85738095Y-131952381D01*
X85785714Y-132428571D01*
X85738095Y-132380952D01*
X85642857Y-132333333D01*
X85404761Y-132333333D01*
X85309523Y-132380952D01*
X85261904Y-132428571D01*
X85214285Y-132523810D01*
X85214285Y-132761905D01*
X85261904Y-132857143D01*
X85309523Y-132904762D01*
X85404761Y-132952381D01*
X85642857Y-132952381D01*
X85738095Y-132904762D01*
X85785714Y-132857143D01*
X84166666Y-129357143D02*
X84214285Y-129404762D01*
X84357142Y-129452381D01*
X84452380Y-129452381D01*
X84595238Y-129404762D01*
X84690476Y-129309524D01*
X84738095Y-129214286D01*
X84785714Y-129023810D01*
X84785714Y-128880952D01*
X84738095Y-128690476D01*
X84690476Y-128595238D01*
X84595238Y-128500000D01*
X84452380Y-128452381D01*
X84357142Y-128452381D01*
X84214285Y-128500000D01*
X84166666Y-128547619D01*
X83309523Y-128452381D02*
X83500000Y-128452381D01*
X83595238Y-128500000D01*
X83642857Y-128547619D01*
X83738095Y-128690476D01*
X83785714Y-128880952D01*
X83785714Y-129261905D01*
X83738095Y-129357143D01*
X83690476Y-129404762D01*
X83595238Y-129452381D01*
X83404761Y-129452381D01*
X83309523Y-129404762D01*
X83261904Y-129357143D01*
X83214285Y-129261905D01*
X83214285Y-129023810D01*
X83261904Y-128928571D01*
X83309523Y-128880952D01*
X83404761Y-128833333D01*
X83595238Y-128833333D01*
X83690476Y-128880952D01*
X83738095Y-128928571D01*
X83785714Y-129023810D01*
X81666666Y-129357143D02*
X81714285Y-129404762D01*
X81857142Y-129452381D01*
X81952380Y-129452381D01*
X82095238Y-129404762D01*
X82190476Y-129309524D01*
X82238095Y-129214286D01*
X82285714Y-129023810D01*
X82285714Y-128880952D01*
X82238095Y-128690476D01*
X82190476Y-128595238D01*
X82095238Y-128500000D01*
X81952380Y-128452381D01*
X81857142Y-128452381D01*
X81714285Y-128500000D01*
X81666666Y-128547619D01*
X81333333Y-128452381D02*
X80666666Y-128452381D01*
X81095238Y-129452381D01*
X164142857Y-114607143D02*
X164190476Y-114654762D01*
X164333333Y-114702381D01*
X164428571Y-114702381D01*
X164571429Y-114654762D01*
X164666667Y-114559524D01*
X164714286Y-114464286D01*
X164761905Y-114273810D01*
X164761905Y-114130952D01*
X164714286Y-113940476D01*
X164666667Y-113845238D01*
X164571429Y-113750000D01*
X164428571Y-113702381D01*
X164333333Y-113702381D01*
X164190476Y-113750000D01*
X164142857Y-113797619D01*
X163190476Y-114702381D02*
X163761905Y-114702381D01*
X163476191Y-114702381D02*
X163476191Y-113702381D01*
X163571429Y-113845238D01*
X163666667Y-113940476D01*
X163761905Y-113988095D01*
X162571429Y-113702381D02*
X162476190Y-113702381D01*
X162380952Y-113750000D01*
X162333333Y-113797619D01*
X162285714Y-113892857D01*
X162238095Y-114083333D01*
X162238095Y-114321429D01*
X162285714Y-114511905D01*
X162333333Y-114607143D01*
X162380952Y-114654762D01*
X162476190Y-114702381D01*
X162571429Y-114702381D01*
X162666667Y-114654762D01*
X162714286Y-114607143D01*
X162761905Y-114511905D01*
X162809524Y-114321429D01*
X162809524Y-114083333D01*
X162761905Y-113892857D01*
X162714286Y-113797619D01*
X162666667Y-113750000D01*
X162571429Y-113702381D01*
X152142857Y-114607143D02*
X152190476Y-114654762D01*
X152333333Y-114702381D01*
X152428571Y-114702381D01*
X152571429Y-114654762D01*
X152666667Y-114559524D01*
X152714286Y-114464286D01*
X152761905Y-114273810D01*
X152761905Y-114130952D01*
X152714286Y-113940476D01*
X152666667Y-113845238D01*
X152571429Y-113750000D01*
X152428571Y-113702381D01*
X152333333Y-113702381D01*
X152190476Y-113750000D01*
X152142857Y-113797619D01*
X151190476Y-114702381D02*
X151761905Y-114702381D01*
X151476191Y-114702381D02*
X151476191Y-113702381D01*
X151571429Y-113845238D01*
X151666667Y-113940476D01*
X151761905Y-113988095D01*
X150238095Y-114702381D02*
X150809524Y-114702381D01*
X150523810Y-114702381D02*
X150523810Y-113702381D01*
X150619048Y-113845238D01*
X150714286Y-113940476D01*
X150809524Y-113988095D01*
X83666666Y-52452381D02*
X84000000Y-51976190D01*
X84238095Y-52452381D02*
X84238095Y-51452381D01*
X83857142Y-51452381D01*
X83761904Y-51500000D01*
X83714285Y-51547619D01*
X83666666Y-51642857D01*
X83666666Y-51785714D01*
X83714285Y-51880952D01*
X83761904Y-51928571D01*
X83857142Y-51976190D01*
X84238095Y-51976190D01*
X82714285Y-52452381D02*
X83285714Y-52452381D01*
X83000000Y-52452381D02*
X83000000Y-51452381D01*
X83095238Y-51595238D01*
X83190476Y-51690476D01*
X83285714Y-51738095D01*
X95166666Y-52452381D02*
X95500000Y-51976190D01*
X95738095Y-52452381D02*
X95738095Y-51452381D01*
X95357142Y-51452381D01*
X95261904Y-51500000D01*
X95214285Y-51547619D01*
X95166666Y-51642857D01*
X95166666Y-51785714D01*
X95214285Y-51880952D01*
X95261904Y-51928571D01*
X95357142Y-51976190D01*
X95738095Y-51976190D01*
X94785714Y-51547619D02*
X94738095Y-51500000D01*
X94642857Y-51452381D01*
X94404761Y-51452381D01*
X94309523Y-51500000D01*
X94261904Y-51547619D01*
X94214285Y-51642857D01*
X94214285Y-51738095D01*
X94261904Y-51880952D01*
X94833333Y-52452381D01*
X94214285Y-52452381D01*
X80113166Y-142057381D02*
X80446500Y-141581190D01*
X80684595Y-142057381D02*
X80684595Y-141057381D01*
X80303642Y-141057381D01*
X80208404Y-141105000D01*
X80160785Y-141152619D01*
X80113166Y-141247857D01*
X80113166Y-141390714D01*
X80160785Y-141485952D01*
X80208404Y-141533571D01*
X80303642Y-141581190D01*
X80684595Y-141581190D01*
X79256023Y-141390714D02*
X79256023Y-142057381D01*
X79494119Y-141009762D02*
X79732214Y-141724048D01*
X79113166Y-141724048D01*
X80113166Y-139771381D02*
X80446500Y-139295190D01*
X80684595Y-139771381D02*
X80684595Y-138771381D01*
X80303642Y-138771381D01*
X80208404Y-138819000D01*
X80160785Y-138866619D01*
X80113166Y-138961857D01*
X80113166Y-139104714D01*
X80160785Y-139199952D01*
X80208404Y-139247571D01*
X80303642Y-139295190D01*
X80684595Y-139295190D01*
X79208404Y-138771381D02*
X79684595Y-138771381D01*
X79732214Y-139247571D01*
X79684595Y-139199952D01*
X79589357Y-139152333D01*
X79351261Y-139152333D01*
X79256023Y-139199952D01*
X79208404Y-139247571D01*
X79160785Y-139342810D01*
X79160785Y-139580905D01*
X79208404Y-139676143D01*
X79256023Y-139723762D01*
X79351261Y-139771381D01*
X79589357Y-139771381D01*
X79684595Y-139723762D01*
X79732214Y-139676143D01*
X80166666Y-122952381D02*
X80500000Y-122476190D01*
X80738095Y-122952381D02*
X80738095Y-121952381D01*
X80357142Y-121952381D01*
X80261904Y-122000000D01*
X80214285Y-122047619D01*
X80166666Y-122142857D01*
X80166666Y-122285714D01*
X80214285Y-122380952D01*
X80261904Y-122428571D01*
X80357142Y-122476190D01*
X80738095Y-122476190D01*
X79309523Y-121952381D02*
X79500000Y-121952381D01*
X79595238Y-122000000D01*
X79642857Y-122047619D01*
X79738095Y-122190476D01*
X79785714Y-122380952D01*
X79785714Y-122761905D01*
X79738095Y-122857143D01*
X79690476Y-122904762D01*
X79595238Y-122952381D01*
X79404761Y-122952381D01*
X79309523Y-122904762D01*
X79261904Y-122857143D01*
X79214285Y-122761905D01*
X79214285Y-122523810D01*
X79261904Y-122428571D01*
X79309523Y-122380952D01*
X79404761Y-122333333D01*
X79595238Y-122333333D01*
X79690476Y-122380952D01*
X79738095Y-122428571D01*
X79785714Y-122523810D01*
X94666666Y-131452381D02*
X95000000Y-130976190D01*
X95238095Y-131452381D02*
X95238095Y-130452381D01*
X94857142Y-130452381D01*
X94761904Y-130500000D01*
X94714285Y-130547619D01*
X94666666Y-130642857D01*
X94666666Y-130785714D01*
X94714285Y-130880952D01*
X94761904Y-130928571D01*
X94857142Y-130976190D01*
X95238095Y-130976190D01*
X94333333Y-130452381D02*
X93666666Y-130452381D01*
X94095238Y-131452381D01*
X157666666Y-99702381D02*
X158000000Y-99226190D01*
X158238095Y-99702381D02*
X158238095Y-98702381D01*
X157857142Y-98702381D01*
X157761904Y-98750000D01*
X157714285Y-98797619D01*
X157666666Y-98892857D01*
X157666666Y-99035714D01*
X157714285Y-99130952D01*
X157761904Y-99178571D01*
X157857142Y-99226190D01*
X158238095Y-99226190D01*
X157190476Y-99702381D02*
X157000000Y-99702381D01*
X156904761Y-99654762D01*
X156857142Y-99607143D01*
X156761904Y-99464286D01*
X156714285Y-99273810D01*
X156714285Y-98892857D01*
X156761904Y-98797619D01*
X156809523Y-98750000D01*
X156904761Y-98702381D01*
X157095238Y-98702381D01*
X157190476Y-98750000D01*
X157238095Y-98797619D01*
X157285714Y-98892857D01*
X157285714Y-99130952D01*
X157238095Y-99226190D01*
X157190476Y-99273810D01*
X157095238Y-99321429D01*
X156904761Y-99321429D01*
X156809523Y-99273810D01*
X156761904Y-99226190D01*
X156714285Y-99130952D01*
X174642857Y-81952381D02*
X174976191Y-81476190D01*
X175214286Y-81952381D02*
X175214286Y-80952381D01*
X174833333Y-80952381D01*
X174738095Y-81000000D01*
X174690476Y-81047619D01*
X174642857Y-81142857D01*
X174642857Y-81285714D01*
X174690476Y-81380952D01*
X174738095Y-81428571D01*
X174833333Y-81476190D01*
X175214286Y-81476190D01*
X173690476Y-81952381D02*
X174261905Y-81952381D01*
X173976191Y-81952381D02*
X173976191Y-80952381D01*
X174071429Y-81095238D01*
X174166667Y-81190476D01*
X174261905Y-81238095D01*
X173071429Y-80952381D02*
X172976190Y-80952381D01*
X172880952Y-81000000D01*
X172833333Y-81047619D01*
X172785714Y-81142857D01*
X172738095Y-81333333D01*
X172738095Y-81571429D01*
X172785714Y-81761905D01*
X172833333Y-81857143D01*
X172880952Y-81904762D01*
X172976190Y-81952381D01*
X173071429Y-81952381D01*
X173166667Y-81904762D01*
X173214286Y-81857143D01*
X173261905Y-81761905D01*
X173309524Y-81571429D01*
X173309524Y-81333333D01*
X173261905Y-81142857D01*
X173214286Y-81047619D01*
X173166667Y-81000000D01*
X173071429Y-80952381D01*
X174142857Y-59952381D02*
X174476191Y-59476190D01*
X174714286Y-59952381D02*
X174714286Y-58952381D01*
X174333333Y-58952381D01*
X174238095Y-59000000D01*
X174190476Y-59047619D01*
X174142857Y-59142857D01*
X174142857Y-59285714D01*
X174190476Y-59380952D01*
X174238095Y-59428571D01*
X174333333Y-59476190D01*
X174714286Y-59476190D01*
X173190476Y-59952381D02*
X173761905Y-59952381D01*
X173476191Y-59952381D02*
X173476191Y-58952381D01*
X173571429Y-59095238D01*
X173666667Y-59190476D01*
X173761905Y-59238095D01*
X172238095Y-59952381D02*
X172809524Y-59952381D01*
X172523810Y-59952381D02*
X172523810Y-58952381D01*
X172619048Y-59095238D01*
X172714286Y-59190476D01*
X172809524Y-59238095D01*
X117142857Y-59952381D02*
X117476191Y-59476190D01*
X117714286Y-59952381D02*
X117714286Y-58952381D01*
X117333333Y-58952381D01*
X117238095Y-59000000D01*
X117190476Y-59047619D01*
X117142857Y-59142857D01*
X117142857Y-59285714D01*
X117190476Y-59380952D01*
X117238095Y-59428571D01*
X117333333Y-59476190D01*
X117714286Y-59476190D01*
X116190476Y-59952381D02*
X116761905Y-59952381D01*
X116476191Y-59952381D02*
X116476191Y-58952381D01*
X116571429Y-59095238D01*
X116666667Y-59190476D01*
X116761905Y-59238095D01*
X115809524Y-59047619D02*
X115761905Y-59000000D01*
X115666667Y-58952381D01*
X115428571Y-58952381D01*
X115333333Y-59000000D01*
X115285714Y-59047619D01*
X115238095Y-59142857D01*
X115238095Y-59238095D01*
X115285714Y-59380952D01*
X115857143Y-59952381D01*
X115238095Y-59952381D01*
X117142857Y-81952381D02*
X117476191Y-81476190D01*
X117714286Y-81952381D02*
X117714286Y-80952381D01*
X117333333Y-80952381D01*
X117238095Y-81000000D01*
X117190476Y-81047619D01*
X117142857Y-81142857D01*
X117142857Y-81285714D01*
X117190476Y-81380952D01*
X117238095Y-81428571D01*
X117333333Y-81476190D01*
X117714286Y-81476190D01*
X116190476Y-81952381D02*
X116761905Y-81952381D01*
X116476191Y-81952381D02*
X116476191Y-80952381D01*
X116571429Y-81095238D01*
X116666667Y-81190476D01*
X116761905Y-81238095D01*
X115857143Y-80952381D02*
X115238095Y-80952381D01*
X115571429Y-81333333D01*
X115428571Y-81333333D01*
X115333333Y-81380952D01*
X115285714Y-81428571D01*
X115238095Y-81523810D01*
X115238095Y-81761905D01*
X115285714Y-81857143D01*
X115333333Y-81904762D01*
X115428571Y-81952381D01*
X115714286Y-81952381D01*
X115809524Y-81904762D01*
X115857143Y-81857143D01*
X160642857Y-112702381D02*
X160976191Y-112226190D01*
X161214286Y-112702381D02*
X161214286Y-111702381D01*
X160833333Y-111702381D01*
X160738095Y-111750000D01*
X160690476Y-111797619D01*
X160642857Y-111892857D01*
X160642857Y-112035714D01*
X160690476Y-112130952D01*
X160738095Y-112178571D01*
X160833333Y-112226190D01*
X161214286Y-112226190D01*
X159690476Y-112702381D02*
X160261905Y-112702381D01*
X159976191Y-112702381D02*
X159976191Y-111702381D01*
X160071429Y-111845238D01*
X160166667Y-111940476D01*
X160261905Y-111988095D01*
X158833333Y-111702381D02*
X159023810Y-111702381D01*
X159119048Y-111750000D01*
X159166667Y-111797619D01*
X159261905Y-111940476D01*
X159309524Y-112130952D01*
X159309524Y-112511905D01*
X159261905Y-112607143D01*
X159214286Y-112654762D01*
X159119048Y-112702381D01*
X158928571Y-112702381D01*
X158833333Y-112654762D01*
X158785714Y-112607143D01*
X158738095Y-112511905D01*
X158738095Y-112273810D01*
X158785714Y-112178571D01*
X158833333Y-112130952D01*
X158928571Y-112083333D01*
X159119048Y-112083333D01*
X159214286Y-112130952D01*
X159261905Y-112178571D01*
X159309524Y-112273810D01*
X155642857Y-112702381D02*
X155976191Y-112226190D01*
X156214286Y-112702381D02*
X156214286Y-111702381D01*
X155833333Y-111702381D01*
X155738095Y-111750000D01*
X155690476Y-111797619D01*
X155642857Y-111892857D01*
X155642857Y-112035714D01*
X155690476Y-112130952D01*
X155738095Y-112178571D01*
X155833333Y-112226190D01*
X156214286Y-112226190D01*
X154690476Y-112702381D02*
X155261905Y-112702381D01*
X154976191Y-112702381D02*
X154976191Y-111702381D01*
X155071429Y-111845238D01*
X155166667Y-111940476D01*
X155261905Y-111988095D01*
X154357143Y-111702381D02*
X153690476Y-111702381D01*
X154119048Y-112702381D01*
X194444857Y-100020381D02*
X194778191Y-99544190D01*
X195016286Y-100020381D02*
X195016286Y-99020381D01*
X194635333Y-99020381D01*
X194540095Y-99068000D01*
X194492476Y-99115619D01*
X194444857Y-99210857D01*
X194444857Y-99353714D01*
X194492476Y-99448952D01*
X194540095Y-99496571D01*
X194635333Y-99544190D01*
X195016286Y-99544190D01*
X193492476Y-100020381D02*
X194063905Y-100020381D01*
X193778191Y-100020381D02*
X193778191Y-99020381D01*
X193873429Y-99163238D01*
X193968667Y-99258476D01*
X194063905Y-99306095D01*
X192921048Y-99448952D02*
X193016286Y-99401333D01*
X193063905Y-99353714D01*
X193111524Y-99258476D01*
X193111524Y-99210857D01*
X193063905Y-99115619D01*
X193016286Y-99068000D01*
X192921048Y-99020381D01*
X192730571Y-99020381D01*
X192635333Y-99068000D01*
X192587714Y-99115619D01*
X192540095Y-99210857D01*
X192540095Y-99258476D01*
X192587714Y-99353714D01*
X192635333Y-99401333D01*
X192730571Y-99448952D01*
X192921048Y-99448952D01*
X193016286Y-99496571D01*
X193063905Y-99544190D01*
X193111524Y-99639429D01*
X193111524Y-99829905D01*
X193063905Y-99925143D01*
X193016286Y-99972762D01*
X192921048Y-100020381D01*
X192730571Y-100020381D01*
X192635333Y-99972762D01*
X192587714Y-99925143D01*
X192540095Y-99829905D01*
X192540095Y-99639429D01*
X192587714Y-99544190D01*
X192635333Y-99496571D01*
X192730571Y-99448952D01*
X161642857Y-104202381D02*
X161976191Y-103726190D01*
X162214286Y-104202381D02*
X162214286Y-103202381D01*
X161833333Y-103202381D01*
X161738095Y-103250000D01*
X161690476Y-103297619D01*
X161642857Y-103392857D01*
X161642857Y-103535714D01*
X161690476Y-103630952D01*
X161738095Y-103678571D01*
X161833333Y-103726190D01*
X162214286Y-103726190D01*
X161261905Y-103297619D02*
X161214286Y-103250000D01*
X161119048Y-103202381D01*
X160880952Y-103202381D01*
X160785714Y-103250000D01*
X160738095Y-103297619D01*
X160690476Y-103392857D01*
X160690476Y-103488095D01*
X160738095Y-103630952D01*
X161309524Y-104202381D01*
X160690476Y-104202381D01*
X159738095Y-104202381D02*
X160309524Y-104202381D01*
X160023810Y-104202381D02*
X160023810Y-103202381D01*
X160119048Y-103345238D01*
X160214286Y-103440476D01*
X160309524Y-103488095D01*
X154392857Y-104202381D02*
X154726191Y-103726190D01*
X154964286Y-104202381D02*
X154964286Y-103202381D01*
X154583333Y-103202381D01*
X154488095Y-103250000D01*
X154440476Y-103297619D01*
X154392857Y-103392857D01*
X154392857Y-103535714D01*
X154440476Y-103630952D01*
X154488095Y-103678571D01*
X154583333Y-103726190D01*
X154964286Y-103726190D01*
X154011905Y-103297619D02*
X153964286Y-103250000D01*
X153869048Y-103202381D01*
X153630952Y-103202381D01*
X153535714Y-103250000D01*
X153488095Y-103297619D01*
X153440476Y-103392857D01*
X153440476Y-103488095D01*
X153488095Y-103630952D01*
X154059524Y-104202381D01*
X153440476Y-104202381D01*
X153059524Y-103297619D02*
X153011905Y-103250000D01*
X152916667Y-103202381D01*
X152678571Y-103202381D01*
X152583333Y-103250000D01*
X152535714Y-103297619D01*
X152488095Y-103392857D01*
X152488095Y-103488095D01*
X152535714Y-103630952D01*
X153107143Y-104202381D01*
X152488095Y-104202381D01*
D10*
X175694095Y-131045381D02*
X175694095Y-130045381D01*
X175456000Y-130045381D01*
X175313142Y-130093000D01*
X175217904Y-130188238D01*
X175170285Y-130283476D01*
X175122666Y-130473952D01*
X175122666Y-130616810D01*
X175170285Y-130807286D01*
X175217904Y-130902524D01*
X175313142Y-130997762D01*
X175456000Y-131045381D01*
X175694095Y-131045381D01*
X174265523Y-130045381D02*
X174456000Y-130045381D01*
X174551238Y-130093000D01*
X174598857Y-130140619D01*
X174694095Y-130283476D01*
X174741714Y-130473952D01*
X174741714Y-130854905D01*
X174694095Y-130950143D01*
X174646476Y-130997762D01*
X174551238Y-131045381D01*
X174360761Y-131045381D01*
X174265523Y-130997762D01*
X174217904Y-130950143D01*
X174170285Y-130854905D01*
X174170285Y-130616810D01*
X174217904Y-130521571D01*
X174265523Y-130473952D01*
X174360761Y-130426333D01*
X174551238Y-130426333D01*
X174646476Y-130473952D01*
X174694095Y-130521571D01*
X174741714Y-130616810D01*
X192254095Y-131389381D02*
X192254095Y-130389381D01*
X192016000Y-130389381D01*
X191873142Y-130437000D01*
X191777904Y-130532238D01*
X191730285Y-130627476D01*
X191682666Y-130817952D01*
X191682666Y-130960810D01*
X191730285Y-131151286D01*
X191777904Y-131246524D01*
X191873142Y-131341762D01*
X192016000Y-131389381D01*
X192254095Y-131389381D01*
X191349333Y-130389381D02*
X190682666Y-130389381D01*
X191111238Y-131389381D01*
D21*
X184638095Y-106252381D02*
X184638095Y-105252381D01*
X184400000Y-105252381D01*
X184257142Y-105300000D01*
X184161904Y-105395238D01*
X184114285Y-105490476D01*
X184066666Y-105680952D01*
X184066666Y-105823810D01*
X184114285Y-106014286D01*
X184161904Y-106109524D01*
X184257142Y-106204762D01*
X184400000Y-106252381D01*
X184638095Y-106252381D01*
X183495238Y-105680952D02*
X183590476Y-105633333D01*
X183638095Y-105585714D01*
X183685714Y-105490476D01*
X183685714Y-105442857D01*
X183638095Y-105347619D01*
X183590476Y-105300000D01*
X183495238Y-105252381D01*
X183304761Y-105252381D01*
X183209523Y-105300000D01*
X183161904Y-105347619D01*
X183114285Y-105442857D01*
X183114285Y-105490476D01*
X183161904Y-105585714D01*
X183209523Y-105633333D01*
X183304761Y-105680952D01*
X183495238Y-105680952D01*
X183590476Y-105728571D01*
X183638095Y-105776190D01*
X183685714Y-105871429D01*
X183685714Y-106061905D01*
X183638095Y-106157143D01*
X183590476Y-106204762D01*
X183495238Y-106252381D01*
X183304761Y-106252381D01*
X183209523Y-106204762D01*
X183161904Y-106157143D01*
X183114285Y-106061905D01*
X183114285Y-105871429D01*
X183161904Y-105776190D01*
X183209523Y-105728571D01*
X183304761Y-105680952D01*
X194238095Y-106252381D02*
X194238095Y-105252381D01*
X194000000Y-105252381D01*
X193857142Y-105300000D01*
X193761904Y-105395238D01*
X193714285Y-105490476D01*
X193666666Y-105680952D01*
X193666666Y-105823810D01*
X193714285Y-106014286D01*
X193761904Y-106109524D01*
X193857142Y-106204762D01*
X194000000Y-106252381D01*
X194238095Y-106252381D01*
X193190476Y-106252381D02*
X193000000Y-106252381D01*
X192904761Y-106204762D01*
X192857142Y-106157143D01*
X192761904Y-106014286D01*
X192714285Y-105823810D01*
X192714285Y-105442857D01*
X192761904Y-105347619D01*
X192809523Y-105300000D01*
X192904761Y-105252381D01*
X193095238Y-105252381D01*
X193190476Y-105300000D01*
X193238095Y-105347619D01*
X193285714Y-105442857D01*
X193285714Y-105680952D01*
X193238095Y-105776190D01*
X193190476Y-105823810D01*
X193095238Y-105871429D01*
X192904761Y-105871429D01*
X192809523Y-105823810D01*
X192761904Y-105776190D01*
X192714285Y-105680952D01*
X184342857Y-100252381D02*
X184676191Y-99776190D01*
X184914286Y-100252381D02*
X184914286Y-99252381D01*
X184533333Y-99252381D01*
X184438095Y-99300000D01*
X184390476Y-99347619D01*
X184342857Y-99442857D01*
X184342857Y-99585714D01*
X184390476Y-99680952D01*
X184438095Y-99728571D01*
X184533333Y-99776190D01*
X184914286Y-99776190D01*
X183961905Y-99347619D02*
X183914286Y-99300000D01*
X183819048Y-99252381D01*
X183580952Y-99252381D01*
X183485714Y-99300000D01*
X183438095Y-99347619D01*
X183390476Y-99442857D01*
X183390476Y-99538095D01*
X183438095Y-99680952D01*
X184009524Y-100252381D01*
X183390476Y-100252381D01*
X183057143Y-99252381D02*
X182438095Y-99252381D01*
X182771429Y-99633333D01*
X182628571Y-99633333D01*
X182533333Y-99680952D01*
X182485714Y-99728571D01*
X182438095Y-99823810D01*
X182438095Y-100061905D01*
X182485714Y-100157143D01*
X182533333Y-100204762D01*
X182628571Y-100252381D01*
X182914286Y-100252381D01*
X183009524Y-100204762D01*
X183057143Y-100157143D01*
M02*
