M48
INCH,TZ
T1C0.016
T2C0.030
T3C0.031
T4C0.031
T5C0.035
T6C0.036
T7C0.040
T8C0.043
T9C0.083
T10C0.091
T11C0.118
T12C0.250
T13C0.717
%
G90
G05
T1
X28543Y-21614
X28543Y-26417
X31890Y-49685
X31929Y-50945
X33583Y-49685
X33583Y-50945
X34625Y-48625
X35400Y-48375
X36600Y-48350
X36600Y-48700
X36625Y-49025
X36897Y-53277
X43700Y-44750
X45675Y-46825
X46550Y-46850
X50350Y-44050
X50591Y-41142
X60630Y-42717
X63189Y-40157
X65157Y-40748
X65157Y-42323
X65354Y-43898
X67350Y-22350
X67350Y-31000
X67400Y-38450
X68500Y-42900
X68900Y-42400
X70350Y-41400
X70750Y-42400
X71100Y-48400
X72950Y-48400
T2
X51181Y-39370
X51181Y-44882
X52165Y-44882
X53150Y-39370
X53150Y-44882
X61024Y-39370
X61024Y-44882
X62008Y-44882
X62992Y-39370
X62992Y-44882
X69622Y-24650
X69622Y-25650
X69622Y-26650
X69622Y-27650
X69622Y-28650
X69622Y-29650
X69622Y-30650
X69622Y-31650
X69622Y-32650
X69622Y-33650
X69622Y-34650
X69622Y-35650
X77622Y-20650
X77622Y-21650
X77622Y-22650
X77622Y-23650
X77622Y-24650
X77622Y-25650
X77622Y-26650
X77622Y-27650
X77622Y-28650
X77622Y-29650
X77622Y-30650
X77622Y-31650
X77622Y-32650
X77622Y-33650
X77622Y-34650
X77622Y-35650
T3
X34646Y-53465
X35432Y-53465
T4
X52587Y-19488
X52587Y-20488
X53587Y-19488
X53587Y-20488
X54587Y-19488
X54587Y-20488
X55587Y-19488
X55587Y-20488
X56587Y-19488
X56587Y-20488
X57587Y-19488
X57587Y-20488
X58587Y-19488
X58587Y-20488
X59587Y-19488
X59587Y-20488
X60587Y-19488
X60587Y-20488
X61587Y-19488
X61587Y-20488
T5
X43200Y-18783
X43200Y-41617
T6
X30709Y-43079
X30709Y-46425
X31693Y-43079
X31693Y-46425
X32480Y-43079
X32480Y-46425
X33465Y-43079
X33465Y-46425
X80709Y-35205
X80709Y-38551
X80709Y-43079
X80709Y-46425
X81693Y-35205
X81693Y-38551
X81693Y-43079
X81693Y-46425
X82480Y-35205
X82480Y-38551
X82480Y-43079
X82480Y-46425
X83465Y-35205
X83465Y-38551
X83465Y-43079
X83465Y-46425
T7
X42200Y-42600
X43200Y-42600
X44200Y-42600
X45960Y-22145
X45960Y-24705
X45960Y-30807
X45960Y-33367
X47740Y-22145
X47740Y-24705
X47740Y-30807
X47740Y-33367
X66433Y-22145
X66433Y-24705
X66433Y-30807
X66433Y-33367
X68200Y-44700
X68200Y-45700
X68213Y-22145
X68213Y-24705
X68213Y-30807
X68213Y-33367
X73831Y-38937
X74831Y-38937
X80679Y-25980
X81679Y-25980
X82679Y-25980
X83679Y-25980
T8
X36417Y-31988
X36417Y-33366
X36417Y-34744
X36417Y-36122
X36417Y-37500
X36417Y-38878
X36417Y-40256
X36417Y-41634
X82119Y-49284
X82119Y-50662
X82119Y-52040
T10
X29500Y-43937
X29500Y-46614
X34673Y-43937
X34673Y-46614
X79500Y-36063
X79500Y-38740
X79500Y-43937
X79500Y-46614
X84673Y-36063
X84673Y-38740
X84673Y-43937
X84673Y-46614
T11
X29528Y-29528
X29528Y-55118
X84646Y-29528
X84646Y-55118
T12
X72047Y-45276
T13
X36417Y-23661
T9
X49961Y-42008G85X49961Y-42244
G05
X54370Y-42008G85X54370Y-42244
G05
X59803Y-42008G85X59803Y-42244
G05
X64213Y-42008G85X64213Y-42244
G05
T0
M30
