G04 #@! TF.FileFunction,Soldermask,Bot*
%FSLAX46Y46*%
G04 Gerber Fmt 4.6, Leading zero omitted, Abs format (unit mm)*
G04 Created by KiCad (PCBNEW (2015-06-26 BZR 5832)-product) date Samstag, 23. Juli 2016 'u05' 19:05:19*
%MOMM*%
G01*
G04 APERTURE LIST*
%ADD10C,0.150000*%
%ADD11R,1.998980X0.599440*%
%ADD12R,1.399540X1.099820*%
%ADD13C,3.400000*%
%ADD14C,1.500000*%
%ADD15R,2.300000X2.900000*%
%ADD16C,1.524000*%
%ADD17R,1.800860X3.700780*%
%ADD18C,2.032000*%
%ADD19O,2.032000X2.032000*%
%ADD20C,1.900000*%
%ADD21C,1.422400*%
%ADD22C,1.800000*%
%ADD23R,1.099820X1.399540*%
%ADD24C,1.879600*%
%ADD25R,1.198880X0.548640*%
%ADD26R,1.219200X2.235200*%
%ADD27R,3.599180X2.199640*%
%ADD28R,0.998220X0.248920*%
%ADD29C,6.350000*%
%ADD30C,18.200000*%
%ADD31C,11.200000*%
%ADD32R,4.000000X4.000000*%
%ADD33R,2.500000X1.520000*%
%ADD34R,4.100000X2.200000*%
%ADD35R,1.520000X2.500000*%
%ADD36R,2.200000X4.100000*%
%ADD37R,3.299460X1.699260*%
G04 APERTURE END LIST*
D10*
D11*
X177199000Y-93745000D03*
X177199000Y-95015000D03*
X177199000Y-96285000D03*
X177199000Y-97555000D03*
X177199000Y-98825000D03*
X177199000Y-100095000D03*
X177199000Y-101365000D03*
X177199000Y-102635000D03*
X177199000Y-103905000D03*
X177199000Y-105175000D03*
X177199000Y-106445000D03*
X177199000Y-107715000D03*
X177199000Y-108985000D03*
X177199000Y-110255000D03*
X167801000Y-110255000D03*
X167801000Y-108985000D03*
X167801000Y-107715000D03*
X167801000Y-106445000D03*
X167801000Y-105175000D03*
X167801000Y-103905000D03*
X167801000Y-102635000D03*
X167801000Y-101365000D03*
X167801000Y-100095000D03*
X167801000Y-98825000D03*
X167801000Y-97555000D03*
X167801000Y-96285000D03*
X167801000Y-95015000D03*
X167801000Y-93745000D03*
D12*
X138500000Y-110501780D03*
X138500000Y-112498220D03*
X126500000Y-110501780D03*
X126500000Y-112498220D03*
D13*
X201930000Y-71600000D03*
X201930000Y-78400000D03*
X215070000Y-71600000D03*
X215070000Y-78400000D03*
D14*
X205000000Y-69420000D03*
X207500000Y-69420000D03*
X209500000Y-69420000D03*
X212000000Y-69420000D03*
X205000000Y-77920000D03*
X207500000Y-77920000D03*
X209500000Y-77920000D03*
X212000000Y-77920000D03*
D13*
X201930000Y-91600000D03*
X201930000Y-98400000D03*
X215070000Y-91600000D03*
X215070000Y-98400000D03*
D14*
X205000000Y-89420000D03*
X207500000Y-89420000D03*
X209500000Y-89420000D03*
X212000000Y-89420000D03*
X205000000Y-97920000D03*
X207500000Y-97920000D03*
X209500000Y-97920000D03*
X212000000Y-97920000D03*
D13*
X201930000Y-111600000D03*
X201930000Y-118400000D03*
X215070000Y-111600000D03*
X215070000Y-118400000D03*
D14*
X205000000Y-109420000D03*
X207500000Y-109420000D03*
X209500000Y-109420000D03*
X212000000Y-109420000D03*
X205000000Y-117920000D03*
X207500000Y-117920000D03*
X209500000Y-117920000D03*
X212000000Y-117920000D03*
D15*
X138100000Y-107000000D03*
D16*
X130000000Y-100000000D03*
X135000000Y-100000000D03*
X130000000Y-114000000D03*
X132500000Y-114000000D03*
X135000000Y-114000000D03*
D15*
X126900000Y-107000000D03*
X163100000Y-107000000D03*
D16*
X155000000Y-100000000D03*
X160000000Y-100000000D03*
X155000000Y-114000000D03*
X157500000Y-114000000D03*
X160000000Y-114000000D03*
D15*
X151900000Y-107000000D03*
D17*
X140950220Y-124500000D03*
X145049780Y-124500000D03*
X121950220Y-124500000D03*
X126049780Y-124500000D03*
X102950220Y-124500000D03*
X107049780Y-124500000D03*
D18*
X111040000Y-108500000D03*
X108500000Y-108500000D03*
X105960000Y-108500000D03*
X190070000Y-98900000D03*
D19*
X187530000Y-98900000D03*
D20*
X208581500Y-125180500D03*
X208581500Y-132180500D03*
X208581500Y-128680500D03*
X92500000Y-82750000D03*
X92500000Y-86250000D03*
X92500000Y-89750000D03*
X92500000Y-107250000D03*
X92500000Y-103750000D03*
X92500000Y-100250000D03*
X92500000Y-96750000D03*
X92500000Y-93250000D03*
D18*
X204724000Y-59690000D03*
D19*
X207264000Y-59690000D03*
D18*
X212344000Y-59690000D03*
D19*
X209804000Y-59690000D03*
D18*
X173228000Y-113538000D03*
D19*
X173228000Y-116078000D03*
D21*
X89998220Y-135000000D03*
X88001780Y-135000000D03*
D22*
X108500000Y-106000000D03*
X108500000Y-48000000D03*
D12*
X132500000Y-101001780D03*
X132500000Y-102998220D03*
D23*
X135998220Y-110500000D03*
X134001780Y-110500000D03*
X130998220Y-110500000D03*
X129001780Y-110500000D03*
D12*
X134500000Y-107498220D03*
X134500000Y-105501780D03*
X130500000Y-107498220D03*
X130500000Y-105501780D03*
D24*
X168739400Y-84751200D03*
X168739400Y-78248800D03*
X173260600Y-84751200D03*
X173260600Y-78248800D03*
X168739400Y-62751200D03*
X168739400Y-56248800D03*
X173260600Y-62751200D03*
X173260600Y-56248800D03*
X116739400Y-62751200D03*
X116739400Y-56248800D03*
X121260600Y-62751200D03*
X121260600Y-56248800D03*
X116739400Y-84751200D03*
X116739400Y-78248800D03*
X121260600Y-84751200D03*
X121260600Y-78248800D03*
D25*
X209797940Y-72550040D03*
X209797940Y-73500000D03*
X209797940Y-74449960D03*
X207202060Y-74449960D03*
X207202060Y-73500000D03*
X207202060Y-72550040D03*
X209797940Y-92550040D03*
X209797940Y-93500000D03*
X209797940Y-94449960D03*
X207202060Y-94449960D03*
X207202060Y-93500000D03*
X207202060Y-92550040D03*
X209797940Y-112550040D03*
X209797940Y-113500000D03*
X209797940Y-114449960D03*
X207202060Y-114449960D03*
X207202060Y-113500000D03*
X207202060Y-112550040D03*
D26*
X118311400Y-117098800D03*
X116000000Y-117098800D03*
X113688600Y-117098800D03*
D27*
X116000000Y-110901200D03*
D16*
X197160000Y-70230000D03*
X197160000Y-67690000D03*
X197160000Y-65150000D03*
X197160000Y-62610000D03*
X197160000Y-60070000D03*
X197160000Y-57530000D03*
X197160000Y-54990000D03*
X197160000Y-52450000D03*
X197160000Y-72770000D03*
X197160000Y-75310000D03*
X197160000Y-77850000D03*
X197160000Y-80390000D03*
X197160000Y-82930000D03*
X197160000Y-85470000D03*
X197160000Y-88010000D03*
X197160000Y-90550000D03*
X176840000Y-90550000D03*
X176840000Y-88010000D03*
X176840000Y-85470000D03*
X176840000Y-82930000D03*
X176840000Y-80390000D03*
X176840000Y-77850000D03*
X176840000Y-75310000D03*
X176840000Y-72770000D03*
X176840000Y-70230000D03*
X176840000Y-67690000D03*
X176840000Y-65150000D03*
X176840000Y-62610000D03*
D28*
X86889260Y-129998220D03*
X86889260Y-129497840D03*
X86889260Y-129000000D03*
X86889260Y-128502160D03*
X86889260Y-128001780D03*
X91110740Y-128001780D03*
X91110740Y-128502160D03*
X91110740Y-129000000D03*
X91110740Y-129497840D03*
X91110740Y-129998220D03*
X86889260Y-124998220D03*
X86889260Y-124497840D03*
X86889260Y-124000000D03*
X86889260Y-123502160D03*
X86889260Y-123001780D03*
X91110740Y-123001780D03*
X91110740Y-123502160D03*
X91110740Y-124000000D03*
X91110740Y-124497840D03*
X91110740Y-124998220D03*
D14*
X133570000Y-49500000D03*
X143730000Y-52040000D03*
X141190000Y-52040000D03*
X138650000Y-52040000D03*
X136110000Y-52040000D03*
X133570000Y-52040000D03*
X146270000Y-52040000D03*
X148810000Y-52040000D03*
X151350000Y-52040000D03*
X153890000Y-52040000D03*
X156430000Y-52040000D03*
X136110000Y-49500000D03*
X138650000Y-49500000D03*
X141190000Y-49500000D03*
X143730000Y-49500000D03*
X146270000Y-49500000D03*
X148810000Y-49500000D03*
X151350000Y-49500000D03*
X153890000Y-49500000D03*
X156430000Y-49500000D03*
D12*
X111000000Y-116998220D03*
X111000000Y-115001780D03*
X121000000Y-115001780D03*
X121000000Y-116998220D03*
X82804000Y-132824220D03*
X82804000Y-130827780D03*
D23*
X82001780Y-120000000D03*
X83998220Y-120000000D03*
X89998220Y-132500000D03*
X88001780Y-132500000D03*
D12*
X84000000Y-125001780D03*
X84000000Y-126998220D03*
X81500000Y-125001780D03*
X81500000Y-126998220D03*
X163500000Y-110501780D03*
X163500000Y-112498220D03*
X151500000Y-110501780D03*
X151500000Y-112498220D03*
D23*
X84498220Y-50000000D03*
X82501780Y-50000000D03*
X95998220Y-50000000D03*
X94001780Y-50000000D03*
X84437220Y-141605000D03*
X82440780Y-141605000D03*
X84437220Y-139319000D03*
X82440780Y-139319000D03*
X82001780Y-122500000D03*
X83998220Y-122500000D03*
X93501780Y-129000000D03*
X95498220Y-129000000D03*
D12*
X157500000Y-101001780D03*
X157500000Y-102998220D03*
X171000000Y-80501780D03*
X171000000Y-82498220D03*
X171000000Y-58501780D03*
X171000000Y-60498220D03*
X119000000Y-58501780D03*
X119000000Y-60498220D03*
X119000000Y-80501780D03*
X119000000Y-82498220D03*
D23*
X160998220Y-110500000D03*
X159001780Y-110500000D03*
X155998220Y-110500000D03*
X154001780Y-110500000D03*
D12*
X196342000Y-100566220D03*
X196342000Y-98569780D03*
X159750000Y-107498220D03*
X159750000Y-105501780D03*
X155500000Y-107498220D03*
X155500000Y-105501780D03*
D29*
X183000000Y-115000000D03*
D30*
X83600000Y-66600000D03*
D31*
X145000000Y-135000000D03*
D32*
X145000000Y-129000000D03*
D31*
X183100000Y-135000000D03*
D32*
X183100000Y-129000000D03*
D31*
X125950000Y-135000000D03*
D32*
X125950000Y-129000000D03*
D31*
X106900000Y-135000000D03*
D32*
X106900000Y-129000000D03*
D31*
X164050000Y-135000000D03*
D32*
X164050000Y-129000000D03*
D33*
X172836000Y-128143000D03*
D34*
X177056000Y-128143000D03*
D35*
X194056000Y-133107000D03*
D36*
X194056000Y-128887000D03*
D37*
X186440000Y-103900000D03*
X181360000Y-103900000D03*
X196040000Y-103900000D03*
X190960000Y-103900000D03*
D12*
X181200000Y-98801780D03*
X181200000Y-100798220D03*
M02*
