G04 #@! TF.FileFunction,Soldermask,Top*
%FSLAX46Y46*%
G04 Gerber Fmt 4.6, Leading zero omitted, Abs format (unit mm)*
G04 Created by KiCad (PCBNEW (2015-06-26 BZR 5832)-product) date Mittwoch, 17. August 2016 'u55' 19:55:04*
%MOMM*%
G01*
G04 APERTURE LIST*
%ADD10C,0.150000*%
%ADD11C,3.400000*%
%ADD12C,1.500000*%
%ADD13R,1.198880X1.198880*%
%ADD14R,2.300000X2.900000*%
%ADD15C,1.524000*%
%ADD16C,2.032000*%
%ADD17O,2.032000X2.032000*%
%ADD18C,1.900000*%
%ADD19C,1.422400*%
%ADD20C,1.800000*%
%ADD21C,1.879600*%
%ADD22C,6.350000*%
%ADD23C,18.200000*%
G04 APERTURE END LIST*
D10*
D11*
X74930000Y-111600000D03*
X74930000Y-118400000D03*
X88070000Y-111600000D03*
X88070000Y-118400000D03*
D12*
X78000000Y-109420000D03*
X80500000Y-109420000D03*
X82500000Y-109420000D03*
X85000000Y-109420000D03*
X78000000Y-117920000D03*
X80500000Y-117920000D03*
X82500000Y-117920000D03*
X85000000Y-117920000D03*
D11*
X201930000Y-91600000D03*
X201930000Y-98400000D03*
X215070000Y-91600000D03*
X215070000Y-98400000D03*
D12*
X205000000Y-89420000D03*
X207500000Y-89420000D03*
X209500000Y-89420000D03*
X212000000Y-89420000D03*
X205000000Y-97920000D03*
X207500000Y-97920000D03*
X209500000Y-97920000D03*
X212000000Y-97920000D03*
D11*
X201930000Y-111600000D03*
X201930000Y-118400000D03*
X215070000Y-111600000D03*
X215070000Y-118400000D03*
D12*
X205000000Y-109420000D03*
X207500000Y-109420000D03*
X209500000Y-109420000D03*
X212000000Y-109420000D03*
X205000000Y-117920000D03*
X207500000Y-117920000D03*
X209500000Y-117920000D03*
X212000000Y-117920000D03*
D13*
X73950980Y-67100000D03*
X76049020Y-67100000D03*
X73950980Y-54900000D03*
X76049020Y-54900000D03*
X181950980Y-123000000D03*
X184049020Y-123000000D03*
X82150980Y-126200000D03*
X84249020Y-126200000D03*
X82150980Y-129400000D03*
X84249020Y-129400000D03*
D14*
X138100000Y-107000000D03*
D15*
X130000000Y-100000000D03*
X135000000Y-100000000D03*
X130000000Y-114000000D03*
X132500000Y-114000000D03*
X135000000Y-114000000D03*
D14*
X126900000Y-107000000D03*
X163100000Y-107000000D03*
D15*
X155000000Y-100000000D03*
X160000000Y-100000000D03*
X155000000Y-114000000D03*
X157500000Y-114000000D03*
X160000000Y-114000000D03*
D14*
X151900000Y-107000000D03*
D16*
X112268000Y-108204000D03*
X109728000Y-108204000D03*
X107188000Y-108204000D03*
X190070000Y-98900000D03*
D17*
X187530000Y-98900000D03*
D18*
X208581500Y-125180500D03*
X208581500Y-132180500D03*
X208581500Y-128680500D03*
X92500000Y-81250000D03*
X92500000Y-84750000D03*
X92500000Y-88250000D03*
X92500000Y-105750000D03*
X92500000Y-102250000D03*
X92500000Y-98750000D03*
X92500000Y-95250000D03*
X92500000Y-91750000D03*
D16*
X204924000Y-65990000D03*
D17*
X207464000Y-65990000D03*
D16*
X212544000Y-65990000D03*
D17*
X210004000Y-65990000D03*
D16*
X173228000Y-113538000D03*
D17*
X173228000Y-116078000D03*
D19*
X89998220Y-135800000D03*
X88001780Y-135800000D03*
D20*
X109728000Y-105708000D03*
X109728000Y-47708000D03*
D21*
X168739400Y-84751200D03*
X168739400Y-78248800D03*
X173260600Y-84751200D03*
X173260600Y-78248800D03*
X168739400Y-62751200D03*
X168739400Y-56248800D03*
X173260600Y-62751200D03*
X173260600Y-56248800D03*
X116739400Y-62751200D03*
X116739400Y-56248800D03*
X121260600Y-62751200D03*
X121260600Y-56248800D03*
X116739400Y-84751200D03*
X116739400Y-78248800D03*
X121260600Y-84751200D03*
X121260600Y-78248800D03*
D15*
X197160000Y-70230000D03*
X197160000Y-67690000D03*
X197160000Y-65150000D03*
X197160000Y-62610000D03*
X197160000Y-60070000D03*
X197160000Y-57530000D03*
X197160000Y-54990000D03*
X197160000Y-52450000D03*
X197160000Y-72770000D03*
X197160000Y-75310000D03*
X197160000Y-77850000D03*
X197160000Y-80390000D03*
X197160000Y-82930000D03*
X197160000Y-85470000D03*
X197160000Y-88010000D03*
X197160000Y-90550000D03*
X176840000Y-90550000D03*
X176840000Y-88010000D03*
X176840000Y-85470000D03*
X176840000Y-82930000D03*
X176840000Y-80390000D03*
X176840000Y-77850000D03*
X176840000Y-75310000D03*
X176840000Y-72770000D03*
X176840000Y-70230000D03*
X176840000Y-67690000D03*
X176840000Y-65150000D03*
X176840000Y-62610000D03*
D12*
X133570000Y-49500000D03*
X143730000Y-52040000D03*
X141190000Y-52040000D03*
X138650000Y-52040000D03*
X136110000Y-52040000D03*
X133570000Y-52040000D03*
X146270000Y-52040000D03*
X148810000Y-52040000D03*
X151350000Y-52040000D03*
X153890000Y-52040000D03*
X156430000Y-52040000D03*
X136110000Y-49500000D03*
X138650000Y-49500000D03*
X141190000Y-49500000D03*
X143730000Y-49500000D03*
X146270000Y-49500000D03*
X148810000Y-49500000D03*
X151350000Y-49500000D03*
X153890000Y-49500000D03*
X156430000Y-49500000D03*
D22*
X183000000Y-115000000D03*
D23*
X92500000Y-60100000D03*
M02*
