G04 #@! TF.FileFunction,Soldermask,Top*
%FSLAX46Y46*%
G04 Gerber Fmt 4.6, Leading zero omitted, Abs format (unit mm)*
G04 Created by KiCad (PCBNEW (2015-06-26 BZR 5832)-product) date Samstag, 23. Juli 2016 'u05' 19:05:19*
%MOMM*%
G01*
G04 APERTURE LIST*
%ADD10C,0.150000*%
%ADD11C,3.400000*%
%ADD12C,1.500000*%
%ADD13R,1.198880X1.198880*%
%ADD14R,2.300000X2.900000*%
%ADD15C,1.524000*%
%ADD16C,2.032000*%
%ADD17O,2.032000X2.032000*%
%ADD18C,1.900000*%
%ADD19C,1.422400*%
%ADD20C,1.800000*%
%ADD21C,1.879600*%
%ADD22C,6.350000*%
%ADD23C,18.200000*%
G04 APERTURE END LIST*
D10*
D11*
X201930000Y-71600000D03*
X201930000Y-78400000D03*
X215070000Y-71600000D03*
X215070000Y-78400000D03*
D12*
X205000000Y-69420000D03*
X207500000Y-69420000D03*
X209500000Y-69420000D03*
X212000000Y-69420000D03*
X205000000Y-77920000D03*
X207500000Y-77920000D03*
X209500000Y-77920000D03*
X212000000Y-77920000D03*
D11*
X201930000Y-91600000D03*
X201930000Y-98400000D03*
X215070000Y-91600000D03*
X215070000Y-98400000D03*
D12*
X205000000Y-89420000D03*
X207500000Y-89420000D03*
X209500000Y-89420000D03*
X212000000Y-89420000D03*
X205000000Y-97920000D03*
X207500000Y-97920000D03*
X209500000Y-97920000D03*
X212000000Y-97920000D03*
D11*
X201930000Y-111600000D03*
X201930000Y-118400000D03*
X215070000Y-111600000D03*
X215070000Y-118400000D03*
D12*
X205000000Y-109420000D03*
X207500000Y-109420000D03*
X209500000Y-109420000D03*
X212000000Y-109420000D03*
X205000000Y-117920000D03*
X207500000Y-117920000D03*
X209500000Y-117920000D03*
X212000000Y-117920000D03*
D13*
X82450980Y-50000000D03*
X84549020Y-50000000D03*
X93950980Y-50000000D03*
X96049020Y-50000000D03*
X181950980Y-123000000D03*
X184049020Y-123000000D03*
X82389980Y-141605000D03*
X84488020Y-141605000D03*
X82389980Y-139319000D03*
X84488020Y-139319000D03*
D14*
X138100000Y-107000000D03*
D15*
X130000000Y-100000000D03*
X135000000Y-100000000D03*
X130000000Y-114000000D03*
X132500000Y-114000000D03*
X135000000Y-114000000D03*
D14*
X126900000Y-107000000D03*
X163100000Y-107000000D03*
D15*
X155000000Y-100000000D03*
X160000000Y-100000000D03*
X155000000Y-114000000D03*
X157500000Y-114000000D03*
X160000000Y-114000000D03*
D14*
X151900000Y-107000000D03*
D16*
X111040000Y-108500000D03*
X108500000Y-108500000D03*
X105960000Y-108500000D03*
X190070000Y-98900000D03*
D17*
X187530000Y-98900000D03*
D18*
X208581500Y-125180500D03*
X208581500Y-132180500D03*
X208581500Y-128680500D03*
X92500000Y-82750000D03*
X92500000Y-86250000D03*
X92500000Y-89750000D03*
X92500000Y-107250000D03*
X92500000Y-103750000D03*
X92500000Y-100250000D03*
X92500000Y-96750000D03*
X92500000Y-93250000D03*
D16*
X204724000Y-59690000D03*
D17*
X207264000Y-59690000D03*
D16*
X212344000Y-59690000D03*
D17*
X209804000Y-59690000D03*
D16*
X173228000Y-113538000D03*
D17*
X173228000Y-116078000D03*
D19*
X89998220Y-135000000D03*
X88001780Y-135000000D03*
D20*
X108500000Y-106000000D03*
X108500000Y-48000000D03*
D21*
X168739400Y-84751200D03*
X168739400Y-78248800D03*
X173260600Y-84751200D03*
X173260600Y-78248800D03*
X168739400Y-62751200D03*
X168739400Y-56248800D03*
X173260600Y-62751200D03*
X173260600Y-56248800D03*
X116739400Y-62751200D03*
X116739400Y-56248800D03*
X121260600Y-62751200D03*
X121260600Y-56248800D03*
X116739400Y-84751200D03*
X116739400Y-78248800D03*
X121260600Y-84751200D03*
X121260600Y-78248800D03*
D15*
X197160000Y-70230000D03*
X197160000Y-67690000D03*
X197160000Y-65150000D03*
X197160000Y-62610000D03*
X197160000Y-60070000D03*
X197160000Y-57530000D03*
X197160000Y-54990000D03*
X197160000Y-52450000D03*
X197160000Y-72770000D03*
X197160000Y-75310000D03*
X197160000Y-77850000D03*
X197160000Y-80390000D03*
X197160000Y-82930000D03*
X197160000Y-85470000D03*
X197160000Y-88010000D03*
X197160000Y-90550000D03*
X176840000Y-90550000D03*
X176840000Y-88010000D03*
X176840000Y-85470000D03*
X176840000Y-82930000D03*
X176840000Y-80390000D03*
X176840000Y-77850000D03*
X176840000Y-75310000D03*
X176840000Y-72770000D03*
X176840000Y-70230000D03*
X176840000Y-67690000D03*
X176840000Y-65150000D03*
X176840000Y-62610000D03*
D12*
X133570000Y-49500000D03*
X143730000Y-52040000D03*
X141190000Y-52040000D03*
X138650000Y-52040000D03*
X136110000Y-52040000D03*
X133570000Y-52040000D03*
X146270000Y-52040000D03*
X148810000Y-52040000D03*
X151350000Y-52040000D03*
X153890000Y-52040000D03*
X156430000Y-52040000D03*
X136110000Y-49500000D03*
X138650000Y-49500000D03*
X141190000Y-49500000D03*
X143730000Y-49500000D03*
X146270000Y-49500000D03*
X148810000Y-49500000D03*
X151350000Y-49500000D03*
X153890000Y-49500000D03*
X156430000Y-49500000D03*
D22*
X183000000Y-115000000D03*
D23*
X83600000Y-66600000D03*
M02*
