G04 #@! TF.FileFunction,Copper,L2,Bot,Signal*
%FSLAX46Y46*%
G04 Gerber Fmt 4.6, Leading zero omitted, Abs format (unit mm)*
G04 Created by KiCad (PCBNEW (2015-06-26 BZR 5832)-product) date Dienstag, 12. Januar 2016 'u45' 20:45:00*
%MOMM*%
G01*
G04 APERTURE LIST*
%ADD10C,0.150000*%
%ADD11C,1.422400*%
%ADD12C,2.032000*%
%ADD13O,2.032000X2.032000*%
%ADD14C,1.300000*%
%ADD15C,3.200000*%
%ADD16C,0.600000*%
%ADD17C,0.910000*%
%ADD18C,2.032000*%
%ADD19C,1.250000*%
%ADD20C,0.254000*%
G04 APERTURE END LIST*
D10*
D11*
X98044000Y-99042220D03*
X98044000Y-97045780D03*
D12*
X116840000Y-119380000D03*
X114300000Y-119380000D03*
X111760000Y-119380000D03*
X116840000Y-116840000D03*
X114300000Y-116840000D03*
X111760000Y-116840000D03*
X116840000Y-88900000D03*
X114300000Y-88900000D03*
X111760000Y-88900000D03*
X99060000Y-116840000D03*
X104140000Y-88900000D03*
X106680000Y-88900000D03*
X121920000Y-88900000D03*
X124460000Y-88900000D03*
X116840000Y-86360000D03*
X114300000Y-86360000D03*
X111760000Y-86360000D03*
X99060000Y-88900000D03*
X101600000Y-88900000D03*
X101600000Y-116840000D03*
X101600000Y-119380000D03*
X99060000Y-86360000D03*
X101600000Y-86360000D03*
X127000000Y-116840000D03*
X104140000Y-86360000D03*
X106680000Y-86360000D03*
X121920000Y-86360000D03*
X127000000Y-86360000D03*
X129540000Y-86360000D03*
X124460000Y-86360000D03*
X129540000Y-119380000D03*
X127000000Y-119380000D03*
X129540000Y-88900000D03*
X127000000Y-88900000D03*
X99060000Y-119380000D03*
X129540000Y-116840000D03*
X104140000Y-119380000D03*
X104140000Y-116840000D03*
X106680000Y-119380000D03*
X106680000Y-116840000D03*
X109220000Y-119380000D03*
X109220000Y-116840000D03*
X119380000Y-119380000D03*
X119380000Y-116840000D03*
X121920000Y-119380000D03*
X121920000Y-116840000D03*
X124460000Y-119380000D03*
X124460000Y-116840000D03*
X119380000Y-88900000D03*
D13*
X119380000Y-86360000D03*
D12*
X109220000Y-88900000D03*
D13*
X109220000Y-86360000D03*
D14*
X94626000Y-99644000D03*
X92826000Y-98844000D03*
X94626000Y-98044000D03*
X92826000Y-97244000D03*
X94626000Y-96444000D03*
D15*
X93726000Y-93844000D03*
X93726000Y-102244000D03*
D16*
X117729000Y-112776000D03*
X107696000Y-102362000D03*
X114427000Y-98806000D03*
X113030000Y-112776000D03*
X99822000Y-107188000D03*
X114427000Y-100076000D03*
X114427000Y-102997000D03*
X118491000Y-111252000D03*
X132334000Y-95377000D03*
X118872000Y-94996000D03*
X128524000Y-98679000D03*
X128651000Y-107061000D03*
X122047000Y-105283000D03*
X114427000Y-97536000D03*
D17*
X116840000Y-115062000D02*
X116840000Y-116840000D01*
X117856000Y-114046000D02*
X116840000Y-115062000D01*
X117856000Y-112903000D02*
X117856000Y-114046000D01*
X117729000Y-112776000D02*
X117856000Y-112903000D01*
D18*
X116840000Y-119380000D02*
X116840000Y-116840000D01*
D17*
X114427000Y-98806000D02*
X109347000Y-98806000D01*
X107696000Y-100457000D02*
X107696000Y-102362000D01*
X109347000Y-98806000D02*
X107696000Y-100457000D01*
X114300000Y-116840000D02*
X114300000Y-114046000D01*
X114300000Y-114046000D02*
X113030000Y-112776000D01*
X107696000Y-107442000D02*
X107696000Y-102362000D01*
X113030000Y-112776000D02*
X107696000Y-107442000D01*
D18*
X114300000Y-119380000D02*
X114300000Y-116840000D01*
X111760000Y-116840000D02*
X111760000Y-119380000D01*
X104140000Y-86360000D02*
X104140000Y-88900000D01*
X101600000Y-86360000D02*
X101600000Y-88900000D01*
X99060000Y-86360000D02*
X99060000Y-88900000D01*
D17*
X114427000Y-102997000D02*
X114427000Y-100076000D01*
D19*
X134620000Y-96393000D02*
X134620000Y-96266000D01*
X118491000Y-111252000D02*
X118872000Y-111633000D01*
X118872000Y-111633000D02*
X133477000Y-111633000D01*
X133477000Y-111633000D02*
X134620000Y-110490000D01*
X134620000Y-110490000D02*
X134620000Y-96393000D01*
X133731000Y-95377000D02*
X132334000Y-95377000D01*
X134620000Y-96266000D02*
X133731000Y-95377000D01*
D18*
X121920000Y-86360000D02*
X121920000Y-88900000D01*
D17*
X114300000Y-97409000D02*
X114300000Y-88900000D01*
X114427000Y-97536000D02*
X114300000Y-97409000D01*
D18*
X114300000Y-86360000D02*
X114300000Y-88900000D01*
X129540000Y-88900000D02*
X129540000Y-86360000D01*
X127000000Y-88900000D02*
X129540000Y-88900000D01*
X127000000Y-88900000D02*
X127000000Y-86360000D01*
X124460000Y-88900000D02*
X127000000Y-88900000D01*
X124460000Y-86360000D02*
X124460000Y-88900000D01*
X106680000Y-88900000D02*
X106680000Y-90043000D01*
X110363000Y-91313000D02*
X111760000Y-89916000D01*
X107950000Y-91313000D02*
X110363000Y-91313000D01*
X106680000Y-90043000D02*
X107950000Y-91313000D01*
X111760000Y-89916000D02*
X111760000Y-88900000D01*
X111760000Y-86360000D02*
X111760000Y-88900000D01*
X106680000Y-86360000D02*
X106680000Y-88900000D01*
X119380000Y-86360000D02*
X119380000Y-88900000D01*
X116840000Y-88900000D02*
X119380000Y-88900000D01*
X116840000Y-86360000D02*
X116840000Y-88900000D01*
D20*
G36*
X122809000Y-88899132D02*
X122808714Y-89226963D01*
X123059534Y-89833995D01*
X123433995Y-90209110D01*
X123444029Y-90680702D01*
X123445241Y-90686187D01*
X123444750Y-90691792D01*
X123450556Y-90710224D01*
X123454727Y-90729086D01*
X123457949Y-90733693D01*
X123459639Y-90739056D01*
X123472053Y-90753858D01*
X123483128Y-90769693D01*
X123487868Y-90772716D01*
X123491481Y-90777024D01*
X131825389Y-97469404D01*
X131700272Y-109981044D01*
X115191016Y-109855974D01*
X115289842Y-103629915D01*
X115434029Y-103414125D01*
X115517000Y-102997000D01*
X115517000Y-100076000D01*
X115434029Y-99658875D01*
X115354758Y-99540237D01*
X115357985Y-99336933D01*
X115434029Y-99223125D01*
X115517000Y-98806000D01*
X115434029Y-98388875D01*
X115374448Y-98299707D01*
X115378634Y-98036029D01*
X115434029Y-97953125D01*
X115516999Y-97536000D01*
X115434029Y-97118875D01*
X115394139Y-97059176D01*
X115441917Y-94049178D01*
X120211801Y-90911098D01*
X120220093Y-90902923D01*
X120229913Y-90896654D01*
X120237571Y-90885693D01*
X120247090Y-90876310D01*
X120251624Y-90865581D01*
X120258295Y-90856034D01*
X120261174Y-90842982D01*
X120266380Y-90830666D01*
X120266463Y-90819014D01*
X120268972Y-90807645D01*
X120279239Y-90314827D01*
X120313995Y-90300466D01*
X120778834Y-89836437D01*
X121030713Y-89229845D01*
X121031286Y-88573037D01*
X121031000Y-88572345D01*
X121031000Y-87778959D01*
X121036120Y-87792622D01*
X121651642Y-88021816D01*
X122308019Y-87998014D01*
X122803880Y-87792622D01*
X122809000Y-87778959D01*
X122809000Y-88899132D01*
X122809000Y-88899132D01*
G37*
X122809000Y-88899132D02*
X122808714Y-89226963D01*
X123059534Y-89833995D01*
X123433995Y-90209110D01*
X123444029Y-90680702D01*
X123445241Y-90686187D01*
X123444750Y-90691792D01*
X123450556Y-90710224D01*
X123454727Y-90729086D01*
X123457949Y-90733693D01*
X123459639Y-90739056D01*
X123472053Y-90753858D01*
X123483128Y-90769693D01*
X123487868Y-90772716D01*
X123491481Y-90777024D01*
X131825389Y-97469404D01*
X131700272Y-109981044D01*
X115191016Y-109855974D01*
X115289842Y-103629915D01*
X115434029Y-103414125D01*
X115517000Y-102997000D01*
X115517000Y-100076000D01*
X115434029Y-99658875D01*
X115354758Y-99540237D01*
X115357985Y-99336933D01*
X115434029Y-99223125D01*
X115517000Y-98806000D01*
X115434029Y-98388875D01*
X115374448Y-98299707D01*
X115378634Y-98036029D01*
X115434029Y-97953125D01*
X115516999Y-97536000D01*
X115434029Y-97118875D01*
X115394139Y-97059176D01*
X115441917Y-94049178D01*
X120211801Y-90911098D01*
X120220093Y-90902923D01*
X120229913Y-90896654D01*
X120237571Y-90885693D01*
X120247090Y-90876310D01*
X120251624Y-90865581D01*
X120258295Y-90856034D01*
X120261174Y-90842982D01*
X120266380Y-90830666D01*
X120266463Y-90819014D01*
X120268972Y-90807645D01*
X120279239Y-90314827D01*
X120313995Y-90300466D01*
X120778834Y-89836437D01*
X121030713Y-89229845D01*
X121031286Y-88573037D01*
X121031000Y-88572345D01*
X121031000Y-87778959D01*
X121036120Y-87792622D01*
X121651642Y-88021816D01*
X122308019Y-87998014D01*
X122803880Y-87792622D01*
X122809000Y-87778959D01*
X122809000Y-88899132D01*
G36*
X105029000Y-88899132D02*
X105028714Y-89226963D01*
X105029000Y-89227655D01*
X105029000Y-89876328D01*
X103908582Y-91494710D01*
X103903047Y-91507471D01*
X103895383Y-91519090D01*
X103893281Y-91529991D01*
X103888866Y-91540172D01*
X103888636Y-91554083D01*
X103886002Y-91567747D01*
X104012250Y-113030000D01*
X95882209Y-113030000D01*
X95759203Y-107494708D01*
X99529268Y-103850312D01*
X99529891Y-103849411D01*
X99530803Y-103848803D01*
X99543982Y-103829078D01*
X99557493Y-103809582D01*
X99557724Y-103808511D01*
X99558333Y-103807601D01*
X99562957Y-103784350D01*
X99567982Y-103761152D01*
X99567786Y-103760073D01*
X99568000Y-103759000D01*
X99568000Y-101727000D01*
X99567572Y-101724852D01*
X99567927Y-101722692D01*
X99562753Y-101700625D01*
X99558333Y-101678399D01*
X99557116Y-101676578D01*
X99556617Y-101674447D01*
X99543392Y-101656038D01*
X99530803Y-101637197D01*
X99528982Y-101635980D01*
X99527705Y-101634202D01*
X99508446Y-101622258D01*
X99489601Y-101609667D01*
X99487452Y-101609239D01*
X99485592Y-101608086D01*
X96437593Y-100465086D01*
X96415226Y-100461421D01*
X96393000Y-100457000D01*
X95100129Y-100457000D01*
X94993679Y-100350364D01*
X94172519Y-100009389D01*
X93853000Y-100009110D01*
X93853000Y-99634472D01*
X93914735Y-99572845D01*
X94068023Y-99203686D01*
X94369276Y-99328777D01*
X94880481Y-99329223D01*
X95224686Y-99187000D01*
X96266000Y-99187000D01*
X96276888Y-99184834D01*
X96287990Y-99185082D01*
X96300956Y-99180046D01*
X96314601Y-99177333D01*
X96323834Y-99171163D01*
X96334183Y-99167145D01*
X97640477Y-98335867D01*
X97775049Y-98391746D01*
X98310601Y-98392214D01*
X98538616Y-98298000D01*
X98933000Y-98298000D01*
X98945331Y-98295547D01*
X98957907Y-98295534D01*
X98969397Y-98290760D01*
X98981601Y-98288333D01*
X98992056Y-98281346D01*
X99003668Y-98276523D01*
X99012455Y-98267716D01*
X99022803Y-98260803D01*
X99029790Y-98250345D01*
X99038670Y-98241447D01*
X99546670Y-97479447D01*
X99551418Y-97467949D01*
X99558333Y-97457601D01*
X99560786Y-97445267D01*
X99565586Y-97433646D01*
X99565572Y-97421202D01*
X99568000Y-97409000D01*
X99568000Y-91694000D01*
X99565025Y-91679045D01*
X99564359Y-91663806D01*
X99560235Y-91654965D01*
X99558333Y-91645399D01*
X99549860Y-91632718D01*
X99543414Y-91618897D01*
X98171000Y-89747424D01*
X98171000Y-87045000D01*
X105029000Y-87045000D01*
X105029000Y-88899132D01*
X105029000Y-88899132D01*
G37*
X105029000Y-88899132D02*
X105028714Y-89226963D01*
X105029000Y-89227655D01*
X105029000Y-89876328D01*
X103908582Y-91494710D01*
X103903047Y-91507471D01*
X103895383Y-91519090D01*
X103893281Y-91529991D01*
X103888866Y-91540172D01*
X103888636Y-91554083D01*
X103886002Y-91567747D01*
X104012250Y-113030000D01*
X95882209Y-113030000D01*
X95759203Y-107494708D01*
X99529268Y-103850312D01*
X99529891Y-103849411D01*
X99530803Y-103848803D01*
X99543982Y-103829078D01*
X99557493Y-103809582D01*
X99557724Y-103808511D01*
X99558333Y-103807601D01*
X99562957Y-103784350D01*
X99567982Y-103761152D01*
X99567786Y-103760073D01*
X99568000Y-103759000D01*
X99568000Y-101727000D01*
X99567572Y-101724852D01*
X99567927Y-101722692D01*
X99562753Y-101700625D01*
X99558333Y-101678399D01*
X99557116Y-101676578D01*
X99556617Y-101674447D01*
X99543392Y-101656038D01*
X99530803Y-101637197D01*
X99528982Y-101635980D01*
X99527705Y-101634202D01*
X99508446Y-101622258D01*
X99489601Y-101609667D01*
X99487452Y-101609239D01*
X99485592Y-101608086D01*
X96437593Y-100465086D01*
X96415226Y-100461421D01*
X96393000Y-100457000D01*
X95100129Y-100457000D01*
X94993679Y-100350364D01*
X94172519Y-100009389D01*
X93853000Y-100009110D01*
X93853000Y-99634472D01*
X93914735Y-99572845D01*
X94068023Y-99203686D01*
X94369276Y-99328777D01*
X94880481Y-99329223D01*
X95224686Y-99187000D01*
X96266000Y-99187000D01*
X96276888Y-99184834D01*
X96287990Y-99185082D01*
X96300956Y-99180046D01*
X96314601Y-99177333D01*
X96323834Y-99171163D01*
X96334183Y-99167145D01*
X97640477Y-98335867D01*
X97775049Y-98391746D01*
X98310601Y-98392214D01*
X98538616Y-98298000D01*
X98933000Y-98298000D01*
X98945331Y-98295547D01*
X98957907Y-98295534D01*
X98969397Y-98290760D01*
X98981601Y-98288333D01*
X98992056Y-98281346D01*
X99003668Y-98276523D01*
X99012455Y-98267716D01*
X99022803Y-98260803D01*
X99029790Y-98250345D01*
X99038670Y-98241447D01*
X99546670Y-97479447D01*
X99551418Y-97467949D01*
X99558333Y-97457601D01*
X99560786Y-97445267D01*
X99565586Y-97433646D01*
X99565572Y-97421202D01*
X99568000Y-97409000D01*
X99568000Y-91694000D01*
X99565025Y-91679045D01*
X99564359Y-91663806D01*
X99560235Y-91654965D01*
X99558333Y-91645399D01*
X99549860Y-91632718D01*
X99543414Y-91618897D01*
X98171000Y-89747424D01*
X98171000Y-87045000D01*
X105029000Y-87045000D01*
X105029000Y-88899132D01*
M02*
