G04 #@! TF.FileFunction,Copper,L1,Top,Signal*
%FSLAX46Y46*%
G04 Gerber Fmt 4.6, Leading zero omitted, Abs format (unit mm)*
G04 Created by KiCad (PCBNEW (2015-06-26 BZR 5832)-product) date Dienstag, 12. Januar 2016 'u45' 20:45:00*
%MOMM*%
G01*
G04 APERTURE LIST*
%ADD10C,0.150000*%
%ADD11C,1.422400*%
%ADD12C,2.032000*%
%ADD13R,1.099820X1.399540*%
%ADD14R,1.597660X1.800860*%
%ADD15R,2.500000X1.520000*%
%ADD16R,4.100000X2.200000*%
%ADD17R,1.399540X1.099820*%
%ADD18R,2.032000X2.032000*%
%ADD19O,2.032000X2.032000*%
%ADD20C,1.300000*%
%ADD21C,3.200000*%
%ADD22R,6.350000X7.620000*%
%ADD23R,2.410000X0.910000*%
%ADD24R,2.410000X10.000000*%
%ADD25R,5.000000X2.150000*%
%ADD26R,5.600000X4.300000*%
%ADD27C,0.600000*%
%ADD28C,0.910000*%
%ADD29C,0.250000*%
%ADD30C,2.032000*%
%ADD31C,1.250000*%
%ADD32C,1.597660*%
%ADD33C,0.254000*%
G04 APERTURE END LIST*
D10*
D11*
X98044000Y-99042220D03*
X98044000Y-97045780D03*
D12*
X116840000Y-119380000D03*
X114300000Y-119380000D03*
X111760000Y-119380000D03*
X116840000Y-116840000D03*
X114300000Y-116840000D03*
X111760000Y-116840000D03*
X116840000Y-88900000D03*
X114300000Y-88900000D03*
X111760000Y-88900000D03*
D13*
X112123220Y-106299000D03*
X110126780Y-106299000D03*
X112123220Y-104140000D03*
X110126780Y-104140000D03*
D14*
X117071140Y-105283000D03*
X119910860Y-105283000D03*
D15*
X118502000Y-109220000D03*
D16*
X114282000Y-109220000D03*
D12*
X99060000Y-116840000D03*
X104140000Y-88900000D03*
X106680000Y-88900000D03*
X121920000Y-88900000D03*
X124460000Y-88900000D03*
D17*
X114427000Y-104284780D03*
X114427000Y-106281220D03*
D13*
X116314220Y-112776000D03*
X114317780Y-112776000D03*
D17*
X107696000Y-104284780D03*
X107696000Y-106281220D03*
D12*
X116840000Y-86360000D03*
X114300000Y-86360000D03*
X111760000Y-86360000D03*
D18*
X95250000Y-88900000D03*
D12*
X99060000Y-88900000D03*
X101600000Y-88900000D03*
D18*
X133350000Y-88900000D03*
X133350000Y-116840000D03*
D12*
X101600000Y-116840000D03*
X101600000Y-119380000D03*
D18*
X95250000Y-116840000D03*
D12*
X99060000Y-86360000D03*
X101600000Y-86360000D03*
X127000000Y-116840000D03*
X104140000Y-86360000D03*
X106680000Y-86360000D03*
X121920000Y-86360000D03*
X127000000Y-86360000D03*
X129540000Y-86360000D03*
X124460000Y-86360000D03*
X129540000Y-119380000D03*
X127000000Y-119380000D03*
X129540000Y-88900000D03*
X127000000Y-88900000D03*
X99060000Y-119380000D03*
X129540000Y-116840000D03*
X104140000Y-119380000D03*
X104140000Y-116840000D03*
X106680000Y-119380000D03*
X106680000Y-116840000D03*
X109220000Y-119380000D03*
X109220000Y-116840000D03*
X119380000Y-119380000D03*
X119380000Y-116840000D03*
X121920000Y-119380000D03*
X121920000Y-116840000D03*
X124460000Y-119380000D03*
X124460000Y-116840000D03*
X119380000Y-88900000D03*
D19*
X119380000Y-86360000D03*
D12*
X109220000Y-88900000D03*
D19*
X109220000Y-86360000D03*
D20*
X94626000Y-99644000D03*
X92826000Y-98844000D03*
X94626000Y-98044000D03*
X92826000Y-97244000D03*
X94626000Y-96444000D03*
D21*
X93726000Y-93844000D03*
X93726000Y-102244000D03*
D22*
X107490000Y-96266000D03*
D23*
X116715000Y-100076000D03*
X116715000Y-98806000D03*
X116715000Y-97536000D03*
X116715000Y-96266000D03*
X116715000Y-94996000D03*
X116715000Y-93726000D03*
X116715000Y-92456000D03*
D24*
X103490000Y-96266000D03*
D25*
X132262000Y-98743000D03*
X132262000Y-95313000D03*
X123262000Y-95313000D03*
X123262000Y-98743000D03*
D26*
X96388000Y-109982000D03*
X105288000Y-109982000D03*
X132212000Y-109982000D03*
X123312000Y-109982000D03*
D27*
X117729000Y-112776000D03*
X107696000Y-102362000D03*
X114427000Y-98806000D03*
X113030000Y-112776000D03*
X99822000Y-107188000D03*
X114427000Y-100076000D03*
X114427000Y-102997000D03*
X118491000Y-111252000D03*
X132334000Y-95377000D03*
X118872000Y-94996000D03*
X128524000Y-98679000D03*
X128651000Y-107061000D03*
X122047000Y-105283000D03*
X114427000Y-97536000D03*
D28*
X116314220Y-112776000D02*
X117729000Y-112776000D01*
X114282000Y-109220000D02*
X116314220Y-111252220D01*
X116314220Y-112776000D02*
X116314220Y-111252220D01*
D29*
X112758220Y-109220000D02*
X112758000Y-109220000D01*
X112504220Y-109473780D02*
X112758000Y-109220000D01*
D28*
X107696000Y-104284780D02*
X107696000Y-102362000D01*
X116715000Y-98806000D02*
X114427000Y-98806000D01*
X114317780Y-112776000D02*
X113030000Y-112776000D01*
X114300000Y-112793780D02*
X114317780Y-112776000D01*
D30*
X96388000Y-109982000D02*
X97028000Y-109982000D01*
X97028000Y-109982000D02*
X99822000Y-107188000D01*
X95250000Y-88900000D02*
X99060000Y-88900000D01*
X127000000Y-116840000D02*
X127000000Y-119380000D01*
X129540000Y-116840000D02*
X129540000Y-119380000D01*
X99060000Y-116840000D02*
X99060000Y-119380000D01*
X101600000Y-116840000D02*
X101600000Y-119380000D01*
X129540000Y-116840000D02*
X133350000Y-116840000D01*
X99060000Y-116840000D02*
X95250000Y-116840000D01*
D28*
X107490000Y-96266000D02*
X103490000Y-96266000D01*
X114427000Y-106281220D02*
X112141000Y-106281220D01*
X112141000Y-106281220D02*
X112123220Y-106299000D01*
X114427000Y-104284780D02*
X112268000Y-104284780D01*
X112268000Y-104284780D02*
X112123220Y-104140000D01*
X114427000Y-104284780D02*
X114427000Y-102997000D01*
X114427000Y-100076000D02*
X116715000Y-100076000D01*
X116586000Y-100205000D02*
X116715000Y-100076000D01*
D31*
X118502000Y-111241000D02*
X118491000Y-111252000D01*
X118502000Y-109220000D02*
X118502000Y-111241000D01*
X132334000Y-95377000D02*
X132270000Y-95313000D01*
X132270000Y-95313000D02*
X132262000Y-95313000D01*
X133604000Y-95377000D02*
X133540000Y-95313000D01*
X133540000Y-95313000D02*
X132262000Y-95313000D01*
X118502000Y-109220000D02*
X118502000Y-108088000D01*
X117071140Y-106657140D02*
X117071140Y-105283000D01*
X118502000Y-108088000D02*
X117071140Y-106657140D01*
D28*
X116715000Y-94996000D02*
X118872000Y-94996000D01*
D32*
X132262000Y-98743000D02*
X128588000Y-98743000D01*
X128588000Y-98743000D02*
X128524000Y-98679000D01*
X132212000Y-109982000D02*
X131572000Y-109982000D01*
X131572000Y-109982000D02*
X128651000Y-107061000D01*
X119910860Y-105283000D02*
X122047000Y-105283000D01*
D28*
X119910860Y-105283000D02*
X119910860Y-104752140D01*
D32*
X132212000Y-98793000D02*
X132262000Y-98743000D01*
D31*
X132212000Y-98793000D02*
X132262000Y-98743000D01*
D29*
X132262000Y-109932000D02*
X132212000Y-109982000D01*
X132770000Y-98743000D02*
X129985000Y-98743000D01*
X132770000Y-98743000D02*
X134683000Y-98743000D01*
X132720000Y-98793000D02*
X132770000Y-98743000D01*
D28*
X116715000Y-97536000D02*
X114427000Y-97536000D01*
D30*
X129540000Y-88900000D02*
X133350000Y-88900000D01*
D28*
X116715000Y-92456000D02*
X114173000Y-92456000D01*
X111760000Y-90043000D02*
X111760000Y-88900000D01*
X114173000Y-92456000D02*
X111760000Y-90043000D01*
X116715000Y-92456000D02*
X120405000Y-92456000D01*
X120405000Y-92456000D02*
X123262000Y-95313000D01*
D33*
G36*
X125963348Y-118695000D02*
X125860466Y-118446005D01*
X125524868Y-118109821D01*
X125858834Y-117776437D01*
X126110713Y-117169845D01*
X126111286Y-116513037D01*
X125860466Y-115906005D01*
X125396437Y-115441166D01*
X124789845Y-115189287D01*
X124133037Y-115188714D01*
X123526005Y-115439534D01*
X123189821Y-115775132D01*
X122856437Y-115441166D01*
X122249845Y-115189287D01*
X121593037Y-115188714D01*
X120986005Y-115439534D01*
X120649821Y-115775132D01*
X120316437Y-115441166D01*
X119709845Y-115189287D01*
X119053037Y-115188714D01*
X118446005Y-115439534D01*
X118109821Y-115775132D01*
X117776437Y-115441166D01*
X117169845Y-115189287D01*
X116513037Y-115188714D01*
X115906005Y-115439534D01*
X115569821Y-115775132D01*
X115236437Y-115441166D01*
X114629845Y-115189287D01*
X113973037Y-115188714D01*
X113366005Y-115439534D01*
X113029821Y-115775132D01*
X112696437Y-115441166D01*
X112089845Y-115189287D01*
X111433037Y-115188714D01*
X110826005Y-115439534D01*
X110489821Y-115775132D01*
X110156437Y-115441166D01*
X109549845Y-115189287D01*
X108893037Y-115188714D01*
X108286005Y-115439534D01*
X107949821Y-115775132D01*
X107616437Y-115441166D01*
X107009845Y-115189287D01*
X106353037Y-115188714D01*
X105746005Y-115439534D01*
X105409821Y-115775132D01*
X105076437Y-115441166D01*
X104469845Y-115189287D01*
X103813037Y-115188714D01*
X103206005Y-115439534D01*
X102741166Y-115903563D01*
X102489287Y-116510155D01*
X102488714Y-117166963D01*
X102739534Y-117773995D01*
X103075132Y-118110179D01*
X102741166Y-118443563D01*
X102636760Y-118695000D01*
X92125000Y-118695000D01*
X92125000Y-113193125D01*
X112022971Y-113193125D01*
X112259254Y-113546746D01*
X112612875Y-113783029D01*
X113030000Y-113866000D01*
X113264698Y-113866000D01*
X113307197Y-113930697D01*
X113518230Y-114073147D01*
X113767870Y-114123210D01*
X114867690Y-114123210D01*
X115109813Y-114076233D01*
X115317312Y-113939928D01*
X115514670Y-114073147D01*
X115764310Y-114123210D01*
X116864130Y-114123210D01*
X117106253Y-114076233D01*
X117319057Y-113936443D01*
X117366607Y-113866000D01*
X117729000Y-113866000D01*
X118146125Y-113783029D01*
X118499746Y-113546746D01*
X118736029Y-113193125D01*
X118819000Y-112776000D01*
X118756002Y-112459288D01*
X118973181Y-112416088D01*
X119381955Y-112142955D01*
X119392952Y-112131957D01*
X119392955Y-112131955D01*
X119666088Y-111723181D01*
X119762000Y-111241000D01*
X119762000Y-110625500D01*
X119994123Y-110580463D01*
X120206927Y-110440673D01*
X120349377Y-110229640D01*
X120399440Y-109980000D01*
X120399440Y-108460000D01*
X120352463Y-108217877D01*
X120212673Y-108005073D01*
X120001640Y-107862623D01*
X119752000Y-107812560D01*
X119707212Y-107812560D01*
X119666088Y-107605819D01*
X119581063Y-107478570D01*
X119392955Y-107197045D01*
X119392952Y-107197043D01*
X119005395Y-106809485D01*
X119112030Y-106830870D01*
X120709690Y-106830870D01*
X120951813Y-106783893D01*
X121053904Y-106716830D01*
X122047000Y-106716830D01*
X122595703Y-106607686D01*
X123060871Y-106296871D01*
X123371686Y-105831703D01*
X123390660Y-105736314D01*
X128102297Y-105736314D01*
X127637129Y-106047129D01*
X127326314Y-106512297D01*
X127217170Y-107061000D01*
X127326314Y-107609703D01*
X127637129Y-108074871D01*
X128764560Y-109202302D01*
X128764560Y-112132000D01*
X128811537Y-112374123D01*
X128951327Y-112586927D01*
X129162360Y-112729377D01*
X129412000Y-112779440D01*
X135012000Y-112779440D01*
X135254123Y-112732463D01*
X135466927Y-112592673D01*
X135609377Y-112381640D01*
X135659440Y-112132000D01*
X135659440Y-107832000D01*
X135612463Y-107589877D01*
X135472673Y-107377073D01*
X135261640Y-107234623D01*
X135012000Y-107184560D01*
X130802302Y-107184560D01*
X129664871Y-106047129D01*
X129199703Y-105736314D01*
X128651000Y-105627170D01*
X128102297Y-105736314D01*
X123390660Y-105736314D01*
X123480830Y-105283000D01*
X123371686Y-104734297D01*
X123060871Y-104269129D01*
X122595703Y-103958314D01*
X122047000Y-103849170D01*
X121054109Y-103849170D01*
X120959330Y-103785193D01*
X120709690Y-103735130D01*
X120277807Y-103735130D01*
X119910860Y-103662140D01*
X119543913Y-103735130D01*
X119112030Y-103735130D01*
X118869907Y-103782107D01*
X118657103Y-103921897D01*
X118514653Y-104132930D01*
X118491436Y-104248700D01*
X118470433Y-104140447D01*
X118330643Y-103927643D01*
X118119610Y-103785193D01*
X117869970Y-103735130D01*
X116272310Y-103735130D01*
X116030187Y-103782107D01*
X115817383Y-103921897D01*
X115774210Y-103985856D01*
X115774210Y-103734870D01*
X115727233Y-103492747D01*
X115587443Y-103279943D01*
X115517000Y-103232393D01*
X115517000Y-102997000D01*
X115434029Y-102579875D01*
X115197746Y-102226254D01*
X114844125Y-101989971D01*
X114427000Y-101907000D01*
X114009875Y-101989971D01*
X108712000Y-101989971D01*
X108703029Y-101944875D01*
X108466746Y-101591254D01*
X108113125Y-101354971D01*
X107696000Y-101272000D01*
X107278875Y-101354971D01*
X106925254Y-101591254D01*
X106688971Y-101944875D01*
X106606000Y-102362000D01*
X106606000Y-103231698D01*
X106541303Y-103274197D01*
X106398853Y-103485230D01*
X106348790Y-103734870D01*
X106348790Y-104834690D01*
X106395767Y-105076813D01*
X106535557Y-105289617D01*
X106746590Y-105432067D01*
X106996230Y-105482130D01*
X108395770Y-105482130D01*
X108637893Y-105435153D01*
X108850697Y-105295363D01*
X108993147Y-105084330D01*
X109043210Y-104834690D01*
X109043210Y-103734870D01*
X108996233Y-103492747D01*
X108856443Y-103279943D01*
X108786000Y-103232393D01*
X108786000Y-102362000D01*
X108712000Y-101989971D01*
X114009875Y-101989971D01*
X108712000Y-101989971D01*
X108712000Y-101989971D01*
X114009875Y-101989971D01*
X113656254Y-102226254D01*
X113419971Y-102579875D01*
X113337000Y-102997000D01*
X113337000Y-103194780D01*
X113271408Y-103194780D01*
X113133803Y-102985303D01*
X112922770Y-102842853D01*
X112673130Y-102792790D01*
X111573310Y-102792790D01*
X111331187Y-102839767D01*
X111118383Y-102979557D01*
X110975933Y-103190590D01*
X110925870Y-103440230D01*
X110925870Y-104839770D01*
X110972847Y-105081893D01*
X111063489Y-105219879D01*
X110975933Y-105349590D01*
X110925870Y-105599230D01*
X100134852Y-105599230D01*
X99822000Y-105537000D01*
X99190190Y-105662675D01*
X98654567Y-106020566D01*
X97490573Y-107184560D01*
X93588000Y-107184560D01*
X93345877Y-107231537D01*
X93133073Y-107371327D01*
X92990623Y-107582360D01*
X92940560Y-107832000D01*
X92940560Y-112132000D01*
X92987537Y-112374123D01*
X93127327Y-112586927D01*
X93338360Y-112729377D01*
X93588000Y-112779440D01*
X99188000Y-112779440D01*
X99430123Y-112732463D01*
X99642927Y-112592673D01*
X99785377Y-112381640D01*
X99835440Y-112132000D01*
X99835440Y-109509427D01*
X100989434Y-108355433D01*
X101347325Y-107819810D01*
X101473000Y-107188000D01*
X101347325Y-106556189D01*
X100989434Y-106020566D01*
X100453811Y-105662675D01*
X100134852Y-105599230D01*
X110925870Y-105599230D01*
X100134852Y-105599230D01*
X100134852Y-105599230D01*
X110925870Y-105599230D01*
X110925870Y-106998770D01*
X110972847Y-107240893D01*
X111112637Y-107453697D01*
X111323670Y-107596147D01*
X111573310Y-107646210D01*
X111797041Y-107646210D01*
X111777073Y-107659327D01*
X111634623Y-107870360D01*
X111584560Y-108120000D01*
X111584560Y-110320000D01*
X111631537Y-110562123D01*
X111771327Y-110774927D01*
X111982360Y-110917377D01*
X112232000Y-110967440D01*
X114487948Y-110967440D01*
X114969769Y-111449261D01*
X114867690Y-111428790D01*
X113767870Y-111428790D01*
X113525747Y-111475767D01*
X113312943Y-111615557D01*
X113265393Y-111686000D01*
X113030000Y-111686000D01*
X112612875Y-111768971D01*
X112259254Y-112005254D01*
X112022971Y-112358875D01*
X111940000Y-112776000D01*
X112022971Y-113193125D01*
X92125000Y-113193125D01*
X92125000Y-99944297D01*
X92569276Y-100128777D01*
X93080481Y-100129223D01*
X93384255Y-100003706D01*
X93535995Y-100370943D01*
X93897155Y-100732735D01*
X94369276Y-100928777D01*
X94880481Y-100929223D01*
X95352943Y-100734005D01*
X95714735Y-100372845D01*
X95910777Y-99900724D01*
X95911223Y-99389519D01*
X95716005Y-98917057D01*
X95643265Y-98844190D01*
X95714735Y-98772845D01*
X95910777Y-98300724D01*
X95911126Y-97900301D01*
X97282435Y-97900301D01*
X96903412Y-98278663D01*
X96698034Y-98773269D01*
X96697566Y-99308821D01*
X96902081Y-99803785D01*
X97280443Y-100182808D01*
X97775049Y-100388186D01*
X98310601Y-100388654D01*
X98805565Y-100184139D01*
X99184588Y-99805777D01*
X99389966Y-99311171D01*
X99390434Y-98775619D01*
X99185919Y-98280655D01*
X98807557Y-97901632D01*
X98312951Y-97696254D01*
X97777399Y-97695786D01*
X97282435Y-97900301D01*
X95911126Y-97900301D01*
X95911223Y-97789519D01*
X95716005Y-97317057D01*
X95354845Y-96955265D01*
X94882724Y-96759223D01*
X94371519Y-96758777D01*
X94067745Y-96884294D01*
X93916005Y-96517057D01*
X93832654Y-96433560D01*
X115510000Y-96433560D01*
X115445883Y-96446000D01*
X114427000Y-96446000D01*
X114009875Y-96528971D01*
X113656254Y-96765254D01*
X113419971Y-97118875D01*
X113337000Y-97536000D01*
X113419971Y-97953125D01*
X113565551Y-98171000D01*
X113419971Y-98388875D01*
X113337000Y-98806000D01*
X113419971Y-99223125D01*
X113565551Y-99441000D01*
X113419971Y-99658875D01*
X113337000Y-100076000D01*
X113419971Y-100493125D01*
X113656254Y-100846746D01*
X114009875Y-101083029D01*
X114427000Y-101166000D01*
X115447968Y-101166000D01*
X115510000Y-101178440D01*
X116118606Y-101178440D01*
X116168875Y-101212029D01*
X116586000Y-101294999D01*
X117003125Y-101212029D01*
X117053394Y-101178440D01*
X117920000Y-101178440D01*
X118162123Y-101131463D01*
X118374927Y-100991673D01*
X118517377Y-100780640D01*
X118567440Y-100531000D01*
X118567440Y-99621000D01*
X118531939Y-99438026D01*
X118567440Y-99261000D01*
X118567440Y-98351000D01*
X118531939Y-98168026D01*
X118567440Y-97991000D01*
X118567440Y-97081000D01*
X118520463Y-96838877D01*
X118380673Y-96626073D01*
X118169640Y-96483623D01*
X117920000Y-96433560D01*
X115510000Y-96433560D01*
X93832654Y-96433560D01*
X93554845Y-96155265D01*
X93082724Y-95959223D01*
X92571519Y-95958777D01*
X92125000Y-96143276D01*
X92125000Y-90927803D01*
X111052837Y-90877329D01*
X113402253Y-93226746D01*
X113755875Y-93463029D01*
X114173000Y-93546000D01*
X114862560Y-93546000D01*
X114862560Y-94181000D01*
X114898061Y-94363974D01*
X114862560Y-94541000D01*
X114862560Y-95451000D01*
X114909537Y-95693123D01*
X115049327Y-95905927D01*
X115260360Y-96048377D01*
X115510000Y-96098440D01*
X117920000Y-96098440D01*
X117984117Y-96086000D01*
X118872000Y-96086000D01*
X119289125Y-96003029D01*
X119642746Y-95766746D01*
X119879029Y-95413125D01*
X119962000Y-94996000D01*
X119879029Y-94578875D01*
X119642746Y-94225254D01*
X119289125Y-93988971D01*
X118872000Y-93906000D01*
X118567440Y-93906000D01*
X118567440Y-93546000D01*
X119953508Y-93546000D01*
X120257812Y-93850304D01*
X120164623Y-93988360D01*
X120114560Y-94238000D01*
X120114560Y-96388000D01*
X120161537Y-96630123D01*
X120301327Y-96842927D01*
X120512360Y-96985377D01*
X120762000Y-97035440D01*
X125762000Y-97035440D01*
X126004123Y-96988463D01*
X126216927Y-96848673D01*
X126359377Y-96637640D01*
X126409440Y-96388000D01*
X126409440Y-94238000D01*
X126362463Y-93995877D01*
X126222673Y-93783073D01*
X126011640Y-93640623D01*
X125762000Y-93590560D01*
X129762000Y-93590560D01*
X129519877Y-93637537D01*
X129307073Y-93777327D01*
X129164623Y-93988360D01*
X129114560Y-94238000D01*
X129114560Y-96388000D01*
X129161537Y-96630123D01*
X129301327Y-96842927D01*
X129512360Y-96985377D01*
X129724287Y-97027877D01*
X129519877Y-97067537D01*
X129307073Y-97207327D01*
X129238328Y-97309170D01*
X128845749Y-97309170D01*
X128524000Y-97245170D01*
X127975297Y-97354314D01*
X127510129Y-97665129D01*
X127199314Y-98130297D01*
X127090170Y-98679000D01*
X127199314Y-99227703D01*
X127510129Y-99692871D01*
X127574129Y-99756871D01*
X128039297Y-100067686D01*
X128588000Y-100176830D01*
X129238201Y-100176830D01*
X129301327Y-100272927D01*
X129512360Y-100415377D01*
X129762000Y-100465440D01*
X134762000Y-100465440D01*
X135004123Y-100418463D01*
X135216927Y-100278673D01*
X135359377Y-100067640D01*
X135409440Y-99818000D01*
X135409440Y-98911716D01*
X135443000Y-98743000D01*
X135409440Y-98574284D01*
X135409440Y-97668000D01*
X135362463Y-97425877D01*
X135222673Y-97213073D01*
X135011640Y-97070623D01*
X134799713Y-97028123D01*
X135004123Y-96988463D01*
X135216927Y-96848673D01*
X135359377Y-96637640D01*
X135409440Y-96388000D01*
X135409440Y-94238000D01*
X135362463Y-93995877D01*
X135222673Y-93783073D01*
X135011640Y-93640623D01*
X134762000Y-93590560D01*
X129762000Y-93590560D01*
X125762000Y-93590560D01*
X125762000Y-93590560D01*
X123081052Y-93590560D01*
X121175746Y-91685254D01*
X120822125Y-91448971D01*
X120405000Y-91366000D01*
X117982032Y-91366000D01*
X117920000Y-91353560D01*
X115510000Y-91353560D01*
X115445883Y-91366000D01*
X114624493Y-91366000D01*
X114127622Y-90869130D01*
X136475000Y-90809537D01*
X136475000Y-118695000D01*
X125963348Y-118695000D01*
X125963348Y-118695000D01*
G37*
X125963348Y-118695000D02*
X125860466Y-118446005D01*
X125524868Y-118109821D01*
X125858834Y-117776437D01*
X126110713Y-117169845D01*
X126111286Y-116513037D01*
X125860466Y-115906005D01*
X125396437Y-115441166D01*
X124789845Y-115189287D01*
X124133037Y-115188714D01*
X123526005Y-115439534D01*
X123189821Y-115775132D01*
X122856437Y-115441166D01*
X122249845Y-115189287D01*
X121593037Y-115188714D01*
X120986005Y-115439534D01*
X120649821Y-115775132D01*
X120316437Y-115441166D01*
X119709845Y-115189287D01*
X119053037Y-115188714D01*
X118446005Y-115439534D01*
X118109821Y-115775132D01*
X117776437Y-115441166D01*
X117169845Y-115189287D01*
X116513037Y-115188714D01*
X115906005Y-115439534D01*
X115569821Y-115775132D01*
X115236437Y-115441166D01*
X114629845Y-115189287D01*
X113973037Y-115188714D01*
X113366005Y-115439534D01*
X113029821Y-115775132D01*
X112696437Y-115441166D01*
X112089845Y-115189287D01*
X111433037Y-115188714D01*
X110826005Y-115439534D01*
X110489821Y-115775132D01*
X110156437Y-115441166D01*
X109549845Y-115189287D01*
X108893037Y-115188714D01*
X108286005Y-115439534D01*
X107949821Y-115775132D01*
X107616437Y-115441166D01*
X107009845Y-115189287D01*
X106353037Y-115188714D01*
X105746005Y-115439534D01*
X105409821Y-115775132D01*
X105076437Y-115441166D01*
X104469845Y-115189287D01*
X103813037Y-115188714D01*
X103206005Y-115439534D01*
X102741166Y-115903563D01*
X102489287Y-116510155D01*
X102488714Y-117166963D01*
X102739534Y-117773995D01*
X103075132Y-118110179D01*
X102741166Y-118443563D01*
X102636760Y-118695000D01*
X92125000Y-118695000D01*
X92125000Y-113193125D01*
X112022971Y-113193125D01*
X112259254Y-113546746D01*
X112612875Y-113783029D01*
X113030000Y-113866000D01*
X113264698Y-113866000D01*
X113307197Y-113930697D01*
X113518230Y-114073147D01*
X113767870Y-114123210D01*
X114867690Y-114123210D01*
X115109813Y-114076233D01*
X115317312Y-113939928D01*
X115514670Y-114073147D01*
X115764310Y-114123210D01*
X116864130Y-114123210D01*
X117106253Y-114076233D01*
X117319057Y-113936443D01*
X117366607Y-113866000D01*
X117729000Y-113866000D01*
X118146125Y-113783029D01*
X118499746Y-113546746D01*
X118736029Y-113193125D01*
X118819000Y-112776000D01*
X118756002Y-112459288D01*
X118973181Y-112416088D01*
X119381955Y-112142955D01*
X119392952Y-112131957D01*
X119392955Y-112131955D01*
X119666088Y-111723181D01*
X119762000Y-111241000D01*
X119762000Y-110625500D01*
X119994123Y-110580463D01*
X120206927Y-110440673D01*
X120349377Y-110229640D01*
X120399440Y-109980000D01*
X120399440Y-108460000D01*
X120352463Y-108217877D01*
X120212673Y-108005073D01*
X120001640Y-107862623D01*
X119752000Y-107812560D01*
X119707212Y-107812560D01*
X119666088Y-107605819D01*
X119581063Y-107478570D01*
X119392955Y-107197045D01*
X119392952Y-107197043D01*
X119005395Y-106809485D01*
X119112030Y-106830870D01*
X120709690Y-106830870D01*
X120951813Y-106783893D01*
X121053904Y-106716830D01*
X122047000Y-106716830D01*
X122595703Y-106607686D01*
X123060871Y-106296871D01*
X123371686Y-105831703D01*
X123390660Y-105736314D01*
X128102297Y-105736314D01*
X127637129Y-106047129D01*
X127326314Y-106512297D01*
X127217170Y-107061000D01*
X127326314Y-107609703D01*
X127637129Y-108074871D01*
X128764560Y-109202302D01*
X128764560Y-112132000D01*
X128811537Y-112374123D01*
X128951327Y-112586927D01*
X129162360Y-112729377D01*
X129412000Y-112779440D01*
X135012000Y-112779440D01*
X135254123Y-112732463D01*
X135466927Y-112592673D01*
X135609377Y-112381640D01*
X135659440Y-112132000D01*
X135659440Y-107832000D01*
X135612463Y-107589877D01*
X135472673Y-107377073D01*
X135261640Y-107234623D01*
X135012000Y-107184560D01*
X130802302Y-107184560D01*
X129664871Y-106047129D01*
X129199703Y-105736314D01*
X128651000Y-105627170D01*
X128102297Y-105736314D01*
X123390660Y-105736314D01*
X123480830Y-105283000D01*
X123371686Y-104734297D01*
X123060871Y-104269129D01*
X122595703Y-103958314D01*
X122047000Y-103849170D01*
X121054109Y-103849170D01*
X120959330Y-103785193D01*
X120709690Y-103735130D01*
X120277807Y-103735130D01*
X119910860Y-103662140D01*
X119543913Y-103735130D01*
X119112030Y-103735130D01*
X118869907Y-103782107D01*
X118657103Y-103921897D01*
X118514653Y-104132930D01*
X118491436Y-104248700D01*
X118470433Y-104140447D01*
X118330643Y-103927643D01*
X118119610Y-103785193D01*
X117869970Y-103735130D01*
X116272310Y-103735130D01*
X116030187Y-103782107D01*
X115817383Y-103921897D01*
X115774210Y-103985856D01*
X115774210Y-103734870D01*
X115727233Y-103492747D01*
X115587443Y-103279943D01*
X115517000Y-103232393D01*
X115517000Y-102997000D01*
X115434029Y-102579875D01*
X115197746Y-102226254D01*
X114844125Y-101989971D01*
X114427000Y-101907000D01*
X114009875Y-101989971D01*
X108712000Y-101989971D01*
X108703029Y-101944875D01*
X108466746Y-101591254D01*
X108113125Y-101354971D01*
X107696000Y-101272000D01*
X107278875Y-101354971D01*
X106925254Y-101591254D01*
X106688971Y-101944875D01*
X106606000Y-102362000D01*
X106606000Y-103231698D01*
X106541303Y-103274197D01*
X106398853Y-103485230D01*
X106348790Y-103734870D01*
X106348790Y-104834690D01*
X106395767Y-105076813D01*
X106535557Y-105289617D01*
X106746590Y-105432067D01*
X106996230Y-105482130D01*
X108395770Y-105482130D01*
X108637893Y-105435153D01*
X108850697Y-105295363D01*
X108993147Y-105084330D01*
X109043210Y-104834690D01*
X109043210Y-103734870D01*
X108996233Y-103492747D01*
X108856443Y-103279943D01*
X108786000Y-103232393D01*
X108786000Y-102362000D01*
X108712000Y-101989971D01*
X114009875Y-101989971D01*
X108712000Y-101989971D01*
X108712000Y-101989971D01*
X114009875Y-101989971D01*
X113656254Y-102226254D01*
X113419971Y-102579875D01*
X113337000Y-102997000D01*
X113337000Y-103194780D01*
X113271408Y-103194780D01*
X113133803Y-102985303D01*
X112922770Y-102842853D01*
X112673130Y-102792790D01*
X111573310Y-102792790D01*
X111331187Y-102839767D01*
X111118383Y-102979557D01*
X110975933Y-103190590D01*
X110925870Y-103440230D01*
X110925870Y-104839770D01*
X110972847Y-105081893D01*
X111063489Y-105219879D01*
X110975933Y-105349590D01*
X110925870Y-105599230D01*
X100134852Y-105599230D01*
X99822000Y-105537000D01*
X99190190Y-105662675D01*
X98654567Y-106020566D01*
X97490573Y-107184560D01*
X93588000Y-107184560D01*
X93345877Y-107231537D01*
X93133073Y-107371327D01*
X92990623Y-107582360D01*
X92940560Y-107832000D01*
X92940560Y-112132000D01*
X92987537Y-112374123D01*
X93127327Y-112586927D01*
X93338360Y-112729377D01*
X93588000Y-112779440D01*
X99188000Y-112779440D01*
X99430123Y-112732463D01*
X99642927Y-112592673D01*
X99785377Y-112381640D01*
X99835440Y-112132000D01*
X99835440Y-109509427D01*
X100989434Y-108355433D01*
X101347325Y-107819810D01*
X101473000Y-107188000D01*
X101347325Y-106556189D01*
X100989434Y-106020566D01*
X100453811Y-105662675D01*
X100134852Y-105599230D01*
X110925870Y-105599230D01*
X100134852Y-105599230D01*
X100134852Y-105599230D01*
X110925870Y-105599230D01*
X110925870Y-106998770D01*
X110972847Y-107240893D01*
X111112637Y-107453697D01*
X111323670Y-107596147D01*
X111573310Y-107646210D01*
X111797041Y-107646210D01*
X111777073Y-107659327D01*
X111634623Y-107870360D01*
X111584560Y-108120000D01*
X111584560Y-110320000D01*
X111631537Y-110562123D01*
X111771327Y-110774927D01*
X111982360Y-110917377D01*
X112232000Y-110967440D01*
X114487948Y-110967440D01*
X114969769Y-111449261D01*
X114867690Y-111428790D01*
X113767870Y-111428790D01*
X113525747Y-111475767D01*
X113312943Y-111615557D01*
X113265393Y-111686000D01*
X113030000Y-111686000D01*
X112612875Y-111768971D01*
X112259254Y-112005254D01*
X112022971Y-112358875D01*
X111940000Y-112776000D01*
X112022971Y-113193125D01*
X92125000Y-113193125D01*
X92125000Y-99944297D01*
X92569276Y-100128777D01*
X93080481Y-100129223D01*
X93384255Y-100003706D01*
X93535995Y-100370943D01*
X93897155Y-100732735D01*
X94369276Y-100928777D01*
X94880481Y-100929223D01*
X95352943Y-100734005D01*
X95714735Y-100372845D01*
X95910777Y-99900724D01*
X95911223Y-99389519D01*
X95716005Y-98917057D01*
X95643265Y-98844190D01*
X95714735Y-98772845D01*
X95910777Y-98300724D01*
X95911126Y-97900301D01*
X97282435Y-97900301D01*
X96903412Y-98278663D01*
X96698034Y-98773269D01*
X96697566Y-99308821D01*
X96902081Y-99803785D01*
X97280443Y-100182808D01*
X97775049Y-100388186D01*
X98310601Y-100388654D01*
X98805565Y-100184139D01*
X99184588Y-99805777D01*
X99389966Y-99311171D01*
X99390434Y-98775619D01*
X99185919Y-98280655D01*
X98807557Y-97901632D01*
X98312951Y-97696254D01*
X97777399Y-97695786D01*
X97282435Y-97900301D01*
X95911126Y-97900301D01*
X95911223Y-97789519D01*
X95716005Y-97317057D01*
X95354845Y-96955265D01*
X94882724Y-96759223D01*
X94371519Y-96758777D01*
X94067745Y-96884294D01*
X93916005Y-96517057D01*
X93832654Y-96433560D01*
X115510000Y-96433560D01*
X115445883Y-96446000D01*
X114427000Y-96446000D01*
X114009875Y-96528971D01*
X113656254Y-96765254D01*
X113419971Y-97118875D01*
X113337000Y-97536000D01*
X113419971Y-97953125D01*
X113565551Y-98171000D01*
X113419971Y-98388875D01*
X113337000Y-98806000D01*
X113419971Y-99223125D01*
X113565551Y-99441000D01*
X113419971Y-99658875D01*
X113337000Y-100076000D01*
X113419971Y-100493125D01*
X113656254Y-100846746D01*
X114009875Y-101083029D01*
X114427000Y-101166000D01*
X115447968Y-101166000D01*
X115510000Y-101178440D01*
X116118606Y-101178440D01*
X116168875Y-101212029D01*
X116586000Y-101294999D01*
X117003125Y-101212029D01*
X117053394Y-101178440D01*
X117920000Y-101178440D01*
X118162123Y-101131463D01*
X118374927Y-100991673D01*
X118517377Y-100780640D01*
X118567440Y-100531000D01*
X118567440Y-99621000D01*
X118531939Y-99438026D01*
X118567440Y-99261000D01*
X118567440Y-98351000D01*
X118531939Y-98168026D01*
X118567440Y-97991000D01*
X118567440Y-97081000D01*
X118520463Y-96838877D01*
X118380673Y-96626073D01*
X118169640Y-96483623D01*
X117920000Y-96433560D01*
X115510000Y-96433560D01*
X93832654Y-96433560D01*
X93554845Y-96155265D01*
X93082724Y-95959223D01*
X92571519Y-95958777D01*
X92125000Y-96143276D01*
X92125000Y-90927803D01*
X111052837Y-90877329D01*
X113402253Y-93226746D01*
X113755875Y-93463029D01*
X114173000Y-93546000D01*
X114862560Y-93546000D01*
X114862560Y-94181000D01*
X114898061Y-94363974D01*
X114862560Y-94541000D01*
X114862560Y-95451000D01*
X114909537Y-95693123D01*
X115049327Y-95905927D01*
X115260360Y-96048377D01*
X115510000Y-96098440D01*
X117920000Y-96098440D01*
X117984117Y-96086000D01*
X118872000Y-96086000D01*
X119289125Y-96003029D01*
X119642746Y-95766746D01*
X119879029Y-95413125D01*
X119962000Y-94996000D01*
X119879029Y-94578875D01*
X119642746Y-94225254D01*
X119289125Y-93988971D01*
X118872000Y-93906000D01*
X118567440Y-93906000D01*
X118567440Y-93546000D01*
X119953508Y-93546000D01*
X120257812Y-93850304D01*
X120164623Y-93988360D01*
X120114560Y-94238000D01*
X120114560Y-96388000D01*
X120161537Y-96630123D01*
X120301327Y-96842927D01*
X120512360Y-96985377D01*
X120762000Y-97035440D01*
X125762000Y-97035440D01*
X126004123Y-96988463D01*
X126216927Y-96848673D01*
X126359377Y-96637640D01*
X126409440Y-96388000D01*
X126409440Y-94238000D01*
X126362463Y-93995877D01*
X126222673Y-93783073D01*
X126011640Y-93640623D01*
X125762000Y-93590560D01*
X129762000Y-93590560D01*
X129519877Y-93637537D01*
X129307073Y-93777327D01*
X129164623Y-93988360D01*
X129114560Y-94238000D01*
X129114560Y-96388000D01*
X129161537Y-96630123D01*
X129301327Y-96842927D01*
X129512360Y-96985377D01*
X129724287Y-97027877D01*
X129519877Y-97067537D01*
X129307073Y-97207327D01*
X129238328Y-97309170D01*
X128845749Y-97309170D01*
X128524000Y-97245170D01*
X127975297Y-97354314D01*
X127510129Y-97665129D01*
X127199314Y-98130297D01*
X127090170Y-98679000D01*
X127199314Y-99227703D01*
X127510129Y-99692871D01*
X127574129Y-99756871D01*
X128039297Y-100067686D01*
X128588000Y-100176830D01*
X129238201Y-100176830D01*
X129301327Y-100272927D01*
X129512360Y-100415377D01*
X129762000Y-100465440D01*
X134762000Y-100465440D01*
X135004123Y-100418463D01*
X135216927Y-100278673D01*
X135359377Y-100067640D01*
X135409440Y-99818000D01*
X135409440Y-98911716D01*
X135443000Y-98743000D01*
X135409440Y-98574284D01*
X135409440Y-97668000D01*
X135362463Y-97425877D01*
X135222673Y-97213073D01*
X135011640Y-97070623D01*
X134799713Y-97028123D01*
X135004123Y-96988463D01*
X135216927Y-96848673D01*
X135359377Y-96637640D01*
X135409440Y-96388000D01*
X135409440Y-94238000D01*
X135362463Y-93995877D01*
X135222673Y-93783073D01*
X135011640Y-93640623D01*
X134762000Y-93590560D01*
X129762000Y-93590560D01*
X125762000Y-93590560D01*
X125762000Y-93590560D01*
X123081052Y-93590560D01*
X121175746Y-91685254D01*
X120822125Y-91448971D01*
X120405000Y-91366000D01*
X117982032Y-91366000D01*
X117920000Y-91353560D01*
X115510000Y-91353560D01*
X115445883Y-91366000D01*
X114624493Y-91366000D01*
X114127622Y-90869130D01*
X136475000Y-90809537D01*
X136475000Y-118695000D01*
X125963348Y-118695000D01*
M02*
