M48
INCH,TZ
T1C0.016
T2C0.024
T3C0.031
T4C0.040
T5C0.079
%
G90
G05
T1
X39200Y-43000
X41800Y-44400
X43200Y-43500
X44400Y-36400
X45050Y-38400
X45050Y-38900
X45100Y-44000
X45900Y-40300
X46900Y-37400
X47600Y-43000
X49700Y-40950
X50000Y-39100
T2
X36546Y-38285
X36546Y-38915
X37254Y-37970
X37254Y-38600
X37254Y-39230
T3
X38600Y-38207
X38600Y-38993
T4
X39000Y-34000
X39000Y-35000
X39000Y-46000
X39000Y-47000
X40000Y-34000
X40000Y-35000
X40000Y-46000
X40000Y-47000
X41000Y-34000
X41000Y-35000
X41000Y-46000
X41000Y-47000
X42000Y-34000
X42000Y-35000
X42000Y-46000
X42000Y-47000
X43000Y-34000
X43000Y-35000
X43000Y-46000
X43000Y-47000
X44000Y-34000
X44000Y-35000
X44000Y-46000
X44000Y-47000
X45000Y-34000
X45000Y-35000
X45000Y-46000
X45000Y-47000
X46000Y-34000
X46000Y-35000
X46000Y-46000
X46000Y-47000
X47000Y-34000
X47000Y-35000
X47000Y-46000
X47000Y-47000
X48000Y-34000
X48000Y-35000
X48000Y-46000
X48000Y-47000
X49000Y-34000
X49000Y-35000
X49000Y-46000
X49000Y-47000
X50000Y-34000
X50000Y-35000
X50000Y-46000
X50000Y-47000
X51000Y-34000
X51000Y-35000
X51000Y-46000
X51000Y-47000
T5
X36900Y-36946
X36900Y-40254
T0
M30
