G04 #@! TF.FileFunction,Legend,Top*
%FSLAX46Y46*%
G04 Gerber Fmt 4.6, Leading zero omitted, Abs format (unit mm)*
G04 Created by KiCad (PCBNEW (2015-06-26 BZR 5832)-product) date Sonntag, 28. Februar 2016 'u30' 08:30:51*
%MOMM*%
G01*
G04 APERTURE LIST*
%ADD10C,0.150000*%
%ADD11C,0.127000*%
%ADD12C,0.066040*%
%ADD13C,0.152400*%
%ADD14C,0.050800*%
%ADD15C,0.200000*%
G04 APERTURE END LIST*
D10*
X118110000Y-90170000D02*
X118110000Y-87630000D01*
X110490000Y-90170000D02*
X118110000Y-90170000D01*
X110490000Y-87630000D02*
X110490000Y-90170000D01*
X118110000Y-87630000D02*
X110490000Y-87630000D01*
X118713333Y-90860571D02*
X119046667Y-90860571D01*
X119189524Y-91384381D02*
X118713333Y-91384381D01*
X118713333Y-90384381D01*
X119189524Y-90384381D01*
X119618095Y-90717714D02*
X119618095Y-91384381D01*
X119618095Y-90812952D02*
X119665714Y-90765333D01*
X119760952Y-90717714D01*
X119903810Y-90717714D01*
X119999048Y-90765333D01*
X120046667Y-90860571D01*
X120046667Y-91384381D01*
X107950000Y-90170000D02*
X107950000Y-87630000D01*
X102870000Y-90170000D02*
X107950000Y-90170000D01*
X102870000Y-87630000D02*
X102870000Y-90170000D01*
X107950000Y-87630000D02*
X102870000Y-87630000D01*
X125730000Y-90170000D02*
X125730000Y-87630000D01*
X120650000Y-90170000D02*
X125730000Y-90170000D01*
X120650000Y-87630000D02*
X120650000Y-90170000D01*
X125730000Y-87630000D02*
X120650000Y-87630000D01*
X135342381Y-118728857D02*
X136342381Y-118395524D01*
X135342381Y-118062190D01*
X136342381Y-117586000D02*
X136294762Y-117681238D01*
X136247143Y-117728857D01*
X136151905Y-117776476D01*
X135866190Y-117776476D01*
X135770952Y-117728857D01*
X135723333Y-117681238D01*
X135675714Y-117586000D01*
X135675714Y-117443142D01*
X135723333Y-117347904D01*
X135770952Y-117300285D01*
X135866190Y-117252666D01*
X136151905Y-117252666D01*
X136247143Y-117300285D01*
X136294762Y-117347904D01*
X136342381Y-117443142D01*
X136342381Y-117586000D01*
X135675714Y-116395523D02*
X136342381Y-116395523D01*
X135675714Y-116824095D02*
X136199524Y-116824095D01*
X136294762Y-116776476D01*
X136342381Y-116681238D01*
X136342381Y-116538380D01*
X136294762Y-116443142D01*
X136247143Y-116395523D01*
X135675714Y-116062190D02*
X135675714Y-115681238D01*
X135342381Y-115919333D02*
X136199524Y-115919333D01*
X136294762Y-115871714D01*
X136342381Y-115776476D01*
X136342381Y-115681238D01*
X135961429Y-115347904D02*
X135961429Y-114585999D01*
X135342381Y-91042857D02*
X136342381Y-90709524D01*
X135342381Y-90376190D01*
X136342381Y-89900000D02*
X136294762Y-89995238D01*
X136247143Y-90042857D01*
X136151905Y-90090476D01*
X135866190Y-90090476D01*
X135770952Y-90042857D01*
X135723333Y-89995238D01*
X135675714Y-89900000D01*
X135675714Y-89757142D01*
X135723333Y-89661904D01*
X135770952Y-89614285D01*
X135866190Y-89566666D01*
X136151905Y-89566666D01*
X136247143Y-89614285D01*
X136294762Y-89661904D01*
X136342381Y-89757142D01*
X136342381Y-89900000D01*
X135675714Y-88709523D02*
X136342381Y-88709523D01*
X135675714Y-89138095D02*
X136199524Y-89138095D01*
X136294762Y-89090476D01*
X136342381Y-88995238D01*
X136342381Y-88852380D01*
X136294762Y-88757142D01*
X136247143Y-88709523D01*
X135675714Y-88376190D02*
X135675714Y-87995238D01*
X135342381Y-88233333D02*
X136199524Y-88233333D01*
X136294762Y-88185714D01*
X136342381Y-88090476D01*
X136342381Y-87995238D01*
X135961429Y-87661904D02*
X135961429Y-86899999D01*
X136342381Y-87280951D02*
X135580476Y-87280951D01*
X92162381Y-118228857D02*
X93162381Y-117895524D01*
X92162381Y-117562190D01*
X93162381Y-117228857D02*
X92495714Y-117228857D01*
X92162381Y-117228857D02*
X92210000Y-117276476D01*
X92257619Y-117228857D01*
X92210000Y-117181238D01*
X92162381Y-117228857D01*
X92257619Y-117228857D01*
X92495714Y-116752667D02*
X93162381Y-116752667D01*
X92590952Y-116752667D02*
X92543333Y-116705048D01*
X92495714Y-116609810D01*
X92495714Y-116466952D01*
X92543333Y-116371714D01*
X92638571Y-116324095D01*
X93162381Y-116324095D01*
X92781429Y-115847905D02*
X92781429Y-115086000D01*
X92162381Y-90034857D02*
X93162381Y-89701524D01*
X92162381Y-89368190D01*
X93162381Y-89034857D02*
X92495714Y-89034857D01*
X92162381Y-89034857D02*
X92210000Y-89082476D01*
X92257619Y-89034857D01*
X92210000Y-88987238D01*
X92162381Y-89034857D01*
X92257619Y-89034857D01*
X92495714Y-88558667D02*
X93162381Y-88558667D01*
X92590952Y-88558667D02*
X92543333Y-88511048D01*
X92495714Y-88415810D01*
X92495714Y-88272952D01*
X92543333Y-88177714D01*
X92638571Y-88130095D01*
X93162381Y-88130095D01*
X92781429Y-87653905D02*
X92781429Y-86892000D01*
X93162381Y-87272952D02*
X92400476Y-87272952D01*
D11*
X96344740Y-101043740D02*
X96344740Y-98541840D01*
X96344740Y-98541840D02*
X95844360Y-98541840D01*
X95844360Y-98541840D02*
X95844360Y-97546160D01*
X95844360Y-97546160D02*
X96344740Y-97546160D01*
X96344740Y-97546160D02*
X96344740Y-95044260D01*
X96344740Y-95044260D02*
X100843080Y-95044260D01*
X100843080Y-95044260D02*
X100843080Y-101043740D01*
X100843080Y-101043740D02*
X96344740Y-101043740D01*
D10*
X109500000Y-114340000D02*
X109500000Y-116840000D01*
X109500000Y-116840000D02*
X109500000Y-119340000D01*
X109500000Y-119340000D02*
X119100000Y-119340000D01*
X119100000Y-119340000D02*
X119100000Y-114340000D01*
X119100000Y-114340000D02*
X109500000Y-114340000D01*
D12*
X110591600Y-104965500D02*
X109943900Y-104965500D01*
X109943900Y-104965500D02*
X109943900Y-106365040D01*
X110591600Y-106365040D02*
X109943900Y-106365040D01*
X110591600Y-104965500D02*
X110591600Y-106365040D01*
X112064800Y-104965500D02*
X111414560Y-104965500D01*
X111414560Y-104965500D02*
X111414560Y-106365040D01*
X112064800Y-106365040D02*
X111414560Y-106365040D01*
X112064800Y-104965500D02*
X112064800Y-106365040D01*
X111196120Y-105166160D02*
X110799880Y-105166160D01*
X110799880Y-105166160D02*
X110799880Y-106161840D01*
X111196120Y-106161840D02*
X110799880Y-106161840D01*
X111196120Y-105166160D02*
X111196120Y-106161840D01*
D13*
X111406940Y-106299000D02*
X110589060Y-106299000D01*
X111406940Y-105029000D02*
X110589060Y-105029000D01*
D14*
X112969040Y-106646980D02*
X109026960Y-106646980D01*
X109026960Y-106646980D02*
X109026960Y-104681020D01*
X109026960Y-104681020D02*
X112969040Y-104681020D01*
X112969040Y-104681020D02*
X112969040Y-106646980D01*
D12*
X110591600Y-102679500D02*
X109943900Y-102679500D01*
X109943900Y-102679500D02*
X109943900Y-104079040D01*
X110591600Y-104079040D02*
X109943900Y-104079040D01*
X110591600Y-102679500D02*
X110591600Y-104079040D01*
X112064800Y-102679500D02*
X111414560Y-102679500D01*
X111414560Y-102679500D02*
X111414560Y-104079040D01*
X112064800Y-104079040D02*
X111414560Y-104079040D01*
X112064800Y-102679500D02*
X112064800Y-104079040D01*
X111196120Y-102880160D02*
X110799880Y-102880160D01*
X110799880Y-102880160D02*
X110799880Y-103875840D01*
X111196120Y-103875840D02*
X110799880Y-103875840D01*
X111196120Y-102880160D02*
X111196120Y-103875840D01*
D13*
X111406940Y-104013000D02*
X110589060Y-104013000D01*
X111406940Y-102743000D02*
X110589060Y-102743000D01*
D14*
X112969040Y-104360980D02*
X109026960Y-104360980D01*
X109026960Y-104360980D02*
X109026960Y-102395020D01*
X109026960Y-102395020D02*
X112969040Y-102395020D01*
X112969040Y-102395020D02*
X112969040Y-104360980D01*
D12*
X120561100Y-104279700D02*
X119824500Y-104279700D01*
X119824500Y-104279700D02*
X119824500Y-106032300D01*
X120561100Y-106032300D02*
X119824500Y-106032300D01*
X120561100Y-104279700D02*
X120561100Y-106032300D01*
X117919500Y-104279700D02*
X117182900Y-104279700D01*
X117182900Y-104279700D02*
X117182900Y-106032300D01*
X117919500Y-106032300D02*
X117182900Y-106032300D01*
X117919500Y-104279700D02*
X117919500Y-106032300D01*
X119171720Y-104457500D02*
X118572280Y-104457500D01*
X118572280Y-104457500D02*
X118572280Y-105854500D01*
X119171720Y-105854500D02*
X118572280Y-105854500D01*
X119171720Y-104457500D02*
X119171720Y-105854500D01*
D13*
X117919500Y-104343200D02*
X119837200Y-104343200D01*
X117919500Y-105968800D02*
X119837200Y-105968800D01*
D14*
X121343420Y-106138980D02*
X116400580Y-106138980D01*
X116400580Y-106138980D02*
X116400580Y-104173020D01*
X116400580Y-104173020D02*
X121343420Y-104173020D01*
X121343420Y-104173020D02*
X121343420Y-106138980D01*
D10*
X113324000Y-110570000D02*
X113224000Y-110570000D01*
X113224000Y-110570000D02*
X113224000Y-107870000D01*
X113224000Y-107870000D02*
X117574000Y-107870000D01*
X117574000Y-107870000D02*
X117574000Y-110570000D01*
X117574000Y-110570000D02*
X113274000Y-110570000D01*
D12*
X113601500Y-104927400D02*
X113601500Y-105575100D01*
X113601500Y-105575100D02*
X115001040Y-105575100D01*
X115001040Y-104927400D02*
X115001040Y-105575100D01*
X113601500Y-104927400D02*
X115001040Y-104927400D01*
X113601500Y-103454200D02*
X113601500Y-104104440D01*
X113601500Y-104104440D02*
X115001040Y-104104440D01*
X115001040Y-103454200D02*
X115001040Y-104104440D01*
X113601500Y-103454200D02*
X115001040Y-103454200D01*
X113802160Y-104322880D02*
X113802160Y-104719120D01*
X113802160Y-104719120D02*
X114797840Y-104719120D01*
X114797840Y-104322880D02*
X114797840Y-104719120D01*
X113802160Y-104322880D02*
X114797840Y-104322880D01*
D13*
X114935000Y-104112060D02*
X114935000Y-104929940D01*
X113665000Y-104112060D02*
X113665000Y-104929940D01*
D14*
X115282980Y-102549960D02*
X115282980Y-106492040D01*
X115282980Y-106492040D02*
X113317020Y-106492040D01*
X113317020Y-106492040D02*
X113317020Y-102549960D01*
X113317020Y-102549960D02*
X115282980Y-102549960D01*
D12*
X109283500Y-110134400D02*
X109283500Y-110782100D01*
X109283500Y-110782100D02*
X110683040Y-110782100D01*
X110683040Y-110134400D02*
X110683040Y-110782100D01*
X109283500Y-110134400D02*
X110683040Y-110134400D01*
X109283500Y-108661200D02*
X109283500Y-109311440D01*
X109283500Y-109311440D02*
X110683040Y-109311440D01*
X110683040Y-108661200D02*
X110683040Y-109311440D01*
X109283500Y-108661200D02*
X110683040Y-108661200D01*
X109484160Y-109529880D02*
X109484160Y-109926120D01*
X109484160Y-109926120D02*
X110479840Y-109926120D01*
X110479840Y-109529880D02*
X110479840Y-109926120D01*
X109484160Y-109529880D02*
X110479840Y-109529880D01*
D13*
X110617000Y-109319060D02*
X110617000Y-110136940D01*
X109347000Y-109319060D02*
X109347000Y-110136940D01*
D14*
X110964980Y-107756960D02*
X110964980Y-111699040D01*
X110964980Y-111699040D02*
X108999020Y-111699040D01*
X108999020Y-111699040D02*
X108999020Y-107756960D01*
X108999020Y-107756960D02*
X110964980Y-107756960D01*
D12*
X113893600Y-111823500D02*
X113245900Y-111823500D01*
X113245900Y-111823500D02*
X113245900Y-113223040D01*
X113893600Y-113223040D02*
X113245900Y-113223040D01*
X113893600Y-111823500D02*
X113893600Y-113223040D01*
X115366800Y-111823500D02*
X114716560Y-111823500D01*
X114716560Y-111823500D02*
X114716560Y-113223040D01*
X115366800Y-113223040D02*
X114716560Y-113223040D01*
X115366800Y-111823500D02*
X115366800Y-113223040D01*
X114498120Y-112024160D02*
X114101880Y-112024160D01*
X114101880Y-112024160D02*
X114101880Y-113019840D01*
X114498120Y-113019840D02*
X114101880Y-113019840D01*
X114498120Y-112024160D02*
X114498120Y-113019840D01*
D13*
X114708940Y-113157000D02*
X113891060Y-113157000D01*
X114708940Y-111887000D02*
X113891060Y-111887000D01*
D14*
X116271040Y-113504980D02*
X112328960Y-113504980D01*
X112328960Y-113504980D02*
X112328960Y-111539020D01*
X112328960Y-111539020D02*
X116271040Y-111539020D01*
X116271040Y-111539020D02*
X116271040Y-113504980D01*
D15*
X103290000Y-92016000D02*
X103290000Y-91186000D01*
X117640000Y-101266000D02*
X115640000Y-101266000D01*
X113140000Y-100766000D02*
X118170000Y-100766000D01*
X118170000Y-100766000D02*
X118170000Y-91766000D01*
X118170000Y-91766000D02*
X113140000Y-91766000D01*
X103290000Y-91186000D02*
X113140000Y-91186000D01*
X113140000Y-91186000D02*
X113140000Y-101346000D01*
X113140000Y-101346000D02*
X103290000Y-101346000D01*
X103290000Y-101346000D02*
X103290000Y-100516000D01*
D10*
X121512000Y-90778000D02*
X121512000Y-103278000D01*
X121512000Y-103278000D02*
X134012000Y-103278000D01*
X134012000Y-103278000D02*
X134012000Y-90778000D01*
X134012000Y-90778000D02*
X121512000Y-90778000D01*
X105988000Y-109982000D02*
X105988000Y-115132000D01*
X105988000Y-115132000D02*
X97688000Y-115132000D01*
X97688000Y-115132000D02*
X95688000Y-113132000D01*
X95688000Y-113132000D02*
X95688000Y-106832000D01*
X95688000Y-106832000D02*
X97688000Y-104832000D01*
X97688000Y-104832000D02*
X105988000Y-104832000D01*
X105988000Y-104832000D02*
X105988000Y-109982000D01*
X132912000Y-109982000D02*
X132912000Y-115132000D01*
X132912000Y-115132000D02*
X124612000Y-115132000D01*
X124612000Y-115132000D02*
X122612000Y-113132000D01*
X122612000Y-113132000D02*
X122612000Y-106832000D01*
X122612000Y-106832000D02*
X124612000Y-104832000D01*
X124612000Y-104832000D02*
X132912000Y-104832000D01*
X132912000Y-104832000D02*
X132912000Y-109982000D01*
X107529334Y-106021143D02*
X107481715Y-106068762D01*
X107338858Y-106116381D01*
X107243620Y-106116381D01*
X107100762Y-106068762D01*
X107005524Y-105973524D01*
X106957905Y-105878286D01*
X106910286Y-105687810D01*
X106910286Y-105544952D01*
X106957905Y-105354476D01*
X107005524Y-105259238D01*
X107100762Y-105164000D01*
X107243620Y-105116381D01*
X107338858Y-105116381D01*
X107481715Y-105164000D01*
X107529334Y-105211619D01*
X107910286Y-105211619D02*
X107957905Y-105164000D01*
X108053143Y-105116381D01*
X108291239Y-105116381D01*
X108386477Y-105164000D01*
X108434096Y-105211619D01*
X108481715Y-105306857D01*
X108481715Y-105402095D01*
X108434096Y-105544952D01*
X107862667Y-106116381D01*
X108481715Y-106116381D01*
X107529334Y-103735143D02*
X107481715Y-103782762D01*
X107338858Y-103830381D01*
X107243620Y-103830381D01*
X107100762Y-103782762D01*
X107005524Y-103687524D01*
X106957905Y-103592286D01*
X106910286Y-103401810D01*
X106910286Y-103258952D01*
X106957905Y-103068476D01*
X107005524Y-102973238D01*
X107100762Y-102878000D01*
X107243620Y-102830381D01*
X107338858Y-102830381D01*
X107481715Y-102878000D01*
X107529334Y-102925619D01*
X107862667Y-102830381D02*
X108481715Y-102830381D01*
X108148381Y-103211333D01*
X108291239Y-103211333D01*
X108386477Y-103258952D01*
X108434096Y-103306571D01*
X108481715Y-103401810D01*
X108481715Y-103639905D01*
X108434096Y-103735143D01*
X108386477Y-103782762D01*
X108291239Y-103830381D01*
X108005524Y-103830381D01*
X107910286Y-103782762D01*
X107862667Y-103735143D01*
X118705334Y-103481143D02*
X118657715Y-103528762D01*
X118514858Y-103576381D01*
X118419620Y-103576381D01*
X118276762Y-103528762D01*
X118181524Y-103433524D01*
X118133905Y-103338286D01*
X118086286Y-103147810D01*
X118086286Y-103004952D01*
X118133905Y-102814476D01*
X118181524Y-102719238D01*
X118276762Y-102624000D01*
X118419620Y-102576381D01*
X118514858Y-102576381D01*
X118657715Y-102624000D01*
X118705334Y-102671619D01*
X119562477Y-102909714D02*
X119562477Y-103576381D01*
X119324381Y-102528762D02*
X119086286Y-103243048D01*
X119705334Y-103243048D01*
X114704905Y-109672381D02*
X114704905Y-108672381D01*
X114943000Y-108672381D01*
X115085858Y-108720000D01*
X115181096Y-108815238D01*
X115228715Y-108910476D01*
X115276334Y-109100952D01*
X115276334Y-109243810D01*
X115228715Y-109434286D01*
X115181096Y-109529524D01*
X115085858Y-109624762D01*
X114943000Y-109672381D01*
X114704905Y-109672381D01*
X116228715Y-109672381D02*
X115657286Y-109672381D01*
X115943000Y-109672381D02*
X115943000Y-108672381D01*
X115847762Y-108815238D01*
X115752524Y-108910476D01*
X115657286Y-108958095D01*
X116165334Y-103576381D02*
X115832000Y-103100190D01*
X115593905Y-103576381D02*
X115593905Y-102576381D01*
X115974858Y-102576381D01*
X116070096Y-102624000D01*
X116117715Y-102671619D01*
X116165334Y-102766857D01*
X116165334Y-102909714D01*
X116117715Y-103004952D01*
X116070096Y-103052571D01*
X115974858Y-103100190D01*
X115593905Y-103100190D01*
X117117715Y-103576381D02*
X116546286Y-103576381D01*
X116832000Y-103576381D02*
X116832000Y-102576381D01*
X116736762Y-102719238D01*
X116641524Y-102814476D01*
X116546286Y-102862095D01*
X109815334Y-112974381D02*
X109482000Y-112498190D01*
X109243905Y-112974381D02*
X109243905Y-111974381D01*
X109624858Y-111974381D01*
X109720096Y-112022000D01*
X109767715Y-112069619D01*
X109815334Y-112164857D01*
X109815334Y-112307714D01*
X109767715Y-112402952D01*
X109720096Y-112450571D01*
X109624858Y-112498190D01*
X109243905Y-112498190D01*
X110196286Y-112069619D02*
X110243905Y-112022000D01*
X110339143Y-111974381D01*
X110577239Y-111974381D01*
X110672477Y-112022000D01*
X110720096Y-112069619D01*
X110767715Y-112164857D01*
X110767715Y-112260095D01*
X110720096Y-112402952D01*
X110148667Y-112974381D01*
X110767715Y-112974381D01*
X117181334Y-112974381D02*
X116848000Y-112498190D01*
X116609905Y-112974381D02*
X116609905Y-111974381D01*
X116990858Y-111974381D01*
X117086096Y-112022000D01*
X117133715Y-112069619D01*
X117181334Y-112164857D01*
X117181334Y-112307714D01*
X117133715Y-112402952D01*
X117086096Y-112450571D01*
X116990858Y-112498190D01*
X116609905Y-112498190D01*
X117514667Y-111974381D02*
X118133715Y-111974381D01*
X117800381Y-112355333D01*
X117943239Y-112355333D01*
X118038477Y-112402952D01*
X118086096Y-112450571D01*
X118133715Y-112545810D01*
X118133715Y-112783905D01*
X118086096Y-112879143D01*
X118038477Y-112926762D01*
X117943239Y-112974381D01*
X117657524Y-112974381D01*
X117562286Y-112926762D01*
X117514667Y-112879143D01*
X112466381Y-98242190D02*
X112466381Y-98718381D01*
X111466381Y-98718381D01*
X111466381Y-98051714D02*
X111466381Y-97480285D01*
X112466381Y-97766000D02*
X111466381Y-97766000D01*
X112466381Y-96623142D02*
X112466381Y-97194571D01*
X112466381Y-96908857D02*
X111466381Y-96908857D01*
X111609238Y-97004095D01*
X111704476Y-97099333D01*
X111752095Y-97194571D01*
X111466381Y-96289809D02*
X111466381Y-95670761D01*
X111847333Y-96004095D01*
X111847333Y-95861237D01*
X111894952Y-95765999D01*
X111942571Y-95718380D01*
X112037810Y-95670761D01*
X112275905Y-95670761D01*
X112371143Y-95718380D01*
X112418762Y-95765999D01*
X112466381Y-95861237D01*
X112466381Y-96146952D01*
X112418762Y-96242190D01*
X112371143Y-96289809D01*
X111466381Y-95337428D02*
X111466381Y-94670761D01*
X112466381Y-95099333D01*
X111466381Y-94099333D02*
X111466381Y-94004094D01*
X111514000Y-93908856D01*
X111561619Y-93861237D01*
X111656857Y-93813618D01*
X111847333Y-93765999D01*
X112085429Y-93765999D01*
X112275905Y-93813618D01*
X112371143Y-93861237D01*
X112418762Y-93908856D01*
X112466381Y-94004094D01*
X112466381Y-94099333D01*
X112418762Y-94194571D01*
X112371143Y-94242190D01*
X112275905Y-94289809D01*
X112085429Y-94337428D01*
X111847333Y-94337428D01*
X111656857Y-94289809D01*
X111561619Y-94242190D01*
X111514000Y-94194571D01*
X111466381Y-94099333D01*
X127595334Y-97480381D02*
X127119143Y-97480381D01*
X127119143Y-96480381D01*
X128452477Y-97480381D02*
X127881048Y-97480381D01*
X128166762Y-97480381D02*
X128166762Y-96480381D01*
X128071524Y-96623238D01*
X127976286Y-96718476D01*
X127881048Y-96766095D01*
X100671334Y-110339143D02*
X100623715Y-110386762D01*
X100480858Y-110434381D01*
X100385620Y-110434381D01*
X100242762Y-110386762D01*
X100147524Y-110291524D01*
X100099905Y-110196286D01*
X100052286Y-110005810D01*
X100052286Y-109862952D01*
X100099905Y-109672476D01*
X100147524Y-109577238D01*
X100242762Y-109482000D01*
X100385620Y-109434381D01*
X100480858Y-109434381D01*
X100623715Y-109482000D01*
X100671334Y-109529619D01*
X101623715Y-110434381D02*
X101052286Y-110434381D01*
X101338000Y-110434381D02*
X101338000Y-109434381D01*
X101242762Y-109577238D01*
X101147524Y-109672476D01*
X101052286Y-109720095D01*
X127595334Y-110339143D02*
X127547715Y-110386762D01*
X127404858Y-110434381D01*
X127309620Y-110434381D01*
X127166762Y-110386762D01*
X127071524Y-110291524D01*
X127023905Y-110196286D01*
X126976286Y-110005810D01*
X126976286Y-109862952D01*
X127023905Y-109672476D01*
X127071524Y-109577238D01*
X127166762Y-109482000D01*
X127309620Y-109434381D01*
X127404858Y-109434381D01*
X127547715Y-109482000D01*
X127595334Y-109529619D01*
X128500096Y-109434381D02*
X128023905Y-109434381D01*
X127976286Y-109910571D01*
X128023905Y-109862952D01*
X128119143Y-109815333D01*
X128357239Y-109815333D01*
X128452477Y-109862952D01*
X128500096Y-109910571D01*
X128547715Y-110005810D01*
X128547715Y-110243905D01*
X128500096Y-110339143D01*
X128452477Y-110386762D01*
X128357239Y-110434381D01*
X128119143Y-110434381D01*
X128023905Y-110386762D01*
X127976286Y-110339143D01*
M02*
