G04 #@! TF.FileFunction,Copper,L1,Top,Signal*
%FSLAX46Y46*%
G04 Gerber Fmt 4.6, Leading zero omitted, Abs format (unit mm)*
G04 Created by KiCad (PCBNEW (2015-06-26 BZR 5832)-product) date Sonntag, 28. Februar 2016 'u30' 08:30:50*
%MOMM*%
G01*
G04 APERTURE LIST*
%ADD10C,0.150000*%
%ADD11C,1.422400*%
%ADD12C,2.032000*%
%ADD13R,1.099820X1.399540*%
%ADD14R,1.597660X1.800860*%
%ADD15R,2.500000X1.520000*%
%ADD16R,4.100000X2.200000*%
%ADD17R,1.399540X1.099820*%
%ADD18R,2.032000X2.032000*%
%ADD19O,2.032000X2.032000*%
%ADD20C,1.300000*%
%ADD21C,3.200000*%
%ADD22R,6.350000X7.620000*%
%ADD23R,2.410000X0.910000*%
%ADD24R,2.410000X10.000000*%
%ADD25R,5.000000X2.150000*%
%ADD26R,5.600000X4.300000*%
%ADD27C,0.600000*%
%ADD28C,0.910000*%
%ADD29C,2.032000*%
%ADD30C,1.250000*%
%ADD31C,1.597660*%
%ADD32C,0.250000*%
%ADD33C,0.254000*%
G04 APERTURE END LIST*
D10*
D11*
X98044000Y-99042220D03*
X98044000Y-97045780D03*
D12*
X116840000Y-119380000D03*
X114300000Y-119380000D03*
X111760000Y-119380000D03*
X116840000Y-116840000D03*
X114300000Y-116840000D03*
X111760000Y-116840000D03*
X116840000Y-88900000D03*
X114300000Y-88900000D03*
X111760000Y-88900000D03*
D13*
X111996220Y-105664000D03*
X109999780Y-105664000D03*
X111996220Y-103378000D03*
X109999780Y-103378000D03*
D14*
X120291860Y-105156000D03*
X117452140Y-105156000D03*
D15*
X117994000Y-109220000D03*
D16*
X113774000Y-109220000D03*
D12*
X99060000Y-116840000D03*
X104140000Y-88900000D03*
X106680000Y-88900000D03*
X121920000Y-88900000D03*
X124460000Y-88900000D03*
D17*
X114300000Y-103522780D03*
X114300000Y-105519220D03*
X109982000Y-108729780D03*
X109982000Y-110726220D03*
D13*
X115298220Y-112522000D03*
X113301780Y-112522000D03*
D12*
X116840000Y-86360000D03*
X114300000Y-86360000D03*
X111760000Y-86360000D03*
D18*
X95250000Y-88900000D03*
D12*
X99060000Y-88900000D03*
X101600000Y-88900000D03*
D18*
X133350000Y-88900000D03*
X133350000Y-116840000D03*
D12*
X101600000Y-116840000D03*
X101600000Y-119380000D03*
D18*
X95250000Y-116840000D03*
D12*
X99060000Y-86360000D03*
X101600000Y-86360000D03*
X127000000Y-116840000D03*
X104140000Y-86360000D03*
X106680000Y-86360000D03*
X121920000Y-86360000D03*
X127000000Y-86360000D03*
X129540000Y-86360000D03*
X124460000Y-86360000D03*
X129540000Y-119380000D03*
X127000000Y-119380000D03*
X129540000Y-88900000D03*
X127000000Y-88900000D03*
X99060000Y-119380000D03*
X129540000Y-116840000D03*
X104140000Y-119380000D03*
X104140000Y-116840000D03*
X106680000Y-119380000D03*
X106680000Y-116840000D03*
X109220000Y-119380000D03*
X109220000Y-116840000D03*
X119380000Y-119380000D03*
X119380000Y-116840000D03*
X121920000Y-119380000D03*
X121920000Y-116840000D03*
X124460000Y-119380000D03*
X124460000Y-116840000D03*
X119380000Y-88900000D03*
D19*
X119380000Y-86360000D03*
D12*
X109220000Y-88900000D03*
D19*
X109220000Y-86360000D03*
D20*
X94626000Y-99644000D03*
X92826000Y-98844000D03*
X94626000Y-98044000D03*
X92826000Y-97244000D03*
X94626000Y-96444000D03*
D21*
X93726000Y-93844000D03*
X93726000Y-102244000D03*
D22*
X107490000Y-96266000D03*
D23*
X116715000Y-100076000D03*
X116715000Y-98806000D03*
X116715000Y-97536000D03*
X116715000Y-96266000D03*
X116715000Y-94996000D03*
X116715000Y-93726000D03*
X116715000Y-92456000D03*
D24*
X103490000Y-96266000D03*
D25*
X123262000Y-95313000D03*
X123262000Y-98743000D03*
X132262000Y-98743000D03*
X132262000Y-95313000D03*
D26*
X96388000Y-109982000D03*
X105288000Y-109982000D03*
X123312000Y-109982000D03*
X132212000Y-109982000D03*
D27*
X111506000Y-111252000D03*
X111760000Y-100584000D03*
X116840000Y-112522000D03*
X99822000Y-107188000D03*
X114427000Y-97536000D03*
X112776000Y-92456000D03*
X123952000Y-106934000D03*
X116332000Y-107442000D03*
D28*
X109982000Y-110726220D02*
X109982000Y-110998000D01*
X109982000Y-110998000D02*
X110236000Y-111252000D01*
X110236000Y-111252000D02*
X111506000Y-111252000D01*
X116715000Y-98806000D02*
X113538000Y-98806000D01*
X113538000Y-98806000D02*
X111760000Y-100584000D01*
X115298220Y-112522000D02*
X116840000Y-112522000D01*
D29*
X96388000Y-109982000D02*
X97028000Y-109982000D01*
X97028000Y-109982000D02*
X99822000Y-107188000D01*
X95250000Y-88900000D02*
X99060000Y-88900000D01*
D28*
X116715000Y-96266000D02*
X107490000Y-96266000D01*
D29*
X127000000Y-116840000D02*
X127000000Y-119380000D01*
X129540000Y-116840000D02*
X129540000Y-119380000D01*
X99060000Y-116840000D02*
X99060000Y-119380000D01*
X101600000Y-116840000D02*
X101600000Y-119380000D01*
X129540000Y-116840000D02*
X133350000Y-116840000D01*
X99060000Y-116840000D02*
X95250000Y-116840000D01*
D28*
X107490000Y-96266000D02*
X103490000Y-96266000D01*
D30*
X132270000Y-95313000D02*
X132262000Y-95313000D01*
X133604000Y-95377000D02*
X133540000Y-95313000D01*
X133540000Y-95313000D02*
X132262000Y-95313000D01*
D31*
X132212000Y-109982000D02*
X131572000Y-109982000D01*
D32*
X132262000Y-109932000D02*
X132212000Y-109982000D01*
D28*
X114300000Y-105519220D02*
X112141000Y-105519220D01*
X112141000Y-105519220D02*
X111996220Y-105664000D01*
X114300000Y-103522780D02*
X112141000Y-103522780D01*
X112141000Y-103522780D02*
X111996220Y-103378000D01*
X116715000Y-100076000D02*
X114808000Y-100076000D01*
X114300000Y-100584000D02*
X114300000Y-103522780D01*
X114808000Y-100076000D02*
X114300000Y-100584000D01*
D30*
X120291860Y-105156000D02*
X120291860Y-103228140D01*
X123262000Y-100258000D02*
X123262000Y-98743000D01*
X120291860Y-103228140D02*
X123262000Y-100258000D01*
X117994000Y-109220000D02*
X117994000Y-108320000D01*
X117994000Y-108320000D02*
X120291860Y-106022140D01*
X120291860Y-106022140D02*
X120291860Y-105156000D01*
D28*
X123262000Y-95313000D02*
X121095000Y-95313000D01*
X121095000Y-95313000D02*
X119380000Y-97028000D01*
X117452140Y-103273860D02*
X117452140Y-105156000D01*
X119380000Y-101346000D02*
X117452140Y-103273860D01*
X119380000Y-97028000D02*
X119380000Y-101346000D01*
X116715000Y-94996000D02*
X122945000Y-94996000D01*
X122945000Y-94996000D02*
X123262000Y-95313000D01*
X116715000Y-97536000D02*
X114427000Y-97536000D01*
D29*
X129540000Y-88900000D02*
X133350000Y-88900000D01*
D28*
X116715000Y-92456000D02*
X118872000Y-92456000D01*
X128715000Y-98743000D02*
X132262000Y-98743000D01*
X127762000Y-97790000D02*
X128715000Y-98743000D01*
X127762000Y-94488000D02*
X127762000Y-97790000D01*
X126238000Y-92964000D02*
X127762000Y-94488000D01*
X119380000Y-92964000D02*
X126238000Y-92964000D01*
X118872000Y-92456000D02*
X119380000Y-92964000D01*
X114300000Y-92456000D02*
X112776000Y-92456000D01*
D31*
X132212000Y-98793000D02*
X132262000Y-98743000D01*
D30*
X132212000Y-98793000D02*
X132262000Y-98743000D01*
D32*
X132770000Y-98743000D02*
X129985000Y-98743000D01*
X132770000Y-98743000D02*
X134683000Y-98743000D01*
X132720000Y-98793000D02*
X132770000Y-98743000D01*
D28*
X116715000Y-92456000D02*
X114300000Y-92456000D01*
X114300000Y-92456000D02*
X114173000Y-92456000D01*
X111760000Y-90043000D02*
X111760000Y-88900000D01*
X123312000Y-109982000D02*
X123312000Y-107574000D01*
X123312000Y-107574000D02*
X123952000Y-106934000D01*
X113774000Y-109220000D02*
X114554000Y-109220000D01*
X114554000Y-109220000D02*
X116332000Y-107442000D01*
X109982000Y-108729780D02*
X113283780Y-108729780D01*
X113283780Y-108729780D02*
X113774000Y-109220000D01*
X122550000Y-110744000D02*
X123312000Y-109982000D01*
D33*
G36*
X125963348Y-118695000D02*
X125860466Y-118446005D01*
X125524868Y-118109821D01*
X125858834Y-117776437D01*
X126110713Y-117169845D01*
X126111286Y-116513037D01*
X125860466Y-115906005D01*
X125396437Y-115441166D01*
X124789845Y-115189287D01*
X124133037Y-115188714D01*
X123526005Y-115439534D01*
X123189821Y-115775132D01*
X122856437Y-115441166D01*
X122249845Y-115189287D01*
X121593037Y-115188714D01*
X120986005Y-115439534D01*
X120649821Y-115775132D01*
X120316437Y-115441166D01*
X119709845Y-115189287D01*
X119053037Y-115188714D01*
X118446005Y-115439534D01*
X118109821Y-115775132D01*
X117776437Y-115441166D01*
X117169845Y-115189287D01*
X116513037Y-115188714D01*
X115906005Y-115439534D01*
X115441166Y-115903563D01*
X115189287Y-116510155D01*
X115188714Y-117166963D01*
X115439534Y-117773995D01*
X115775132Y-118110179D01*
X115441166Y-118443563D01*
X115336760Y-118695000D01*
X113263348Y-118695000D01*
X113160466Y-118446005D01*
X112824868Y-118109821D01*
X113158834Y-117776437D01*
X113410713Y-117169845D01*
X113411286Y-116513037D01*
X113160466Y-115906005D01*
X112696437Y-115441166D01*
X112089845Y-115189287D01*
X111433037Y-115188714D01*
X110826005Y-115439534D01*
X110489821Y-115775132D01*
X110156437Y-115441166D01*
X109549845Y-115189287D01*
X108893037Y-115188714D01*
X108286005Y-115439534D01*
X107949821Y-115775132D01*
X107616437Y-115441166D01*
X107009845Y-115189287D01*
X106353037Y-115188714D01*
X105746005Y-115439534D01*
X105409821Y-115775132D01*
X105076437Y-115441166D01*
X104469845Y-115189287D01*
X103813037Y-115188714D01*
X103206005Y-115439534D01*
X102741166Y-115903563D01*
X102489287Y-116510155D01*
X102488714Y-117166963D01*
X102739534Y-117773995D01*
X103075132Y-118110179D01*
X102741166Y-118443563D01*
X102636760Y-118695000D01*
X92125000Y-118695000D01*
X92125000Y-113221770D01*
X114100870Y-113221770D01*
X114147847Y-113463893D01*
X114287637Y-113676697D01*
X114498670Y-113819147D01*
X114748310Y-113869210D01*
X115848130Y-113869210D01*
X116090253Y-113822233D01*
X116303057Y-113682443D01*
X116350607Y-113612000D01*
X116840000Y-113612000D01*
X117257125Y-113529029D01*
X117610746Y-113292746D01*
X117847029Y-112939125D01*
X117930000Y-112522000D01*
X117847029Y-112104875D01*
X117610746Y-111751254D01*
X117257125Y-111514971D01*
X116840000Y-111432000D01*
X116351302Y-111432000D01*
X116308803Y-111367303D01*
X116097770Y-111224853D01*
X115848130Y-111174790D01*
X114748310Y-111174790D01*
X112580643Y-111174790D01*
X112539398Y-110967440D01*
X115824000Y-110967440D01*
X116066123Y-110920463D01*
X116278927Y-110780673D01*
X116421377Y-110569640D01*
X116428712Y-110533064D01*
X116494360Y-110577377D01*
X116744000Y-110627440D01*
X119244000Y-110627440D01*
X119486123Y-110580463D01*
X119698927Y-110440673D01*
X119841377Y-110229640D01*
X119864560Y-110114038D01*
X119864560Y-112132000D01*
X119911537Y-112374123D01*
X120051327Y-112586927D01*
X120262360Y-112729377D01*
X120512000Y-112779440D01*
X126112000Y-112779440D01*
X126354123Y-112732463D01*
X126566927Y-112592673D01*
X126709377Y-112381640D01*
X126759440Y-112132000D01*
X126759440Y-107832000D01*
X126712463Y-107589877D01*
X126572673Y-107377073D01*
X126361640Y-107234623D01*
X126112000Y-107184560D01*
X124992161Y-107184560D01*
X125042000Y-106934000D01*
X124959029Y-106516875D01*
X124722747Y-106163253D01*
X124369125Y-105926971D01*
X123952000Y-105844000D01*
X123534875Y-105926971D01*
X123181254Y-106163253D01*
X122541254Y-106803254D01*
X122304971Y-107156875D01*
X122299464Y-107184560D01*
X120911349Y-107184560D01*
X121182812Y-106913097D01*
X121182815Y-106913095D01*
X121370580Y-106632084D01*
X121545617Y-106517103D01*
X121688067Y-106306070D01*
X121738130Y-106056430D01*
X121738130Y-104255570D01*
X121691153Y-104013447D01*
X121551860Y-103801400D01*
X121551860Y-103750050D01*
X124152952Y-101148957D01*
X124152955Y-101148955D01*
X124426088Y-100740181D01*
X124480738Y-100465440D01*
X125762000Y-100465440D01*
X126004123Y-100418463D01*
X126216927Y-100278673D01*
X126359377Y-100067640D01*
X126409440Y-99818000D01*
X126409440Y-97668000D01*
X126362463Y-97425877D01*
X126222673Y-97213073D01*
X126011640Y-97070623D01*
X125799713Y-97028123D01*
X126004123Y-96988463D01*
X126216927Y-96848673D01*
X126359377Y-96637640D01*
X126409440Y-96388000D01*
X126409440Y-94676933D01*
X126672000Y-94939493D01*
X126672000Y-97790000D01*
X126737243Y-98117999D01*
X126754971Y-98207125D01*
X126991254Y-98560746D01*
X127944254Y-99513747D01*
X128297875Y-99750029D01*
X128715000Y-99833000D01*
X129117470Y-99833000D01*
X129161537Y-100060123D01*
X129301327Y-100272927D01*
X129512360Y-100415377D01*
X129762000Y-100465440D01*
X134762000Y-100465440D01*
X135004123Y-100418463D01*
X135216927Y-100278673D01*
X135359377Y-100067640D01*
X135409440Y-99818000D01*
X135409440Y-98911716D01*
X135443000Y-98743000D01*
X135409440Y-98574284D01*
X135409440Y-97668000D01*
X135362463Y-97425877D01*
X135222673Y-97213073D01*
X135011640Y-97070623D01*
X134762000Y-97020560D01*
X129762000Y-97020560D01*
X129519877Y-97067537D01*
X129307073Y-97207327D01*
X129164623Y-97418360D01*
X129125741Y-97612248D01*
X128852000Y-97338508D01*
X128852000Y-94488000D01*
X128769029Y-94070875D01*
X128681940Y-93940537D01*
X128532746Y-93717253D01*
X127008746Y-92193254D01*
X126655125Y-91956971D01*
X126238000Y-91874000D01*
X119831492Y-91874000D01*
X119642746Y-91685254D01*
X119289125Y-91448971D01*
X118872000Y-91366000D01*
X117982032Y-91366000D01*
X117920000Y-91353560D01*
X115510000Y-91353560D01*
X115445883Y-91366000D01*
X112776000Y-91366000D01*
X112358875Y-91448971D01*
X112005254Y-91685254D01*
X111768971Y-92038875D01*
X111686000Y-92456000D01*
X111768971Y-92873125D01*
X112005254Y-93226746D01*
X112358875Y-93463029D01*
X112776000Y-93546000D01*
X114862560Y-93546000D01*
X114862560Y-94181000D01*
X114898061Y-94363974D01*
X114862560Y-94541000D01*
X114862560Y-95451000D01*
X114909537Y-95693123D01*
X115049327Y-95905927D01*
X115260360Y-96048377D01*
X115510000Y-96098440D01*
X117920000Y-96098440D01*
X117984117Y-96086000D01*
X118780508Y-96086000D01*
X118609254Y-96257254D01*
X118372971Y-96610875D01*
X118371218Y-96619690D01*
X118169640Y-96483623D01*
X117920000Y-96433560D01*
X115510000Y-96433560D01*
X115445883Y-96446000D01*
X114427000Y-96446000D01*
X114009875Y-96528971D01*
X113656254Y-96765254D01*
X113419971Y-97118875D01*
X113337000Y-97536000D01*
X113379091Y-97747609D01*
X113120875Y-97798971D01*
X112767254Y-98035253D01*
X110989254Y-99813254D01*
X110752971Y-100166875D01*
X110670001Y-100584000D01*
X110752971Y-101001125D01*
X110989254Y-101354746D01*
X111342875Y-101591029D01*
X111760000Y-101673999D01*
X112177125Y-101591029D01*
X112530746Y-101354746D01*
X113210000Y-100675492D01*
X113210000Y-102432780D01*
X113144408Y-102432780D01*
X113006803Y-102223303D01*
X112795770Y-102080853D01*
X112546130Y-102030790D01*
X111446310Y-102030790D01*
X111204187Y-102077767D01*
X110991383Y-102217557D01*
X110848933Y-102428590D01*
X110798870Y-102678230D01*
X110798870Y-104077770D01*
X110845847Y-104319893D01*
X110978770Y-104522243D01*
X110848933Y-104714590D01*
X110798870Y-104964230D01*
X110798870Y-106363770D01*
X110845847Y-106605893D01*
X110985637Y-106818697D01*
X111196670Y-106961147D01*
X111446310Y-107011210D01*
X112546130Y-107011210D01*
X112788253Y-106964233D01*
X113001057Y-106824443D01*
X113143507Y-106613410D01*
X113144347Y-106609220D01*
X113265722Y-106609220D01*
X113350590Y-106666507D01*
X113600230Y-106716570D01*
X114999770Y-106716570D01*
X115241893Y-106669593D01*
X115454697Y-106529803D01*
X115597147Y-106318770D01*
X115647210Y-106069130D01*
X115647210Y-104969310D01*
X115600233Y-104727187D01*
X115463928Y-104519688D01*
X115597147Y-104322330D01*
X115647210Y-104072690D01*
X115647210Y-102972870D01*
X115600233Y-102730747D01*
X115460443Y-102517943D01*
X115390000Y-102470393D01*
X115390000Y-101166000D01*
X115447968Y-101166000D01*
X115510000Y-101178440D01*
X117920000Y-101178440D01*
X118026786Y-101157721D01*
X116681394Y-102503114D01*
X116445111Y-102856735D01*
X116362140Y-103273860D01*
X116362140Y-103687326D01*
X116198383Y-103794897D01*
X116055933Y-104005930D01*
X116005870Y-104255570D01*
X116005870Y-106056430D01*
X116052847Y-106298553D01*
X116116159Y-106394933D01*
X115914875Y-106434971D01*
X115561254Y-106671253D01*
X114759947Y-107472560D01*
X111724000Y-107472560D01*
X111481877Y-107519537D01*
X111298830Y-107639780D01*
X111016278Y-107639780D01*
X110931410Y-107582493D01*
X110681770Y-107532430D01*
X109282230Y-107532430D01*
X109040107Y-107579407D01*
X108827303Y-107719197D01*
X108684853Y-107930230D01*
X108634790Y-108179870D01*
X108634790Y-109279690D01*
X108681767Y-109521813D01*
X108818072Y-109729312D01*
X108684853Y-109926670D01*
X108634790Y-110176310D01*
X108634790Y-111276130D01*
X108681767Y-111518253D01*
X108821557Y-111731057D01*
X109032590Y-111873507D01*
X109282230Y-111923570D01*
X109366077Y-111923570D01*
X109465253Y-112022746D01*
X109588168Y-112104875D01*
X109818875Y-112259029D01*
X110236000Y-112342000D01*
X111506000Y-112342000D01*
X111923125Y-112259029D01*
X112276746Y-112022746D01*
X112513029Y-111669125D01*
X112596000Y-111252000D01*
X112580643Y-111174790D01*
X114748310Y-111174790D01*
X112580643Y-111174790D01*
X112580643Y-111174790D01*
X114748310Y-111174790D01*
X114506187Y-111221767D01*
X114293383Y-111361557D01*
X114150933Y-111572590D01*
X114100870Y-111822230D01*
X114100870Y-113221770D01*
X92125000Y-113221770D01*
X92125000Y-105662675D01*
X99190190Y-105662675D01*
X98654567Y-106020566D01*
X97490573Y-107184560D01*
X93588000Y-107184560D01*
X93345877Y-107231537D01*
X93133073Y-107371327D01*
X92990623Y-107582360D01*
X92940560Y-107832000D01*
X92940560Y-112132000D01*
X92987537Y-112374123D01*
X93127327Y-112586927D01*
X93338360Y-112729377D01*
X93588000Y-112779440D01*
X99188000Y-112779440D01*
X99430123Y-112732463D01*
X99642927Y-112592673D01*
X99785377Y-112381640D01*
X99835440Y-112132000D01*
X99835440Y-109509427D01*
X100989434Y-108355433D01*
X101347325Y-107819810D01*
X101473000Y-107188000D01*
X101347325Y-106556189D01*
X100989434Y-106020566D01*
X100453811Y-105662675D01*
X99822000Y-105537000D01*
X99190190Y-105662675D01*
X92125000Y-105662675D01*
X92125000Y-99944297D01*
X92569276Y-100128777D01*
X93080481Y-100129223D01*
X93384255Y-100003706D01*
X93535995Y-100370943D01*
X93897155Y-100732735D01*
X94369276Y-100928777D01*
X94880481Y-100929223D01*
X95352943Y-100734005D01*
X95714735Y-100372845D01*
X95910777Y-99900724D01*
X95911223Y-99389519D01*
X95716005Y-98917057D01*
X95643265Y-98844190D01*
X95714735Y-98772845D01*
X95910777Y-98300724D01*
X95911126Y-97900301D01*
X97282435Y-97900301D01*
X96903412Y-98278663D01*
X96698034Y-98773269D01*
X96697566Y-99308821D01*
X96902081Y-99803785D01*
X97280443Y-100182808D01*
X97775049Y-100388186D01*
X98310601Y-100388654D01*
X98805565Y-100184139D01*
X99184588Y-99805777D01*
X99389966Y-99311171D01*
X99390434Y-98775619D01*
X99185919Y-98280655D01*
X98807557Y-97901632D01*
X98312951Y-97696254D01*
X97777399Y-97695786D01*
X97282435Y-97900301D01*
X95911126Y-97900301D01*
X95911223Y-97789519D01*
X95716005Y-97317057D01*
X95354845Y-96955265D01*
X94882724Y-96759223D01*
X94371519Y-96758777D01*
X94067745Y-96884294D01*
X93916005Y-96517057D01*
X93554845Y-96155265D01*
X93082724Y-95959223D01*
X92571519Y-95958777D01*
X92125000Y-96143276D01*
X92125000Y-90673803D01*
X110862360Y-90623837D01*
X110989254Y-90813746D01*
X111342875Y-91050029D01*
X111760000Y-91133000D01*
X112177125Y-91050029D01*
X112530746Y-90813746D01*
X112660844Y-90619041D01*
X133511216Y-90563440D01*
X134366000Y-90563440D01*
X134377912Y-90561129D01*
X136475000Y-90555537D01*
X136475000Y-118695000D01*
X125963348Y-118695000D01*
X125963348Y-118695000D01*
G37*
X125963348Y-118695000D02*
X125860466Y-118446005D01*
X125524868Y-118109821D01*
X125858834Y-117776437D01*
X126110713Y-117169845D01*
X126111286Y-116513037D01*
X125860466Y-115906005D01*
X125396437Y-115441166D01*
X124789845Y-115189287D01*
X124133037Y-115188714D01*
X123526005Y-115439534D01*
X123189821Y-115775132D01*
X122856437Y-115441166D01*
X122249845Y-115189287D01*
X121593037Y-115188714D01*
X120986005Y-115439534D01*
X120649821Y-115775132D01*
X120316437Y-115441166D01*
X119709845Y-115189287D01*
X119053037Y-115188714D01*
X118446005Y-115439534D01*
X118109821Y-115775132D01*
X117776437Y-115441166D01*
X117169845Y-115189287D01*
X116513037Y-115188714D01*
X115906005Y-115439534D01*
X115441166Y-115903563D01*
X115189287Y-116510155D01*
X115188714Y-117166963D01*
X115439534Y-117773995D01*
X115775132Y-118110179D01*
X115441166Y-118443563D01*
X115336760Y-118695000D01*
X113263348Y-118695000D01*
X113160466Y-118446005D01*
X112824868Y-118109821D01*
X113158834Y-117776437D01*
X113410713Y-117169845D01*
X113411286Y-116513037D01*
X113160466Y-115906005D01*
X112696437Y-115441166D01*
X112089845Y-115189287D01*
X111433037Y-115188714D01*
X110826005Y-115439534D01*
X110489821Y-115775132D01*
X110156437Y-115441166D01*
X109549845Y-115189287D01*
X108893037Y-115188714D01*
X108286005Y-115439534D01*
X107949821Y-115775132D01*
X107616437Y-115441166D01*
X107009845Y-115189287D01*
X106353037Y-115188714D01*
X105746005Y-115439534D01*
X105409821Y-115775132D01*
X105076437Y-115441166D01*
X104469845Y-115189287D01*
X103813037Y-115188714D01*
X103206005Y-115439534D01*
X102741166Y-115903563D01*
X102489287Y-116510155D01*
X102488714Y-117166963D01*
X102739534Y-117773995D01*
X103075132Y-118110179D01*
X102741166Y-118443563D01*
X102636760Y-118695000D01*
X92125000Y-118695000D01*
X92125000Y-113221770D01*
X114100870Y-113221770D01*
X114147847Y-113463893D01*
X114287637Y-113676697D01*
X114498670Y-113819147D01*
X114748310Y-113869210D01*
X115848130Y-113869210D01*
X116090253Y-113822233D01*
X116303057Y-113682443D01*
X116350607Y-113612000D01*
X116840000Y-113612000D01*
X117257125Y-113529029D01*
X117610746Y-113292746D01*
X117847029Y-112939125D01*
X117930000Y-112522000D01*
X117847029Y-112104875D01*
X117610746Y-111751254D01*
X117257125Y-111514971D01*
X116840000Y-111432000D01*
X116351302Y-111432000D01*
X116308803Y-111367303D01*
X116097770Y-111224853D01*
X115848130Y-111174790D01*
X114748310Y-111174790D01*
X112580643Y-111174790D01*
X112539398Y-110967440D01*
X115824000Y-110967440D01*
X116066123Y-110920463D01*
X116278927Y-110780673D01*
X116421377Y-110569640D01*
X116428712Y-110533064D01*
X116494360Y-110577377D01*
X116744000Y-110627440D01*
X119244000Y-110627440D01*
X119486123Y-110580463D01*
X119698927Y-110440673D01*
X119841377Y-110229640D01*
X119864560Y-110114038D01*
X119864560Y-112132000D01*
X119911537Y-112374123D01*
X120051327Y-112586927D01*
X120262360Y-112729377D01*
X120512000Y-112779440D01*
X126112000Y-112779440D01*
X126354123Y-112732463D01*
X126566927Y-112592673D01*
X126709377Y-112381640D01*
X126759440Y-112132000D01*
X126759440Y-107832000D01*
X126712463Y-107589877D01*
X126572673Y-107377073D01*
X126361640Y-107234623D01*
X126112000Y-107184560D01*
X124992161Y-107184560D01*
X125042000Y-106934000D01*
X124959029Y-106516875D01*
X124722747Y-106163253D01*
X124369125Y-105926971D01*
X123952000Y-105844000D01*
X123534875Y-105926971D01*
X123181254Y-106163253D01*
X122541254Y-106803254D01*
X122304971Y-107156875D01*
X122299464Y-107184560D01*
X120911349Y-107184560D01*
X121182812Y-106913097D01*
X121182815Y-106913095D01*
X121370580Y-106632084D01*
X121545617Y-106517103D01*
X121688067Y-106306070D01*
X121738130Y-106056430D01*
X121738130Y-104255570D01*
X121691153Y-104013447D01*
X121551860Y-103801400D01*
X121551860Y-103750050D01*
X124152952Y-101148957D01*
X124152955Y-101148955D01*
X124426088Y-100740181D01*
X124480738Y-100465440D01*
X125762000Y-100465440D01*
X126004123Y-100418463D01*
X126216927Y-100278673D01*
X126359377Y-100067640D01*
X126409440Y-99818000D01*
X126409440Y-97668000D01*
X126362463Y-97425877D01*
X126222673Y-97213073D01*
X126011640Y-97070623D01*
X125799713Y-97028123D01*
X126004123Y-96988463D01*
X126216927Y-96848673D01*
X126359377Y-96637640D01*
X126409440Y-96388000D01*
X126409440Y-94676933D01*
X126672000Y-94939493D01*
X126672000Y-97790000D01*
X126737243Y-98117999D01*
X126754971Y-98207125D01*
X126991254Y-98560746D01*
X127944254Y-99513747D01*
X128297875Y-99750029D01*
X128715000Y-99833000D01*
X129117470Y-99833000D01*
X129161537Y-100060123D01*
X129301327Y-100272927D01*
X129512360Y-100415377D01*
X129762000Y-100465440D01*
X134762000Y-100465440D01*
X135004123Y-100418463D01*
X135216927Y-100278673D01*
X135359377Y-100067640D01*
X135409440Y-99818000D01*
X135409440Y-98911716D01*
X135443000Y-98743000D01*
X135409440Y-98574284D01*
X135409440Y-97668000D01*
X135362463Y-97425877D01*
X135222673Y-97213073D01*
X135011640Y-97070623D01*
X134762000Y-97020560D01*
X129762000Y-97020560D01*
X129519877Y-97067537D01*
X129307073Y-97207327D01*
X129164623Y-97418360D01*
X129125741Y-97612248D01*
X128852000Y-97338508D01*
X128852000Y-94488000D01*
X128769029Y-94070875D01*
X128681940Y-93940537D01*
X128532746Y-93717253D01*
X127008746Y-92193254D01*
X126655125Y-91956971D01*
X126238000Y-91874000D01*
X119831492Y-91874000D01*
X119642746Y-91685254D01*
X119289125Y-91448971D01*
X118872000Y-91366000D01*
X117982032Y-91366000D01*
X117920000Y-91353560D01*
X115510000Y-91353560D01*
X115445883Y-91366000D01*
X112776000Y-91366000D01*
X112358875Y-91448971D01*
X112005254Y-91685254D01*
X111768971Y-92038875D01*
X111686000Y-92456000D01*
X111768971Y-92873125D01*
X112005254Y-93226746D01*
X112358875Y-93463029D01*
X112776000Y-93546000D01*
X114862560Y-93546000D01*
X114862560Y-94181000D01*
X114898061Y-94363974D01*
X114862560Y-94541000D01*
X114862560Y-95451000D01*
X114909537Y-95693123D01*
X115049327Y-95905927D01*
X115260360Y-96048377D01*
X115510000Y-96098440D01*
X117920000Y-96098440D01*
X117984117Y-96086000D01*
X118780508Y-96086000D01*
X118609254Y-96257254D01*
X118372971Y-96610875D01*
X118371218Y-96619690D01*
X118169640Y-96483623D01*
X117920000Y-96433560D01*
X115510000Y-96433560D01*
X115445883Y-96446000D01*
X114427000Y-96446000D01*
X114009875Y-96528971D01*
X113656254Y-96765254D01*
X113419971Y-97118875D01*
X113337000Y-97536000D01*
X113379091Y-97747609D01*
X113120875Y-97798971D01*
X112767254Y-98035253D01*
X110989254Y-99813254D01*
X110752971Y-100166875D01*
X110670001Y-100584000D01*
X110752971Y-101001125D01*
X110989254Y-101354746D01*
X111342875Y-101591029D01*
X111760000Y-101673999D01*
X112177125Y-101591029D01*
X112530746Y-101354746D01*
X113210000Y-100675492D01*
X113210000Y-102432780D01*
X113144408Y-102432780D01*
X113006803Y-102223303D01*
X112795770Y-102080853D01*
X112546130Y-102030790D01*
X111446310Y-102030790D01*
X111204187Y-102077767D01*
X110991383Y-102217557D01*
X110848933Y-102428590D01*
X110798870Y-102678230D01*
X110798870Y-104077770D01*
X110845847Y-104319893D01*
X110978770Y-104522243D01*
X110848933Y-104714590D01*
X110798870Y-104964230D01*
X110798870Y-106363770D01*
X110845847Y-106605893D01*
X110985637Y-106818697D01*
X111196670Y-106961147D01*
X111446310Y-107011210D01*
X112546130Y-107011210D01*
X112788253Y-106964233D01*
X113001057Y-106824443D01*
X113143507Y-106613410D01*
X113144347Y-106609220D01*
X113265722Y-106609220D01*
X113350590Y-106666507D01*
X113600230Y-106716570D01*
X114999770Y-106716570D01*
X115241893Y-106669593D01*
X115454697Y-106529803D01*
X115597147Y-106318770D01*
X115647210Y-106069130D01*
X115647210Y-104969310D01*
X115600233Y-104727187D01*
X115463928Y-104519688D01*
X115597147Y-104322330D01*
X115647210Y-104072690D01*
X115647210Y-102972870D01*
X115600233Y-102730747D01*
X115460443Y-102517943D01*
X115390000Y-102470393D01*
X115390000Y-101166000D01*
X115447968Y-101166000D01*
X115510000Y-101178440D01*
X117920000Y-101178440D01*
X118026786Y-101157721D01*
X116681394Y-102503114D01*
X116445111Y-102856735D01*
X116362140Y-103273860D01*
X116362140Y-103687326D01*
X116198383Y-103794897D01*
X116055933Y-104005930D01*
X116005870Y-104255570D01*
X116005870Y-106056430D01*
X116052847Y-106298553D01*
X116116159Y-106394933D01*
X115914875Y-106434971D01*
X115561254Y-106671253D01*
X114759947Y-107472560D01*
X111724000Y-107472560D01*
X111481877Y-107519537D01*
X111298830Y-107639780D01*
X111016278Y-107639780D01*
X110931410Y-107582493D01*
X110681770Y-107532430D01*
X109282230Y-107532430D01*
X109040107Y-107579407D01*
X108827303Y-107719197D01*
X108684853Y-107930230D01*
X108634790Y-108179870D01*
X108634790Y-109279690D01*
X108681767Y-109521813D01*
X108818072Y-109729312D01*
X108684853Y-109926670D01*
X108634790Y-110176310D01*
X108634790Y-111276130D01*
X108681767Y-111518253D01*
X108821557Y-111731057D01*
X109032590Y-111873507D01*
X109282230Y-111923570D01*
X109366077Y-111923570D01*
X109465253Y-112022746D01*
X109588168Y-112104875D01*
X109818875Y-112259029D01*
X110236000Y-112342000D01*
X111506000Y-112342000D01*
X111923125Y-112259029D01*
X112276746Y-112022746D01*
X112513029Y-111669125D01*
X112596000Y-111252000D01*
X112580643Y-111174790D01*
X114748310Y-111174790D01*
X112580643Y-111174790D01*
X112580643Y-111174790D01*
X114748310Y-111174790D01*
X114506187Y-111221767D01*
X114293383Y-111361557D01*
X114150933Y-111572590D01*
X114100870Y-111822230D01*
X114100870Y-113221770D01*
X92125000Y-113221770D01*
X92125000Y-105662675D01*
X99190190Y-105662675D01*
X98654567Y-106020566D01*
X97490573Y-107184560D01*
X93588000Y-107184560D01*
X93345877Y-107231537D01*
X93133073Y-107371327D01*
X92990623Y-107582360D01*
X92940560Y-107832000D01*
X92940560Y-112132000D01*
X92987537Y-112374123D01*
X93127327Y-112586927D01*
X93338360Y-112729377D01*
X93588000Y-112779440D01*
X99188000Y-112779440D01*
X99430123Y-112732463D01*
X99642927Y-112592673D01*
X99785377Y-112381640D01*
X99835440Y-112132000D01*
X99835440Y-109509427D01*
X100989434Y-108355433D01*
X101347325Y-107819810D01*
X101473000Y-107188000D01*
X101347325Y-106556189D01*
X100989434Y-106020566D01*
X100453811Y-105662675D01*
X99822000Y-105537000D01*
X99190190Y-105662675D01*
X92125000Y-105662675D01*
X92125000Y-99944297D01*
X92569276Y-100128777D01*
X93080481Y-100129223D01*
X93384255Y-100003706D01*
X93535995Y-100370943D01*
X93897155Y-100732735D01*
X94369276Y-100928777D01*
X94880481Y-100929223D01*
X95352943Y-100734005D01*
X95714735Y-100372845D01*
X95910777Y-99900724D01*
X95911223Y-99389519D01*
X95716005Y-98917057D01*
X95643265Y-98844190D01*
X95714735Y-98772845D01*
X95910777Y-98300724D01*
X95911126Y-97900301D01*
X97282435Y-97900301D01*
X96903412Y-98278663D01*
X96698034Y-98773269D01*
X96697566Y-99308821D01*
X96902081Y-99803785D01*
X97280443Y-100182808D01*
X97775049Y-100388186D01*
X98310601Y-100388654D01*
X98805565Y-100184139D01*
X99184588Y-99805777D01*
X99389966Y-99311171D01*
X99390434Y-98775619D01*
X99185919Y-98280655D01*
X98807557Y-97901632D01*
X98312951Y-97696254D01*
X97777399Y-97695786D01*
X97282435Y-97900301D01*
X95911126Y-97900301D01*
X95911223Y-97789519D01*
X95716005Y-97317057D01*
X95354845Y-96955265D01*
X94882724Y-96759223D01*
X94371519Y-96758777D01*
X94067745Y-96884294D01*
X93916005Y-96517057D01*
X93554845Y-96155265D01*
X93082724Y-95959223D01*
X92571519Y-95958777D01*
X92125000Y-96143276D01*
X92125000Y-90673803D01*
X110862360Y-90623837D01*
X110989254Y-90813746D01*
X111342875Y-91050029D01*
X111760000Y-91133000D01*
X112177125Y-91050029D01*
X112530746Y-90813746D01*
X112660844Y-90619041D01*
X133511216Y-90563440D01*
X134366000Y-90563440D01*
X134377912Y-90561129D01*
X136475000Y-90555537D01*
X136475000Y-118695000D01*
X125963348Y-118695000D01*
M02*
