G04 #@! TF.FileFunction,Legend,Top*
%FSLAX46Y46*%
G04 Gerber Fmt 4.6, Leading zero omitted, Abs format (unit mm)*
G04 Created by KiCad (PCBNEW (2015-06-26 BZR 5832)-product) date Dienstag, 12. Januar 2016 'u45' 20:45:01*
%MOMM*%
G01*
G04 APERTURE LIST*
%ADD10C,0.150000*%
%ADD11C,0.127000*%
%ADD12C,0.066040*%
%ADD13C,0.152400*%
%ADD14C,0.050800*%
%ADD15C,0.200000*%
G04 APERTURE END LIST*
D10*
X118110000Y-90170000D02*
X118110000Y-87630000D01*
X110490000Y-90170000D02*
X118110000Y-90170000D01*
X110490000Y-87630000D02*
X110490000Y-90170000D01*
X118110000Y-87630000D02*
X110490000Y-87630000D01*
X118713333Y-90860571D02*
X119046667Y-90860571D01*
X119189524Y-91384381D02*
X118713333Y-91384381D01*
X118713333Y-90384381D01*
X119189524Y-90384381D01*
X119618095Y-90717714D02*
X119618095Y-91384381D01*
X119618095Y-90812952D02*
X119665714Y-90765333D01*
X119760952Y-90717714D01*
X119903810Y-90717714D01*
X119999048Y-90765333D01*
X120046667Y-90860571D01*
X120046667Y-91384381D01*
X107950000Y-90170000D02*
X107950000Y-87630000D01*
X102870000Y-90170000D02*
X107950000Y-90170000D01*
X102870000Y-87630000D02*
X102870000Y-90170000D01*
X107950000Y-87630000D02*
X102870000Y-87630000D01*
X125730000Y-90170000D02*
X125730000Y-87630000D01*
X120650000Y-90170000D02*
X125730000Y-90170000D01*
X120650000Y-87630000D02*
X120650000Y-90170000D01*
X125730000Y-87630000D02*
X120650000Y-87630000D01*
X135342381Y-118728857D02*
X136342381Y-118395524D01*
X135342381Y-118062190D01*
X136342381Y-117586000D02*
X136294762Y-117681238D01*
X136247143Y-117728857D01*
X136151905Y-117776476D01*
X135866190Y-117776476D01*
X135770952Y-117728857D01*
X135723333Y-117681238D01*
X135675714Y-117586000D01*
X135675714Y-117443142D01*
X135723333Y-117347904D01*
X135770952Y-117300285D01*
X135866190Y-117252666D01*
X136151905Y-117252666D01*
X136247143Y-117300285D01*
X136294762Y-117347904D01*
X136342381Y-117443142D01*
X136342381Y-117586000D01*
X135675714Y-116395523D02*
X136342381Y-116395523D01*
X135675714Y-116824095D02*
X136199524Y-116824095D01*
X136294762Y-116776476D01*
X136342381Y-116681238D01*
X136342381Y-116538380D01*
X136294762Y-116443142D01*
X136247143Y-116395523D01*
X135675714Y-116062190D02*
X135675714Y-115681238D01*
X135342381Y-115919333D02*
X136199524Y-115919333D01*
X136294762Y-115871714D01*
X136342381Y-115776476D01*
X136342381Y-115681238D01*
X135961429Y-115347904D02*
X135961429Y-114585999D01*
X135342381Y-91042857D02*
X136342381Y-90709524D01*
X135342381Y-90376190D01*
X136342381Y-89900000D02*
X136294762Y-89995238D01*
X136247143Y-90042857D01*
X136151905Y-90090476D01*
X135866190Y-90090476D01*
X135770952Y-90042857D01*
X135723333Y-89995238D01*
X135675714Y-89900000D01*
X135675714Y-89757142D01*
X135723333Y-89661904D01*
X135770952Y-89614285D01*
X135866190Y-89566666D01*
X136151905Y-89566666D01*
X136247143Y-89614285D01*
X136294762Y-89661904D01*
X136342381Y-89757142D01*
X136342381Y-89900000D01*
X135675714Y-88709523D02*
X136342381Y-88709523D01*
X135675714Y-89138095D02*
X136199524Y-89138095D01*
X136294762Y-89090476D01*
X136342381Y-88995238D01*
X136342381Y-88852380D01*
X136294762Y-88757142D01*
X136247143Y-88709523D01*
X135675714Y-88376190D02*
X135675714Y-87995238D01*
X135342381Y-88233333D02*
X136199524Y-88233333D01*
X136294762Y-88185714D01*
X136342381Y-88090476D01*
X136342381Y-87995238D01*
X135961429Y-87661904D02*
X135961429Y-86899999D01*
X136342381Y-87280951D02*
X135580476Y-87280951D01*
X92162381Y-118228857D02*
X93162381Y-117895524D01*
X92162381Y-117562190D01*
X93162381Y-117228857D02*
X92495714Y-117228857D01*
X92162381Y-117228857D02*
X92210000Y-117276476D01*
X92257619Y-117228857D01*
X92210000Y-117181238D01*
X92162381Y-117228857D01*
X92257619Y-117228857D01*
X92495714Y-116752667D02*
X93162381Y-116752667D01*
X92590952Y-116752667D02*
X92543333Y-116705048D01*
X92495714Y-116609810D01*
X92495714Y-116466952D01*
X92543333Y-116371714D01*
X92638571Y-116324095D01*
X93162381Y-116324095D01*
X92781429Y-115847905D02*
X92781429Y-115086000D01*
X92162381Y-90034857D02*
X93162381Y-89701524D01*
X92162381Y-89368190D01*
X93162381Y-89034857D02*
X92495714Y-89034857D01*
X92162381Y-89034857D02*
X92210000Y-89082476D01*
X92257619Y-89034857D01*
X92210000Y-88987238D01*
X92162381Y-89034857D01*
X92257619Y-89034857D01*
X92495714Y-88558667D02*
X93162381Y-88558667D01*
X92590952Y-88558667D02*
X92543333Y-88511048D01*
X92495714Y-88415810D01*
X92495714Y-88272952D01*
X92543333Y-88177714D01*
X92638571Y-88130095D01*
X93162381Y-88130095D01*
X92781429Y-87653905D02*
X92781429Y-86892000D01*
X93162381Y-87272952D02*
X92400476Y-87272952D01*
D11*
X96344740Y-101043740D02*
X96344740Y-98541840D01*
X96344740Y-98541840D02*
X95844360Y-98541840D01*
X95844360Y-98541840D02*
X95844360Y-97546160D01*
X95844360Y-97546160D02*
X96344740Y-97546160D01*
X96344740Y-97546160D02*
X96344740Y-95044260D01*
X96344740Y-95044260D02*
X100843080Y-95044260D01*
X100843080Y-95044260D02*
X100843080Y-101043740D01*
X100843080Y-101043740D02*
X96344740Y-101043740D01*
D10*
X109500000Y-114340000D02*
X109500000Y-116840000D01*
X109500000Y-116840000D02*
X109500000Y-119340000D01*
X109500000Y-119340000D02*
X119100000Y-119340000D01*
X119100000Y-119340000D02*
X119100000Y-114340000D01*
X119100000Y-114340000D02*
X109500000Y-114340000D01*
D12*
X110718600Y-105600500D02*
X110070900Y-105600500D01*
X110070900Y-105600500D02*
X110070900Y-107000040D01*
X110718600Y-107000040D02*
X110070900Y-107000040D01*
X110718600Y-105600500D02*
X110718600Y-107000040D01*
X112191800Y-105600500D02*
X111541560Y-105600500D01*
X111541560Y-105600500D02*
X111541560Y-107000040D01*
X112191800Y-107000040D02*
X111541560Y-107000040D01*
X112191800Y-105600500D02*
X112191800Y-107000040D01*
X111323120Y-105801160D02*
X110926880Y-105801160D01*
X110926880Y-105801160D02*
X110926880Y-106796840D01*
X111323120Y-106796840D02*
X110926880Y-106796840D01*
X111323120Y-105801160D02*
X111323120Y-106796840D01*
D13*
X111533940Y-106934000D02*
X110716060Y-106934000D01*
X111533940Y-105664000D02*
X110716060Y-105664000D01*
D14*
X113096040Y-107281980D02*
X109153960Y-107281980D01*
X109153960Y-107281980D02*
X109153960Y-105316020D01*
X109153960Y-105316020D02*
X113096040Y-105316020D01*
X113096040Y-105316020D02*
X113096040Y-107281980D01*
D12*
X110718600Y-103441500D02*
X110070900Y-103441500D01*
X110070900Y-103441500D02*
X110070900Y-104841040D01*
X110718600Y-104841040D02*
X110070900Y-104841040D01*
X110718600Y-103441500D02*
X110718600Y-104841040D01*
X112191800Y-103441500D02*
X111541560Y-103441500D01*
X111541560Y-103441500D02*
X111541560Y-104841040D01*
X112191800Y-104841040D02*
X111541560Y-104841040D01*
X112191800Y-103441500D02*
X112191800Y-104841040D01*
X111323120Y-103642160D02*
X110926880Y-103642160D01*
X110926880Y-103642160D02*
X110926880Y-104637840D01*
X111323120Y-104637840D02*
X110926880Y-104637840D01*
X111323120Y-103642160D02*
X111323120Y-104637840D01*
D13*
X111533940Y-104775000D02*
X110716060Y-104775000D01*
X111533940Y-103505000D02*
X110716060Y-103505000D01*
D14*
X113096040Y-105122980D02*
X109153960Y-105122980D01*
X109153960Y-105122980D02*
X109153960Y-103157020D01*
X109153960Y-103157020D02*
X113096040Y-103157020D01*
X113096040Y-103157020D02*
X113096040Y-105122980D01*
D12*
X116801900Y-106159300D02*
X117538500Y-106159300D01*
X117538500Y-106159300D02*
X117538500Y-104406700D01*
X116801900Y-104406700D02*
X117538500Y-104406700D01*
X116801900Y-106159300D02*
X116801900Y-104406700D01*
X119443500Y-106159300D02*
X120180100Y-106159300D01*
X120180100Y-106159300D02*
X120180100Y-104406700D01*
X119443500Y-104406700D02*
X120180100Y-104406700D01*
X119443500Y-106159300D02*
X119443500Y-104406700D01*
X118191280Y-105981500D02*
X118790720Y-105981500D01*
X118790720Y-105981500D02*
X118790720Y-104584500D01*
X118191280Y-104584500D02*
X118790720Y-104584500D01*
X118191280Y-105981500D02*
X118191280Y-104584500D01*
D13*
X119443500Y-106095800D02*
X117525800Y-106095800D01*
X119443500Y-104470200D02*
X117525800Y-104470200D01*
D14*
X116019580Y-104300020D02*
X120962420Y-104300020D01*
X120962420Y-104300020D02*
X120962420Y-106265980D01*
X120962420Y-106265980D02*
X116019580Y-106265980D01*
X116019580Y-106265980D02*
X116019580Y-104300020D01*
D10*
X113832000Y-110570000D02*
X113732000Y-110570000D01*
X113732000Y-110570000D02*
X113732000Y-107870000D01*
X113732000Y-107870000D02*
X118082000Y-107870000D01*
X118082000Y-107870000D02*
X118082000Y-110570000D01*
X118082000Y-110570000D02*
X113782000Y-110570000D01*
D12*
X113728500Y-105689400D02*
X113728500Y-106337100D01*
X113728500Y-106337100D02*
X115128040Y-106337100D01*
X115128040Y-105689400D02*
X115128040Y-106337100D01*
X113728500Y-105689400D02*
X115128040Y-105689400D01*
X113728500Y-104216200D02*
X113728500Y-104866440D01*
X113728500Y-104866440D02*
X115128040Y-104866440D01*
X115128040Y-104216200D02*
X115128040Y-104866440D01*
X113728500Y-104216200D02*
X115128040Y-104216200D01*
X113929160Y-105084880D02*
X113929160Y-105481120D01*
X113929160Y-105481120D02*
X114924840Y-105481120D01*
X114924840Y-105084880D02*
X114924840Y-105481120D01*
X113929160Y-105084880D02*
X114924840Y-105084880D01*
D13*
X115062000Y-104874060D02*
X115062000Y-105691940D01*
X113792000Y-104874060D02*
X113792000Y-105691940D01*
D14*
X115409980Y-103311960D02*
X115409980Y-107254040D01*
X115409980Y-107254040D02*
X113444020Y-107254040D01*
X113444020Y-107254040D02*
X113444020Y-103311960D01*
X113444020Y-103311960D02*
X115409980Y-103311960D01*
D12*
X114909600Y-112077500D02*
X114261900Y-112077500D01*
X114261900Y-112077500D02*
X114261900Y-113477040D01*
X114909600Y-113477040D02*
X114261900Y-113477040D01*
X114909600Y-112077500D02*
X114909600Y-113477040D01*
X116382800Y-112077500D02*
X115732560Y-112077500D01*
X115732560Y-112077500D02*
X115732560Y-113477040D01*
X116382800Y-113477040D02*
X115732560Y-113477040D01*
X116382800Y-112077500D02*
X116382800Y-113477040D01*
X115514120Y-112278160D02*
X115117880Y-112278160D01*
X115117880Y-112278160D02*
X115117880Y-113273840D01*
X115514120Y-113273840D02*
X115117880Y-113273840D01*
X115514120Y-112278160D02*
X115514120Y-113273840D01*
D13*
X115724940Y-113411000D02*
X114907060Y-113411000D01*
X115724940Y-112141000D02*
X114907060Y-112141000D01*
D14*
X117287040Y-113758980D02*
X113344960Y-113758980D01*
X113344960Y-113758980D02*
X113344960Y-111793020D01*
X113344960Y-111793020D02*
X117287040Y-111793020D01*
X117287040Y-111793020D02*
X117287040Y-113758980D01*
D12*
X106997500Y-105689400D02*
X106997500Y-106337100D01*
X106997500Y-106337100D02*
X108397040Y-106337100D01*
X108397040Y-105689400D02*
X108397040Y-106337100D01*
X106997500Y-105689400D02*
X108397040Y-105689400D01*
X106997500Y-104216200D02*
X106997500Y-104866440D01*
X106997500Y-104866440D02*
X108397040Y-104866440D01*
X108397040Y-104216200D02*
X108397040Y-104866440D01*
X106997500Y-104216200D02*
X108397040Y-104216200D01*
X107198160Y-105084880D02*
X107198160Y-105481120D01*
X107198160Y-105481120D02*
X108193840Y-105481120D01*
X108193840Y-105084880D02*
X108193840Y-105481120D01*
X107198160Y-105084880D02*
X108193840Y-105084880D01*
D13*
X108331000Y-104874060D02*
X108331000Y-105691940D01*
X107061000Y-104874060D02*
X107061000Y-105691940D01*
D14*
X108678980Y-103311960D02*
X108678980Y-107254040D01*
X108678980Y-107254040D02*
X106713020Y-107254040D01*
X106713020Y-107254040D02*
X106713020Y-103311960D01*
X106713020Y-103311960D02*
X108678980Y-103311960D01*
D15*
X103290000Y-92016000D02*
X103290000Y-91186000D01*
X117640000Y-101266000D02*
X115640000Y-101266000D01*
X113140000Y-100766000D02*
X118170000Y-100766000D01*
X118170000Y-100766000D02*
X118170000Y-91766000D01*
X118170000Y-91766000D02*
X113140000Y-91766000D01*
X103290000Y-91186000D02*
X113140000Y-91186000D01*
X113140000Y-91186000D02*
X113140000Y-101346000D01*
X113140000Y-101346000D02*
X103290000Y-101346000D01*
X103290000Y-101346000D02*
X103290000Y-100516000D01*
D10*
X134012000Y-103278000D02*
X134012000Y-90778000D01*
X134012000Y-90778000D02*
X121512000Y-90778000D01*
X121512000Y-90778000D02*
X121512000Y-103278000D01*
X121512000Y-103278000D02*
X134012000Y-103278000D01*
X105988000Y-109982000D02*
X105988000Y-115132000D01*
X105988000Y-115132000D02*
X97688000Y-115132000D01*
X97688000Y-115132000D02*
X95688000Y-113132000D01*
X95688000Y-113132000D02*
X95688000Y-106832000D01*
X95688000Y-106832000D02*
X97688000Y-104832000D01*
X97688000Y-104832000D02*
X105988000Y-104832000D01*
X105988000Y-104832000D02*
X105988000Y-109982000D01*
X122612000Y-109982000D02*
X122612000Y-104832000D01*
X122612000Y-104832000D02*
X130912000Y-104832000D01*
X130912000Y-104832000D02*
X132912000Y-106832000D01*
X132912000Y-106832000D02*
X132912000Y-113132000D01*
X132912000Y-113132000D02*
X130912000Y-115132000D01*
X130912000Y-115132000D02*
X122612000Y-115132000D01*
X122612000Y-115132000D02*
X122612000Y-109982000D01*
X109942334Y-108561143D02*
X109894715Y-108608762D01*
X109751858Y-108656381D01*
X109656620Y-108656381D01*
X109513762Y-108608762D01*
X109418524Y-108513524D01*
X109370905Y-108418286D01*
X109323286Y-108227810D01*
X109323286Y-108084952D01*
X109370905Y-107894476D01*
X109418524Y-107799238D01*
X109513762Y-107704000D01*
X109656620Y-107656381D01*
X109751858Y-107656381D01*
X109894715Y-107704000D01*
X109942334Y-107751619D01*
X110323286Y-107751619D02*
X110370905Y-107704000D01*
X110466143Y-107656381D01*
X110704239Y-107656381D01*
X110799477Y-107704000D01*
X110847096Y-107751619D01*
X110894715Y-107846857D01*
X110894715Y-107942095D01*
X110847096Y-108084952D01*
X110275667Y-108656381D01*
X110894715Y-108656381D01*
X109942334Y-102846143D02*
X109894715Y-102893762D01*
X109751858Y-102941381D01*
X109656620Y-102941381D01*
X109513762Y-102893762D01*
X109418524Y-102798524D01*
X109370905Y-102703286D01*
X109323286Y-102512810D01*
X109323286Y-102369952D01*
X109370905Y-102179476D01*
X109418524Y-102084238D01*
X109513762Y-101989000D01*
X109656620Y-101941381D01*
X109751858Y-101941381D01*
X109894715Y-101989000D01*
X109942334Y-102036619D01*
X110275667Y-101941381D02*
X110894715Y-101941381D01*
X110561381Y-102322333D01*
X110704239Y-102322333D01*
X110799477Y-102369952D01*
X110847096Y-102417571D01*
X110894715Y-102512810D01*
X110894715Y-102750905D01*
X110847096Y-102846143D01*
X110799477Y-102893762D01*
X110704239Y-102941381D01*
X110418524Y-102941381D01*
X110323286Y-102893762D01*
X110275667Y-102846143D01*
X118324334Y-103735143D02*
X118276715Y-103782762D01*
X118133858Y-103830381D01*
X118038620Y-103830381D01*
X117895762Y-103782762D01*
X117800524Y-103687524D01*
X117752905Y-103592286D01*
X117705286Y-103401810D01*
X117705286Y-103258952D01*
X117752905Y-103068476D01*
X117800524Y-102973238D01*
X117895762Y-102878000D01*
X118038620Y-102830381D01*
X118133858Y-102830381D01*
X118276715Y-102878000D01*
X118324334Y-102925619D01*
X119181477Y-103163714D02*
X119181477Y-103830381D01*
X118943381Y-102782762D02*
X118705286Y-103497048D01*
X119324334Y-103497048D01*
X115212905Y-109672381D02*
X115212905Y-108672381D01*
X115451000Y-108672381D01*
X115593858Y-108720000D01*
X115689096Y-108815238D01*
X115736715Y-108910476D01*
X115784334Y-109100952D01*
X115784334Y-109243810D01*
X115736715Y-109434286D01*
X115689096Y-109529524D01*
X115593858Y-109624762D01*
X115451000Y-109672381D01*
X115212905Y-109672381D01*
X116736715Y-109672381D02*
X116165286Y-109672381D01*
X116451000Y-109672381D02*
X116451000Y-108672381D01*
X116355762Y-108815238D01*
X116260524Y-108910476D01*
X116165286Y-108958095D01*
X114260334Y-102941381D02*
X113927000Y-102465190D01*
X113688905Y-102941381D02*
X113688905Y-101941381D01*
X114069858Y-101941381D01*
X114165096Y-101989000D01*
X114212715Y-102036619D01*
X114260334Y-102131857D01*
X114260334Y-102274714D01*
X114212715Y-102369952D01*
X114165096Y-102417571D01*
X114069858Y-102465190D01*
X113688905Y-102465190D01*
X115212715Y-102941381D02*
X114641286Y-102941381D01*
X114927000Y-102941381D02*
X114927000Y-101941381D01*
X114831762Y-102084238D01*
X114736524Y-102179476D01*
X114641286Y-102227095D01*
X111466334Y-113228381D02*
X111133000Y-112752190D01*
X110894905Y-113228381D02*
X110894905Y-112228381D01*
X111275858Y-112228381D01*
X111371096Y-112276000D01*
X111418715Y-112323619D01*
X111466334Y-112418857D01*
X111466334Y-112561714D01*
X111418715Y-112656952D01*
X111371096Y-112704571D01*
X111275858Y-112752190D01*
X110894905Y-112752190D01*
X111847286Y-112323619D02*
X111894905Y-112276000D01*
X111990143Y-112228381D01*
X112228239Y-112228381D01*
X112323477Y-112276000D01*
X112371096Y-112323619D01*
X112418715Y-112418857D01*
X112418715Y-112514095D01*
X112371096Y-112656952D01*
X111799667Y-113228381D01*
X112418715Y-113228381D01*
X105497334Y-103957381D02*
X105164000Y-103481190D01*
X104925905Y-103957381D02*
X104925905Y-102957381D01*
X105306858Y-102957381D01*
X105402096Y-103005000D01*
X105449715Y-103052619D01*
X105497334Y-103147857D01*
X105497334Y-103290714D01*
X105449715Y-103385952D01*
X105402096Y-103433571D01*
X105306858Y-103481190D01*
X104925905Y-103481190D01*
X105830667Y-102957381D02*
X106449715Y-102957381D01*
X106116381Y-103338333D01*
X106259239Y-103338333D01*
X106354477Y-103385952D01*
X106402096Y-103433571D01*
X106449715Y-103528810D01*
X106449715Y-103766905D01*
X106402096Y-103862143D01*
X106354477Y-103909762D01*
X106259239Y-103957381D01*
X105973524Y-103957381D01*
X105878286Y-103909762D01*
X105830667Y-103862143D01*
X112466381Y-98242190D02*
X112466381Y-98718381D01*
X111466381Y-98718381D01*
X111466381Y-98051714D02*
X111466381Y-97480285D01*
X112466381Y-97766000D02*
X111466381Y-97766000D01*
X112466381Y-96623142D02*
X112466381Y-97194571D01*
X112466381Y-96908857D02*
X111466381Y-96908857D01*
X111609238Y-97004095D01*
X111704476Y-97099333D01*
X111752095Y-97194571D01*
X111466381Y-96289809D02*
X111466381Y-95670761D01*
X111847333Y-96004095D01*
X111847333Y-95861237D01*
X111894952Y-95765999D01*
X111942571Y-95718380D01*
X112037810Y-95670761D01*
X112275905Y-95670761D01*
X112371143Y-95718380D01*
X112418762Y-95765999D01*
X112466381Y-95861237D01*
X112466381Y-96146952D01*
X112418762Y-96242190D01*
X112371143Y-96289809D01*
X111466381Y-95337428D02*
X111466381Y-94670761D01*
X112466381Y-95099333D01*
X111466381Y-94099333D02*
X111466381Y-94004094D01*
X111514000Y-93908856D01*
X111561619Y-93861237D01*
X111656857Y-93813618D01*
X111847333Y-93765999D01*
X112085429Y-93765999D01*
X112275905Y-93813618D01*
X112371143Y-93861237D01*
X112418762Y-93908856D01*
X112466381Y-94004094D01*
X112466381Y-94099333D01*
X112418762Y-94194571D01*
X112371143Y-94242190D01*
X112275905Y-94289809D01*
X112085429Y-94337428D01*
X111847333Y-94337428D01*
X111656857Y-94289809D01*
X111561619Y-94242190D01*
X111514000Y-94194571D01*
X111466381Y-94099333D01*
X127595334Y-97480381D02*
X127119143Y-97480381D01*
X127119143Y-96480381D01*
X128452477Y-97480381D02*
X127881048Y-97480381D01*
X128166762Y-97480381D02*
X128166762Y-96480381D01*
X128071524Y-96623238D01*
X127976286Y-96718476D01*
X127881048Y-96766095D01*
X100671334Y-110339143D02*
X100623715Y-110386762D01*
X100480858Y-110434381D01*
X100385620Y-110434381D01*
X100242762Y-110386762D01*
X100147524Y-110291524D01*
X100099905Y-110196286D01*
X100052286Y-110005810D01*
X100052286Y-109862952D01*
X100099905Y-109672476D01*
X100147524Y-109577238D01*
X100242762Y-109482000D01*
X100385620Y-109434381D01*
X100480858Y-109434381D01*
X100623715Y-109482000D01*
X100671334Y-109529619D01*
X101623715Y-110434381D02*
X101052286Y-110434381D01*
X101338000Y-110434381D02*
X101338000Y-109434381D01*
X101242762Y-109577238D01*
X101147524Y-109672476D01*
X101052286Y-109720095D01*
X127595334Y-110339143D02*
X127547715Y-110386762D01*
X127404858Y-110434381D01*
X127309620Y-110434381D01*
X127166762Y-110386762D01*
X127071524Y-110291524D01*
X127023905Y-110196286D01*
X126976286Y-110005810D01*
X126976286Y-109862952D01*
X127023905Y-109672476D01*
X127071524Y-109577238D01*
X127166762Y-109482000D01*
X127309620Y-109434381D01*
X127404858Y-109434381D01*
X127547715Y-109482000D01*
X127595334Y-109529619D01*
X128500096Y-109434381D02*
X128023905Y-109434381D01*
X127976286Y-109910571D01*
X128023905Y-109862952D01*
X128119143Y-109815333D01*
X128357239Y-109815333D01*
X128452477Y-109862952D01*
X128500096Y-109910571D01*
X128547715Y-110005810D01*
X128547715Y-110243905D01*
X128500096Y-110339143D01*
X128452477Y-110386762D01*
X128357239Y-110434381D01*
X128119143Y-110434381D01*
X128023905Y-110386762D01*
X127976286Y-110339143D01*
M02*
