G04 #@! TF.FileFunction,Soldermask,Bot*
%FSLAX46Y46*%
G04 Gerber Fmt 4.6, Leading zero omitted, Abs format (unit mm)*
G04 Created by KiCad (PCBNEW (2015-06-26 BZR 5832)-product) date Sonntag, 28. Februar 2016 'u30' 08:30:51*
%MOMM*%
G01*
G04 APERTURE LIST*
%ADD10C,0.150000*%
%ADD11C,1.422400*%
%ADD12C,2.032000*%
%ADD13O,2.032000X2.032000*%
%ADD14C,1.300000*%
%ADD15C,3.200000*%
G04 APERTURE END LIST*
D10*
D11*
X98044000Y-99042220D03*
X98044000Y-97045780D03*
D12*
X116840000Y-119380000D03*
X114300000Y-119380000D03*
X111760000Y-119380000D03*
X116840000Y-116840000D03*
X114300000Y-116840000D03*
X111760000Y-116840000D03*
X116840000Y-88900000D03*
X114300000Y-88900000D03*
X111760000Y-88900000D03*
X99060000Y-116840000D03*
X104140000Y-88900000D03*
X106680000Y-88900000D03*
X121920000Y-88900000D03*
X124460000Y-88900000D03*
X116840000Y-86360000D03*
X114300000Y-86360000D03*
X111760000Y-86360000D03*
X99060000Y-88900000D03*
X101600000Y-88900000D03*
X101600000Y-116840000D03*
X101600000Y-119380000D03*
X99060000Y-86360000D03*
X101600000Y-86360000D03*
X127000000Y-116840000D03*
X104140000Y-86360000D03*
X106680000Y-86360000D03*
X121920000Y-86360000D03*
X127000000Y-86360000D03*
X129540000Y-86360000D03*
X124460000Y-86360000D03*
X129540000Y-119380000D03*
X127000000Y-119380000D03*
X129540000Y-88900000D03*
X127000000Y-88900000D03*
X99060000Y-119380000D03*
X129540000Y-116840000D03*
X104140000Y-119380000D03*
X104140000Y-116840000D03*
X106680000Y-119380000D03*
X106680000Y-116840000D03*
X109220000Y-119380000D03*
X109220000Y-116840000D03*
X119380000Y-119380000D03*
X119380000Y-116840000D03*
X121920000Y-119380000D03*
X121920000Y-116840000D03*
X124460000Y-119380000D03*
X124460000Y-116840000D03*
X119380000Y-88900000D03*
D13*
X119380000Y-86360000D03*
D12*
X109220000Y-88900000D03*
D13*
X109220000Y-86360000D03*
D14*
X94626000Y-99644000D03*
X92826000Y-98844000D03*
X94626000Y-98044000D03*
X92826000Y-97244000D03*
X94626000Y-96444000D03*
D15*
X93726000Y-93844000D03*
X93726000Y-102244000D03*
M02*
