G04 #@! TF.FileFunction,Soldermask,Top*
%FSLAX46Y46*%
G04 Gerber Fmt 4.6, Leading zero omitted, Abs format (unit mm)*
G04 Created by KiCad (PCBNEW (2015-06-26 BZR 5832)-product) date Sonntag, 28. Februar 2016 'u30' 08:30:51*
%MOMM*%
G01*
G04 APERTURE LIST*
%ADD10C,0.150000*%
%ADD11C,1.422400*%
%ADD12C,2.032000*%
%ADD13R,1.099820X1.399540*%
%ADD14R,1.597660X1.800860*%
%ADD15R,2.500000X1.520000*%
%ADD16R,4.100000X2.200000*%
%ADD17R,1.399540X1.099820*%
%ADD18R,2.032000X2.032000*%
%ADD19O,2.032000X2.032000*%
%ADD20C,1.300000*%
%ADD21C,3.200000*%
%ADD22R,6.350000X7.620000*%
%ADD23R,2.410000X0.910000*%
%ADD24R,2.410000X10.000000*%
%ADD25R,5.000000X2.150000*%
%ADD26R,5.600000X4.300000*%
G04 APERTURE END LIST*
D10*
D11*
X98044000Y-99042220D03*
X98044000Y-97045780D03*
D12*
X116840000Y-119380000D03*
X114300000Y-119380000D03*
X111760000Y-119380000D03*
X116840000Y-116840000D03*
X114300000Y-116840000D03*
X111760000Y-116840000D03*
X116840000Y-88900000D03*
X114300000Y-88900000D03*
X111760000Y-88900000D03*
D13*
X111996220Y-105664000D03*
X109999780Y-105664000D03*
X111996220Y-103378000D03*
X109999780Y-103378000D03*
D14*
X120291860Y-105156000D03*
X117452140Y-105156000D03*
D15*
X117994000Y-109220000D03*
D16*
X113774000Y-109220000D03*
D12*
X99060000Y-116840000D03*
X104140000Y-88900000D03*
X106680000Y-88900000D03*
X121920000Y-88900000D03*
X124460000Y-88900000D03*
D17*
X114300000Y-103522780D03*
X114300000Y-105519220D03*
X109982000Y-108729780D03*
X109982000Y-110726220D03*
D13*
X115298220Y-112522000D03*
X113301780Y-112522000D03*
D12*
X116840000Y-86360000D03*
X114300000Y-86360000D03*
X111760000Y-86360000D03*
D18*
X95250000Y-88900000D03*
D12*
X99060000Y-88900000D03*
X101600000Y-88900000D03*
D18*
X133350000Y-88900000D03*
X133350000Y-116840000D03*
D12*
X101600000Y-116840000D03*
X101600000Y-119380000D03*
D18*
X95250000Y-116840000D03*
D12*
X99060000Y-86360000D03*
X101600000Y-86360000D03*
X127000000Y-116840000D03*
X104140000Y-86360000D03*
X106680000Y-86360000D03*
X121920000Y-86360000D03*
X127000000Y-86360000D03*
X129540000Y-86360000D03*
X124460000Y-86360000D03*
X129540000Y-119380000D03*
X127000000Y-119380000D03*
X129540000Y-88900000D03*
X127000000Y-88900000D03*
X99060000Y-119380000D03*
X129540000Y-116840000D03*
X104140000Y-119380000D03*
X104140000Y-116840000D03*
X106680000Y-119380000D03*
X106680000Y-116840000D03*
X109220000Y-119380000D03*
X109220000Y-116840000D03*
X119380000Y-119380000D03*
X119380000Y-116840000D03*
X121920000Y-119380000D03*
X121920000Y-116840000D03*
X124460000Y-119380000D03*
X124460000Y-116840000D03*
X119380000Y-88900000D03*
D19*
X119380000Y-86360000D03*
D12*
X109220000Y-88900000D03*
D19*
X109220000Y-86360000D03*
D20*
X94626000Y-99644000D03*
X92826000Y-98844000D03*
X94626000Y-98044000D03*
X92826000Y-97244000D03*
X94626000Y-96444000D03*
D21*
X93726000Y-93844000D03*
X93726000Y-102244000D03*
D22*
X107490000Y-96266000D03*
D23*
X116715000Y-100076000D03*
X116715000Y-98806000D03*
X116715000Y-97536000D03*
X116715000Y-96266000D03*
X116715000Y-94996000D03*
X116715000Y-93726000D03*
X116715000Y-92456000D03*
D24*
X103490000Y-96266000D03*
D25*
X123262000Y-95313000D03*
X123262000Y-98743000D03*
X132262000Y-98743000D03*
X132262000Y-95313000D03*
D26*
X96388000Y-109982000D03*
X105288000Y-109982000D03*
X123312000Y-109982000D03*
X132212000Y-109982000D03*
M02*
