M48
INCH,TZ
T1C0.016
T2C0.024
T3C0.040
T4C0.118
%
G90
G05
T1
X52600Y-49300
X52650Y-39300
X52700Y-31000
X52850Y-40000
X53150Y-43550
X53250Y-48000
X53500Y-43750
X53500Y-44250
X53500Y-46000
X53900Y-40950
X54000Y-36550
X54000Y-47000
X54000Y-47550
X54100Y-35400
X54300Y-42900
X54500Y-47500
X54600Y-42050
X54700Y-37600
X54700Y-39050
X54850Y-45700
X55250Y-43250
X55250Y-43750
X55250Y-48400
X55250Y-48750
X55500Y-37600
X55700Y-51600
X56000Y-50600
X56100Y-42000
X56200Y-46200
X56400Y-47500
X56450Y-38800
X56700Y-36950
X56850Y-42000
X57250Y-47500
X57400Y-36650
X57650Y-47750
X57800Y-36650
X58000Y-48000
X58100Y-43000
X58100Y-43500
X58100Y-43850
X58100Y-46000
X58200Y-44500
X58200Y-45300
X58400Y-36900
X58400Y-37700
X58400Y-38500
X59350Y-45300
X59500Y-41500
X59600Y-39800
X59950Y-32650
X60000Y-40000
X60000Y-41000
X60050Y-50600
X60800Y-50900
X60900Y-51900
X61500Y-45500
X61500Y-48750
X61550Y-46500
X62000Y-40800
X62750Y-47100
X62800Y-47900
X63000Y-32800
X63000Y-33300
X63400Y-44500
X63450Y-45500
X64900Y-50400
X67750Y-48800
X67850Y-43800
X67950Y-36750
X69400Y-35900
X70200Y-40450
X70650Y-41700
X71200Y-38600
X71200Y-43000
X71200Y-43900
X71500Y-37500
X71500Y-38900
X71900Y-40450
X72350Y-41700
X72800Y-39150
T3
X48860Y-32220
X48860Y-34780
X48860Y-36220
X48860Y-38780
X49250Y-41000
X49250Y-42000
X49250Y-43000
X49250Y-45000
X49250Y-46000
X49250Y-47000
X50250Y-41000
X50250Y-42000
X50250Y-43000
X50250Y-45000
X50250Y-46000
X50250Y-47000
X50640Y-32220
X50640Y-34780
X50640Y-36220
X50640Y-38780
X52000Y-33000
X52000Y-34000
X52000Y-35000
X52000Y-36000
X52000Y-37000
X52000Y-38000
X52000Y-39000
X52000Y-40000
X52000Y-41000
X52000Y-42000
X52000Y-43000
X52000Y-44000
X52000Y-45000
X52000Y-46000
X52000Y-47000
X57500Y-28642
X57500Y-29642
X58500Y-28642
X58500Y-29642
X59500Y-28642
X59500Y-29642
X60500Y-28642
X60500Y-29642
X61000Y-33000
X61000Y-34000
X61000Y-35000
X61000Y-36000
X61000Y-37000
X61000Y-38000
X61000Y-39000
X61000Y-40000
X61000Y-41000
X61000Y-42000
X61000Y-43000
X61000Y-44000
X61000Y-45000
X61000Y-46000
X61000Y-47000
X61500Y-28642
X61500Y-29642
X62500Y-28642
X62500Y-29642
X63000Y-34000
X63000Y-35000
X63000Y-36000
X63000Y-37000
X63000Y-38000
X63000Y-39000
X63000Y-40000
X63000Y-41000
X63000Y-42000
X63000Y-43000
X63000Y-44000
X63000Y-45000
X63000Y-46000
X63500Y-28642
X63500Y-29642
X64500Y-28642
X64500Y-29642
X65500Y-28642
X65500Y-29642
X66500Y-28642
X66500Y-29642
X67250Y-50750
X67250Y-51750
X68250Y-50750
X68250Y-51750
X69250Y-50750
X69250Y-51750
X74000Y-34000
X74000Y-35000
X74000Y-36000
X74000Y-37000
X74000Y-38000
X74000Y-39000
X74000Y-40000
X74000Y-41000
X74000Y-42000
X74000Y-43000
X74000Y-44000
X74000Y-45000
X74000Y-46000
T4
X49750Y-28750
X49750Y-51250
X73750Y-28750
X73750Y-51250
T2
X59922Y-52282G85X59922Y-52518
G05
X60257Y-51337G85X60375Y-51337
G05
X62225Y-51337G85X62343Y-51337
G05
X62678Y-52282G85X62678Y-52518
G05
T0
M30
